<?xml version="1.0" standalone="no"?>
<!DOCTYPE svg PUBLIC "-//W3C//DTD SVG 1.1//EN" "http://www.w3.org/Graphics/SVG/1.1/DTD/svg11.dtd" >
<svg xmlns="http://www.w3.org/2000/svg" xmlns:xlink="http://www.w3.org/1999/xlink" version="1.1">
<metadata>
Created by FontForge 20230101 at Fri Sep 10 17:37:55 2021
 By Webmaster
Copyright 2020 The Jost Project Authors (https://github.com/indestructible-type/Jost)
</metadata>
<defs>
<font id="Jost-ExtraLightItalic" horiz-adv-x="533" >
  <font-face 
    font-family="Jost ExtraLight"
    font-weight="250"
    font-style="italic"
    font-stretch="normal"
    units-per-em="1000"
    panose-1="0 0 0 0 0 0 0 0 0 0"
    ascent="800"
    descent="-200"
    x-height="460"
    cap-height="700"
    bbox="-179 -331 1384.89 1012"
    underline-thickness="50"
    underline-position="-125"
    slope="-5"
    unicode-range="U+000D-FF19"
  />
<missing-glyph horiz-adv-x="500" 
 />
    <glyph glyph-name=".notdef" horiz-adv-x="500" 
 />
    <glyph glyph-name="space" unicode=" " horiz-adv-x="301" 
 />
    <glyph glyph-name="uni00A0" unicode="&#xa0;" horiz-adv-x="301" 
 />
    <glyph glyph-name="A" unicode="A" horiz-adv-x="599" 
d="M147 254h341l-4 30h-324zM384 645l83 -374l1 -8l57 -263h36l-165 721l-413 -721h37l150 265l4 8z" />
    <glyph glyph-name="Agrave" unicode="&#xc0;" horiz-adv-x="599" 
d="M146 254h342l-4 30h-326zM384 645l83 -374l1 -8l57 -263h36l-165 721l-413 -721h37l150 265l4 8zM302 936l145 -154l18 11l-134 160z" />
    <glyph glyph-name="Aacute" unicode="&#xc1;" horiz-adv-x="599" 
d="M146 254h342l-4 30h-326zM384 645l83 -374l1 -8l57 -263h36l-165 721l-413 -721h37l150 265l4 8zM564 935l-26 17l-186 -158l14 -12z" />
    <glyph glyph-name="Acircumflex" unicode="&#xc2;" horiz-adv-x="599" 
d="M146 254h342l-4 30h-326zM384 645l83 -374l1 -8l57 -263h36l-165 721l-413 -721h37l150 265l4 8zM426 892l116 -123l20 17l-132 140l-179 -139l17 -17z" />
    <glyph glyph-name="Atilde" unicode="&#xc3;" horiz-adv-x="599" 
d="M146 254h342l-4 30h-326zM384 645l83 -374l1 -8l57 -263h36l-165 721l-413 -721h37l150 265l4 8zM275 802l21 -12q7 17 20.5 33t40.5 17q21 0 36.5 -11.5t32 -23t41.5 -11.5q19 0 34.5 7.5t28.5 21t23 29.5l-19 15q-13 -19 -28 -33t-35 -14q-23 -1 -38.5 10.5t-31.5 23.5
t-43 12q-21 0 -37.5 -9.5t-27.5 -24t-18 -30.5z" />
    <glyph glyph-name="Adieresis" unicode="&#xc4;" horiz-adv-x="599" 
d="M146 254h342l-4 30h-326zM384 645l83 -374l1 -8l57 -263h36l-165 721l-413 -721h37l150 265l4 8zM486 819q0 -9 5.5 -16t14.5 -8q9 0 17.5 7.5t9.5 16.5t-4.5 16.5t-14.5 7.5t-17.5 -7t-10.5 -17zM292 819q-1 -9 5 -16t15 -8q9 0 17.5 7.5t9.5 16.5t-4.5 16.5t-15.5 7.5
q-9 0 -17.5 -7t-9.5 -17z" />
    <glyph glyph-name="Aring" unicode="&#xc5;" horiz-adv-x="599" 
d="M146 254h342l-4 30h-326zM384 645l83 -374l1 -8l57 -263h36l-165 721l-413 -721h37l150 265l4 8zM311 806q-4 -27 6 -49.5t30.5 -36.5t46.5 -14q27 0 52 13t42.5 35.5t21.5 50.5q4 27 -6 49.5t-30 36.5t-47 14q-26 0 -51.5 -13.5t-43 -35.5t-21.5 -50zM333 805
q3 22 17 40t34 29t40 10q31 -1 49.5 -24t14.5 -55q-5 -32 -33 -55.5t-59 -22.5t-49 24t-14 54z" />
    <glyph glyph-name="Amacron" unicode="&#x100;" horiz-adv-x="599" 
d="M146 254h342l-4 30h-326zM384 645l83 -374l1 -8l57 -263h36l-165 721l-413 -721h37l150 265l4 8zM239 795h340l5 29h-340z" />
    <glyph glyph-name="Abreve" unicode="&#x102;" horiz-adv-x="599" 
d="M146 254h342l-4 30h-326zM384 645l83 -374l1 -8l57 -263h36l-165 721l-413 -721h37l150 265l4 8zM278 928q-3 -36 9.5 -68t43 -51.5t78.5 -19.5q49 0 84.5 19.5t58.5 51t33 67.5h-28q-8 -28 -27.5 -54t-49.5 -42t-70 -16q-38 0 -62.5 16t-34.5 42t-8 55h-27z" />
    <glyph glyph-name="Aogonek" unicode="&#x104;" horiz-adv-x="599" 
d="M147 254h341l-4 30h-324zM384 645l83 -374l1 -8l57 -263h36l-165 721l-413 -721h37l150 265l4 8zM557 -160q-14 -12 -35 -22t-47 -9q-30 0 -49.5 16t-16.5 47q5 30 30 53.5t59 42t63 32.5l-15 14q-33 -16 -70.5 -36.5t-64.5 -47.5t-33 -63q-5 -40 21.5 -63t71.5 -23
q30 -1 55.5 11t42.5 27z" />
    <glyph glyph-name="B" unicode="B" horiz-adv-x="498" 
d="M146 382h111q53 1 98.5 17.5t76.5 50.5t39 86q7 39 -3 69.5t-33 51.5t-57 32t-76 11h-125l-120 -700h138q65 0 119.5 23t91 68t45.5 110q6 45 -7.5 80t-40.5 60t-62.5 37.5t-74.5 12.5h-118l-3 -19h114q47 0 86.5 -21.5t60.5 -59t13 -88.5q-8 -56 -39 -94.5t-78 -58.5
t-104 -20h-104l110 640h96q70 0 109.5 -36t29.5 -100q-7 -45 -35 -74t-68 -43.5t-84 -15.5h-103z" />
    <glyph glyph-name="C" unicode="C" horiz-adv-x="665" 
d="M113 350q10 67 40.5 125.5t77 103.5t105 70.5t125.5 25.5q64 1 115 -21.5t88 -66.5l7 43q-41 40 -90.5 60t-116.5 19q-74 0 -139 -28.5t-116.5 -78t-85 -114t-45.5 -138.5q-10 -69 2.5 -133.5t46.5 -115t89.5 -80t128.5 -29.5q71 -1 126.5 20.5t104.5 58.5l7 43
q-48 -40 -106 -64.5t-129 -23.5q-66 0 -114.5 27t-78.5 73t-41 104t-1 120z" />
    <glyph glyph-name="Ccedilla" unicode="&#xc7;" horiz-adv-x="665" 
d="M113 350q10 67 40.5 125.5t77 103.5t105 70.5t125.5 25.5q64 1 115 -21.5t88 -66.5l7 43q-41 40 -90.5 60t-116.5 19q-74 0 -139 -28.5t-116.5 -78t-85 -114t-45.5 -138.5q-10 -69 2.5 -133.5t46.5 -115t89.5 -80t128.5 -29.5q71 -1 126.5 20.5t104.5 58.5l7 43
q-48 -40 -106 -64.5t-129 -23.5q-66 0 -114.5 27t-78.5 73t-41 104t-1 120zM340 16l-81 -110q18 10 38 17t39 6q15 -1 26.5 -8t17 -19t3.5 -29q-2 -21 -17 -37t-35 -24.5t-41 -8.5t-36.5 8t-30.5 22l-17 -15q19 -19 37 -28.5t44 -9.5q27 0 53.5 11t45 32.5t21.5 49.5
q4 32 -14.5 52.5t-44.5 21.5q-17 1 -28.5 -4t-25.5 -12l72 85h-26z" />
    <glyph glyph-name="Cacute" unicode="&#x106;" horiz-adv-x="665" 
d="M113 350q10 67 40.5 125.5t77 103.5t105 70.5t125.5 25.5q64 1 115 -21.5t88 -66.5l7 43q-41 40 -90.5 60t-116.5 19q-74 0 -139 -28.5t-116.5 -78t-85 -114t-45.5 -138.5q-10 -69 2.5 -133.5t46.5 -115t89.5 -80t128.5 -29.5q71 -1 126.5 20.5t104.5 58.5l7 43
q-48 -40 -106 -64.5t-129 -23.5q-66 0 -114.5 27t-78.5 73t-41 104t-1 120zM633 922l-24 18l-188 -158l15 -12z" />
    <glyph glyph-name="Ccircumflex" unicode="&#x108;" horiz-adv-x="665" 
d="M113 350q10 67 40.5 125.5t77 103.5t105 70.5t125.5 25.5q64 1 115 -21.5t88 -66.5l7 43q-41 40 -90.5 60t-116.5 19q-74 0 -139 -28.5t-116.5 -78t-85 -114t-45.5 -138.5q-10 -69 2.5 -133.5t46.5 -115t89.5 -80t128.5 -29.5q71 -1 126.5 20.5t104.5 58.5l7 43
q-48 -40 -106 -64.5t-129 -23.5q-66 0 -114.5 27t-78.5 73t-41 104t-1 120zM498 892l115 -123l22 16l-133 140l-179 -138l17 -17z" />
    <glyph glyph-name="Cdotaccent" unicode="&#x10a;" horiz-adv-x="665" 
d="M113 350q10 67 40.5 125.5t77 103.5t105 70.5t125.5 25.5q64 1 115 -21.5t88 -66.5l7 43q-41 40 -90.5 60t-116.5 19q-74 0 -139 -28.5t-116.5 -78t-85 -114t-45.5 -138.5q-10 -69 2.5 -133.5t46.5 -115t89.5 -80t128.5 -29.5q71 -1 126.5 20.5t104.5 58.5l7 43
q-48 -40 -106 -64.5t-129 -23.5q-66 0 -114.5 27t-78.5 73t-41 104t-1 120zM458 800q-1 -9 5 -16.5t15 -7.5t17.5 7.5t8.5 15.5q2 10 -4 17t-15 7q-9 1 -17.5 -6.5t-9.5 -16.5z" />
    <glyph glyph-name="Ccaron" unicode="&#x10c;" horiz-adv-x="665" 
d="M113 350q10 67 40.5 125.5t77 103.5t105 70.5t125.5 25.5q64 1 115 -21.5t88 -66.5l7 43q-41 40 -90.5 60t-116.5 19q-74 0 -139 -28.5t-116.5 -78t-85 -114t-45.5 -138.5q-10 -69 2.5 -133.5t46.5 -115t89.5 -80t128.5 -29.5q71 -1 126.5 20.5t104.5 58.5l7 43
q-48 -40 -106 -64.5t-129 -23.5q-66 0 -114.5 27t-78.5 73t-41 104t-1 120zM482 810l-114 123l-23 -17l133 -140l179 139l-18 17z" />
    <glyph glyph-name="D" unicode="D" horiz-adv-x="629" 
d="M177 700l-120 -700h32l120 700h-32zM228 0q77 0 142.5 26.5t116.5 74t84.5 111.5t45.5 138q11 71 -2 134.5t-48 111.5t-90.5 76t-130.5 28h-152l-6 -33h154q70 0 120 -25t80.5 -69t41.5 -101t0 -122q-14 -90 -62 -162t-122.5 -113.5t-168.5 -41.5h-151l-6 -33h154z" />
    <glyph glyph-name="Dcaron" unicode="&#x10e;" horiz-adv-x="629" 
d="M177 700l-120 -700h32l120 700h-32zM228 0q102 2 184 48t135.5 124.5t69.5 177.5q14 95 -13.5 174t-92.5 127t-165 49h-152l-6 -33h154q92 -1 150.5 -44.5t82 -114.5t9.5 -158q-14 -90 -62 -161.5t-122.5 -112.5t-168.5 -43h-151l-6 -33h154zM424 824l-114 123l-22 -17
l133 -140l179 139l-18 17z" />
    <glyph glyph-name="E" unicode="E" horiz-adv-x="506" 
d="M72 0h334l4 31h-333zM187 669h332l6 31h-333zM136 371h313l5 31h-313zM177 700l-120 -700h32l120 700h-32z" />
    <glyph glyph-name="Egrave" unicode="&#xc8;" horiz-adv-x="506" 
d="M72 0h334l4 31h-333zM187 670l332 -1l6 31h-333zM136 371h313l5 31h-313zM177 700l-120 -700h32l120 700h-32zM245 924l145 -155l17 12l-134 160z" />
    <glyph glyph-name="Eacute" unicode="&#xc9;" horiz-adv-x="506" 
d="M72 0h334l4 31h-333zM187 670l332 -1l6 31h-333zM136 371h313l5 31h-313zM177 700l-120 -700h32l120 700h-32zM533 922l-24 18l-188 -158l15 -12z" />
    <glyph glyph-name="Ecircumflex" unicode="&#xca;" horiz-adv-x="506" 
d="M72 0h334l4 31h-333zM187 670l332 -1l6 31h-333zM136 371h313l5 31h-313zM177 700l-120 -700h32l120 700h-32zM387 892l116 -123l21 16l-133 140l-179 -138l17 -17z" />
    <glyph glyph-name="Edieresis" unicode="&#xcb;" horiz-adv-x="506" 
d="M72 0h334l4 31h-333zM187 670l332 -1l6 31h-333zM136 371h313l5 31h-313zM177 700l-120 -700h32l120 700h-32zM446 813q0 -9 5.5 -16.5t14.5 -7.5t17.5 7.5t9.5 15.5q1 10 -4.5 17t-14.5 7q-9 1 -17.5 -6.5t-10.5 -16.5zM252 813q-1 -9 5 -16.5t15 -7.5t17.5 7.5
t9.5 15.5q1 10 -4.5 17t-15.5 7q-9 1 -17.5 -6.5t-9.5 -16.5z" />
    <glyph glyph-name="Emacron" unicode="&#x112;" horiz-adv-x="506" 
d="M72 0h334l4 31h-333zM187 670l332 -1l6 31h-333zM136 371h313l5 31h-313zM177 700l-120 -700h32l120 700h-32zM214 816h340l5 29h-340z" />
    <glyph glyph-name="Ebreve" unicode="&#x114;" horiz-adv-x="506" 
d="M72 0h334l4 31h-333zM187 670l332 -1l6 31h-333zM136 371h313l5 31h-313zM177 700l-120 -700h32l120 700h-32zM240 909q-3 -36 9.5 -68t43 -51.5t78.5 -19.5q49 0 84.5 19.5t58.5 51t33 67.5h-28q-8 -28 -28 -54t-49.5 -42t-69.5 -16q-38 0 -62.5 16t-34.5 42t-8 55h-27z
" />
    <glyph glyph-name="Edotaccent" unicode="&#x116;" horiz-adv-x="506" 
d="M72 0h334l4 31h-333zM187 670l332 -1l6 31h-333zM136 371h313l5 31h-313zM177 700l-120 -700h32l120 700h-32zM343 793q-1 -9 5 -16.5t15 -7.5t17.5 7.5t9.5 15.5q1 10 -4.5 17t-15.5 7q-9 1 -17.5 -6.5t-9.5 -16.5z" />
    <glyph glyph-name="Eogonek" unicode="&#x118;" horiz-adv-x="506" 
d="M72 0h334l4 31h-333zM187 670l332 -1l6 31h-333zM136 371h313l5 31h-313zM177 700l-120 -700h32l120 700h-32zM368 -160q-15 -12 -36 -22t-47 -9q-30 0 -49.5 16t-16.5 47q5 30 30 53.5t59 42t63 32.5l-15 14q-34 -16 -71 -36.5t-64 -47.5t-33 -63q-5 -40 21 -63t71 -23
q31 -1 56.5 11t42.5 27z" />
    <glyph glyph-name="Ecaron" unicode="&#x11a;" horiz-adv-x="506" 
d="M72 0h334l4 31h-333zM187 670l332 -1l6 31h-333zM136 371h313l5 31h-313zM177 700l-120 -700h32l120 700h-32zM367 803l-114 123l-22 -17l132 -140l179 139l-18 17z" />
    <glyph glyph-name="F" unicode="F" horiz-adv-x="451" 
d="M187 669h293l6 31h-293zM135 364l284 -1l5 31h-284zM177 700l-120 -700h32l120 700h-32z" />
    <glyph glyph-name="G" unicode="G" horiz-adv-x="745" 
d="M430 314h257q-15 -56 -44.5 -108t-71.5 -92.5t-96 -64.5t-119 -24q-67 0 -117.5 27t-81.5 72.5t-42.5 104t-2.5 121.5q11 68 42.5 127t79.5 103.5t107.5 70t128.5 25.5q79 0 137.5 -37.5t87.5 -101.5l27 20q-37 70 -99.5 111t-149.5 41q-76 0 -142 -28t-119 -77.5
t-87.5 -114.5t-46.5 -139q-10 -70 3.5 -134t49.5 -114.5t92 -80t130 -29.5q76 0 139 29.5t110.5 79t79 113t44.5 130.5h-291z" />
    <glyph glyph-name="Gcircumflex" unicode="&#x11c;" horiz-adv-x="745" 
d="M430 314h258q-15 -56 -44.5 -108t-72 -92.5t-96.5 -64.5t-119 -24q-67 0 -117.5 27t-81.5 72.5t-42.5 104t-2.5 121.5q11 68 42.5 127t79.5 103.5t107.5 70t128.5 25.5q79 0 137.5 -37.5t87.5 -101.5l27 20q-37 70 -99.5 111t-149.5 41q-76 0 -142 -28t-119 -77.5
t-87.5 -114.5t-46.5 -139q-10 -70 3.5 -134t49.5 -114.5t92 -80t130 -29.5q76 0 139 29.5t110.5 79t79 113t44.5 130.5h-291zM506 892l116 -123l21 16l-133 140l-179 -138l17 -17z" />
    <glyph glyph-name="Gbreve" unicode="&#x11e;" horiz-adv-x="745" 
d="M430 314h258q-15 -56 -44.5 -108t-72 -92.5t-96.5 -64.5t-119 -24q-67 0 -117.5 27t-81.5 72.5t-42.5 104t-2.5 121.5q11 68 42.5 127t79.5 103.5t107.5 70t128.5 25.5q79 0 137.5 -37.5t87.5 -101.5l27 20q-37 70 -99.5 111t-149.5 41q-76 0 -142 -28t-119 -77.5
t-87.5 -114.5t-46.5 -139q-10 -70 3.5 -134t49.5 -114.5t92 -80t130 -29.5q76 0 139 29.5t110.5 79t79 113t44.5 130.5h-291zM354 909q-3 -36 10.5 -68t43.5 -51.5t77 -19.5q49 0 85 19.5t59.5 51t32.5 67.5h-27q-9 -28 -28.5 -54t-49 -42t-69.5 -16q-39 0 -63.5 16t-35 42
t-7.5 55h-28z" />
    <glyph glyph-name="Gdotaccent" unicode="&#x120;" horiz-adv-x="745" 
d="M430 314h258q-15 -56 -44.5 -108t-72 -92.5t-96.5 -64.5t-119 -24q-67 0 -117.5 27t-81.5 72.5t-42.5 104t-2.5 121.5q11 68 42.5 127t79.5 103.5t107.5 70t128.5 25.5q79 0 137.5 -37.5t87.5 -101.5l27 20q-37 70 -99.5 111t-149.5 41q-76 0 -142 -28t-119 -77.5
t-87.5 -114.5t-46.5 -139q-10 -70 3.5 -134t49.5 -114.5t92 -80t130 -29.5q76 0 139 29.5t110.5 79t79 113t44.5 130.5h-291zM465 793q-1 -9 5 -16.5t15 -7.5t17.5 7.5t8.5 15.5q2 10 -3.5 17t-15.5 7q-9 1 -18 -6.5t-9 -16.5z" />
    <glyph glyph-name="uni0122" unicode="&#x122;" horiz-adv-x="745" 
d="M430 314h258q-15 -56 -44.5 -108t-72 -92.5t-96.5 -64.5t-119 -24q-67 0 -117.5 27t-81.5 72.5t-42.5 104t-2.5 121.5q11 68 42.5 127t79.5 103.5t107.5 70t128.5 25.5q79 0 137.5 -37.5t87.5 -101.5l27 20q-37 70 -99.5 111t-149.5 41q-76 0 -142 -28t-119 -77.5
t-87.5 -114.5t-46.5 -139q-10 -70 3.5 -134t49.5 -114.5t92 -80t130 -29.5q76 0 139 29.5t110.5 79t79 113t44.5 130.5h-291zM374 -70l-141 -252l20 -8l152 248z" />
    <glyph glyph-name="H" unicode="H" horiz-adv-x="647" 
d="M136 366h452l5 31h-453zM624 700l-121 -700h32l122 700h-33zM177 700l-120 -700h32l120 700h-32z" />
    <glyph glyph-name="Hcircumflex" unicode="&#x124;" horiz-adv-x="647" 
d="M136 366h452l5 31h-453zM624 700l-121 -700h32l122 700h-33zM177 700l-120 -700h32l120 700h-32zM451 892l114 -123l22 16l-133 140l-179 -138l17 -17z" />
    <glyph glyph-name="I" unicode="I" horiz-adv-x="193" 
d="M174 700l-120 -700h31l121 700h-32z" />
    <glyph glyph-name="Igrave" unicode="&#xcc;" horiz-adv-x="193" 
d="M174 700l-120 -700h31l121 700h-32zM83 924l146 -155l17 12l-134 160z" />
    <glyph glyph-name="Iacute" unicode="&#xcd;" horiz-adv-x="193" 
d="M174 700l-120 -700h31l121 700h-32zM371 922l-23 18l-188 -158l15 -12z" />
    <glyph glyph-name="Icircumflex" unicode="&#xce;" horiz-adv-x="193" 
d="M174 700l-120 -700h31l121 700h-32zM223 892l115 -123l21 16l-132 140l-179 -138l17 -17z" />
    <glyph glyph-name="Idieresis" unicode="&#xcf;" horiz-adv-x="193" 
d="M174 700l-120 -700h31l121 700h-32zM260 807q-1 -9 5 -16.5t15 -7.5q10 0 18 7.5t10 15.5q0 10 -5.5 17t-15.5 8q-9 0 -17.5 -7.5t-9.5 -16.5zM107 807q0 -9 5.5 -16.5t14.5 -7.5q10 0 18 7.5t10 15.5q0 10 -5.5 17t-14.5 8q-9 0 -17.5 -7.5t-10.5 -16.5z" />
    <glyph glyph-name="Itilde" unicode="&#x128;" horiz-adv-x="193" 
d="M174 700l-120 -700h31l121 700h-32zM84 825l20 -12q6 17 20 33.5t42 16.5q21 1 36.5 -10.5t32.5 -23t40 -12.5q19 0 34 8t28.5 21t23.5 29l-19 15q-13 -19 -27.5 -33t-35.5 -14q-23 0 -39 11.5t-32.5 23t-41.5 11.5q-21 0 -37 -9t-27.5 -24t-17.5 -31z" />
    <glyph glyph-name="Imacron" unicode="&#x12a;" horiz-adv-x="193" 
d="M174 700l-120 -700h31l121 700h-32zM62 816h340l5 29h-340z" />
    <glyph glyph-name="Ibreve" unicode="&#x12c;" horiz-adv-x="193" 
d="M174 700l-120 -700h31l121 700h-32zM71 910q-3 -36 9.5 -68t43 -51.5t77.5 -19.5q49 0 85 19.5t59 51t33 67.5h-28q-8 -28 -28 -54t-49.5 -42t-69.5 -16q-39 0 -63 16t-34.5 42t-8.5 55h-26z" />
    <glyph glyph-name="Iogonek" unicode="&#x12e;" horiz-adv-x="193" 
d="M174 700l-120 -700h31l121 700h-32zM82 -160q-15 -12 -36 -22t-46 -9q-30 0 -50 16t-17 47q5 30 30.5 53.5t59.5 42t63 32.5l-15 14q-34 -16 -71 -36.5t-64 -47.5t-33 -63q-3 -27 7.5 -46.5t32.5 -29.5t52 -10q31 -1 56.5 11t42.5 27z" />
    <glyph glyph-name="Idotaccent" unicode="&#x130;" horiz-adv-x="193" 
d="M174 700l-120 -700h31l121 700h-32zM182 798q-1 -9 5 -16.5t15 -7.5t17.5 7t9.5 16q1 10 -4.5 17t-15.5 7q-9 1 -17.5 -6.5t-9.5 -16.5z" />
    <glyph glyph-name="J" unicode="J" horiz-adv-x="203" 
d="M-159 -142l-20 -24q15 -19 43 -36t64 -17q47 -1 78.5 19.5t50 56.5t26.5 83l129 760h-31l-128 -750q-9 -62 -37 -100t-85 -38q-29 0 -51.5 14t-38.5 32z" />
    <glyph glyph-name="Jcircumflex" unicode="&#x134;" horiz-adv-x="203" 
d="M-159 -142l-20 -24q15 -19 43 -36t64 -17q47 -1 78.5 19.5t50 56.5t26.5 83l129 760h-31l-128 -750q-9 -62 -37 -100t-85 -38q-29 0 -51.5 14t-38.5 32zM231 892l114 -123l22 16l-133 140l-178 -138l15 -17z" />
    <glyph glyph-name="K" unicode="K" horiz-adv-x="472" 
d="M174 700l-120 -700h32l120 700h-32zM497 699l-356 -326l252 -373h39l-253 371l361 328h-43z" />
    <glyph glyph-name="uni0136" unicode="&#x136;" horiz-adv-x="472" 
d="M174 700l-120 -700h32l120 700h-32zM497 699l-356 -326l252 -373h40l-253 371l360 328h-43zM267 -61l-141 -253l20 -7l151 247z" />
    <glyph glyph-name="L" unicode="L" horiz-adv-x="423" 
d="M177 700l-120 -700h323l5 31h-291l115 669h-32z" />
    <glyph glyph-name="Lacute" unicode="&#x139;" horiz-adv-x="423" 
d="M177 700l-120 -700h323l5 31h-291l115 669h-32zM534 922l-24 18l-187 -158l14 -12z" />
    <glyph glyph-name="uni013B" unicode="&#x13b;" horiz-adv-x="423" 
d="M177 700l-120 -700h323l5 31h-291l115 669h-32zM214 -61l-142 -253l21 -7l151 247z" />
    <glyph glyph-name="Lcaron" unicode="&#x13d;" horiz-adv-x="423" 
d="M177 700l-120 -700h323l5 31h-291l115 669h-32zM424 708l-141 -253l20 -8l151 248z" />
    <glyph glyph-name="M" unicode="M" horiz-adv-x="799" 
d="M227 616l162 -523l342 521l-43 -614h32l50 723l-370 -562l-175 560l-200 -721h32z" />
    <glyph glyph-name="N" unicode="N" horiz-adv-x="698" 
d="M681 700l-110 -635l-404 656l-124 -721h33l109 632l405 -653l124 721h-33z" />
    <glyph glyph-name="Ntilde" unicode="&#xd1;" horiz-adv-x="676" 
d="M667 700l-110 -635l-404 656l-124 -721h33l109 632l405 -653l123 721h-32zM305 768l20 -12q6 17 20 33.5t41 16.5q21 0 37 -11.5t33 -23t40 -11.5q18 0 33.5 7.5t28.5 21t23 29.5l-18 15q-14 -19 -28.5 -33t-34.5 -14q-23 -1 -39.5 10.5t-32.5 23.5t-41 12
q-21 0 -37.5 -9.5t-27.5 -24t-17 -30.5z" />
    <glyph glyph-name="Nacute" unicode="&#x143;" horiz-adv-x="676" 
d="M667 700l-110 -635l-404 656l-124 -721h33l109 632l405 -653l123 721h-32zM615 909l-25 18l-187 -158l15 -13z" />
    <glyph glyph-name="uni0145" unicode="&#x145;" horiz-adv-x="676" 
d="M314 -43l-142 -253l21 -7l150 247zM667 700l-110 -635l-404 656l-124 -721h33l109 632l405 -653l123 721h-32z" />
    <glyph glyph-name="Ncaron" unicode="&#x147;" horiz-adv-x="676" 
d="M457 808l-114 123l-23 -17l133 -139l179 138l-17 17zM667 700l-110 -635l-404 656l-124 -721h33l109 632l405 -653l123 721h-32z" />
    <glyph glyph-name="O" unicode="O" horiz-adv-x="756" 
d="M112 350q10 66 41.5 125.5t78.5 104.5t107 70.5t129 25.5q67 0 117 -27t81 -73t42 -104.5t2 -121.5q-11 -66 -42.5 -125t-78 -104t-106.5 -71t-129 -26q-68 0 -117.5 27.5t-80.5 73.5t-42 104t-2 121zM78 350q-10 -70 3.5 -134t48.5 -114.5t91 -80.5t130 -30
q75 0 141 28.5t118.5 77.5t87 114.5t46.5 138.5q10 70 -4 134.5t-49 115t-90.5 80t-130.5 29.5q-74 0 -140.5 -28t-118.5 -78t-86.5 -114.5t-46.5 -138.5z" />
    <glyph glyph-name="Ograve" unicode="&#xd2;" horiz-adv-x="756" 
d="M112 350q10 67 41.5 126t78.5 104t107 70.5t128 25.5t118 -27t81 -73t42 -104.5t2 -121.5q-11 -66 -42 -125t-78 -104t-107 -71t-129 -26q-68 0 -117.5 27.5t-80.5 73.5t-42 104t-2 121zM78 350q-10 -69 3.5 -133.5t48.5 -115t91 -80.5t130 -30q75 0 141 28.5t118.5 78
t87 114.5t46.5 138q10 70 -4 134.5t-49 115t-90.5 80t-130.5 29.5q-74 0 -140.5 -28t-118.5 -78t-86.5 -114.5t-46.5 -138.5zM381 924l144 -155l19 12l-133 160z" />
    <glyph glyph-name="Oacute" unicode="&#xd3;" horiz-adv-x="756" 
d="M112 350q10 67 41.5 126t78.5 104t107 70.5t128 25.5t118 -27t81 -73t42 -104.5t2 -121.5q-11 -66 -42 -125t-78 -104t-107 -71t-129 -26q-68 0 -117.5 27.5t-80.5 73.5t-42 104t-2 121zM78 350q-10 -69 3.5 -133.5t48.5 -115t91 -80.5t130 -30q75 0 141 28.5t118.5 78
t87 114.5t46.5 138q10 70 -4 134.5t-49 115t-90.5 80t-130.5 29.5q-74 0 -140.5 -28t-118.5 -78t-86.5 -114.5t-46.5 -138.5zM636 922l-25 18l-187 -158l16 -12z" />
    <glyph glyph-name="Ocircumflex" unicode="&#xd4;" horiz-adv-x="756" 
d="M112 350q10 67 41.5 126t78.5 104t107 70.5t128 25.5t118 -27t81 -73t42 -104.5t2 -121.5q-11 -66 -42 -125t-78 -104t-107 -71t-129 -26q-68 0 -117.5 27.5t-80.5 73.5t-42 104t-2 121zM78 350q-10 -69 3.5 -133.5t48.5 -115t91 -80.5t130 -30q75 0 141 28.5t118.5 78
t87 114.5t46.5 138q10 70 -4 134.5t-49 115t-90.5 80t-129.5 29.5q-75 0 -141.5 -28t-118.5 -78t-86.5 -114.5t-46.5 -138.5zM504 892l116 -123l21 16l-132 140l-180 -138l17 -17z" />
    <glyph glyph-name="Otilde" unicode="&#xd5;" horiz-adv-x="756" 
d="M112 350q10 67 41.5 126t78.5 104t107 70.5t128 25.5t118 -27t81 -73t42 -104.5t2 -121.5q-11 -66 -42 -125t-78 -104t-107 -71t-129 -26q-68 0 -117.5 27.5t-80.5 73.5t-42 104t-2 121zM78 350q-10 -69 3.5 -133.5t48.5 -115t91 -80.5t130 -30q75 0 141 28.5t118.5 78
t87 114.5t46.5 138q10 70 -4 134.5t-49 115t-90.5 80t-129.5 29.5q-75 0 -141.5 -28t-118.5 -78t-86.5 -114.5t-46.5 -138.5zM353 796l20 -12q6 17 20 33t42 17q21 0 36.5 -11.5t32.5 -23t40 -11.5q19 -1 34 7t28 21.5t23 28.5l-18 15q-13 -19 -27.5 -32.5t-35.5 -14.5
q-23 0 -39 11.5l-32 23t-41 11.5q-20 0 -37.5 -9t-29.5 -23.5t-16 -30.5z" />
    <glyph glyph-name="Odieresis" unicode="&#xd6;" horiz-adv-x="756" 
d="M112 350q10 67 41.5 126t78.5 104t107 70.5t128 25.5t118 -27t81 -73t42 -104.5t2 -121.5q-11 -66 -42 -125t-78 -104t-107 -71t-129 -26q-68 0 -117.5 27.5t-80.5 73.5t-42 104t-2 121zM78 350q-10 -69 3.5 -133.5t48.5 -115t91 -80.5t130 -30q75 0 141 28.5t118.5 78
t87 114.5t46.5 138q10 70 -4 134.5t-49 115t-90.5 80t-130.5 29.5q-74 0 -140.5 -28t-118.5 -78t-86.5 -114.5t-46.5 -138.5zM570 814q-1 -9 5 -16.5t15 -7.5t17.5 7.5t9.5 15.5q1 10 -4.5 17t-15.5 8q-9 0 -17.5 -7.5t-9.5 -16.5zM362 814q0 -9 5.5 -16.5t14.5 -7.5
q10 0 18 7.5t9 15.5q1 10 -4.5 17t-14.5 8q-9 0 -17.5 -7.5t-10.5 -16.5z" />
    <glyph glyph-name="Omacron" unicode="&#x14c;" horiz-adv-x="756" 
d="M112 350q10 67 41.5 126t78.5 104t107 70.5t128 25.5t118 -27t81 -73t42 -104.5t2 -121.5q-11 -66 -42 -125t-78 -104t-107 -71t-129 -26q-68 0 -117.5 27.5t-80.5 73.5t-42 104t-2 121zM78 350q-10 -69 3.5 -133.5t48.5 -115t91 -80.5t130 -30q75 0 141 28.5t118.5 78
t87 114.5t46.5 138q10 70 -4 134.5t-49 115t-90.5 80t-129.5 29.5q-75 0 -141.5 -28t-118.5 -78t-86.5 -114.5t-46.5 -138.5zM314 783h341l5 29h-340z" />
    <glyph glyph-name="Obreve" unicode="&#x14e;" horiz-adv-x="756" 
d="M112 350q10 67 41.5 126t78.5 104t107 70.5t128 25.5t118 -27t81 -73t42 -104.5t2 -121.5q-11 -66 -42 -125t-78 -104t-107 -71t-129 -26q-68 0 -117.5 27.5t-80.5 73.5t-42 104t-2 121zM78 350q-10 -69 3.5 -133.5t48.5 -115t91 -80.5t130 -30q75 0 141 28.5t118.5 78
t87 114.5t46.5 138q10 70 -4 134.5t-49 115t-90.5 80t-129.5 29.5q-75 0 -141.5 -28t-118.5 -78t-86.5 -114.5t-46.5 -138.5zM352 909q-3 -36 10.5 -68t43.5 -51.5t77 -19.5q49 0 85 19.5t59.5 51t32.5 67.5h-28q-8 -28 -27.5 -54t-49 -42t-70.5 -16q-38 0 -62.5 16t-35 42
t-7.5 55h-28z" />
    <glyph glyph-name="Ohungarumlaut" unicode="&#x150;" horiz-adv-x="756" 
d="M424 769l147 202l-31 10l-137 -204zM542 769l149 202l-32 10l-137 -204zM112 350q10 66 41.5 125.5t78.5 104.5t107 70.5t129 25.5q67 0 117 -27t81 -73t42 -104.5t2 -121.5q-11 -66 -42.5 -125t-78 -104t-106.5 -71t-129 -26q-68 0 -117.5 27.5t-80.5 73.5t-42 104
t-2 121zM78 350q-10 -70 3.5 -134t48.5 -114.5t91 -80.5t130 -30q75 0 141 28.5t118.5 77.5t87 114.5t46.5 138.5q10 70 -4 134.5t-49 115t-90.5 80t-130.5 29.5q-74 0 -140.5 -28t-118.5 -78t-86.5 -114.5t-46.5 -138.5z" />
    <glyph glyph-name="P" unicode="P" horiz-adv-x="485" 
d="M177 700l-120 -700h32l120 700h-32zM190 669h123q53 0 90 -21.5t54 -61t9 -91.5q-9 -53 -39 -92.5t-75.5 -60.5t-100.5 -22h-121l-5 -30h123q63 0 116 25t88.5 71.5t45.5 108.5q9 61 -12 107t-65 72t-105 26h-121z" />
    <glyph glyph-name="Q" unicode="Q" horiz-adv-x="754" 
d="M112 350q10 67 41.5 126t78.5 104t107 70.5t128 25.5t118 -27t81 -73t42 -104.5t2 -121.5q-11 -66 -42 -125t-78 -104t-107 -71t-129 -26q-68 0 -117.5 27.5t-80.5 73.5t-42 104t-2 121zM78 350q-10 -69 3.5 -133.5t48.5 -115t91 -80.5t130 -30q75 0 141 28.5t118.5 78
t87 114.5t46.5 138q10 70 -4 134.5t-49 115t-90.5 80t-129.5 29.5q-75 0 -141.5 -28t-118.5 -78t-86.5 -114.5t-46.5 -138.5zM407 300l254 -300h41l-254 300h-41z" />
    <glyph glyph-name="R" unicode="R" horiz-adv-x="480" 
d="M223 325l165 -325h38l-168 325h-35zM177 700l-120 -700h32l120 700h-32zM186 670h120q55 0 96 -19.5t61 -57t11 -91.5t-41.5 -92t-80.5 -57t-106 -20h-117l-5 -29h120q65 1 120.5 24t93.5 67t48 107q10 62 -14 106.5t-72.5 68t-110.5 23.5h-117z" />
    <glyph glyph-name="Racute" unicode="&#x154;" horiz-adv-x="480" 
d="M223 325l165 -325h38l-168 325h-35zM177 700l-120 -700h32l120 700h-32zM186 670h120q55 -1 96 -20.5t61 -56.5t11 -91t-41.5 -91.5t-80.5 -57t-106 -20.5h-117l-5 -29h120q65 1 120.5 24t93.5 67t48 107q10 62 -14 106t-72.5 67.5t-110.5 24.5h-117zM496 922l-25 18
l-187 -158l15 -12z" />
    <glyph glyph-name="uni0156" unicode="&#x156;" horiz-adv-x="480" 
d="M223 325l165 -325h38l-168 325h-35zM177 700l-120 -700h32l120 700h-32zM186 670h120q55 -1 96 -20.5t61 -56.5t11 -91t-41.5 -91.5t-80.5 -57t-106 -20.5h-117l-5 -29h120q65 1 120.5 24t93.5 67t48 107q10 62 -14 106t-72.5 67.5t-110.5 24.5h-117zM230 -61l-140 -253
l20 -7l151 247z" />
    <glyph glyph-name="Rcaron" unicode="&#x158;" horiz-adv-x="480" 
d="M223 325l165 -325h38l-168 325h-35zM177 700l-120 -700h32l120 700h-32zM186 670h120q55 -1 96 -20.5t61 -56.5t11 -91t-41.5 -91.5t-80.5 -57t-106 -20.5h-117l-5 -29h120q65 1 120.5 24t93.5 67t48 107q10 62 -14 106t-72.5 67.5t-110.5 24.5h-117zM338 803l-115 123
l-21 -17l132 -140l179 139l-18 17z" />
    <glyph glyph-name="uni0212" unicode="&#x212;" horiz-adv-x="480" 
d="M223 325l165 -325h38l-168 325h-35zM177 700l-120 -700h32l120 700h-32zM186 670h120q55 -1 96 -20.5t61 -56.5t11 -91t-41.5 -91.5t-80.5 -57t-106 -20.5h-117l-5 -29h120q65 1 120.5 24t93.5 67t48 107q10 62 -14 106t-72.5 67.5t-110.5 24.5h-117zM205 769
q11 36 34.5 68t60 52t85.5 20q48 0 77 -20t41.5 -52t8.5 -68h-25q2 29 -9 55t-35.5 42t-63.5 16q-40 0 -69.5 -16.5t-48 -42t-28.5 -53.5z" />
    <glyph glyph-name="S" unicode="S" horiz-adv-x="491" 
d="M75 199l-27 -17q8 -48 29 -91.5t59.5 -70.5t98.5 -28q59 0 106.5 25.5t77 69t35.5 97.5q4 53 -14.5 89.5t-52.5 61.5t-72 42q-32 13 -59.5 29t-47.5 36.5t-29.5 46t-5.5 57.5q5 38 27.5 67.5t57 46.5t76.5 17q47 0 76 -19t45.5 -48t22.5 -60l29 13q-7 36 -27.5 69.5
t-55.5 55t-87 21.5t-94.5 -22t-69.5 -59.5t-33 -85.5q-4 -38 8 -68t34.5 -52t50.5 -39t58 -30q38 -17 69 -39.5t48 -54.5t12 -78q-5 -44 -29.5 -79.5t-64 -57t-90.5 -21.5q-54 1 -87 26t-49.5 65t-24.5 85z" />
    <glyph glyph-name="Sacute" unicode="&#x15a;" horiz-adv-x="491" 
d="M74 206l-30 -16q9 -49 30.5 -94t59.5 -74t97 -30q62 0 109 25t75 67.5t36 94.5q7 52 -10.5 89.5t-51 64t-73.5 43.5q-28 13 -55.5 28.5t-49 35t-32 45.5t-4.5 59q6 38 31 68.5t60.5 47.5t76.5 17q45 0 73 -21t43 -52.5t22 -65.5l28 15q-6 38 -25 73.5t-53 59t-86 23.5
q-48 0 -92 -21t-73.5 -57.5t-37.5 -84.5q-7 -51 14 -88t58 -62t75 -43q37 -16 69 -39.5t49.5 -56.5t10.5 -80q-7 -44 -31 -78.5t-62 -54.5t-91 -20q-40 0 -68 16t-46 42.5t-29 58.5t-17 65zM542 922l-25 18l-187 -158l16 -12z" />
    <glyph glyph-name="Scircumflex" unicode="&#x15c;" horiz-adv-x="491" 
d="M74 206l-30 -16q9 -49 30.5 -94t59.5 -74t97 -30q62 0 109 25t75 67.5t36 94.5q7 52 -10.5 89.5t-51 64t-73.5 43.5q-28 13 -55.5 28.5t-49 35t-32 45.5t-4.5 59q6 38 31 68.5t60.5 47.5t76.5 17q45 0 73 -21t43 -52.5t22 -65.5l28 15q-6 38 -25 73.5t-53 59t-86 23.5
q-48 0 -92 -21t-73.5 -57.5t-37.5 -84.5q-7 -51 14 -88t58 -62t75 -43q37 -16 69 -39.5t49.5 -56.5t10.5 -80q-7 -44 -31 -78.5t-62 -54.5t-91 -20q-40 0 -68 16t-46 42.5t-29 58.5t-17 65zM379 892l116 -123l21 16l-133 140l-179 -138l17 -17z" />
    <glyph glyph-name="Scedilla" unicode="&#x15e;" horiz-adv-x="491" 
d="M74 206l-30 -16q9 -49 30.5 -94t59.5 -74t97 -30q62 0 108.5 25t75 67.5t36.5 94.5q7 52 -10.5 89.5t-51 64t-73.5 43.5q-28 13 -55.5 28.5t-49 35t-32 45t-4.5 59.5q6 38 30 68.5t59 47.5t76 17q45 0 73.5 -21t44.5 -52.5t23 -65.5l28 15q-7 39 -26 74.5t-52.5 58.5
t-85.5 23q-49 0 -93 -21.5t-73 -58.5t-37 -85q-7 -51 14 -88t57.5 -61.5t75.5 -41.5q37 -16 69 -39.5t49.5 -56.5t10.5 -80q-7 -44 -31 -78.5t-62 -54.5t-91 -20q-40 0 -68 16t-46 42.5t-29 58.5t-17 65zM232 16l-81 -110q17 10 37.5 17t39.5 6q15 -1 26.5 -8t17 -19
t3.5 -29q-2 -21 -17 -37t-35.5 -24.5t-41.5 -8.5t-36 8t-31 22l-16 -15q18 -19 36.5 -28.5t44.5 -9.5q27 0 53.5 11t45 32.5t21.5 49.5q4 32 -14.5 52.5t-45.5 21.5q-16 1 -28 -4t-25 -12l72 85h-26z" />
    <glyph glyph-name="Scaron" unicode="&#x160;" horiz-adv-x="491" 
d="M74 206l-30 -16q9 -49 30.5 -94t59.5 -74t97 -30q62 0 109 25t75 67.5t36 94.5q7 52 -10.5 89.5t-51 64t-73.5 43.5q-28 13 -55.5 28.5t-49 35t-32 45.5t-4.5 59q6 38 31 68.5t60.5 47.5t76.5 17q45 0 73 -21t43 -52.5t22 -65.5l28 15q-6 38 -25 73.5t-53 59t-86 23.5
q-48 0 -92 -21t-73.5 -57.5t-37.5 -84.5q-7 -51 14 -88t58 -62t75 -43q37 -16 69 -39.5t49.5 -56.5t10.5 -80q-7 -44 -31 -78.5t-62 -54.5t-91 -20q-40 0 -68 16t-46 42.5t-29 58.5t-17 65zM363 810l-115 123l-22 -17l133 -140l179 139l-18 17z" />
    <glyph glyph-name="uni0218" unicode="&#x218;" horiz-adv-x="491" 
d="M74 206l-30 -16q9 -49 30.5 -94t59.5 -74t97 -30q62 0 109 25t75 67.5t36 94.5q7 52 -10.5 89.5t-51 64t-73.5 43.5q-28 13 -55.5 28.5t-49 35t-32 45.5t-4.5 59q6 38 31 68.5t60.5 47.5t76.5 17q45 0 73 -21t43 -52.5t22 -65.5l28 15q-6 38 -25 73.5t-53 59t-86 23.5
q-48 0 -92 -21t-73.5 -57.5t-37.5 -84.5q-7 -51 14 -88t58 -62t75 -43q37 -16 69 -39.5t49.5 -56.5t10.5 -80q-7 -44 -31 -78.5t-62 -54.5t-91 -20q-40 0 -68 16t-46 42.5t-29 58.5t-17 65zM252 -70l-142 -252l21 -8l151 248z" />
    <glyph glyph-name="T" unicode="T" horiz-adv-x="428" 
d="M103 669h182l-115 -669h33l114 669h182l6 31h-396z" />
    <glyph glyph-name="uni0162" unicode="&#x162;" horiz-adv-x="428" 
d="M174 2l-81 -110q18 10 38 17t39 6q15 -1 26.5 -8t17.5 -19t4 -29q-3 -21 -18 -37t-35 -24.5t-41 -8.5t-36.5 8t-30.5 22l-17 -15q19 -19 37 -28.5t45 -9.5t53 11t44.5 32.5t21.5 49.5q4 32 -14.5 52.5t-45.5 21.5q-15 1 -27 -4t-26 -12l73 85h-27zM103 669h182l-115 -669
h33l114 669h182l6 31h-396z" />
    <glyph glyph-name="Tcaron" unicode="&#x164;" horiz-adv-x="428" 
d="M103 669h182l-115 -669h33l114 669h182l6 31h-396zM323 803l-115 123l-22 -17l133 -140l179 139l-18 17z" />
    <glyph glyph-name="uni021A" unicode="&#x21a;" horiz-adv-x="428" 
d="M103 669h182l-115 -669h33l114 669h182l6 31h-396zM210 -60l-142 -253l21 -7l150 247z" />
    <glyph glyph-name="U" unicode="U" horiz-adv-x="573" 
d="M173 700l-82 -477q-9 -61 5.5 -114t55 -85.5t108.5 -32.5q71 0 122 31t82 84t42 117l81 477h-32l-83 -477q-9 -56 -36 -101.5t-70.5 -72.5t-103.5 -27q-57 0 -90 28t-44.5 74t-4.5 99l81 477h-31z" />
    <glyph glyph-name="Ugrave" unicode="&#xd9;" horiz-adv-x="573" 
d="M173 700l-82 -477q-9 -61 5.5 -114t55 -85.5t108.5 -32.5t119 31t83.5 84t43.5 117l81 477h-32l-83 -477q-9 -56 -36.5 -101.5t-71.5 -72.5t-102 -27q-57 1 -90 29t-44.5 73.5t-4.5 98.5l81 477h-31zM287 924l145 -155l17 12l-133 160z" />
    <glyph glyph-name="Uacute" unicode="&#xda;" horiz-adv-x="573" 
d="M173 700l-82 -477q-9 -61 5.5 -114t55 -85.5t108.5 -32.5t119 31t83.5 84t43.5 117l81 477h-32l-83 -477q-9 -56 -36.5 -101.5t-71.5 -72.5t-102 -27q-57 1 -90 29t-44.5 73.5t-4.5 98.5l81 477h-31zM548 922l-25 18l-187 -158l15 -12z" />
    <glyph glyph-name="Ucircumflex" unicode="&#xdb;" horiz-adv-x="573" 
d="M173 700l-82 -477q-9 -61 5.5 -114t55 -85.5t108.5 -32.5t119 31t83.5 84t43.5 117l81 477h-32l-83 -477q-9 -56 -36.5 -101.5t-71.5 -72.5t-102 -27q-57 1 -90 29t-44.5 73.5t-4.5 98.5l81 477h-31zM413 892l115 -123l22 16l-133 140l-179 -138l17 -17z" />
    <glyph glyph-name="Udieresis" unicode="&#xdc;" horiz-adv-x="573" 
d="M173 700l-82 -477q-9 -61 5.5 -114t55 -85.5t108.5 -32.5t119 31t83.5 84t43.5 117l81 477h-32l-83 -477q-9 -56 -36.5 -101.5t-71.5 -72.5t-102 -27q-57 1 -90 29t-44.5 73.5t-4.5 98.5l81 477h-31zM462 793q-1 -9 4.5 -16.5t15.5 -7.5q9 0 17.5 7.5t9.5 15.5
q1 10 -5 17t-15 7q-9 1 -17.5 -6.5t-9.5 -16.5zM281 793q0 -9 5.5 -16.5t14.5 -7.5t18 7.5t9 15.5q2 10 -4.5 17t-14.5 7q-9 1 -18 -6.5t-10 -16.5z" />
    <glyph glyph-name="Utilde" unicode="&#x168;" horiz-adv-x="573" 
d="M173 700l-83 -477q-8 -61 7 -114t55 -85.5t108 -32.5q69 0 120 31t83.5 84t42.5 117l81 477h-32l-83 -477q-9 -56 -37 -101.5t-71.5 -72.5t-101.5 -27q-58 1 -90.5 29t-44 73.5t-4.5 98.5l82 477h-32zM260 781l21 -12q6 17 20 33.5t41 16.5q21 0 37 -11.5t33 -23
t40 -11.5q18 0 33 8t28 21t22 28l-18 15q-13 -18 -27.5 -32t-34.5 -15q-23 0 -39.5 11.5l-33 23t-40.5 11.5q-20 0 -37.5 -9t-29 -23.5t-15.5 -30.5z" />
    <glyph glyph-name="Umacron" unicode="&#x16a;" horiz-adv-x="573" 
d="M173 700l-83 -477q-8 -61 7 -114t55 -85.5t108 -32.5q69 0 120 31t83.5 84t42.5 117l81 477h-32l-83 -477q-9 -56 -37 -101.5t-71.5 -72.5t-101.5 -27q-58 1 -90.5 29t-44 73.5t-4.5 98.5l82 477h-32zM221 769h341l4 29h-340z" />
    <glyph glyph-name="Ubreve" unicode="&#x16c;" horiz-adv-x="573" 
d="M173 700l-83 -477q-8 -61 7 -114t55 -85.5t108 -32.5q69 0 120 31t83.5 84t42.5 117l81 477h-32l-83 -477q-9 -56 -37 -101.5t-71.5 -72.5t-101.5 -27q-58 1 -90.5 29t-44 73.5t-4.5 98.5l82 477h-32zM261 909q-3 -37 10 -68.5t43.5 -51t77.5 -19.5q49 0 85.5 19.5t59 51
t32.5 67.5h-28q-9 -28 -28.5 -54t-49 -42t-69.5 -16q-39 0 -63 16t-34.5 42t-8.5 55h-27z" />
    <glyph glyph-name="Uring" unicode="&#x16e;" horiz-adv-x="573" 
d="M173 700l-82 -477q-9 -61 5.5 -114t55 -85.5t108.5 -32.5t119 31t83.5 84t43.5 117l81 477h-32l-83 -477q-9 -56 -36.5 -101.5t-71.5 -72.5t-102 -27q-57 1 -90 29t-44.5 73.5t-4.5 98.5l81 477h-31zM308 870q-4 -27 6.5 -49.5t31 -36.5t46.5 -14q27 0 52 13t42.5 35.5
t20.5 49.5q4 28 -6 50.5t-30 36.5t-47 14q-26 0 -51 -13.5t-42.5 -35.5t-22.5 -50zM330 869q3 21 17.5 39.5t34.5 29.5t41 10q30 -1 48.5 -24.5t14.5 -54.5q-3 -21 -17 -39t-34.5 -29t-40.5 -11q-31 1 -49.5 24.5t-14.5 54.5z" />
    <glyph glyph-name="Uhungarumlaut" unicode="&#x170;" horiz-adv-x="573" 
d="M325 769l147 202l-31 10l-137 -204zM443 769l149 202l-32 10l-137 -204zM173 700l-82 -477q-9 -61 5.5 -114t55 -85.5t108.5 -32.5q71 0 122 31t82 84t42 117l81 477h-32l-83 -477q-9 -56 -36 -101.5t-70.5 -72.5t-103.5 -27q-57 0 -90 28t-44.5 74t-4.5 99l81 477h-31z
" />
    <glyph glyph-name="Uogonek" unicode="&#x172;" horiz-adv-x="573" 
d="M277 -167q-14 -12 -35 -22t-47 -9q-30 0 -50 16t-17 47q4 30 29 53.5t58 42t63 32.5l-15 14q-34 -16 -70.5 -36.5t-63 -47.5t-31.5 -63q-5 -40 21.5 -63t71.5 -23q31 -1 56 11.5t42 27.5zM173 700l-82 -477q-9 -61 5.5 -114t55 -85.5t108.5 -32.5q71 0 122 31t82 84
t42 117l81 477h-32l-83 -477q-9 -56 -36 -101.5t-70.5 -72.5t-103.5 -27q-57 0 -90 28t-44.5 74t-4.5 99l81 477h-31z" />
    <glyph glyph-name="V" unicode="V" horiz-adv-x="599" 
d="M291 57l-153 643h-35l176 -721l401 721h-38z" />
    <glyph glyph-name="W" unicode="W" horiz-adv-x="933" 
d="M670 73l-109 649l-310 -649l-109 627h-35l129 -721l311 648l110 -648l352 721h-36z" />
    <glyph glyph-name="Wcircumflex" unicode="&#x174;" horiz-adv-x="933" 
d="M667 72l-105 651l-313 -651l-106 628h-35l124 -722l315 649l107 -649l356 722h-37zM595 904l115 -122l21 16l-133 140l-178 -138l17 -17z" />
    <glyph glyph-name="Wgrave" unicode="&#x1e80;" horiz-adv-x="933" 
d="M570 782l18 12l-137 160l-30 -17zM670 73l-109 649l-310 -649l-109 627h-35l129 -721l311 648l110 -648l352 721h-36z" />
    <glyph glyph-name="Wacute" unicode="&#x1e82;" horiz-adv-x="933" 
d="M575 782l201 155l-30 19l-190 -160zM670 73l-109 649l-310 -649l-109 627h-35l129 -721l311 648l110 -648l352 721h-36z" />
    <glyph glyph-name="Wdieresis" unicode="&#x1e84;" horiz-adv-x="933" 
d="M649 807q-1 -9 5 -16.5t15 -7.5q10 0 18 7.5t9 15.5q1 10 -5 17t-16 7q-8 1 -16.5 -6.5t-9.5 -16.5zM455 807q-1 -9 5 -16.5t15 -7.5q10 0 18 7.5t9 15.5q1 10 -5 17t-16 7q-8 1 -16.5 -6.5t-9.5 -16.5zM670 73l-109 649l-310 -649l-109 627h-35l129 -721l311 648
l110 -648l352 721h-36z" />
    <glyph glyph-name="uni1E86" unicode="&#x1e86;" horiz-adv-x="933" 
d="M553 806q-1 -10 6 -17t16 -7q10 0 17.5 7t7.5 17t-6 17t-16 7t-17.5 -7t-7.5 -17zM670 73l-109 649l-310 -649l-109 627h-35l129 -721l311 648l110 -648l352 721h-36z" />
    <glyph glyph-name="uni1E88" unicode="&#x1e88;" horiz-adv-x="933" 
d="M409 -105q-1 -10 6 -17t16 -7q10 0 17.5 7t7.5 17t-6 17t-16 7t-17.5 -7t-7.5 -17zM670 73l-109 649l-310 -649l-109 627h-35l129 -721l311 648l110 -648l352 721h-36z" />
    <glyph glyph-name="X" unicode="X" horiz-adv-x="501" 
d="M523 699l-226 -302l-128 303h-37l145 -332l-279 -368h40l250 337l142 -337h37l-158 366l253 333h-39z" />
    <glyph glyph-name="Y" unicode="Y" horiz-adv-x="507" 
d="M552 699l-277 -389l-135 390h-36l151 -422l-48 -278h32l47 277l304 422h-38z" />
    <glyph glyph-name="Yacute" unicode="&#xdd;" horiz-adv-x="507" 
d="M529 922l-25 18l-187 -158l15 -12zM552 699l-277 -389l-135 390h-36l151 -422l-48 -278h32l47 277l304 422h-38z" />
    <glyph glyph-name="Ycircumflex" unicode="&#x176;" horiz-adv-x="507" 
d="M552 699l-278 -389l-134 390h-35l150 -422l-49 -278h33l47 276l304 423h-38zM374 892l116 -123l20 16l-133 140l-178 -138l17 -17z" />
    <glyph glyph-name="Ydieresis" unicode="&#x178;" horiz-adv-x="507" 
d="M248 793q-1 -8 5 -16t16 -8q9 0 17.5 7.5t9.5 15.5q1 10 -5 17t-15 7q-9 1 -18 -6t-10 -17zM429 793q-1 -8 4.5 -16t15.5 -8q9 0 17.5 7.5t10.5 15.5q0 10 -6 17t-15 7q-9 1 -17.5 -6t-9.5 -17zM552 699l-277 -389l-135 390h-36l151 -422l-48 -278h32l47 277l304 422h-38
z" />
    <glyph glyph-name="Ygrave" unicode="&#x1ef2;" horiz-adv-x="507" 
d="M341 769l18 12l-137 160l-30 -17zM552 699l-277 -389l-135 390h-36l151 -422l-48 -278h32l47 277l304 422h-38z" />
    <glyph glyph-name="Z" unicode="Z" horiz-adv-x="522" 
d="M124 669h413l-547 -669h477l5 32h-419l547 668h-470z" />
    <glyph glyph-name="Zacute" unicode="&#x179;" horiz-adv-x="522" 
d="M124 669h413l-547 -669h477l5 31l-419 1l547 668h-470zM549 922l-25 18l-187 -158l14 -12z" />
    <glyph glyph-name="Zdotaccent" unicode="&#x17b;" horiz-adv-x="522" 
d="M124 669h413l-547 -669h477l5 31l-419 1l547 668h-470zM357 793q-1 -9 4.5 -16.5t14.5 -7.5q10 0 18.5 7.5t9.5 15.5q1 10 -5 17t-16 7q-9 1 -17 -6.5t-9 -16.5z" />
    <glyph glyph-name="Zcaron" unicode="&#x17d;" horiz-adv-x="522" 
d="M124 669h413l-547 -669h477l5 31l-419 1l547 668h-470zM380 803l-114 123l-22 -17l133 -140l179 139l-18 17z" />
    <glyph glyph-name="AE" unicode="&#xc6;" horiz-adv-x="888" 
d="M221 260l285 -1l5 31h-285zM550 700l-573 -700h37l563 687zM467 0h319l6 31h-320zM587 669h314l5 31h-356zM530 371h300l6 31h-300zM568 700l-120 -700h32l121 700h-33z" />
    <glyph glyph-name="Eth" unicode="&#xd0;" horiz-adv-x="660" 
d="M35 335h292l5 29h-292zM177 700l-120 -700h32l120 700h-32zM228 0q102 2 184 48t135.5 124.5t69.5 177.5q14 95 -13.5 174t-92.5 127t-165 49h-152l-6 -33h154q92 -1 150.5 -44.5t82 -114.5t9.5 -158q-14 -90 -62.5 -161t-122.5 -112.5t-168 -43.5h-151l-6 -33h154z" />
    <glyph glyph-name="Oslash" unicode="&#xd8;" horiz-adv-x="767" 
d="M112 350q10 67 41.5 126t78.5 104t107 70.5t128 25.5t118 -27t81 -73t42 -104.5t2 -121.5q-11 -66 -42 -125t-78 -104t-107 -71t-129 -26q-68 0 -117.5 27.5t-80.5 73.5t-42 104t-2 121zM78 350q-10 -69 3.5 -133.5t48.5 -115t91 -80.5t130 -30q75 0 141 28.5t118.5 78
t87 114.5t46.5 138q10 70 -4 134.5t-49 115t-90.5 80t-129.5 29.5q-75 0 -141.5 -28t-118.5 -78t-86.5 -114.5t-46.5 -138.5zM783 738l-759 -759l22 -16l759 758z" />
    <glyph glyph-name="Thorn" unicode="&#xde;" horiz-adv-x="514" 
d="M170 700l-120 -700h31l121 700h-32zM157 529h149q55 -1 95.5 -23.5t61 -62t10.5 -93.5q-9 -53 -42.5 -93t-82.5 -62.5t-106 -23.5h-146l-6 -31h149q66 2 123 28t95.5 72.5t48.5 109.5q10 62 -14 109t-71.5 73.5t-111.5 27.5h-147z" />
    <glyph glyph-name="Dcroat" unicode="&#x110;" horiz-adv-x="660" 
d="M35 335h292l5 29h-292zM177 700l-120 -700h32l120 700h-32zM228 0q102 2 184 48t135.5 124.5t69.5 177.5q14 95 -13.5 174t-92.5 127t-165 49h-152l-6 -33h154q92 -1 150.5 -44.5t82 -114.5t9.5 -158q-14 -90 -62.5 -161t-122.5 -112.5t-168 -43.5h-151l-6 -33h154z" />
    <glyph glyph-name="Hbar" unicode="&#x126;" horiz-adv-x="647" 
d="M136 366h452l6 31h-454zM623 700l-120 -700h33l121 700h-34zM176 700l-119 -700h32l121 700h-34zM78 586h639l4 29h-638z" />
    <glyph glyph-name="IJ" unicode="&#x132;" horiz-adv-x="476" 
d="M84 -142l-21 -24q16 -19 44 -36t63 -17q48 -1 79.5 19.5t50 56.5t25.5 83l130 760h-31l-129 -750q-9 -62 -36.5 -100t-84.5 -38q-29 0 -51.5 14t-38.5 32zM174 700l-120 -700h31l121 700h-32z" />
    <glyph glyph-name="Ldot" unicode="&#x13f;" horiz-adv-x="423" 
d="M177 700l-120 -700h323l5 31h-291l115 669h-32zM301 415q-1 -9 4.5 -16.5t15.5 -7.5q6 -1 11.5 2.5t10 9.5t4.5 11q2 6 -1 11.5t-7.5 9t-10.5 3.5t-12 -3t-10.5 -8.5t-4.5 -11.5z" />
    <glyph glyph-name="Lslash" unicode="&#x141;" horiz-adv-x="385" 
d="M32 374l292 168l-7 23l-291 -169zM171 700l-121 -700h299l5 31h-266l115 669h-32z" />
    <glyph glyph-name="Eng" unicode="&#x14a;" horiz-adv-x="740" 
d="M462 -220q42 0 71 19.5t46 53t24 71.5l129 776h-33l-106 -635l-423 656l-121 -721h33l106 632l398 -619l-13 -86q-5 -29 -17 -55.5t-32.5 -43.5t-54.5 -17q-24 0 -39 12.5t-23 26.5l-23 -24q10 -17 28.5 -31.5t49.5 -14.5z" />
    <glyph glyph-name="OE" unicode="&#x152;" horiz-adv-x="933" 
d="M551 372h324l5 30h-324zM590 688l-116 -675h32l117 675h-33zM836 31h-334h-24h-122q-68 2 -119.5 27.5t-85 69.5t-46 101t-2.5 121q11 68 43 125.5t81 101t110 67.5t130 25h126h16h335l6 31h-481q-76 -1 -143.5 -27.5t-120 -73.5t-87.5 -110.5t-47 -138.5
q-11 -72 3.5 -134.5t52 -110.5t94.5 -75.5t132 -29.5h479z" />
    <glyph glyph-name="Tbar" unicode="&#x166;" horiz-adv-x="441" 
d="M107 426h307l8 29h-307zM103 669h182l-115 -669h33l114 669h182l6 31h-396z" />
    <glyph glyph-name="uni1E9E" unicode="&#x1e9e;" horiz-adv-x="681" 
d="M394 -11q-40 0 -71.5 8.5t-59 23t-52.5 34.5l17 26q42 -31 81 -45t86 -14q57 0 101 19t69 54.5t25 84.5q0 41 -15 66t-37 40t-44.5 25.5t-37.5 24.5t-15 37q0 25 16.5 40t40.5 26.5t48 25.5t40.5 35.5t16.5 56.5q0 30 -16 57.5t-52 45t-95 17.5q-70 0 -130 -28.5
t-100.5 -83.5t-53.5 -136l-72 -430h-34l73 436q10 68 40 119.5t73.5 85.5t96 51t108.5 17q64 0 107.5 -19t66.5 -52t23 -74q0 -42 -16 -68t-40 -42t-48 -26.5t-40 -22t-16 -28.5t15 -27t37 -20.5t44 -27t37 -45t15 -75.5q0 -58 -30 -101t-83 -67t-119 -24z" />
    <glyph glyph-name="uni0394" unicode="&#x394;" horiz-adv-x="600" 
d="M-7 0l393 748l142 -748h-535zM45 29h444l-117 630z" />
    <glyph glyph-name="uni03A9" unicode="&#x3a9;" horiz-adv-x="600" 
d="M28 0l5 26h144q-35 33 -59 80.5t-33.5 101.5t-1.5 105q12 71 51.5 126t97 87t123.5 32t112.5 -32t67.5 -87t9 -126q-8 -51 -35 -105t-66.5 -101.5t-86.5 -80.5h145l-5 -26h-195l4 24q37 19 71 51t62.5 71.5t47.5 82.5t25 83q11 63 -6 111t-57 75t-98 27t-107.5 -27
t-82.5 -75t-44 -111q-10 -55 2 -112t40.5 -103.5t69.5 -72.5l-5 -24h-195z" />
    <glyph glyph-name="uni0410" unicode="&#x410;" horiz-adv-x="640" 
d="M147 254h341l-4 30h-324zM385 645l82 -374l1 -8l57 -263h36l-165 722l-413 -722h38l149 265l5 8z" />
    <glyph glyph-name="uni0411" unicode="&#x411;" horiz-adv-x="504" 
d="M134 389h142q55 0 96 -22.5t61 -62.5t11 -94q-10 -54 -43.5 -94.5t-83 -62.5t-106.5 -22h-137l-6 -31h142q66 1 122.5 26.5t95 73t47.5 110.5q10 62 -14 109.5t-72 74t-112 26.5h-137zM169 700l-119 -700h31l116 669h305l5 31h-338z" />
    <glyph glyph-name="uni0412" unicode="&#x412;" horiz-adv-x="542" 
d="M146 382h111q53 1 98.5 17.5t76.5 50.5t39 86q7 39 -3 69.5t-33 51t-57.5 32t-75.5 11.5h-125l-120 -700h138q66 1 121 23.5t90.5 67.5t44.5 110q6 45 -7.5 80t-40.5 60t-63 37.5t-74 12.5h-118l-3 -19h114q47 0 86.5 -21.5t60.5 -59t13 -88.5q-9 -56 -40 -94.5
t-78 -58.5t-104 -20h-103l110 640h96q70 0 109.5 -35.5t29.5 -99.5q-8 -45 -36 -74.5t-67.5 -44t-84.5 -15.5h-102z" />
    <glyph glyph-name="uni0413" unicode="&#x413;" horiz-adv-x="422" 
d="M169 700l-119 -700h31l116 669h303l6 31h-337z" />
    <glyph glyph-name="uni0403" unicode="&#x403;" horiz-adv-x="422" 
d="M169 700l-119 -700h31l116 669h303l6 31h-337zM517 941l-25 18l-186 -158l15 -13z" />
    <glyph glyph-name="uni0414" unicode="&#x414;" horiz-adv-x="772" 
d="M470 657l132 -642h34l-154 721l-401 -721h36zM673 0l-20 -109h29l25 140h-690l-25 -140h29l20 109h632z" />
    <glyph glyph-name="uni0415" unicode="&#x415;" horiz-adv-x="534" 
d="M72 0h334l4 31h-333zM187 670h332l6 30h-333zM136 371h314l4 31h-313zM176 700l-119 -700h32l121 700h-34z" />
    <glyph glyph-name="uni0400" unicode="&#x400;" horiz-adv-x="534" 
d="M72 0h334l4 31h-333zM187 670h332l6 30h-333zM136 371h314l4 31h-313zM176 700l-119 -700h32l121 700h-34zM249 943l147 -155l17 12l-135 160z" />
    <glyph glyph-name="uni0401" unicode="&#x401;" horiz-adv-x="534" 
d="M72 0h334l4 31h-333zM187 670h332l6 30h-333zM136 371h314l4 31h-313zM176 700l-119 -700h32l121 700h-34zM450 846q-1 -9 5 -16.5t15 -7.5q9 -1 17.5 7t8.5 16q2 10 -4 17t-15 7q-9 1 -18 -6.5t-9 -16.5zM255 846q0 -9 6 -16.5t15 -7.5q9 -1 17.5 7t8.5 16q2 10 -4 17
t-15 7q-9 1 -18 -6.5t-10 -16.5z" />
    <glyph glyph-name="uni0416" unicode="&#x416;" horiz-adv-x="694" 
d="M151 700h-38l229 -328l-367 -372h44l360 369zM429 700l-120 -700h31l121 700h-32zM726 699l-329 -327l226 -372h38l-229 370l337 329h-43z" />
    <glyph glyph-name="uni0417" unicode="&#x417;" horiz-adv-x="588" 
d="M308 356q51 2 98 12.5t85.5 31t64 51.5t32.5 73q9 52 -13.5 94t-68 67t-106.5 25q-64 0 -116 -23t-86.5 -64.5t-48.5 -95.5h31q19 67 77 110.5t142 42.5q52 0 90.5 -20.5t56.5 -56t10 -80.5q-10 -48 -46 -79.5t-88 -48t-111 -18.5zM277 -9q70 0 128.5 23.5t96.5 66.5
t47 104q9 53 -8 88t-52 56t-81.5 30t-96.5 10l-4 -21q43 -1 84 -9t72.5 -26t47.5 -48.5t7 -76.5q-9 -51 -42.5 -88.5t-84.5 -57.5t-113 -20q-92 0 -141.5 44t-42.5 119h-32q-6 -58 18.5 -101.5t74.5 -68t122 -24.5z" />
    <glyph glyph-name="uni0418" unicode="&#x418;" horiz-adv-x="718" 
d="M718 679l16 58l-669 -715l-15 -58zM209 700h-32l-127 -736l40 48zM734 737l-41 -47l-119 -690h32z" />
    <glyph glyph-name="uni040D" unicode="&#x40d;" horiz-adv-x="718" 
d="M718 679l16 58l-669 -715l-15 -58zM209 700h-32l-127 -736l40 48zM734 737l-41 -47l-119 -690h32zM323 918l145 -155l18 12l-134 160z" />
    <glyph glyph-name="uni0419" unicode="&#x419;" horiz-adv-x="718" 
d="M718 679l16 58l-669 -715l-15 -58zM209 700h-32l-127 -736l40 48zM734 737l-41 -47l-119 -690h32zM324 907q-2 -37 11 -68.5t43.5 -51.5t78.5 -20q49 0 84.5 19.5t58.5 51.5t32 68h-28q-8 -28 -27 -54t-48.5 -42.5t-69.5 -16.5q-39 1 -63.5 17t-35 42t-9.5 55h-27z" />
    <glyph glyph-name="uni041A" unicode="&#x41a;" horiz-adv-x="548" 
d="M174 700l-120 -700h32l120 700h-32zM497 699l-356 -326l252 -373h39l-252 370l360 329h-43z" />
    <glyph glyph-name="uni040C" unicode="&#x40c;" horiz-adv-x="548" 
d="M174 700l-120 -700h32l120 700h-32zM497 699l-356 -326l252 -373h40l-253 371l360 328h-43zM576 941l-25 18l-187 -157l16 -13z" />
    <glyph glyph-name="uni041B" unicode="&#x41b;" horiz-adv-x="608" 
d="M623 700h-431l-77 -454q-8 -48 -23.5 -95t-41 -80t-63.5 -42l-5 -28q48 7 80.5 42.5t53 87.5t29.5 109l73 429h368l-115 -669h32z" />
    <glyph glyph-name="uni041C" unicode="&#x41c;" horiz-adv-x="786" 
d="M227 615l162 -522l341 520l-42 -613h32l50 723l-371 -562l-174 560l-200 -721h32z" />
    <glyph glyph-name="uni041D" unicode="&#x41d;" horiz-adv-x="694" 
d="M136 366h452l6 31h-454zM623 700l-120 -700h33l121 700h-34zM176 700l-119 -700h32l121 700h-34z" />
    <glyph glyph-name="uni041E" unicode="&#x41e;" horiz-adv-x="767" 
d="M112 350q11 67 42 126t78 104t107 70.5t129 25.5q68 0 117.5 -27t80.5 -73t42 -104.5t1 -121.5q-10 -66 -41.5 -125t-78.5 -104t-107 -71t-128 -26t-118 27.5t-80.5 73.5t-41.5 104t-2 121zM78 350q-10 -69 3.5 -133.5t49 -115.5t91.5 -80.5t129 -29.5q75 0 141.5 28.5
t118.5 78t86.5 114.5t46.5 138q10 70 -4 134.5t-49 115t-91 80t-130 29.5q-75 0 -141 -28t-118.5 -78t-87 -114.5t-45.5 -138.5z" />
    <glyph glyph-name="uni041F" unicode="&#x41f;" horiz-adv-x="642" 
d="M622 670l-116 -670h32l120 700h-488l-120 -700h32l115 669z" />
    <glyph glyph-name="uni0420" unicode="&#x420;" horiz-adv-x="532" 
d="M176 700l-119 -700h32l121 700h-34zM189 669h124q54 0 90.5 -22t53.5 -61t9 -91q-9 -53 -39.5 -92.5t-75.5 -60.5t-101 -22h-120l-6 -30h126q63 0 115.5 25.5t87.5 71.5t45 108q9 61 -12 106.5t-65 72t-106 26.5h-120z" />
    <glyph glyph-name="uni0421" unicode="&#x421;" horiz-adv-x="665" 
d="M113 350q10 67 41 125.5t77.5 103.5t105 70.5t125.5 25.5q63 1 114.5 -21.5t87.5 -66.5l7 43q-42 40 -91 60t-116 19q-75 0 -140 -28.5t-116 -77.5t-85 -114t-45 -139q-10 -70 2.5 -134t47 -114.5t89.5 -80t128 -29.5q71 -1 126.5 20.5t104.5 58.5l7 43
q-48 -40 -106 -64.5t-130 -23.5q-66 0 -114.5 27t-78 73t-40.5 104t-1 120z" />
    <glyph glyph-name="uni0422" unicode="&#x422;" horiz-adv-x="451" 
d="M103 669h182l-115 -669h33l114 669h182l6 31h-396z" />
    <glyph glyph-name="uni0423" unicode="&#x423;" horiz-adv-x="490" 
d="M584 700h-36l-292 -468l18 -2l-146 470h-35l153 -479l-138 -221h36z" />
    <glyph glyph-name="uni040E" unicode="&#x40e;" horiz-adv-x="490" 
d="M584 700h-36l-292 -469l18 -1l-146 470h-35l152 -478l-137 -222h36zM219 909q-3 -37 10 -69t43 -51.5t78 -19.5q49 0 85 19.5t58.5 51.5t32.5 68h-28q-8 -28 -27.5 -54t-49 -42.5t-70.5 -16.5q-38 1 -62 17t-34.5 42t-8.5 55h-27z" />
    <glyph glyph-name="uni0424" unicode="&#x424;" horiz-adv-x="723" 
d="M438 700l-119 -700h31l121 700h-33zM687 350q-14 -74 -60 -127.5t-114.5 -82t-147.5 -29.5l-25 1q-76 1 -134 30t-87 82t-16 126q13 75 59.5 127.5t114.5 80.5t147 29h25q76 -1 134.5 -29.5t87 -81.5t16.5 -126zM718 350q10 62 -6.5 111t-53.5 84.5t-90 54.5t-117 20h-24
q-88 -1 -164.5 -33.5t-127.5 -92.5t-64 -144q-10 -61 6.5 -110.5t53.5 -85t90 -54.5t117 -20h24q66 1 126 19.5t108.5 53.5t80 84.5t41.5 112.5z" />
    <glyph glyph-name="uni0425" unicode="&#x425;" horiz-adv-x="539" 
d="M524 699l-231 -302l-122 303h-37l139 -331l-285 -369h41l255 337l135 -337h38l-152 366l259 333h-40z" />
    <glyph glyph-name="uni0426" unicode="&#x426;" horiz-adv-x="686" 
d="M86 31l116 669h-31l-121 -700h542l-19 -109h29l24 140h-83l116 669h-33l-115 -669h-425z" />
    <glyph glyph-name="uni0427" unicode="&#x427;" horiz-adv-x="545" 
d="M302 280h178l4 29h-177zM529 700l-120 -700h32l121 700h-33zM201 700h-31l-31 -182q-10 -62 5 -116.5t54.5 -88t103.5 -33.5l5 29q-55 0 -89 29.5t-46 77t-3 102.5z" />
    <glyph glyph-name="uni0428" unicode="&#x428;" horiz-adv-x="904" 
d="M773 31h-327l116 669h-33l-115 -669h-327l116 669h-33l-120 -700h751l120 700h-33z" />
    <glyph glyph-name="uni0429" unicode="&#x429;" horiz-adv-x="948" 
d="M773 31h-327l116 669h-33l-115 -669h-327l116 669h-33l-120 -700h804l-19 -109h29l24 140h-83l116 669h-33z" />
    <glyph glyph-name="uni042A" unicode="&#x42a;" horiz-adv-x="610" 
d="M240 389h141q56 0 96.5 -22.5t60.5 -62.5t11 -94q-10 -54 -43.5 -94.5t-82.5 -62.5t-107 -22h-137l-6 -31h142q66 0 122.5 26t95 73t47.5 110q10 63 -14 110t-71.5 74t-111.5 27h-137zM273 670l-116 -670h31l121 700h-207l-5 -31z" />
    <glyph glyph-name="uni042B" unicode="&#x42b;" horiz-adv-x="688" 
d="M668 700l-120 -700h31l122 700h-33zM167 700l-120 -700h31l121 700h-32zM130 389h141q55 0 96 -22.5t61 -62.5t11 -94q-10 -54 -43.5 -94.5t-82.5 -62.5t-106 -22h-138l-5 -31h141q66 0 122.5 26t95 73t47.5 110q10 63 -13.5 110t-71.5 74t-112 27h-138z" />
    <glyph glyph-name="uni042C" unicode="&#x42c;" horiz-adv-x="499" 
d="M167 700l-120 -700h31l121 700h-32zM130 389h141q55 0 96 -22.5t61 -62.5t11 -94q-10 -54 -43.5 -94.5t-82.5 -62.5t-106 -22h-138l-5 -31h141q66 0 122.5 26t95 73t47.5 110q10 63 -13.5 110t-71.5 74t-112 27h-138z" />
    <glyph glyph-name="uni042D" unicode="&#x42d;" horiz-adv-x="665" 
d="M179 335h437l5 30h-437zM617 350q-10 -66 -41 -124.5t-77 -103.5t-104.5 -71t-125.5 -26q-66 0 -115.5 22.5t-87.5 67.5l-6 -44q41 -40 90.5 -60t115.5 -20q75 0 140 28.5t116.5 78t85 114.5t44.5 138q10 70 -2.5 134t-47 114.5t-89 80t-128.5 30.5q-70 0 -125.5 -21
t-104.5 -58l-7 -43q48 40 107 64t128 24q66 -1 114.5 -28t78.5 -72.5t40.5 -103.5t0.5 -121z" />
    <glyph glyph-name="uni042E" unicode="&#x42e;" horiz-adv-x="996" 
d="M131 365h214l6 30h-215zM170 700l-120 -700h31l122 700h-33zM352 351q11 67 42 126t78.5 104.5t107 70.5t128.5 25q68 0 118 -26.5t80.5 -73t41.5 -105t2 -121.5q-11 -66 -42.5 -125t-78.5 -104.5t-107 -71.5t-129 -26q-68 0 -117.5 28t-80 74t-41.5 104.5t-2 120.5z
M318 351q-10 -69 3.5 -133.5t49 -116t91 -81t129.5 -29.5q75 0 141.5 28.5t118.5 78t86.5 115t46.5 138.5q10 71 -4 135t-49 114.5t-90.5 80t-130.5 29.5t-141 -28t-118.5 -77.5t-86.5 -114.5t-46 -139z" />
    <glyph glyph-name="uni042F" unicode="&#x42f;" horiz-adv-x="480" 
d="M316 325h-38l-280 -325h42zM489 700h-32l-120 -700h32zM469 670l6 30h-121q-65 -1 -121 -24t-93.5 -66.5t-47.5 -107.5q-10 -62 14 -106t72.5 -67.5t110.5 -24.5h118l4 29h-120q-55 1 -95.5 20.5t-60.5 57.5t-11 91q9 55 42 92t81 56.5t105 19.5h117z" />
    <glyph glyph-name="a" unicode="a" 
d="M482 460l-79 -460h28l80 460h-29zM53 230q-9 -63 8 -118t58.5 -88t104.5 -33q47 0 86 20.5t69.5 54.5t49.5 76.5t26 87.5q6 42 0.5 84t-23.5 77t-49.5 56.5t-78.5 22.5q-64 1 -117 -31.5t-88.5 -87t-45.5 -121.5zM83 230q10 58 41.5 106.5t79 77t102.5 27.5q39 -1 67 -20
t45 -50t23 -67.5t0 -73.5q-7 -39 -25.5 -76.5t-46.5 -67.5t-63 -48t-74 -18q-56 0 -92 29.5t-50 77.5t-7 103z" />
    <glyph glyph-name="agrave" unicode="&#xe0;" 
d="M482 460l-79 -460h28l80 460h-29zM53 230q-9 -63 8 -118t58.5 -88t104.5 -33q47 0 86 20.5t69.5 54.5t49.5 76.5t26 87.5q6 42 0.5 84t-23.5 77t-49.5 56.5t-78.5 22.5q-64 1 -117 -31.5t-88.5 -87t-45.5 -121.5zM83 230q10 58 41.5 106.5t79 77t102.5 27.5q39 -1 67 -20
t45 -50t23 -67.5t0 -73.5q-7 -39 -25.5 -76.5t-46.5 -67.5t-63 -48t-74 -18q-56 0 -92 29.5t-50 77.5t-7 103zM234 692l146 -154l16 11l-132 160z" />
    <glyph glyph-name="aacute" unicode="&#xe1;" 
d="M482 460l-79 -460h28l80 460h-29zM53 230q-9 -63 8 -118t58.5 -88t104.5 -33q47 0 86 20.5t69.5 54.5t49.5 76.5t26 87.5q6 42 0.5 84t-23.5 77t-49.5 56.5t-78.5 22.5q-64 1 -117 -31.5t-88.5 -87t-45.5 -121.5zM83 230q10 58 41.5 106.5t79 77t102.5 27.5q39 -1 67 -20
t45 -50t23 -67.5t0 -73.5q-7 -39 -25.5 -76.5t-46.5 -67.5t-63 -48t-74 -18q-56 0 -92 29.5t-50 77.5t-7 103zM446 691l-25 18l-186 -158l14 -13z" />
    <glyph glyph-name="acircumflex" unicode="&#xe2;" 
d="M482 460l-79 -460h28l80 460h-29zM53 230q-9 -63 8 -118t58.5 -88t104.5 -33q47 0 86 20.5t69.5 54.5t49.5 76.5t26 87.5q6 42 0.5 84t-23.5 77t-49.5 56.5t-78.5 22.5q-64 1 -117 -31.5t-88.5 -87t-45.5 -121.5zM83 230q10 58 41.5 106.5t79 77t102.5 27.5q39 -1 67 -20
t45 -50t23 -67.5t0 -73.5q-7 -39 -25.5 -76.5t-46.5 -67.5t-63 -48t-74 -18q-56 0 -92 29.5t-50 77.5t-7 103zM346 667l115 -123l21 17l-133 140l-178 -139l17 -17z" />
    <glyph glyph-name="atilde" unicode="&#xe3;" 
d="M482 460l-79 -460h28l80 460h-29zM53 230q-9 -63 8 -118t58.5 -88t104.5 -33q47 0 86 20.5t69.5 54.5t49.5 76.5t26 87.5q6 42 0.5 84t-23.5 77t-49.5 56.5t-78.5 22.5q-64 1 -117 -31.5t-88.5 -87t-45.5 -121.5zM83 230q10 58 41.5 106.5t79 77t102.5 27.5q39 -1 67 -20
t45 -50t23 -67.5t0 -73.5q-7 -39 -25.5 -76.5t-46.5 -67.5t-63 -48t-74 -18q-56 0 -92 29.5t-50 77.5t-7 103zM192 557l21 -12q7 17 20 33t40 17q21 0 37 -11.5t33 -23t40 -11.5q19 0 34.5 7.5t28.5 21t22 29.5l-18 15q-14 -19 -28.5 -33t-35.5 -14q-23 -1 -39 10.5
t-32 23.5t-41 12q-17 0 -36.5 -9.5t-32 -24t-13.5 -30.5z" />
    <glyph glyph-name="adieresis" unicode="&#xe4;" 
d="M482 460l-79 -460h28l80 460h-29zM53 230q-9 -63 8 -118t58.5 -88t104.5 -33q47 0 86 20.5t69.5 54.5t49.5 76.5t26 87.5q6 42 0.5 84t-23.5 77t-49.5 56.5t-78.5 22.5q-64 1 -117 -31.5t-88.5 -87t-45.5 -121.5zM83 230q10 58 41.5 106.5t79 77t102.5 27.5q39 -1 67 -20
t45 -50t23 -67.5t0 -73.5q-7 -39 -25.5 -76.5t-46.5 -67.5t-63 -48t-74 -18q-56 0 -92 29.5t-50 77.5t-7 103zM411 590q0 -9 5.5 -16.5t14.5 -7.5q10 -1 18 6.5t10 16.5q0 10 -5.5 17t-14.5 7t-17.5 -7t-10.5 -16zM217 590q0 -9 5.5 -16.5t14.5 -7.5q10 -1 18 6.5t9 16.5
q1 10 -4.5 17t-14.5 7t-17.5 -7t-10.5 -16z" />
    <glyph glyph-name="aring" unicode="&#xe5;" 
d="M482 460l-79 -460h28l80 460h-29zM53 230q-9 -63 8 -118t58.5 -88t104.5 -33q47 0 86 20.5t69.5 54.5t49.5 76.5t26 87.5q6 42 0.5 84t-23.5 77t-49.5 56.5t-78.5 22.5q-64 1 -117 -31.5t-88.5 -87t-45.5 -121.5zM83 230q10 58 41.5 106.5t79 77t102.5 27.5q39 -1 67 -20
t45 -50t23 -67.5t0 -73.5q-7 -39 -25.5 -76.5t-46.5 -67.5t-63 -48t-74 -18q-56 0 -92 29.5t-50 77.5t-7 103zM231 631q-4 -27 6 -49.5t30.5 -36.5t46.5 -14q27 0 52 13t42.5 35.5t21.5 50.5q4 27 -6.5 49.5t-30 36.5t-46.5 14t-52 -13.5t-42.5 -35.5t-21.5 -50zM252 630
q4 21 18 39t34 29.5t41 10.5q31 -1 49.5 -24.5t14.5 -54.5q-3 -21 -17.5 -39t-34.5 -28.5t-41 -10.5q-31 0 -49.5 23.5t-14.5 54.5z" />
    <glyph glyph-name="amacron" unicode="&#x101;" 
d="M482 460l-79 -460h28l80 460h-29zM53 230q-9 -63 8 -118t58.5 -88t104.5 -33q47 0 86 20.5t69.5 54.5t49.5 76.5t26 87.5q6 42 0.5 84t-23.5 77t-49.5 56.5t-78.5 22.5q-64 1 -117 -31.5t-88.5 -87t-45.5 -121.5zM83 230q10 58 41.5 106.5t79 77t102.5 27.5q39 -1 67 -20
t45 -50t23 -67.5t0 -73.5q-7 -39 -25.5 -76.5t-46.5 -67.5t-63 -48t-74 -18q-56 0 -92 29.5t-50 77.5t-7 103zM151 547h340l5 29h-341z" />
    <glyph glyph-name="abreve" unicode="&#x103;" 
d="M482 460l-79 -460h28l80 460h-29zM53 230q-9 -63 8 -118t58.5 -88t104.5 -33q47 0 86 20.5t69.5 54.5t49.5 76.5t26 87.5q6 42 0.5 84t-23.5 77t-49.5 56.5t-78.5 22.5q-64 1 -117 -31.5t-88.5 -87t-45.5 -121.5zM83 230q10 58 41.5 106.5t79 77t102.5 27.5q39 -1 67 -20
t45 -50t23 -67.5t0 -73.5q-7 -39 -25.5 -76.5t-46.5 -67.5t-63 -48t-74 -18q-56 0 -92 29.5t-50 77.5t-7 103zM182 684q-3 -36 10 -68t43.5 -51.5t78.5 -19.5q49 0 84.5 19.5t59 51t32.5 67.5h-27q-9 -28 -29 -54t-49.5 -42t-69.5 -16q-38 0 -62.5 16t-35 42t-8.5 55h-27z
" />
    <glyph glyph-name="aogonek" unicode="&#x105;" 
d="M482 460l-79 -460h28l80 460h-29zM53 230q-9 -63 8 -118t58.5 -88t104.5 -33q47 0 86 20.5t69.5 54.5t49.5 76.5t26 87.5q6 42 0.5 84t-23.5 77t-49.5 56.5t-78.5 22.5q-64 1 -117 -31.5t-88.5 -87t-45.5 -121.5zM83 230q10 58 41.5 106.5t79 77t102.5 27.5q39 -1 67 -20
t45 -50t23 -67.5t0 -73.5q-7 -39 -25.5 -76.5t-46.5 -67.5t-63 -48t-74 -18q-56 0 -92 29.5t-50 77.5t-7 103zM429 -160q-15 -12 -36 -22t-47 -9q-30 0 -49.5 16t-16.5 47q5 30 30 53.5t59 42t63 32.5l-15 14q-33 -16 -70.5 -36.5t-64.5 -47.5t-33 -63q-5 -40 21 -63t71 -23
q31 -1 56.5 11t42.5 27z" />
    <glyph glyph-name="b" unicode="b" 
d="M211 780h-30l-134 -780h30zM505 230q9 64 -8 118.5t-58.5 88t-105.5 33.5q-47 0 -86 -20.5t-68.5 -55t-49 -77t-26.5 -87.5q-6 -42 -0.5 -84t23.5 -77t50 -56.5t78 -21.5q64 -1 117.5 31t89 87t44.5 121zM475 230q-9 -58 -40.5 -106.5t-79 -76.5t-103.5 -27
q-39 1 -66.5 19.5t-45 49.5t-23 67.5t-0.5 73.5q7 40 25.5 77.5t46.5 67.5t63 48t74 18q56 1 92 -29t50.5 -78t6.5 -104z" />
    <glyph glyph-name="c" unicode="c" horiz-adv-x="471" 
d="M85 230q8 58 41 106t82 76.5t107 28.5q48 0 85.5 -20t55.5 -47l6 38q-22 24 -60 41t-84 17q-67 0 -123.5 -32.5t-93.5 -87t-47 -120.5q-8 -63 13 -117.5t67 -88t112 -33.5q49 0 91 17t69 40l6 38q-26 -25 -69 -45.5t-94 -20.5q-58 0 -97.5 30t-57 77.5t-9.5 102.5z" />
    <glyph glyph-name="ccedilla" unicode="&#xe7;" horiz-adv-x="471" 
d="M78 230q10 58 43.5 106t83.5 76.5t108 28.5q48 0 85 -20t55 -47l6 38q-22 24 -59.5 41t-83.5 17q-67 0 -124.5 -32.5t-95.5 -87t-48 -120.5q-9 -62 11 -117t65.5 -88.5t111.5 -33.5q49 0 91 17t70 40l6 38q-27 -25 -70 -45.5t-94 -20.5q-58 0 -96.5 30t-55.5 78t-9 102z
M232 15l-81 -110q18 9 38 16.5t39 5.5q15 0 26.5 -7t17 -19t3.5 -29q-2 -22 -17 -37.5t-35 -24.5t-41 -9q-22 0 -37 8t-30 23l-18 -16q20 -18 38 -27.5t44 -9.5q27 0 53.5 11t44.5 32t21 49q4 33 -14 53t-45 22q-16 0 -27.5 -5t-25.5 -12l72 86h-26z" />
    <glyph glyph-name="cacute" unicode="&#x107;" horiz-adv-x="471" 
d="M78 230q10 58 43.5 106t83.5 76.5t108 28.5q48 0 85 -20t55 -47l6 38q-22 24 -59.5 41t-83.5 17q-67 0 -124.5 -32.5t-95.5 -87t-48 -120.5q-9 -62 11 -117t65.5 -88.5t111.5 -33.5q49 0 91 17t70 40l6 38q-27 -25 -70 -45.5t-94 -20.5q-58 0 -96.5 30t-55.5 78t-9 102z
M492 691l-25 18l-187 -158l16 -13z" />
    <glyph glyph-name="ccircumflex" unicode="&#x109;" horiz-adv-x="471" 
d="M78 230q10 58 43.5 106t83.5 76.5t108 28.5q48 0 85 -20t55 -47l6 38q-22 24 -59.5 41t-83.5 17q-67 0 -124.5 -32.5t-95.5 -87t-48 -120.5q-9 -62 11 -117t65.5 -88.5t111.5 -33.5q49 0 91 17t70 40l6 38q-27 -25 -70 -45.5t-94 -20.5q-58 0 -96.5 30t-55.5 78t-9 102z
M349 653l116 -123l21 16l-133 141l-179 -139l17 -17z" />
    <glyph glyph-name="cdotaccent" unicode="&#x10b;" horiz-adv-x="471" 
d="M78 230q10 58 43.5 106t83.5 76.5t108 28.5q48 0 85 -20t55 -47l6 38q-22 24 -59.5 41t-83.5 17q-67 0 -124.5 -32.5t-95.5 -87t-48 -120.5q-9 -62 11 -117t65.5 -88.5t111.5 -33.5q49 0 91 17t70 40l6 38q-27 -25 -70 -45.5t-94 -20.5q-58 0 -96.5 30t-55.5 78t-9 102z
M309 561q-1 -9 4.5 -16t15.5 -8q9 0 17.5 7.5t9.5 16.5q0 9 -5.5 16.5t-14.5 7.5t-17.5 -7t-9.5 -17z" />
    <glyph glyph-name="ccaron" unicode="&#x10d;" horiz-adv-x="471" 
d="M78 230q10 58 43.5 106t83.5 76.5t108 28.5q48 0 85 -20t55 -47l6 38q-22 24 -59.5 41t-83.5 17q-67 0 -124.5 -32.5t-95.5 -87t-48 -120.5q-9 -62 11 -117t65.5 -88.5t111.5 -33.5q49 0 91 17t70 40l6 38q-27 -25 -70 -45.5t-94 -20.5q-58 0 -96.5 30t-55.5 78t-9 102z
M334 579l-114 123l-23 -18l133 -139l180 138l-18 18z" />
    <glyph glyph-name="d" unicode="d" 
d="M535 780l-134 -780h30l134 780h-30zM53 230q-9 -63 8 -118t58.5 -88t104.5 -33q47 0 86 20.5t69.5 54.5t49.5 76.5t26 87.5q6 42 0.5 84t-23.5 77t-49.5 56.5t-78.5 22.5q-64 1 -117 -31.5t-88.5 -87t-45.5 -121.5zM83 230q10 58 41.5 106.5t79 77t102.5 27.5
q39 -1 67 -20t45 -50t23 -67.5t0 -73.5q-7 -39 -25.5 -76.5t-46.5 -67.5t-63 -48t-74 -18q-56 0 -92 29.5t-50 77.5t-7 103z" />
    <glyph glyph-name="dcaron" unicode="&#x10f;" horiz-adv-x="553" 
d="M535 780l-134 -780h30l134 780h-30zM53 230q-9 -63 8 -118t58.5 -88t104.5 -33q47 0 86 20.5t69.5 54.5t49.5 76.5t26 87.5q6 42 0.5 84t-23.5 77t-49.5 56.5t-78.5 22.5q-64 1 -117 -31.5t-88.5 -87t-45.5 -121.5zM83 230q10 58 41.5 106.5t79 77t102.5 27.5
q39 -1 67 -20t45 -50t23 -67.5t0 -73.5q-7 -39 -25.5 -76.5t-46.5 -67.5t-63 -48t-74 -18q-56 0 -92 29.5t-50 77.5t-7 103zM729 768l-141 -253l20 -8l151 248z" />
    <glyph glyph-name="e" unicode="e" horiz-adv-x="501" 
d="M229 -10q66 0 119 30.5t94 86.5l-24 16q-35 -50 -82 -77t-104 -27q-46 0 -79.5 23t-51.5 63.5t-18 93.5q0 46 17.5 89.5t48 78.5t70 55t83.5 20t75.5 -21t49.5 -57.5t18 -82.5q0 -15 -4 -28.5t-9 -22.5l14 20h-370v-27h390q4 11 7 25.5t3 27.5q0 56 -22 99.5t-60.5 69
t-89.5 25.5t-96 -22.5t-80 -61.5t-55 -87.5t-20 -100.5q0 -63 22 -110t62 -72.5t92 -25.5z" />
    <glyph glyph-name="egrave" unicode="&#xe8;" horiz-adv-x="491" 
d="M76 223h389q2 6 3 12.5t2 12.5q7 58 -10.5 108.5t-57.5 82t-99 31.5q-52 0 -97 -23t-78 -61.5t-52 -86.5q-7 -16 -11.5 -33t-7.5 -35q-7 -59 9.5 -114.5t56 -90.5t101.5 -35q54 0 93 16.5t69 43t54 55.5l-22 17q-21 -25 -48 -49t-61.5 -39t-79.5 -15q-55 1 -88 31.5
t-46 79t-7 101.5l2 9q9 55 39 101t75 73.5t97 26.5q52 0 85 -28.5t46 -72.5t5 -91h-357zM185 687l147 -154l18 11l-136 161z" />
    <glyph glyph-name="eacute" unicode="&#xe9;" horiz-adv-x="491" 
d="M76 223h389q2 6 3 12.5t2 12.5q7 58 -10.5 108.5t-57.5 82t-99 31.5q-52 0 -97 -23t-78 -61.5t-52 -86.5q-7 -16 -11.5 -33t-7.5 -35q-7 -59 9.5 -114.5t56 -90.5t101.5 -35q54 0 93 16.5t69 43t54 55.5l-22 17q-21 -25 -48 -49t-61.5 -39t-79.5 -15q-55 1 -88 31.5
t-46 79t-7 101.5l2 9q9 55 39 101t75 73.5t97 26.5q52 0 85 -28.5t46 -72.5t5 -91h-357zM491 686l-25 18l-184 -158l15 -13z" />
    <glyph glyph-name="ecircumflex" unicode="&#xea;" horiz-adv-x="491" 
d="M76 223h389q2 6 3 12.5t2 12.5q7 58 -10.5 108.5t-57.5 82t-99 31.5q-52 0 -97 -23t-78 -61.5t-52 -86.5q-7 -16 -11.5 -33t-7.5 -35q-7 -59 9.5 -114.5t56 -90.5t101.5 -35q54 0 93 16.5t69 43t54 55.5l-22 17q-21 -25 -48 -49t-61.5 -39t-79.5 -15q-55 1 -88 31.5
t-46 79t-7 101.5l2 9q9 55 39 101t75 73.5t97 26.5q52 0 85 -28.5t46 -72.5t5 -91h-357zM332 653l116 -123l21 16l-133 140l-179 -138l17 -17z" />
    <glyph glyph-name="edieresis" unicode="&#xeb;" horiz-adv-x="491" 
d="M76 223h389q2 6 3 12.5t2 12.5q7 58 -10.5 108.5t-57.5 82t-99 31.5q-52 0 -97 -23t-78 -61.5t-52 -86.5q-7 -16 -11.5 -33t-7.5 -35q-7 -59 9.5 -114.5t56 -90.5t101.5 -35q54 0 93 16.5t69 43t54 55.5l-22 17q-21 -25 -48 -49t-61.5 -39t-79.5 -15q-55 1 -88 31.5
t-46 79t-7 101.5l2 9q9 55 39 101t75 73.5t97 26.5q52 0 85 -28.5t46 -72.5t5 -91h-357zM387 554q0 -9 5.5 -16t14.5 -8q10 0 18 7.5t9 16.5t-4.5 16.5t-15.5 7.5q-9 0 -17 -7.5t-10 -16.5zM193 554q0 -9 5.5 -16t14.5 -8q10 0 18 7.5t9 16.5t-4.5 16.5t-15.5 7.5
q-9 0 -17 -7.5t-10 -16.5z" />
    <glyph glyph-name="emacron" unicode="&#x113;" horiz-adv-x="491" 
d="M76 223h389q2 6 3 12.5t2 12.5q7 58 -10.5 108.5t-57.5 82t-99 31.5q-52 0 -97 -23t-78 -61.5t-52 -86.5q-7 -16 -11.5 -33t-7.5 -35q-7 -59 9.5 -114.5t56 -90.5t101.5 -35q54 0 93 16.5t69 43t54 55.5l-22 17q-21 -25 -48 -49t-61.5 -39t-79.5 -15q-55 1 -88 31.5
t-46 79t-7 101.5l2 9q9 55 39 101t75 73.5t97 26.5q52 0 85 -28.5t46 -72.5t5 -91h-357zM141 530h340l4 29h-339z" />
    <glyph glyph-name="ebreve" unicode="&#x115;" horiz-adv-x="491" 
d="M76 223h389q2 6 3 12.5t2 12.5q7 58 -10.5 108.5t-57.5 82t-99 31.5q-52 0 -97 -23t-78 -61.5t-52 -86.5q-7 -16 -11.5 -33t-7.5 -35q-7 -59 9.5 -114.5t56 -90.5t101.5 -35q54 0 93 16.5t69 43t54 55.5l-22 17q-21 -25 -48 -49t-61.5 -39t-79.5 -15q-55 1 -88 31.5
t-46 79t-7 101.5l2 9q9 55 39 101t75 73.5t97 26.5q52 0 85 -28.5t46 -72.5t5 -91h-357zM172 669q-2 -36 11 -68t43 -51.5t78 -19.5q49 0 85 19.5t59 51t32 67.5l-28 1q-8 -28 -27.5 -54t-48.5 -42.5t-69 -16.5q-39 0 -63.5 16.5t-35 42.5t-9.5 54h-27z" />
    <glyph glyph-name="edotaccent" unicode="&#x117;" horiz-adv-x="491" 
d="M76 223h389q2 6 3 12.5t2 12.5q7 58 -10.5 108.5t-57.5 82t-99 31.5q-52 0 -97 -23t-78 -61.5t-52 -86.5q-7 -16 -11.5 -33t-7.5 -35q-7 -59 9.5 -114.5t56 -90.5t101.5 -35q54 0 93 16.5t69 43t54 55.5l-22 17q-21 -25 -48 -49t-61.5 -39t-79.5 -15q-55 1 -88 31.5
t-46 79t-7 101.5l2 9q9 55 39 101t75 73.5t97 26.5q52 0 85 -28.5t46 -72.5t5 -91h-357zM290 554q0 -9 6 -16t15 -8q9 0 17 7.5t9 16.5t-4.5 16.5t-14.5 7.5t-17.5 -7.5t-10.5 -16.5z" />
    <glyph glyph-name="eogonek" unicode="&#x119;" horiz-adv-x="491" 
d="M76 223h389q2 6 3 12.5t2 12.5q7 58 -10.5 108.5t-57.5 82t-99 31.5q-52 0 -97 -23t-78 -61.5t-52 -86.5q-7 -16 -11.5 -33t-7.5 -35q-7 -59 9.5 -114.5t56 -90.5t101.5 -35q40 0 71.5 10.5t57 27.5t46.5 37.5t41 39.5l-22 17q-21 -25 -48 -49t-61.5 -39t-79.5 -15
q-55 1 -88 31.5t-46 79t-7 101.5l2 9q9 55 39 101t75 73.5t97 26.5q52 0 85 -28.5t46 -72.5t5 -91h-357zM441 -107q-15 -11 -36 -21t-46 -10q-31 2 -50.5 17.5t-16.5 45.5q3 27 23 51.5t53.5 55t71.5 74.5l-19 1q-36 -39 -71.5 -69.5t-60 -59t-28.5 -60.5q-4 -40 22.5 -61.5
t69.5 -21.5q30 0 56 11.5t43 26.5z" />
    <glyph glyph-name="ecaron" unicode="&#x11b;" horiz-adv-x="491" 
d="M76 223h389q2 6 3 12.5t2 12.5q7 58 -10.5 108.5t-57.5 82t-99 31.5q-52 0 -97 -23t-78 -61.5t-52 -86.5q-7 -16 -11.5 -33t-7.5 -35q-7 -59 9.5 -114.5t56 -90.5t101.5 -35q54 0 93 16.5t69 43t54 55.5l-22 17q-21 -25 -48 -49t-61.5 -39t-79.5 -15q-55 1 -88 31.5
t-46 79t-7 101.5l2 9q9 55 39 101t75 73.5t97 26.5q52 0 85 -28.5t46 -72.5t5 -91h-357zM307 564l-115 123l-22 -17l133 -140l179 138l-18 18z" />
    <glyph glyph-name="f" unicode="f" horiz-adv-x="272" 
d="M97 460l-5 -29h200l5 29h-200zM364 719l21 24q-12 17 -30 31t-47 15q-41 1 -69.5 -20t-44.5 -54.5t-22 -70.5l-110 -644h30l110 641q5 27 16.5 54.5t33 45.5t52.5 17q21 0 35.5 -12t24.5 -27z" />
    <glyph glyph-name="g" unicode="g" 
d="M22 -30q-6 -54 11 -99.5t55.5 -72.5t98.5 -27q64 0 116 31t86.5 85t44.5 123l77 450h-30l-78 -450q-9 -61 -39.5 -109t-76 -74.5t-99.5 -26.5q-51 1 -82.5 24t-45 61.5t-8.5 84.5h-30zM53 230q-9 -63 8 -118t58.5 -88t104.5 -33q47 0 86 20.5t69.5 54.5t49.5 76.5
t26 87.5q6 42 0.5 84t-23.5 77t-49.5 56.5t-78.5 22.5q-64 1 -117 -31.5t-88.5 -87t-45.5 -121.5zM83 230q10 58 41.5 106.5t79 77t102.5 27.5q38 -1 66.5 -20t45.5 -49.5t23 -66.5t1 -71q-7 -40 -25.5 -78t-47 -69t-63 -49t-74.5 -18q-56 0 -92 29.5t-50 77.5t-7 103z" />
    <glyph glyph-name="gcircumflex" unicode="&#x11d;" 
d="M22 -30q-6 -54 10.5 -99.5t55 -72.5t97.5 -27q64 0 116 31t87 85t46 123l77 450h-30l-78 -450q-10 -61 -40 -108.5t-75.5 -74.5t-99.5 -27q-51 1 -82.5 24t-45 61.5t-8.5 84.5h-30zM53 230q-9 -63 8 -118t58.5 -88t104.5 -33q47 0 86 20.5t69.5 54.5t49.5 76.5t26 87.5
q6 42 0.5 84t-23.5 77t-49.5 56.5t-78.5 22.5q-64 1 -117 -31.5t-88.5 -87t-45.5 -121.5zM83 230q10 58 41.5 106.5t79 77t102.5 27.5q38 -1 66.5 -20t45.5 -49.5t23 -66.5t1 -71q-7 -40 -25.5 -78t-47 -69t-63 -49t-74.5 -18q-56 0 -92 29.5t-50 77.5t-7 103zM338 653
l115 -123l21 16l-132 141l-180 -139l17 -17z" />
    <glyph glyph-name="gbreve" unicode="&#x11f;" 
d="M22 -30q-6 -54 10.5 -99.5t55 -72.5t97.5 -27q64 0 116 31t87 85t46 123l77 450h-30l-78 -450q-10 -61 -40 -108.5t-75.5 -74.5t-99.5 -27q-51 1 -82.5 24t-45 61.5t-8.5 84.5h-30zM53 230q-9 -63 8 -118t58.5 -88t104.5 -33q47 0 86 20.5t69.5 54.5t49.5 76.5t26 87.5
q6 42 0.5 84t-23.5 77t-49.5 56.5t-78.5 22.5q-64 1 -117 -31.5t-88.5 -87t-45.5 -121.5zM83 230q10 58 41.5 106.5t79 77t102.5 27.5q38 -1 66.5 -20t45.5 -49.5t23 -66.5t1 -71q-7 -40 -25.5 -78t-47 -69t-63 -49t-74.5 -18q-56 0 -92 29.5t-50 77.5t-7 103zM186 670
q-3 -36 10 -68t43 -51.5t77 -19.5q49 0 85 19.5t59.5 51t32.5 67.5h-27q-9 -28 -28.5 -54t-49 -42t-69.5 -16q-39 0 -63.5 16t-35 42t-7.5 55h-27z" />
    <glyph glyph-name="gdotaccent" unicode="&#x121;" 
d="M22 -30q-6 -54 10.5 -99.5t55 -72.5t97.5 -27q64 0 116 31t87 85t46 123l77 450h-30l-78 -450q-10 -61 -40 -108.5t-75.5 -74.5t-99.5 -27q-51 1 -82.5 24t-45 61.5t-8.5 84.5h-30zM53 230q-9 -63 8 -118t58.5 -88t104.5 -33q47 0 86 20.5t69.5 54.5t49.5 76.5t26 87.5
q6 42 0.5 84t-23.5 77t-49.5 56.5t-78.5 22.5q-64 1 -117 -31.5t-88.5 -87t-45.5 -121.5zM83 230q10 58 41.5 106.5t79 77t102.5 27.5q38 -1 66.5 -20t45.5 -49.5t23 -66.5t1 -71q-7 -40 -25.5 -78t-47 -69t-63 -49t-74.5 -18q-56 0 -92 29.5t-50 77.5t-7 103zM304 566
q-1 -9 4.5 -16.5t14.5 -7.5q10 0 18 7.5t10 15.5q0 10 -5.5 17t-14.5 8q-9 0 -17.5 -7.5t-9.5 -16.5z" />
    <glyph glyph-name="uni0123" unicode="&#x123;" horiz-adv-x="553" 
d="M22 -30q-6 -54 10.5 -99.5t55 -72.5t98.5 -27q63 0 115 31t87 85t46 123l77 450h-30l-78 -450q-10 -61 -40.5 -108.5t-76 -74.5t-98.5 -27q-51 1 -83 24t-45 61.5t-8 84.5h-30zM53 230q-9 -63 8 -118t58.5 -88t105.5 -33q46 0 85.5 20.5t69.5 54.5t49.5 76.5t25.5 87.5
q6 42 0.5 84.5t-23.5 77t-50 56t-79 22.5q-63 1 -116.5 -31.5t-88.5 -87t-45 -121.5zM84 230q9 58 40.5 106.5t79 77t102.5 27.5q39 -1 67 -20t45 -49.5t23 -67t1 -70.5q-7 -40 -25.5 -78t-47 -69t-63.5 -49t-74 -18q-56 0 -92 29.5t-50 77.5t-6 103zM326 561l175 233
l-19 12l-183 -227z" />
    <glyph glyph-name="h" unicode="h" horiz-adv-x="475" 
d="M216 780h-30l-134 -780h30zM392 308l-54 -308h30l55 311q5 43 -3.5 79t-34.5 58t-74 22q-50 0 -90 -27t-66 -70t-37 -92h12q10 40 33.5 77t59.5 60.5t80 22.5q41 0 61.5 -19t26.5 -48.5t1 -65.5z" />
    <glyph glyph-name="hcircumflex" unicode="&#x125;" horiz-adv-x="475" 
d="M216 780h-30l-134 -780h30zM392 308l-54 -308h30l55 311q5 43 -3.5 79t-34.5 58t-74 22q-51 0 -91 -27t-67 -70t-37 -92h14q10 40 33.5 77t59.5 60.5t80 22.5q41 0 61.5 -19t26.5 -48.5t1 -65.5zM241 963l114 -123l23 16l-134 141l-178 -139l16 -17z" />
    <glyph glyph-name="i" unicode="i" horiz-adv-x="204" 
d="M169 682q0 -9 6.5 -16t16.5 -7t16.5 7t6.5 16q0 10 -6.5 16.5t-16.5 6.5t-16.5 -6.5t-6.5 -16.5zM139 460l-79 -460h31l79 460h-31z" />
    <glyph glyph-name="igrave" unicode="&#xec;" horiz-adv-x="204" 
d="M139 460l-79 -460h30l79 460h-30zM41 691l144 -154l18 11l-132 160z" />
    <glyph glyph-name="iacute" unicode="&#xed;" horiz-adv-x="204" 
d="M139 460l-79 -460h30l79 460h-30zM346 690l-25 17l-187 -158l16 -12z" />
    <glyph glyph-name="icircumflex" unicode="&#xee;" horiz-adv-x="204" 
d="M139 460l-79 -460h30l79 460h-30zM188 656l116 -123l21 16l-133 141l-179 -139l17 -17z" />
    <glyph glyph-name="idieresis" unicode="&#xef;" horiz-adv-x="204" 
d="M139 460l-79 -460h30l79 460h-30zM231 563q-1 -9 5 -16.5t15 -7.5t17.5 7.5t9.5 15.5q1 10 -5 17t-15 8q-9 0 -17.5 -7.5t-9.5 -16.5zM64 563q0 -9 5.5 -16.5t14.5 -7.5q10 0 18 7.5t10 15.5q0 10 -5.5 17t-14.5 8q-9 0 -17.5 -7.5t-10.5 -16.5z" />
    <glyph glyph-name="itilde" unicode="&#x129;" horiz-adv-x="204" 
d="M139 460l-79 -460h30l79 460h-30zM50 585l20 -12q6 17 20 33.5t42 16.5q21 1 36.5 -10.5t32.5 -23t40 -12.5q18 0 33.5 8t28.5 21t23 29l-18 15q-13 -19 -28 -33t-35 -14q-23 0 -39.5 11.5t-32.5 23t-41 11.5q-21 0 -37 -9t-27.5 -24t-17.5 -31z" />
    <glyph glyph-name="imacron" unicode="&#x12b;" horiz-adv-x="204" 
d="M139 460l-79 -460h30l79 460h-30zM28 576h340l5 29h-340z" />
    <glyph glyph-name="ibreve" unicode="&#x12d;" horiz-adv-x="204" 
d="M139 460l-79 -460h30l79 460h-30zM36 670q-3 -36 10 -68t43 -51.5t78 -19.5q49 0 85 19.5t59 51t33 67.5h-28q-9 -28 -28.5 -54t-49 -42t-69.5 -16q-39 0 -63.5 16t-34.5 42t-8 55h-27z" />
    <glyph glyph-name="iogonek" unicode="&#x12f;" horiz-adv-x="204" 
d="M169 682q-1 -9 4.5 -16t14.5 -7q10 0 17.5 7t9.5 16q0 9 -5 16t-15 7q-9 0 -17 -7t-9 -16zM139 460l-79 -460h30l79 460h-30zM87 -160q-15 -12 -36 -22t-46 -9q-30 0 -50 16t-17 47q5 30 30.5 53.5t59.5 42t63 32.5l-15 14q-34 -16 -71 -36.5t-64 -47.5t-33 -63
q-6 -40 20.5 -63t71.5 -23q31 -1 56.5 11t42.5 27z" />
    <glyph glyph-name="j" unicode="j" horiz-adv-x="195" 
d="M158 682q0 -9 7 -16t16 -7q10 0 16.5 7t6.5 16q0 10 -6.5 16.5t-16.5 6.5q-9 0 -16 -6.5t-7 -16.5zM-124 -150l-21 -24q13 -17 31.5 -31t46.5 -14q41 0 69 20.5t44 54t22 68.5l92 536h-30l-92 -533q-4 -25 -16 -52t-33 -45.5t-53 -18.5q-21 0 -36 13t-24 26z" />
    <glyph glyph-name="jcircumflex" unicode="&#x135;" horiz-adv-x="195" 
d="M-124 -150l-21 -24q12 -16 30 -30t46 -15q42 -1 70 19.5t44.5 54t22.5 69.5l92 536h-30l-92 -533q-4 -26 -16 -53.5t-33 -45t-53 -17.5q-21 1 -35.5 12.5t-24.5 26.5zM179 653l114 -123l22 16l-133 141l-179 -139l17 -17z" />
    <glyph glyph-name="k" unicode="k" horiz-adv-x="380" 
d="M181 780l-134 -780h30l135 780h-31zM367 459l-253 -187l196 -272h36l-196 268l258 191h-41z" />
    <glyph glyph-name="uni0137" unicode="&#x137;" horiz-adv-x="380" 
d="M181 780l-134 -780h30l135 780h-31zM367 459l-254 -187l196 -272h38l-196 269l257 190h-41zM220 -61l-141 -253l20 -7l151 247z" />
    <glyph glyph-name="l" unicode="l" horiz-adv-x="189" 
d="M186 780l-134 -780h30l134 780h-30z" />
    <glyph glyph-name="lacute" unicode="&#x13a;" horiz-adv-x="189" 
d="M186 780l-134 -780h30l134 780h-30zM396 994l-25 18l-187 -158l14 -13z" />
    <glyph glyph-name="uni013C" unicode="&#x13c;" horiz-adv-x="189" 
d="M186 780l-134 -780h30l134 780h-30zM77 -61l-142 -253l21 -7l150 247z" />
    <glyph glyph-name="lcaron" unicode="&#x13e;" horiz-adv-x="223" 
d="M186 780l-134 -780h30l134 780h-30zM407 768l-141 -253l20 -8l151 248z" />
    <glyph glyph-name="m" unicode="m" horiz-adv-x="696" 
d="M642 311q5 40 -1 76.5t-28 59t-65 23.5q-52 1 -92.5 -32t-65.5 -87q1 31 -8 58t-30 44t-57 17q-34 1 -63.5 -15t-52 -42.5t-35.5 -58.5l18 106h-30l-80 -460h30l52 289q6 40 28 75t54.5 56t70.5 21q35 -1 51.5 -20.5t20.5 -49.5t0 -63l-54 -308h30l51 288q6 39 28.5 74
t55 57t70.5 22q36 -1 52 -20.5t20 -49.5t0 -63l-54 -308h31z" />
    <glyph glyph-name="n" unicode="n" horiz-adv-x="475" 
d="M392 308l-54 -308h30l55 311q5 43 -3.5 78.5t-34.5 58t-74 22.5q-58 0 -101.5 -33t-64.5 -85l17 108h-30l-80 -460h30l52 288q7 41 30.5 76t60 56.5t78.5 20.5q41 0 61.5 -19t26.5 -48.5t1 -65.5z" />
    <glyph glyph-name="ntilde" unicode="&#xf1;" horiz-adv-x="475" 
d="M162 460h-30l-80 -460h30zM392 308l-54 -308h30l55 311q5 43 -3.5 79t-34.5 58t-74 22q-51 0 -91 -27t-67 -70t-37 -92h14q10 40 33.5 77t59.5 60.5t80 22.5q41 0 61.5 -19t26.5 -48.5t1 -65.5zM172 557l20 -12q7 17 20.5 33.5t41.5 16.5q21 0 36.5 -11.5t32.5 -23
t40 -11.5q18 0 33.5 7.5t29 21t22.5 29.5l-18 15q-13 -19 -27.5 -33t-35.5 -14q-23 -1 -39 10.5t-32.5 23.5t-41.5 12q-21 0 -37 -9.5t-27.5 -24t-17.5 -30.5z" />
    <glyph glyph-name="nacute" unicode="&#x144;" horiz-adv-x="475" 
d="M162 460h-30l-80 -460h30zM392 308l-54 -308h30l55 311q5 43 -3.5 79t-34.5 58t-74 22q-50 0 -90 -27t-66 -70t-37 -92h12q10 40 33.5 77t59.5 60.5t80 22.5q41 0 61.5 -19t26.5 -48.5t1 -65.5zM469 691l-24 18l-188 -158l16 -13z" />
    <glyph glyph-name="uni0146" unicode="&#x146;" horiz-adv-x="475" 
d="M162 460h-30l-80 -460h30zM392 308l-54 -308h30l55 311q5 43 -3.5 79t-34.5 58t-74 22q-51 0 -91 -27t-67 -70t-37 -92h14q10 40 33.5 77t59.5 60.5t80 22.5q41 0 61.5 -19t26.5 -48.5t1 -65.5zM215 -47l-141 -253l21 -7l151 248z" />
    <glyph glyph-name="ncaron" unicode="&#x148;" horiz-adv-x="475" 
d="M162 460h-30l-80 -460h30zM392 308l-54 -308h30l55 311q5 43 -3.5 79t-34.5 58t-74 22q-51 0 -91 -27t-67 -70t-37 -92h14q10 40 33.5 77t59.5 60.5t80 22.5q41 0 61.5 -19t26.5 -48.5t1 -65.5zM306 564l-114 123l-22 -17l132 -139l179 138l-17 18z" />
    <glyph glyph-name="o" unicode="o" horiz-adv-x="537" 
d="M59 230q-8 -63 13 -117.5t67 -88t112 -33.5q67 0 123.5 32t94 87t46.5 120q9 63 -12.5 117.5t-67.5 88.5t-112 34q-67 0 -124 -32.5t-94 -87t-46 -120.5zM89 230q9 58 42 106t82 76.5t107 28.5t97.5 -30t57 -77.5t10.5 -103.5q-9 -57 -41.5 -105t-82 -76.5t-108.5 -28.5
q-57 0 -96.5 30t-57.5 77.5t-10 102.5z" />
    <glyph glyph-name="ograve" unicode="&#xf2;" horiz-adv-x="537" 
d="M53 230q-9 -62 11 -117t65.5 -88.5t111.5 -33.5q67 0 124.5 32t95.5 87t48 120q9 63 -11.5 117.5t-65.5 88.5t-112 34t-124 -32.5t-95 -87t-48 -120.5zM83 230q10 58 43.5 106t83.5 76.5t108 28.5t96.5 -30t55.5 -78t8 -103q-9 -57 -42 -105t-83.5 -76.5t-109.5 -28.5
q-58 0 -96.5 30t-55 77.5t-8.5 102.5zM220 691l146 -154l17 11l-133 160z" />
    <glyph glyph-name="oacute" unicode="&#xf3;" horiz-adv-x="537" 
d="M53 230q-9 -62 11 -117t65.5 -88.5t111.5 -33.5q67 0 124.5 32t95.5 87t48 120q9 63 -11.5 117.5t-65.5 88.5t-112 34t-124 -32.5t-95 -87t-48 -120.5zM83 230q10 58 43.5 106t83.5 76.5t108 28.5t96.5 -30t55.5 -78t8 -103q-9 -57 -42 -105t-83.5 -76.5t-109.5 -28.5
q-58 0 -96.5 30t-55 77.5t-8.5 102.5zM499 690l-25 17l-187 -158l15 -12z" />
    <glyph glyph-name="ocircumflex" unicode="&#xf4;" horiz-adv-x="537" 
d="M53 230q-9 -62 11 -117t65.5 -88.5t111.5 -33.5q67 0 124.5 32t95.5 87t48 120q9 63 -11.5 117.5t-65.5 88.5t-112 34t-124 -32.5t-95 -87t-48 -120.5zM83 230q10 58 43.5 106t83.5 76.5t108 28.5t96.5 -30t55.5 -78t8 -103q-9 -57 -42 -105t-83.5 -76.5t-109.5 -28.5
q-58 0 -96.5 30t-55 77.5t-8.5 102.5zM357 673l116 -123l21 16l-132 141l-180 -139l17 -17z" />
    <glyph glyph-name="otilde" unicode="&#xf5;" horiz-adv-x="537" 
d="M53 230q-9 -62 11 -117t65.5 -88.5t111.5 -33.5q67 0 124.5 32t95.5 87t48 120q9 63 -11.5 117.5t-65.5 88.5t-112 34t-124 -32.5t-95 -87t-48 -120.5zM83 230q10 58 43.5 106t83.5 76.5t108 28.5t96.5 -30t55.5 -78t8 -103q-9 -57 -42 -105t-83.5 -76.5t-109.5 -28.5
q-58 0 -96.5 30t-55 77.5t-8.5 102.5zM202 557l21 -12q7 17 20.5 33t40.5 17q21 0 37 -11.5t33 -23t40 -11.5q19 0 34.5 7.5t28 21t22.5 29.5l-18 15q-14 -19 -28.5 -33t-34.5 -14q-23 -1 -39.5 10.5t-33 23.5t-40.5 12q-16 0 -36.5 -9.5t-34.5 -24t-12 -30.5z" />
    <glyph glyph-name="odieresis" unicode="&#xf6;" horiz-adv-x="537" 
d="M53 230q-9 -62 11 -117t65.5 -88.5t111.5 -33.5q67 0 124.5 32t95.5 87t48 120q9 63 -11.5 117.5t-65.5 88.5t-112 34t-124 -32.5t-95 -87t-48 -120.5zM83 230q10 58 43.5 106t83.5 76.5t108 28.5t96.5 -30t55.5 -78t8 -103q-9 -57 -42 -105t-83.5 -76.5t-109.5 -28.5
q-58 0 -96.5 30t-55 77.5t-8.5 102.5zM414 577q-2 -9 4 -16t15 -8q10 0 18 7.5t9 16.5t-4.5 16t-15.5 8q-8 0 -17 -7t-9 -17zM220 577q-2 -9 4 -16t15 -8q9 0 17.5 7.5t9.5 16.5t-4.5 16t-15.5 8q-8 0 -17 -7t-9 -17z" />
    <glyph glyph-name="omacron" unicode="&#x14d;" horiz-adv-x="537" 
d="M53 230q-9 -62 11 -117t65.5 -88.5t111.5 -33.5q67 0 124.5 32t95.5 87t48 120q9 63 -11.5 117.5t-65.5 88.5t-112 34t-124 -32.5t-95 -87t-48 -120.5zM83 230q10 58 43.5 106t83.5 76.5t108 28.5t96.5 -30t55.5 -78t8 -103q-9 -57 -42 -105t-83.5 -76.5t-109.5 -28.5
q-58 0 -96.5 30t-55 77.5t-8.5 102.5zM165 544h340l4 29h-339z" />
    <glyph glyph-name="obreve" unicode="&#x14f;" horiz-adv-x="537" 
d="M53 230q-9 -62 11 -117t65.5 -88.5t111.5 -33.5q67 0 124.5 32t95.5 87t48 120q9 63 -11.5 117.5t-65.5 88.5t-112 34t-124 -32.5t-95 -87t-48 -120.5zM83 230q10 58 43.5 106t83.5 76.5t108 28.5t96.5 -30t55.5 -78t8 -103q-9 -57 -42 -105t-83.5 -76.5t-109.5 -28.5
q-58 0 -96.5 30t-55 77.5t-8.5 102.5zM202 670q-2 -36 10.5 -68t42.5 -51.5t78 -19.5q49 0 85 19.5t59.5 51t32.5 67.5h-27q-9 -28 -29 -54t-49.5 -42t-69.5 -16q-38 0 -62.5 16t-35 42t-7.5 55h-28z" />
    <glyph glyph-name="ohungarumlaut" unicode="&#x151;" horiz-adv-x="537" 
d="M276 530l147 202l-31 10l-137 -204zM394 530l149 202l-32 10l-137 -204zM59 230q-8 -63 13 -117.5t67 -88t112 -33.5q67 0 123.5 32t94 87t46.5 120q9 63 -12.5 117.5t-67.5 88.5t-112 34q-67 0 -124 -32.5t-94 -87t-46 -120.5zM89 230q9 58 42 106t82 76.5t107 28.5
t97.5 -30t57 -77.5t10.5 -103.5q-9 -57 -41.5 -105t-82 -76.5t-108.5 -28.5q-57 0 -96.5 30t-57.5 77.5t-10 102.5z" />
    <glyph glyph-name="p" unicode="p" 
d="M40 -219l117 679h-30l-118 -679h31zM505 230q9 64 -8 118.5t-58.5 88t-105.5 33.5q-47 0 -86 -20.5t-68.5 -55t-49 -77t-26.5 -87.5q-6 -42 -0.5 -84t23.5 -77t50 -56.5t78 -21.5q64 -1 117.5 31t89 87t44.5 121zM475 230q-9 -58 -40.5 -106.5t-79 -76.5t-103.5 -27
q-39 1 -66.5 19.5t-45 49.5t-23 67.5t-0.5 73.5q7 40 25.5 77.5t46.5 67.5t63 48t74 18q56 1 92 -29t50.5 -78t6.5 -104z" />
    <glyph glyph-name="q" unicode="q" 
d="M364 -219h29l118 679h-30zM53 230q-9 -63 8 -118t58.5 -88t104.5 -33q47 0 86 20.5t69.5 54.5t49.5 76.5t26 87.5q6 42 0.5 84t-23.5 77t-49.5 56.5t-78.5 22.5q-64 1 -117 -31.5t-88.5 -87t-45.5 -121.5zM83 230q10 58 41.5 106.5t79 77t102.5 27.5q39 -1 67 -20t45 -50
t23 -67.5t0 -73.5q-7 -39 -25.5 -76.5t-46.5 -67.5t-63 -48t-74 -18q-56 0 -92 29.5t-50 77.5t-7 103z" />
    <glyph glyph-name="r" unicode="r" horiz-adv-x="296" 
d="M162 460h-30l-80 -460h30zM314 420l21 25q-15 10 -31 17t-34 8q-44 1 -75.5 -27t-51 -72t-28.5 -90h15q7 37 23 74.5t42.5 62t65.5 23.5q15 -1 28 -6.5t25 -14.5z" />
    <glyph glyph-name="racute" unicode="&#x155;" horiz-adv-x="296" 
d="M162 460h-30l-80 -460h30zM314 420l21 25q-15 10 -31 17t-34 8q-44 1 -75.5 -27t-51 -72t-28.5 -90h15q7 37 23 74.5t42.5 62t65.5 23.5q15 -1 28 -6.5t25 -14.5zM403 684l-25 18l-186 -158l14 -13z" />
    <glyph glyph-name="uni0157" unicode="&#x157;" horiz-adv-x="296" 
d="M162 460h-30l-80 -460h30zM314 420l21 25q-15 10 -31 17t-34 8q-44 1 -75.5 -27t-51 -72t-28.5 -90h15q7 37 23 74.5t42.5 62t65.5 23.5q15 -1 28 -6.5t25 -14.5zM63 -61l-141 -253l20 -7l151 247z" />
    <glyph glyph-name="rcaron" unicode="&#x159;" horiz-adv-x="296" 
d="M162 460h-30l-80 -460h30zM314 420l21 25q-15 10 -31 17t-34 8q-44 1 -75.5 -27t-51 -72t-28.5 -90h15q7 37 23 74.5t42.5 62t65.5 23.5q15 -1 28 -6.5t25 -14.5zM250 564l-114 123l-23 -17l134 -139l178 138l-18 18z" />
    <glyph glyph-name="uni0213" unicode="&#x213;" horiz-adv-x="296" 
d="M162 460h-30l-80 -460h30zM314 420l21 25q-15 10 -31 17t-34 8q-44 1 -75.5 -27t-51 -72t-28.5 -90h15q7 37 23 74.5t42.5 62t65.5 23.5q15 -1 28 -6.5t25 -14.5zM94 545q11 36 34 68t59.5 51.5t85.5 19.5q48 0 77.5 -20t42 -51.5t7.5 -68.5h-24q2 30 -9 56t-35.5 42
t-63.5 16q-40 0 -69.5 -16.5t-48.5 -42t-28 -54.5h-28z" />
    <glyph glyph-name="s" unicode="s" horiz-adv-x="391" 
d="M68 134l-26 -12q4 -32 20 -62.5t46 -49.5t77 -19q41 0 74.5 17t54.5 46.5t24 67.5q4 37 -12 61t-42.5 40t-57.5 28q-29 10 -52.5 22.5t-36 32t-9.5 51.5q6 40 37 62.5t73 22.5q47 -1 71.5 -25.5t37.5 -58.5l24 14q-13 40 -44 68t-87 29q-34 0 -65 -13.5t-51.5 -39
t-24.5 -62.5q-4 -39 10.5 -63t41 -39t57.5 -26q28 -10 52 -23.5t38 -33t10 -49.5q-5 -45 -39 -73.5t-81 -28.5q-40 1 -65 17.5t-37.5 43t-17.5 55.5z" />
    <glyph glyph-name="sacute" unicode="&#x15b;" horiz-adv-x="391" 
d="M59 151l-28 -13q3 -37 17 -71t43 -55t76 -21q40 0 75 15.5t58 45t28 69.5q5 34 -9 58t-39.5 41t-55.5 28q-28 10 -53 22.5t-38.5 32.5t-7.5 52q6 40 41 62t76 22q43 0 66 -24t34 -57l27 13q-11 42 -41 69.5t-83 28.5q-35 0 -67.5 -14t-54.5 -39t-28 -60q-6 -38 7.5 -62.5
t40 -39.5t57.5 -28q22 -7 40.5 -16.5t32.5 -21.5t21 -29.5t3 -39.5q-5 -30 -23 -52.5t-45 -35t-58 -12.5q-41 1 -64.5 20t-34 49.5t-13.5 62.5zM442 684l-26 18l-187 -158l16 -13z" />
    <glyph glyph-name="scircumflex" unicode="&#x15d;" horiz-adv-x="391" 
d="M59 151l-28 -13q3 -37 17 -71t43 -55t76 -21q40 0 75 15.5t58 45t28 69.5q5 34 -9 58t-39.5 41t-55.5 28q-28 10 -53 22.5t-38.5 32.5t-7.5 52q6 40 41 62t76 22q43 0 66 -24t34 -57l27 13q-11 42 -41 69.5t-83 28.5q-35 0 -67.5 -14t-54.5 -39t-28 -60q-6 -38 7.5 -62.5
t40 -39.5t57.5 -28q22 -7 40.5 -16.5t32.5 -21.5t21 -29.5t3 -39.5q-5 -30 -23 -52.5t-45 -35t-58 -12.5q-41 1 -64.5 20t-34 49.5t-13.5 62.5zM278 653l116 -123l21 16l-132 141l-180 -139l18 -17z" />
    <glyph glyph-name="scedilla" unicode="&#x15f;" horiz-adv-x="391" 
d="M58 152l-27 -14q6 -37 20 -70.5t43 -55t76 -21.5q39 0 73 16t57 45.5t28 68.5q5 35 -8.5 59.5t-39.5 41t-56 27.5q-28 11 -53 23t-38.5 32t-8.5 52q7 41 42.5 62.5t75.5 21.5q43 -1 66 -24.5t34 -57.5l27 14q-12 41 -41.5 68.5t-82.5 28.5q-35 0 -67.5 -13.5t-54.5 -38.5
t-28 -61q-6 -39 7.5 -63.5t39.5 -39.5t58 -28q28 -9 52 -22.5t37 -33.5t8 -50t-23 -52.5t-44.5 -34.5t-56.5 -12q-40 1 -63 20.5t-35 49.5t-17 62zM171 15l-81 -110q18 9 38 16.5t39 6.5q15 -1 26.5 -8t17.5 -19t3 -29q-2 -21 -17 -37t-35.5 -25t-41.5 -9t-36 8.5t-31 22.5
l-16 -16q19 -18 37 -27.5t44 -9.5q27 0 53.5 11t45 32.5t21.5 49.5q4 32 -14.5 52.5t-45.5 21.5q-16 1 -27.5 -4t-25.5 -12l73 85h-27z" />
    <glyph glyph-name="scaron" unicode="&#x161;" horiz-adv-x="391" 
d="M59 151l-28 -13q3 -37 17 -71t43 -55t76 -21q40 0 75 15.5t58 45t28 69.5q5 34 -9 58t-39.5 41t-55.5 28q-28 10 -53 22.5t-38.5 32.5t-7.5 52q6 40 41 62t76 22q43 0 66 -24t34 -57l27 13q-11 42 -41 69.5t-83 28.5q-35 0 -67.5 -14t-54.5 -39t-28 -60q-6 -38 7.5 -62.5
t40 -39.5t57.5 -28q22 -7 40.5 -16.5t32.5 -21.5t21 -29.5t3 -39.5q-5 -30 -23 -52.5t-45 -35t-58 -12.5q-41 1 -64.5 20t-34 49.5t-13.5 62.5zM261 564l-114 123l-23 -17l133 -139l180 138l-18 18z" />
    <glyph glyph-name="uni0219" unicode="&#x219;" horiz-adv-x="391" 
d="M59 151l-28 -13q3 -37 17 -71t43 -55t76 -21q40 0 75 15.5t58 45t28 69.5q5 34 -9 58t-39.5 41t-55.5 28q-28 10 -53 22.5t-38.5 32.5t-7.5 52q6 40 41 62t76 22q43 0 66 -24t34 -57l27 13q-11 42 -41 69.5t-83 28.5q-35 0 -67.5 -14t-54.5 -39t-28 -60q-6 -38 7.5 -62.5
t40 -39.5t57.5 -28q22 -7 40.5 -16.5t32.5 -21.5t21 -29.5t3 -39.5q-5 -30 -23 -52.5t-45 -35t-58 -12.5q-41 1 -64.5 20t-34 49.5t-13.5 62.5zM189 -71l-142 -253l21 -7l150 247z" />
    <glyph glyph-name="t" unicode="t" horiz-adv-x="198" 
d="M65 460l-5 -29h176l5 29h-176zM163 620l-106 -620h30l107 620h-31z" />
    <glyph glyph-name="uni0163" unicode="&#x163;" horiz-adv-x="198" 
d="M59 5l-81 -110q18 10 38 17t39 6q15 -1 26.5 -8t17.5 -19t4 -29q-3 -21 -18 -37t-35 -24.5t-41 -8.5t-36.5 8t-30.5 22l-17 -15q19 -19 37 -28.5t45 -9.5t53 11t44.5 32.5t21.5 49.5q4 32 -14.5 52.5t-45.5 21.5q-15 1 -27 -4t-26 -12l73 85h-27zM65 460l-5 -29h176l5 29
h-176zM163 620l-106 -620h30l107 620h-31z" />
    <glyph glyph-name="tcaron" unicode="&#x165;" horiz-adv-x="292" 
d="M63 460l-5 -29h176l5 29h-176zM163 620l-106 -620h30l107 620h-31zM379 784l-142 -252l21 -8l150 248z" />
    <glyph glyph-name="uni021B" unicode="&#x21b;" horiz-adv-x="198" 
d="M65 460l-5 -29h176l5 29h-176zM163 620l-106 -620h30l107 620h-31zM95 -60l-141 -253l20 -7l151 247z" />
    <glyph glyph-name="u" unicode="u" horiz-adv-x="475" 
d="M109 159l53 301h-30l-53 -304q-6 -44 1.5 -81.5t33.5 -60.5t74 -23q59 -1 101.5 32t65.5 83l-17 -106h30l80 460h-30l-51 -287q-6 -39 -30.5 -74t-60.5 -57t-79 -22q-41 1 -61.5 20.5t-25.5 51t-1 67.5z" />
    <glyph glyph-name="ugrave" unicode="&#xf9;" horiz-adv-x="475" 
d="M338 0h30l80 460h-30zM109 159l53 301h-30l-53 -304q-5 -44 2.5 -81.5t33 -60.5t73.5 -23q51 0 92 26.5t68 69.5t37 92h-15q-10 -40 -33.5 -76.5t-59 -59.5t-80.5 -23q-41 0 -61.5 19.5t-25.5 51.5t-1 68zM188 698l145 -154l19 11l-134 160z" />
    <glyph glyph-name="uacute" unicode="&#xfa;" horiz-adv-x="475" 
d="M338 0h30l80 460h-30zM109 159l53 301h-30l-53 -304q-5 -44 2.5 -81.5t33 -60.5t73.5 -23q51 0 92 26.5t68 69.5t37 92h-15q-10 -40 -33.5 -76.5t-59 -59.5t-80.5 -23q-41 0 -61.5 19.5t-25.5 51.5t-1 68zM471 697l-25 18l-186 -158l15 -13z" />
    <glyph glyph-name="ucircumflex" unicode="&#xfb;" horiz-adv-x="475" 
d="M338 0h30l80 460h-30zM109 159l53 301h-30l-53 -304q-5 -44 2.5 -81.5t33 -60.5t73.5 -23q51 0 92 26.5t68 69.5t37 92h-15q-10 -40 -33.5 -76.5t-59 -59.5t-80.5 -23q-41 0 -61.5 19.5t-25.5 51.5t-1 68zM326 666l114 -123l22 16l-132 141l-179 -139l16 -17z" />
    <glyph glyph-name="udieresis" unicode="&#xfc;" horiz-adv-x="475" 
d="M338 0h30l80 460h-30zM109 159l53 301h-30l-53 -304q-5 -44 2.5 -81.5t33 -60.5t73.5 -23q51 0 92 26.5t68 69.5t37 92h-15q-10 -40 -33.5 -76.5t-59 -59.5t-80.5 -23q-41 0 -61.5 19.5t-25.5 51.5t-1 68zM369 575q-2 -9 4 -16.5t16 -8.5q9 0 17.5 7.5t8.5 16.5
q1 9 -4.5 16.5t-14.5 7.5t-18 -7t-9 -16zM201 575q0 -9 6 -16.5t15 -8.5q9 0 17.5 7.5t8.5 16.5q2 9 -4 16.5t-15 7.5t-17.5 -7t-10.5 -16z" />
    <glyph glyph-name="utilde" unicode="&#x169;" horiz-adv-x="475" 
d="M338 0h31l79 460h-30zM109 159l53 301h-30l-53 -304q-5 -44 2.5 -81.5t33.5 -60.5t74 -23q50 0 90 26.5t66.5 69.5t36.5 92h-13q-9 -40 -33 -76.5t-59.5 -59.5t-80.5 -23q-40 0 -60.5 19.5t-25.5 51.5t-1 68zM169 543l21 -12q6 17 20 33.5t42 16.5q21 0 36.5 -11.5
t32.5 -23t40 -11.5q19 0 34 7.5t28 21t22 28.5l-17 16q-14 -19 -28.5 -33t-35.5 -14q-23 -1 -39 10.5t-32.5 23.5t-40.5 12q-21 0 -37.5 -9.5t-27.5 -24t-18 -30.5z" />
    <glyph glyph-name="umacron" unicode="&#x16b;" horiz-adv-x="475" 
d="M338 0h31l79 460h-30zM109 159l53 301h-30l-53 -304q-5 -44 2.5 -81.5t33.5 -60.5t74 -23q50 0 90 26.5t66.5 69.5t36.5 92h-13q-9 -40 -33 -76.5t-59.5 -59.5t-80.5 -23q-40 0 -60.5 19.5t-25.5 51.5t-1 68zM131 530h341l4 29h-340z" />
    <glyph glyph-name="ubreve" unicode="&#x16d;" horiz-adv-x="475" 
d="M338 0h31l79 460h-30zM109 159l53 301h-30l-53 -304q-5 -44 2.5 -81.5t33.5 -60.5t74 -23q50 0 90 26.5t66.5 69.5t36.5 92h-13q-9 -40 -33 -76.5t-59.5 -59.5t-80.5 -23q-40 0 -60.5 19.5t-25.5 51.5t-1 68zM171 670q-2 -36 10.5 -68t42.5 -51.5t78 -19.5
q49 0 85.5 19.5t59 51t32.5 67.5h-28q-9 -28 -28.5 -54t-49 -42t-69.5 -16q-39 0 -63.5 16t-34.5 42t-8 55h-27z" />
    <glyph glyph-name="uring" unicode="&#x16f;" horiz-adv-x="475" 
d="M338 0h30l80 460h-30zM109 159l53 301h-30l-53 -304q-5 -44 2.5 -81.5t33 -60.5t73.5 -23q51 0 91 26.5t66.5 69.5t36.5 92h-12q-10 -40 -33.5 -76.5t-59 -59.5t-80.5 -23q-41 0 -61.5 19.5t-25.5 51.5t-1 68zM218 631q-4 -27 6 -49.5t31 -36.5t47 -14q27 0 51.5 13
t42 35.5t21.5 50.5q4 27 -6 49.5t-30 36.5t-47 14q-26 0 -51 -13.5t-42.5 -35.5t-22.5 -50zM240 630q3 22 17 40t34.5 29t41.5 10q30 -1 48.5 -24t14.5 -55q-3 -21 -17 -39t-34.5 -28.5t-40.5 -10.5q-31 1 -49.5 24t-14.5 54z" />
    <glyph glyph-name="uhungarumlaut" unicode="&#x171;" horiz-adv-x="475" 
d="M238 530l147 202l-31 10l-137 -204zM356 530l149 202l-32 10l-137 -204zM109 159l53 301h-30l-53 -304q-6 -44 1.5 -81.5t33.5 -60.5t74 -23q59 -1 101.5 32t65.5 83l-17 -106h30l80 460h-30l-51 -287q-6 -39 -30.5 -74t-60.5 -57t-79 -22q-41 1 -61.5 20.5t-25.5 51
t-1 67.5z" />
    <glyph glyph-name="uogonek" unicode="&#x173;" horiz-adv-x="475" 
d="M367 -160q-14 -12 -35 -22t-47 -9q-30 0 -50 16t-17 47q4 30 29 53.5t58 42t63 32.5l-15 14q-34 -16 -70.5 -36.5t-63 -47.5t-31.5 -63q-5 -40 21.5 -63t71.5 -23q31 -1 56 11.5t42 27.5zM109 159l53 301h-30l-53 -304q-6 -44 1.5 -81.5t33.5 -60.5t74 -23
q59 -1 101.5 32t65.5 83l-17 -106h30l80 460h-30l-51 -287q-6 -39 -30.5 -74t-60.5 -57t-79 -22q-41 1 -61.5 20.5t-25.5 51t-1 67.5z" />
    <glyph glyph-name="v" unicode="v" horiz-adv-x="414" 
d="M61 460l125 -481l276 481h-35l-230 -412l-103 412h-33z" />
    <glyph glyph-name="w" unicode="w" horiz-adv-x="619" 
d="M64 460l74 -481l209 420l71 -420l242 481h-34l-196 -399l-70 421l-206 -420l-58 398h-32z" />
    <glyph glyph-name="wcircumflex" unicode="&#x175;" horiz-adv-x="619" 
d="M64 460l74 -482l209 421l71 -421l243 482h-35l-196 -399l-70 421l-206 -420l-58 398h-32zM393 664l116 -122l20 16l-133 140l-178 -138l17 -17z" />
    <glyph glyph-name="wgrave" unicode="&#x1e81;" horiz-adv-x="619" 
d="M369 542l18 12l-137 160l-30 -17zM64 460l74 -481l209 420l71 -420l242 481h-34l-196 -399l-70 421l-206 -420l-58 398h-32z" />
    <glyph glyph-name="wacute" unicode="&#x1e83;" horiz-adv-x="619" 
d="M374 542l201 155l-30 19l-190 -160zM64 460l74 -481l209 420l71 -420l242 481h-34l-196 -399l-70 421l-206 -420l-58 398h-32z" />
    <glyph glyph-name="wdieresis" unicode="&#x1e85;" horiz-adv-x="619" 
d="M448 567q-1 -9 5 -16.5t15 -7.5q10 0 18 7.5t9 15.5q1 10 -5 17t-16 7q-8 1 -16.5 -6.5t-9.5 -16.5zM254 567q-1 -9 5 -16.5t15 -7.5q10 0 18 7.5t9 15.5q1 10 -5 17t-16 7q-8 1 -16.5 -6.5t-9.5 -16.5zM64 460l74 -481l209 420l71 -420l242 481h-34l-196 -399l-70 421
l-206 -420l-58 398h-32z" />
    <glyph glyph-name="uni1E87" unicode="&#x1e87;" horiz-adv-x="619" 
d="M352 566q-1 -10 6 -17t16 -7q10 0 17.5 7t7.5 17t-6 17t-16 7t-17.5 -7t-7.5 -17zM64 460l74 -481l209 420l71 -420l242 481h-34l-196 -399l-70 421l-206 -420l-58 398h-32z" />
    <glyph glyph-name="uni1E89" unicode="&#x1e89;" horiz-adv-x="619" 
d="M241 -105q-1 -10 6 -17t16 -7q10 0 17.5 7t7.5 17t-6 17t-16 7t-17.5 -7t-7.5 -17zM64 460l74 -481l209 420l71 -420l242 481h-34l-196 -399l-70 421l-206 -420l-58 398h-32z" />
    <glyph glyph-name="x" unicode="x" horiz-adv-x="380" 
d="M381 459l-168 -198l-108 199h-35l123 -221l-205 -239h38l181 213l115 -213h34l-129 236l191 223h-37z" />
    <glyph glyph-name="y" unicode="y" horiz-adv-x="416" 
d="M463 460h-35l-244 -414l17 -3l-109 417h-34l116 -425l-154 -254h35z" />
    <glyph glyph-name="yacute" unicode="&#xfd;" horiz-adv-x="416" 
d="M463 460h-35l-244 -414l17 -3l-107 417h-36l116 -425l-154 -254h35zM444 690l-26 17l-186 -158l15 -12z" />
    <glyph glyph-name="ydieresis" unicode="&#xff;" horiz-adv-x="416" 
d="M463 460h-35l-244 -414l17 -3l-107 417h-36l116 -425l-154 -254h35zM338 568q0 -9 5.5 -16t14.5 -8q9 0 17.5 7.5t9.5 16.5t-5 16.5t-15 7.5t-17 -7t-10 -17zM172 568q-1 -9 4.5 -16t14.5 -8q10 0 18.5 7.5t9.5 16.5t-5 16.5t-15 7.5t-17.5 -7t-9.5 -17z" />
    <glyph glyph-name="ycircumflex" unicode="&#x177;" horiz-adv-x="416" 
d="M463 460h-35l-245 -414l18 -3l-108 417h-35l116 -425l-154 -254h35zM289 652l116 -122l20 16l-133 140l-178 -138l17 -17z" />
    <glyph glyph-name="ygrave" unicode="&#x1ef3;" horiz-adv-x="416" 
d="M252 530l18 12l-137 160l-30 -17zM463 460h-35l-244 -414l17 -3l-109 417h-34l116 -425l-154 -254h35z" />
    <glyph glyph-name="z" unicode="z" horiz-adv-x="426" 
d="M391 431l-401 -431h385l6 30h-328l400 430h-362l-4 -29h304z" />
    <glyph glyph-name="zacute" unicode="&#x17a;" horiz-adv-x="426" 
d="M391 431l-401 -431h385l6 29l-328 1l400 430h-362l-4 -29h304zM458 690l-25 17l-187 -158l15 -12z" />
    <glyph glyph-name="zdotaccent" unicode="&#x17c;" horiz-adv-x="426" 
d="M391 431l-401 -431h385l6 29l-328 1l400 430h-362l-4 -29h304zM270 584q-1 -9 4.5 -16t15.5 -8q9 0 17.5 7.5t9.5 16.5t-5 16.5t-15 7.5t-17.5 -7t-9.5 -17z" />
    <glyph glyph-name="zcaron" unicode="&#x17e;" horiz-adv-x="426" 
d="M289 564l-115 123l-22 -17l133 -139l179 138l-18 18zM392 431l-402 -431h385l6 29l-329 1l401 430h-362l-4 -29h305z" />
    <glyph glyph-name="germandbls" unicode="&#xdf;" horiz-adv-x="540" 
d="M302 -11q57 0 102.5 31t72.5 82.5t27 114.5q0 48 -15.5 76.5t-38 44t-45.5 26t-38.5 23t-15.5 34.5t16.5 37.5t40 31.5t47.5 37t40.5 51t16.5 75q0 44 -20 75.5t-53.5 48.5t-77.5 17q-56 0 -101 -28t-73.5 -75t-38.5 -104l-99 -588h31l100 583q8 52 33 93.5t62 66
t82 24.5q53 0 88 -31t35 -84q0 -40 -16.5 -67t-40 -47.5t-48 -37.5t-41 -35t-16.5 -42q0 -29 16 -45t38.5 -27.5t45.5 -26t38.5 -40.5t15.5 -70q0 -53 -22 -97t-60 -70.5t-87 -26.5q-36 0 -71.5 14t-59.5 38l-19 -22q16 -18 40 -31.5t52 -21t57 -7.5z" />
    <glyph glyph-name="ae" unicode="&#xe6;" horiz-adv-x="818" 
d="M165 -10q73 0 125 44.5t75 123.5h-8q5 -82 49.5 -125t123.5 -43q67 0 127.5 30.5t101.5 86.5l-24 16q-38 -50 -92 -77t-112 -27q-56 0 -92 27t-49.5 74t-3.5 110l-10 -7h408q3 10 5.5 17t3.5 18q7 61 -13.5 109t-62 75.5t-96.5 27.5q-52 0 -100.5 -22.5t-84.5 -60.5
t-55 -88l9 5q16 83 -11.5 124.5t-96.5 41.5q-44 0 -89.5 -16.5t-83.5 -47.5l15 -24q24 20 50 33.5t53.5 20t53.5 6.5q53 0 76 -32t13 -93l-14 -85l15 1q-27 25 -61 37t-76 12q-57 0 -102.5 -19.5t-73 -54t-33.5 -80.5q-7 -58 31 -98t109 -40zM170 18q-59 0 -90 31t-24 82
q5 38 29.5 66.5t63.5 44.5t86 16q40 0 72.5 -11.5t51.5 -31.5l-4 12l-3 -66l5 35q-22 -86 -70.5 -132t-116.5 -46zM386 237q11 58 44.5 104.5t81 73.5t102.5 27q51 0 86 -24.5t51 -66.5t9 -95q-2 -13 -4 -17l12 11h-391z" />
    <glyph glyph-name="eth" unicode="&#xf0;" horiz-adv-x="548" 
d="M245 -10q52 0 99.5 22t84.5 60.5t58 87t20 102.5q0 27 -5.5 54t-19.5 59.5t-39 77t-64.5 106.5t-94.5 148l-20 -20q40 -60 68 -103t48.5 -77.5t37 -68t35.5 -75.5l12 1q-30 39 -71.5 59t-94.5 20q-46 0 -90 -20.5t-79.5 -56t-57 -81.5t-21.5 -98q0 -60 23.5 -104.5
t67 -68.5t103.5 -24zM245 20q-73 0 -118 45.5t-45 121.5q0 45 19 86t51 74t71 52t80 19q56 0 94.5 -22t58 -59t19.5 -82t-19 -87t-51.5 -75.5t-73.5 -53t-86 -19.5zM232 515l271 109l-8 21l-270 -109z" />
    <glyph glyph-name="oslash" unicode="&#xf8;" horiz-adv-x="530" 
d="M53 230q-9 -62 11 -117t65.5 -88.5t111.5 -33.5q67 0 124.5 32t95.5 87t48 120q9 63 -11.5 117.5t-65.5 88.5t-112 34t-124 -32.5t-95 -87t-48 -120.5zM83 230q10 58 43.5 106t83.5 76.5t108 28.5t96.5 -30t55.5 -78t8 -103q-9 -57 -42 -105t-83.5 -76.5t-109.5 -28.5
q-58 0 -96.5 30t-55 77.5t-8.5 102.5zM497 495l-469 -523l19 -10l468 522z" />
    <glyph glyph-name="thorn" unicode="&#xfe;" 
d="M40 -219l171 999h-30l-171 -999h30zM505 230q9 64 -8 118.5t-58.5 88t-105.5 33.5q-47 0 -86 -20.5t-68.5 -55t-49 -77t-26.5 -87.5q-6 -42 -0.5 -84t23.5 -77t50 -56.5t78 -21.5q64 -1 117.5 31t89 87t44.5 121zM475 230q-9 -58 -40.5 -106.5t-79 -76.5t-103.5 -27
q-39 1 -66.5 19.5t-45 49.5t-23 67.5t-0.5 73.5q7 40 25.5 77.5t46.5 67.5t63 48t74 18q56 1 92 -29t50.5 -78t6.5 -104z" />
    <glyph glyph-name="dcroat" unicode="&#x111;" 
d="M368 636h291l6 29h-292zM535 780l-134 -780h30l134 780h-30zM53 230q-9 -64 8 -118.5t58.5 -87.5t104.5 -33q46 0 85 20t69.5 53.5t50 76.5t26.5 89q6 43 0.5 85.5t-24 77t-50.5 55.5t-77 22q-64 1 -117 -31.5t-88.5 -87t-45.5 -121.5zM83 230q10 58 41.5 106.5t79 77
t102.5 27.5q40 -1 67.5 -20.5t44.5 -50.5t23 -68t0 -72q-7 -38 -25 -75t-46 -67.5t-63 -49t-75 -18.5q-55 0 -91 29.5t-50.5 77.5t-7.5 103z" />
    <glyph glyph-name="hbar" unicode="&#x127;" horiz-adv-x="509" 
d="M217 780h-31l-134 -780h30zM392 308l-53 -308h29l55 311q5 43 -4 79t-35 58t-73 22q-51 0 -90.5 -27t-65.5 -70t-37 -92h12q10 40 34 77t60 60.5t80 22.5q40 0 60.5 -19t26.5 -48.5t1 -65.5zM93 671h303l5 29h-304z" />
    <glyph glyph-name="dotlessi" unicode="&#x131;" horiz-adv-x="204" 
d="M139 460l-79 -460h30l79 460h-30z" />
    <glyph glyph-name="ij" unicode="&#x133;" horiz-adv-x="495" 
d="M412 682q-2 -9 4 -16t15 -7t17 7t9 16t-4 16t-15 7q-9 0 -17.5 -7t-8.5 -16zM128 -150l-21 -24q12 -16 30.5 -30t46.5 -15q41 -1 69.5 19.5t45 54t21.5 69.5l92 536h-30l-92 -533q-4 -26 -16 -53.5t-33 -45.5t-52 -17q-13 1 -24 8t-20 16.5t-17 14.5zM169 682
q-1 -9 4.5 -16t14.5 -7q10 0 17.5 7t9.5 16q0 9 -5 16t-15 7q-9 0 -17 -7t-9 -16zM139 460l-79 -460h30l79 460h-30z" />
    <glyph glyph-name="kgreenlandic" unicode="&#x138;" horiz-adv-x="380" 
d="M126 460l-79 -460h30l80 460h-31zM367 459l-254 -187l196 -272h38l-196 269l257 190h-41z" />
    <glyph glyph-name="ldot" unicode="&#x140;" horiz-adv-x="359" 
d="M186 780l-134 -780h30l134 780h-30zM260 402q0 -6 2.5 -11.5t7 -9t10.5 -3.5q7 0 12.5 3t10 9t4.5 11q1 7 -1.5 12t-7 8.5t-11.5 3.5q-5 1 -11 -2.5t-10.5 -9t-5.5 -11.5z" />
    <glyph glyph-name="lslash" unicode="&#x142;" horiz-adv-x="175" 
d="M33 374l220 148l-7 22l-221 -148zM179 780l-134 -780h30l134 780h-30z" />
    <glyph glyph-name="napostrophe" unicode="&#x149;" horiz-adv-x="603" 
d="M255 460h-30l-80 -460h30zM485 308l-54 -308h30l54 311q6 43 -2.5 79t-34.5 58t-73 22q-51 0 -92 -27t-67.5 -70t-36.5 -92h14q10 40 34 77t59.5 60.5t79.5 22.5q41 0 61.5 -19t26.5 -48.5t1 -65.5zM248 699l-121 -228h24l134 228h-37z" />
    <glyph glyph-name="eng" unicode="&#x14b;" horiz-adv-x="490" 
d="M217 -220q56 0 92.5 37.5t48.5 106.5l64 387q13 78 -16.5 118.5t-97.5 40.5q-54 0 -102 -34t-73 -90l19 114h-31l-77 -460h31l47 280q8 45 34 81.5t63 58t78 21.5q58 0 81.5 -33.5t12.5 -99.5l-63 -381q-10 -56 -36.5 -86t-67.5 -30q-38 0 -62 39l-23 -24q13 -22 33 -34
t45 -12z" />
    <glyph glyph-name="oe" unicode="&#x153;" horiz-adv-x="891" 
d="M834 250l-4 -20l30 -6q2 6 3.5 11.5t2.5 11.5q8 58 -11 109t-59.5 82.5t-98.5 31.5q-56 0 -105 -25.5t-83.5 -69t-51.5 -96.5q-4 -12 -7 -24t-5 -25q-8 -59 7.5 -114t56.5 -89.5t106 -35.5q48 0 87 15t72.5 41t60.5 58l-23 18q-34 -43 -82.5 -73.5t-111.5 -29.5
q-58 1 -93.5 31t-48.5 78.5t-6 102.5l1 9q12 51 42 97t76 75.5t104 28.5q54 -1 88 -29.5t47.5 -72.5t5.5 -90zM460 223h400l-1 27h-395zM53 230q-9 -63 7.5 -117.5t57.5 -88t104 -33.5q60 0 110.5 32.5t84.5 87t43 119.5q8 63 -7.5 117.5t-53.5 88.5t-99 34
q-62 1 -114.5 -31.5t-87.5 -87t-45 -121.5zM83 230q10 58 40.5 106.5t77.5 77t102 27.5q51 -1 83.5 -31.5t46 -78.5t5.5 -101q-8 -56 -39 -104t-75 -77t-96 -29q-55 0 -90 29.5t-48.5 77.5t-6.5 103z" />
    <glyph glyph-name="tbar" unicode="&#x167;" horiz-adv-x="240" 
d="M35 251h194l6 29h-195zM65 460l-5 -29h176l5 29h-176zM163 620l-106 -620h30l107 620h-31z" />
    <glyph glyph-name="uni0237" unicode="&#x237;" horiz-adv-x="195" 
d="M-124 -150l-21 -24q12 -16 30 -30t46 -15q42 -1 70 19.5t44.5 54t22.5 69.5l92 536h-30l-92 -533q-4 -26 -16 -53.5t-33 -45t-53 -17.5q-21 1 -35.5 12.5t-24.5 26.5z" />
    <glyph glyph-name="uni03BC" unicode="&#x3bc;" horiz-adv-x="490" 
d="M162 460h-31l-133 -779h29l66 377q8 -29 30.5 -48t64.5 -19q58 -1 101 32t66 81l-17 -104h30l80 460h-30l-52 -287q-6 -40 -30 -75.5t-60 -56.5t-79 -21q-39 0 -60 17.5t-27.5 47t-3.5 64.5z" />
    <glyph glyph-name="pi" unicode="&#x3c0;" horiz-adv-x="476" 
d="M136 444l-76 -444h30l77 444h-31zM81 460l-6 -29h409l5 29h-408zM379 444l-55 -323q-4 -32 -4 -55t5 -37.5t19.5 -23.5t38.5 -13l5 30q-23 6 -31 18t-7.5 33t4.5 54l55 317h-30z" />
    <glyph glyph-name="uni0430" unicode="&#x430;" horiz-adv-x="471" 
d="M62 135q7 40 33 67t63 41.5t77 14.5q42 0 73 -12.5t55 -33.5l3 20q-19 19 -50 34.5t-80 15.5q-48 0 -92 -17t-74 -49.5t-38 -80.5q-6 -44 9 -76.5t46 -50t71 -17.5q50 0 89.5 22t66 58t36.5 79l-6 15q-10 -40 -35 -73t-61 -53t-81 -20q-50 0 -81.5 30.5t-23.5 85.5z
M128 383q30 22 68 41t84 18q36 -1 57.5 -17t29.5 -42.5t4 -59.5l-57 -323h30l56 323q4 31 -1 57.5t-20 46.5t-39 31t-57 12q-53 1 -94 -19.5t-74 -43.5z" />
    <glyph glyph-name="uni0431" unicode="&#x431;" horiz-adv-x="530" 
d="M316 441q57 0 98 -28t60.5 -76t9.5 -107q-8 -57 -42.5 -105t-84.5 -76.5t-107 -28.5q-59 0 -95 28t-52.5 71t-16.5 86l-33 30q0 -63 19.5 -119t62.5 -90.5t113 -34.5q68 0 125.5 32.5t95 86.5t46.5 120q10 66 -12.5 120.5t-69.5 87t-113 32.5zM68 213l18 -8q0 48 20 91
t54 75.5t75 51t81 18.5l4 29q-47 0 -91 -20.5t-79 -56.5t-57.5 -82.5t-24.5 -97.5zM53 235l28 -29v50q0 56 17.5 113.5t50 109.5t77.5 91.5t100 59.5q67 25 113 61t67 89h-31q-20 -41 -58 -71t-98 -53q-60 -22 -109 -64.5t-84 -99.5t-54 -123t-19 -134z" />
    <glyph glyph-name="uni0432" unicode="&#x432;" horiz-adv-x="411" 
d="M102 234l-2 -17h130q22 0 44 -4t40 -13t27.5 -26.5t5.5 -45.5q-7 -44 -44 -72t-94 -28h-142l-4 -28l150 1q68 0 111.5 34.5t52.5 89.5q7 44 -13.5 67t-56 32.5t-77.5 9.5h-128zM101 227h121q40 1 77 11.5t62.5 34t31.5 62.5q7 42 -10.5 70t-50.5 41.5t-73 13.5h-119
l-4 -27l121 -1q32 0 58 -11t40 -33t8 -54q-5 -33 -29 -52.5t-54 -28t-57 -9.5h-119zM124 460l-79 -460h30l81 460h-32z" />
    <glyph glyph-name="uni0433" unicode="&#x433;" horiz-adv-x="300" 
d="M128 460l-78 -460h30l75 431h187l5 29h-219z" />
    <glyph glyph-name="uni0453" unicode="&#x453;" horiz-adv-x="300" 
d="M128 460l-78 -460h30l75 431h187l5 29h-219zM407 683l-25 19l-187 -158l16 -13z" />
    <glyph glyph-name="uni0434" unicode="&#x434;" horiz-adv-x="636" 
d="M363 427l114 -413h32l-136 482l-302 -481h35zM537 0l-17 -89h29l22 118h-554l-22 -118h33l16 89h493z" />
    <glyph glyph-name="uni0435" unicode="&#x435;" horiz-adv-x="496" 
d="M78 223h388q2 6 3.5 12.5t2.5 12.5q7 59 -11.5 109t-58.5 81.5t-98 31.5q-52 0 -97 -23t-78 -61.5t-51 -86.5q-7 -16 -11.5 -33t-7.5 -35q-7 -59 9.5 -114.5t56.5 -90.5t101 -35q54 0 93.5 16.5t69.5 43t54 55.5l-23 18q-21 -26 -48 -50t-61.5 -39t-79.5 -15
q-54 1 -87.5 31.5t-46.5 79t-8 101.5l2 9q9 55 39 101t75 73.5t97 26.5q52 0 85.5 -28.5t46.5 -72.5t5 -91h-358z" />
    <glyph glyph-name="uni0450" unicode="&#x450;" horiz-adv-x="496" 
d="M78 223h388q2 6 3.5 12.5t2.5 12.5q7 59 -11.5 109t-58.5 81.5t-98 31.5q-52 0 -97 -23t-78 -61.5t-51 -86.5q-7 -16 -11.5 -33t-7.5 -35q-7 -59 9.5 -114.5t56.5 -90.5t101 -35q54 0 93.5 16.5t69.5 43t54 55.5l-23 18q-21 -26 -48 -50t-61.5 -39t-79.5 -15
q-54 1 -87.5 31.5t-46.5 79t-8 101.5l2 9q9 55 39 101t75 73.5t97 26.5q52 0 85.5 -28.5t46.5 -72.5t5 -91h-358zM189 693l148 -155l17 12l-135 160z" />
    <glyph glyph-name="uni0451" unicode="&#x451;" horiz-adv-x="496" 
d="M78 223h388q2 6 3.5 12.5t2.5 12.5q7 59 -11.5 109t-58.5 81.5t-98 31.5q-52 0 -97 -23t-78 -61.5t-51 -86.5q-7 -16 -11.5 -33t-7.5 -35q-7 -59 9.5 -114.5t56.5 -90.5t101 -35q54 0 93.5 16.5t69.5 43t54 55.5l-23 18q-21 -26 -48 -50t-61.5 -39t-79.5 -15
q-54 1 -87.5 31.5t-46.5 79t-8 101.5l2 9q9 55 39 101t75 73.5t97 26.5q52 0 85.5 -28.5t46.5 -72.5t5 -91h-358zM385 579q0 -9 5.5 -16t14.5 -8q10 0 18 7.5t9 16.5t-4.5 16.5t-15.5 7.5q-9 0 -17 -7t-10 -17zM191 579q0 -9 5.5 -16t14.5 -8q10 0 18 7.5t9 16.5t-4.5 16.5
t-15.5 7.5q-9 0 -17 -7t-10 -17z" />
    <glyph glyph-name="uni0436" unicode="&#x436;" horiz-adv-x="504" 
d="M491 459l-213 -187l155 -272h36l-158 265l220 194h-40zM318 460h-28l-80 -460h29zM114 460h-36l151 -192l-251 -268h40l246 269z" />
    <glyph glyph-name="uni0437" unicode="&#x437;" horiz-adv-x="461" 
d="M252 240q45 1 82.5 11.5t62.5 32.5t32 58q6 38 -10.5 66.5t-49 45t-73.5 16.5q-45 0 -83 -19t-63.5 -51t-35.5 -69h31q9 28 29.5 53.5t51 41.5t69.5 16q33 0 58 -13t38 -35t7 -51q-8 -44 -49 -63t-93 -20zM216 -9q45 0 88 16.5t73.5 48t36.5 76.5q7 43 -14.5 69t-60.5 38
t-85 13l-3 -19q35 -1 68 -10.5t52.5 -31t12.5 -59.5q-5 -36 -31 -61.5t-62.5 -38.5t-72.5 -13q-65 0 -96.5 36.5t-34.5 89.5h-30q1 -66 42 -110t117 -44z" />
    <glyph glyph-name="uni0438" unicode="&#x438;" horiz-adv-x="481" 
d="M448 440l15 57l-405 -476l-15 -57zM160 460h-31l-86 -496l39 47zM463 497l-40 -47l-77 -450h30z" />
    <glyph glyph-name="uni0439" unicode="&#x439;" horiz-adv-x="481" 
d="M448 440l15 57l-405 -476l-15 -57zM160 460h-31l-86 -496l39 47zM463 497l-40 -47l-77 -450h30zM169 692q-2 -37 11 -68.5t43.5 -51t78.5 -19.5q49 0 84.5 19.5t58.5 51t32 67.5l-28 1q-8 -29 -27 -55t-48.5 -42t-69.5 -16q-39 0 -63 16t-35 42t-10 55h-27z" />
    <glyph glyph-name="uni045D" unicode="&#x45d;" horiz-adv-x="481" 
d="M448 441l15 55l-405 -476l-15 -56zM160 460h-31l-86 -496l39 47zM463 497l-40 -47l-77 -450h30zM173 708l146 -155l18 11l-134 161z" />
    <glyph glyph-name="uni043A" unicode="&#x43a;" horiz-adv-x="427" 
d="M126 460l-78 -460h29l81 460h-32zM366 459l-253 -187l196 -272h37l-195 269l258 190h-43z" />
    <glyph glyph-name="uni045C" unicode="&#x45c;" horiz-adv-x="427" 
d="M126 460l-78 -460h29l81 460h-32zM366 459l-253 -187l196 -272h37l-195 269l258 190h-43zM474 701l-26 18l-186 -157l16 -13z" />
    <glyph glyph-name="uni043B" unicode="&#x43b;" horiz-adv-x="494" 
d="M468 460h-336l-52 -300q-8 -55 -31 -89t-62 -42l-5 -28q36 5 62.5 25t43.5 53.5t24 80.5l46 271h274l-74 -431h31z" />
    <glyph glyph-name="uni043C" unicode="&#x43c;" horiz-adv-x="589" 
d="M523 0h34l-31 496l-26 -67zM261 28l-1 -59l255 449l11 78zM260 -32l19 57l-100 471l-14 -75zM-24 0l37 1l169 426l-2 69z" />
    <glyph glyph-name="uni043D" unicode="&#x43d;" horiz-adv-x="500" 
d="M104 230h323l5 29h-324zM449 460l-78 -460h29l81 460h-32zM124 460l-79 -460h30l81 460h-32z" />
    <glyph glyph-name="uni043E" unicode="&#x43e;" horiz-adv-x="530" 
d="M53 230q-9 -63 11 -117.5t65.5 -88t112.5 -33.5t124 32t95 87t48 120q9 63 -11.5 117.5t-65.5 88.5t-112 34q-68 0 -124.5 -32.5t-94.5 -87t-48 -120.5zM84 230q9 58 42.5 106t83.5 76.5t108 28.5t96.5 -30t55.5 -78t8 -103q-9 -57 -42.5 -105t-83.5 -76.5t-109 -28.5
q-58 0 -96.5 30t-55 78t-7.5 102z" />
    <glyph glyph-name="uni043F" unicode="&#x43f;" horiz-adv-x="462" 
d="M441 460h-317l-79 -460h30l75 431h255l-74 -431h31z" />
    <glyph glyph-name="uni0440" unicode="&#x440;" horiz-adv-x="553" 
d="M40 -219l117 679h-30l-118 -679h31zM505 230q9 64 -8 118.5t-58.5 88t-105.5 33.5q-47 0 -86 -20.5t-69 -55t-49 -77t-26 -87.5q-6 -42 -0.5 -84t23.5 -77t50 -56.5t79 -21.5q64 -1 117 31t88.5 87t44.5 121zM475 230q-9 -58 -41 -106.5t-79.5 -76.5t-103.5 -27
q-38 1 -66 20t-45 49.5t-22.5 67.5t-0.5 73q7 40 25.5 77.5t46.5 67.5t63 48t75 18q56 1 91.5 -29t50 -78t6.5 -104z" />
    <glyph glyph-name="uni0441" unicode="&#x441;" horiz-adv-x="464" 
d="M79 230q9 58 42.5 106t83.5 76.5t108 28.5q48 0 85 -20t55 -47l6 38q-22 24 -59.5 41t-84.5 17q-67 0 -124 -32.5t-95 -87t-48 -120.5q-9 -63 11 -117.5t65.5 -88t112.5 -33.5q49 0 90.5 17t70.5 40l5 38q-27 -25 -70 -45.5t-94 -20.5q-58 0 -96.5 30t-55.5 78t-8 102z
" />
    <glyph glyph-name="uni0442" unicode="&#x442;" horiz-adv-x="272" 
d="M56 460l-5 -29h263l5 29h-263zM171 451l-77 -451h29l79 451h-31z" />
    <glyph glyph-name="uni0443" unicode="&#x443;" horiz-adv-x="427" 
d="M463 460h-35l-245 -414l18 -3l-107 417h-36l115 -425l-154 -254h36z" />
    <glyph glyph-name="uni045E" unicode="&#x45e;" horiz-adv-x="427" 
d="M463 460h-35l-245 -414l18 -3l-107 417h-36l116 -425l-154 -254h35zM147 670q-2 -36 10.5 -68t43 -51.5t78.5 -19.5q49 0 85 19.5t58.5 51t32.5 67.5h-28q-8 -28 -28 -54t-49.5 -42t-69.5 -16q-39 0 -63 16t-34.5 42t-7.5 55h-28z" />
    <glyph glyph-name="uni0444" unicode="&#x444;" horiz-adv-x="569" 
d="M338 560l-113 -659h30l114 659h-31zM46 230q-10 -66 13 -120t74 -86.5t124 -32.5q75 0 136.5 31t102.5 85.5t51 122.5q11 67 -12.5 121t-74.5 86.5t-124 32.5q-74 0 -136 -31.5t-102.5 -85.5t-51.5 -123zM77 230q10 59 45.5 107t90.5 76t122 28q66 0 109.5 -29t63 -77
t9.5 -105q-10 -58 -45.5 -106t-90.5 -76t-122 -28q-65 0 -109.5 29t-63.5 77t-9 104z" />
    <glyph glyph-name="uni0445" unicode="&#x445;" horiz-adv-x="408" 
d="M379 459l-172 -197l-104 198h-34l118 -222l-209 -238h38l185 212l110 -212h35l-126 236l197 223h-38z" />
    <glyph glyph-name="uni0446" unicode="&#x446;" horiz-adv-x="500" 
d="M366 29l75 431h-30l-75 -431h-256l75 431h-30l-80 -460h368l-16 -89h28l21 118h-80z" />
    <glyph glyph-name="uni0447" unicode="&#x447;" horiz-adv-x="423" 
d="M220 140h119l5 29h-120zM371 460l-78 -460h29l81 460h-32zM131 460h-31l-22 -132q-9 -60 0 -102t43.5 -64t98.5 -22l4 29q-79 0 -104 40t-13 119z" />
    <glyph glyph-name="uni0448" unicode="&#x448;" horiz-adv-x="709" 
d="M347 29l75 431h-30l-75 -431h-237l75 431h-30l-80 -460h564l80 460h-31l-74 -431h-237z" />
    <glyph glyph-name="uni0449" unicode="&#x449;" horiz-adv-x="748" 
d="M347 29l75 431h-30l-75 -431h-237l75 431h-30l-80 -460h616l-17 -89h28l20 118h-78l75 431h-31l-74 -431h-237z" />
    <glyph glyph-name="uni044A" unicode="&#x44a;" horiz-adv-x="516" 
d="M200 259l123 -1q55 0 88 -29t25 -84q-9 -59 -52.5 -88t-101.5 -29h-122l-4 -28h123q46 0 86 16t67 48t34 79t-10 78.5t-51.5 48t-79.5 16.5h-120zM212 431l-74 -431h29l80 460h-191l-5 -29h161z" />
    <glyph glyph-name="uni044B" unicode="&#x44b;" horiz-adv-x="561" 
d="M509 460l-78 -460h30l80 460h-32zM124 460l-79 -460h30l81 460h-32zM105 259l123 -1q36 0 63.5 -13.5t41 -39t7.5 -62.5q-6 -38 -29 -64t-56 -38.5t-70 -12.5h-120l-4 -28h121q46 0 86.5 16t67.5 48t34 79q8 47 -9.5 78.5t-51.5 48t-79 16.5h-121z" />
    <glyph glyph-name="uni044C" unicode="&#x44c;" horiz-adv-x="421" 
d="M124 460l-79 -460h30l81 460h-32zM105 259l123 -1q36 0 63.5 -13.5t41 -39t7.5 -62.5q-9 -57 -53 -85.5t-102 -29.5h-120l-4 -28h123q44 0 84 16t68 47.5t35 78.5t-10.5 79t-51.5 48.5t-79 16.5h-121z" />
    <glyph glyph-name="uni044D" unicode="&#x44d;" horiz-adv-x="471" 
d="M147 244l-4 -28h275l25 28h-296zM417 230q-9 -58 -42.5 -105.5t-83.5 -76t-109 -28.5q-47 0 -84 19.5t-56 47.5l-6 -38q23 -25 60.5 -41.5t84.5 -16.5q67 0 123.5 32.5t95 87t47.5 119.5q10 63 -10.5 117.5t-65.5 88.5t-112 34q-48 0 -90.5 -18t-70.5 -39l-6 -39
q27 25 70 46t95 21q58 0 96.5 -30t55.5 -78t8 -103z" />
    <glyph glyph-name="uni044E" unicode="&#x44e;" horiz-adv-x="731" 
d="M103 226h166l5 29h-167zM124 460l-79 -460h30l81 460h-32zM247 230q-9 -63 11 -117.5t65.5 -88t112.5 -33.5t124 32t95 87t48 120q9 63 -11 117.5t-65.5 88.5t-112.5 34t-124 -32.5t-95 -87t-48 -120.5zM278 230q9 58 42.5 106t83.5 76.5t108 28.5t97 -30t55.5 -78
t7.5 -103q-9 -57 -43 -105t-83.5 -76.5t-108.5 -28.5q-58 0 -96.5 30t-55 78t-7.5 102z" />
    <glyph glyph-name="uni044F" unicode="&#x44f;" horiz-adv-x="421" 
d="M60 0l183 206h-35l-185 -206h37zM346 0l78 460h-29l-81 -460h32zM363 212h-119q-36 1 -64 13t-42 36t-8 61q6 38 28.5 62t55.5 36t70 12l118 1l4 27h-120q-45 -1 -85 -15.5t-66.5 -44.5t-34.5 -77q-7 -47 11 -77.5t52.5 -45.5t78.5 -16h117z" />
    <glyph glyph-name="ordfeminine" unicode="&#xaa;" horiz-adv-x="231" 
d="M101 529q4 29 31.5 46.5t56.5 16.5q21 0 36 -7t27 -17l2 11q-10 9 -25.5 16.5t-39.5 8.5q-34 0 -65.5 -20t-36.5 -54t14 -53.5t49 -20.5q37 -1 62 23.5t34 55.5l-4 8q-9 -28 -32.5 -51t-55.5 -22q-26 1 -41 17t-12 42zM136 658q14 11 33.5 21t42.5 8q27 -1 37 -18t8 -41
l-30 -167h15l30 167q3 30 -11.5 51t-47.5 22q-26 1 -47 -9.5t-37 -21.5z" />
    <glyph glyph-name="ordmasculine" unicode="&#xba;" horiz-adv-x="270" 
d="M91 581q-7 -48 20 -84t77 -36q34 0 62.5 16t48 43t24.5 60q5 32 -5.5 59t-34 44t-57.5 17q-33 0 -62 -16t-48.5 -43t-24.5 -60zM110 580q4 28 21 51t42 37t53 14q41 -1 63 -31.5t15 -70.5q-4 -28 -21 -51t-41.5 -36.5t-53.5 -13.5q-41 1 -63 31.5t-15 69.5z" />
    <glyph glyph-name="gravecomb" unicode="&#x300;" horiz-adv-x="0" 
d="M241 538l18 12l-137 160l-30 -17z" />
    <glyph glyph-name="acutecomb" unicode="&#x301;" horiz-adv-x="0" 
d="M102 536l201 155l-30 19l-190 -160z" />
    <glyph glyph-name="uni0302" unicode="&#x302;" horiz-adv-x="0" 
d="M91 572l167 128h-13l124 -128l20 20l-134 137l-180 -137z" />
    <glyph glyph-name="tildecomb" unicode="&#x303;" horiz-adv-x="0" 
d="M103 629q3 13 11 24.5t21.5 19t31.5 7.5q17 0 29.5 -7t24 -16.5t25.5 -16.5t33 -7t34.5 7t28.5 20.5t24 31.5l-17 16q-17 -24 -32 -36t-35 -12q-19 0 -32 7t-23.5 16.5t-24 16.5t-35.5 7t-39.5 -9t-28.5 -23.5t-16 -32.5z" />
    <glyph glyph-name="uni0304" unicode="&#x304;" horiz-adv-x="0" 
d="M84 646h350l4 29h-350z" />
    <glyph glyph-name="uni0306" unicode="&#x306;" horiz-adv-x="0" 
d="M231 572q46 0 84 16t63 44.5t30 65.5h-28q-4 -28 -25.5 -50.5t-53.5 -35.5t-68 -13q-56 0 -87.5 28.5t-25.5 70.5h-28q-5 -37 10.5 -65.5t49 -44.5t79.5 -16z" />
    <glyph glyph-name="uni0307" unicode="&#x307;" horiz-adv-x="0" 
d="M109 629q10 0 17 7.5t7 16.5q0 11 -7 17.5t-17 6.5q-9 0 -16.5 -7t-7.5 -17q0 -9 7.5 -16.5t16.5 -7.5z" />
    <glyph glyph-name="uni0308" unicode="&#x308;" horiz-adv-x="0" 
d="M135 614q10 0 17 7.5t7 16.5q0 11 -7 17.5t-17 6.5t-17 -6.5t-7 -17.5q0 -9 7 -16.5t17 -7.5zM277 614q10 0 17 7.5t7 16.5q0 11 -7 17.5t-17 6.5t-17 -6.5t-7 -17.5q0 -9 7 -16.5t17 -7.5z" />
    <glyph glyph-name="uni030A" unicode="&#x30a;" horiz-adv-x="0" 
d="M168 527q29 0 55.5 14t44.5 37t23 52q8 43 -18 73t-70 30q-29 0 -55 -14t-44 -37t-23 -52q-7 -43 18.5 -73t68.5 -30zM171 549q-33 0 -52.5 24t-13.5 57q5 34 33 57.5t62 23.5t53.5 -23.5t14.5 -57.5q-6 -33 -34.5 -57t-62.5 -24z" />
    <glyph glyph-name="uni030B" unicode="&#x30b;" horiz-adv-x="0" 
d="M59 523l147 202l-31 10l-137 -204zM177 523l149 202l-32 10l-137 -204z" />
    <glyph glyph-name="uni030C" unicode="&#x30c;" horiz-adv-x="0" 
d="M229 572l180 138l-16 20l-168 -128l13 -1l-124 128l-20 -19z" />
    <glyph glyph-name="uni0312" unicode="&#x312;" horiz-adv-x="0" 
d="M93 513l142 255l-19 8l-152 -250z" />
    <glyph glyph-name="uni0326" unicode="&#x326;" horiz-adv-x="0" 
d="M-44 -214l122 182l-21 14l-116 -187z" />
    <glyph glyph-name="uni0327" unicode="&#x327;" horiz-adv-x="0" 
d="M27 -220q33 0 60 12.5t44.5 33.5t21.5 48q5 31 -12.5 53t-50.5 22q-19 0 -37.5 -6t-30.5 -19l15 3l70 91h-27l-80 -107q16 9 38 14t39 5q28 0 41 -15t8 -41q-5 -32 -32 -51.5t-64 -19.5q-23 0 -38.5 7.5t-31.5 23.5l-15 -19q17 -18 36.5 -26.5t45.5 -8.5z" />
    <glyph glyph-name="uni0328" unicode="&#x328;" horiz-adv-x="0" 
d="M47 -220q32 0 60.5 12.5t41.5 27.5l-11 20q-13 -13 -36 -22.5t-50 -9.5q-32 0 -52.5 16t-14.5 48q4 26 28 49.5t58.5 43.5t67.5 35l-16 14q-38 -18 -75 -39.5t-63 -48.5t-32 -60q-4 -26 6 -45.5t32.5 -30t55.5 -10.5z" />
    <glyph glyph-name="zero" unicode="0" horiz-adv-x="548" 
d="M114 350q8 57 28.5 115.5t52 107t74 77.5t95.5 29q43 0 71 -21t43.5 -56t21.5 -78t5 -88t-6 -86q-7 -57 -27.5 -115.5t-52 -107t-74.5 -77.5t-96 -29q-43 0 -70.5 21t-43 56t-21.5 78t-5.5 88.5t5.5 85.5zM82 350q-6 -46 -5.5 -96t9 -97t28 -84.5t52 -59.5t81.5 -22
q60 0 108.5 31t85 83.5t59.5 116.5t32 128q5 47 5 97t-8.5 97t-28 84.5t-52 59.5t-81.5 22q-60 0 -109 -31t-85 -83.5t-59 -117t-32 -128.5z" />
    <glyph glyph-name="one" unicode="1" horiz-adv-x="409" 
d="M168 628l167 38l-114 -666h31l122 707l-200 -45z" />
    <glyph glyph-name="two" unicode="2" horiz-adv-x="515" 
d="M6 0h452l5 31l-384 1l317 290q41 39 77 87t45 107q7 46 -9 90.5t-55 74.5t-101 30q-68 1 -118.5 -34t-82.5 -92t-44 -124h31q11 58 38.5 108.5t71.5 81t102 29.5q52 0 84 -25.5t44 -63t6 -76.5q-6 -37 -23 -67.5t-41 -56.5t-50 -51z" />
    <glyph glyph-name="three" unicode="3" horiz-adv-x="534" 
d="M280 358q42 2 82 14t73.5 33t56.5 53t30 73q7 46 -9.5 86.5t-54 66.5t-91.5 26q-57 0 -101.5 -24.5t-72.5 -66t-39 -92.5h30q10 42 34.5 77t61.5 56t84 20q46 0 76 -22t43 -56t7 -73q-8 -47 -40 -79.5t-76.5 -49.5t-90.5 -20zM254 -9q59 0 109.5 24t83.5 66t40 97
q7 48 -8 83.5t-45.5 59t-70.5 36.5t-81 15l-3 -22q34 -2 67.5 -13.5t60.5 -32.5t40.5 -51.5t7.5 -71.5q-6 -46 -34.5 -82t-71 -56.5t-93.5 -20.5q-54 0 -89 21.5t-50.5 58.5t-11.5 83h-32q-4 -54 14.5 -98t61 -70t105.5 -26z" />
    <glyph glyph-name="four" unicode="4" horiz-adv-x="546" 
d="M20 141l490 -1l5 29h-120h-7l-309 1l374 448l-78 -459l-1 -7l-27 -152h32l121 700h-12z" />
    <glyph glyph-name="five" unicode="5" horiz-adv-x="543" 
d="M503 230q8 58 -9 108.5t-56 81.5t-98 32q-51 1 -94.5 -20t-74.5 -49l116 288h295l6 29h-321l-147 -372q45 42 96 69t111 26q52 -1 86.5 -28t49.5 -70.5t8 -94.5q-8 -61 -39.5 -108t-79 -73.5t-106.5 -26.5q-68 0 -107.5 37t-59.5 96l-28 -18q22 -65 67.5 -105.5
t124.5 -40.5q50 0 94 17t79 49t57.5 76t29.5 97z" />
    <glyph glyph-name="six" unicode="6" horiz-adv-x="531" 
d="M96 223q8 52 39.5 96t79.5 71.5t107 27.5q51 -1 86.5 -29.5t52 -72t9.5 -93.5q-7 -55 -37.5 -101.5t-77.5 -73.5t-104 -27q-56 0 -93.5 28.5t-53.5 75t-8 98.5zM410 699l-270 -321q-26 -31 -46.5 -71.5t-28.5 -83.5q-8 -62 10.5 -115t62.5 -85t110 -32q68 0 121.5 31
t88.5 84t43 117q7 56 -12 106t-59 82t-98 32q-48 1 -89 -18.5t-74 -50.5l2 -2l281 327h-42z" />
    <glyph glyph-name="seven" unicode="7" horiz-adv-x="503" 
d="M118 669h415l-439 -669h35l458 700h-464z" />
    <glyph glyph-name="eight" unicode="8" horiz-adv-x="510" 
d="M146 538q-5 -34 3.5 -65.5t28 -55.5t49 -38t64.5 -14q36 0 70 13.5t62 37t46.5 55t24.5 67.5q5 33 -3 63.5t-28 55t-49.5 39t-65.5 14.5q-50 0 -93.5 -23.5t-72.5 -62.5t-36 -86zM175 535q7 40 31.5 73t61 53t77.5 20q42 0 70.5 -21t41 -54t6.5 -71q-7 -40 -33.5 -74
t-63 -54.5t-74.5 -20.5q-36 1 -64.5 22t-43.5 55t-9 72zM64 187q-6 -39 2.5 -74t29.5 -62.5t54 -43.5t77 -16q45 0 83.5 15t69 42t49.5 62.5t26 75.5q5 40 -5 74.5t-32.5 61t-55 41t-71.5 14.5q-41 0 -78.5 -14t-68.5 -40.5t-52 -60.5t-28 -75zM95 189q9 46 38 84t71 60.5
t86 22.5q43 0 76 -23.5t49 -61t10 -82.5q-8 -47 -35.5 -85.5t-69 -61t-90.5 -22.5q-50 0 -82.5 23.5t-46 62.5t-6.5 83z" />
    <glyph glyph-name="nine" unicode="9" horiz-adv-x="531" 
d="M510 477q-9 -51 -39.5 -95.5t-78.5 -71.5t-108 -27q-51 1 -87 29t-52.5 72t-9.5 93q8 56 38.5 102t77.5 73.5t104 27.5t94 -29t52.5 -75t8.5 -99zM195 0l271 322q25 31 46 72t28 83q9 63 -10 115.5t-62.5 85t-110.5 32.5q-66 0 -120.5 -31t-89 -84t-43.5 -118
q-7 -55 12 -105t59.5 -82t97.5 -33q49 -1 90 18.5t74 51.5l-3 2l-279 -329h40z" />
    <glyph glyph-name="uniFF10" unicode="&#xff10;" horiz-adv-x="543" 
d="M111 350q9 57 29 115.5t51.5 107t74 77.5t95.5 29q43 0 71 -21t43.5 -56t21.5 -78t5 -88t-6 -86q-7 -57 -27.5 -115.5t-52 -107t-74.5 -77.5t-96 -29q-42 0 -69.5 21t-43.5 56t-22 78t-5.5 88.5t5.5 85.5zM79 350q-6 -46 -5.5 -96t9 -97t28 -84.5t52 -59.5t81.5 -22
q60 0 108.5 31t85 83.5t59.5 116.5t32 128q5 47 5 97t-8.5 97t-28 84.5t-52 59.5t-80.5 22q-61 0 -109.5 -31t-85 -83.5t-59.5 -117t-32 -128.5z" />
    <glyph glyph-name="uniFF11" unicode="&#xff11;" horiz-adv-x="543" 
d="M226 628l167 38l-114 -666h31l122 707l-200 -45z" />
    <glyph glyph-name="uniFF12" unicode="&#xff12;" horiz-adv-x="543" 
d="M10 0h453l5 31l-385 1l322 290q43 39 79 85.5t46 105.5q8 46 -6.5 91.5t-52 76t-99.5 30.5q-68 1 -120.5 -34t-86 -92t-46.5 -124h32q12 58 40.5 108.5t73.5 81t104 29.5q52 0 82.5 -25.5t42 -63t3.5 -76.5q-5 -37 -23 -67.5t-42.5 -56.5t-51.5 -51z" />
    <glyph glyph-name="uniFF13" unicode="&#xff13;" horiz-adv-x="543" 
d="M281 358q42 2 82.5 14t74.5 33t57.5 53t30.5 73q8 46 -8.5 86.5t-53 66.5t-91.5 26q-57 1 -101.5 -24t-73.5 -66.5t-41 -92.5h31q10 42 35 77t62.5 56t85.5 20q46 0 75.5 -22t42 -56t5.5 -73q-9 -46 -41.5 -79t-77 -50t-91.5 -20zM249 -9q60 0 110 24t83.5 66t42.5 97
q7 47 -7.5 82.5t-44.5 59.5t-69.5 37t-80.5 15l-4 -22q35 -2 68 -13.5t59.5 -32.5t40 -51.5t6.5 -71.5q-7 -46 -35.5 -82t-71.5 -56.5t-95 -20.5q-54 0 -89 21.5t-50 59t-10 82.5h-32q-5 -53 13.5 -97.5t60.5 -70.5t105 -26z" />
    <glyph glyph-name="uniFF14" unicode="&#xff14;" horiz-adv-x="543" 
d="M18 141l490 -1l5 29h-119h-8h-337zM53 141l399 477l-79 -459v-7l-27 -152h32l120 700h-12l-468 -559h35z" />
    <glyph glyph-name="uniFF15" unicode="&#xff15;" horiz-adv-x="543" 
d="M497 230q8 58 -8.5 108t-54.5 81.5t-97 32.5q-57 1 -106.5 -23t-81.5 -59l-33 -41q45 41 96 68t113 26q51 -1 85 -28.5t48.5 -71t6.5 -93.5q-10 -61 -42 -108t-80.5 -73.5t-106.5 -26.5q-68 0 -107.5 37t-57.5 96l-28 -18q20 -65 65.5 -105.5t124.5 -40.5q49 0 94 17
t80.5 49t59 76t30.5 97zM288 671h297l5 29h-322l-154 -373l52 49z" />
    <glyph glyph-name="uniFF16" unicode="&#xff16;" horiz-adv-x="543" 
d="M95 223q10 52 41.5 96t80 71.5t107.5 27.5q52 -1 87 -29.5t51 -72.5t8 -93q-8 -55 -39.5 -101.5t-79 -73.5t-105.5 -27q-56 0 -92.5 29t-51.5 75t-7 98zM418 699l-277 -321q-25 -31 -46.5 -71.5t-29.5 -83.5q-9 -62 8.5 -115t61 -85t109.5 -32q67 0 121.5 31t90 83.5
t44.5 117.5q8 56 -9.5 105.5t-57 81.5t-98.5 33q-49 1 -90.5 -18.5t-74.5 -50.5l2 -2l286 327h-40z" />
    <glyph glyph-name="uniFF17" unicode="&#xff17;" horiz-adv-x="543" 
d="M139 669h415l-450 -669h34l470 700h-464z" />
    <glyph glyph-name="uniFF18" unicode="&#xff18;" horiz-adv-x="543" 
d="M162 538q-5 -34 3.5 -65.5t28.5 -55.5t49 -38t64 -14q36 0 70 13.5t62 37t46.5 55t24.5 67.5q5 33 -3 63.5t-28 55t-49 39t-65 14.5q-51 0 -94 -23.5t-72 -62.5t-37 -86zM192 535q6 40 31 73t61 53t78 20t70 -21t41 -54t7 -71q-7 -40 -33.5 -74t-63.5 -54.5t-74 -20.5
q-36 1 -65 22t-43.5 55t-8.5 72zM81 187q-6 -39 2 -74t29.5 -62.5t54.5 -43.5t77 -16t82.5 15t69 42t50 62.5t25.5 75.5t-4 74.5t-32.5 61t-55 41t-72.5 14.5t-77.5 -14t-68.5 -40.5t-52.5 -60.5t-27.5 -75zM112 189q8 46 37 84t71 60.5t87 22.5q43 0 75.5 -23.5t48.5 -61
t10 -82.5q-7 -47 -34.5 -85.5t-69 -61t-91.5 -22.5q-49 0 -81.5 23.5t-46 62.5t-6.5 83z" />
    <glyph glyph-name="uniFF19" unicode="&#xff19;" horiz-adv-x="543" 
d="M513 477q-9 -51 -41 -95.5t-80 -71.5t-108 -27q-52 1 -87 29t-50.5 72t-8.5 93q9 56 40 102t78.5 74t105.5 27q57 0 93.5 -29t51.5 -75t6 -99zM190 0l276 322q26 31 48 71.5t30 83.5q9 63 -9 115.5t-61 85t-109 32.5q-67 0 -121.5 -31t-90 -83.5t-45.5 -118.5
q-7 -55 10.5 -105t57 -82t97.5 -33q49 -1 90.5 18.5t74.5 51.5l-3 1l-286 -328h41z" />
    <glyph glyph-name="uni00B9" unicode="&#xb9;" horiz-adv-x="456" 
d="M226 651l99 23l-68 -399h19l74 423l-121 -27z" />
    <glyph glyph-name="uni00B2" unicode="&#xb2;" horiz-adv-x="326" 
d="M49 283l271 -1l3 18l-230 1l193 174q25 24 47 52t27 63q5 28 -3.5 55t-31 45.5t-59.5 18.5q-41 1 -72.5 -20.5t-51 -55.5t-28.5 -74h19q8 34 25.5 64.5t44.5 49.5t62 18q31 -1 49 -16t25 -37.5t2 -45.5q-5 -34 -26 -59t-44 -47z" />
    <glyph glyph-name="uni00B3" unicode="&#xb3;" horiz-adv-x="300" 
d="M193 495q33 2 65 14t54.5 34t28.5 55q5 28 -5 52.5t-31.5 40t-54.5 15.5q-52 1 -85.5 -31.5t-44.5 -77.5h18q10 37 38.5 65t72.5 26q40 -1 59.5 -28.5t13.5 -61.5q-6 -28 -26 -47t-46.5 -29.5t-54.5 -13.5zM175 275q35 0 65.5 14t50.5 39.5t25 58.5q5 28 -4 49.5
t-27 35.5t-41.5 21.5t-48.5 9.5l-2 -13q27 -3 53 -14t41.5 -32.5t9.5 -54.5q-6 -41 -41 -69t-80 -27q-50 1 -71 29t-19 69h-19q-1 -32 9.5 -58.5t35.5 -42t63 -15.5z" />
    <glyph glyph-name="onequarter" unicode="&#xbc;" horiz-adv-x="732" 
d="M728 699l-660 -699h28l660 699h-28zM107 651l100 23l-69 -399h19l74 423l-121 -27zM376 84h294l3 17h-72h-4h-203zM396 85l240 286l-48 -276v-4l-16 -91h19l72 420l-6 -1l-282 -334h21z" />
    <glyph glyph-name="onehalf" unicode="&#xbd;" horiz-adv-x="795" 
d="M728 699l-660 -699h28l660 699h-28zM107 651l100 23l-69 -399h19l74 423l-121 -27zM454 3l271 -1l3 18l-229 1l192 174q25 24 47.5 51.5t27.5 63.5q5 28 -3.5 54.5t-31.5 45t-61 19.5q-41 1 -72 -20.5t-51 -55.5t-28 -74h19q8 34 25.5 64t44 49.5t61.5 17.5q32 -1 50 -16
t25 -37.5t3 -45.5q-6 -33 -27 -58t-44 -47z" />
    <glyph glyph-name="threequarters" unicode="&#xbe;" horiz-adv-x="796" 
d="M793 699l-660 -699h28l660 699h-28zM198 495q33 2 65 14t54.5 34t28.5 55q5 28 -5 52.5t-31.5 40t-55.5 15.5q-52 1 -85 -31.5t-45 -77.5h18q11 37 39.5 65t71.5 26q40 -1 60 -28.5t14 -61.5q-6 -28 -26 -47t-46.5 -29.5t-54.5 -13.5zM179 275q35 0 66 14t51 39.5
t25 58.5q5 28 -4 49.5t-27 35.5t-41.5 21.5t-48.5 9.5l-3 -13q27 -3 53 -14t42 -32.5t10 -54.5q-6 -41 -41.5 -69t-80.5 -27q-49 1 -70 29t-19 69h-19q-1 -32 9.5 -58.5t35 -42t62.5 -15.5zM441 84h294l3 17h-72h-4h-203zM461 85l240 286l-47 -276l-1 -4l-16 -91h19l72 420
l-6 -1l-282 -334h21z" />
    <glyph glyph-name="uni2070" unicode="&#x2070;" horiz-adv-x="328" 
d="M108 490q5 34 17.5 69t31.5 64t45 47t57 18q32 -1 50 -20t25.5 -49t8 -64t-2.5 -65q-5 -34 -17 -68.5t-31.5 -64t-45.5 -47t-57 -17.5t-49 19.5t-26.5 49t-8.5 63.5t3 65zM89 490q-5 -35 -3 -72.5t12 -69.5t32 -52.5t58 -20.5t65.5 18.5t51 50t35.5 70t20 76.5
q4 35 2.5 72.5t-12 70t-32 53t-58.5 20.5q-36 0 -65 -19t-51 -50.5t-36 -69.5t-19 -77z" />
    <glyph glyph-name="uni2074" unicode="&#x2074;" horiz-adv-x="364" 
d="M68 364h295l2 17h-72h-5h-202zM89 365l239 286l-47 -276v-4l-17 -90h20l72 419h-7l-282 -335h22z" />
    <glyph glyph-name="uni2075" unicode="&#x2075;" horiz-adv-x="335" 
d="M340 416q5 35 -5 65t-33 49t-58 20q-34 0 -64.5 -14.5t-49.5 -35.5l-19 -25q27 24 58 41t68 16q31 -1 51 -17.5t28.5 -42.5t3.5 -56q-5 -36 -25 -64.5t-49 -44.5t-64 -16q-40 0 -63 23t-35 57l-17 -11q14 -38 40 -62.5t74 -24.5q40 0 74 18t56.5 50.5t28.5 74.5zM215 681
h177l3 17h-193l-94 -224l33 30z" />
    <glyph glyph-name="uni2076" unicode="&#x2076;" horiz-adv-x="326" 
d="M99 412q6 31 25 57.5t48.5 43t65.5 15.5q30 -1 51 -17.5t30.5 -42.5t5.5 -56q-5 -33 -24.5 -61t-48 -44.5t-62.5 -15.5q-34 0 -56 17t-30.5 44.5t-4.5 59.5zM293 697l-166 -193q-15 -17 -28 -41.5t-18 -50.5q-5 -37 6 -68.5t37 -50.5t65 -20q40 0 72.5 18.5t54 50.5
t26.5 70q5 33 -6 63t-34.5 49.5t-58.5 19.5q-29 1 -53.5 -11t-45.5 -30l1 -1l173 195h-25z" />
    <glyph glyph-name="uni2077" unicode="&#x2077;" horiz-adv-x="343" 
d="M122 682h248l-269 -401h21l281 419h-278z" />
    <glyph glyph-name="uni2078" unicode="&#x2078;" horiz-adv-x="299" 
d="M121 604q-4 -27 6 -51t31.5 -38.5t49.5 -14.5q29 0 55 13.5t44.5 37.5t22.5 52q4 26 -6 49.5t-31 38.5t-51 15q-29 0 -55 -14t-44 -37.5t-22 -50.5zM138 602q4 23 19 43t37.5 32.5t46.5 11.5q37 -1 56.5 -27t14.5 -60q-4 -24 -20.5 -44.5t-38.5 -33t-44 -12.5
q-22 1 -39 13.5t-26 33.5t-6 43zM72 393q-5 -31 5.5 -57.5t34.5 -43t59 -17.5q35 0 64 15.5t48 43t24 58.5q4 32 -8 57.5t-35.5 41t-55.5 15.5q-31 0 -60.5 -15t-50 -40.5t-25.5 -57.5zM90 394q5 27 23 50t43.5 37t51.5 13q39 -1 62.5 -31t17.5 -69q-6 -43 -39.5 -73
t-77.5 -29t-65.5 31.5t-15.5 70.5z" />
    <glyph glyph-name="uni2079" unicode="&#x2079;" horiz-adv-x="326" 
d="M346 568q-5 -30 -24.5 -57t-48.5 -43t-65 -15q-30 1 -51.5 17.5t-30.5 42.5t-5 55q5 34 24 61.5t47.5 44.5t62.5 16q34 0 56 -17.5t31 -45t4 -59.5zM152 283l166 193q15 18 28.5 42.5t17.5 49.5q6 38 -5 69.5t-37 51t-66 19.5q-39 1 -72.5 -18t-54.5 -50.5t-27 -70.5
q-4 -32 7 -62.5t35 -50t58 -20.5q30 0 54.5 11.5t44.5 30.5h-2l-171 -194z" />
    <glyph glyph-name="uni2080" unicode="&#x2080;" horiz-adv-x="335" 
d="M61 210q5 34 17 69t31.5 64t45.5 47t57 18q31 -1 49 -20t25.5 -49t8 -64t-2.5 -65q-5 -34 -17 -68.5t-31.5 -64t-45.5 -47t-57 -17.5t-49 19.5t-26 49t-8.5 63.5t3.5 65zM41 210q-4 -35 -2.5 -72.5t12 -69.5t32 -52.5t58.5 -20.5q36 0 65 18.5t50.5 50t35.5 70t20 76.5
q4 35 2.5 72.5t-12 70t-32 53t-58.5 20.5q-36 0 -65 -19t-50.5 -50.5t-35.5 -69.5t-20 -77z" />
    <glyph glyph-name="uni2081" unicode="&#x2081;" horiz-adv-x="287" 
d="M129 378l99 23l-68 -399h19l73 423l-120 -27z" />
    <glyph glyph-name="uni2082" unicode="&#x2082;" horiz-adv-x="326" 
d="M1 3l272 -1l2 18l-229 1l192 174q25 24 47 52t28 63q5 28 -4 55t-31.5 45.5t-59.5 18.5q-41 1 -72.5 -20.5t-51 -55.5t-28.5 -74h19q8 34 25.5 64.5t44.5 49.5t62 18q31 -1 49.5 -16t25.5 -37.5t2 -45.5q-5 -34 -26.5 -59t-44.5 -47z" />
    <glyph glyph-name="uni2083" unicode="&#x2083;" horiz-adv-x="307" 
d="M146 215q33 2 64.5 14t54 34t28.5 55q5 28 -4.5 52.5t-31.5 40t-55 15.5q-52 1 -85.5 -31.5t-44.5 -77.5h18q10 37 38.5 65t72.5 26q40 -1 59.5 -28.5t13.5 -61.5q-5 -28 -25 -47t-47 -29.5t-55 -13.5zM127 -5q35 0 65.5 14t50.5 39.5t25 58.5q5 28 -4 49.5t-27 35.5
t-41.5 21.5t-48.5 9.5l-2 -13q27 -3 53 -14t41.5 -32.5t9.5 -54.5q-6 -41 -41 -69t-80 -27q-50 1 -71 29t-19 69h-18q-2 -32 8.5 -58.5t35.5 -42t63 -15.5z" />
    <glyph glyph-name="uni2084" unicode="&#x2084;" horiz-adv-x="364" 
d="M20 84h295l2 17h-72h-5h-202zM41 85l239 286l-47 -276v-4l-16 -91h19l73 420h-8l-281 -335h21z" />
    <glyph glyph-name="uni2085" unicode="&#x2085;" horiz-adv-x="335" 
d="M292 136q5 35 -4.5 65t-33 49t-58.5 20q-34 0 -64.5 -14.5t-49.5 -35.5l-19 -25q27 24 58 41t68 16q31 -1 51 -17.5t28.5 -42.5t3.5 -56q-4 -36 -24 -64.5t-49.5 -44.5t-64.5 -16q-40 0 -63 23t-35 57l-17 -11q14 -38 40 -62.5t74 -24.5q40 0 73.5 18t56.5 50.5t29 74.5z
M167 401h178l2 17h-192l-94 -224l32 30z" />
    <glyph glyph-name="uni2086" unicode="&#x2086;" horiz-adv-x="326" 
d="M51 132q6 31 25 57.5t48.5 43t64.5 15.5q31 -1 52 -17.5t30.5 -42.5t4.5 -56q-4 -33 -23.5 -60.5t-48 -44.5t-62.5 -16q-35 0 -56.5 17t-30.5 44.5t-4 59.5zM245 417l-166 -193q-16 -17 -29 -41.5t-17 -50.5q-5 -37 5.5 -68.5t36.5 -50.5t66 -20q40 0 72.5 18.5
t54.5 50.5t27 70q5 33 -6 63t-34.5 49.5t-58.5 19.5q-30 1 -55 -11t-45 -30l1 -1l173 195h-25z" />
    <glyph glyph-name="uni2087" unicode="&#x2087;" horiz-adv-x="343" 
d="M74 402h248l-269 -402h21l282 420h-279z" />
    <glyph glyph-name="uni2088" unicode="&#x2088;" horiz-adv-x="299" 
d="M73 324q-4 -27 6.5 -51t32 -38.5t49.5 -14.5q29 0 55 13.5t44.5 37.5t22.5 52q4 26 -6 49.5t-31.5 38.5t-51.5 15q-29 0 -55 -14t-44 -37.5t-22 -50.5zM91 322q4 23 19 43t37 32.5t46 11.5q37 -1 56.5 -27t14.5 -60q-3 -24 -20 -44.5t-39 -33t-44 -12.5q-22 1 -39 13.5
t-25.5 33.5t-5.5 43zM25 113q-5 -31 5 -57.5t34 -43t59 -17.5q35 0 64 15.5t48.5 43t23.5 58.5q5 32 -7.5 57.5t-36 41t-54.5 15.5q-32 0 -61.5 -15t-49.5 -40.5t-25 -57.5zM43 114q5 27 22.5 50t43 37t51.5 13q39 -1 63 -31t18 -69q-6 -43 -40 -73t-78 -29t-65 31.5
t-15 70.5z" />
    <glyph glyph-name="uni2089" unicode="&#x2089;" horiz-adv-x="326" 
d="M293 288q-5 -30 -24.5 -57t-48.5 -43t-65 -15q-30 1 -51 17.5t-30.5 42.5t-5.5 55q5 34 24 61.5t48 44.5t63 16q34 0 55.5 -17.5t30.5 -45t4 -59.5zM99 3l166 193q16 18 29 42.5t17 49.5q6 38 -4.5 69.5t-37 51t-66.5 19.5q-39 1 -72 -18t-54.5 -50.5t-27.5 -70.5
q-4 -32 7 -62.5t35 -50t58 -20.5q30 0 55 11.5t44 30.5h-1l-172 -194z" />
    <glyph glyph-name="uni2150" unicode="&#x2150;" horiz-adv-x="817" 
d="M679 699l-660 -699h28l660 699h-28zM107 651l100 23l-69 -399h19l74 423l-121 -27zM547 402h249l-270 -402h22l281 420h-278z" />
    <glyph glyph-name="uni2151" unicode="&#x2151;" horiz-adv-x="761" 
d="M679 699l-660 -699h28l660 699h-28zM107 651l100 23l-69 -399h19l74 423l-121 -27zM723 288q-5 -30 -24.5 -57t-48.5 -43t-65 -15q-30 1 -51.5 17.5t-30.5 42.5t-5 55q5 34 24 61.5t47.5 44.5t62.5 16q34 0 56 -17.5t31 -45t4 -59.5zM529 3l166 193q15 18 28.5 42.5
t17.5 49.5q6 38 -5 69.5t-37 51t-66 19.5q-39 1 -72 -18t-54 -50.5t-27 -70.5q-5 -32 6 -62.5t35 -50t58 -20.5q30 0 54.5 11.5t44.5 30.5h-1l-172 -194z" />
    <glyph glyph-name="uni2152" unicode="&#x2152;" horiz-adv-x="1048" 
d="M679 699l-660 -699h28l660 699h-28zM107 651l100 23l-69 -399h19l74 423l-121 -27zM474 378l99 23l-68 -399h19l73 423l-120 -27zM748 210q5 34 17 69t31.5 64t45.5 47t57 18q31 -1 49 -20t26 -49t8 -64t-3 -65q-5 -34 -17 -68.5t-31 -64t-45 -47t-57 -17.5
q-32 0 -50 19.5t-26 49t-8.5 63.5t3.5 65zM728 210q-4 -35 -2.5 -72.5t12 -69.5t32 -52.5t58.5 -20.5q36 0 65 18.5t51 50t36 70t19 76.5q5 35 3 72.5t-12.5 70t-32 53t-57.5 20.5t-65.5 -19t-51 -50.5t-35.5 -69.5t-20 -77z" />
    <glyph glyph-name="onethird" unicode="&#x2153;" horiz-adv-x="733" 
d="M679 699l-660 -699h28l660 699h-28zM107 651l100 23l-69 -399h19l74 423l-121 -27zM571 215q33 2 64.5 14t54 34t28.5 55q5 28 -4.5 52.5t-31.5 40t-55 15.5q-52 1 -85.5 -31.5t-44.5 -77.5h18q10 37 38.5 65t72.5 26q40 -1 59.5 -28.5t13.5 -61.5q-5 -28 -25 -47
t-46.5 -29.5t-54.5 -13.5zM552 -5q35 0 65.5 14t50.5 39.5t25 58.5q5 28 -4 49.5t-27 35.5t-41.5 21.5t-48.5 9.5l-2 -13q27 -3 53 -14t41.5 -32.5t9.5 -54.5q-6 -41 -41 -69t-80 -27q-50 1 -71 29t-19 69h-18q-2 -32 8.5 -58.5t35.5 -42t63 -15.5z" />
    <glyph glyph-name="twothirds" unicode="&#x2154;" horiz-adv-x="856" 
d="M803 699l-661 -699h28l661 699h-28zM52 283l271 -1l3 18l-229 1l192 174q26 24 48 52t27 63q5 28 -4 55t-31 45.5t-60 18.5q-41 1 -72 -20.5t-51 -55.5t-28 -74h19q8 34 25 64t44 49.5t62 17.5q32 0 50 -15t24.5 -37.5t2.5 -45.5q-6 -34 -26.5 -59t-44.5 -47zM694 215
q33 2 64.5 14t54 34t28.5 55q5 28 -4.5 52.5t-31.5 40t-55 15.5q-52 1 -85.5 -31.5t-44.5 -77.5h18q11 37 39 65t72 26q40 -1 59.5 -28.5t13.5 -61.5q-5 -28 -25 -47t-46.5 -29.5t-54.5 -13.5zM675 -5q35 0 65.5 14t51 39.5t25.5 58.5q5 28 -4.5 49.5t-27.5 35.5t-41.5 21.5
t-48.5 9.5l-2 -13q27 -3 53 -14t41.5 -32.5t9.5 -54.5q-6 -41 -41 -69t-80 -27q-49 1 -70.5 29t-18.5 69h-19q-2 -32 9 -58.5t35.5 -42t62.5 -15.5z" />
    <glyph glyph-name="uni2155" unicode="&#x2155;" horiz-adv-x="722" 
d="M679 699l-660 -699h28l660 699h-28zM107 651l100 23l-69 -399h19l74 423l-121 -27zM669 136q5 35 -5 65t-33 49t-59 20q-33 0 -63.5 -14.5t-49.5 -35.5l-19 -25q26 24 57.5 41t67.5 16q31 -1 51 -17.5t29 -42.5t4 -56q-5 -36 -25 -64.5t-49 -44.5t-64 -16q-41 0 -64 23
t-35 57l-16 -11q13 -38 39.5 -62.5t74.5 -24.5q40 0 74 18t56.5 50.5t28.5 74.5zM544 401h177l3 17h-193l-94 -224l32 30z" />
    <glyph glyph-name="uni2156" unicode="&#x2156;" horiz-adv-x="845" 
d="M803 699l-661 -699h28l661 699h-28zM52 283l271 -1l3 18l-229 1l192 174q26 24 48 52t27 63q5 28 -4 55t-31 45.5t-60 18.5q-41 1 -72 -20.5t-51 -55.5t-28 -74h19q8 34 25 64t44 49.5t62 17.5q32 0 50 -15t24.5 -37.5t2.5 -45.5q-6 -34 -26.5 -59t-44.5 -47zM792 136
q5 35 -5 65t-33 49t-58 20q-34 0 -64.5 -14.5t-49.5 -35.5l-19 -25q27 24 58 41t68 16q31 -1 51 -17.5t28.5 -42.5t3.5 -56q-5 -36 -25 -64.5t-49 -44.5t-64 -16q-40 0 -63 23t-35 57l-17 -11q14 -38 40 -62.5t74 -24.5q40 0 74 18t56.5 50.5t28.5 74.5zM667 401h177l3 17
h-193l-94 -224l33 30z" />
    <glyph glyph-name="uni2157" unicode="&#x2157;" horiz-adv-x="806" 
d="M764 699l-661 -699h29l660 699h-28zM198 495q33 2 65 14t54.5 34t28.5 55q5 28 -5 52.5t-31.5 40t-55.5 15.5q-52 1 -85 -31.5t-45 -77.5h18q11 37 39.5 65t71.5 26q40 -1 60 -28.5t14 -61.5q-6 -28 -26 -47t-46.5 -29.5t-54.5 -13.5zM179 275q35 0 66 14t51 39.5
t25 58.5q5 28 -4 49.5t-27 35.5t-41.5 21.5t-48.5 9.5l-3 -13q27 -3 53 -14t42 -32.5t10 -54.5q-6 -41 -41.5 -69t-80.5 -27q-49 1 -70 29t-19 69h-19q-1 -32 9.5 -58.5t35 -42t62.5 -15.5zM753 136q5 35 -4.5 65t-33 49t-58.5 20q-34 0 -64.5 -14.5t-49.5 -35.5l-19 -25
q27 24 58 41t68 16q31 -1 51 -17.5t28.5 -42.5t3.5 -56q-4 -36 -24 -64.5t-49.5 -44.5t-64.5 -16q-40 0 -63 23t-35 57l-17 -11q14 -38 40 -62.5t74 -24.5q40 0 74 18t56.5 50.5t28.5 74.5zM628 401h178l2 17h-192l-94 -224l32 30z" />
    <glyph glyph-name="uni2158" unicode="&#x2158;" horiz-adv-x="840" 
d="M798 699l-661 -699h29l660 699h-28zM68 364h295l2 17h-72h-5h-202zM89 365l239 286l-47 -276v-4l-17 -90h20l72 419h-7l-282 -335h22zM787 136q5 35 -4.5 65t-33 49t-58.5 20q-34 0 -64.5 -14.5t-49.5 -35.5l-19 -25q27 24 58 41t68 16q31 -1 51 -17.5t28.5 -42.5
t3.5 -56q-5 -36 -25 -64.5t-49 -44.5t-64 -16q-40 0 -63 23t-35 57l-17 -11q14 -38 40 -62.5t74 -24.5q40 0 74 18t56.5 50.5t28.5 74.5zM662 401h178l2 17h-192l-94 -224l32 30z" />
    <glyph glyph-name="uni2159" unicode="&#x2159;" horiz-adv-x="712" 
d="M679 699l-660 -699h28l660 699h-28zM107 651l100 23l-69 -399h19l74 423l-121 -27zM427 132q6 31 25.5 57.5t49 43t64.5 15.5q31 -1 51.5 -17.5t30.5 -42.5t5 -56q-5 -33 -24.5 -60.5t-47.5 -44.5t-62 -16q-34 0 -56 17t-31 44.5t-5 59.5zM621 417l-165 -193
q-15 -17 -28.5 -41.5t-18.5 -50.5q-5 -37 6 -68.5t37.5 -50.5t65.5 -20q40 0 72.5 18.5t54 50.5t26.5 70q5 33 -6 63t-34.5 49.5t-58.5 19.5q-30 1 -54 -11t-45 -30l1 -1l173 195h-26z" />
    <glyph glyph-name="uni215A" unicode="&#x215a;" horiz-adv-x="831" 
d="M798 699l-661 -699h29l660 699h-28zM340 416q5 35 -5 65t-33 49t-58 20q-34 0 -64.5 -14.5t-49.5 -35.5l-19 -25q27 24 58 41t68 16q31 -1 51 -17.5t28.5 -42.5t3.5 -56q-5 -36 -25 -64.5t-49 -44.5t-64 -16q-40 0 -63 23t-35 57l-17 -11q14 -38 40 -62.5t74 -24.5
q40 0 74 18t56.5 50.5t28.5 74.5zM215 681h177l3 17h-193l-94 -224l33 30zM546 132q6 31 25 57.5t48.5 43t65.5 15.5q30 -1 51 -17.5t30.5 -42.5t5.5 -56q-5 -33 -24.5 -60.5t-48 -44.5t-62.5 -16q-34 0 -56 17t-30.5 44.5t-4.5 59.5zM740 417l-166 -193q-15 -17 -28 -41.5
t-18 -50.5q-5 -37 6 -68.5t37 -50.5t65 -20q40 0 73 18.5t54.5 50.5t26.5 70q5 33 -6 63t-34.5 49.5t-58.5 19.5q-30 1 -54.5 -11t-45.5 -30l2 -1l172 195h-25z" />
    <glyph glyph-name="oneeighth" unicode="&#x215b;" horiz-adv-x="738" 
d="M679 699l-660 -699h28l660 699h-28zM107 651l100 23l-69 -399h19l74 423l-121 -27zM498 324q-4 -27 6.5 -51t32 -38.5t49.5 -14.5q29 0 55 13.5t44.5 37.5t22.5 52q4 26 -6 49.5t-31.5 38.5t-51.5 15q-29 0 -55 -14t-44 -37.5t-22 -50.5zM516 322q4 23 19 43t37 32.5
t46 11.5q38 -1 57 -27t14 -60q-3 -24 -20 -44.5t-39 -33t-44 -12.5q-22 1 -39 13.5t-25.5 33.5t-5.5 43zM450 113q-5 -31 5 -57.5t34 -43t59 -17.5q35 0 64 15.5t48.5 43t23.5 58.5q4 23 -2.5 44t-20 36.5t-32.5 24.5t-43 9q-32 0 -61.5 -15t-49.5 -40.5t-25 -57.5zM468 114
q5 27 22.5 50t43 37t51.5 13q39 -1 63 -31t18 -69q-6 -43 -40 -73t-78 -29t-65 31.5t-15 70.5z" />
    <glyph glyph-name="threeeighths" unicode="&#x215c;" horiz-adv-x="822" 
d="M764 699l-661 -699h29l660 699h-28zM198 495q33 2 65 14t54.5 34t28.5 55q5 28 -5 52.5t-31.5 40t-55.5 15.5q-52 1 -85 -31.5t-45 -77.5h18q11 37 39.5 65t71.5 26q40 -1 60 -28.5t14 -61.5q-6 -28 -26 -47t-46.5 -29.5t-54.5 -13.5zM179 275q35 0 66 14t51 39.5
t25 58.5q5 28 -4 49.5t-27 35.5t-41.5 21.5t-48.5 9.5l-3 -13q27 -3 53 -14t42 -32.5t10 -54.5q-6 -41 -41.5 -69t-80.5 -27q-49 1 -70 29t-19 69h-19q-1 -32 9.5 -58.5t35 -42t62.5 -15.5zM582 324q-3 -27 7 -51t31.5 -38.5t49.5 -14.5q29 0 55 13.5t44.5 37.5t22.5 52
q4 26 -6 49.5t-31 38.5t-51 15t-56 -14t-43.5 -37.5t-22.5 -50.5zM600 322q4 23 19 43t37.5 32.5t46.5 11.5q37 -1 56.5 -27t13.5 -60q-3 -24 -19.5 -44.5t-39 -33t-43.5 -12.5q-22 1 -39 13.5t-26 33.5t-6 43zM534 113q-5 -31 5 -57.5t34 -43t59 -17.5q35 0 64.5 15.5
t48.5 43t23 58.5q5 32 -7 57.5t-35.5 41t-55.5 15.5t-61.5 -15t-49.5 -40.5t-25 -57.5zM552 114q5 27 23 50t43.5 37t51.5 13q39 -1 62.5 -31t17.5 -69q-6 -43 -39.5 -73t-78.5 -29q-43 1 -64.5 31.5t-15.5 70.5z" />
    <glyph glyph-name="fiveeighths" unicode="&#x215d;" horiz-adv-x="856" 
d="M798 699l-661 -699h29l660 699h-28zM340 416q5 35 -5 65t-33 49t-58 20q-34 0 -64.5 -14.5t-49.5 -35.5l-19 -25q27 24 58 41t68 16q31 -1 51 -17.5t28.5 -42.5t3.5 -56q-5 -36 -25 -64.5t-49 -44.5t-64 -16q-40 0 -63 23t-35 57l-17 -11q14 -38 40 -62.5t74 -24.5
q40 0 74 18t56.5 50.5t28.5 74.5zM215 681h177l3 17h-193l-94 -224l33 30zM616 324q-3 -27 7 -51t31.5 -38.5t49.5 -14.5q29 0 55 13.5t44.5 37.5t22.5 52q4 26 -6 49.5t-31 38.5t-51 15t-56 -14t-43.5 -37.5t-22.5 -50.5zM634 322q4 23 19 43t37.5 32.5t46.5 11.5
q37 -1 56.5 -27t13.5 -60q-3 -24 -19.5 -44.5t-39 -33t-43.5 -12.5q-22 1 -39 13.5t-26 33.5t-6 43zM568 113q-5 -31 5 -57.5t34 -43t59 -17.5q35 0 64.5 15.5t48.5 43t23 58.5q4 23 -2.5 44t-20 36.5t-32.5 24.5t-43 9q-32 0 -61.5 -15t-49.5 -40.5t-25 -57.5zM586 114
q5 27 23 50t43 37t51 13q39 -1 63 -31t18 -69q-6 -43 -39.5 -73t-78.5 -29q-43 1 -64.5 31.5t-15.5 70.5z" />
    <glyph glyph-name="seveneighths" unicode="&#x215e;" horiz-adv-x="749" 
d="M691 699l-660 -699h28l660 699h-28zM122 682h248l-269 -401h21l281 419h-278zM509 324q-3 -27 7 -51t31.5 -38.5t49.5 -14.5q29 0 55 13.5t44.5 37.5t22.5 52q4 26 -6 49.5t-31 38.5t-51 15q-29 0 -55.5 -14t-44 -37.5t-22.5 -50.5zM527 322q4 23 19 43t37.5 32.5
t46.5 11.5q37 -1 56.5 -27t14.5 -60q-4 -24 -20.5 -44.5t-38.5 -33t-44 -12.5q-22 1 -39 13.5t-26 33.5t-6 43zM461 113q-5 -31 5.5 -57.5t34 -43t58.5 -17.5q36 0 65 15.5t48 43t23 58.5q5 32 -7 57.5t-35.5 41t-55.5 15.5q-31 0 -60.5 -15t-50 -40.5t-25.5 -57.5zM479 114
q5 27 23 50t43.5 37t51.5 13q39 -1 62.5 -31t17.5 -69q-6 -43 -39.5 -73t-77.5 -29t-65.5 31.5t-15.5 70.5z" />
    <glyph glyph-name="underscore" unicode="_" horiz-adv-x="485" 
d="M-47 -116h486l4 24h-486z" />
    <glyph glyph-name="hyphen" unicode="-" horiz-adv-x="204" 
d="M20 246h194l6 29h-195z" />
    <glyph glyph-name="uni2010" unicode="&#x2010;" horiz-adv-x="204" 
d="M20 246h194l6 29h-195z" />
    <glyph glyph-name="figuredash" unicode="&#x2012;" horiz-adv-x="573" 
d="M83 246h437l5 29h-437z" />
    <glyph glyph-name="endash" unicode="&#x2013;" horiz-adv-x="718" 
d="M83 246h583l5 29h-583z" />
    <glyph glyph-name="emdash" unicode="&#x2014;" horiz-adv-x="864" 
d="M83 246h728l5 29h-728z" />
    <glyph glyph-name="parenleft" unicode="(" horiz-adv-x="253" 
d="M302 780q-74 -110 -120.5 -234.5t-66.5 -255.5q-19 -123 -11.5 -247t47.5 -243h25q-34 121 -40.5 244t12.5 246q20 131 65.5 253.5t114.5 236.5h-26z" />
    <glyph glyph-name="parenright" unicode=")" horiz-adv-x="253" 
d="M7 -199q74 110 120.5 234.5t66.5 254.5q18 124 10.5 248t-47.5 242h-25q34 -121 40.5 -243.5t-12.5 -246.5q-20 -130 -65 -252.5t-114 -236.5h26z" />
    <glyph glyph-name="bracketleft" unicode="[" horiz-adv-x="263" 
d="M227 750l117 1l4 29h-148l-154 -1000h148l5 30h-118z" />
    <glyph glyph-name="bracketright" unicode="]" horiz-adv-x="263" 
d="M90 -190h-117l-5 -30h148l154 1000h-147l-5 -30h117z" />
    <glyph glyph-name="braceleft" unicode="{" horiz-adv-x="282" 
d="M235 646q7 48 25.5 77t61.5 29h24l4 28h-32q-35 0 -58.5 -17.5t-37 -49t-19.5 -73.5l-32 -210q-6 -48 -25 -80t-48 -48l-4 -24q25 -18 32.5 -50t2.5 -78l-32 -210q-4 -39 -1 -70.5t20 -50.5t53 -19h30l5 28h-25q-28 0 -41 14t-14.5 38t1.5 54l31 198q3 29 3 55t-5 48.5
t-18 37.5t-34 21l-2 -7q24 5 41.5 19t30 36t20.5 49t12 57z" />
    <glyph glyph-name="braceright" unicode="}" horiz-adv-x="282" 
d="M104 -66q-6 -47 -25 -76.5t-62 -29.5h-23l-5 -28h32q36 0 59 18t37 49.5t19 72.5l32 210q7 49 25.5 81t47.5 47l4 24q-24 19 -31.5 50.5t-2.5 77.5l32 210q5 39 1 71t-21 50.5t-53 18.5h-30l-4 -28h24q29 0 41.5 -14t14.5 -38t-1 -54l-32 -198q-3 -28 -3 -54.5t5.5 -48.5
t18 -37.5t34.5 -21.5l1 8q-23 -4 -41 -19t-30.5 -36.5t-20.5 -49t-12 -57.5z" />
    <glyph glyph-name="numbersign" unicode="#" horiz-adv-x="564" 
d="M122 450h129h6h198h7h118l5 27h-458zM46 229h458l4 26h-125h-10h-196h-8h-119zM544 700l-96 -233l-2 -8l-86 -213l-3 -7l-98 -239h29l286 700h-30zM340 700l-284 -700l29 1l97 237l2 6l88 216l4 8l94 232h-30z" />
    <glyph glyph-name="percent" unicode="%" horiz-adv-x="694" 
d="M101 558q-6 -40 7 -74.5t42.5 -56.5t73.5 -22t80.5 20.5t61 55.5t30.5 76q6 40 -7 74.5t-42 56.5t-74 22q-44 0 -80.5 -21t-60.5 -55.5t-31 -75.5zM129 557q6 33 26 62t50 47t67 18q36 0 59 -19t32.5 -47.5t4.5 -60.5q-5 -33 -25 -62t-50 -47t-67 -17q-36 0 -59.5 18.5
t-32.5 47.5t-5 60zM365 144q-6 -40 6.5 -74.5t42 -56.5t73.5 -22q45 0 81 20.5t60.5 55.5t30.5 76q6 40 -6.5 74.5t-42 56.5t-73.5 22q-45 0 -81.5 -21t-60 -55.5t-30.5 -75.5zM392 143q6 33 25.5 62t50 47t66.5 18q37 -1 60 -19.5t33 -47t4 -60.5q-5 -33 -25 -62t-50 -47
t-67 -18q-37 1 -60.5 19.5t-32.5 47.5t-4 60zM645 699l-561 -699h31l562 699h-32z" />
    <glyph glyph-name="perthousand" unicode="&#x2030;" horiz-adv-x="1056" 
d="M727 144q-6 -40 6.5 -74.5t42 -56.5t73.5 -22q45 0 81 20.5t60.5 55.5t30.5 76q6 40 -6.5 74.5t-42 56.5t-73.5 22q-45 0 -81.5 -21t-60 -55.5t-30.5 -75.5zM754 143q6 33 25.5 62t50 47t66.5 18q37 -1 60 -19.5t32.5 -47t4.5 -60.5q-5 -33 -25.5 -62t-50.5 -47t-67 -18
q-35 1 -58.5 19.5t-33 47.5t-4.5 60zM101 558q-6 -40 7 -74.5t42.5 -56.5t73.5 -22t80.5 20.5t61 55.5t30.5 76q6 40 -7 74.5t-42 56.5t-74 22q-44 0 -80.5 -21t-60.5 -55.5t-31 -75.5zM129 557q6 33 26 62t50 47t67 18q36 0 59 -19t32.5 -47.5t4.5 -60.5q-5 -33 -25 -62
t-50 -47t-67 -17q-36 0 -59.5 18.5t-32.5 47.5t-5 60zM365 144q-6 -40 6.5 -74.5t42 -56.5t73.5 -22q45 0 81 20.5t60.5 55.5t30.5 76q6 40 -6.5 74.5t-42 56.5t-73.5 22q-45 0 -81.5 -21t-60 -55.5t-30.5 -75.5zM392 143q6 33 25.5 62t50 47t66.5 18q37 -1 60 -19.5t33 -47
t4 -60.5q-5 -33 -25 -62t-50 -47t-67 -18q-37 1 -60.5 19.5t-32.5 47.5t-4 60zM645 699l-561 -699h31l562 699h-32z" />
    <glyph glyph-name="uni2031" unicode="&#x2031;" horiz-adv-x="1418" 
d="M1089 144q-6 -40 6.5 -74.5t42 -56.5t73.5 -22t80.5 20.5t61 55.5t30.5 76q6 40 -7 74.5t-42 56.5t-74 22q-44 0 -80.5 -21t-60 -55.5t-30.5 -75.5zM1116 143q5 33 25 62t50 47t67 18q37 -1 60 -19.5t32.5 -47t4.5 -60.5q-5 -33 -25 -62t-50.5 -47t-67.5 -18
q-36 1 -59 19.5t-32.5 47.5t-4.5 60zM727 144q-6 -40 6.5 -74.5t42 -56.5t73.5 -22q45 0 81 20.5t60.5 55.5t30.5 76q6 40 -6.5 74.5t-42 56.5t-73.5 22q-45 0 -81.5 -21t-60 -55.5t-30.5 -75.5zM754 143q6 33 25.5 62t50 47t66.5 18q37 -1 60 -19.5t32.5 -47t4.5 -60.5
q-5 -33 -25.5 -62t-50.5 -47t-67 -18q-35 1 -58.5 19.5t-33 47.5t-4.5 60zM101 558q-6 -40 7 -74.5t42.5 -56.5t73.5 -22t80.5 20.5t61 55.5t30.5 76q6 40 -7 74.5t-42 56.5t-74 22q-44 0 -80.5 -21t-60.5 -55.5t-31 -75.5zM129 557q6 33 26 62t50 47t67 18q36 0 59 -19
t32.5 -47.5t4.5 -60.5q-5 -33 -25 -62t-50 -47t-67 -17q-36 0 -59.5 18.5t-32.5 47.5t-5 60zM365 144q-6 -40 6.5 -74.5t42 -56.5t73.5 -22q45 0 81 20.5t60.5 55.5t30.5 76q6 40 -6.5 74.5t-42 56.5t-73.5 22q-45 0 -81.5 -21t-60 -55.5t-30.5 -75.5zM392 143q6 33 25.5 62
t50 47t66.5 18q37 -1 60 -19.5t33 -47t4 -60.5q-5 -33 -25 -62t-50 -47t-67 -18q-37 1 -60.5 19.5t-32.5 47.5t-4 60zM645 699l-561 -699h31l562 699h-32z" />
    <glyph glyph-name="quotesingle" unicode="'" horiz-adv-x="234" 
d="M224 700l-94 -285h22l109 285h-37z" />
    <glyph glyph-name="quotedbl" unicode="&#x22;" horiz-adv-x="409" 
d="M224 700l-94 -285h22l109 285h-37zM398 700l-93 -285h21l110 285h-38z" />
    <glyph glyph-name="quoteleft" unicode="&#x2018;" horiz-adv-x="232" 
d="M150 471l121 228h-23l-136 -228h38z" />
    <glyph glyph-name="quoteright" unicode="&#x2019;" horiz-adv-x="247" 
d="M243 699l-122 -228h24l134 228h-36z" />
    <glyph glyph-name="quotedblleft" unicode="&#x201c;" horiz-adv-x="400" 
d="M163 471l121 228h-23l-135 -228h37zM316 471l121 228h-23l-135 -228h37z" />
    <glyph glyph-name="quotedblright" unicode="&#x201d;" horiz-adv-x="400" 
d="M229 699l-122 -228h24l135 228h-37zM382 699l-122 -228h24l135 228h-37z" />
    <glyph glyph-name="quotesinglbase" unicode="&#x201a;" horiz-adv-x="247" 
d="M126 79l-121 -228h23l135 228h-37z" />
    <glyph glyph-name="quotedblbase" unicode="&#x201e;" horiz-adv-x="400" 
d="M125 79l-122 -228h24l134 228h-36zM278 79l-122 -228h23l136 228h-37z" />
    <glyph glyph-name="guilsinglleft" unicode="&#x2039;" horiz-adv-x="322" 
d="M88 256l221 215l-17 18l-237 -232l158 -237l21 18z" />
    <glyph glyph-name="guilsinglright" unicode="&#x203a;" horiz-adv-x="340" 
d="M285 254l-221 -215l17 -18l237 232l-158 237l-22 -18z" />
    <glyph glyph-name="guillemotleft" unicode="&#xab;" horiz-adv-x="478" 
d="M243 256l221 215l-17 18l-237 -232l158 -237l22 18zM88 256l221 215l-17 18l-237 -232l158 -237l21 18z" />
    <glyph glyph-name="guillemotright" unicode="&#xbb;" horiz-adv-x="478" 
d="M268 254l-221 -215l17 -18l237 232l-158 237l-22 -18zM423 254l-221 -215l17 -18l237 232l-158 237l-21 -18z" />
    <glyph glyph-name="asterisk" unicode="*" horiz-adv-x="575" 
d="M524 589l-177 -60l3 -18l177 50zM440 381l-84 144l-16 -12l75 -149zM231 365l124 147l-13 13l-132 -142zM185 561l160 -50l10 17l-158 61zM366 700l-27 -180h19l37 180h-29z" />
    <glyph glyph-name="dagger" unicode="&#x2020;" horiz-adv-x="505" 
d="M153 540l-4 -29h331l4 29h-331zM328 700l-131 -850h30l132 850h-31z" />
    <glyph glyph-name="daggerdbl" unicode="&#x2021;" horiz-adv-x="505" 
d="M89 120l-5 -29h331l5 29h-331zM153 540l-4 -29h331l4 29h-331zM328 700l-131 -850h30l132 850h-31z" />
    <glyph glyph-name="period" unicode="." horiz-adv-x="263" 
d="M83 13q0 -10 7 -17t17 -7t17 7t7 17t-7 16.5t-17 6.5t-17 -6.5t-7 -16.5z" />
    <glyph glyph-name="comma" unicode="," horiz-adv-x="277" 
d="M152 98l-141 -253l20 -8l151 248z" />
    <glyph glyph-name="colon" unicode=":" horiz-adv-x="291" 
d="M83 13q0 -10 7 -17t17 -7t17 7t7 17t-7 16.5t-17 6.5t-17 -6.5t-7 -16.5zM144 370q0 -9 7.5 -16.5t16.5 -7.5q10 0 17 7t7 17t-7 17t-17 7q-9 0 -16.5 -7t-7.5 -17z" />
    <glyph glyph-name="semicolon" unicode=";" horiz-adv-x="283" 
d="M173 370q0 -9 7.5 -16.5t17.5 -7.5t16.5 7t6.5 17t-6.5 17t-16.5 7t-17.5 -7t-7.5 -17zM152 98l-141 -253l20 -8l151 248z" />
    <glyph glyph-name="ellipsis" unicode="&#x2026;" horiz-adv-x="813" 
d="M85 13q-1 -6 1.5 -11.5t7 -9t10.5 -3.5q7 0 12.5 3t10 9t4.5 11q1 6 -1.5 11.5t-7 9t-10.5 3.5q-6 1 -12 -2.5t-10 -9t-5 -11.5zM359 13q-1 -6 1.5 -11.5t7 -9t10.5 -3.5q7 0 12.5 3t10 9t4.5 11q2 6 -1 11.5t-8 9t-11 3.5q-6 1 -11.5 -2.5t-9.5 -9t-5 -11.5zM632 13
q0 -9 5.5 -16.5t15.5 -7.5q6 0 11.5 3t10 9t4.5 11q1 6 -1.5 11.5t-7.5 9t-11 3.5q-6 1 -12 -2.5t-10 -9t-5 -11.5z" />
    <glyph glyph-name="exclam" unicode="!" horiz-adv-x="265" 
d="M206 700l-77 -499h22l94 499h-39zM84 12q0 -10 7 -16.5t17 -6.5t17 6.5t7 16.5q0 11 -7 17.5t-17 6.5t-17 -7t-7 -17z" />
    <glyph glyph-name="exclamdown" unicode="&#xa1;" horiz-adv-x="291" 
d="M109 -244l77 499h-21l-95 -499h39zM230 442q2 10 -4 17t-15 7q-9 1 -17.5 -6.5t-9.5 -16.5t5 -16.5t15 -7.5t17.5 7.5t8.5 15.5z" />
    <glyph glyph-name="question" unicode="?" horiz-adv-x="530" 
d="M490 514q-10 -49 -45.5 -86.5t-86.5 -58.5t-110 -24h-8l-20 -174h23l28 152q60 5 113 29.5t89.5 66t46.5 95.5q6 40 -2.5 75.5t-30.5 62.5t-55.5 42.5t-77.5 15.5q-74 0 -125.5 -33.5t-92.5 -82.5l22 -16q37 43 82.5 73t107.5 30q52 0 86 -23t48.5 -60.5t7.5 -83.5z
M177 12q0 -10 7 -16.5t16 -6.5q11 0 17.5 6.5t6.5 16.5t-6.5 17t-16.5 7q-9 0 -16.5 -6.5t-7.5 -17.5z" />
    <glyph glyph-name="questiondown" unicode="&#xbf;" horiz-adv-x="530" 
d="M107 186q7 41 37 78t82 62.5t123 29.5l7 -1l20 175h-23l-28 -153q-59 -5 -112.5 -29.5t-90 -65.5t-46.5 -96q-6 -40 2.5 -75t30.5 -62t55.5 -42.5t78.5 -15.5q74 -1 125.5 32.5t92.5 82.5l-23 17q-37 -43 -82.5 -73.5t-107.5 -29.5q-51 0 -86 23t-49.5 60.5t-5.5 82.5z
M419 687q1 10 -5 17t-15 7q-6 1 -12 -2.5t-10 -9t-5 -11.5q-1 -9 4.5 -16.5t14.5 -7.5q6 0 12.5 3t11 9t4.5 11z" />
    <glyph glyph-name="slash" unicode="/" horiz-adv-x="472" 
d="M519 700l-558 -849h32l559 848z" />
    <glyph glyph-name="backslash" unicode="\" horiz-adv-x="445" 
d="M107 700l264 -700h32l-263 700h-33z" />
    <glyph glyph-name="fraction" unicode="&#x2044;" horiz-adv-x="684" 
d="M691 699l-660 -699h28l660 699h-28z" />
    <glyph glyph-name="bar" unicode="|" horiz-adv-x="222" 
d="M201 785l-155 -1000h29l154 1000h-28z" />
    <glyph glyph-name="brokenbar" unicode="&#xa6;" horiz-adv-x="222" 
d="M189 695l-42 -239h28l43 239h-29zM141 245h-29l-42 -239h28z" />
    <glyph glyph-name="at" unicode="@" horiz-adv-x="747" 
d="M251 320q7 50 33 91.5t63.5 66t79.5 22.5q32 0 50.5 -20.5t25 -49.5t2.5 -60q-6 -46 -31 -87t-61 -67t-78 -25q-34 1 -53.5 19.5t-26.5 48t-4 61.5zM222 319q-5 -41 5 -76.5t35.5 -57.5t65.5 -22q49 0 90 29.5t69 76.5t35 99q5 37 -1.5 73.5t-28.5 61.5t-63 26
q-49 2 -94 -26.5t-75.5 -76.5t-37.5 -107zM61 320q-10 -68 1 -127.5t43.5 -104.5t86.5 -70.5t129 -25.5q74 -1 134 16.5t111 41.5l-10 24q-50 -23 -108 -39.5t-125 -15.5q-90 1 -146 41.5t-78 108.5t-10 151q12 73 47 139t89 116.5t122 78.5t146 28q66 -1 114 -26t77.5 -67
t40 -93.5t0.5 -105.5q-5 -40 -22.5 -78.5t-43 -70t-55 -48.5t-59.5 -13q-23 2 -33 14.5t-11 29.5t1 32q2 8 4 17t4 16l80 231h-30l-79 -235l4 -1q-8 -31 -7.5 -61t14.5 -49.5t48 -21.5q36 -2 71.5 16t65.5 52t50 77.5t26 92.5q10 59 -2 115.5t-45 102.5t-86 73.5t-125 27.5
q-84 0 -157 -30.5t-130.5 -85t-95.5 -124.5t-51 -149z" />
    <glyph glyph-name="ampersand" unicode="&#x26;" horiz-adv-x="655" 
d="M236 414l290 -414h35l-301 432q-13 21 -25 42t-18 45t-2 51q6 31 24.5 57t48.5 41.5t67 14.5q36 -1 58 -17.5t31.5 -43t4.5 -54.5q-6 -33 -29.5 -61t-56.5 -52t-71 -45q-26 -14 -56.5 -29.5t-61.5 -34t-57.5 -42.5t-44.5 -55.5t-24 -72.5q-7 -56 15 -97.5t65 -64.5
t98 -23q69 0 126.5 29.5t106.5 76.5t93 101t86 102l-22 16q-40 -47 -81.5 -98.5t-88.5 -97t-100 -73.5t-116 -27q-48 0 -84.5 19.5t-54 55t-11.5 82.5q7 47 31.5 79t59 56t71.5 42.5t69 36.5q42 24 77.5 50.5t60 57.5t30.5 69q6 36 -6.5 68.5t-41.5 53.5t-74 21
q-45 1 -82.5 -17.5t-61 -50.5t-29.5 -72q-4 -32 3 -59.5t20.5 -51t28.5 -46.5z" />
    <glyph glyph-name="section" unicode="&#xa7;" horiz-adv-x="389" 
d="M410 605l25 15q-13 41 -53 65.5t-90 24.5q-36 0 -71 -13t-59.5 -38.5t-30.5 -62.5q-4 -27 6.5 -47t30.5 -34.5t43.5 -25.5t44.5 -20q25 -10 51.5 -24.5t43.5 -34.5t13 -48q-4 -33 -26.5 -54.5t-54.5 -35t-67 -21.5l-2 -10q34 1 64.5 8t55 21t41 37t21.5 56q5 34 -12.5 57
t-45.5 40t-57 30q-18 7 -40 17t-41 22t-30.5 28.5t-7.5 38.5q4 29 24.5 47.5t48.5 28t54 9.5q41 0 74 -20t47 -56zM50 137l-27 -14q4 -38 25.5 -68t56 -47t75.5 -17q40 0 77.5 12t63 38.5t31.5 67.5q6 38 -11.5 64t-46.5 43.5t-59 31.5q-18 8 -39 18t-39.5 23.5t-28.5 31
t-6 41.5q5 29 26.5 50.5t54 36.5t69.5 23l1 8q-36 -2 -66.5 -10.5t-55 -23.5t-40 -36.5t-20.5 -49.5q-5 -35 13.5 -59.5t48.5 -41.5t57 -31q27 -12 55 -27t45 -37.5t11 -56.5q-5 -31 -27 -51t-51.5 -28.5t-58.5 -8.5q-56 1 -92 35t-42 83z" />
    <glyph glyph-name="paragraph" unicode="&#xb6;" horiz-adv-x="472" 
d="M298 270l-84 -489h28l153 893h80l-153 -893h27l158 919h-135q-64 0 -119 -26t-91.5 -74t-47.5 -115q-10 -64 11.5 -111t66.5 -73.5t106 -30.5z" />
    <glyph glyph-name="periodcentered" unicode="&#xb7;" horiz-adv-x="251" 
d="M114 227q-1 -6 1.5 -11.5t7.5 -8.5t11 -4q6 0 12 3t10.5 9t4.5 11q1 7 -1.5 12t-7.5 8.5t-11 3.5q-6 1 -12 -2.5t-10 -9t-5 -11.5z" />
    <glyph glyph-name="bullet" unicode="&#x2022;" horiz-adv-x="291" 
d="M148 388q0 -6 3 -11.5t8.5 -9t12.5 -3.5q6 0 11.5 3.5t8.5 9t3 11.5q0 7 -3 12t-8.5 8.5t-11.5 3.5q-7 0 -12.5 -3t-8.5 -8.5t-3 -12.5z" />
    <glyph glyph-name="uni203D" unicode="&#x203d;" horiz-adv-x="541" 
d="M490 514q-9 -48 -41.5 -84.5t-79.5 -58.5t-101 -25l17 -22q42 3 81 17.5t71.5 39.5t54 58.5t28.5 74.5q6 40 -2.5 75.5t-30.5 62.5t-55.5 42.5t-77.5 15.5q-49 0 -88.5 -15.5t-71 -41.5t-58.5 -59l22 -16q37 43 82.5 73t107.5 30q52 0 86 -23t48.5 -60.5t7.5 -83.5z
M288 510l-51 -339h22l66 339h-37zM198 13q-1 -9 5 -16.5t15 -7.5t17.5 7t9.5 16q0 10 -5.5 17t-14.5 7q-9 1 -17.5 -6.5t-9.5 -16.5z" />
    <glyph glyph-name="plus" unicode="+" horiz-adv-x="552" 
d="M77 240h420l5 30h-420zM313 486l-79 -461h31l81 461h-33z" />
    <glyph glyph-name="minus" unicode="&#x2212;" horiz-adv-x="573" 
d="M83 246h437l5 29h-437z" />
    <glyph glyph-name="plusminus" unicode="&#xb1;" horiz-adv-x="593" 
d="M46 0h468l5 31h-468zM104 370h467l5 30h-468zM359 620l-72 -470h31l74 470h-33z" />
    <glyph glyph-name="divide" unicode="&#xf7;" horiz-adv-x="605" 
d="M328 451q-1 -6 1.5 -11.5t7.5 -9t11 -3.5q5 0 11 3.5t10.5 9t5.5 11.5q0 6 -2.5 11t-7 8.5t-10.5 4.5q-6 0 -12.5 -3.5t-10.5 -9t-4 -11.5zM258 43q-1 -9 5 -16.5t15 -7.5q6 0 12 3t10 9t5 11q1 6 -1.5 11.5t-7.5 9t-11 3.5q-6 1 -12.5 -2.5t-10 -9t-4.5 -11.5zM71 232
h486l5 31h-486z" />
    <glyph glyph-name="multiply" unicode="&#xd7;" horiz-adv-x="566" 
d="M75 40l222 195l155 -196l24 21l-158 194l225 193l-18 23l-224 -196l-154 196l-24 -20l159 -195l-225 -193z" />
    <glyph glyph-name="equal" unicode="=" horiz-adv-x="597" 
d="M66 172h471l4 29h-471zM88 304h471l6 29h-472z" />
    <glyph glyph-name="less" unicode="&#x3c;" horiz-adv-x="621" 
d="M130 258l478 190l5 31l-532 -213l-3 -17l460 -212l5 29z" />
    <glyph glyph-name="greater" unicode="&#x3e;" horiz-adv-x="621" 
d="M526 258l-479 -190l-5 -31l532 212l3 18l-460 212l-5 -30z" />
    <glyph glyph-name="lessequal" unicode="&#x2264;" horiz-adv-x="600" 
d="M20 0l5 31h510l-5 -31h-510zM544 87l-474 212l3 17l546 213l-6 -30l-491 -190l427 -192z" />
    <glyph glyph-name="greaterequal" unicode="&#x2265;" horiz-adv-x="600" 
d="M27 0l6 31h510l-6 -31h-510zM42 87l5 30l491 190l-427 192l5 30l474 -212l-3 -17z" />
    <glyph glyph-name="approxequal" unicode="&#x2248;" horiz-adv-x="600" 
d="M428 337q-29 0 -55 15.5t-54 48.5q-28 35 -51 48.5t-52 13.5q-28 0 -50.5 -16t-34 -43.5t-8.5 -61.5l-28 4q-4 37 12 70t46.5 54.5t65.5 21.5q31 0 60 -18t57 -51q27 -32 47.5 -44.5t46.5 -12.5q40 0 63.5 33.5t18.5 86.5l30 -3q3 -40 -12 -73t-42 -53t-60 -20zM393 122
q-30 0 -55.5 15.5t-54.5 48.5q-28 35 -51 48.5t-52 13.5q-28 0 -50 -16t-33.5 -43.5t-8.5 -61.5l-29 4q-4 37 12.5 70t46.5 54.5t66 21.5q31 0 61 -17.5t58 -50.5q26 -33 45.5 -45.5t45.5 -12.5q39 0 63 33.5t20 87.5l29 -4q3 -40 -11.5 -73t-41.5 -53t-60 -20z" />
    <glyph glyph-name="notequal" unicode="&#x2260;" horiz-adv-x="600" 
d="M104 38l-23 16l431 413l22 -16zM56 172l5 29h485l-5 -29h-485zM78 304l5 29h485l-5 -29h-485z" />
    <glyph glyph-name="logicalnot" unicode="&#xac;" horiz-adv-x="602" 
d="M94 346h449l-30 -170h28l35 199h-476z" />
    <glyph glyph-name="partialdiff" unicode="&#x2202;" horiz-adv-x="543" 
d="M243 -10q52 0 99.5 22t84.5 60.5t58 87t20 102.5q0 27 -5.5 54t-19.5 59.5t-39 77t-64.5 106.5t-94.5 148l-20 -20q40 -60 68 -103t48.5 -77.5t37 -68t35.5 -75.5l12 1q-30 39 -71.5 59t-94.5 20q-46 0 -90 -20.5t-79.5 -56t-57 -81.5t-21.5 -98q0 -60 23.5 -104.5
t67 -68.5t103.5 -24zM243 20q-73 0 -118 45.5t-45 121.5q0 45 19 86t51 74t71 52t80 19q56 0 94.5 -22t58 -59t19.5 -82t-19 -87t-51.5 -75.5t-73.5 -53t-86 -19.5z" />
    <glyph glyph-name="emptyset" unicode="&#x2205;" horiz-adv-x="600" 
d="M271 28q47 0 89.5 17.5t76.5 48t56 70.5t27 84q7 57 -15 104t-65 75.5t-102 28.5q-45 0 -87.5 -17t-77 -47.5t-56.5 -70.5t-27 -85q-7 -57 15 -104t65 -75.5t101 -28.5zM271 53q-51 0 -88.5 25t-55.5 67t-12 91q7 53 40 97.5t81.5 71t101.5 26.5q52 0 89 -25t55.5 -66.5
t11.5 -91.5q-6 -51 -38.5 -95.5t-81 -72t-103.5 -27.5zM90 43l444 382l-15 15l-444 -382z" />
    <glyph glyph-name="product" unicode="&#x220f;" horiz-adv-x="600" 
d="M130 0h80l110 630h120l-110 -630h80l110 630h85l10 70h-450l-10 -70h85z" />
    <glyph glyph-name="summation" unicode="&#x2211;" horiz-adv-x="600" 
d="M62 0h400l5 27h-355l211 324l-104 322h356l4 27h-400l113 -347z" />
    <glyph glyph-name="mu" unicode="&#xb5;" horiz-adv-x="475" 
d="M162 460h-31l-133 -779h29l66 377q8 -29 30.5 -48t64.5 -19q58 -1 101 32t66 81l-17 -104h30l80 460h-30l-52 -287q-6 -40 -30 -75.5t-60 -56.5t-79 -21q-39 0 -60 17.5t-27.5 47t-3.5 64.5z" />
    <glyph glyph-name="uni2215" unicode="&#x2215;" horiz-adv-x="472" 
d="M519 700l-558 -849h32l559 848z" />
    <glyph glyph-name="uni2219" unicode="&#x2219;" horiz-adv-x="263" 
d="M157 439q-1 -6 1.5 -11.5t7.5 -8.5t10 -4q6 0 12 3.5t10.5 9.5t4.5 11q1 6 -1.5 11.5t-7 9t-10.5 3.5t-12.5 -3.5t-10.5 -9t-4 -11.5z" />
    <glyph glyph-name="radical" unicode="&#x221a;" horiz-adv-x="600" 
d="M174 -139l-49 361l25 -11l-107 -24l-2 22l110 25l39 -310l-18 4l246 772h162l-3 -27h-159l29 17z" />
    <glyph glyph-name="infinity" unicode="&#x221e;" horiz-adv-x="804" 
d="M165 66q103 0 237 158q41 -79 86.5 -118.5t98.5 -39.5q45 0 87.5 25.5t73 66.5t38.5 90q8 48 -8.5 89t-51 66t-79.5 25q-103 0 -237 -157q-81 157 -185 157q-45 0 -87.5 -25t-73 -65.5t-38.5 -89.5t8.5 -90t51 -66.5t79.5 -25.5zM171 96q-36 0 -64.5 21.5t-42 56
t-6.5 74.5t32 74t60.5 55.5t71.5 21.5q48 0 91.5 -39.5t76.5 -111.5q-57 -72 -114 -112t-105 -40zM589 96q-48 0 -91.5 40t-75.5 112q56 72 113.5 111.5t105.5 39.5q37 0 65 -21t41.5 -55.5t6.5 -74.5q-6 -40 -31.5 -74.5t-61 -56t-72.5 -21.5z" />
    <glyph glyph-name="integral" unicode="&#x222b;" horiz-adv-x="600" 
d="M110 -200q32 0 59 17.5t47 50t30 76.5l155 697q12 55 39.5 86t62.5 31q17 0 30 -9t30 -30l21 23q-19 24 -37.5 34.5t-41.5 11.5q-31 0 -58 -18t-47 -50.5t-30 -76.5l-155 -697q-12 -54 -39.5 -85t-63.5 -31q-16 0 -29.5 8.5t-30.5 30.5l-20 -23q19 -25 37.5 -35.5
t40.5 -10.5z" />
    <glyph glyph-name="dollar" unicode="$" horiz-adv-x="563" 
d="M353 818l-20 -126h28l20 126h-28zM231 13l-20 -125h28l20 125h-28zM486 538l29 15q-7 38 -27 73.5t-54 59t-86 23.5q-48 0 -91.5 -21t-73 -57.5t-36.5 -83.5q-7 -51 15 -88.5t59 -63t76 -42.5q37 -16 69.5 -39.5t51 -56.5t11.5 -80q-6 -44 -29 -78.5t-61 -54.5t-90 -20
q-53 0 -86 27t-51 68.5t-27 86.5l-29 -16q10 -49 31.5 -94t60 -74t97.5 -30q63 0 109 25t73.5 67.5t34.5 94.5t-11.5 90t-52 64t-74.5 43q-28 13 -55.5 28t-49.5 35t-33 46.5t-6 59.5q7 39 30 69t59 46.5t76 16.5q46 0 74 -21t44 -52.5t23 -65.5z" />
    <glyph glyph-name="cent" unicode="&#xa2;" horiz-adv-x="563" 
d="M271 8l-25 -119h29l18 119h-22zM124 230q10 58 43.5 105.5t83.5 76.5t108 29q48 0 85 -19.5t55 -47.5l6 38q-22 24 -59.5 41t-84.5 17q-67 0 -123.5 -32.5t-94.5 -87t-49 -120.5q-9 -62 11 -117t65.5 -88.5t112.5 -33.5q49 0 91 17t70 40l6 38q-27 -25 -70 -45.5
t-95 -20.5q-58 0 -96.5 30t-55.5 78t-9 102zM365 578l-19 -124h21l26 124h-28z" />
    <glyph glyph-name="sterling" unicode="&#xa3;" horiz-adv-x="563" 
d="M107 324l-5 -29h316l5 29h-316zM515 493l28 8q3 32 -2 68t-21 68t-45.5 52.5t-76.5 20.5q-40 0 -75.5 -14t-63.5 -38.5t-46 -56.5t-24 -69q-5 -41 6 -75.5t27.5 -65.5t28 -63t5.5 -68q-9 -50 -41 -92.5t-74.5 -82.5t-85.5 -85h407l5 31h-374v-15q23 20 53.5 46t60 57.5
t52 68t29.5 76.5q5 38 -6.5 70t-28 62.5t-27 63.5t-4.5 73q7 39 31 72.5t61.5 53.5t80.5 19q40 0 64.5 -18t37.5 -46t16.5 -60.5t1.5 -60.5z" />
    <glyph glyph-name="currency" unicode="&#xa4;" horiz-adv-x="549" 
d="M110 518l60 -72l24 20l-59 73zM54 62l83 71l-17 22l-84 -71zM485 446l83 70l-18 23l-83 -72zM410 135l59 -74l24 22l-59 72zM74 300q-9 -62 11 -116.5t65 -88.5t110 -34t121.5 32.5t94.5 87t48 119.5q9 63 -11 117.5t-65 88.5t-110 34t-121.5 -33t-94.5 -87.5t-48 -119.5
zM105 300q9 57 42 105t82.5 77t106.5 29t94.5 -30.5t54.5 -78.5t8 -102q-9 -56 -42.5 -104t-82.5 -77t-106 -29t-95 30t-54 78.5t-8 101.5z" />
    <glyph glyph-name="yen" unicode="&#xa5;" horiz-adv-x="552" 
d="M54 276h465l5 29h-465zM31 144h466l5 29h-466zM565 699l-276 -389l-136 390h-35l151 -421l-49 -279h33l47 276l302 423h-37z" />
    <glyph glyph-name="Euro" unicode="&#x20ac;" horiz-adv-x="645" 
d="M103 434h486l4 21h-487zM82 314h461l4 21h-461zM187 350q9 65 34.5 124t64 105.5t90.5 73t114 26.5q41 0 74.5 -12.5t62.5 -37.5l7 41q-32 19 -67.5 29.5t-73.5 10.5q-69 0 -126 -29.5t-101 -80.5t-72 -115.5t-39 -134.5q-9 -65 -1.5 -128.5t33 -116t71.5 -83.5t115 -31
q41 -1 79 10.5t72 29.5l7 40q-34 -22 -73.5 -36t-81.5 -13q-62 0 -102 29t-62 76.5t-27.5 105.5t2.5 117z" />
    <glyph glyph-name="florin" unicode="&#x192;" horiz-adv-x="600" 
d="M120 -200q31 0 58 18t46.5 50.5t28.5 75.5l109 487h80l6 29h-81l42 181q12 54 39.5 85.5t62.5 31.5q16 0 29.5 -9t31.5 -30l19 23q-20 24 -38.5 34.5t-41.5 11.5q-32 0 -59 -18t-46 -51t-29 -76l-40 -183h-83l-6 -29h82l-108 -485q-12 -53 -39.5 -84.5t-62.5 -31.5
q-16 0 -30 8.5t-31 30.5l-19 -23q20 -25 39 -35.5t41 -10.5z" />
    <glyph glyph-name="ruble" unicode="&#x20bd;" horiz-adv-x="623" 
d="M222 700l-120 -700h32l120 700h-32zM239 669h123q93 0 138 -40t43 -109q-1 -60 -31 -101.5t-83 -62.5t-124 -21h-124v-31h122q77 0 137.5 24t96 72t37.5 120q3 88 -53 134t-159 46h-123v-31zM201 151h194l6 29h-195zM46 305h194l6 29h-195zM15 151h195l5 29h-195z" />
    <glyph glyph-name="asciicircum" unicode="^" horiz-adv-x="495" 
d="M336 671l116 -211h32l-137 249h-12l-222 -248h35z" />
    <glyph glyph-name="asciitilde" unicode="~" horiz-adv-x="558" 
d="M112 178q-1 5 -1.5 11t0.5 11q6 40 32 69t68 29q22 0 38 -10t29 -24t23 -28q20 -23 43 -43t56 -20q24 -1 46 9.5t37 28.5q14 16 22 37t12 42q1 7 1 14t-1 14l-29 4q1 -7 1 -15.5t-1 -14.5q-5 -36 -27.5 -63.5t-59.5 -26.5q-27 0 -46.5 18.5t-35.5 38.5q-20 24 -44 45.5
t-61 22.5q-27 0 -51 -11t-42 -30q-15 -16 -24 -37t-13 -43q-1 -7 -1 -13v-11z" />
    <glyph glyph-name="acute" unicode="&#xb4;" horiz-adv-x="349" 
d="M348 681l-25 18l-185 -158l16 -12z" />
    <glyph glyph-name="grave" unicode="`" horiz-adv-x="349" 
d="M177 683l148 -154l17 11l-135 160z" />
    <glyph glyph-name="hungarumlaut" unicode="&#x2dd;" horiz-adv-x="0" 
d="M59 523l147 202l-31 10l-137 -204zM177 523l149 202l-32 10l-137 -204z" />
    <glyph glyph-name="circumflex" unicode="&#x2c6;" horiz-adv-x="466" 
d="M326 697l116 -123l20 16l-132 140l-179 -139l17 -17z" />
    <glyph glyph-name="caron" unicode="&#x2c7;" horiz-adv-x="466" 
d="M308 604l-115 123l-22 -17l133 -139l179 138l-18 18z" />
    <glyph glyph-name="breve" unicode="&#x2d8;" horiz-adv-x="530" 
d="M226 850q-3 -36 10.5 -68t44 -51.5t78.5 -19.5q49 0 84 19.5t58 51t32 67.5l-28 1q-8 -29 -27 -55t-48.5 -42t-69.5 -16q-38 0 -63 16t-35.5 42t-9.5 55h-26z" />
    <glyph glyph-name="tilde" unicode="&#x2dc;" horiz-adv-x="514" 
d="M207 643l21 -12q6 17 19 33.5t41 16.5q21 1 37 -10.5t33 -23t40 -12.5q19 0 34 7.5t28 21t23 29.5l-19 15q-13 -19 -27 -33t-35 -14q-23 0 -39.5 11.5l-33 23t-41.5 11.5q-21 0 -37 -9t-27 -23.5t-17 -31.5z" />
    <glyph glyph-name="macron" unicode="&#xaf;" horiz-adv-x="495" 
d="M160 646h340l5 29h-340z" />
    <glyph glyph-name="dieresis" unicode="&#xa8;" horiz-adv-x="423" 
d="M373 681q-1 -9 5 -16.5t15 -7.5q10 0 18 7.5t9 15.5q1 10 -5 17t-16 7q-8 1 -16.5 -6.5t-9.5 -16.5zM179 681q-1 -9 5 -16.5t15 -7.5q10 0 18 7.5t9 15.5q1 10 -5 17t-16 7q-8 1 -16.5 -6.5t-9.5 -16.5z" />
    <glyph glyph-name="dotaccent" unicode="&#x2d9;" horiz-adv-x="251" 
d="M206 763q-1 -10 6 -17t16 -7q10 0 17.5 7t7.5 17t-6 17t-16 7t-17.5 -7t-7.5 -17z" />
    <glyph glyph-name="ring" unicode="&#x2da;" horiz-adv-x="270" 
d="M143 786q-4 -27 6 -49.5t30.5 -36.5t46.5 -14q27 0 51.5 13t42 35.5t21.5 50.5q4 27 -6 49.5t-30 36.5t-47 14q-26 0 -51 -13.5t-42.5 -35.5t-21.5 -50zM164 785q3 22 17 40t34.5 29t41.5 10q30 -1 48.5 -24t14.5 -55q-3 -21 -17 -39t-34.5 -28.5t-41.5 -10.5
q-30 1 -48.5 24t-14.5 54z" />
    <glyph glyph-name="cedilla" unicode="&#xb8;" horiz-adv-x="340" 
d="M152 17l-81 -110q18 10 38 17t39 6q15 -1 26.5 -8t17.5 -19t4 -29q-3 -21 -18 -37t-35 -24.5t-41 -8.5t-36.5 8t-30.5 22l-17 -15q19 -19 37 -28.5t45 -9.5t53 11t44.5 32.5t21.5 49.5q4 32 -14.5 52.5t-45.5 21.5q-15 1 -27 -4t-26 -12l73 85h-27z" />
    <glyph glyph-name="ogonek" unicode="&#x2db;" horiz-adv-x="246" 
d="M157 -160q-14 -12 -35 -22t-47 -9q-30 0 -50 16t-17 47q4 30 29 53.5t58 42t63 32.5l-15 14q-34 -16 -70.5 -36.5t-63 -47.5t-31.5 -63q-5 -40 21.5 -63t71.5 -23q31 -1 56 11.5t42 27.5z" />
    <glyph glyph-name="copyright" unicode="&#xa9;" horiz-adv-x="776" 
d="M241 350q7 54 36 98t73 70.5t97 26.5q39 0 69.5 -13t52.5 -39l5 26q-26 23 -55.5 34.5t-70.5 11.5q-58 0 -107 -29.5t-81 -78t-40 -107.5q-7 -56 10 -105t56.5 -79t97.5 -30q42 -1 75.5 12t62.5 34l4 26q-29 -23 -63.5 -38t-77.5 -14q-53 1 -87 28.5t-49 71.5t-8 94z
M99 350q11 70 44.5 131t84.5 108t115.5 73t135.5 26q69 0 124 -27.5t92 -75t52 -108t5 -127.5q-11 -69 -44.5 -130.5t-85 -108.5t-115 -73t-135.5 -26q-69 0 -124 27.5t-92 75t-52 108.5t-5 127zM76 350q-10 -72 6 -136.5t56 -114.5t99 -79.5t134 -29.5q77 0 145.5 28
t122.5 77.5t89.5 114.5t46.5 140q10 72 -6.5 137t-56 115t-99 79t-134.5 29q-77 0 -145.5 -27.5t-122.5 -77t-89 -115t-46 -140.5z" />
    <glyph glyph-name="registered" unicode="&#xae;" horiz-adv-x="776" 
d="M385 345l103 -195h24l-105 195h-22zM355 570l-65 -420h19l66 420h-20zM360 552h72q48 -1 79 -26.5t24 -74.5t-45.5 -74t-89.5 -27h-71l-3 -18l72 1q58 2 103.5 31.5t53.5 86.5q8 56 -28.5 87t-92.5 32h-71zM99 350q11 70 44.5 131t84.5 108t115.5 73t135.5 26
q69 0 124 -27.5t92 -75t52 -108t5 -127.5q-11 -69 -44.5 -130.5t-85 -108.5t-115 -73t-135.5 -26q-69 0 -124 27.5t-92 75t-52 108.5t-5 127zM76 350q-10 -72 6 -136.5t56 -114.5t99 -79.5t134 -29.5q77 0 145.5 28t122.5 77.5t89.5 114.5t46.5 140q10 72 -6.5 137t-56 115
t-99 79t-134.5 29q-77 0 -145.5 -27.5t-122.5 -77t-89 -115t-46 -140.5z" />
    <glyph glyph-name="trademark" unicode="&#x2122;" horiz-adv-x="645" 
d="M125 684h91l-58 -333h16l58 333h91l3 16h-199zM653 663l-22 -313h16l25 362zM400 711l-101 -360h17l86 311zM673 711l-187 -280l-86 280l-5 -39l86 -276l181 275z" />
    <glyph glyph-name="degree" unicode="&#xb0;" horiz-adv-x="270" 
d="M94 601q-7 -48 20 -84t77 -36q34 0 62.5 16t48 43t24.5 60q5 32 -5 59t-33.5 44t-57.5 17q-33 0 -62.5 -16t-49 -43t-24.5 -60zM113 600q5 28 22 51t41.5 37t52.5 14q42 -1 63.5 -31.5t14.5 -70.5q-3 -28 -20.5 -51t-42 -36.5t-52.5 -13.5q-42 1 -64 31.5t-15 69.5z" />
    <glyph glyph-name="lozenge" unicode="&#x25ca;" horiz-adv-x="600" 
d="M271 15l-149 341l263 340l137 -340zM280 79l205 277l-112 276l-214 -277z" />
    <glyph glyph-name="uni000D" unicode="&#xd;" horiz-adv-x="301" 
 />
    <glyph glyph-name="uni00AD" unicode="&#xad;" horiz-adv-x="204" 
d="M20 246h194l6 29h-195z" />
    <glyph glyph-name="uni0000" horiz-adv-x="301" 
 />
    <glyph glyph-name="a.alt" horiz-adv-x="436" 
d="M62 135q7 40 32 66.5t60 39.5t74 13q38 0 71.5 -11.5t62.5 -35.5l4 22q-20 19 -54.5 34.5t-84.5 16.5q-48 0 -90 -17.5t-69.5 -50t-35.5 -77.5q-6 -44 9.5 -76.5t46 -50t69.5 -17.5q47 0 86.5 21t67.5 58.5t38 88.5l-6 24q-15 -75 -63.5 -120t-113.5 -44q-50 0 -81 31
t-23 85zM123 388q19 13 42 25.5t50 21t58 7.5q35 -1 55.5 -12.5t31 -29.5t12 -38.5t-1.5 -40.5l-57 -321h31l55 323q6 43 -5.5 75.5t-40.5 51.5t-76 20q-52 1 -93 -18t-73 -40z" />
    <glyph glyph-name="agrave.alt" horiz-adv-x="436" 
d="M62 135q7 40 33 67t63 41.5t77 14.5q42 0 73 -12.5t55 -33.5l3 20q-19 19 -50 34.5t-80 15.5q-47 0 -91.5 -17t-75 -50t-38.5 -82q-6 -44 9.5 -76t46.5 -49t71 -17q50 0 89.5 22t66 58t36.5 79l-6 15q-10 -40 -35 -73t-61 -53t-81 -20q-51 0 -82.5 30.5t-22.5 85.5z
M128 383q30 22 68 41t84 18q36 -1 57 -17t29 -42t5 -60l-57 -323h30l56 323q5 41 -6 74t-38.5 52.5t-72.5 20.5q-53 1 -94 -19.5t-74 -43.5zM184 699l145 -154l18 11l-134 160z" />
    <glyph glyph-name="aacute.alt" horiz-adv-x="436" 
d="M62 135q7 40 33 67t63 41.5t77 14.5q42 0 73 -12.5t55 -33.5l3 20q-19 19 -50 34.5t-80 15.5q-47 0 -91.5 -17t-75 -50t-38.5 -82q-6 -44 9.5 -76t46.5 -49t71 -17q50 0 89.5 22t66 58t36.5 79l-6 15q-10 -40 -35 -73t-61 -53t-81 -20q-51 0 -82.5 30.5t-22.5 85.5z
M128 383q30 22 68 41t84 18q36 -1 57 -17t29 -42t5 -60l-57 -323h30l56 323q5 41 -6 74t-38.5 52.5t-72.5 20.5q-53 1 -94 -19.5t-74 -43.5zM448 698l-25 18l-187 -158l16 -13z" />
    <glyph glyph-name="acircumflex.alt" horiz-adv-x="436" 
d="M62 135q7 40 33 67t63 41.5t77 14.5q42 0 73 -12.5t55 -33.5l3 20q-19 19 -50 34.5t-80 15.5q-47 0 -91.5 -17t-75 -50t-38.5 -82q-6 -44 9.5 -76t46.5 -49t71 -17q50 0 89.5 22t66 58t36.5 79l-6 15q-10 -40 -35 -73t-61 -53t-81 -20q-51 0 -82.5 30.5t-22.5 85.5z
M128 383q30 22 68 41t84 18q36 -1 57 -17t29 -42t5 -60l-57 -323h30l56 323q5 41 -6 74t-38.5 52.5t-72.5 20.5q-53 1 -94 -19.5t-74 -43.5zM317 660l116 -123l21 16l-133 141l-179 -139l17 -17z" />
    <glyph glyph-name="atilde.alt" horiz-adv-x="436" 
d="M62 135q7 40 33 67t63 41.5t77 14.5q42 0 73 -12.5t55 -33.5l3 20q-19 19 -50 34.5t-80 15.5q-47 0 -91.5 -17t-75 -50t-38.5 -82q-6 -44 9.5 -76t46.5 -49t71 -17q50 0 89.5 22t66 58t36.5 79l-6 15q-10 -40 -35 -73t-61 -53t-81 -20q-51 0 -82.5 30.5t-22.5 85.5z
M128 383q30 22 68 41t84 18q36 -1 57 -17t29 -42t5 -60l-57 -323h30l56 323q5 41 -6 74t-38.5 52.5t-72.5 20.5q-53 1 -94 -19.5t-74 -43.5zM162 578l19 -12q7 17 21 33.5t42 16.5q21 1 36.5 -10.5t32 -23t39.5 -12.5q19 0 34.5 8t28 21t22.5 29l-17 15q-14 -19 -28.5 -33
t-34.5 -14q-23 0 -39 11.5t-32.5 23t-40.5 11.5q-22 0 -38.5 -9.5t-27.5 -24t-17 -30.5z" />
    <glyph glyph-name="adieresis.alt" horiz-adv-x="436" 
d="M62 135q7 40 33 67t63 41.5t77 14.5q42 0 73 -12.5t55 -33.5l3 20q-19 19 -50 34.5t-80 15.5q-47 0 -91.5 -17t-75 -50t-38.5 -82q-6 -44 9.5 -76t46.5 -49t71 -17q50 0 89.5 22t66 58t36.5 79l-6 15q-10 -40 -35 -73t-61 -53t-81 -20q-51 0 -82.5 30.5t-22.5 85.5z
M128 383q30 22 68 41t84 18q36 -1 57 -17t29 -42t5 -60l-57 -323h30l56 323q5 41 -6 74t-38.5 52.5t-72.5 20.5q-53 1 -94 -19.5t-74 -43.5zM353 568q0 -9 5.5 -16t14.5 -8q10 0 18 7.5t10 16.5q0 9 -5.5 16.5t-14.5 7.5t-17.5 -7t-10.5 -17zM187 568q-1 -9 5 -16t15 -8
q9 0 17.5 7.5t8.5 16.5q2 9 -4 16.5t-15 7.5t-17.5 -7t-9.5 -17z" />
    <glyph glyph-name="aring.alt" horiz-adv-x="436" 
d="M62 135q7 40 33 67t63 41.5t77 14.5q42 0 73 -12.5t55 -33.5l3 20q-19 19 -50 34.5t-80 15.5q-47 0 -91.5 -17t-75 -50t-38.5 -82q-6 -44 9.5 -76t46.5 -49t71 -17q50 0 89.5 22t66 58t36.5 79l-6 15q-10 -40 -35 -73t-61 -53t-81 -20q-51 0 -82.5 30.5t-22.5 85.5z
M128 383q30 22 68 41t84 18q36 -1 57 -17t29 -42t5 -60l-57 -323h30l56 323q5 41 -6 74t-38.5 52.5t-72.5 20.5q-53 1 -94 -19.5t-74 -43.5zM211 631q-6 -40 19 -70t65 -30q27 0 52 13t42.5 35.5t20.5 50.5q4 27 -6 49.5t-29.5 36.5t-46.5 14t-52 -13.5t-42.5 -35.5
t-22.5 -50zM233 630q4 22 18 40t34 29t41 10q30 -1 48.5 -24t14.5 -55q-3 -21 -17 -39t-34.5 -28.5t-40.5 -10.5q-31 1 -49.5 24t-14.5 54z" />
    <glyph glyph-name="amacron.alt" horiz-adv-x="436" 
d="M62 135q7 40 33 67t63 41.5t77 14.5q42 0 73 -12.5t55 -33.5l3 20q-19 19 -50 34.5t-80 15.5q-47 0 -91.5 -17t-75 -50t-38.5 -82q-6 -44 9.5 -76t46.5 -49t71 -17q50 0 89.5 22t66 58t36.5 79l-6 15q-10 -40 -35 -73t-61 -53t-81 -20q-51 0 -82.5 30.5t-22.5 85.5z
M128 383q30 22 68 41t84 18q36 -1 57 -17t29 -42t5 -60l-57 -323h30l56 323q5 41 -6 74t-38.5 52.5t-72.5 20.5q-53 1 -94 -19.5t-74 -43.5zM127 550h341l5 29h-340z" />
    <glyph glyph-name="abreve.alt" horiz-adv-x="436" 
d="M62 135q7 40 33 67t63 41.5t77 14.5q42 0 73 -12.5t55 -33.5l3 20q-19 19 -50 34.5t-80 15.5q-47 0 -91.5 -17t-75 -50t-38.5 -82q-6 -44 9.5 -76t46.5 -49t71 -17q50 0 89.5 22t66 58t36.5 79l-6 15q-10 -40 -35 -73t-61 -53t-81 -20q-51 0 -82.5 30.5t-22.5 85.5z
M128 383q30 22 68 41t84 18q36 -1 57 -17t29 -42t5 -60l-57 -323h30l56 323q5 41 -6 74t-38.5 52.5t-72.5 20.5q-53 1 -94 -19.5t-74 -43.5zM158 677q-3 -36 10 -68t43.5 -51.5t77.5 -19.5q49 0 85.5 19.5t59.5 51t32 67.5h-27q-9 -28 -28.5 -54t-49 -42t-69.5 -16
q-39 0 -63.5 16t-35 42t-7.5 55h-28z" />
    <glyph glyph-name="aogonek.alt" horiz-adv-x="436" 
d="M62 135q7 40 33 67t63 41.5t77 14.5q42 0 73 -12.5t55 -33.5l3 20q-19 19 -50 34.5t-80 15.5q-48 0 -92 -17t-74 -49.5t-38 -80.5q-6 -44 9 -76.5t46 -50t71 -17.5q50 0 89.5 22t66 58t36.5 79l-6 15q-10 -40 -35 -73t-61 -53t-81 -20q-50 0 -81.5 30.5t-23.5 85.5z
M128 383q30 22 68 41t84 18q36 -1 57 -17t29 -42t5 -60l-57 -323h30l56 323q5 41 -6 74t-38.5 52.5t-72.5 20.5q-53 1 -94 -19.5t-74 -43.5zM342 -160q-15 -12 -36 -22t-47 -9q-30 0 -49.5 16t-16.5 47q5 30 30 53.5t59 42t63 32.5l-15 14q-34 -16 -71 -36.5t-64 -47.5
t-33 -63q-6 -40 20.5 -63t72.5 -23q30 -1 55.5 11t42.5 27z" />
    </font>
</defs>
</svg>
