<?xml version="1.0" standalone="no"?>
<!DOCTYPE svg PUBLIC "-//W3C//DTD SVG 1.1//EN" "http://www.w3.org/Graphics/SVG/1.1/DTD/svg11.dtd" >
<svg xmlns="http://www.w3.org/2000/svg" xmlns:xlink="http://www.w3.org/1999/xlink" version="1.1">
<metadata>
Created by FontForge 20230101 at Wed Sep  6 15:02:59 2023
 By Webmaster
Copyright 2021 The Onest Project Authors (https://github.com/simpals/onest)
</metadata>
<defs>
<font id="Onest-Light" horiz-adv-x="0" >
  <font-face 
    font-family="Onest Light"
    font-weight="300"
    font-stretch="normal"
    units-per-em="1000"
    panose-1="0 0 0 0 0 0 0 0 0 0"
    ascent="800"
    descent="-200"
    x-height="527"
    cap-height="707"
    bbox="-163 -303 2855 960"
    underline-thickness="50"
    underline-position="-100"
    unicode-range="U+000D-27F6"
  />
<missing-glyph horiz-adv-x="540" 
d="M20 -295v1255h500v-1255h-500zM30 -285h480v1235h-480v-1235z" />
    <glyph glyph-name=".notdef" horiz-adv-x="540" 
d="M20 -295v1255h500v-1255h-500zM30 -285h480v1235h-480v-1235z" />
    <glyph glyph-name="A" unicode="A" horiz-adv-x="659" 
d="M12 0l268 707h99l268 -707h-79l-58 156h-361l-58 -156h-79zM173 221h312l-156 419z" />
    <glyph glyph-name="Aacute" unicode="&#xc1;" horiz-adv-x="659" 
d="M12 0l268 707h99l268 -707h-79l-58 156h-361l-58 -156h-79zM173 221h312l-156 419zM297 789l82 137h78l-96 -137h-64z" />
    <glyph glyph-name="Abreve" unicode="&#x102;" horiz-adv-x="659" 
d="M12 0l268 707h99l268 -707h-79l-58 156h-361l-58 -156h-79zM173 221h312l-156 419zM329 786q-71 0 -114.5 29.5t-47.5 91.5h65q4 -37 30.5 -51.5t67.5 -14.5t67.5 14.5t30.5 51.5h65q-2 -41 -23.5 -68.5t-57.5 -40t-83 -12.5z" />
    <glyph glyph-name="Acircumflex" unicode="&#xc2;" horiz-adv-x="659" 
d="M12 0l268 707h99l268 -707h-79l-58 156h-361l-58 -156h-79zM173 221h312l-156 419zM178 789l126 151h50l127 -151h-72l-80 97l-80 -97h-71z" />
    <glyph glyph-name="Adieresis" unicode="&#xc4;" horiz-adv-x="659" 
d="M12 0l268 707h99l268 -707h-79l-58 156h-361l-58 -156h-79zM173 221h312l-156 419zM439 794q-22 0 -36.5 14t-14.5 36t14.5 36.5t36.5 14.5q23 0 37.5 -14t14.5 -37q0 -22 -14.5 -36t-37.5 -14zM218 794q-22 0 -36.5 14t-14.5 36t14.5 36.5t36.5 14.5q23 0 38 -14t15 -37
q0 -22 -15 -36t-38 -14z" />
    <glyph glyph-name="Agrave" unicode="&#xc0;" horiz-adv-x="659" 
d="M12 0l268 707h99l268 -707h-79l-58 156h-361l-58 -156h-79zM173 221h312l-156 419zM304 789l-96 137h78l82 -137h-64z" />
    <glyph glyph-name="Amacron" unicode="&#x100;" horiz-adv-x="659" 
d="M12 0l268 707h99l268 -707h-79l-58 156h-361l-58 -156h-79zM173 221h312l-156 419zM173 816v61h313v-61h-313z" />
    <glyph glyph-name="Aogonek" unicode="&#x104;" horiz-adv-x="659" 
d="M12 0l268 707h99l268 -707h-79l-58 156h-361l-58 -156h-79zM173 221h312l-156 419zM619 -216q-56 0 -89.5 28t-33.5 79q0 42 27.5 73.5t62.5 48.5l50 -9q-31 -18 -54.5 -45t-23.5 -59q0 -30 19 -46t50 -17q11 0 22.5 3t22.5 8l12 -50q-16 -8 -31.5 -11t-33.5 -3z" />
    <glyph glyph-name="Aring" unicode="&#xc5;" horiz-adv-x="659" 
d="M12 0l268 707h99l268 -707h-79l-58 156h-361l-58 -156h-79zM173 221h312l-156 419zM329 761q-42 0 -68 24t-26 66q0 41 26.5 68t68.5 27t67.5 -27t25.5 -68q0 -42 -26.5 -66t-67.5 -24zM329 804q22 0 34.5 13t12.5 35t-12.5 35.5t-34.5 13.5t-34.5 -13.5t-12.5 -35.5
t12.5 -35t34.5 -13z" />
    <glyph glyph-name="Atilde" unicode="&#xc3;" horiz-adv-x="659" 
d="M12 0l268 707h99l268 -707h-79l-58 156h-361l-58 -156h-79zM173 221h312l-156 419zM394 781q-25 0 -43.5 11t-33.5 25.5t-28 25.5t-27 11q-16 0 -23.5 -12t-9 -28t-1.5 -29h-58q0 32 8 59.5t28.5 44.5t57.5 17q24 0 42.5 -11t33.5 -26t28 -26t27 -11q18 0 25 12t8.5 28.5
t1.5 28.5h59q0 -31 -8.5 -58.5t-29 -44.5t-57.5 -17z" />
    <glyph glyph-name="AE" unicode="&#xc6;" horiz-adv-x="925" 
d="M12 0l370 707h493v-65h-367v-259h327v-66h-327v-252h367v-65h-439v156h-262l-82 -156h-80zM209 222h227v420h-10z" />
    <glyph glyph-name="B" unicode="B" horiz-adv-x="654" 
d="M88 0v707h245q50 0 92 -8t74 -27t49.5 -53t17.5 -86q0 -59 -29.5 -101t-83.5 -61q71 -10 110.5 -55t39.5 -119q0 -58 -23 -96.5t-61.5 -60.5t-88 -31t-102.5 -9h-240zM160 65h165q33 0 69 4t67 16.5t50 39.5t19 72q0 40 -15 65t-40.5 39.5t-57 20t-64.5 5.5h-193v-262z
M160 391h145q37 0 71.5 7t61.5 23t42.5 42t15.5 65q1 50 -22 74t-60 32t-80 8h-174v-251z" />
    <glyph glyph-name="C" unicode="C" horiz-adv-x="702" 
d="M374 -8q-109 0 -181.5 46.5t-107.5 128.5t-35 186q0 103 36 185t108.5 129.5t181.5 47.5q72 0 126.5 -21.5t91 -62t51.5 -97.5h-73q-20 55 -71.5 85.5t-124.5 30.5q-89 0 -144.5 -41t-82 -108t-26.5 -145q0 -82 27 -150t83 -108.5t143 -40.5q48 0 89 13.5t71 39.5t43 63
h79q-17 -57 -57 -97.5t-97.5 -62t-129.5 -21.5z" />
    <glyph glyph-name="Cacute" unicode="&#x106;" horiz-adv-x="702" 
d="M374 -8q-109 0 -181.5 46.5t-107.5 128.5t-35 186q0 103 36 185t108.5 129.5t181.5 47.5q72 0 126.5 -21.5t91 -62t51.5 -97.5h-73q-20 55 -71.5 85.5t-124.5 30.5q-89 0 -144.5 -41t-82 -108t-26.5 -145q0 -82 27 -150t83 -108.5t143 -40.5q48 0 89 13.5t71 39.5t43 63
h79q-17 -57 -57 -97.5t-97.5 -62t-129.5 -21.5zM336 789l82 137h78l-96 -137h-64z" />
    <glyph glyph-name="Ccaron" unicode="&#x10c;" horiz-adv-x="702" 
d="M374 -8q-109 0 -181.5 46.5t-107.5 128.5t-35 186q0 103 36 185t108.5 129.5t181.5 47.5q72 0 126.5 -21.5t91 -62t51.5 -97.5h-73q-20 55 -71.5 85.5t-124.5 30.5q-89 0 -144.5 -41t-82 -108t-26.5 -145q0 -82 27 -150t83 -108.5t143 -40.5q48 0 89 13.5t71 39.5t43 63
h79q-17 -57 -57 -97.5t-97.5 -62t-129.5 -21.5zM344 789l-127 151h73l80 -96l79 96h72l-127 -151h-50z" />
    <glyph glyph-name="Ccedilla" unicode="&#xc7;" horiz-adv-x="702" 
d="M374 -8q-109 0 -181.5 46.5t-107.5 128.5t-35 186q0 103 36 185t108.5 129.5t181.5 47.5q72 0 126.5 -21.5t91 -62t51.5 -97.5h-73q-20 55 -71.5 85.5t-124.5 30.5q-89 0 -144.5 -41t-82 -108t-26.5 -145q0 -82 27 -150t83 -108.5t143 -40.5q48 0 89 13.5t71 39.5t43 63
h79q-17 -57 -57 -97.5t-97.5 -62t-129.5 -21.5zM341 -250q-11 -1 -23.5 -2t-26.5 0v45q17 0 36 1t37 6.5t29.5 18t11.5 33.5q0 17 -10 25.5t-23.5 11.5t-24.5 3t-26 -2t-27 -7l32 127h50l-20 -76q8 1 14.5 1.5t12.5 0.5q37 0 57.5 -21t20.5 -59q0 -36 -16.5 -58t-43.5 -33.5
t-60 -14.5z" />
    <glyph glyph-name="Ccircumflex" unicode="&#x108;" horiz-adv-x="702" 
d="M374 -8q-109 0 -181.5 46.5t-107.5 128.5t-35 186q0 103 36 185t108.5 129.5t181.5 47.5q72 0 126.5 -21.5t91 -62t51.5 -97.5h-73q-20 55 -71.5 85.5t-124.5 30.5q-89 0 -144.5 -41t-82 -108t-26.5 -145q0 -82 27 -150t83 -108.5t143 -40.5q48 0 89 13.5t71 39.5t43 63
h79q-17 -57 -57 -97.5t-97.5 -62t-129.5 -21.5zM217 789l126 151h50l127 -151h-72l-80 97l-80 -97h-71z" />
    <glyph glyph-name="Cdotaccent" unicode="&#x10a;" horiz-adv-x="702" 
d="M374 -8q-109 0 -181.5 46.5t-107.5 128.5t-35 186q0 103 36 185t108.5 129.5t181.5 47.5q72 0 126.5 -21.5t91 -62t51.5 -97.5h-73q-20 55 -71.5 85.5t-124.5 30.5q-89 0 -144.5 -41t-82 -108t-26.5 -145q0 -82 27 -150t83 -108.5t143 -40.5q48 0 89 13.5t71 39.5t43 63
h79q-17 -57 -57 -97.5t-97.5 -62t-129.5 -21.5zM368 792q-23 0 -37 14t-14 37t14.5 36.5t36.5 13.5q21 0 36.5 -14t15.5 -36q0 -23 -15 -37t-37 -14z" />
    <glyph glyph-name="D" unicode="D" horiz-adv-x="720" 
d="M89 0v707h248q110 0 183.5 -44.5t111 -124t37.5 -185.5q0 -105 -37 -184.5t-111 -124t-184 -44.5h-248zM161 65h170q89 0 147.5 37t87.5 101.5t29 149.5q0 83 -28 148t-85 103t-146 38h-175v-577z" />
    <glyph glyph-name="Dcaron" unicode="&#x10e;" horiz-adv-x="720" 
d="M89 0v707h248q110 0 183.5 -44.5t111 -124t37.5 -185.5q0 -105 -37 -184.5t-111 -124t-184 -44.5h-248zM161 65h170q89 0 147.5 37t87.5 101.5t29 149.5q0 83 -28 148t-85 103t-146 38h-175v-577zM335 789l-127 151h73l80 -96l79 96h72l-127 -151h-50z" />
    <glyph glyph-name="Dcroat" unicode="&#x110;" horiz-adv-x="720" 
d="M89 0v321h-81v64h81v322h248q110 0 184 -44.5t111 -124t37 -185.5q0 -105 -37 -184.5t-111 -124t-184 -44.5h-248zM161 65h170q90 0 148 36.5t87 101.5t29 150t-29 150t-86 102t-144 37h-175v-257h167v-64h-167v-256z" />
    <glyph glyph-name="Eth" unicode="&#xd0;" horiz-adv-x="720" 
d="M89 0v321h-81v64h81v322h248q110 0 184 -44.5t111 -124t37 -185.5q0 -105 -37 -184.5t-111 -124t-184 -44.5h-248zM161 65h170q91 0 149.5 37.5t86.5 102.5t28 148q0 85 -29 150t-86 102t-144 37h-175v-257h167v-64h-167v-256z" />
    <glyph glyph-name="E" unicode="E" horiz-adv-x="608" 
d="M89 0v707h469v-65h-397v-259h357v-66h-357v-252h397v-65h-469z" />
    <glyph glyph-name="Eacute" unicode="&#xc9;" horiz-adv-x="608" 
d="M89 0v707h469v-65h-397v-259h357v-66h-357v-252h397v-65h-469zM294 789l82 137h78l-96 -137h-64z" />
    <glyph glyph-name="Ebreve" unicode="&#x114;" horiz-adv-x="608" 
d="M89 0v707h469v-65h-397v-259h357v-66h-357v-252h397v-65h-469zM326 786q-71 0 -114.5 29.5t-47.5 91.5h65q4 -37 30.5 -51.5t67.5 -14.5t67.5 14.5t30.5 51.5h65q-2 -41 -23.5 -68.5t-57.5 -40t-83 -12.5z" />
    <glyph glyph-name="Ecaron" unicode="&#x11a;" horiz-adv-x="608" 
d="M89 0v707h469v-65h-397v-259h357v-66h-357v-252h397v-65h-469zM302 789l-127 151h73l80 -96l79 96h72l-127 -151h-50z" />
    <glyph glyph-name="Ecircumflex" unicode="&#xca;" horiz-adv-x="608" 
d="M89 0v707h469v-65h-397v-259h357v-66h-357v-252h397v-65h-469zM176 789l126 151h50l127 -151h-72l-80 97l-80 -97h-71z" />
    <glyph glyph-name="Edieresis" unicode="&#xcb;" horiz-adv-x="608" 
d="M89 0v707h469v-65h-397v-259h357v-66h-357v-252h397v-65h-469zM437 794q-22 0 -36.5 14t-14.5 36t14.5 36.5t36.5 14.5q23 0 37.5 -14t14.5 -37q0 -22 -14.5 -36t-37.5 -14zM216 794q-22 0 -36.5 14t-14.5 36t14.5 36.5t36.5 14.5q23 0 38 -14t15 -37q0 -22 -15 -36
t-38 -14z" />
    <glyph glyph-name="Edotaccent" unicode="&#x116;" horiz-adv-x="608" 
d="M89 0v707h469v-65h-397v-259h357v-66h-357v-252h397v-65h-469zM326 792q-23 0 -37 14t-14 37t14.5 36.5t36.5 13.5q21 0 36.5 -14t15.5 -36q0 -23 -15 -37t-37 -14z" />
    <glyph glyph-name="Egrave" unicode="&#xc8;" horiz-adv-x="608" 
d="M89 0v707h469v-65h-397v-259h357v-66h-357v-252h397v-65h-469zM302 789l-96 137h78l82 -137h-64z" />
    <glyph glyph-name="Emacron" unicode="&#x112;" horiz-adv-x="608" 
d="M89 0v707h469v-65h-397v-259h357v-66h-357v-252h397v-65h-469zM170 816v61h313v-61h-313z" />
    <glyph glyph-name="Eogonek" unicode="&#x118;" horiz-adv-x="608" 
d="M89 0v707h469v-65h-397v-259h357v-66h-357v-252h397v-65h-469zM572 -216q-56 0 -89.5 28t-33.5 79q0 42 27.5 73.5t62.5 48.5l50 -9q-31 -18 -54.5 -45t-23.5 -59q0 -30 19 -46t50 -17q11 0 22.5 3t22.5 8l12 -50q-16 -8 -31.5 -11t-33.5 -3z" />
    <glyph glyph-name="F" unicode="F" horiz-adv-x="597" 
d="M89 0v707h469v-65h-397v-285h344v-65h-344v-292h-72z" />
    <glyph glyph-name="G" unicode="G" horiz-adv-x="721" 
d="M374 -8q-109 0 -180.5 46.5t-107 127t-36.5 183.5q0 77 19.5 143.5t59 116.5t100 78t142.5 28q72 0 128 -21t94.5 -61.5t56.5 -98.5h-80q-12 37 -41.5 63t-69.5 39.5t-88 13.5q-66 0 -112.5 -23.5t-76.5 -64.5t-44 -95t-14 -115q0 -81 26.5 -148t81.5 -107t142 -40
q72 0 123 27.5t78.5 78.5t27.5 121h-237v65h305v-52q0 -91 -36 -160t-102.5 -107t-158.5 -38z" />
    <glyph glyph-name="Gbreve" unicode="&#x11e;" horiz-adv-x="721" 
d="M374 -8q-109 0 -180.5 46.5t-107 127t-36.5 183.5q0 77 19.5 143.5t59 116.5t100 78t142.5 28q72 0 128 -21t94.5 -61.5t56.5 -98.5h-80q-12 37 -41.5 63t-69.5 39.5t-88 13.5q-66 0 -112.5 -23.5t-76.5 -64.5t-44 -95t-14 -115q0 -81 26.5 -148t81.5 -107t142 -40
q72 0 123 27.5t78.5 78.5t27.5 121h-237v65h305v-52q0 -91 -36 -160t-102.5 -107t-158.5 -38zM360 786q-71 0 -114.5 29.5t-47.5 91.5h65q4 -37 30.5 -51.5t67.5 -14.5t67.5 14.5t30.5 51.5h65q-2 -41 -23.5 -68.5t-57.5 -40t-83 -12.5z" />
    <glyph glyph-name="Gcircumflex" unicode="&#x11c;" horiz-adv-x="721" 
d="M374 -8q-109 0 -180.5 46.5t-107 127t-36.5 183.5q0 77 19.5 143.5t59 116.5t100 78t142.5 28q72 0 128 -21t94.5 -61.5t56.5 -98.5h-80q-12 37 -41.5 63t-69.5 39.5t-88 13.5q-66 0 -112.5 -23.5t-76.5 -64.5t-44 -95t-14 -115q0 -81 26.5 -148t81.5 -107t142 -40
q72 0 123 27.5t78.5 78.5t27.5 121h-237v65h305v-52q0 -91 -36 -160t-102.5 -107t-158.5 -38zM209 789l126 151h50l127 -151h-72l-80 97l-80 -97h-71z" />
    <glyph glyph-name="uni0122" unicode="&#x122;" horiz-adv-x="721" 
d="M374 -8q-109 0 -180.5 46.5t-107 127t-36.5 183.5q0 77 19.5 143.5t59 116.5t100 78t142.5 28q72 0 128 -21t94.5 -61.5t56.5 -98.5h-80q-12 37 -41.5 63t-69.5 39.5t-88 13.5q-66 0 -112.5 -23.5t-76.5 -64.5t-44 -95t-14 -115q0 -81 26.5 -148t81.5 -107t142 -40
q72 0 123 27.5t78.5 78.5t27.5 121h-237v65h305v-52q0 -91 -36 -160t-102.5 -107t-158.5 -38zM339 -303l-21 29q13 9 25 22t21.5 29t12.5 34q-22 0 -39 12.5t-17 38.5q0 24 16 38t38 14q29 0 43.5 -21.5t13.5 -49.5q-1 -31 -13.5 -60.5t-33 -52t-46.5 -33.5z" />
    <glyph glyph-name="Gdotaccent" unicode="&#x120;" horiz-adv-x="721" 
d="M374 -8q-109 0 -180.5 46.5t-107 127t-36.5 183.5q0 77 19.5 143.5t59 116.5t100 78t142.5 28q72 0 128 -21t94.5 -61.5t56.5 -98.5h-80q-12 37 -41.5 63t-69.5 39.5t-88 13.5q-66 0 -112.5 -23.5t-76.5 -64.5t-44 -95t-14 -115q0 -81 26.5 -148t81.5 -107t142 -40
q72 0 123 27.5t78.5 78.5t27.5 121h-237v65h305v-52q0 -91 -36 -160t-102.5 -107t-158.5 -38zM360 792q-23 0 -37 14t-14 37t14.5 36.5t36.5 13.5q21 0 36.5 -14t15.5 -36q0 -23 -15 -37t-37 -14z" />
    <glyph glyph-name="H" unicode="H" horiz-adv-x="726" 
d="M89 0v707h72v-327h404v327h72v-707h-72v314h-404v-314h-72z" />
    <glyph glyph-name="Hbar" unicode="&#x126;" horiz-adv-x="726" 
d="M89 0v512h-81v62h81v133h72v-133h404v133h72v-133h82v-62h-82v-512h-72v314h-404v-314h-72zM161 380h404v132h-404v-132z" />
    <glyph glyph-name="Hcircumflex" unicode="&#x124;" horiz-adv-x="726" 
d="M89 0v707h72v-327h404v327h72v-707h-72v314h-404v-314h-72zM212 789l126 151h50l127 -151h-72l-80 97l-80 -97h-71z" />
    <glyph glyph-name="I" unicode="I" horiz-adv-x="250" 
d="M89 0v707h72v-707h-72z" />
    <glyph glyph-name="IJ" unicode="&#x132;" horiz-adv-x="728" 
d="M435 -8q-49 0 -87.5 11t-66 34.5t-44 60t-20.5 86.5h75q5 -41 22 -69.5t47.5 -43t74.5 -14.5q54 0 83 23t41 63t12 89v475h72v-466q0 -52 -10 -97.5t-33.5 -79t-64 -53t-101.5 -19.5zM89 0v707h72v-707h-72z" />
    <glyph glyph-name="Iacute" unicode="&#xcd;" horiz-adv-x="250" 
d="M89 0v707h72v-707h-72zM92 789l82 137h78l-96 -137h-64z" />
    <glyph glyph-name="Ibreve" unicode="&#x12c;" horiz-adv-x="250" 
d="M89 0v707h72v-707h-72zM124 786q-71 0 -114.5 29.5t-47.5 91.5h65q4 -37 30.5 -51.5t67.5 -14.5t67.5 14.5t30.5 51.5h65q-2 -41 -23.5 -68.5t-57.5 -40t-83 -12.5z" />
    <glyph glyph-name="Icircumflex" unicode="&#xce;" horiz-adv-x="250" 
d="M89 0v707h72v-707h-72zM-26 789l126 151h50l127 -151h-72l-80 97l-80 -97h-71z" />
    <glyph glyph-name="Idieresis" unicode="&#xcf;" horiz-adv-x="250" 
d="M89 0v707h72v-707h-72zM235 794q-22 0 -36.5 14t-14.5 36t14.5 36.5t36.5 14.5q23 0 37.5 -14t14.5 -37q0 -22 -14.5 -36t-37.5 -14zM14 794q-22 0 -36.5 14t-14.5 36t14.5 36.5t36.5 14.5q23 0 38 -14t15 -37q0 -22 -15 -36t-38 -14z" />
    <glyph glyph-name="Idotaccent" unicode="&#x130;" horiz-adv-x="250" 
d="M89 0v707h72v-707h-72zM124 792q-23 0 -37 14t-14 37t14.5 36.5t36.5 13.5q21 0 36.5 -14t15.5 -36q0 -23 -15 -37t-37 -14z" />
    <glyph glyph-name="Igrave" unicode="&#xcc;" horiz-adv-x="250" 
d="M89 0v707h72v-707h-72zM100 789l-96 137h78l82 -137h-64z" />
    <glyph glyph-name="Imacron" unicode="&#x12a;" horiz-adv-x="250" 
d="M89 0v707h72v-707h-72zM-32 816v61h313v-61h-313z" />
    <glyph glyph-name="Iogonek" unicode="&#x12e;" horiz-adv-x="250" 
d="M89 0v707h72v-707h-72zM144 -216q-56 0 -89.5 28t-33.5 79q0 42 27.5 73.5t62.5 48.5l50 -9q-31 -18 -54.5 -45t-23.5 -59q0 -30 19 -46t50 -17q11 0 22.5 3t22.5 8l12 -50q-16 -8 -31.5 -11t-33.5 -3z" />
    <glyph glyph-name="Itilde" unicode="&#x128;" horiz-adv-x="250" 
d="M89 0v707h72v-707h-72zM189 781q-25 0 -43.5 11t-33.5 25.5t-28 25.5t-27 11q-16 0 -23.5 -12t-9 -28t-1.5 -29h-58q0 32 8 59.5t28.5 44.5t57.5 17q24 0 42.5 -11t33.5 -26t28 -26t27 -11q18 0 25 12t8.5 28.5t1.5 28.5h59q0 -31 -8.5 -58.5t-29 -44.5t-57.5 -17z" />
    <glyph glyph-name="J" unicode="J" horiz-adv-x="555" 
d="M262 -8q-49 0 -87.5 11t-66 34.5t-44 60t-20.5 86.5h74q6 -41 23 -69.5t47 -43t75 -14.5q54 0 83 23t40.5 63t11.5 89v475h73v-466q0 -52 -10 -97.5t-33.5 -79t-64.5 -53t-101 -19.5z" />
    <glyph glyph-name="Jcircumflex" unicode="&#x134;" horiz-adv-x="555" 
d="M262 -8q-49 0 -87.5 11t-66 34.5t-44 60t-20.5 86.5h74q6 -41 23 -69.5t47 -43t75 -14.5q54 0 83 23t40.5 63t11.5 89v475h73v-466q0 -52 -10 -97.5t-33.5 -79t-64.5 -53t-101 -19.5zM283 789l126 151h50l127 -151h-72l-80 97l-80 -97h-71z" />
    <glyph glyph-name="K" unicode="K" horiz-adv-x="616" 
d="M89 0v707h72v-333h118l236 333h83l-253 -351l255 -356h-85l-227 309h-127v-309h-72z" />
    <glyph glyph-name="uni0136" unicode="&#x136;" horiz-adv-x="616" 
d="M89 0v707h72v-333h118l236 333h83l-253 -351l255 -356h-85l-227 309h-127v-309h-72zM273 -303l-21 29q13 9 25 22t21.5 29t12.5 34q-22 0 -39 12.5t-17 38.5q0 24 16 38t38 14q29 0 43.5 -21.5t13.5 -49.5q-1 -31 -13.5 -60.5t-33 -52t-46.5 -33.5z" />
    <glyph glyph-name="L" unicode="L" horiz-adv-x="572" 
d="M89 0v707h72v-642h397v-65h-469z" />
    <glyph glyph-name="Lacute" unicode="&#x139;" horiz-adv-x="572" 
d="M89 0v707h72v-642h397v-65h-469zM95 789l82 137h78l-96 -137h-64z" />
    <glyph glyph-name="Lcaron" unicode="&#x13d;" horiz-adv-x="572" 
d="M89 0v707h72v-642h397v-65h-469zM316 497l-21 28q13 9 25 22.5t21 29.5t13 33q-22 0 -39 12.5t-17 38.5q0 24 15 38t39 14q29 0 43 -21.5t14 -49.5q0 -31 -13 -60.5t-34 -51.5t-46 -33z" />
    <glyph glyph-name="uni013B" unicode="&#x13b;" horiz-adv-x="572" 
d="M89 0v707h72v-642h397v-65h-469zM288 -303l-21 29q13 9 25 22t21.5 29t12.5 34q-22 0 -39 12.5t-17 38.5q0 24 16 38t38 14q29 0 43.5 -21.5t13.5 -49.5q-1 -31 -13.5 -60.5t-33 -52t-46.5 -33.5z" />
    <glyph glyph-name="Ldot" unicode="&#x13f;" horiz-adv-x="572" 
d="M89 0v707h72v-642h397v-65h-469zM361 338q-22 0 -36.5 14t-14.5 37q0 22 14 36t37 14t37.5 -14t14.5 -36q0 -23 -14.5 -37t-37.5 -14z" />
    <glyph glyph-name="Lslash" unicode="&#x141;" horiz-adv-x="581" 
d="M98 0v288l-66 -43l-35 52l101 67v343h72v-297l113 75l35 -52l-148 -97v-271h397v-65h-469z" />
    <glyph glyph-name="M" unicode="M" horiz-adv-x="849" 
d="M89 0v707h108l231 -410l226 410h106v-707h-72v629l-245 -441h-34l-248 441v-629h-72z" />
    <glyph glyph-name="N" unicode="N" horiz-adv-x="742" 
d="M89 0v707h94l398 -612v612h72v-707h-92l-400 611v-611h-72z" />
    <glyph glyph-name="Nacute" unicode="&#x143;" horiz-adv-x="742" 
d="M89 0v707h94l398 -612v612h72v-707h-92l-400 611v-611h-72zM338 789l82 137h78l-96 -137h-64z" />
    <glyph glyph-name="Ncaron" unicode="&#x147;" horiz-adv-x="742" 
d="M89 0v707h94l398 -612v612h72v-707h-92l-400 611v-611h-72zM346 789l-127 151h73l80 -96l79 96h72l-127 -151h-50z" />
    <glyph glyph-name="uni0145" unicode="&#x145;" horiz-adv-x="742" 
d="M89 0v707h94l398 -612v612h72v-707h-92l-400 611v-611h-72zM334 -303l-21 29q13 9 25 22t21.5 29t12.5 34q-22 0 -39 12.5t-17 38.5q0 24 16 38t38 14q29 0 43.5 -21.5t13.5 -49.5q-1 -31 -13.5 -60.5t-33 -52t-46.5 -33.5z" />
    <glyph glyph-name="Ntilde" unicode="&#xd1;" horiz-adv-x="742" 
d="M89 0v707h94l398 -612v612h72v-707h-92l-400 611v-611h-72zM435 781q-25 0 -43.5 11t-33.5 25.5t-28 25.5t-27 11q-16 0 -23.5 -12t-9 -28t-1.5 -29h-58q0 32 8 59.5t28.5 44.5t57.5 17q24 0 42.5 -11t33.5 -26t28 -26t27 -11q18 0 25 12t8.5 28.5t1.5 28.5h59
q0 -31 -8.5 -58.5t-29 -44.5t-57.5 -17z" />
    <glyph glyph-name="Eng" unicode="&#x14a;" horiz-adv-x="742" 
d="M444 -185v61h40q43 0 63 14.5t26.5 42.5t6.5 67h-18l-401 611v-611h-72v707h94l398 -613v613h72v-718q0 -58 -15 -97t-50 -58t-97 -19h-47z" />
    <glyph glyph-name="O" unicode="O" horiz-adv-x="763" 
d="M382 -8q-110 0 -183.5 47t-111 129t-37.5 185q0 104 37.5 186t111 129t183.5 47t183 -47t110.5 -129t37.5 -186q0 -103 -37.5 -185t-110.5 -129t-183 -47zM382 57q88 0 145 40t84.5 107.5t27.5 148.5q0 61 -15.5 115t-47.5 95t-80.5 64t-113.5 23q-87 0 -144.5 -40.5
t-86 -108t-28.5 -148.5q0 -80 28 -147.5t86 -108t145 -40.5z" />
    <glyph glyph-name="Oacute" unicode="&#xd3;" horiz-adv-x="763" 
d="M382 -8q-110 0 -183.5 47t-111 129t-37.5 185q0 104 37.5 186t111 129t183.5 47t183 -47t110.5 -129t37.5 -186q0 -103 -37.5 -185t-110.5 -129t-183 -47zM382 57q88 0 145 40t84.5 107.5t27.5 148.5q0 61 -15.5 115t-47.5 95t-80.5 64t-113.5 23q-87 0 -144.5 -40.5
t-86 -108t-28.5 -148.5q0 -80 28 -147.5t86 -108t145 -40.5zM349 789l82 137h78l-96 -137h-64z" />
    <glyph glyph-name="Obreve" unicode="&#x14e;" horiz-adv-x="763" 
d="M382 -8q-110 0 -183.5 47t-111 129t-37.5 185q0 104 37.5 186t111 129t183.5 47t183 -47t110.5 -129t37.5 -186q0 -103 -37.5 -185t-110.5 -129t-183 -47zM382 57q88 0 145 40t84.5 107.5t27.5 148.5q0 61 -15.5 115t-47.5 95t-80.5 64t-113.5 23q-87 0 -144.5 -40.5
t-86 -108t-28.5 -148.5q0 -80 28 -147.5t86 -108t145 -40.5zM381 786q-71 0 -114.5 29.5t-47.5 91.5h65q4 -37 30.5 -51.5t67.5 -14.5t67.5 14.5t30.5 51.5h65q-2 -41 -23.5 -68.5t-57.5 -40t-83 -12.5z" />
    <glyph glyph-name="Ocircumflex" unicode="&#xd4;" horiz-adv-x="763" 
d="M382 -8q-110 0 -183.5 47t-111 129t-37.5 185q0 104 37.5 186t111 129t183.5 47t183 -47t110.5 -129t37.5 -186q0 -103 -37.5 -185t-110.5 -129t-183 -47zM382 57q88 0 145 40t84.5 107.5t27.5 148.5q0 61 -15.5 115t-47.5 95t-80.5 64t-113.5 23q-87 0 -144.5 -40.5
t-86 -108t-28.5 -148.5q0 -80 28 -147.5t86 -108t145 -40.5zM230 789l126 151h50l127 -151h-72l-80 97l-80 -97h-71z" />
    <glyph glyph-name="Odieresis" unicode="&#xd6;" horiz-adv-x="763" 
d="M382 -8q-110 0 -183.5 47t-111 129t-37.5 185q0 104 37.5 186t111 129t183.5 47t183 -47t110.5 -129t37.5 -186q0 -103 -37.5 -185t-110.5 -129t-183 -47zM382 57q88 0 145 40t84.5 107.5t27.5 148.5q0 61 -15.5 115t-47.5 95t-80.5 64t-113.5 23q-87 0 -144.5 -40.5
t-86 -108t-28.5 -148.5q0 -80 28 -147.5t86 -108t145 -40.5zM492 794q-22 0 -36.5 14t-14.5 36t14.5 36.5t36.5 14.5q23 0 37.5 -14t14.5 -37q0 -22 -14.5 -36t-37.5 -14zM271 794q-22 0 -36.5 14t-14.5 36t14.5 36.5t36.5 14.5q23 0 38 -14t15 -37q0 -22 -15 -36t-38 -14z
" />
    <glyph glyph-name="Ograve" unicode="&#xd2;" horiz-adv-x="763" 
d="M382 -8q-110 0 -183.5 47t-111 129t-37.5 185q0 104 37.5 186t111 129t183.5 47t183 -47t110.5 -129t37.5 -186q0 -103 -37.5 -185t-110.5 -129t-183 -47zM382 57q88 0 145 40t84.5 107.5t27.5 148.5q0 61 -15.5 115t-47.5 95t-80.5 64t-113.5 23q-87 0 -144.5 -40.5
t-86 -108t-28.5 -148.5q0 -80 28 -147.5t86 -108t145 -40.5zM356 789l-96 137h78l82 -137h-64z" />
    <glyph glyph-name="Ohungarumlaut" unicode="&#x150;" horiz-adv-x="763" 
d="M382 -8q-110 0 -183.5 47t-111 129t-37.5 185q0 104 37.5 186t111 129t183.5 47t183 -47t110.5 -129t37.5 -186q0 -103 -37.5 -185t-110.5 -129t-183 -47zM382 57q88 0 145 40t84.5 107.5t27.5 148.5q0 61 -15.5 115t-47.5 95t-80.5 64t-113.5 23q-87 0 -144.5 -40.5
t-86 -108t-28.5 -148.5q0 -80 28 -147.5t86 -108t145 -40.5zM403 789l82 137h78l-96 -137h-64zM257 789l82 137h78l-96 -137h-64z" />
    <glyph glyph-name="Omacron" unicode="&#x14c;" horiz-adv-x="763" 
d="M382 -8q-110 0 -183.5 47t-111 129t-37.5 185q0 104 37.5 186t111 129t183.5 47t183 -47t110.5 -129t37.5 -186q0 -103 -37.5 -185t-110.5 -129t-183 -47zM382 57q88 0 145 40t84.5 107.5t27.5 148.5q0 61 -15.5 115t-47.5 95t-80.5 64t-113.5 23q-87 0 -144.5 -40.5
t-86 -108t-28.5 -148.5q0 -80 28 -147.5t86 -108t145 -40.5zM225 816v61h313v-61h-313z" />
    <glyph glyph-name="Oslash" unicode="&#xd8;" horiz-adv-x="763" 
d="M153 -110l58 142q-55 32 -91 80.5t-53 110t-17 130.5q0 104 37.5 186t111 129t183.5 47q29 0 55.5 -3.5t50.5 -10.5l48 115h73l-58 -141q57 -32 92.5 -81t52.5 -110t17 -131q0 -103 -37.5 -185t-110.5 -129t-183 -47q-30 0 -57 3.5t-51 10.5l-48 -116h-73zM238 96
l225 543q-19 6 -39 8.5t-42 2.5q-87 0 -144.5 -40.5t-86 -108t-28.5 -148.5q0 -54 13 -102.5t38.5 -88t63.5 -66.5zM382 57q88 0 145 40t84.5 107.5t27.5 148.5q0 55 -12.5 103.5t-37.5 88.5t-65 65l-224 -542q39 -11 82 -11z" />
    <glyph glyph-name="Otilde" unicode="&#xd5;" horiz-adv-x="763" 
d="M382 -8q-110 0 -183.5 47t-111 129t-37.5 185q0 104 37.5 186t111 129t183.5 47t183 -47t110.5 -129t37.5 -186q0 -103 -37.5 -185t-110.5 -129t-183 -47zM382 57q88 0 145 40t84.5 107.5t27.5 148.5q0 61 -15.5 115t-47.5 95t-80.5 64t-113.5 23q-87 0 -144.5 -40.5
t-86 -108t-28.5 -148.5q0 -80 28 -147.5t86 -108t145 -40.5zM446 781q-25 0 -43.5 11t-33.5 25.5t-28 25.5t-27 11q-16 0 -23.5 -12t-9 -28t-1.5 -29h-58q0 32 8 59.5t28.5 44.5t57.5 17q24 0 42.5 -11t33.5 -26t28 -26t27 -11q18 0 25 12t8.5 28.5t1.5 28.5h59
q0 -31 -8.5 -58.5t-29 -44.5t-57.5 -17z" />
    <glyph glyph-name="OE" unicode="&#x152;" horiz-adv-x="1134" 
d="M382 -8q-110 0 -183.5 47t-111 129t-37.5 185q0 104 37.5 186t111 129t183.5 47q74 0 133.5 -24.5t104.5 -80.5v97h464v-65h-392v-259h352v-66h-352v-252h392v-65h-464v97q-45 -56 -105 -80.5t-133 -24.5zM382 57q66 0 113.5 23.5t79 65t46.5 94.5v228q-10 45 -39.5 87
t-79 68.5t-120.5 26.5q-87 0 -144.5 -40.5t-86 -108t-28.5 -148.5q0 -80 28 -147.5t85.5 -108t145.5 -40.5z" />
    <glyph glyph-name="P" unicode="P" horiz-adv-x="628" 
d="M89 0v707h242q77 0 132 -25t84.5 -76.5t29.5 -130.5q0 -78 -34.5 -131t-94 -79t-136.5 -26h-151v-239h-72zM161 304h148q86 0 140 41t54 134q0 84 -45.5 123.5t-131.5 39.5h-165v-338z" />
    <glyph glyph-name="Thorn" unicode="&#xde;" horiz-adv-x="628" 
d="M89 0v707h72v-124h170q77 0 132 -24t84.5 -74.5t29.5 -130.5t-35 -131.5t-95 -76.5t-135 -25h-151v-121h-72zM161 186h147q59 0 102.5 17.5t68 55.5t24.5 99q0 84 -45.5 121.5t-131.5 37.5h-165v-331z" />
    <glyph glyph-name="Q" unicode="Q" horiz-adv-x="763" 
d="M639 -127l-108 149q-33 -15 -70 -22.5t-79 -7.5q-110 0 -183.5 47t-111 129t-37.5 185q0 104 37.5 186t111 129t183.5 47t183 -47t110.5 -129t37.5 -186q0 -92 -30.5 -167t-90.5 -125l105 -145zM382 57q89 0 145.5 40t84 107.5t27.5 148.5q0 82 -28 149t-84.5 107.5
t-144.5 40.5q-87 0 -144.5 -40.5t-86 -108t-28.5 -148.5q0 -80 28 -147.5t85.5 -108t145.5 -40.5z" />
    <glyph glyph-name="R" unicode="R" horiz-adv-x="657" 
d="M89 0v707h262q58 0 104 -11.5t79 -37.5t50.5 -67.5t17.5 -101.5q0 -57 -21.5 -98.5t-58 -67.5t-84.5 -39l152 -284h-80l-145 272h-204v-272h-72zM161 337h162q41 0 77.5 6.5t65 23t45 47t17.5 78.5q0 57 -22.5 89.5t-64.5 46.5t-99 14h-181v-305z" />
    <glyph glyph-name="Racute" unicode="&#x154;" horiz-adv-x="657" 
d="M89 0v707h262q58 0 104 -11.5t79 -37.5t50.5 -67.5t17.5 -101.5q0 -57 -21.5 -98.5t-58 -67.5t-84.5 -39l152 -284h-80l-145 272h-204v-272h-72zM161 337h162q41 0 77.5 6.5t65 23t45 47t17.5 78.5q0 57 -22.5 89.5t-64.5 46.5t-99 14h-181v-305zM295 789l82 137h78
l-96 -137h-64z" />
    <glyph glyph-name="Rcaron" unicode="&#x158;" horiz-adv-x="657" 
d="M89 0v707h262q58 0 104 -11.5t79 -37.5t50.5 -67.5t17.5 -101.5q0 -57 -21.5 -98.5t-58 -67.5t-84.5 -39l152 -284h-80l-145 272h-204v-272h-72zM161 337h162q41 0 77.5 6.5t65 23t45 47t17.5 78.5q0 57 -22.5 89.5t-64.5 46.5t-99 14h-181v-305zM303 789l-127 151h73
l80 -96l79 96h72l-127 -151h-50z" />
    <glyph glyph-name="uni0156" unicode="&#x156;" horiz-adv-x="657" 
d="M89 0v707h262q58 0 104 -11.5t79 -37.5t50.5 -67.5t17.5 -101.5q0 -57 -21.5 -98.5t-58 -67.5t-84.5 -39l152 -284h-80l-145 272h-204v-272h-72zM161 337h162q41 0 77.5 6.5t65 23t45 47t17.5 78.5q0 57 -22.5 89.5t-64.5 46.5t-99 14h-181v-305zM292 -303l-21 29
q13 9 25 22t21.5 29t12.5 34q-22 0 -39 12.5t-17 38.5q0 24 16 38t38 14q29 0 43.5 -21.5t13.5 -49.5q-1 -31 -13.5 -60.5t-33 -52t-46.5 -33.5z" />
    <glyph glyph-name="S" unicode="S" horiz-adv-x="649" 
d="M340 -8q-65 0 -122.5 17.5t-99.5 57t-59 106.5h76q17 -45 50 -70.5t74.5 -35.5t83.5 -10q44 0 83 12.5t64 41t25 72.5q0 36 -13.5 58t-37.5 35.5t-55 22.5q-31 10 -65.5 17t-68 16t-62.5 22q-25 10 -48.5 23.5t-42 33t-29.5 47t-11 63.5q0 43 14 75.5t37.5 55t55 36.5
t67.5 20.5t73 6.5q59 0 111 -17.5t87 -56t41 -103.5h-72q-7 42 -32 66.5t-60.5 35t-74.5 10.5q-29 0 -59.5 -5.5t-56 -19.5t-40.5 -37.5t-15 -59.5q0 -32 12.5 -54.5t34.5 -37t48 -23.5q46 -17 98.5 -27t99.5 -26q30 -10 55.5 -24.5t44 -34.5t28.5 -45.5t10 -57.5
q0 -57 -20 -96.5t-55 -63.5t-80 -35t-94 -11z" />
    <glyph glyph-name="Sacute" unicode="&#x15a;" horiz-adv-x="649" 
d="M340 -8q-65 0 -122.5 17.5t-99.5 57t-59 106.5h76q17 -45 50 -70.5t74.5 -35.5t83.5 -10q44 0 83 12.5t64 41t25 72.5q0 36 -13.5 58t-37.5 35.5t-55 22.5q-31 10 -65.5 17t-68 16t-62.5 22q-25 10 -48.5 23.5t-42 33t-29.5 47t-11 63.5q0 43 14 75.5t37.5 55t55 36.5
t67.5 20.5t73 6.5q59 0 111 -17.5t87 -56t41 -103.5h-72q-7 42 -32 66.5t-60.5 35t-74.5 10.5q-29 0 -59.5 -5.5t-56 -19.5t-40.5 -37.5t-15 -59.5q0 -32 12.5 -54.5t34.5 -37t48 -23.5q46 -17 98.5 -27t99.5 -26q30 -10 55.5 -24.5t44 -34.5t28.5 -45.5t10 -57.5
q0 -57 -20 -96.5t-55 -63.5t-80 -35t-94 -11zM292 789l82 137h78l-96 -137h-64z" />
    <glyph glyph-name="Scaron" unicode="&#x160;" horiz-adv-x="649" 
d="M340 -8q-65 0 -122.5 17.5t-99.5 57t-59 106.5h76q17 -45 50 -70.5t74.5 -35.5t83.5 -10q44 0 83 12.5t64 41t25 72.5q0 36 -13.5 58t-37.5 35.5t-55 22.5q-31 10 -65.5 17t-68 16t-62.5 22q-25 10 -48.5 23.5t-42 33t-29.5 47t-11 63.5q0 43 14 75.5t37.5 55t55 36.5
t67.5 20.5t73 6.5q59 0 111 -17.5t87 -56t41 -103.5h-72q-7 42 -32 66.5t-60.5 35t-74.5 10.5q-29 0 -59.5 -5.5t-56 -19.5t-40.5 -37.5t-15 -59.5q0 -32 12.5 -54.5t34.5 -37t48 -23.5q46 -17 98.5 -27t99.5 -26q30 -10 55.5 -24.5t44 -34.5t28.5 -45.5t10 -57.5
q0 -57 -20 -96.5t-55 -63.5t-80 -35t-94 -11zM300 789l-127 151h73l80 -96l79 96h72l-127 -151h-50z" />
    <glyph glyph-name="Scedilla" unicode="&#x15e;" horiz-adv-x="649" 
d="M340 -8q-65 0 -122.5 17.5t-99.5 57t-59 106.5h76q17 -45 50 -70.5t74.5 -35.5t83.5 -10q44 0 83 12.5t64 41t25 72.5q0 36 -13.5 58t-37.5 35.5t-55 22.5q-31 10 -65.5 17t-68 16t-62.5 22q-25 10 -48.5 23.5t-42 33t-29.5 47t-11 63.5q0 43 14 75.5t37.5 55t55 36.5
t67.5 20.5t73 6.5q59 0 111 -17.5t87 -56t41 -103.5h-72q-7 42 -32 66.5t-60.5 35t-74.5 10.5q-29 0 -59.5 -5.5t-56 -19.5t-40.5 -37.5t-15 -59.5q0 -32 12.5 -54.5t34.5 -37t48 -23.5q46 -17 98.5 -27t99.5 -26q30 -10 55.5 -24.5t44 -34.5t28.5 -45.5t10 -57.5
q0 -57 -20 -96.5t-55 -63.5t-80 -35t-94 -11zM315 -250q-11 -1 -23.5 -2t-26.5 0v45q17 0 36 1t37 6.5t29.5 18t11.5 33.5q0 17 -10 25.5t-23.5 11.5t-24.5 3t-26 -2t-27 -7l32 127h50l-20 -76q8 1 14.5 1.5t12.5 0.5q37 0 57.5 -21t20.5 -59q0 -36 -16.5 -58t-43.5 -33.5
t-60 -14.5z" />
    <glyph glyph-name="Scircumflex" unicode="&#x15c;" horiz-adv-x="649" 
d="M340 -8q-65 0 -122.5 17.5t-99.5 57t-59 106.5h76q17 -45 50 -70.5t74.5 -35.5t83.5 -10q44 0 83 12.5t64 41t25 72.5q0 36 -13.5 58t-37.5 35.5t-55 22.5q-31 10 -65.5 17t-68 16t-62.5 22q-25 10 -48.5 23.5t-42 33t-29.5 47t-11 63.5q0 43 14 75.5t37.5 55t55 36.5
t67.5 20.5t73 6.5q59 0 111 -17.5t87 -56t41 -103.5h-72q-7 42 -32 66.5t-60.5 35t-74.5 10.5q-29 0 -59.5 -5.5t-56 -19.5t-40.5 -37.5t-15 -59.5q0 -32 12.5 -54.5t34.5 -37t48 -23.5q46 -17 98.5 -27t99.5 -26q30 -10 55.5 -24.5t44 -34.5t28.5 -45.5t10 -57.5
q0 -57 -20 -96.5t-55 -63.5t-80 -35t-94 -11zM173 789l126 151h50l127 -151h-72l-80 97l-80 -97h-71z" />
    <glyph glyph-name="uni0218" unicode="&#x218;" horiz-adv-x="649" 
d="M340 -8q-65 0 -122.5 17.5t-99.5 57t-59 106.5h76q17 -45 50 -70.5t74.5 -35.5t83.5 -10q44 0 83 12.5t64 41t25 72.5q0 36 -13.5 58t-37.5 35.5t-55 22.5q-31 10 -65.5 17t-68 16t-62.5 22q-25 10 -48.5 23.5t-42 33t-29.5 47t-11 63.5q0 43 14 75.5t37.5 55t55 36.5
t67.5 20.5t73 6.5q59 0 111 -17.5t87 -56t41 -103.5h-72q-7 42 -32 66.5t-60.5 35t-74.5 10.5q-29 0 -59.5 -5.5t-56 -19.5t-40.5 -37.5t-15 -59.5q0 -32 12.5 -54.5t34.5 -37t48 -23.5q46 -17 98.5 -27t99.5 -26q30 -10 55.5 -24.5t44 -34.5t28.5 -45.5t10 -57.5
q0 -57 -20 -96.5t-55 -63.5t-80 -35t-94 -11zM289 -303l-21 29q13 9 25 22t21.5 29t12.5 34q-22 0 -39 12.5t-17 38.5q0 24 16 38t38 14q29 0 43.5 -21.5t13.5 -49.5q-1 -31 -13.5 -60.5t-33 -52t-46.5 -33.5z" />
    <glyph glyph-name="uni1E9E" unicode="&#x1e9e;" horiz-adv-x="684" 
d="M454 -8q-47 0 -87.5 15t-68 45.5t-35.5 74.5h74q10 -37 43.5 -53.5t76.5 -16.5q47 0 76.5 24.5t29.5 66.5q0 34 -20.5 59.5t-52.5 46t-67 36.5q-34 17 -67 32t-62 29l165 221q-19 40 -61 59t-84 19t-77.5 -16t-56.5 -46t-21 -74v-514h-72v518q0 67 31 110.5t83.5 65
t117.5 21.5q47 0 92.5 -16t80 -48t47.5 -81l-150 -190q23 -11 46.5 -22t46.5 -23q44 -22 78.5 -47.5t54.5 -58.5t20 -79q0 -50 -23.5 -85.5t-64 -54t-93.5 -18.5z" />
    <glyph glyph-name="T" unicode="T" horiz-adv-x="568" 
d="M248 0v642h-232v65h536v-65h-232v-642h-72z" />
    <glyph glyph-name="Tbar" unicode="&#x166;" horiz-adv-x="568" 
d="M248 0v310h-124v61h124v271h-232v65h536v-65h-232v-271h123v-61h-123v-310h-72z" />
    <glyph glyph-name="Tcaron" unicode="&#x164;" horiz-adv-x="568" 
d="M248 0v642h-232v65h536v-65h-232v-642h-72zM259 789l-127 151h73l80 -96l79 96h72l-127 -151h-50z" />
    <glyph glyph-name="uni0162" unicode="&#x162;" horiz-adv-x="568" 
d="M248 0v642h-232v65h536v-65h-232v-642h-72zM274 -250q-11 -1 -23.5 -2t-26.5 0v45q17 0 36 1t37 6.5t29.5 18t11.5 33.5q0 17 -10 25.5t-23.5 11.5t-24.5 3t-26 -2t-27 -7l32 127h50l-20 -76q8 1 14.5 1.5t12.5 0.5q37 0 57.5 -21t20.5 -59q0 -36 -16.5 -58t-43.5 -33.5
t-60 -14.5z" />
    <glyph glyph-name="uni021A" unicode="&#x21a;" horiz-adv-x="568" 
d="M248 0v642h-232v65h536v-65h-232v-642h-72zM248 -303l-21 29q13 9 25 22t21.5 29t12.5 34q-22 0 -39 12.5t-17 38.5q0 24 16 38t38 14q29 0 43.5 -21.5t13.5 -49.5q-1 -31 -13.5 -60.5t-33 -52t-46.5 -33.5z" />
    <glyph glyph-name="U" unicode="U" horiz-adv-x="723" 
d="M362 -8q-98 0 -159.5 40.5t-90 110.5t-28.5 160v404h72v-402q0 -68 20 -124.5t65.5 -90t121.5 -33.5t120.5 33.5t64 90t19.5 124.5v402h72v-404q0 -89 -28.5 -159.5t-89.5 -111t-159 -40.5z" />
    <glyph glyph-name="Uacute" unicode="&#xda;" horiz-adv-x="723" 
d="M362 -8q-98 0 -159.5 40.5t-90 110.5t-28.5 160v404h72v-402q0 -68 20 -124.5t65.5 -90t121.5 -33.5t120.5 33.5t64 90t19.5 124.5v402h72v-404q0 -89 -28.5 -159.5t-89.5 -111t-159 -40.5zM329 789l82 137h78l-96 -137h-64z" />
    <glyph glyph-name="Ubreve" unicode="&#x16c;" horiz-adv-x="723" 
d="M362 -8q-98 0 -159.5 40.5t-90 110.5t-28.5 160v404h72v-402q0 -68 20 -124.5t65.5 -90t121.5 -33.5t120.5 33.5t64 90t19.5 124.5v402h72v-404q0 -89 -28.5 -159.5t-89.5 -111t-159 -40.5zM361 786q-71 0 -114.5 29.5t-47.5 91.5h65q4 -37 30.5 -51.5t67.5 -14.5
t67.5 14.5t30.5 51.5h65q-2 -41 -23.5 -68.5t-57.5 -40t-83 -12.5z" />
    <glyph glyph-name="Ucircumflex" unicode="&#xdb;" horiz-adv-x="723" 
d="M362 -8q-98 0 -159.5 40.5t-90 110.5t-28.5 160v404h72v-402q0 -68 20 -124.5t65.5 -90t121.5 -33.5t120.5 33.5t64 90t19.5 124.5v402h72v-404q0 -89 -28.5 -159.5t-89.5 -111t-159 -40.5zM210 789l126 151h50l127 -151h-72l-80 97l-80 -97h-71z" />
    <glyph glyph-name="Udieresis" unicode="&#xdc;" horiz-adv-x="723" 
d="M362 -8q-98 0 -159.5 40.5t-90 110.5t-28.5 160v404h72v-402q0 -68 20 -124.5t65.5 -90t121.5 -33.5t120.5 33.5t64 90t19.5 124.5v402h72v-404q0 -89 -28.5 -159.5t-89.5 -111t-159 -40.5zM471 794q-22 0 -36.5 14t-14.5 36t14.5 36.5t36.5 14.5q23 0 37.5 -14t14.5 -37
q0 -22 -14.5 -36t-37.5 -14zM250 794q-22 0 -36.5 14t-14.5 36t14.5 36.5t36.5 14.5q23 0 38 -14t15 -37q0 -22 -15 -36t-38 -14z" />
    <glyph glyph-name="Ugrave" unicode="&#xd9;" horiz-adv-x="723" 
d="M362 -8q-98 0 -159.5 40.5t-90 110.5t-28.5 160v404h72v-402q0 -68 20 -124.5t65.5 -90t121.5 -33.5t120.5 33.5t64 90t19.5 124.5v402h72v-404q0 -89 -28.5 -159.5t-89.5 -111t-159 -40.5zM336 789l-96 137h78l82 -137h-64z" />
    <glyph glyph-name="Uhungarumlaut" unicode="&#x170;" horiz-adv-x="723" 
d="M362 -8q-98 0 -159.5 40.5t-90 110.5t-28.5 160v404h72v-402q0 -68 20 -124.5t65.5 -90t121.5 -33.5t120.5 33.5t64 90t19.5 124.5v402h72v-404q0 -89 -28.5 -159.5t-89.5 -111t-159 -40.5zM383 789l82 137h78l-96 -137h-64zM237 789l82 137h78l-96 -137h-64z" />
    <glyph glyph-name="Umacron" unicode="&#x16a;" horiz-adv-x="723" 
d="M362 -8q-98 0 -159.5 40.5t-90 110.5t-28.5 160v404h72v-402q0 -68 20 -124.5t65.5 -90t121.5 -33.5t120.5 33.5t64 90t19.5 124.5v402h72v-404q0 -89 -28.5 -159.5t-89.5 -111t-159 -40.5zM205 816v61h313v-61h-313z" />
    <glyph glyph-name="Uogonek" unicode="&#x172;" horiz-adv-x="723" 
d="M362 -8q-98 0 -159.5 40.5t-90 110.5t-28.5 160v404h72v-402q0 -68 20 -124.5t65.5 -90t121.5 -33.5t120.5 33.5t64 90t19.5 124.5v402h72v-404q0 -89 -28.5 -159.5t-89.5 -111t-159 -40.5zM414 -216q-56 0 -89.5 28t-33.5 79q0 42 27.5 73.5t62.5 48.5l50 -9
q-31 -18 -54.5 -45t-23.5 -59q0 -30 19 -46t50 -17q11 0 22.5 3t22.5 8l12 -50q-16 -8 -31.5 -11t-33.5 -3z" />
    <glyph glyph-name="Uring" unicode="&#x16e;" horiz-adv-x="723" 
d="M362 -8q-98 0 -159.5 40.5t-90 110.5t-28.5 160v404h72v-402q0 -68 20 -124.5t65.5 -90t121.5 -33.5t120.5 33.5t64 90t19.5 124.5v402h72v-404q0 -89 -28.5 -159.5t-89.5 -111t-159 -40.5zM361 761q-42 0 -68 24t-26 66q0 41 26.5 68t68.5 27t67.5 -27t25.5 -68
q0 -42 -26.5 -66t-67.5 -24zM361 804q22 0 34.5 13t12.5 35t-12.5 35.5t-34.5 13.5t-34.5 -13.5t-12.5 -35.5t12.5 -35t34.5 -13z" />
    <glyph glyph-name="Utilde" unicode="&#x168;" horiz-adv-x="723" 
d="M362 -8q-98 0 -159.5 40.5t-90 110.5t-28.5 160v404h72v-402q0 -68 20 -124.5t65.5 -90t121.5 -33.5t120.5 33.5t64 90t19.5 124.5v402h72v-404q0 -89 -28.5 -159.5t-89.5 -111t-159 -40.5zM426 781q-25 0 -43.5 11t-33.5 25.5t-28 25.5t-27 11q-16 0 -23.5 -12t-9 -28
t-1.5 -29h-58q0 32 8 59.5t28.5 44.5t57.5 17q24 0 42.5 -11t33.5 -26t28 -26t27 -11q18 0 25 12t8.5 28.5t1.5 28.5h59q0 -31 -8.5 -58.5t-29 -44.5t-57.5 -17z" />
    <glyph glyph-name="V" unicode="V" horiz-adv-x="671" 
d="M286 0l-270 707h79l241 -641l241 641h78l-268 -707h-101z" />
    <glyph glyph-name="W" unicode="W" horiz-adv-x="968" 
d="M210 0l-194 707h81l168 -642l165 642h109l166 -642l169 642h78l-195 -707h-108l-166 637l-164 -637h-109z" />
    <glyph glyph-name="Wacute" unicode="&#x1e82;" horiz-adv-x="968" 
d="M210 0l-194 707h81l168 -642l165 642h109l166 -642l169 642h78l-195 -707h-108l-166 637l-164 -637h-109zM451 789l82 137h78l-96 -137h-64z" />
    <glyph glyph-name="Wcircumflex" unicode="&#x174;" horiz-adv-x="968" 
d="M210 0l-194 707h81l168 -642l165 642h109l166 -642l169 642h78l-195 -707h-108l-166 637l-164 -637h-109zM333 789l126 151h50l127 -151h-72l-80 97l-80 -97h-71z" />
    <glyph glyph-name="Wdieresis" unicode="&#x1e84;" horiz-adv-x="968" 
d="M210 0l-194 707h81l168 -642l165 642h109l166 -642l169 642h78l-195 -707h-108l-166 637l-164 -637h-109zM594 794q-22 0 -36.5 14t-14.5 36t14.5 36.5t36.5 14.5q23 0 37.5 -14t14.5 -37q0 -22 -14.5 -36t-37.5 -14zM373 794q-22 0 -36.5 14t-14.5 36t14.5 36.5
t36.5 14.5q23 0 38 -14t15 -37q0 -22 -15 -36t-38 -14z" />
    <glyph glyph-name="Wgrave" unicode="&#x1e80;" horiz-adv-x="968" 
d="M210 0l-194 707h81l168 -642l165 642h109l166 -642l169 642h78l-195 -707h-108l-166 637l-164 -637h-109zM459 789l-96 137h78l82 -137h-64z" />
    <glyph glyph-name="X" unicode="X" horiz-adv-x="581" 
d="M16 0l228 354l-221 353h90l178 -294l177 294h89l-220 -350l228 -357h-88l-187 296l-188 -296h-86z" />
    <glyph glyph-name="Y" unicode="Y" horiz-adv-x="604" 
d="M267 0v266l-251 441h85l203 -368l201 368h83l-249 -441v-266h-72z" />
    <glyph glyph-name="Yacute" unicode="&#xdd;" horiz-adv-x="604" 
d="M267 0v266l-251 441h85l203 -368l201 368h83l-249 -441v-266h-72zM269 789l82 137h78l-96 -137h-64z" />
    <glyph glyph-name="Ycircumflex" unicode="&#x176;" horiz-adv-x="604" 
d="M267 0v266l-251 441h85l203 -368l201 368h83l-249 -441v-266h-72zM150 789l126 151h50l127 -151h-72l-80 97l-80 -97h-71z" />
    <glyph glyph-name="Ydieresis" unicode="&#x178;" horiz-adv-x="604" 
d="M267 0v266l-251 441h85l203 -368l201 368h83l-249 -441v-266h-72zM412 794q-22 0 -36.5 14t-14.5 36t14.5 36.5t36.5 14.5q23 0 37.5 -14t14.5 -37q0 -22 -14.5 -36t-37.5 -14zM191 794q-22 0 -36.5 14t-14.5 36t14.5 36.5t36.5 14.5q23 0 38 -14t15 -37q0 -22 -15 -36
t-38 -14z" />
    <glyph glyph-name="Ygrave" unicode="&#x1ef2;" horiz-adv-x="604" 
d="M267 0v266l-251 441h85l203 -368l201 368h83l-249 -441v-266h-72zM276 789l-96 137h78l82 -137h-64z" />
    <glyph glyph-name="Z" unicode="Z" horiz-adv-x="596" 
d="M46 0v59l407 583h-393v65h490v-58l-413 -584h406v-65h-497z" />
    <glyph glyph-name="Zacute" unicode="&#x179;" horiz-adv-x="596" 
d="M46 0v59l407 583h-393v65h490v-58l-413 -584h406v-65h-497zM265 789l82 137h78l-96 -137h-64z" />
    <glyph glyph-name="Zcaron" unicode="&#x17d;" horiz-adv-x="596" 
d="M46 0v59l407 583h-393v65h490v-58l-413 -584h406v-65h-497zM273 789l-127 151h73l80 -96l79 96h72l-127 -151h-50z" />
    <glyph glyph-name="Zdotaccent" unicode="&#x17b;" horiz-adv-x="596" 
d="M46 0v59l407 583h-393v65h490v-58l-413 -584h406v-65h-497zM297 792q-23 0 -37 14t-14 37t14.5 36.5t36.5 13.5q21 0 36.5 -14t15.5 -36q0 -23 -15 -37t-37 -14z" />
    <glyph glyph-name="I_alt" horiz-adv-x="572" 
d="M45 0v65h205v577h-205v65h482v-65h-205v-577h205v-65h-482z" />
    <glyph glyph-name="K_alt" horiz-adv-x="620" 
d="M89 0v707h72v-384l359 384h84l-298 -318l298 -389h-86l-264 343l-93 -100v-243h-72z" />
    <glyph glyph-name="W_alt" horiz-adv-x="915" 
d="M212 0l-196 707h82l171 -642l149 470h82l150 -470l171 642h78l-195 -707h-107l-138 429l-136 -429h-111z" />
    <glyph glyph-name="a" unicode="a" horiz-adv-x="554" 
d="M237 -6q-34 0 -67 8.5t-60 27t-43.5 48t-16.5 69.5q0 45 16.5 75t44.5 48t64 25.5t76 7.5h167q0 49 -13.5 86.5t-44 59.5t-81.5 22q-27 0 -52 -6t-44.5 -19.5t-30.5 -36.5h-76q9 35 30.5 59t50.5 38.5t61 20.5t61 6q112 0 160 -67t48 -180v-286h-61l-3 72
q-22 -30 -52.5 -47t-64.5 -24t-69 -7zM242 56q49 0 89 16.5t63.5 49.5t23.5 82v40h-118q-31 0 -63 -1.5t-58 -10t-42 -27t-16 -52.5t17 -55.5t45 -31.5t59 -10z" />
    <glyph glyph-name="aacute" unicode="&#xe1;" horiz-adv-x="554" 
d="M237 -6q-34 0 -67 8.5t-60 27t-43.5 48t-16.5 69.5q0 45 16.5 75t44.5 48t64 25.5t76 7.5h167q0 49 -13.5 86.5t-44 59.5t-81.5 22q-27 0 -52 -6t-44.5 -19.5t-30.5 -36.5h-76q9 35 30.5 59t50.5 38.5t61 20.5t61 6q112 0 160 -67t48 -180v-286h-61l-3 72
q-22 -30 -52.5 -47t-64.5 -24t-69 -7zM242 56q49 0 89 16.5t63.5 49.5t23.5 82v40h-118q-31 0 -63 -1.5t-58 -10t-42 -27t-16 -52.5t17 -55.5t45 -31.5t59 -10zM251 619l82 137h78l-96 -137h-64z" />
    <glyph glyph-name="abreve" unicode="&#x103;" horiz-adv-x="554" 
d="M237 -6q-34 0 -67 8.5t-60 27t-43.5 48t-16.5 69.5q0 45 16.5 75t44.5 48t64 25.5t76 7.5h167q0 49 -13.5 86.5t-44 59.5t-81.5 22q-27 0 -52 -6t-44.5 -19.5t-30.5 -36.5h-76q9 35 30.5 59t50.5 38.5t61 20.5t61 6q112 0 160 -67t48 -180v-286h-61l-3 72
q-22 -30 -52.5 -47t-64.5 -24t-69 -7zM242 56q49 0 89 16.5t63.5 49.5t23.5 82v40h-118q-31 0 -63 -1.5t-58 -10t-42 -27t-16 -52.5t17 -55.5t45 -31.5t59 -10zM283 616q-71 0 -114.5 29.5t-47.5 91.5h65q4 -37 30.5 -51.5t67.5 -14.5t67.5 14.5t30.5 51.5h65
q-2 -41 -23.5 -68.5t-57.5 -40t-83 -12.5z" />
    <glyph glyph-name="acircumflex" unicode="&#xe2;" horiz-adv-x="554" 
d="M237 -6q-34 0 -67 8.5t-60 27t-43.5 48t-16.5 69.5q0 45 16.5 75t44.5 48t64 25.5t76 7.5h167q0 49 -13.5 86.5t-44 59.5t-81.5 22q-27 0 -52 -6t-44.5 -19.5t-30.5 -36.5h-76q9 35 30.5 59t50.5 38.5t61 20.5t61 6q112 0 160 -67t48 -180v-286h-61l-3 72
q-22 -30 -52.5 -47t-64.5 -24t-69 -7zM242 56q49 0 89 16.5t63.5 49.5t23.5 82v40h-118q-31 0 -63 -1.5t-58 -10t-42 -27t-16 -52.5t17 -55.5t45 -31.5t59 -10zM132 619l126 151h50l127 -151h-72l-80 97l-80 -97h-71z" />
    <glyph glyph-name="adieresis" unicode="&#xe4;" horiz-adv-x="554" 
d="M237 -6q-34 0 -67 8.5t-60 27t-43.5 48t-16.5 69.5q0 45 16.5 75t44.5 48t64 25.5t76 7.5h167q0 49 -13.5 86.5t-44 59.5t-81.5 22q-27 0 -52 -6t-44.5 -19.5t-30.5 -36.5h-76q9 35 30.5 59t50.5 38.5t61 20.5t61 6q112 0 160 -67t48 -180v-286h-61l-3 72
q-22 -30 -52.5 -47t-64.5 -24t-69 -7zM242 56q49 0 89 16.5t63.5 49.5t23.5 82v40h-118q-31 0 -63 -1.5t-58 -10t-42 -27t-16 -52.5t17 -55.5t45 -31.5t59 -10zM394 624q-22 0 -36.5 14t-14.5 36t14.5 36.5t36.5 14.5q23 0 37.5 -14t14.5 -37q0 -22 -14.5 -36t-37.5 -14z
M173 624q-22 0 -36.5 14t-14.5 36t14.5 36.5t36.5 14.5q23 0 38 -14t15 -37q0 -22 -15 -36t-38 -14z" />
    <glyph glyph-name="agrave" unicode="&#xe0;" horiz-adv-x="554" 
d="M237 -6q-34 0 -67 8.5t-60 27t-43.5 48t-16.5 69.5q0 45 16.5 75t44.5 48t64 25.5t76 7.5h167q0 49 -13.5 86.5t-44 59.5t-81.5 22q-27 0 -52 -6t-44.5 -19.5t-30.5 -36.5h-76q9 35 30.5 59t50.5 38.5t61 20.5t61 6q112 0 160 -67t48 -180v-286h-61l-3 72
q-22 -30 -52.5 -47t-64.5 -24t-69 -7zM242 56q49 0 89 16.5t63.5 49.5t23.5 82v40h-118q-31 0 -63 -1.5t-58 -10t-42 -27t-16 -52.5t17 -55.5t45 -31.5t59 -10zM258 619l-96 137h78l82 -137h-64z" />
    <glyph glyph-name="amacron" unicode="&#x101;" horiz-adv-x="554" 
d="M237 -6q-34 0 -67 8.5t-60 27t-43.5 48t-16.5 69.5q0 45 16.5 75t44.5 48t64 25.5t76 7.5h167q0 49 -13.5 86.5t-44 59.5t-81.5 22q-27 0 -52 -6t-44.5 -19.5t-30.5 -36.5h-76q9 35 30.5 59t50.5 38.5t61 20.5t61 6q112 0 160 -67t48 -180v-286h-61l-3 72
q-22 -30 -52.5 -47t-64.5 -24t-69 -7zM242 56q49 0 89 16.5t63.5 49.5t23.5 82v40h-118q-31 0 -63 -1.5t-58 -10t-42 -27t-16 -52.5t17 -55.5t45 -31.5t59 -10zM127 646v61h313v-61h-313z" />
    <glyph glyph-name="aogonek" unicode="&#x105;" horiz-adv-x="554" 
d="M237 -6q-34 0 -67 8.5t-60 27t-43.5 48t-16.5 69.5q0 45 16.5 75t44.5 48t64 25.5t76 7.5h167q0 49 -13.5 86.5t-44 59.5t-81.5 22q-27 0 -52 -6t-44.5 -19.5t-30.5 -36.5h-76q9 35 30.5 59t50.5 38.5t61 20.5t61 6q112 0 160 -67t48 -180v-286h-61l-3 72
q-22 -30 -52.5 -47t-64.5 -24t-69 -7zM242 56q49 0 89 16.5t63.5 49.5t23.5 82v40h-118q-31 0 -63 -1.5t-58 -10t-42 -27t-16 -52.5t17 -55.5t45 -31.5t59 -10zM470 -216q-56 0 -89.5 28t-33.5 79q0 42 27.5 73.5t62.5 48.5l50 -9q-31 -18 -54.5 -45t-23.5 -59q0 -30 19 -46
t50 -17q11 0 22.5 3t22.5 8l12 -50q-16 -8 -31.5 -11t-33.5 -3z" />
    <glyph glyph-name="aring" unicode="&#xe5;" horiz-adv-x="554" 
d="M237 -6q-34 0 -67 8.5t-60 27t-43.5 48t-16.5 69.5q0 45 16.5 75t44.5 48t64 25.5t76 7.5h167q0 49 -13.5 86.5t-44 59.5t-81.5 22q-27 0 -52 -6t-44.5 -19.5t-30.5 -36.5h-76q9 35 30.5 59t50.5 38.5t61 20.5t61 6q112 0 160 -67t48 -180v-286h-61l-3 72
q-22 -30 -52.5 -47t-64.5 -24t-69 -7zM242 56q49 0 89 16.5t63.5 49.5t23.5 82v40h-118q-31 0 -63 -1.5t-58 -10t-42 -27t-16 -52.5t17 -55.5t45 -31.5t59 -10zM283 591q-42 0 -68 24t-26 66q0 41 26.5 68t68.5 27t67.5 -27t25.5 -68q0 -42 -26.5 -66t-67.5 -24zM283 634
q22 0 34.5 13t12.5 35t-12.5 35.5t-34.5 13.5t-34.5 -13.5t-12.5 -35.5t12.5 -35t34.5 -13z" />
    <glyph glyph-name="atilde" unicode="&#xe3;" horiz-adv-x="554" 
d="M237 -6q-34 0 -67 8.5t-60 27t-43.5 48t-16.5 69.5q0 45 16.5 75t44.5 48t64 25.5t76 7.5h167q0 49 -13.5 86.5t-44 59.5t-81.5 22q-27 0 -52 -6t-44.5 -19.5t-30.5 -36.5h-76q9 35 30.5 59t50.5 38.5t61 20.5t61 6q112 0 160 -67t48 -180v-286h-61l-3 72
q-22 -30 -52.5 -47t-64.5 -24t-69 -7zM242 56q49 0 89 16.5t63.5 49.5t23.5 82v40h-118q-31 0 -63 -1.5t-58 -10t-42 -27t-16 -52.5t17 -55.5t45 -31.5t59 -10zM348 611q-25 0 -43.5 11t-33.5 25.5t-28 25.5t-27 11q-16 0 -23.5 -12t-9 -28t-1.5 -29h-58q0 32 8 59.5
t28.5 44.5t57.5 17q24 0 42.5 -11t33.5 -26t28 -26t27 -11q18 0 25 12t8.5 28.5t1.5 28.5h59q0 -31 -8.5 -58.5t-29 -44.5t-57.5 -17z" />
    <glyph glyph-name="ae" unicode="&#xe6;" horiz-adv-x="940" 
d="M243 -6q-47 0 -91.5 16t-73 50.5t-28.5 86.5q0 46 16.5 75.5t45 46.5t64.5 24t75 7h167q0 51 -14.5 89.5t-45.5 60t-81 21.5q-37 0 -72.5 -12.5t-52.5 -49.5h-75q11 45 42.5 72t74.5 39.5t85 12.5q58 0 107.5 -25.5t74.5 -81.5q29 50 80.5 78.5t120.5 28.5
q71 0 121.5 -34t78.5 -92.5t29 -130.5q1 -9 0.5 -18.5t-1.5 -18.5h-403q0 -54 20.5 -95.5t60.5 -64.5t98 -23q27 0 55 6.5t51 23t34 43.5h73q-13 -48 -47 -78t-78.5 -43.5t-90.5 -13.5q-62 0 -118.5 24t-89.5 79q-24 -39 -56 -61.5t-71 -32t-85 -9.5zM249 56q54 0 91.5 19
t57.5 55t20 88v21h-160q-23 0 -47 -2.5t-45 -11t-33 -26t-12 -47.5q0 -35 19 -56t48.5 -30.5t60.5 -9.5zM488 300h332q-1 48 -20.5 86.5t-54.5 61.5t-87 23q-50 0 -87 -22.5t-58 -61.5t-25 -87z" />
    <glyph glyph-name="b" unicode="b" horiz-adv-x="606" 
d="M316 -6q-35 0 -68 8t-61 27t-48 49l-3 -78h-67v707h71v-267q30 49 80.5 71t105.5 22q80 0 131 -36t75.5 -97t24.5 -136q0 -76 -27 -137.5t-80 -97t-134 -35.5zM315 56q62 0 99 28.5t54.5 75.5t17.5 103q0 57 -17 104t-55 75.5t-100 28.5q-57 0 -96.5 -31t-59.5 -79
t-20 -99q0 -55 18.5 -102t57.5 -75.5t101 -28.5z" />
    <glyph glyph-name="c" unicode="c" horiz-adv-x="552" 
d="M295 -6q-83 0 -137.5 34.5t-81.5 95.5t-27 138q0 76 28 137.5t84 97.5t142 36q51 0 92 -16.5t69 -49t40 -80.5h-73q-16 45 -51.5 64.5t-81.5 19.5q-63 0 -102 -29.5t-57.5 -77t-18.5 -102.5q0 -56 18.5 -103t58 -75t101.5 -28q45 0 84 19t54 65h74q-12 -50 -44.5 -82.5
t-77 -48t-93.5 -15.5z" />
    <glyph glyph-name="cacute" unicode="&#x107;" horiz-adv-x="552" 
d="M295 -6q-83 0 -137.5 34.5t-81.5 95.5t-27 138q0 76 28 137.5t84 97.5t142 36q51 0 92 -16.5t69 -49t40 -80.5h-73q-16 45 -51.5 64.5t-81.5 19.5q-63 0 -102 -29.5t-57.5 -77t-18.5 -102.5q0 -56 18.5 -103t58 -75t101.5 -28q45 0 84 19t54 65h74q-12 -50 -44.5 -82.5
t-77 -48t-93.5 -15.5zM244 609l82 137h78l-96 -137h-64z" />
    <glyph glyph-name="ccaron" unicode="&#x10d;" horiz-adv-x="552" 
d="M295 -6q-83 0 -137.5 34.5t-81.5 95.5t-27 138q0 76 28 137.5t84 97.5t142 36q51 0 92 -16.5t69 -49t40 -80.5h-73q-16 45 -51.5 64.5t-81.5 19.5q-63 0 -102 -29.5t-57.5 -77t-18.5 -102.5q0 -56 18.5 -103t58 -75t101.5 -28q45 0 84 19t54 65h74q-12 -50 -44.5 -82.5
t-77 -48t-93.5 -15.5zM252 609l-127 151h73l80 -96l79 96h72l-127 -151h-50z" />
    <glyph glyph-name="ccedilla" unicode="&#xe7;" horiz-adv-x="552" 
d="M295 -6q-83 0 -137.5 34.5t-81.5 95.5t-27 138q0 76 28 137.5t84 97.5t142 36q51 0 92 -16.5t69 -49t40 -80.5h-73q-16 45 -51.5 64.5t-81.5 19.5q-63 0 -102 -29.5t-57.5 -77t-18.5 -102.5q0 -56 18.5 -103t58 -75t101.5 -28q45 0 84 19t54 65h74q-12 -50 -44.5 -82.5
t-77 -48t-93.5 -15.5zM267 -250q-11 -1 -23.5 -2t-26.5 0v45q17 0 36 1t37 6.5t29.5 18t11.5 33.5q0 17 -10 25.5t-23.5 11.5t-24.5 3t-26 -2t-27 -7l32 127h50l-20 -76q8 1 14.5 1.5t12.5 0.5q37 0 57.5 -21t20.5 -59q0 -36 -16.5 -58t-43.5 -33.5t-60 -14.5z" />
    <glyph glyph-name="ccircumflex" unicode="&#x109;" horiz-adv-x="552" 
d="M295 -6q-83 0 -137.5 34.5t-81.5 95.5t-27 138q0 76 28 137.5t84 97.5t142 36q51 0 92 -16.5t69 -49t40 -80.5h-73q-16 45 -51.5 64.5t-81.5 19.5q-63 0 -102 -29.5t-57.5 -77t-18.5 -102.5q0 -56 18.5 -103t58 -75t101.5 -28q45 0 84 19t54 65h74q-12 -50 -44.5 -82.5
t-77 -48t-93.5 -15.5zM125 609l126 151h50l127 -151h-72l-80 97l-80 -97h-71z" />
    <glyph glyph-name="cdotaccent" unicode="&#x10b;" horiz-adv-x="552" 
d="M295 -6q-83 0 -137.5 34.5t-81.5 95.5t-27 138q0 76 28 137.5t84 97.5t142 36q51 0 92 -16.5t69 -49t40 -80.5h-73q-16 45 -51.5 64.5t-81.5 19.5q-63 0 -102 -29.5t-57.5 -77t-18.5 -102.5q0 -56 18.5 -103t58 -75t101.5 -28q45 0 84 19t54 65h74q-12 -50 -44.5 -82.5
t-77 -48t-93.5 -15.5zM276 612q-23 0 -37 14t-14 37t14.5 36.5t36.5 13.5q21 0 36.5 -14t15.5 -36q0 -23 -15 -37t-37 -14z" />
    <glyph glyph-name="d" unicode="d" horiz-adv-x="606" 
d="M280 -6q-81 0 -132 36t-75 96.5t-24 135.5q0 78 26.5 139.5t79 96.5t131.5 35q33 0 66 -8.5t63 -26.5t51 -49v258h71v-707h-68l-3 90q-20 -35 -50 -56t-65 -30.5t-71 -9.5zM289 56q58 0 97.5 28.5t60 76.5t20.5 105q0 58 -19.5 104t-58.5 73.5t-99 27.5
q-61 0 -98.5 -28.5t-54.5 -76t-17 -104.5q0 -41 8.5 -78t28 -66t52 -45.5t80.5 -16.5z" />
    <glyph glyph-name="dcaron" unicode="&#x10f;" horiz-adv-x="606" 
d="M280 -6q-81 0 -132 36t-75 96.5t-24 135.5q0 78 26.5 139.5t79 96.5t131.5 35q33 0 66 -8.5t63 -26.5t51 -49v258h71v-707h-68l-3 90q-20 -35 -50 -56t-65 -30.5t-71 -9.5zM289 56q58 0 97.5 28.5t60 76.5t20.5 105q0 58 -19.5 104t-58.5 73.5t-99 27.5
q-61 0 -98.5 -28.5t-54.5 -76t-17 -104.5q0 -41 8.5 -78t28 -66t52 -45.5t80.5 -16.5zM589 501l-21 28q13 9 25 22.5t21 29.5t13 33q-22 0 -39 12.5t-17 38.5q0 24 15 38t39 14q29 0 43 -21.5t14 -49.5q0 -31 -13 -60.5t-34 -51.5t-46 -33z" />
    <glyph glyph-name="dcroat" unicode="&#x111;" horiz-adv-x="606" 
d="M280 -6q-81 0 -132 36t-75 96.5t-24 135.5q0 78 26.5 139.5t79 96.5t131.5 35q33 0 66 -8.5t63 -26.5t51 -49v119h-110v60h110v79h71v-79h87v-60h-87v-568h-68l-3 90q-20 -35 -50 -56t-65 -30.5t-71 -9.5zM289 56q60 0 99.5 30t59 78t19.5 102q0 58 -19.5 104t-58.5 73.5
t-99 27.5q-61 0 -98.5 -28.5t-54.5 -76t-17 -104.5q0 -41 8.5 -78t28 -66t52 -45.5t80.5 -16.5z" />
    <glyph glyph-name="eth" unicode="&#xf0;" horiz-adv-x="565" 
d="M280 -6q-74 0 -125.5 31.5t-78.5 87.5t-27 128q0 66 26.5 119.5t76 85t118.5 31.5q56 0 101.5 -22t71.5 -68q-2 42 -18 84t-40.5 77.5t-53.5 55.5l-111 -74l-32 48l93 62q-30 20 -72.5 31.5t-83.5 16.5l6 56q58 -6 110.5 -23t93.5 -45l115 76l32 -48l-97 -63
q46 -41 74.5 -93t42 -115.5t13.5 -141.5q0 -62 -12 -115.5t-39.5 -94.5t-73 -64t-110.5 -23zM281 56q49 0 84.5 24t55 64t19.5 86q0 51 -18.5 92.5t-55 66.5t-92.5 25q-49 0 -83.5 -24.5t-52.5 -64t-18 -86.5q0 -48 18.5 -90t54.5 -67.5t88 -25.5z" />
    <glyph glyph-name="e" unicode="e" horiz-adv-x="575" 
d="M296 -6q-83 0 -138 34.5t-82 95.5t-27 139t28 138.5t83 96t135 35.5q60 0 103.5 -22t72 -60t42 -84t13.5 -94q-1 -9 -1 -17.5t-1 -16.5h-404q4 -53 24 -94.5t58.5 -65t96.5 -23.5q27 0 55 6.5t51 23t34 43.5h74q-14 -47 -47 -77t-78 -44t-92 -14zM122 300h332
q-1 49 -21 87.5t-55 61t-86 22.5q-53 0 -90 -24t-56.5 -63t-23.5 -84z" />
    <glyph glyph-name="eacute" unicode="&#xe9;" horiz-adv-x="575" 
d="M296 -6q-83 0 -138 34.5t-82 95.5t-27 139t28 138.5t83 96t135 35.5q60 0 103.5 -22t72 -60t42 -84t13.5 -94q-1 -9 -1 -17.5t-1 -16.5h-404q4 -53 24 -94.5t58.5 -65t96.5 -23.5q27 0 55 6.5t51 23t34 43.5h74q-14 -47 -47 -77t-78 -44t-92 -14zM122 300h332
q-1 49 -21 87.5t-55 61t-86 22.5q-53 0 -90 -24t-56.5 -63t-23.5 -84zM262 609l82 137h78l-96 -137h-64z" />
    <glyph glyph-name="ebreve" unicode="&#x115;" horiz-adv-x="575" 
d="M296 -6q-83 0 -138 34.5t-82 95.5t-27 139t28 138.5t83 96t135 35.5q60 0 103.5 -22t72 -60t42 -84t13.5 -94q-1 -9 -1 -17.5t-1 -16.5h-404q4 -53 24 -94.5t58.5 -65t96.5 -23.5q27 0 55 6.5t51 23t34 43.5h74q-14 -47 -47 -77t-78 -44t-92 -14zM122 300h332
q-1 49 -21 87.5t-55 61t-86 22.5q-53 0 -90 -24t-56.5 -63t-23.5 -84zM294 606q-71 0 -114.5 29.5t-47.5 91.5h65q4 -37 30.5 -51.5t67.5 -14.5t67.5 14.5t30.5 51.5h65q-2 -41 -23.5 -68.5t-57.5 -40t-83 -12.5z" />
    <glyph glyph-name="ecaron" unicode="&#x11b;" horiz-adv-x="575" 
d="M296 -6q-83 0 -138 34.5t-82 95.5t-27 139t28 138.5t83 96t135 35.5q60 0 103.5 -22t72 -60t42 -84t13.5 -94q-1 -9 -1 -17.5t-1 -16.5h-404q4 -53 24 -94.5t58.5 -65t96.5 -23.5q27 0 55 6.5t51 23t34 43.5h74q-14 -47 -47 -77t-78 -44t-92 -14zM122 300h332
q-1 49 -21 87.5t-55 61t-86 22.5q-53 0 -90 -24t-56.5 -63t-23.5 -84zM270 609l-127 151h73l80 -96l79 96h72l-127 -151h-50z" />
    <glyph glyph-name="ecircumflex" unicode="&#xea;" horiz-adv-x="575" 
d="M296 -6q-83 0 -138 34.5t-82 95.5t-27 139t28 138.5t83 96t135 35.5q60 0 103.5 -22t72 -60t42 -84t13.5 -94q-1 -9 -1 -17.5t-1 -16.5h-404q4 -53 24 -94.5t58.5 -65t96.5 -23.5q27 0 55 6.5t51 23t34 43.5h74q-14 -47 -47 -77t-78 -44t-92 -14zM122 300h332
q-1 49 -21 87.5t-55 61t-86 22.5q-53 0 -90 -24t-56.5 -63t-23.5 -84zM143 609l126 151h50l127 -151h-72l-80 97l-80 -97h-71z" />
    <glyph glyph-name="edieresis" unicode="&#xeb;" horiz-adv-x="575" 
d="M296 -6q-83 0 -138 34.5t-82 95.5t-27 139t28 138.5t83 96t135 35.5q60 0 103.5 -22t72 -60t42 -84t13.5 -94q-1 -9 -1 -17.5t-1 -16.5h-404q4 -53 24 -94.5t58.5 -65t96.5 -23.5q27 0 55 6.5t51 23t34 43.5h74q-14 -47 -47 -77t-78 -44t-92 -14zM122 300h332
q-1 49 -21 87.5t-55 61t-86 22.5q-53 0 -90 -24t-56.5 -63t-23.5 -84zM405 614q-22 0 -36.5 14t-14.5 36t14.5 36.5t36.5 14.5q23 0 37.5 -14t14.5 -37q0 -22 -14.5 -36t-37.5 -14zM184 614q-22 0 -36.5 14t-14.5 36t14.5 36.5t36.5 14.5q23 0 38 -14t15 -37q0 -22 -15 -36
t-38 -14z" />
    <glyph glyph-name="edotaccent" unicode="&#x117;" horiz-adv-x="575" 
d="M296 -6q-83 0 -138 34.5t-82 95.5t-27 139t28 138.5t83 96t135 35.5q60 0 103.5 -22t72 -60t42 -84t13.5 -94q-1 -9 -1 -17.5t-1 -16.5h-404q4 -53 24 -94.5t58.5 -65t96.5 -23.5q27 0 55 6.5t51 23t34 43.5h74q-14 -47 -47 -77t-78 -44t-92 -14zM122 300h332
q-1 49 -21 87.5t-55 61t-86 22.5q-53 0 -90 -24t-56.5 -63t-23.5 -84zM294 612q-23 0 -37 14t-14 37t14.5 36.5t36.5 13.5q21 0 36.5 -14t15.5 -36q0 -23 -15 -37t-37 -14z" />
    <glyph glyph-name="egrave" unicode="&#xe8;" horiz-adv-x="575" 
d="M296 -6q-83 0 -138 34.5t-82 95.5t-27 139t28 138.5t83 96t135 35.5q60 0 103.5 -22t72 -60t42 -84t13.5 -94q-1 -9 -1 -17.5t-1 -16.5h-404q4 -53 24 -94.5t58.5 -65t96.5 -23.5q27 0 55 6.5t51 23t34 43.5h74q-14 -47 -47 -77t-78 -44t-92 -14zM122 300h332
q-1 49 -21 87.5t-55 61t-86 22.5q-53 0 -90 -24t-56.5 -63t-23.5 -84zM269 609l-96 137h78l82 -137h-64z" />
    <glyph glyph-name="emacron" unicode="&#x113;" horiz-adv-x="575" 
d="M296 -6q-83 0 -138 34.5t-82 95.5t-27 139t28 138.5t83 96t135 35.5q60 0 103.5 -22t72 -60t42 -84t13.5 -94q-1 -9 -1 -17.5t-1 -16.5h-404q4 -53 24 -94.5t58.5 -65t96.5 -23.5q27 0 55 6.5t51 23t34 43.5h74q-14 -47 -47 -77t-78 -44t-92 -14zM122 300h332
q-1 49 -21 87.5t-55 61t-86 22.5q-53 0 -90 -24t-56.5 -63t-23.5 -84zM138 636v61h313v-61h-313z" />
    <glyph glyph-name="eogonek" unicode="&#x119;" horiz-adv-x="575" 
d="M296 -6q-83 0 -138 34.5t-82 95.5t-27 139t28 138.5t83 96t135 35.5q60 0 103.5 -22t72 -60t42 -84t13.5 -94q-1 -9 -1 -17.5t-1 -16.5h-404q4 -53 24 -94.5t58.5 -65t96.5 -23.5q27 0 55 6.5t51 23t34 43.5h74q-14 -47 -47 -77t-78 -44t-92 -14zM122 300h332
q-1 49 -21 87.5t-55 61t-86 22.5q-53 0 -90 -24t-56.5 -63t-23.5 -84zM348 -216q-56 0 -89.5 28t-33.5 79q0 42 27.5 73.5t62.5 48.5l50 -9q-31 -18 -54.5 -45t-23.5 -59q0 -30 19 -46t50 -17q11 0 22.5 3t22.5 8l12 -50q-16 -8 -31.5 -11t-33.5 -3z" />
    <glyph glyph-name="f" unicode="f" horiz-adv-x="364" 
d="M122 0v465h-88v62h88v60q0 58 15 96.5t51 57.5t98 19h54v-62h-47q-42 0 -63.5 -13.5t-29 -40.5t-7.5 -66v-51h147v-62h-147v-465h-71z" />
    <glyph glyph-name="g" unicode="g" horiz-adv-x="606" 
d="M298 -243q-52 0 -96.5 15t-76.5 47.5t-44 83.5h74q10 -31 33.5 -49.5t54.5 -26t60 -7.5q61 0 97 24t51 66t15 96v83q-18 -34 -48 -55.5t-65 -30.5t-72 -9q-82 0 -133 36t-75 97t-24 136q0 77 26 138.5t79 96.5t132 35q49 0 99 -19.5t82 -66.5l3 80h67v-522
q0 -78 -25.5 -133.5t-78 -85t-135.5 -29.5zM291 56q58 0 97 29t59 77t20 104q0 58 -19.5 104t-58.5 73.5t-99 27.5q-61 0 -98.5 -28.5t-54.5 -75.5t-17 -103q0 -59 17 -106.5t55 -74.5t99 -27z" />
    <glyph glyph-name="gbreve" unicode="&#x11f;" horiz-adv-x="606" 
d="M298 -243q-52 0 -96.5 15t-76.5 47.5t-44 83.5h74q10 -31 33.5 -49.5t54.5 -26t60 -7.5q61 0 97 24t51 66t15 96v83q-18 -34 -48 -55.5t-65 -30.5t-72 -9q-82 0 -133 36t-75 97t-24 136q0 77 26 138.5t79 96.5t132 35q49 0 99 -19.5t82 -66.5l3 80h67v-522
q0 -78 -25.5 -133.5t-78 -85t-135.5 -29.5zM291 56q58 0 97 29t59 77t20 104q0 58 -19.5 104t-58.5 73.5t-99 27.5q-61 0 -98.5 -28.5t-54.5 -75.5t-17 -103q0 -59 17 -106.5t55 -74.5t99 -27zM302 606q-71 0 -114.5 29.5t-47.5 91.5h65q4 -37 30.5 -51.5t67.5 -14.5
t67.5 14.5t30.5 51.5h65q-2 -41 -23.5 -68.5t-57.5 -40t-83 -12.5z" />
    <glyph glyph-name="gcircumflex" unicode="&#x11d;" horiz-adv-x="606" 
d="M298 -243q-52 0 -96.5 15t-76.5 47.5t-44 83.5h74q10 -31 33.5 -49.5t54.5 -26t60 -7.5q61 0 97 24t51 66t15 96v83q-18 -34 -48 -55.5t-65 -30.5t-72 -9q-82 0 -133 36t-75 97t-24 136q0 77 26 138.5t79 96.5t132 35q49 0 99 -19.5t82 -66.5l3 80h67v-522
q0 -78 -25.5 -133.5t-78 -85t-135.5 -29.5zM291 56q58 0 97 29t59 77t20 104q0 58 -19.5 104t-58.5 73.5t-99 27.5q-61 0 -98.5 -28.5t-54.5 -75.5t-17 -103q0 -59 17 -106.5t55 -74.5t99 -27zM151 609l126 151h50l127 -151h-72l-80 97l-80 -97h-71z" />
    <glyph glyph-name="uni0123" unicode="&#x123;" horiz-adv-x="606" 
d="M298 -243q-52 0 -96.5 15t-76.5 47.5t-44 83.5h74q10 -31 33.5 -49.5t54.5 -26t60 -7.5q61 0 97 24t51 66t15 96v83q-18 -34 -48 -55.5t-65 -30.5t-72 -9q-82 0 -133 36t-75 97t-24 136q0 77 26 138.5t79 96.5t132 35q49 0 99 -19.5t82 -66.5l3 80h67v-522
q0 -78 -25.5 -133.5t-78 -85t-135.5 -29.5zM291 56q58 0 97 29t59 77t20 104q0 58 -19.5 104t-58.5 73.5t-99 27.5q-61 0 -98.5 -28.5t-54.5 -75.5t-17 -103q0 -59 17 -106.5t55 -74.5t99 -27zM304 609q-28 0 -42.5 19.5t-15.5 50.5q0 29 11.5 58t33 52.5t48.5 34.5l21 -28
q-14 -9 -26 -23t-21 -29.5t-12 -32.5q24 0 40 -13.5t16 -37.5q0 -25 -16 -38t-37 -13z" />
    <glyph glyph-name="gdotaccent" unicode="&#x121;" horiz-adv-x="606" 
d="M298 -243q-52 0 -96.5 15t-76.5 47.5t-44 83.5h74q10 -31 33.5 -49.5t54.5 -26t60 -7.5q61 0 97 24t51 66t15 96v83q-18 -34 -48 -55.5t-65 -30.5t-72 -9q-82 0 -133 36t-75 97t-24 136q0 77 26 138.5t79 96.5t132 35q49 0 99 -19.5t82 -66.5l3 80h67v-522
q0 -78 -25.5 -133.5t-78 -85t-135.5 -29.5zM291 56q58 0 97 29t59 77t20 104q0 58 -19.5 104t-58.5 73.5t-99 27.5q-61 0 -98.5 -28.5t-54.5 -75.5t-17 -103q0 -59 17 -106.5t55 -74.5t99 -27zM302 612q-23 0 -37 14t-14 37t14.5 36.5t36.5 13.5q21 0 36.5 -14t15.5 -36
q0 -23 -15 -37t-37 -14z" />
    <glyph glyph-name="h" unicode="h" horiz-adv-x="591" 
d="M69 0v707h71v-269q20 32 49 53t63 31.5t71 10.5q77 0 121 -32t62.5 -86.5t18.5 -123.5v-291h-71v265q0 38 -5 74.5t-19.5 66.5t-43 47.5t-75.5 17.5q-45 0 -78 -18.5t-53.5 -50.5t-30 -70.5t-9.5 -78.5v-253h-71z" />
    <glyph glyph-name="hbar" unicode="&#x127;" horiz-adv-x="591" 
d="M69 0v571h-77v60h77v76h71v-76h113v-60h-113v-133q30 47 78.5 71t104.5 24q77 0 120.5 -32t62.5 -86.5t19 -123.5v-291h-71v265q0 38 -5 74.5t-19.5 66.5t-43 47.5t-75.5 17.5q-45 0 -78 -18.5t-53.5 -50.5t-30 -70.5t-9.5 -77.5v-254h-71z" />
    <glyph glyph-name="hcircumflex" unicode="&#x125;" horiz-adv-x="591" 
d="M69 0v707h71v-269q20 32 49 53t63 31.5t71 10.5q77 0 121 -32t62.5 -86.5t18.5 -123.5v-291h-71v265q0 38 -5 74.5t-19.5 66.5t-43 47.5t-75.5 17.5q-45 0 -78 -18.5t-53.5 -50.5t-30 -70.5t-9.5 -78.5v-253h-71zM150 760l126 151h50l127 -151h-72l-80 97l-80 -97h-71z
" />
    <glyph glyph-name="i" unicode="i" horiz-adv-x="209" 
d="M69 0v527h71v-527h-71zM104 612q-23 0 -37 14t-14 37t14.5 36.5t36.5 13.5q21 0 36.5 -14t15.5 -36q0 -23 -15 -37t-37 -14z" />
    <glyph glyph-name="dotlessi" unicode="&#x131;" horiz-adv-x="209" 
d="M69 0v527h71v-527h-71z" />
    <glyph glyph-name="iacute" unicode="&#xed;" horiz-adv-x="209" 
d="M69 0v527h71v-527h-71zM72 609l82 137h78l-96 -137h-64z" />
    <glyph glyph-name="ibreve" unicode="&#x12d;" horiz-adv-x="209" 
d="M69 0v527h71v-527h-71zM104 606q-71 0 -114.5 29.5t-47.5 91.5h65q4 -37 30.5 -51.5t67.5 -14.5t67.5 14.5t30.5 51.5h65q-2 -41 -23.5 -68.5t-57.5 -40t-83 -12.5z" />
    <glyph glyph-name="icircumflex" unicode="&#xee;" horiz-adv-x="209" 
d="M69 0v527h71v-527h-71zM-47 609l126 151h50l127 -151h-72l-80 97l-80 -97h-71z" />
    <glyph glyph-name="idieresis" unicode="&#xef;" horiz-adv-x="209" 
d="M69 0v527h71v-527h-71zM32 614q-22 0 -35.5 14t-13.5 35t13.5 34.5t35.5 13.5q21 0 35 -13.5t14 -34.5q0 -22 -14 -35.5t-35 -13.5zM177 614q-22 0 -35 14t-13 35t13.5 34.5t34.5 13.5q22 0 35.5 -13.5t13.5 -34.5q0 -22 -13.5 -35.5t-35.5 -13.5z" />
    <glyph glyph-name="i.loclTRK" horiz-adv-x="209" 
d="M69 0v527h71v-527h-71zM104 612q-23 0 -37 14t-14 37t14.5 36.5t36.5 13.5q21 0 36.5 -14t15.5 -36q0 -23 -15 -37t-37 -14z" />
    <glyph glyph-name="igrave" unicode="&#xec;" horiz-adv-x="209" 
d="M69 0v527h71v-527h-71zM79 609l-96 137h78l82 -137h-64z" />
    <glyph glyph-name="imacron" unicode="&#x12b;" horiz-adv-x="209" 
d="M69 0v527h71v-527h-71zM-52 636v61h313v-61h-313z" />
    <glyph glyph-name="iogonek" unicode="&#x12f;" horiz-adv-x="209" 
d="M69 0v527h71v-527h-71zM104 612q-23 0 -37 14t-14 37t14.5 36.5t36.5 13.5q21 0 36.5 -14t15.5 -36q0 -23 -15 -37t-37 -14zM121 -216q-56 0 -89.5 28t-33.5 79q0 42 27.5 73.5t62.5 48.5l50 -9q-31 -18 -54.5 -45t-23.5 -59q0 -30 19 -46t50 -17q11 0 22.5 3t22.5 8
l12 -50q-16 -8 -31.5 -11t-33.5 -3z" />
    <glyph glyph-name="itilde" unicode="&#x129;" horiz-adv-x="209" 
d="M69 0v527h71v-527h-71zM169 601q-25 0 -43.5 11t-33.5 25.5t-28 25.5t-27 11q-16 0 -23.5 -12t-9 -28t-1.5 -29h-58q0 32 8 59.5t28.5 44.5t57.5 17q24 0 42.5 -11t33.5 -26t28 -26t27 -11q18 0 25 12t8.5 28.5t1.5 28.5h59q0 -31 -8.5 -58.5t-29 -44.5t-57.5 -17z" />
    <glyph glyph-name="ij" unicode="&#x133;" horiz-adv-x="445" 
d="M167 -185v61h30q42 0 63.5 14.5t28.5 41.5t7 65v530h71v-538q0 -57 -15 -96t-50 -58.5t-98 -19.5h-37zM77 0v527h71v-527h-71zM112 621q-22 0 -36.5 14t-14.5 37q0 15 6.5 26.5t18.5 17.5t26 6q22 0 37 -14t15 -36q0 -23 -15 -37t-37 -14zM331 621q-22 0 -36.5 14
t-14.5 37q0 15 7 26.5t18.5 17.5t26.5 6q22 0 37 -14t15 -36q0 -23 -15 -37t-38 -14z" />
    <glyph glyph-name="j" unicode="j" horiz-adv-x="249" 
d="M-27 -185v61h30q42 0 63.5 14.5t28.5 41.5t7 65v530h71v-538q0 -57 -15 -96t-50 -58.5t-98 -19.5h-37zM137 612q-23 0 -37 14t-14 37t14.5 36.5t36.5 13.5q21 0 36.5 -14t15.5 -36q0 -23 -15 -37t-37 -14z" />
    <glyph glyph-name="uni0237" unicode="&#x237;" horiz-adv-x="249" 
d="M-27 -185v61h30q42 0 63.5 14.5t28.5 41.5t7 65v530h71v-538q0 -57 -15 -96t-50 -58.5t-98 -19.5h-37z" />
    <glyph glyph-name="jcircumflex" unicode="&#x135;" horiz-adv-x="249" 
d="M-27 -185v61h30q42 0 63.5 14.5t28.5 41.5t7 65v530h71v-538q0 -57 -15 -96t-50 -58.5t-98 -19.5h-37zM-14 609l126 151h50l127 -151h-72l-80 97l-80 -97h-71z" />
    <glyph glyph-name="k" unicode="k" horiz-adv-x="513" 
d="M69 0v707h71v-413h107l161 233h80l-176 -252l192 -275h-83l-165 233h-116v-233h-71z" />
    <glyph glyph-name="uni0137" unicode="&#x137;" horiz-adv-x="513" 
d="M69 0v707h71v-413h107l161 233h80l-176 -252l192 -275h-83l-165 233h-116v-233h-71zM221 -303l-21 29q13 9 25 22t21.5 29t12.5 34q-22 0 -39 12.5t-17 38.5q0 24 16 38t38 14q29 0 43.5 -21.5t13.5 -49.5q-1 -31 -13.5 -60.5t-33 -52t-46.5 -33.5z" />
    <glyph glyph-name="kgreenlandic" unicode="&#x138;" horiz-adv-x="512" 
d="M69 0v527h71v-233h107l160 233h80l-176 -252l192 -275h-82l-165 233h-116v-233h-71z" />
    <glyph glyph-name="l" unicode="l" horiz-adv-x="210" 
d="M70 0v707h70v-707h-70z" />
    <glyph glyph-name="lacute" unicode="&#x13a;" horiz-adv-x="210" 
d="M70 0v707h70v-707h-70zM72 789l82 137h78l-96 -137h-64z" />
    <glyph glyph-name="lcaron" unicode="&#x13e;" horiz-adv-x="183" 
d="M70 0v707h70v-707h-70zM197 499l-21 28q13 9 25 22.5t21 29.5t13 33q-22 0 -39 12.5t-17 38.5q0 24 15 38t39 14q29 0 43 -21.5t14 -49.5q0 -31 -13 -60.5t-34 -51.5t-46 -33z" />
    <glyph glyph-name="uni013C" unicode="&#x13c;" horiz-adv-x="210" 
d="M70 0v707h70v-707h-70zM69 -303l-21 29q13 9 25 22t21.5 29t12.5 34q-22 0 -39 12.5t-17 38.5q0 24 16 38t38 14q29 0 43.5 -21.5t13.5 -49.5q-1 -31 -13.5 -60.5t-33 -52t-46.5 -33.5z" />
    <glyph glyph-name="ldot" unicode="&#x140;" horiz-adv-x="267" 
d="M70 0v707h70v-707h-70zM239 304q-23 0 -37.5 14t-14.5 37t14.5 36.5t37.5 13.5q22 0 36.5 -13.5t14.5 -36.5q0 -22 -14 -36.5t-37 -14.5z" />
    <glyph glyph-name="lslash" unicode="&#x142;" horiz-adv-x="297" 
d="M103 0v290l-75 -50l-35 53l110 72v342h70v-296l90 59l35 -52l-125 -82v-336h-70z" />
    <glyph glyph-name="m" unicode="m" horiz-adv-x="826" 
d="M69 0v527h68l2 -75q18 31 42.5 48.5t52.5 25t56 7.5q56 0 92.5 -27t52.5 -74q14 28 36 51t54 36.5t73 13.5q58 0 94 -24.5t52.5 -66.5t16.5 -95v-347h-71v309q0 29 -3 57.5t-14 52t-32.5 38t-58.5 14.5q-36 0 -60.5 -16.5t-40 -44t-22 -60t-6.5 -63.5v-287h-71v302
q0 27 -3.5 56.5t-13.5 55.5t-32 41.5t-58 15.5q-52 0 -81.5 -28.5t-41.5 -72t-12 -88.5v-282h-71z" />
    <glyph glyph-name="n" unicode="n" horiz-adv-x="591" 
d="M69 0v527h69l2 -88q20 33 49 53.5t64 30.5t70 10q76 0 120 -32t63 -86.5t19 -123.5v-291h-71v268q0 39 -5 75.5t-19.5 65.5t-42 45.5t-73.5 16.5q-56 0 -95.5 -30t-59 -80t-19.5 -111v-250h-71z" />
    <glyph glyph-name="nacute" unicode="&#x144;" horiz-adv-x="591" 
d="M69 0v527h69l2 -88q20 33 49 53.5t64 30.5t70 10q76 0 120 -32t63 -86.5t19 -123.5v-291h-71v268q0 39 -5 75.5t-19.5 65.5t-42 45.5t-73.5 16.5q-56 0 -95.5 -30t-59 -80t-19.5 -111v-250h-71zM263 609l82 137h78l-96 -137h-64z" />
    <glyph glyph-name="napostrophe" unicode="&#x149;" horiz-adv-x="655" 
d="M14 500l-21 28q14 9 25.5 22.5t21 29.5t12.5 33q-21 0 -38 12.5t-17 38.5q0 24 15.5 38t38.5 14q30 0 43 -21t13 -50q0 -31 -12.5 -60.5t-33.5 -51.5t-47 -33zM133 0v527h69l2 -88q20 33 49 53.5t64 30.5t70 10q76 0 120 -32t63 -86.5t19 -123.5v-291h-71v268
q0 39 -5 75.5t-19.5 65.5t-42 45.5t-73.5 16.5q-56 0 -95.5 -30t-59 -80t-19.5 -111v-250h-71z" />
    <glyph glyph-name="ncaron" unicode="&#x148;" horiz-adv-x="591" 
d="M69 0v527h69l2 -88q20 33 49 53.5t64 30.5t70 10q76 0 120 -32t63 -86.5t19 -123.5v-291h-71v268q0 39 -5 75.5t-19.5 65.5t-42 45.5t-73.5 16.5q-56 0 -95.5 -30t-59 -80t-19.5 -111v-250h-71zM271 609l-127 151h73l80 -96l79 96h72l-127 -151h-50z" />
    <glyph glyph-name="uni0146" unicode="&#x146;" horiz-adv-x="591" 
d="M69 0v527h69l2 -88q20 33 49 53.5t64 30.5t70 10q76 0 120 -32t63 -86.5t19 -123.5v-291h-71v268q0 39 -5 75.5t-19.5 65.5t-42 45.5t-73.5 16.5q-56 0 -95.5 -30t-59 -80t-19.5 -111v-250h-71zM260 -303l-21 29q13 9 25 22t21.5 29t12.5 34q-22 0 -39 12.5t-17 38.5
q0 24 16 38t38 14q29 0 43.5 -21.5t13.5 -49.5q-1 -31 -13.5 -60.5t-33 -52t-46.5 -33.5z" />
    <glyph glyph-name="ntilde" unicode="&#xf1;" horiz-adv-x="591" 
d="M69 0v527h69l2 -88q20 33 49 53.5t64 30.5t70 10q76 0 120 -32t63 -86.5t19 -123.5v-291h-71v268q0 39 -5 75.5t-19.5 65.5t-42 45.5t-73.5 16.5q-56 0 -95.5 -30t-59 -80t-19.5 -111v-250h-71zM360 601q-25 0 -43.5 11t-33.5 25.5t-28 25.5t-27 11q-16 0 -23.5 -12
t-9 -28t-1.5 -29h-58q0 32 8 59.5t28.5 44.5t57.5 17q24 0 42.5 -11t33.5 -26t28 -26t27 -11q18 0 25 12t8.5 28.5t1.5 28.5h59q0 -31 -8.5 -58.5t-29 -44.5t-57.5 -17z" />
    <glyph glyph-name="eng" unicode="&#x14b;" horiz-adv-x="591" 
d="M315 -185v61h40q42 0 63.5 14.5t28.5 41.5t7 65v270q0 39 -5 75.5t-19.5 65.5t-42 46t-73.5 17q-56 0 -95.5 -30t-59 -80t-19.5 -111v-250h-71v527h69l2 -88q28 48 78 71t105 23q76 0 120 -32t63 -86.5t19 -123.5v-302q0 -58 -15 -97t-50.5 -58t-97.5 -19h-47z" />
    <glyph glyph-name="o" unicode="o" horiz-adv-x="598" 
d="M299 -6q-83 0 -139 34.5t-83.5 95.5t-27.5 139q0 79 28 139.5t84 95.5t139 35t138.5 -35t83 -95.5t27.5 -139.5q0 -78 -28 -139t-83.5 -95.5t-138.5 -34.5zM299 56q62 0 102 27.5t59 74.5t19 105t-19 105t-59 75t-102 28t-102 -28t-58.5 -75t-18.5 -105t18.5 -105
t58.5 -74.5t102 -27.5z" />
    <glyph glyph-name="oacute" unicode="&#xf3;" horiz-adv-x="598" 
d="M299 -6q-83 0 -139 34.5t-83.5 95.5t-27.5 139q0 79 28 139.5t84 95.5t139 35t138.5 -35t83 -95.5t27.5 -139.5q0 -78 -28 -139t-83.5 -95.5t-138.5 -34.5zM299 56q62 0 102 27.5t59 74.5t19 105t-19 105t-59 75t-102 28t-102 -28t-58.5 -75t-18.5 -105t18.5 -105
t58.5 -74.5t102 -27.5zM267 609l82 137h78l-96 -137h-64z" />
    <glyph glyph-name="obreve" unicode="&#x14f;" horiz-adv-x="598" 
d="M299 -6q-83 0 -139 34.5t-83.5 95.5t-27.5 139q0 79 28 139.5t84 95.5t139 35t138.5 -35t83 -95.5t27.5 -139.5q0 -78 -28 -139t-83.5 -95.5t-138.5 -34.5zM299 56q62 0 102 27.5t59 74.5t19 105t-19 105t-59 75t-102 28t-102 -28t-58.5 -75t-18.5 -105t18.5 -105
t58.5 -74.5t102 -27.5zM299 606q-71 0 -114.5 29.5t-47.5 91.5h65q4 -37 30.5 -51.5t67.5 -14.5t67.5 14.5t30.5 51.5h65q-2 -41 -23.5 -68.5t-57.5 -40t-83 -12.5z" />
    <glyph glyph-name="ocircumflex" unicode="&#xf4;" horiz-adv-x="598" 
d="M299 -6q-83 0 -139 34.5t-83.5 95.5t-27.5 139q0 79 28 139.5t84 95.5t139 35t138.5 -35t83 -95.5t27.5 -139.5q0 -78 -28 -139t-83.5 -95.5t-138.5 -34.5zM299 56q62 0 102 27.5t59 74.5t19 105t-19 105t-59 75t-102 28t-102 -28t-58.5 -75t-18.5 -105t18.5 -105
t58.5 -74.5t102 -27.5zM148 609l126 151h50l127 -151h-72l-80 97l-80 -97h-71z" />
    <glyph glyph-name="odieresis" unicode="&#xf6;" horiz-adv-x="598" 
d="M299 -6q-83 0 -139 34.5t-83.5 95.5t-27.5 139q0 79 28 139.5t84 95.5t139 35t138.5 -35t83 -95.5t27.5 -139.5q0 -78 -28 -139t-83.5 -95.5t-138.5 -34.5zM299 56q62 0 102 27.5t59 74.5t19 105t-19 105t-59 75t-102 28t-102 -28t-58.5 -75t-18.5 -105t18.5 -105
t58.5 -74.5t102 -27.5zM409 614q-22 0 -36.5 14t-14.5 36t14.5 36.5t36.5 14.5q23 0 37.5 -14t14.5 -37q0 -22 -14.5 -36t-37.5 -14zM188 614q-22 0 -36.5 14t-14.5 36t14.5 36.5t36.5 14.5q23 0 38 -14t15 -37q0 -22 -15 -36t-38 -14z" />
    <glyph glyph-name="ograve" unicode="&#xf2;" horiz-adv-x="598" 
d="M299 -6q-83 0 -139 34.5t-83.5 95.5t-27.5 139q0 79 28 139.5t84 95.5t139 35t138.5 -35t83 -95.5t27.5 -139.5q0 -78 -28 -139t-83.5 -95.5t-138.5 -34.5zM299 56q62 0 102 27.5t59 74.5t19 105t-19 105t-59 75t-102 28t-102 -28t-58.5 -75t-18.5 -105t18.5 -105
t58.5 -74.5t102 -27.5zM274 609l-96 137h78l82 -137h-64z" />
    <glyph glyph-name="ohungarumlaut" unicode="&#x151;" horiz-adv-x="598" 
d="M299 -6q-83 0 -139 34.5t-83.5 95.5t-27.5 139q0 79 28 139.5t84 95.5t139 35t138.5 -35t83 -95.5t27.5 -139.5q0 -78 -28 -139t-83.5 -95.5t-138.5 -34.5zM299 56q62 0 102 27.5t59 74.5t19 105t-19 105t-59 75t-102 28t-102 -28t-58.5 -75t-18.5 -105t18.5 -105
t58.5 -74.5t102 -27.5zM321 609l82 137h78l-96 -137h-64zM175 609l82 137h78l-96 -137h-64z" />
    <glyph glyph-name="omacron" unicode="&#x14d;" horiz-adv-x="598" 
d="M299 -6q-83 0 -139 34.5t-83.5 95.5t-27.5 139q0 79 28 139.5t84 95.5t139 35t138.5 -35t83 -95.5t27.5 -139.5q0 -78 -28 -139t-83.5 -95.5t-138.5 -34.5zM299 56q62 0 102 27.5t59 74.5t19 105t-19 105t-59 75t-102 28t-102 -28t-58.5 -75t-18.5 -105t18.5 -105
t58.5 -74.5t102 -27.5zM143 636v61h313v-61h-313z" />
    <glyph glyph-name="oslash" unicode="&#xf8;" horiz-adv-x="598" 
d="M88 -97l63 131q-54 35 -78 96t-24 133q0 78 27 139t83 96t141 35q24 0 46 -3t41 -9l49 103h74l-64 -133q37 -25 60 -61t33 -78.5t10 -88.5q0 -76 -27.5 -137t-83 -96.5t-139.5 -35.5q-24 0 -46 3t-42 8l-49 -102h-74zM182 96l175 366q-27 9 -58 9q-62 0 -101.5 -27
t-58.5 -74.5t-19 -106.5q0 -48 13.5 -94t48.5 -73zM299 56q63 0 102.5 28t58.5 75t19 104q0 49 -15.5 92t-49.5 73l-174 -365q13 -4 27.5 -5.5t31.5 -1.5z" />
    <glyph glyph-name="otilde" unicode="&#xf5;" horiz-adv-x="598" 
d="M299 -6q-83 0 -139 34.5t-83.5 95.5t-27.5 139q0 79 28 139.5t84 95.5t139 35t138.5 -35t83 -95.5t27.5 -139.5q0 -78 -28 -139t-83.5 -95.5t-138.5 -34.5zM299 56q62 0 102 27.5t59 74.5t19 105t-19 105t-59 75t-102 28t-102 -28t-58.5 -75t-18.5 -105t18.5 -105
t58.5 -74.5t102 -27.5zM364 601q-25 0 -43.5 11t-33.5 25.5t-28 25.5t-27 11q-16 0 -23.5 -12t-9 -28t-1.5 -29h-58q0 32 8 59.5t28.5 44.5t57.5 17q24 0 42.5 -11t33.5 -26t28 -26t27 -11q18 0 25 12t8.5 28.5t1.5 28.5h59q0 -31 -8.5 -58.5t-29 -44.5t-57.5 -17z" />
    <glyph glyph-name="oe" unicode="&#x153;" horiz-adv-x="1000" 
d="M299 -6q-83 0 -139 34.5t-83.5 95.5t-27.5 139q0 79 28 139.5t83.5 95.5t139.5 35q69 0 124 -27t89 -88q33 59 86.5 87t121.5 28q76 0 127 -36.5t76.5 -95t25.5 -124.5v-19.5t-1 -18.5h-403q5 -80 48 -131.5t131 -51.5q40 0 81.5 16t58.5 57h73q-13 -47 -46.5 -77
t-78 -44t-91.5 -14q-49 0 -87 11.5t-68 36t-56 63.5q-35 -59 -89.5 -85t-122.5 -26zM299 56q62 0 101.5 27.5t59 74.5t19.5 105t-19.5 105t-59 75t-101.5 28t-101.5 -28t-58.5 -75t-19 -105t18.5 -105t58.5 -74.5t102 -27.5zM547 300h332q-1 49 -21 87.5t-55 61t-86 22.5
q-52 0 -89 -24t-57 -62.5t-24 -84.5z" />
    <glyph glyph-name="p" unicode="p" horiz-adv-x="606" 
d="M69 -195v722h68l3 -87q31 47 78.5 70t106.5 23q80 0 131 -36t76 -97.5t25 -137.5q0 -78 -25.5 -139t-78 -95t-132.5 -34q-37 0 -71 8t-62 26.5t-48 48.5v-272h-71zM318 56q62 0 98.5 28.5t53 75.5t16.5 103q0 57 -17 104t-55 75.5t-100 28.5q-57 0 -96.5 -29t-59.5 -77
t-20 -103q0 -59 19.5 -105.5t60 -73.5t100.5 -27z" />
    <glyph glyph-name="thorn" unicode="&#xfe;" horiz-adv-x="606" 
d="M69 -195v902h71v-268q32 47 79.5 70.5t105.5 23.5q81 0 132 -37t75.5 -98.5t24.5 -135.5q0 -76 -25 -136.5t-77 -96t-134 -35.5q-54 0 -101 18.5t-80 64.5v-272h-71zM318 56q61 0 98 29t53.5 76.5t16.5 101.5q0 57 -17 104t-54.5 75.5t-100.5 28.5q-58 0 -97 -30t-59 -78
t-20 -101q0 -56 19 -103t59 -75t102 -28z" />
    <glyph glyph-name="q" unicode="q" horiz-adv-x="606" 
d="M466 -195v283q-27 -48 -76 -71t-109 -23q-63 0 -107.5 22t-72 59.5t-40 86t-12.5 101.5q0 74 26 135.5t78.5 98t132.5 36.5q54 0 101.5 -21t78.5 -62l3 77h68v-722h-71zM292 56q56 0 95 29t59.5 77t20.5 104q0 58 -19.5 104t-58.5 73.5t-98 27.5q-61 0 -98.5 -28.5
t-55 -75.5t-17.5 -103q0 -59 17 -106.5t55.5 -74.5t99.5 -27z" />
    <glyph glyph-name="r" unicode="r" horiz-adv-x="368" 
d="M69 0v527h68l3 -94q20 38 49.5 59t65 30.5t72.5 9.5h11h11v-65h-23q-66 0 -107.5 -28t-60 -76t-18.5 -107v-256h-71z" />
    <glyph glyph-name="racute" unicode="&#x155;" horiz-adv-x="368" 
d="M69 0v527h68l3 -94q20 38 49.5 59t65 30.5t72.5 9.5h11h11v-65h-23q-66 0 -107.5 -28t-60 -76t-18.5 -107v-256h-71zM177 609l82 137h78l-96 -137h-64z" />
    <glyph glyph-name="rcaron" unicode="&#x159;" horiz-adv-x="368" 
d="M69 0v527h68l3 -94q20 38 49.5 59t65 30.5t72.5 9.5h11h11v-65h-23q-66 0 -107.5 -28t-60 -76t-18.5 -107v-256h-71zM185 609l-127 151h73l80 -96l79 96h72l-127 -151h-50z" />
    <glyph glyph-name="uni0157" unicode="&#x157;" horiz-adv-x="368" 
d="M69 0v527h68l3 -94q20 38 49.5 59t65 30.5t72.5 9.5h11h11v-65h-23q-66 0 -107.5 -28t-60 -76t-18.5 -107v-256h-71zM74 -303l-21 29q13 9 25 22t21.5 29t12.5 34q-22 0 -39 12.5t-17 38.5q0 24 16 38t38 14q29 0 43.5 -21.5t13.5 -49.5q-1 -31 -13.5 -60.5t-33 -52
t-46.5 -33.5z" />
    <glyph glyph-name="s" unicode="s" horiz-adv-x="507" 
d="M258 -6q-35 0 -70 6.5t-66 22.5t-52.5 43t-29.5 66h73q12 -29 36.5 -45.5t54.5 -23.5t57 -7q19 0 42.5 2.5t44.5 11.5t34.5 26t13.5 45q0 25 -11.5 40t-30.5 24t-42 13q-36 8 -77 15t-74 25q-20 7 -38.5 17.5t-33.5 25.5t-24 36t-9 49q0 39 16 67t43.5 46t63.5 26t76 8
q48 0 88.5 -14.5t68 -43.5t34.5 -73h-66q-11 33 -46 51t-81 18q-17 0 -39 -3t-42 -11.5t-33 -25t-13 -44.5q0 -26 13 -43t36 -26.5t50 -16.5q33 -7 72.5 -13.5t65.5 -14.5q33 -10 56 -27t35 -41.5t12 -58.5q0 -46 -18 -75.5t-48.5 -46t-67.5 -23.5t-74 -7z" />
    <glyph glyph-name="sacute" unicode="&#x15b;" horiz-adv-x="507" 
d="M258 -6q-35 0 -70 6.5t-66 22.5t-52.5 43t-29.5 66h73q12 -29 36.5 -45.5t54.5 -23.5t57 -7q19 0 42.5 2.5t44.5 11.5t34.5 26t13.5 45q0 25 -11.5 40t-30.5 24t-42 13q-36 8 -77 15t-74 25q-20 7 -38.5 17.5t-33.5 25.5t-24 36t-9 49q0 39 16 67t43.5 46t63.5 26t76 8
q48 0 88.5 -14.5t68 -43.5t34.5 -73h-66q-11 33 -46 51t-81 18q-17 0 -39 -3t-42 -11.5t-33 -25t-13 -44.5q0 -26 13 -43t36 -26.5t50 -16.5q33 -7 72.5 -13.5t65.5 -14.5q33 -10 56 -27t35 -41.5t12 -58.5q0 -46 -18 -75.5t-48.5 -46t-67.5 -23.5t-74 -7zM221 609l82 137
h78l-96 -137h-64z" />
    <glyph glyph-name="scaron" unicode="&#x161;" horiz-adv-x="507" 
d="M258 -6q-35 0 -70 6.5t-66 22.5t-52.5 43t-29.5 66h73q12 -29 36.5 -45.5t54.5 -23.5t57 -7q19 0 42.5 2.5t44.5 11.5t34.5 26t13.5 45q0 25 -11.5 40t-30.5 24t-42 13q-36 8 -77 15t-74 25q-20 7 -38.5 17.5t-33.5 25.5t-24 36t-9 49q0 39 16 67t43.5 46t63.5 26t76 8
q48 0 88.5 -14.5t68 -43.5t34.5 -73h-66q-11 33 -46 51t-81 18q-17 0 -39 -3t-42 -11.5t-33 -25t-13 -44.5q0 -26 13 -43t36 -26.5t50 -16.5q33 -7 72.5 -13.5t65.5 -14.5q33 -10 56 -27t35 -41.5t12 -58.5q0 -46 -18 -75.5t-48.5 -46t-67.5 -23.5t-74 -7zM229 609l-127 151
h73l80 -96l79 96h72l-127 -151h-50z" />
    <glyph glyph-name="scedilla" unicode="&#x15f;" horiz-adv-x="507" 
d="M258 -6q-35 0 -70 6.5t-66 22.5t-52.5 43t-29.5 66h73q12 -29 36.5 -45.5t54.5 -23.5t57 -7q19 0 42.5 2.5t44.5 11.5t34.5 26t13.5 45q0 25 -11.5 40t-30.5 24t-42 13q-36 8 -77 15t-74 25q-20 7 -38.5 17.5t-33.5 25.5t-24 36t-9 49q0 39 16 67t43.5 46t63.5 26t76 8
q48 0 88.5 -14.5t68 -43.5t34.5 -73h-66q-11 33 -46 51t-81 18q-17 0 -39 -3t-42 -11.5t-33 -25t-13 -44.5q0 -26 13 -43t36 -26.5t50 -16.5q33 -7 72.5 -13.5t65.5 -14.5q33 -10 56 -27t35 -41.5t12 -58.5q0 -46 -18 -75.5t-48.5 -46t-67.5 -23.5t-74 -7zM244 -250
q-11 -1 -23.5 -2t-26.5 0v45q17 0 36 1t37 6.5t29.5 18t11.5 33.5q0 17 -10 25.5t-23.5 11.5t-24.5 3t-26 -2t-27 -7l32 127h50l-20 -76q8 1 14.5 1.5t12.5 0.5q37 0 57.5 -21t20.5 -59q0 -36 -16.5 -58t-43.5 -33.5t-60 -14.5z" />
    <glyph glyph-name="scircumflex" unicode="&#x15d;" horiz-adv-x="507" 
d="M258 -6q-35 0 -70 6.5t-66 22.5t-52.5 43t-29.5 66h73q12 -29 36.5 -45.5t54.5 -23.5t57 -7q19 0 42.5 2.5t44.5 11.5t34.5 26t13.5 45q0 25 -11.5 40t-30.5 24t-42 13q-36 8 -77 15t-74 25q-20 7 -38.5 17.5t-33.5 25.5t-24 36t-9 49q0 39 16 67t43.5 46t63.5 26t76 8
q48 0 88.5 -14.5t68 -43.5t34.5 -73h-66q-11 33 -46 51t-81 18q-17 0 -39 -3t-42 -11.5t-33 -25t-13 -44.5q0 -26 13 -43t36 -26.5t50 -16.5q33 -7 72.5 -13.5t65.5 -14.5q33 -10 56 -27t35 -41.5t12 -58.5q0 -46 -18 -75.5t-48.5 -46t-67.5 -23.5t-74 -7zM102 609l126 151
h50l127 -151h-72l-80 97l-80 -97h-71z" />
    <glyph glyph-name="uni0219" unicode="&#x219;" horiz-adv-x="507" 
d="M258 -6q-35 0 -70 6.5t-66 22.5t-52.5 43t-29.5 66h73q12 -29 36.5 -45.5t54.5 -23.5t57 -7q19 0 42.5 2.5t44.5 11.5t34.5 26t13.5 45q0 25 -11.5 40t-30.5 24t-42 13q-36 8 -77 15t-74 25q-20 7 -38.5 17.5t-33.5 25.5t-24 36t-9 49q0 39 16 67t43.5 46t63.5 26t76 8
q48 0 88.5 -14.5t68 -43.5t34.5 -73h-66q-11 33 -46 51t-81 18q-17 0 -39 -3t-42 -11.5t-33 -25t-13 -44.5q0 -26 13 -43t36 -26.5t50 -16.5q33 -7 72.5 -13.5t65.5 -14.5q33 -10 56 -27t35 -41.5t12 -58.5q0 -46 -18 -75.5t-48.5 -46t-67.5 -23.5t-74 -7zM218 -303l-21 29
q13 9 25 22t21.5 29t12.5 34q-22 0 -39 12.5t-17 38.5q0 24 16 38t38 14q29 0 43.5 -21.5t13.5 -49.5q-1 -31 -13.5 -60.5t-33 -52t-46.5 -33.5z" />
    <glyph glyph-name="germandbls" unicode="&#xdf;" horiz-adv-x="597" 
d="M382 -6q-43 0 -79.5 14t-60.5 44.5t-32 78.5h72q9 -40 37 -57.5t65 -17.5q42 -1 72 19t30 66q0 34 -16 51.5t-42 28.5q-17 8 -36.5 13t-38.5 10q-47 15 -75 43.5t-28 80.5q0 29 17.5 59.5t38.5 56.5q20 25 37 52t17 59q0 26 -14.5 45t-38.5 29.5t-52 10.5
q-39 0 -64.5 -16.5t-38 -44t-12.5 -59.5v-560h-70v553q0 39 10.5 73t33 60.5t59 41t89.5 14.5q34 0 64.5 -9t55 -27t38.5 -45t14 -63q0 -26 -8 -49t-21.5 -42.5t-28.5 -37.5q-22 -26 -40.5 -52t-18.5 -46q0 -28 16.5 -44.5t52.5 -26.5q20 -7 40.5 -13t40.5 -14
q39 -16 64 -44t25 -79q0 -54 -22.5 -89t-61.5 -51t-90 -16z" />
    <glyph glyph-name="t" unicode="t" horiz-adv-x="366" 
d="M282 0q-58 0 -94 18t-53 55.5t-17 95.5v296h-88v62h88v157h71v-157h146v-62h-146v-289q0 -58 22 -86.5t86 -28.5h35v-61h-50z" />
    <glyph glyph-name="tbar" unicode="&#x167;" horiz-adv-x="366" 
d="M282 0q-58 0 -94 18t-53 55.5t-17 95.5v92h-88v61h88v143h-88v62h88v157h71v-157h146v-62h-146v-143h146v-61h-146v-85q0 -58 22 -86.5t86 -28.5h36v-61h-51z" />
    <glyph glyph-name="tcaron" unicode="&#x165;" horiz-adv-x="384" 
d="M282 0q-58 0 -94 18t-53 55.5t-17 95.5v296h-88v62h88v157h71v-157h146v-62h-146v-289q0 -58 22 -86.5t86 -28.5h35v-61h-50zM353 491l-21 28q13 9 25 22.5t21 29.5t13 33q-22 0 -39 12.5t-17 38.5q0 24 15 38t39 14q29 0 43 -21.5t14 -49.5q0 -31 -13 -60.5t-34 -51.5
t-46 -33z" />
    <glyph glyph-name="uni0163" unicode="&#x163;" horiz-adv-x="366" 
d="M282 0q-58 0 -94 18t-53 55.5t-17 95.5v296h-88v62h88v157h71v-157h146v-62h-146v-289q0 -58 22 -86.5t86 -28.5h35v-61h-50zM207 -244q-11 -1 -23.5 -2t-26.5 0v45q17 0 36 1t37 6.5t29.5 18t11.5 33.5q0 17 -10 25.5t-23.5 11.5t-24.5 3t-26 -2t-27 -7l32 127h50
l-20 -76q8 1 14.5 1.5t12.5 0.5q37 0 57.5 -21t20.5 -59q0 -36 -16.5 -58t-43.5 -33.5t-60 -14.5z" />
    <glyph glyph-name="uni021B" unicode="&#x21b;" horiz-adv-x="366" 
d="M282 0q-58 0 -94 18t-53 55.5t-17 95.5v296h-88v62h88v157h71v-157h146v-62h-146v-289q0 -58 22 -86.5t86 -28.5h35v-61h-50zM181 -296l-21 29q13 9 25 22t21.5 29t12.5 34q-22 0 -39 12.5t-17 38.5q0 24 16 38t38 14q29 0 43.5 -21.5t13.5 -49.5q-1 -31 -13.5 -60.5
t-33 -52t-46.5 -33.5z" />
    <glyph glyph-name="u" unicode="u" horiz-adv-x="574" 
d="M286 -6q-110 0 -164.5 59t-54.5 176v298h71v-296q0 -53 15.5 -92.5t48 -61t84.5 -21.5q53 0 86.5 21t48.5 60.5t15 93.5v296h71v-298q0 -117 -55 -176t-166 -59z" />
    <glyph glyph-name="uacute" unicode="&#xfa;" horiz-adv-x="574" 
d="M286 -6q-110 0 -164.5 59t-54.5 176v298h71v-296q0 -53 15.5 -92.5t48 -61t84.5 -21.5q53 0 86.5 21t48.5 60.5t15 93.5v296h71v-298q0 -117 -55 -176t-166 -59zM254 609l82 137h78l-96 -137h-64z" />
    <glyph glyph-name="ubreve" unicode="&#x16d;" horiz-adv-x="574" 
d="M286 -6q-110 0 -164.5 59t-54.5 176v298h71v-296q0 -53 15.5 -92.5t48 -61t84.5 -21.5q53 0 86.5 21t48.5 60.5t15 93.5v296h71v-298q0 -117 -55 -176t-166 -59zM286 606q-71 0 -114.5 29.5t-47.5 91.5h65q4 -37 30.5 -51.5t67.5 -14.5t67.5 14.5t30.5 51.5h65
q-2 -41 -23.5 -68.5t-57.5 -40t-83 -12.5z" />
    <glyph glyph-name="ucircumflex" unicode="&#xfb;" horiz-adv-x="574" 
d="M286 -6q-110 0 -164.5 59t-54.5 176v298h71v-296q0 -53 15.5 -92.5t48 -61t84.5 -21.5q53 0 86.5 21t48.5 60.5t15 93.5v296h71v-298q0 -117 -55 -176t-166 -59zM135 609l126 151h50l127 -151h-72l-80 97l-80 -97h-71z" />
    <glyph glyph-name="udieresis" unicode="&#xfc;" horiz-adv-x="574" 
d="M286 -6q-110 0 -164.5 59t-54.5 176v298h71v-296q0 -53 15.5 -92.5t48 -61t84.5 -21.5q53 0 86.5 21t48.5 60.5t15 93.5v296h71v-298q0 -117 -55 -176t-166 -59zM397 614q-22 0 -36.5 14t-14.5 36t14.5 36.5t36.5 14.5q23 0 37.5 -14t14.5 -37q0 -22 -14.5 -36t-37.5 -14
zM176 614q-22 0 -36.5 14t-14.5 36t14.5 36.5t36.5 14.5q23 0 38 -14t15 -37q0 -22 -15 -36t-38 -14z" />
    <glyph glyph-name="ugrave" unicode="&#xf9;" horiz-adv-x="574" 
d="M286 -6q-110 0 -164.5 59t-54.5 176v298h71v-296q0 -53 15.5 -92.5t48 -61t84.5 -21.5q53 0 86.5 21t48.5 60.5t15 93.5v296h71v-298q0 -117 -55 -176t-166 -59zM261 609l-96 137h78l82 -137h-64z" />
    <glyph glyph-name="uhungarumlaut" unicode="&#x171;" horiz-adv-x="574" 
d="M286 -6q-110 0 -164.5 59t-54.5 176v298h71v-296q0 -53 15.5 -92.5t48 -61t84.5 -21.5q53 0 86.5 21t48.5 60.5t15 93.5v296h71v-298q0 -117 -55 -176t-166 -59zM308 609l82 137h78l-96 -137h-64zM162 609l82 137h78l-96 -137h-64z" />
    <glyph glyph-name="umacron" unicode="&#x16b;" horiz-adv-x="574" 
d="M286 -6q-110 0 -164.5 59t-54.5 176v298h71v-296q0 -53 15.5 -92.5t48 -61t84.5 -21.5q53 0 86.5 21t48.5 60.5t15 93.5v296h71v-298q0 -117 -55 -176t-166 -59zM130 636v61h313v-61h-313z" />
    <glyph glyph-name="uogonek" unicode="&#x173;" horiz-adv-x="574" 
d="M286 -6q-110 0 -164.5 59t-54.5 176v298h71v-296q0 -53 15.5 -92.5t48 -61t84.5 -21.5q53 0 86.5 21t48.5 60.5t15 93.5v296h71v-298q0 -117 -55 -176t-166 -59zM333 -216q-56 0 -89.5 28t-33.5 79q0 42 27.5 73.5t62.5 48.5l50 -9q-31 -18 -54.5 -45t-23.5 -59
q0 -30 19 -46t50 -17q11 0 22.5 3t22.5 8l12 -50q-16 -8 -31.5 -11t-33.5 -3z" />
    <glyph glyph-name="uring" unicode="&#x16f;" horiz-adv-x="574" 
d="M286 -6q-110 0 -164.5 59t-54.5 176v298h71v-296q0 -53 15.5 -92.5t48 -61t84.5 -21.5q53 0 86.5 21t48.5 60.5t15 93.5v296h71v-298q0 -117 -55 -176t-166 -59zM286 581q-42 0 -68 24t-26 66q0 41 26.5 68t68.5 27t67.5 -27t25.5 -68q0 -42 -26.5 -66t-67.5 -24z
M286 624q22 0 34.5 13t12.5 35t-12.5 35.5t-34.5 13.5t-34.5 -13.5t-12.5 -35.5t12.5 -35t34.5 -13z" />
    <glyph glyph-name="utilde" unicode="&#x169;" horiz-adv-x="574" 
d="M286 -6q-110 0 -164.5 59t-54.5 176v298h71v-296q0 -53 15.5 -92.5t48 -61t84.5 -21.5q53 0 86.5 21t48.5 60.5t15 93.5v296h71v-298q0 -117 -55 -176t-166 -59zM351 601q-25 0 -43.5 11t-33.5 25.5t-28 25.5t-27 11q-16 0 -23.5 -12t-9 -28t-1.5 -29h-58q0 32 8 59.5
t28.5 44.5t57.5 17q24 0 42.5 -11t33.5 -26t28 -26t27 -11q18 0 25 12t8.5 28.5t1.5 28.5h59q0 -31 -8.5 -58.5t-29 -44.5t-57.5 -17z" />
    <glyph glyph-name="v" unicode="v" horiz-adv-x="527" 
d="M214 0l-205 527h80l175 -460l173 460h81l-207 -527h-97z" />
    <glyph glyph-name="w" unicode="w" horiz-adv-x="829" 
d="M177 0l-163 527h79l134 -460l138 460h100l139 -460l131 460h80l-163 -527h-98l-139 449l-140 -449h-98z" />
    <glyph glyph-name="wacute" unicode="&#x1e83;" horiz-adv-x="829" 
d="M177 0l-163 527h79l134 -460l138 460h100l139 -460l131 460h80l-163 -527h-98l-139 449l-140 -449h-98zM382 609l82 137h78l-96 -137h-64z" />
    <glyph glyph-name="wcircumflex" unicode="&#x175;" horiz-adv-x="829" 
d="M177 0l-163 527h79l134 -460l138 460h100l139 -460l131 460h80l-163 -527h-98l-139 449l-140 -449h-98zM263 609l126 151h50l127 -151h-72l-80 97l-80 -97h-71z" />
    <glyph glyph-name="wdieresis" unicode="&#x1e85;" horiz-adv-x="829" 
d="M177 0l-163 527h79l134 -460l138 460h100l139 -460l131 460h80l-163 -527h-98l-139 449l-140 -449h-98zM525 614q-22 0 -36.5 14t-14.5 36t14.5 36.5t36.5 14.5q23 0 37.5 -14t14.5 -37q0 -22 -14.5 -36t-37.5 -14zM304 614q-22 0 -36.5 14t-14.5 36t14.5 36.5t36.5 14.5
q23 0 38 -14t15 -37q0 -22 -15 -36t-38 -14z" />
    <glyph glyph-name="wgrave" unicode="&#x1e81;" horiz-adv-x="829" 
d="M177 0l-163 527h79l134 -460l138 460h100l139 -460l131 460h80l-163 -527h-98l-139 449l-140 -449h-98zM389 609l-96 137h78l82 -137h-64z" />
    <glyph glyph-name="x" unicode="x" horiz-adv-x="505" 
d="M16 0l190 269l-179 258h85l142 -210l139 210h83l-178 -259l191 -268h-85l-154 214l-153 -214h-81z" />
    <glyph glyph-name="y" unicode="y" horiz-adv-x="597" 
d="M297 -243q-58 0 -113.5 16t-99.5 55l31 57q40 -31 85 -48t94 -17q89 0 127 50.5t38 131.5v81q-21 -34 -51 -54t-64.5 -28.5t-70.5 -8.5q-78 0 -123 32t-63.5 87.5t-18.5 126.5v289h71v-265q0 -39 5 -76t20 -66.5t44 -47.5t78 -18q63 0 100.5 30.5t54 80.5t16.5 109v253
h71v-529q0 -58 -14.5 -103t-43.5 -75.5t-72 -46.5t-101 -16z" />
    <glyph glyph-name="yacute" unicode="&#xfd;" horiz-adv-x="597" 
d="M297 -243q-58 0 -113.5 16t-99.5 55l31 57q40 -31 85 -48t94 -17q89 0 127 50.5t38 131.5v81q-21 -34 -51 -54t-64.5 -28.5t-70.5 -8.5q-78 0 -123 32t-63.5 87.5t-18.5 126.5v289h71v-265q0 -39 5 -76t20 -66.5t44 -47.5t78 -18q63 0 100.5 30.5t54 80.5t16.5 109v253
h71v-529q0 -58 -14.5 -103t-43.5 -75.5t-72 -46.5t-101 -16zM266 609l82 137h78l-96 -137h-64z" />
    <glyph glyph-name="ycircumflex" unicode="&#x177;" horiz-adv-x="597" 
d="M297 -243q-58 0 -113.5 16t-99.5 55l31 57q40 -31 85 -48t94 -17q89 0 127 50.5t38 131.5v81q-21 -34 -51 -54t-64.5 -28.5t-70.5 -8.5q-78 0 -123 32t-63.5 87.5t-18.5 126.5v289h71v-265q0 -39 5 -76t20 -66.5t44 -47.5t78 -18q63 0 100.5 30.5t54 80.5t16.5 109v253
h71v-529q0 -58 -14.5 -103t-43.5 -75.5t-72 -46.5t-101 -16zM147 609l126 151h50l127 -151h-72l-80 97l-80 -97h-71z" />
    <glyph glyph-name="ydieresis" unicode="&#xff;" horiz-adv-x="597" 
d="M297 -243q-58 0 -113.5 16t-99.5 55l31 57q40 -31 85 -48t94 -17q89 0 127 50.5t38 131.5v81q-21 -34 -51 -54t-64.5 -28.5t-70.5 -8.5q-78 0 -123 32t-63.5 87.5t-18.5 126.5v289h71v-265q0 -39 5 -76t20 -66.5t44 -47.5t78 -18q63 0 100.5 30.5t54 80.5t16.5 109v253
h71v-529q0 -58 -14.5 -103t-43.5 -75.5t-72 -46.5t-101 -16zM409 614q-22 0 -36.5 14t-14.5 36t14.5 36.5t36.5 14.5q23 0 37.5 -14t14.5 -37q0 -22 -14.5 -36t-37.5 -14zM188 614q-22 0 -36.5 14t-14.5 36t14.5 36.5t36.5 14.5q23 0 38 -14t15 -37q0 -22 -15 -36t-38 -14z
" />
    <glyph glyph-name="ygrave" unicode="&#x1ef3;" horiz-adv-x="597" 
d="M297 -243q-58 0 -113.5 16t-99.5 55l31 57q40 -31 85 -48t94 -17q89 0 127 50.5t38 131.5v81q-21 -34 -51 -54t-64.5 -28.5t-70.5 -8.5q-78 0 -123 32t-63.5 87.5t-18.5 126.5v289h71v-265q0 -39 5 -76t20 -66.5t44 -47.5t78 -18q63 0 100.5 30.5t54 80.5t16.5 109v253
h71v-529q0 -58 -14.5 -103t-43.5 -75.5t-72 -46.5t-101 -16zM273 609l-96 137h78l82 -137h-64z" />
    <glyph glyph-name="z" unicode="z" horiz-adv-x="519" 
d="M49 0v62l333 403h-331v62h419v-61l-336 -405h336v-61h-421z" />
    <glyph glyph-name="zacute" unicode="&#x17a;" horiz-adv-x="519" 
d="M49 0v62l333 403h-331v62h419v-61l-336 -405h336v-61h-421zM227 609l82 137h78l-96 -137h-64z" />
    <glyph glyph-name="zcaron" unicode="&#x17e;" horiz-adv-x="519" 
d="M49 0v62l333 403h-331v62h419v-61l-336 -405h336v-61h-421zM235 609l-127 151h73l80 -96l79 96h72l-127 -151h-50z" />
    <glyph glyph-name="zdotaccent" unicode="&#x17c;" horiz-adv-x="519" 
d="M49 0v62l333 403h-331v62h419v-61l-336 -405h336v-61h-421zM259 612q-23 0 -37 14t-14 37t14.5 36.5t36.5 13.5q21 0 36.5 -14t15.5 -36q0 -23 -15 -37t-37 -14z" />
    <glyph glyph-name="a_alt" horiz-adv-x="554" 
d="M225 -6q-46 0 -85.5 15t-64.5 47t-25 84q0 36 13.5 61.5t36.5 43.5t52 29t59 17q40 7 92 12t114 10q0 48 -14.5 83.5t-45 55t-78.5 19.5q-40 0 -74.5 -13t-53.5 -49h-76q12 45 43.5 72t75 39.5t85.5 12.5q80 0 125.5 -32.5t64 -87.5t18.5 -125v-288h-65l-5 72
q-25 -29 -57 -46t-66.5 -24.5t-68.5 -7.5zM233 55q50 0 92 17.5t67.5 53.5t25.5 90v38q-32 -2 -67.5 -5t-69.5 -7.5t-64 -11.5q-45 -9 -70.5 -31.5t-25.5 -56.5q0 -35 18.5 -54t45 -26t48.5 -7z" />
    <glyph glyph-name="c_alt" horiz-adv-x="545" 
d="M294 -6q-84 0 -139 35t-82.5 95.5t-27.5 138.5q0 79 28 140t84.5 95.5t140.5 34.5q48 0 87 -13t67.5 -41t43.5 -73h-74q-18 35 -54 50t-72 15q-59 0 -99 -27.5t-60.5 -74t-20.5 -106.5q0 -55 19 -102.5t59 -76t101 -28.5q37 0 73.5 12.5t55.5 45.5h77
q-16 -42 -47.5 -68.5t-73 -39t-86.5 -12.5z" />
    <glyph glyph-name="f_alt" horiz-adv-x="366" 
d="M119 0v465h-88v62h88v59q0 55 14 94t47 60t89 21q31 0 55.5 -7t47.5 -25l-30 -53q-13 9 -31 16t-40 7q-35 0 -52.5 -17t-23 -44.5t-5.5 -59.5v-51h165v-62h-165v-465h-71z" />
    <glyph glyph-name="g_alt" horiz-adv-x="603" 
d="M298 -243q-60 0 -114 17.5t-96 53.5l31 57q41 -32 86 -48.5t94 -16.5q61 0 97.5 24.5t52 67t15.5 96.5v86q-19 -37 -49.5 -59t-66 -31.5t-70.5 -9.5q-82 0 -133.5 36t-75 97t-23.5 136q0 74 25.5 135.5t78.5 98t133 36.5q33 0 66 -8t62.5 -26.5t51.5 -50.5l3 79h68v-525
q0 -78 -26.5 -133t-79 -83.5t-130.5 -28.5zM288 56q57 0 96 29t59.5 77t20.5 104q0 58 -20 104.5t-59 73.5t-98 27q-61 0 -98.5 -29t-54.5 -76t-17 -102q0 -59 17 -106.5t55 -74.5t99 -27z" />
    <glyph glyph-name="i_alt" horiz-adv-x="250" 
d="M102 0v465h-88v62h159v-527h-71zM137 621q-22 0 -37 14t-15 37q0 15 7 26.5t18.5 17.5t26.5 6q22 0 37 -14t15 -36q0 -23 -15 -37t-37 -14z" />
    <glyph glyph-name="j_alt" horiz-adv-x="261" 
d="M-16 -185v61h31q38 0 60 12.5t31 38t9 64.5v474h-93v62h164v-544q0 -87 -38 -127.5t-125 -40.5h-39zM148 621q-22 0 -37 14t-15 37q0 15 7 26.5t19 17.5t26 6q22 0 37 -14t15 -36q0 -23 -15 -37t-37 -14z" />
    <glyph glyph-name="k_alt" horiz-adv-x="520" 
d="M69 0v707h71v-455l267 275h83l-212 -218l226 -309h-81l-195 264l-88 -92v-172h-71z" />
    <glyph glyph-name="l_alt" horiz-adv-x="292" 
d="M231 0q-48 0 -79 11.5t-49 32.5q-21 26 -27 66t-6 92v505h70v-501q0 -34 3 -63.5t16 -48.5q21 -32 88 -32h36v-62h-52z" />
    <glyph glyph-name="s_alt" horiz-adv-x="537" 
d="M276 -6q-39 0 -77 7.5t-70.5 23.5t-55 42.5t-30.5 64.5h73q13 -31 41.5 -47t60.5 -22.5t55 -6.5q20 0 45.5 3t49 11.5t39 25.5t15.5 45q0 26 -10.5 41.5t-28.5 24t-42 13.5q-25 5 -56 9.5t-61.5 11.5t-53.5 18q-20 7 -40 16.5t-36.5 24t-25.5 35.5t-9 51q0 43 19 72
t51 45t69.5 23t74.5 7q48 0 90.5 -13.5t72 -42.5t37.5 -74h-66q-6 25 -29.5 40t-54 21.5t-56.5 6.5q-27 0 -59.5 -6.5t-55.5 -24t-23 -54.5q0 -24 13 -40.5t35 -26t48 -15.5q23 -4 55 -9.5t62.5 -9.5t49.5 -9q34 -9 56.5 -26t33.5 -42t11 -58q0 -44 -18 -74.5t-49 -48.5
t-69.5 -25.5t-80.5 -7.5z" />
    <glyph glyph-name="t_alt" horiz-adv-x="378" 
d="M283 0q-60 0 -96 18.5t-52 56t-16 94.5v296h-88v62h89l10 157h60v-157h147v-62h-147v-289q0 -58 23 -86.5t84 -28.5h36v-61h-50z" />
    <glyph glyph-name="u_alt" horiz-adv-x="590" 
d="M268 -9q-77 0 -121.5 32.5t-63 88t-18.5 124.5v291h70v-268q0 -39 5 -76t19 -66t43 -46t77 -17t80.5 17.5t52.5 48.5t29 71t9 84v252h71v-527h-62l-4 86q-20 -36 -51.5 -57t-67 -29.5t-68.5 -8.5z" />
    <glyph glyph-name="w_alt" horiz-adv-x="761" 
d="M178 0l-162 527h79l133 -460l115 331h76l115 -331l132 460h79l-162 -527h-98l-104 299l-106 -299h-97z" />
    <glyph glyph-name="y_alt" horiz-adv-x="597" 
d="M289 -243q-51 0 -96 15.5t-77 48t-44 82.5h74q11 -31 34.5 -49.5t53.5 -26t59 -7.5q40 0 68.5 10.5t47.5 29t29.5 41.5t15 48.5t4.5 50.5v84q-19 -36 -50 -56.5t-65.5 -28.5t-66.5 -8q-66 0 -107.5 21.5t-63 57t-29.5 79t-8 89.5v289h71v-266q0 -38 5 -75t20.5 -67
t44.5 -48t77 -18q47 0 79.5 18t53 49t29.5 70t9 83v254h71v-532q0 -57 -15.5 -101.5t-46.5 -75t-75.5 -46t-101.5 -15.5z" />
    <glyph glyph-name="ordfeminine" unicode="&#xaa;" horiz-adv-x="361" 
d="M157 415q-41 0 -72.5 21.5t-31.5 66.5q0 34 16.5 53t42.5 26.5t54 7.5h82q-2 34 -15.5 55t-50.5 22q-21 0 -39 -6.5t-24 -25.5h-54q6 29 23 46t41 25t52 8q45 0 70.5 -17.5t36 -48.5t10.5 -72v-158h-42l-4 34q-20 -20 -44.5 -28.5t-50.5 -8.5zM162 462q42 0 64 20t22 64
h-59q-15 0 -35 -0.5t-35 -9t-15 -30.5q0 -24 17.5 -34t40.5 -10z" />
    <glyph glyph-name="ordmasculine" unicode="&#xba;" horiz-adv-x="382" 
d="M191 413q-47 0 -75 21t-40.5 55.5t-12.5 72.5q0 40 12.5 74t40.5 55.5t75 21.5t75 -21.5t40.5 -55.5t12.5 -74q0 -38 -12.5 -72.5t-40.5 -55.5t-75 -21zM191 461q29 0 45 15.5t22 39t6 46.5q0 25 -6 48.5t-22 38.5t-45 15t-45 -15t-22.5 -38.5t-6.5 -48.5
q0 -24 6.5 -47.5t22 -38.5t45.5 -15z" />
    <glyph glyph-name="uni0410" unicode="&#x410;" horiz-adv-x="659" 
d="M12 0l268 707h99l268 -707h-79l-58 156h-361l-58 -156h-79zM173 221h312l-156 419z" />
    <glyph glyph-name="uni0411" unicode="&#x411;" horiz-adv-x="652" 
d="M89 0v707h475v-65h-403v-233h174q50 0 96.5 -8t83.5 -28.5t58.5 -58.5t21.5 -100q0 -60 -20 -101.5t-56 -66t-84.5 -35.5t-104.5 -11h-241zM161 65h158q38 0 75 6t65.5 20.5t45.5 43.5t17 74q0 47 -17 74t-45.5 40t-64 16.5t-72.5 3.5h-162v-278z" />
    <glyph glyph-name="uni0412" unicode="&#x412;" horiz-adv-x="654" 
d="M88 0v707h245q50 0 92 -8t74 -27t49.5 -53t17.5 -86q0 -59 -29.5 -101t-83.5 -61q71 -10 110.5 -56.5t39.5 -120.5q0 -57 -22.5 -94.5t-61.5 -59.5t-88 -31t-103 -9h-240zM160 65h165q33 0 69 4t67 16.5t50 39.5t19 72q0 40 -15 65t-40.5 39.5t-57 20t-64.5 5.5h-193
v-262zM160 391h145q37 0 71.5 7t61.5 23t42.5 42t15.5 65q0 50 -23 74t-59.5 32t-79.5 8h-174v-251z" />
    <glyph glyph-name="uni0413" unicode="&#x413;" horiz-adv-x="568" 
d="M89 0v707h448v-65h-376v-642h-72z" />
    <glyph glyph-name="Geupturncy" unicode="&#x490;" horiz-adv-x="568" 
d="M89 0v707h376v141h72v-206h-376v-642h-72z" />
    <glyph glyph-name="uni0414" unicode="&#x414;" horiz-adv-x="712" 
d="M24 -199v264q38 3 58.5 22t31.5 46q10 25 16 60t9.5 74t5.5 77q5 94 7.5 184t3.5 179h445v-642h87v-264h-72v199h-519v-199h-73zM160 65h369v577h-302l-10 -302q-1 -24 -2.5 -58.5t-7 -72t-17 -75t-30.5 -69.5z" />
    <glyph glyph-name="uni0415" unicode="&#x415;" horiz-adv-x="608" 
d="M89 0v707h469v-65h-397v-259h357v-66h-357v-252h397v-65h-469z" />
    <glyph glyph-name="uni0401" unicode="&#x401;" horiz-adv-x="608" 
d="M89 0v707h469v-65h-397v-259h357v-66h-357v-252h397v-65h-469zM438 794q-22 0 -36.5 14t-14.5 36t14.5 36.5t36.5 14.5q23 0 37.5 -14t14.5 -37q0 -22 -14.5 -36t-37.5 -14zM217 794q-22 0 -36.5 14t-14.5 36t14.5 36.5t36.5 14.5q23 0 38 -14t15 -37q0 -22 -15 -36
t-38 -14z" />
    <glyph glyph-name="uni0416" unicode="&#x416;" horiz-adv-x="856" 
d="M16 0l192 357l-191 350h80l175 -328h120v328h72v-328h122l175 328h77l-191 -350l193 -357h-84l-167 314h-125v-314h-72v314h-125l-167 -314h-84z" />
    <glyph glyph-name="uni0417" unicode="&#x417;" horiz-adv-x="625" 
d="M314 -8q-48 0 -94 9.5t-84.5 30.5t-62.5 55t-27 83h73q4 -32 22 -53.5t46 -35t60.5 -19t62.5 -5.5t63 5t62 19.5t47 42t18 71.5q0 42 -14.5 68t-41 40.5t-61 19t-73.5 4.5h-89v65h55q36 0 70.5 7t63 22.5t45.5 40.5t17 61q0 51 -24.5 78t-61.5 38t-77 11q-39 0 -77.5 -11
t-64.5 -35t-29 -63h-73q1 43 19 73t46.5 49.5t61.5 31t65.5 16t57.5 4.5q44 0 84 -9.5t72.5 -30.5t51.5 -55.5t19 -84.5q0 -29 -9.5 -59t-34.5 -57t-73 -47q72 -11 110.5 -60.5t38.5 -116.5q-1 -55 -23.5 -94t-59.5 -63t-82.5 -35t-94.5 -11z" />
    <glyph glyph-name="uni0418" unicode="&#x418;" horiz-adv-x="733" 
d="M89 0v707h72v-604l400 604h83v-707h-73v599l-400 -599h-82z" />
    <glyph glyph-name="uni0419" unicode="&#x419;" horiz-adv-x="733" 
d="M89 0v707h72v-604l400 604h83v-707h-73v599l-400 -599h-82zM367 784q-52 0 -91.5 15.5t-62 46.5t-26.5 76h68q6 -40 36.5 -59.5t75.5 -19.5t75.5 19.5t35.5 59.5h68q-3 -45 -26 -75.5t-62 -46.5t-91 -16z" />
    <glyph glyph-name="uni041A" unicode="&#x41a;" horiz-adv-x="616" 
d="M89 0v707h72v-333h118l236 333h83l-253 -351l255 -356h-85l-227 309h-127v-309h-72z" />
    <glyph glyph-name="uni041B" unicode="&#x41b;" horiz-adv-x="691" 
d="M14 -7v72q23 1 41 10.5t31.5 26t20.5 37.5q10 30 15 66t7 73.5t2 70.5l6 358h465v-707h-72v642h-320l-6 -255q-1 -58 -3 -116.5t-10.5 -110t-31.5 -86.5q-20 -37 -55 -57.5t-90 -23.5z" />
    <glyph glyph-name="uni041C" unicode="&#x41c;" horiz-adv-x="852" 
d="M89 0v707h107l233 -410l229 410h105v-707h-72v632l-247 -444h-34l-249 444v-632h-72z" />
    <glyph glyph-name="uni041D" unicode="&#x41d;" horiz-adv-x="726" 
d="M89 0v707h72v-327h404v327h72v-707h-72v314h-404v-314h-72z" />
    <glyph glyph-name="uni041E" unicode="&#x41e;" horiz-adv-x="763" 
d="M382 -8q-110 0 -183.5 47t-111 129t-37.5 185q0 104 37.5 186t111 129t183.5 47t183 -47t110.5 -129t37.5 -186q0 -103 -37.5 -185t-110.5 -129t-183 -47zM382 57q88 0 145 40t84.5 107.5t27.5 148.5q0 61 -15.5 115t-47.5 95t-80.5 64t-113.5 23q-87 0 -144.5 -40.5
t-86 -108t-28.5 -148.5q0 -80 28 -147.5t86 -108t145 -40.5z" />
    <glyph glyph-name="uni041F" unicode="&#x41f;" horiz-adv-x="729" 
d="M89 0v707h551v-707h-72v642h-407v-642h-72z" />
    <glyph glyph-name="uni0420" unicode="&#x420;" horiz-adv-x="623" 
d="M89 0v707h242q77 0 132 -25t84.5 -76.5t29.5 -130.5q0 -78 -34.5 -131t-94 -79t-136.5 -26h-151v-239h-72zM161 304h148q86 0 140 41t54 134q0 84 -45.5 123.5t-131.5 39.5h-165v-338z" />
    <glyph glyph-name="uni0421" unicode="&#x421;" horiz-adv-x="706" 
d="M375 -8q-110 0 -182 46.5t-107.5 128.5t-35.5 186t36 185.5t108.5 129t181.5 47.5q71 0 126 -21.5t91.5 -62t51.5 -97.5h-73q-20 55 -71.5 85.5t-124.5 30.5q-89 0 -144.5 -41t-82 -108t-26.5 -145q0 -82 27 -150t83 -108.5t143 -40.5q48 0 89 13.5t71 39.5t43 63h79
q-17 -57 -57 -97.5t-97.5 -62t-128.5 -21.5z" />
    <glyph glyph-name="uni0422" unicode="&#x422;" horiz-adv-x="568" 
d="M248 0v642h-232v65h536v-65h-232v-642h-72z" />
    <glyph glyph-name="uni0423" unicode="&#x423;" horiz-adv-x="602" 
d="M114 -1v69q46 0 79 11t57 34.5t44 60.5l-275 533h85l231 -456l188 456h78l-163 -383q-11 -27 -28 -65.5t-38 -79.5t-44.5 -76t-47.5 -56q-33 -27 -73.5 -37.5t-92.5 -10.5z" />
    <glyph glyph-name="uni040E" unicode="&#x40e;" horiz-adv-x="602" 
d="M114 -1v69q46 0 79 11t57 34.5t44 60.5l-275 533h85l231 -456l188 456h78l-163 -383q-11 -27 -28 -65.5t-38 -79.5t-44.5 -76t-47.5 -56q-33 -27 -73.5 -37.5t-92.5 -10.5zM321 786q-71 0 -114.5 29.5t-47.5 91.5h65q4 -37 30.5 -51.5t67.5 -14.5t67.5 14.5t30.5 51.5h65
q-2 -41 -23.5 -68.5t-57.5 -40t-83 -12.5z" />
    <glyph glyph-name="uni0424" unicode="&#x424;" horiz-adv-x="834" 
d="M381 -11v116h-86q-80 2 -135 37.5t-82.5 97.5t-27.5 139q1 81 34 139.5t92 90.5t134 32h71v103h72v-103h71q76 0 134.5 -32t91.5 -90.5t34 -139.5q1 -76 -28.5 -138t-85 -98t-135.5 -38h-82v-116h-72zM314 166h67v414h-64q-60 0 -103.5 -25.5t-67 -70t-23.5 -103.5
q0 -61 20 -110t62 -77t109 -28zM453 166h67q67 0 109.5 28t62 77t19.5 110q0 59 -23.5 103.5t-67 70t-103.5 25.5h-64v-414z" />
    <glyph glyph-name="uni0425" unicode="&#x425;" horiz-adv-x="581" 
d="M16 0l228 354l-221 353h90l178 -294l177 294h89l-220 -350l228 -357h-88l-187 296l-188 -296h-86z" />
    <glyph glyph-name="uni0427" unicode="&#x427;" horiz-adv-x="655" 
d="M493 0v264q-35 -3 -60 -5.5t-49 -3.5t-58 -1q-81 0 -139.5 19.5t-89.5 68.5t-31 140v225h72v-205q0 -73 20.5 -113t63.5 -55t111 -15q37 0 79.5 2t80.5 7v379h73v-707h-73z" />
    <glyph glyph-name="uni0426" unicode="&#x426;" horiz-adv-x="725" 
d="M632 -199v199h-543v707h72v-642h384v642h72v-642h87v-264h-72z" />
    <glyph glyph-name="uni0428" unicode="&#x428;" horiz-adv-x="970" 
d="M89 0v707h72v-642h288v642h72v-642h287v642h73v-707h-792z" />
    <glyph glyph-name="uni0429" unicode="&#x429;" horiz-adv-x="989" 
d="M895 -199v199h-806v707h72v-642h288v642h72v-642h287v642h73v-642h87v-264h-73z" />
    <glyph glyph-name="uni042C" unicode="&#x42c;" horiz-adv-x="631" 
d="M88 0v707h72v-298h147q52 0 100.5 -7.5t87 -28t61.5 -58.5t23 -101q1 -62 -20.5 -103t-58.5 -65.5t-85.5 -35t-103.5 -10.5h-223zM160 65h141q39 0 75.5 5t66 19.5t46.5 43.5t17 76t-17 74t-46.5 40t-65 17t-73.5 4h-144v-279z" />
    <glyph glyph-name="uni042B" unicode="&#x42b;" horiz-adv-x="834" 
d="M89 0v707h72v-298h126q52 0 100.5 -7.5t87 -27.5t61.5 -58t23 -101q0 -61 -20.5 -102t-56.5 -66t-84.5 -36t-105.5 -11h-203zM161 65h120q38 0 74.5 5.5t66 20t47 43t17.5 75.5t-17 74t-46 40t-64.5 17t-72.5 4h-125v-279zM673 0v707h72v-707h-72z" />
    <glyph glyph-name="uni042A" unicode="&#x42a;" horiz-adv-x="730" 
d="M187 0v642h-171v65h243v-298h152q50 0 98 -7.5t86 -28t60.5 -58.5t22.5 -100q0 -60 -20.5 -101t-57 -66.5t-85.5 -36.5t-105 -11h-223zM259 65h138q38 0 75.5 5.5t67.5 20t47.5 43t17.5 75.5t-17 74t-46.5 40t-65.5 17t-73 4h-144v-279z" />
    <glyph glyph-name="uni0405" unicode="&#x405;" horiz-adv-x="649" 
d="M340 -8q-65 0 -122.5 17.5t-99.5 57t-59 106.5h76q17 -45 50 -70.5t74.5 -35.5t83.5 -10q44 0 83 12.5t64 41t25 72.5q0 36 -13.5 58t-37.5 35.5t-55 22.5q-31 10 -65.5 17t-68 16t-62.5 22q-25 10 -48.5 23.5t-42 33t-29.5 47t-11 63.5q0 54 21 91.5t56.5 60t79.5 32.5
t90 10q61 0 113 -17.5t86 -56t40 -103.5h-72q-7 42 -32 66.5t-60.5 35t-74.5 10.5q-29 0 -59.5 -5.5t-56 -19.5t-40.5 -37.5t-15 -59.5q0 -32 12.5 -54.5t34.5 -37t48 -23.5q46 -17 98.5 -27t99.5 -26q30 -10 55.5 -24.5t44 -34.5t28.5 -45.5t10 -57.5q0 -57 -20 -96.5
t-55 -63.5t-80 -35t-94 -11z" />
    <glyph glyph-name="uni0404" unicode="&#x404;" horiz-adv-x="704" 
d="M375 -8q-109 0 -181.5 46t-108 126.5t-35.5 185.5q0 103 35.5 185.5t107.5 131t180 48.5q63 0 118.5 -18.5t96 -58t57.5 -104.5h-72q-15 42 -46 67.5t-71 37t-82 11.5q-79 0 -133.5 -35.5t-83.5 -95t-32 -133.5h343v-65h-343q3 -75 31.5 -135t83 -94.5t135.5 -34.5
q41 0 82.5 11.5t74 37t46.5 67.5h78q-18 -62 -61 -102.5t-100.5 -59.5t-119.5 -19z" />
    <glyph glyph-name="uni042D" unicode="&#x42d;" horiz-adv-x="704" 
d="M329 -8q-71 0 -128 21.5t-96 62t-57 97.5h80q13 -37 43 -63t71.5 -39.5t89.5 -13.5q81 0 135 34.5t82.5 94t30.5 135.5h-343v65h343q-4 72 -32.5 131.5t-80.5 96t-131 36.5q-48 0 -89.5 -13t-72 -39t-43.5 -64h-74q19 66 62 105.5t100.5 57.5t118.5 18q82 0 142 -28.5
t98.5 -79.5t57 -117.5t18.5 -141.5q0 -103 -35.5 -183.5t-107.5 -126.5t-182 -46z" />
    <glyph glyph-name="uni0406" unicode="&#x406;" horiz-adv-x="250" 
d="M89 0v707h72v-707h-72z" />
    <glyph glyph-name="uni0407" unicode="&#x407;" horiz-adv-x="250" 
d="M89 0v707h72v-707h-72zM52 794q-22 0 -35.5 14t-13.5 35t13.5 34.5t35.5 13.5q21 0 35 -13.5t14 -34.5q0 -22 -14 -35.5t-35 -13.5zM197 794q-22 0 -35 14t-13 35t13.5 34.5t34.5 13.5q22 0 35.5 -13.5t13.5 -34.5q0 -22 -13.5 -35.5t-35.5 -13.5z" />
    <glyph glyph-name="uni0408" unicode="&#x408;" horiz-adv-x="555" 
d="M262 -8q-49 0 -87.5 11t-66 34.5t-44 60t-20.5 86.5h74q6 -41 23 -69.5t47 -43t75 -14.5q54 0 83 23t40.5 63t11.5 89v475h73v-466q0 -52 -10 -97.5t-33.5 -79t-64.5 -53t-101 -19.5z" />
    <glyph glyph-name="Yucy" unicode="&#x42e;" horiz-adv-x="989" 
d="M607 -8q-102 0 -171.5 42.5t-106 117t-42.5 169.5h-126v-321h-72v707h72v-321h126q6 96 43 170t106.5 116.5t170.5 42.5q110 0 184 -47t111 -129t37 -186q0 -103 -37 -185t-111 -129t-184 -47zM607 57q89 0 146 40t84.5 107.5t27.5 148.5q0 82 -27.5 149t-84.5 107.5
t-146 40.5q-65 0 -112 -23.5t-77 -64.5t-44.5 -95t-14.5 -114q0 -59 14 -112.5t44 -95t77.5 -65t112.5 -23.5z" />
    <glyph glyph-name="Yacy" unicode="&#x42f;" horiz-adv-x="659" 
d="M67 0l154 284q-73 16 -118.5 66t-45.5 137q0 60 18.5 101.5t52.5 68t81 38.5t104 12h257v-707h-72v271h-205l-145 -271h-81zM330 336h168v306h-184q-58 0 -99.5 -15.5t-63 -48.5t-21.5 -88q0 -60 28 -93.5t73.5 -47t98.5 -13.5z" />
    <glyph glyph-name="uni04C1" unicode="&#x4c1;" horiz-adv-x="856" 
d="M16 0l192 357l-191 350h80l175 -328h120v328h72v-328h122l175 328h77l-191 -350l193 -357h-84l-167 314h-125v-314h-72v314h-125l-167 -314h-84zM427 797q-48 0 -85.5 13.5t-59.5 41.5t-25 71h65q5 -39 34 -55.5t72 -16.5t71.5 16.5t34.5 55.5h64q-2 -43 -24.5 -71
t-60 -41.5t-86.5 -13.5z" />
    <glyph glyph-name="uni0430" unicode="&#x430;" horiz-adv-x="554" 
d="M235 -6q-32 0 -65 8.5t-60 27t-43.5 48t-16.5 69.5q0 45 16.5 75t44.5 48t64 25.5t76 7.5h167q0 49 -13.5 86.5t-44 59.5t-81.5 22q-27 0 -52 -6t-44.5 -19.5t-30.5 -36.5h-76q9 35 30.5 59t50.5 38.5t61 20.5t61 6q75 0 121 -30.5t66.5 -86t20.5 -130.5v-286h-61l-3 72
q-22 -30 -52.5 -47t-65 -24t-70.5 -7zM242 56q49 0 89 16.5t63.5 49.5t23.5 82v40h-118q-31 0 -63 -1.5t-58 -10t-42 -27t-16 -52.5t17 -55.5t45 -31.5t59 -10z" />
    <glyph glyph-name="uni0431" unicode="&#x431;" horiz-adv-x="576" 
d="M289 -6q-55 0 -95.5 16.5t-67.5 46.5t-43.5 70t-24 85.5t-7.5 94.5q0 71 4.5 134t23.5 113.5t61 84.5t116 47q43 8 85 13t83 10q12 2 25 4t27.5 4.5t27.5 4.5v-65q-10 -4 -26 -6.5t-34 -5t-35.5 -4t-32 -3t-23.5 -2.5q-36 -4 -73.5 -9.5t-70 -20t-54.5 -49.5
q-15 -24 -23 -55t-11 -61.5t-4 -54.5q21 38 53 59.5t68 31t68 9.5q71 0 121 -30t75.5 -84t25.5 -125q0 -72 -28 -129.5t-81.5 -90.5t-129.5 -33zM291 56q54 0 91 25.5t56.5 68.5t19.5 94t-19 91.5t-55.5 64t-89.5 23.5q-51 0 -88.5 -25t-58.5 -66t-21 -90q0 -50 18.5 -92.5
t55 -68t91.5 -25.5z" />
    <glyph glyph-name="uni0432" unicode="&#x432;" horiz-adv-x="547" 
d="M69 0v527h203q33 0 67 -4.5t62.5 -18t46 -39t17.5 -68.5q0 -23 -8 -45t-24.5 -40t-45.5 -30q57 -12 83 -46.5t26 -82.5q0 -40 -14.5 -69t-40 -47.5t-59 -27.5t-70.5 -9h-243zM141 61h152q32 0 62.5 6.5t50 25t19.5 54.5q0 34 -15 52.5t-39 26.5t-52 10t-53 2h-125v-177z
M141 297h96q22 0 49 3t52 12t41 26.5t16 46.5q0 40 -21.5 56.5t-52 20.5t-58.5 4h-122v-169z" />
    <glyph glyph-name="uni0433" unicode="&#x433;" horiz-adv-x="453" 
d="M69 0v527h359v-62h-288v-465h-71z" />
    <glyph glyph-name="geupturncy" unicode="&#x491;" horiz-adv-x="452" 
d="M69 0v527h289v142h69v-204h-287v-465h-71z" />
    <glyph glyph-name="uni0434" unicode="&#x434;" horiz-adv-x="596" 
d="M23 -167v228q26 1 43 15.5t27.5 37t17 50t10.5 54.5q7 47 9 94.5t2 75.5q1 35 1 69.5v69.5h369v-466h71v-228h-69v167h-412v-167h-69zM140 61h291v405h-230q-1 -42 -2 -91t-3 -93q-1 -34 -5 -74t-15 -78t-36 -69z" />
    <glyph glyph-name="uni0435" unicode="&#x435;" horiz-adv-x="575" 
d="M296 -6q-83 0 -138 34.5t-82 95.5t-27 139t28 138.5t83 96t135 35.5q58 0 101.5 -21.5t72.5 -58.5t42.5 -84t13.5 -97v-17t-1 -16h-404q4 -53 24 -94.5t58.5 -65t96.5 -23.5q27 0 55 6.5t51 23t34 43.5h74q-14 -47 -47 -77t-78 -44t-92 -14zM122 300h332q-1 49 -21 87.5
t-55 61t-86 22.5q-53 0 -90 -24t-56.5 -63t-23.5 -84z" />
    <glyph glyph-name="uni0451" unicode="&#x451;" horiz-adv-x="575" 
d="M296 -6q-83 0 -138 34.5t-82 95.5t-27 139t28 138.5t83 96t135 35.5q58 0 101.5 -21.5t72.5 -58.5t42.5 -84t13.5 -97v-17t-1 -16h-404q4 -53 24 -94.5t58.5 -65t96.5 -23.5q27 0 55 6.5t51 23t34 43.5h74q-14 -47 -47 -77t-78 -44t-92 -14zM122 300h332q-1 49 -21 87.5
t-55 61t-86 22.5q-53 0 -90 -24t-56.5 -63t-23.5 -84zM397 614q-22 0 -36.5 14t-14.5 36t14.5 36.5t36.5 14.5q23 0 37.5 -14t14.5 -37q0 -22 -14.5 -36t-37.5 -14zM176 614q-22 0 -36.5 14t-14.5 36t14.5 36.5t36.5 14.5q23 0 38 -14t15 -37q0 -22 -15 -36t-38 -14z" />
    <glyph glyph-name="uni0436" unicode="&#x436;" horiz-adv-x="754" 
d="M16 0l170 276l-155 251h77l142 -234h92v234h70v-234h92l142 234h77l-155 -251l170 -276h-82l-142 234h-102v-234h-70v234h-102l-142 -234h-82z" />
    <glyph glyph-name="uni0437" unicode="&#x437;" horiz-adv-x="515" 
d="M258 -6q-36 0 -72.5 6t-68 21t-52.5 41.5t-25 67.5h70q8 -29 33.5 -45.5t57 -22.5t56.5 -6q31 0 64 7t55.5 27t22.5 59q0 38 -19 56t-49 24t-63 6h-92v61h69q21 0 44.5 4t43.5 14t32.5 28t12.5 46q0 31 -18 49.5t-46 26t-56 7.5q-25 0 -53 -5t-49 -20t-27 -45h-71
q4 51 35.5 79.5t76 40.5t87.5 12q34 0 67.5 -6.5t61 -22.5t44 -42.5t17.5 -65.5q1 -38 -17.5 -68t-60.5 -48q55 -13 78 -49t23 -82q0 -43 -18.5 -72t-49 -48t-68 -27t-76.5 -8z" />
    <glyph glyph-name="uni0438" unicode="&#x438;" horiz-adv-x="591" 
d="M69 0v527h71v-433q7 13 17.5 27.5t17.5 24.5l269 381h78v-527h-71v433q-8 -14 -17 -27t-18 -25l-269 -381h-78z" />
    <glyph glyph-name="uni0439" unicode="&#x439;" horiz-adv-x="591" 
d="M69 0v527h71v-433q7 13 17.5 27.5t17.5 24.5l269 381h78v-527h-71v433q-8 -14 -17 -27t-18 -25l-269 -381h-78zM301 611q-71 0 -114.5 29.5t-47.5 91.5h65q4 -37 30.5 -51.5t67.5 -14.5t67.5 14.5t30.5 51.5h65q-2 -41 -23.5 -68.5t-57.5 -40t-83 -12.5z" />
    <glyph glyph-name="uni043A" unicode="&#x43a;" horiz-adv-x="512" 
d="M69 0v527h71v-233h107l160 233h80l-176 -252l192 -275h-82l-165 233h-116v-233h-71z" />
    <glyph glyph-name="uni043B" unicode="&#x43b;" horiz-adv-x="563" 
d="M21 -2v63q20 1 35.5 9t26.5 22q18 22 27 61.5t12 85.5q4 47 5.5 95.5l3 97t2.5 95.5h361v-527h-71v466h-221q-1 -38 -2.5 -75.5t-3 -74.5t-3.5 -75q-2 -44 -10 -94.5t-33 -89.5q-20 -32 -49 -45t-80 -14z" />
    <glyph glyph-name="uni043C" unicode="&#x43c;" horiz-adv-x="697" 
d="M69 0v527h99l182 -285l181 285h97v-527h-70v453l-199 -317h-21l-199 317v-453h-70z" />
    <glyph glyph-name="uni043D" unicode="&#x43d;" horiz-adv-x="569" 
d="M69 0v527h71v-238h290v238h70v-527h-70v228h-290v-228h-71z" />
    <glyph glyph-name="uni043E" unicode="&#x43e;" horiz-adv-x="598" 
d="M299 -6q-83 0 -139 34.5t-83.5 95.5t-27.5 139q0 79 27.5 139.5t83.5 95.5t140 35q83 0 138.5 -35t83 -95.5t27.5 -139.5q0 -78 -28 -139t-83.5 -95.5t-138.5 -34.5zM299 56q62 0 102 27.5t59 74.5t19 105t-19 105t-59 75t-102 28t-102 -28t-58.5 -75t-18.5 -105
t18.5 -105t58.5 -74.5t102 -27.5z" />
    <glyph glyph-name="uni043F" unicode="&#x43f;" horiz-adv-x="573" 
d="M69 0v527h435v-527h-71v465h-293v-465h-71z" />
    <glyph glyph-name="uni0440" unicode="&#x440;" horiz-adv-x="603" 
d="M69 -195v722h68l3 -89q31 49 78.5 72t106.5 23q80 0 131 -36t76 -97.5t25 -137.5q0 -78 -25.5 -139t-78 -95t-132.5 -34q-37 0 -71 8t-62 26.5t-48 46.5v-270h-71zM318 56q62 0 98.5 28.5t53 75.5t16.5 103q0 57 -17 104t-55 75.5t-100 28.5q-57 0 -96.5 -29t-59.5 -77
t-20 -103q0 -59 19.5 -105.5t60 -73.5t100.5 -27z" />
    <glyph glyph-name="uni0441" unicode="&#x441;" horiz-adv-x="552" 
d="M295 -6q-83 0 -137.5 34.5t-81.5 95.5t-27 138q0 76 28 137.5t84 97.5t142 36q51 0 92 -16.5t69 -49t40 -80.5h-73q-16 45 -51.5 64.5t-81.5 19.5q-63 0 -102 -29.5t-57.5 -77t-18.5 -102.5q0 -56 18.5 -103t58 -75t101.5 -28q45 0 84 19t54 65h74q-12 -50 -44.5 -82.5
t-77 -48t-93.5 -15.5z" />
    <glyph glyph-name="uni0442" unicode="&#x442;" horiz-adv-x="460" 
d="M195 0v465h-188v62h445v-62h-187v-465h-70z" />
    <glyph glyph-name="uni0443" unicode="&#x443;" horiz-adv-x="546" 
d="M85 -232v67q49 0 79.5 15t51 46t39.5 77l-235 554h84l190 -470l157 470h81l-159 -446q-10 -29 -23.5 -65.5t-29.5 -74.5t-35 -71t-42 -53q-21 -19 -41.5 -29.5t-47.5 -15t-69 -4.5z" />
    <glyph glyph-name="uni045E" unicode="&#x45e;" horiz-adv-x="549" 
d="M88 -232v67h5q48 0 77.5 16t49.5 46.5t38 75.5l-238 554h84l193 -470l158 470h80l-158 -446q-10 -29 -23.5 -65.5t-29.5 -74.5t-35.5 -71t-42.5 -53q-35 -31 -67.5 -40t-76.5 -9h-14zM285 611q-71 0 -114.5 29.5t-47.5 91.5h65q4 -37 30.5 -51.5t67.5 -14.5t67.5 14.5
t30.5 51.5h65q-2 -41 -23.5 -68.5t-57 -40t-83.5 -12.5z" />
    <glyph glyph-name="uni0444" unicode="&#x444;" horiz-adv-x="729" 
d="M329 -189v182q-61 2 -113 18t-90 48t-59.5 81.5t-21.5 118.5q0 91 34.5 151t98 91t151.5 32v164h71v-164q88 -1 152 -32.5t98 -91.5t34 -150q0 -89 -35.5 -147.5t-99.5 -87t-149 -31.5v-182h-71zM329 53v419q-104 0 -158.5 -52.5t-54.5 -157.5q0 -70 25 -116t72.5 -69
t115.5 -24zM400 53q69 1 116.5 23.5t72.5 69t25 116.5q0 105 -55 157.5t-159 52.5v-419z" />
    <glyph glyph-name="uni0445" unicode="&#x445;" horiz-adv-x="505" 
d="M16 0l190 269l-179 258h85l142 -210l139 210h83l-178 -259l191 -268h-85l-154 214l-153 -214h-81z" />
    <glyph glyph-name="uni0447" unicode="&#x447;" horiz-adv-x="529" 
d="M390 0v205q-40 -6 -78.5 -8t-65.5 -2q-74 0 -118 22t-63 69.5t-19 119.5v121h71v-114q0 -51 10.5 -86t40.5 -52t87 -17q32 0 66 2.5t69 7.5v259h70v-527h-70z" />
    <glyph glyph-name="uni0446" unicode="&#x446;" horiz-adv-x="587" 
d="M495 -167v167h-426v527h71v-466h281v466h71v-466h71v-228h-68z" />
    <glyph glyph-name="uni0448" unicode="&#x448;" horiz-adv-x="795" 
d="M69 0v527h71v-466h221v466h71v-466h223v466h71v-527h-657z" />
    <glyph glyph-name="uni0449" unicode="&#x449;" horiz-adv-x="821" 
d="M729 -167v167h-660v527h71v-466h221v466h71v-466h223v466h71v-466h71v-228h-68z" />
    <glyph glyph-name="uni044C" unicode="&#x44c;" horiz-adv-x="519" 
d="M69 0v527h72v-207h123q44 0 82 -6.5t66.5 -23.5t44.5 -47t16 -77q0 -44 -15 -75.5t-42.5 -51.5t-64.5 -29.5t-81 -9.5h-201zM141 61h73q35 0 68 2.5t60.5 11.5t43.5 30t16 58q0 34 -14 53t-36 28.5t-48 12t-52 2.5h-111v-198z" />
    <glyph glyph-name="uni044B" unicode="&#x44b;" horiz-adv-x="676" 
d="M69 0v527h72v-207h101q45 0 83 -7t66.5 -24t44.5 -46.5t16 -76.5q0 -45 -15.5 -76.5t-43 -51.5t-64.5 -29t-80 -9h-180zM141 61h50q35 0 68.5 2t60.5 11.5t43.5 30.5t16.5 58q0 34 -13.5 53t-35.5 28.5t-48.5 12t-51.5 2.5h-90v-198zM536 0v527h71v-527h-71z" />
    <glyph glyph-name="uni044A" unicode="&#x44a;" horiz-adv-x="595" 
d="M148 0v466h-132v61h204v-207h124q45 0 83 -7t66 -23.5t44 -46t16 -74.5q0 -46 -15.5 -78.5t-43 -52.5t-64.5 -29t-80 -9h-202zM220 61h74q36 0 69.5 2t60 11.5t42 31.5t15.5 60q0 32 -13.5 50.5t-35.5 28t-48.5 12t-52.5 2.5h-111v-198z" />
    <glyph glyph-name="uni0455" unicode="&#x455;" horiz-adv-x="507" 
d="M258 -6q-35 0 -70 6.5t-66 22.5t-52.5 43t-29.5 66h73q12 -29 36.5 -45.5t54.5 -23.5t57 -7q19 0 42.5 2.5t44.5 11.5t34.5 26t13.5 45q0 25 -11.5 40t-30.5 24t-42 13q-36 8 -77 15t-74 25q-20 7 -38.5 17.5t-33.5 25.5t-24 36t-9 49q0 40 16 68t44.5 45.5t64 25.5
t74.5 8q48 0 88.5 -14.5t68 -43.5t34.5 -73h-66q-11 33 -46 51t-81 18q-17 0 -39 -3t-42 -11.5t-33 -25t-13 -44.5q0 -26 13 -43t36 -26.5t50 -16.5q33 -7 72.5 -13.5t65.5 -14.5q33 -10 56 -27t35 -41.5t12 -58.5q0 -46 -18 -75.5t-48.5 -46t-67.5 -23.5t-74 -7z" />
    <glyph glyph-name="uni0454" unicode="&#x454;" horiz-adv-x="548" 
d="M289 -6q-84 0 -137.5 34t-79.5 94.5t-26 140.5q0 78 27.5 139t82.5 96t137 35q75 0 131.5 -35.5t76.5 -110.5h-72q-9 31 -31 49t-50.5 26.5t-59.5 8.5q-55 0 -92 -24t-56 -64t-22 -91h245v-61h-245q3 -51 23 -90t58 -62t91 -23q30 0 59.5 8t52 26.5t32.5 49.5h73
q-12 -49 -45.5 -82t-78.5 -48.5t-94 -15.5z" />
    <glyph glyph-name="uni044D" unicode="&#x44d;" horiz-adv-x="548" 
d="M260 -6q-50 0 -95.5 15.5t-78 48t-45.5 82.5h74q10 -32 34.5 -50.5t55 -26t59.5 -7.5q55 0 91 23.5t55 63t20 88.5h-246v61h247q-3 51 -22 91t-54.5 64t-89.5 24q-30 0 -60.5 -8t-53.5 -26t-33 -50h-72q14 50 46 82.5t76.5 48t95.5 15.5q83 0 136 -35.5t78 -96.5t25 -138
q0 -79 -26 -140t-79.5 -95t-137.5 -34z" />
    <glyph glyph-name="uni0456" unicode="&#x456;" horiz-adv-x="225" 
d="M77 0v527h71v-527h-71zM112 621q-22 0 -36.5 14t-14.5 37q0 15 6.5 26.5t18.5 17.5t26 6q22 0 37 -14t15 -36q0 -23 -15 -37t-37 -14z" />
    <glyph glyph-name="uni0457" unicode="&#x457;" horiz-adv-x="209" 
d="M69 0v527h71v-527h-71zM32 614q-22 0 -35.5 14t-13.5 35t13.5 34.5t35.5 13.5q21 0 35 -13.5t14 -34.5q0 -22 -14 -35.5t-35 -13.5zM177 614q-22 0 -35 14t-13 35t13.5 34.5t34.5 13.5q22 0 35.5 -13.5t13.5 -34.5q0 -22 -13.5 -35.5t-35.5 -13.5z" />
    <glyph glyph-name="uni0458" unicode="&#x458;" horiz-adv-x="249" 
d="M-27 -185v61h30q42 0 63.5 14.5t28.5 41.5t7 65v530h71v-538q0 -57 -15 -96t-50 -58.5t-98 -19.5h-37zM137 621q-22 0 -36.5 14t-14.5 37q0 15 7 26.5t18.5 17.5t26.5 6q22 0 37 -14t15 -36q0 -23 -15 -37t-38 -14z" />
    <glyph glyph-name="yucy" unicode="&#x44e;" horiz-adv-x="792" 
d="M499 -6q-115 0 -174.5 66t-67.5 173h-117v-233h-71v527h71v-233h117q6 71 34 125t80 84t129 30q83 0 138 -35t82 -95.5t27 -139.5q0 -78 -27 -139t-82 -95.5t-139 -34.5zM500 56q62 0 101 27.5t57.5 75t18.5 104.5q0 58 -18.5 105t-57.5 75t-101 28t-100.5 -28.5
t-56 -75.5t-17.5 -104t17.5 -104.5t56 -75t100.5 -27.5z" />
    <glyph glyph-name="yacy" unicode="&#x44f;" horiz-adv-x="530" 
d="M37 0l141 211q-60 14 -96.5 50.5t-36.5 100.5q0 48 15 80t42 50.5t64.5 26.5t83.5 8h211v-527h-71v201h-137l-133 -201h-83zM302 262h88v203h-126q-31 0 -57.5 -3t-46.5 -13t-31.5 -29.5t-11.5 -52.5q0 -37 16.5 -58t43.5 -31t60 -13t65 -3z" />
    <glyph glyph-name="uni04C2" unicode="&#x4c2;" horiz-adv-x="754" 
d="M16 0l178 276l-163 251h78l150 -234h83v234h70v-234h83l150 234h78l-163 -251l178 -276h-82l-150 234h-94v-234h-70v234h-94l-150 -234h-82zM376 615q-47 0 -83.5 13.5t-58 40.5t-24.5 70h64q4 -26 18 -41.5t36 -22t49 -6.5t49 6.5t36.5 22t17.5 41.5h65q-3 -43 -25 -70
t-59 -40.5t-85 -13.5z" />
    <glyph glyph-name="zero" unicode="0" horiz-adv-x="664" 
d="M332 -8q-75 0 -127.5 28.5t-84.5 78.5t-46.5 115.5t-14.5 138.5t14.5 138t46.5 115.5t84 79.5t128 29q79 0 132 -30.5t84.5 -82.5t44.5 -116.5t13 -132.5t-13 -132.5t-44.5 -116t-84.5 -82t-132 -30.5zM332 57q63 0 102 26.5t60.5 70.5t29 96t7.5 103q0 50 -7.5 102
t-29 96.5t-60.5 71.5t-102 27t-102.5 -27t-60.5 -71.5t-28.5 -96.5t-7.5 -102q0 -51 7.5 -103t28.5 -96t60.5 -70.5t102.5 -26.5z" />
    <glyph glyph-name="one" unicode="1" horiz-adv-x="351" 
d="M170 0v579h-144v49q43 2 74.5 7.5t54 22t36.5 49.5h51v-707h-72z" />
    <glyph glyph-name="two" unicode="2" horiz-adv-x="564" 
d="M32 0v60l210 185q28 24 60.5 52.5t61.5 61.5t48 70t19 78q0 70 -42 106.5t-110 36.5q-51 0 -92 -20.5t-56 -63.5h-78q12 51 46 83.5t82 49t102 16.5q65 0 115 -23.5t78 -68t28 -110.5q0 -64 -25 -113t-65 -89t-85 -80l-192 -166h375v-65h-480z" />
    <glyph glyph-name="three" unicode="3" horiz-adv-x="596" 
d="M287 -8q-41 0 -82 7.5t-76.5 25.5t-60.5 47.5t-33 73.5h75q13 -35 42.5 -54.5t65.5 -27t70 -7.5q27 0 57 5.5t57 20t43.5 42t16.5 70.5t-16.5 69.5t-43.5 40t-60.5 18t-67.5 4.5h-69v65h44q35 0 68 7t59.5 22.5t42 41t15.5 62.5q0 50 -22 77t-56.5 37.5t-72.5 10.5
q-31 0 -62.5 -8t-56 -27t-33.5 -52h-73q7 43 29.5 72t54.5 47t70 25.5t76 7.5q43 0 82 -9.5t69.5 -30.5t48 -55t17.5 -83q0 -37 -12.5 -69.5t-38.5 -57.5t-66 -39q49 -6 82 -30.5t50 -61t17 -80.5q0 -62 -23 -102.5t-60 -63.5t-81 -32t-86 -9z" />
    <glyph glyph-name="four" unicode="4" horiz-adv-x="626" 
d="M430 0v144h-388v57l355 506h105v-497h85v-66h-85v-144h-72zM128 210h302v432z" />
    <glyph glyph-name="five" unicode="5" horiz-adv-x="612" 
d="M305 -9q-38 0 -76.5 8.5t-72 27t-58 48.5t-34.5 73h74q13 -31 39 -51t58.5 -30t63.5 -10q52 0 93 17.5t65 53.5t24 92q0 79 -45.5 121t-121.5 42q-46 0 -85.5 -19t-67.5 -47h-79l33 390h416v-66h-352l-22 -252q32 30 74.5 44.5t98.5 14.5q67 0 118 -27.5t79.5 -77.5
t28.5 -118q0 -75 -33.5 -127t-90.5 -79.5t-127 -27.5z" />
    <glyph glyph-name="six" unicode="6" horiz-adv-x="622" 
d="M328 -8q-73 0 -124 28t-83 76t-46 109t-14 126q0 77 14.5 145.5t47.5 122.5t87 85t131 31q49 0 91 -16t74 -47.5t49 -77.5h-76q-20 38 -59 57t-80 19q-52 0 -88 -20t-59.5 -53t-37 -74.5t-19 -85.5t-4.5 -85q23 42 55.5 67t71 36t78.5 11q68 0 119 -28t80.5 -78
t29.5 -116q0 -71 -31 -123.5t-85 -80.5t-122 -28zM326 57q50 0 87 21t58.5 57t21.5 80q0 48 -20.5 85t-57 58t-85.5 21q-43 0 -83 -19.5t-65 -55.5t-24 -87q0 -46 22.5 -82t61 -57t84.5 -21z" />
    <glyph glyph-name="seven" unicode="7" horiz-adv-x="503" 
d="M107 0l292 641h-385v66h464v-62l-291 -645h-80z" />
    <glyph glyph-name="eight" unicode="8" horiz-adv-x="617" 
d="M308 -8q-48 0 -92.5 10.5t-80 34t-56.5 62.5t-21 95q0 40 15.5 75t45 60t69.5 36q-41 16 -64 43t-32.5 59.5t-9.5 62.5q0 49 19 84t51.5 57.5t73 33t83.5 10.5t83.5 -10.5t73 -33.5t51.5 -57.5t19 -83.5q0 -31 -10 -62t-33.5 -57.5t-65.5 -43.5q43 -11 72.5 -36.5
t44.5 -61t15 -75.5q0 -56 -21 -94.5t-57 -62.5t-80.5 -34.5t-92.5 -10.5zM309 57q28 0 58.5 6t57.5 21t43.5 41.5t16.5 66.5q0 50 -25.5 80t-66 43.5t-84.5 13.5q-43 0 -84 -13.5t-67.5 -43.5t-26.5 -80q0 -40 17 -66.5t44 -41.5t58 -21t59 -6zM309 392q39 0 73.5 13.5
t57.5 41.5t23 70q1 49 -21 78t-57 42t-76 13t-76.5 -13t-56.5 -41.5t-21 -74.5q0 -45 22 -74t57.5 -42t74.5 -13z" />
    <glyph glyph-name="nine" unicode="9" horiz-adv-x="619" 
d="M288 -8q-48 0 -93 15t-78.5 47t-48.5 79h80q20 -39 62.5 -57.5t84.5 -18.5q60 0 98 25t59.5 67t30 93.5t8.5 104.5v16.5t-1 21.5q-18 -43 -50 -70t-73.5 -39.5t-85.5 -12.5q-62 0 -112.5 25.5t-81 74.5t-30.5 119q0 71 30.5 123t85 81t125.5 29q78 0 129.5 -33.5
t80.5 -89t40.5 -121t11.5 -129.5q0 -73 -14 -136t-45.5 -111.5t-84 -75.5t-128.5 -27zM293 329q45 0 83 19.5t61 54t23 80.5q0 49 -21 86.5t-58 59t-85 21.5q-47 0 -84.5 -21t-59.5 -57t-22 -81q0 -76 44 -119t119 -43z" />
    <glyph glyph-name="zero.tf" horiz-adv-x="669" 
d="M334 -8q-75 0 -127.5 28.5t-84.5 78.5t-46.5 115.5t-14.5 138.5t14.5 138t46.5 115.5t84 79.5t128 29q79 0 132 -30.5t84.5 -82.5t44.5 -116.5t13 -132.5t-13 -132.5t-44.5 -116t-84.5 -82t-132 -30.5zM334 57q63 0 102 26.5t60.5 70.5t29 96t7.5 103q0 50 -7.5 102
t-29 96.5t-60.5 71.5t-102 27t-102.5 -27t-60.5 -71.5t-28.5 -96.5t-7.5 -102q0 -51 7.5 -103t28.5 -96t60.5 -70.5t102.5 -26.5z" />
    <glyph glyph-name="one.tf" horiz-adv-x="669" 
d="M318 0v579h-144v49q43 1 74.5 7t54 22.5t36.5 49.5h51v-707h-72z" />
    <glyph glyph-name="two.tf" horiz-adv-x="669" 
d="M93 0v60l210 186q28 24 60.5 52.5t61.5 61t48 69.5t19 78q0 70 -42 106.5t-110 36.5q-51 0 -92 -20.5t-56 -63.5h-78q12 51 45.5 83.5t81.5 49t101 16.5q66 0 116 -23.5t78.5 -68.5t28.5 -110q0 -64 -25 -113t-65 -89t-85 -80l-192 -166h375v-65h-480z" />
    <glyph glyph-name="three.tf" horiz-adv-x="669" 
d="M338 -8q-41 0 -82 7.5t-76.5 25.5t-60.5 47.5t-33 73.5h75q13 -35 42.5 -54.5t65.5 -27t70 -7.5q27 0 57 5.5t57 20t43.5 42t16.5 70.5t-16.5 69.5t-43.5 40t-60.5 18t-67.5 4.5h-69v65h44q35 0 68 7t59.5 22.5t42 41t15.5 62.5q0 50 -22 77t-56.5 37.5t-72.5 10.5
q-31 0 -62.5 -8t-56 -27t-33.5 -52h-73q7 43 29.5 72t54.5 47t70 25.5t76 7.5q43 0 82 -9.5t69.5 -30.5t48 -55t17.5 -83q0 -37 -12.5 -69.5t-38.5 -57.5t-66 -39q49 -6 82 -30.5t50 -61t17 -80.5q0 -56 -20 -95.5t-54.5 -64t-79.5 -36t-96 -11.5z" />
    <glyph glyph-name="four.tf" horiz-adv-x="669" 
d="M446 0v144h-387v57l354 506h105v-497h86v-66h-86v-144h-72zM144 210h302v432z" />
    <glyph glyph-name="five.tf" horiz-adv-x="669" 
d="M331 -9q-38 0 -76.5 8.5t-71.5 27t-57.5 48.5t-35.5 73h75q12 -31 38 -51t58.5 -30t63.5 -10q52 0 93 17.5t65.5 53.5t24.5 92q0 79 -46 121t-122 42q-47 0 -86 -18.5t-67 -47.5h-78l32 390h416v-66h-351l-23 -252q32 29 75 44t98 15q67 0 118.5 -27.5t80 -77.5
t28.5 -118q0 -75 -33.5 -127t-90.5 -79.5t-128 -27.5z" />
    <glyph glyph-name="six.tf" horiz-adv-x="669" 
d="M340 -8q-74 0 -125 27t-82 74t-45.5 106t-14.5 124q0 77 14 147t46.5 125.5t86.5 87.5t133 32q49 0 91 -16t74.5 -47.5t49.5 -77.5h-76q-21 38 -59.5 57t-80.5 19q-52 0 -88 -20t-60 -53.5t-37 -75t-18.5 -85.5t-5.5 -84q22 39 53.5 64t71 37.5t81.5 12.5q68 0 119 -28
t80.5 -78t29.5 -116q0 -71 -31 -123.5t-84.5 -80.5t-122.5 -28zM339 57q49 0 86.5 21t58.5 57t21 80q0 48 -20.5 85t-57 58t-84.5 21q-44 0 -83.5 -19.5t-64.5 -55.5t-25 -87q0 -46 23 -82t61 -57t85 -21z" />
    <glyph glyph-name="seven.tf" horiz-adv-x="669" 
d="M204 0l292 641h-385v66h464v-62l-291 -645h-80z" />
    <glyph glyph-name="eight.tf" horiz-adv-x="669" 
d="M334 -8q-48 0 -92.5 10.5t-80 34t-56.5 62.5t-21 95q0 40 15.5 75t45 60t69.5 36q-41 16 -64 43t-32.5 59.5t-9.5 62.5q0 49 19 84t51.5 57.5t73 33t83.5 10.5t83.5 -10.5t73 -33.5t51.5 -57.5t19 -83.5q0 -31 -9.5 -62t-33.5 -57.5t-66 -43.5q43 -11 72.5 -36.5
t44.5 -61t15 -75.5q0 -56 -21 -94.5t-57 -62.5t-80.5 -34.5t-92.5 -10.5zM335 57q28 0 58.5 6t57.5 21t43.5 41.5t16.5 66.5q0 50 -25.5 80t-66 43.5t-84.5 13.5q-43 0 -84 -13.5t-67.5 -43.5t-26.5 -80q0 -40 17 -66.5t44 -41.5t58 -21t59 -6zM335 392q39 0 73.5 13.5
t57 41.5t23.5 70q0 49 -21.5 78t-56.5 42t-76 13t-76.5 -13t-56.5 -41.5t-21 -74.5q0 -45 22 -74t57.5 -42t74.5 -13z" />
    <glyph glyph-name="nine.tf" horiz-adv-x="669" 
d="M330 -8q-48 0 -93 15t-79 47t-48 79h80q20 -39 61 -57.5t84 -18.5q60 0 99 24.5t60.5 66.5t30 93.5t8.5 105.5q0 7 -0.5 16.5t-1.5 21.5q-17 -43 -49.5 -70t-73.5 -39.5t-86 -12.5q-61 0 -112 25.5t-81 74.5t-30 119q0 71 30.5 123t85 81t125.5 29q76 0 127 -33t81 -88
t42 -121.5t12 -133.5q0 -70 -14 -133t-45.5 -111t-84 -75.5t-128.5 -27.5zM334 329q46 0 84 19.5t61 54t23 80.5q0 49 -21.5 86.5t-58.5 59t-85 21.5q-46 0 -83.5 -21t-59.5 -57t-22 -81q0 -76 43.5 -119t118.5 -43z" />
    <glyph glyph-name="uni00B2" unicode="&#xb2;" horiz-adv-x="364" 
d="M61 391v51l98 84q16 13 35 30t33.5 37.5t14.5 41.5q0 29 -16 44t-44 15q-20 0 -37.5 -9t-21.5 -31h-60q4 50 40 73t83 23q50 0 83.5 -27t33.5 -79q0 -44 -23 -75.5t-54 -57.5q-19 -17 -38.5 -32.5t-38.5 -32.5h153v-55h-241z" />
    <glyph glyph-name="uni00B3" unicode="&#xb3;" horiz-adv-x="386" 
d="M194 387q-32 0 -60.5 9.5t-48 31.5t-25.5 57h62q8 -24 29 -33t44 -9q27 0 47.5 11.5t20.5 42.5q0 30 -21.5 39t-46.5 9h-35v52h21q15 0 30.5 4.5t27 15.5t11.5 30q0 27 -17.5 37.5t-40.5 10.5q-21 0 -38 -10t-22 -32h-62q6 51 41 74t83 23q30 0 56.5 -9t43.5 -29.5
t17 -54.5q0 -26 -13 -45t-36 -30q33 -9 48 -32.5t15 -56.5q0 -37 -18.5 -60.5t-48 -34.5t-64.5 -11z" />
    <glyph glyph-name="space" unicode=" " horiz-adv-x="270" 
 />
    <glyph glyph-name="uni00A0" unicode="&#xa0;" horiz-adv-x="270" 
 />
    <glyph glyph-name="uni2009" unicode="&#x2009;" horiz-adv-x="110" 
 />
    <glyph glyph-name="uni202F" unicode="&#x202f;" horiz-adv-x="110" 
 />
    <glyph glyph-name="CR" unicode="&#xd;" horiz-adv-x="189" 
 />
    <glyph glyph-name="period" unicode="." horiz-adv-x="245" 
d="M122 -8q-23 0 -38 15.5t-15 38.5t15 38t38 15q24 0 39 -15t15 -38t-15 -38.5t-39 -15.5z" />
    <glyph glyph-name="comma" unicode="," horiz-adv-x="251" 
d="M88 -117l-21 29q14 9 25.5 22t21 29t12.5 34q-21 0 -38 12.5t-17 38.5q0 23 15.5 37t37.5 14q28 0 42.5 -20t14.5 -52q0 -29 -12.5 -58t-33.5 -52t-47 -34z" />
    <glyph glyph-name="colon" unicode=":" horiz-adv-x="244" 
d="M122 355q-24 0 -38.5 15t-14.5 38q0 16 6.5 28.5t18.5 19t28 6.5q24 0 38.5 -15t14.5 -39t-15 -38.5t-38 -14.5zM122 -8q-24 0 -38.5 15t-14.5 38q0 16 6.5 28.5t18.5 19t28 6.5q24 0 38.5 -15t14.5 -39q0 -23 -15 -38t-38 -15z" />
    <glyph glyph-name="semicolon" unicode=";" horiz-adv-x="251" 
d="M89 -117l-21 28q13 9 25 22.5t21 29.5t13 33q-22 0 -39 12.5t-17 38.5q0 24 16 38.5t39 13.5q30 -1 43 -23.5t13 -50.5q0 -29 -13 -58t-34 -51t-46 -33zM127 355q-23 0 -38 15t-15 38q0 16 7 28.5t19 19t27 6.5q24 0 39 -15t15 -39t-15 -38.5t-39 -14.5z" />
    <glyph glyph-name="ellipsis" unicode="&#x2026;" horiz-adv-x="687" 
d="M571 -8q-23 0 -37.5 15t-14.5 38q0 16 6.5 28.5t18.5 19t27 6.5q23 0 38.5 -15t15.5 -39q0 -23 -15.5 -38t-38.5 -15zM115 -8q-23 0 -37.5 15t-14.5 38q0 16 6.5 28.5t18.5 19t27 6.5q23 0 38.5 -15t15.5 -39q0 -23 -15.5 -38t-38.5 -15zM345 -8q-24 0 -38.5 15t-14.5 38
q0 16 6.5 28.5t18.5 19t28 6.5q23 0 38 -15t15 -39q0 -23 -15 -38t-38 -15z" />
    <glyph glyph-name="exclam" unicode="!" horiz-adv-x="263" 
d="M101 206l-9 501h78l-8 -501h-61zM132 -8q-16 0 -28 6.5t-18.5 19t-6.5 27.5q0 17 6.5 28.5t18.5 18.5t28 7q22 0 37.5 -15t15.5 -39q0 -15 -7 -27.5t-19 -19t-27 -6.5z" />
    <glyph glyph-name="exclamdown" unicode="&#xa1;" horiz-adv-x="263" 
d="M93 -182l9 502h61l8 -502h-78zM132 427q-22 0 -37.5 14.5t-15.5 38.5t15 38.5t38 14.5t38 -15t15 -38q0 -24 -15 -38.5t-38 -14.5z" />
    <glyph glyph-name="question" unicode="?" horiz-adv-x="508" 
d="M194 210q-1 5 -1 9.5v9.5q0 33 11.5 58.5t30 47t40 41.5t41.5 40q17 17 31 36.5t23 41.5t9 43q0 38 -17 63t-46 37.5t-65 12.5q-29 0 -57.5 -7.5t-50 -25.5t-29.5 -48h-75q7 38 27.5 66t50 45.5t64 26t70.5 8.5q52 0 98 -18.5t74 -56.5t28 -99q0 -33 -9.5 -61.5
t-28 -53.5t-43.5 -50q-25 -26 -48.5 -47.5t-38.5 -46.5t-15 -62v-4.5v-5.5h-74zM230 -8q-23 0 -38 15t-15 39q0 23 15 38t38 15t38 -15t15 -39q0 -23 -15 -38t-38 -15z" />
    <glyph glyph-name="questiondown" unicode="&#xbf;" horiz-adv-x="508" 
d="M313 317q1 -5 1 -9.5v-9.5q0 -33 -11.5 -58.5t-30 -47t-40 -41t-41.5 -40.5q-16 -17 -30.5 -36.5t-23.5 -41t-9 -43.5q0 -38 17 -63t46 -37.5t65 -12.5q29 0 57.5 7.5t50 25.5t29.5 48h75q-7 -38 -27.5 -66t-50 -45.5t-64 -26t-70.5 -8.5q-52 0 -98 18.5t-74 57t-28 98.5
q0 33 10 61.5t28 54t43 49.5q25 26 48.5 47.5t38.5 47t15 61.5v4.5v5.5h74zM277 535q23 0 38 -15t15 -39q0 -23 -15 -38t-38 -15t-38 15t-15 39q0 23 15 38t38 15z" />
    <glyph glyph-name="periodcentered" unicode="&#xb7;" horiz-adv-x="242" 
d="M121 310q-23 0 -37 14t-14 37q0 22 14 36t37 14q22 0 37 -14t15 -36q0 -23 -14.5 -37t-37.5 -14z" />
    <glyph glyph-name="bullet" unicode="&#x2022;" horiz-adv-x="329" 
d="M165 262q-28 0 -51.5 12t-38 35t-14.5 55q0 48 29.5 76t75.5 28q29 0 52 -13t36.5 -36t13.5 -55q0 -45 -29.5 -73.5t-73.5 -28.5z" />
    <glyph glyph-name="asterisk" unicode="*" horiz-adv-x="411" 
d="M146 477l-39 28l60 82l-97 31l15 45l96 -31v101h49v-101l95 31l15 -45l-96 -31l60 -82l-39 -28l-60 82z" />
    <glyph glyph-name="numbersign" unicode="#" horiz-adv-x="652" 
d="M139 0l21 184h-99v65h105l23 209h-98v65h105l19 184h71l-20 -184h156l20 184h70l-20 -184h99v-65h-106l-23 -209h99v-65h-106l-19 -184h-70l20 184h-157l-20 -184h-70zM236 249h157l22 209h-156z" />
    <glyph glyph-name="slash" unicode="/" horiz-adv-x="465" 
d="M39 -171l311 974h76l-311 -974h-76z" />
    <glyph glyph-name="backslash" unicode="\" horiz-adv-x="465" 
d="M350 -171l-311 974h76l311 -974h-76z" />
    <glyph glyph-name="colon.case" horiz-adv-x="244" 
d="M122 471q-24 0 -38.5 15t-14.5 39q0 16 6.5 28t18.5 18.5t28 6.5q23 0 38 -15t15 -38q0 -24 -15 -39t-38 -15zM122 108q-24 0 -38.5 15.5t-14.5 38.5q0 16 6.5 28t18.5 18.5t28 6.5q23 0 38 -15t15 -38t-15 -38.5t-38 -15.5z" />
    <glyph glyph-name="periodcentered.loclCAT" horiz-adv-x="245" 
d="M122 302q-23 0 -38 15.5t-15 38.5t15 38t38 15q24 0 39 -15t15 -38t-15 -38.5t-39 -15.5z" />
    <glyph glyph-name="period.tf" horiz-adv-x="257" 
d="M128 -8q-23 0 -38 15.5t-15 38.5t15 38t38 15q24 0 39 -15t15 -38t-15 -38.5t-39 -15.5z" />
    <glyph glyph-name="comma.tf" horiz-adv-x="258" 
d="M89 -117l-21 28q13 9 25 22.5t21.5 29.5t12.5 33q-22 0 -39 12.5t-17 38.5q1 24 16.5 37.5t37.5 13.5q27 0 42 -19.5t15 -51.5q0 -29 -13 -58.5t-33.5 -52t-46.5 -33.5z" />
    <glyph glyph-name="colon.tf" horiz-adv-x="257" 
d="M128 355q-24 0 -38.5 15t-14.5 38q0 16 6.5 28.5t19 19t27.5 6.5q24 0 39 -15t15 -39q0 -23 -15 -38t-39 -15zM128 -8q-23 0 -38 15t-15 38q0 16 6.5 28.5t19 19t27.5 6.5q24 0 39 -15t15 -39q0 -23 -15 -38t-39 -15z" />
    <glyph glyph-name="semicolon.tf" horiz-adv-x="258" 
d="M90 -117l-21 29q13 9 25 22t21.5 29t12.5 34q-22 0 -39 12.5t-17 38.5q0 24 16 37.5t38 13.5q27 0 42 -20t15 -52q0 -29 -13 -58t-33.5 -52t-46.5 -34zM128 355q-23 0 -38 15t-15 38q0 16 6.5 28.5t19 19t27.5 6.5q24 0 39 -15t15 -39q0 -23 -15 -38t-39 -15z" />
    <glyph glyph-name="periodcentered.loclCAT.case" horiz-adv-x="245" 
d="M122 319q-23 0 -38 15.5t-15 38.5t15 38t38 15q24 0 39 -15t15 -38t-15 -38.5t-39 -15.5z" />
    <glyph glyph-name="colon.case.tf" horiz-adv-x="257" 
d="M128 471q-23 0 -38 15t-15 39q0 16 6.5 28t19 18.5t27.5 6.5q24 0 39 -15t15 -38q0 -24 -15 -39t-39 -15zM128 108q-23 0 -38 15.5t-15 38.5q0 16 6.5 28t19 18.5t27.5 6.5q24 0 39 -15t15 -38t-15 -38.5t-39 -15.5z" />
    <glyph glyph-name="hyphen" unicode="-" horiz-adv-x="452" 
d="M76 249v64h300v-64h-300z" />
    <glyph glyph-name="endash" unicode="&#x2013;" horiz-adv-x="575" 
d="M76 249v64h423v-64h-423z" />
    <glyph glyph-name="emdash" unicode="&#x2014;" horiz-adv-x="760" 
d="M76 249v64h608v-64h-608z" />
    <glyph glyph-name="underscore" unicode="_" horiz-adv-x="460" 
d="M-1 -179v64h462v-64h-462z" />
    <glyph glyph-name="hyphen.case" horiz-adv-x="452" 
d="M76 305v65h300v-65h-300z" />
    <glyph glyph-name="endash.case" horiz-adv-x="575" 
d="M76 306v64h423v-64h-423z" />
    <glyph glyph-name="emdash.case" horiz-adv-x="760" 
d="M76 306v64h608v-64h-608z" />
    <glyph glyph-name="parenleft" unicode="(" horiz-adv-x="294" 
d="M244 -216q-59 74 -98 160.5t-59 178.5t-20 178q0 88 20.5 180t60.5 179.5t98 159.5h77q-66 -87 -107 -171t-59.5 -169.5t-18.5 -178.5q0 -92 19.5 -177t60 -168.5t104.5 -171.5h-78z" />
    <glyph glyph-name="parenright" unicode=")" horiz-adv-x="294" 
d="M51 -216h-78q63 88 104 171.5t60.5 168.5t19.5 177q0 93 -18.5 178.5t-59.5 169.5t-107 171h76q59 -72 99 -159.5t60.5 -179.5t20.5 -180q0 -86 -19.5 -178t-59 -178.5t-98.5 -160.5z" />
    <glyph glyph-name="braceleft" unicode="{" horiz-adv-x="383" 
d="M251 -190q-52 0 -82 21.5t-30 80.5v224q0 36 -7 67t-28.5 51t-64.5 22v51q43 2 64.5 21.5t28.5 50.5t7 68v224q0 59 29.5 80.5t82.5 21.5h71v-60h-66q-26 0 -36.5 -10.5t-12 -29t-1.5 -44.5v-206q0 -47 -14 -84t-58 -58q30 -12 45 -33.5t21 -48.5t6 -57v-210
q0 -28 2.5 -46.5t14 -27t36.5 -8.5h63v-60h-71z" />
    <glyph glyph-name="braceright" unicode="}" horiz-adv-x="383" 
d="M132 -190h-71v60h63q26 0 37 8.5t13.5 27t2.5 46.5v210q0 30 6 57t21.5 48.5t44.5 33.5q-44 21 -58 58t-14 84v206q0 26 -1.5 44.5t-11.5 29t-37 10.5h-66v60h71q53 0 82.5 -21.5t29.5 -80.5v-224q0 -37 7 -68t28.5 -50.5t64.5 -21.5v-51q-43 -2 -64.5 -22t-28.5 -51
t-7 -67v-224q0 -59 -30 -80.5t-82 -21.5z" />
    <glyph glyph-name="bracketleft" unicode="[" horiz-adv-x="314" 
d="M89 -190v983h188v-60h-119v-864h119v-59h-188z" />
    <glyph glyph-name="bracketright" unicode="]" horiz-adv-x="314" 
d="M37 -190v59h118v864h-118v60h188v-983h-188z" />
    <glyph glyph-name="quotesinglbase" unicode="&#x201a;" horiz-adv-x="251" 
d="M89 -117l-21 28q13 9 25 22.5t21 29.5t13 33q-22 0 -39 12.5t-17 38.5q0 24 15.5 38t39.5 14q30 0 43 -22t13 -47q0 -30 -12.5 -60t-33 -53t-47.5 -34z" />
    <glyph glyph-name="quotedblbase" unicode="&#x201e;" horiz-adv-x="428" 
d="M265 -117l-21 28q13 9 25 22.5t21 29.5t13 33q-22 0 -39 12.5t-17 38.5q0 24 15.5 38t39.5 14q29 -1 42.5 -23t13.5 -48q0 -31 -12.5 -60.5t-34 -51.5t-46.5 -33zM89 -117l-21 28q13 9 25 22.5t21 29.5t13 33q-22 0 -39 12.5t-17 38.5q0 24 15.5 38t39.5 14
q29 -1 42.5 -23t13.5 -48q0 -31 -13 -60.5t-34 -51.5t-46 -33z" />
    <glyph glyph-name="quotedblleft" unicode="&#x201c;" horiz-adv-x="429" 
d="M303 524q-31 2 -44 23t-13 47q0 33 12.5 62.5t33.5 52t47 32.5l21 -29q-13 -8 -25 -21.5t-21.5 -29.5t-12.5 -34q15 0 27.5 -5.5t20 -16.5t7.5 -29q0 -24 -15 -38t-38 -14zM128 524q-32 1 -45 22.5t-13 47.5q0 33 12.5 62.5t33.5 52t47 32.5l21 -29q-13 -8 -25 -21.5
t-21.5 -29.5t-12.5 -34q15 0 27.5 -5.5t20 -16.5t7.5 -29q0 -24 -15.5 -38t-36.5 -14z" />
    <glyph glyph-name="quotedblright" unicode="&#x201d;" horiz-adv-x="428" 
d="M265 516l-21 28q13 9 25 22.5t21 29.5t13 33q-22 0 -39 12.5t-17 38.5q0 24 16 38.5t40 13.5q30 -1 42.5 -23t12.5 -48q0 -31 -12.5 -60.5t-34 -51.5t-46.5 -33zM89 516l-21 28q13 9 25 22.5t21 29.5t13 33q-22 0 -39 12.5t-17 38.5q0 24 16 38.5t40 13.5q30 -1 42.5 -23
t12.5 -48q0 -31 -13 -60.5t-34 -51.5t-46 -33z" />
    <glyph glyph-name="quoteleft" unicode="&#x2018;" horiz-adv-x="252" 
d="M128 524q-31 0 -44.5 22.5t-13.5 48.5q0 32 12.5 61t33.5 52t47 33l21 -29q-13 -8 -25 -21.5t-21.5 -29.5t-12.5 -34q15 0 27.5 -5.5t20 -16.5t7.5 -29q0 -24 -15.5 -38t-36.5 -14z" />
    <glyph glyph-name="quoteright" unicode="&#x2019;" horiz-adv-x="251" 
d="M89 516l-21 28q13 9 25 22.5t21 29.5t13 33q-22 0 -39 12.5t-17 38.5q0 24 15.5 38t39.5 14q30 0 43 -21.5t13 -49.5q0 -31 -13 -60.5t-34 -51.5t-46 -33z" />
    <glyph glyph-name="guillemotleft" unicode="&#xab;" horiz-adv-x="465" 
d="M152 92l-111 170l111 170h75l-115 -170l114 -170h-74zM331 92l-111 170l111 170h74l-113 -170l113 -170h-74z" />
    <glyph glyph-name="guillemotright" unicode="&#xbb;" horiz-adv-x="465" 
d="M239 92l114 170l-115 170h75l111 -170l-111 -170h-74zM60 92l113 170l-113 170h74l111 -170l-111 -170h-74z" />
    <glyph glyph-name="guilsinglleft" unicode="&#x2039;" horiz-adv-x="286" 
d="M152 92l-111 170l111 170h74l-113 -170l113 -170h-74z" />
    <glyph glyph-name="guilsinglright" unicode="&#x203a;" horiz-adv-x="286" 
d="M60 92l112 170l-112 170h74l111 -170l-111 -170h-74z" />
    <glyph glyph-name="quotedbl" unicode="&#x22;" horiz-adv-x="339" 
d="M215 482l-11 225h75l-11 -225h-53zM71 482l-11 225h74l-10 -225h-53z" />
    <glyph glyph-name="quotesingle" unicode="'" horiz-adv-x="205" 
d="M76 482l-10 225h74l-11 -225h-53z" />
    <glyph glyph-name="quotesinglbase.tf" horiz-adv-x="258" 
d="M89 -117l-21 28q13 9 25 22.5t21.5 29.5t12.5 33q-22 0 -39 12.5t-17 38.5q0 24 16 37.5t38 13.5q27 0 42 -19.5t15 -51.5q0 -29 -13 -58.5t-33.5 -52t-46.5 -33.5z" />
    <glyph glyph-name="quotedblbase.tf" horiz-adv-x="319" 
d="M203 -117l-21 29q13 9 25 22t21.5 29t12.5 34q-22 0 -39 12.5t-17 38.5q0 24 16 37.5t38 13.5q27 0 42 -20t15 -52q0 -29 -13 -58t-33.5 -52t-46.5 -34zM43 -117l-21 29q13 9 25 22t21.5 29t12.5 34q-22 0 -39 12.5t-17 38.5q0 24 16 37.5t38 13.5q27 0 42 -20t15 -52
q0 -29 -13 -58t-33.5 -52t-46.5 -34z" />
    <glyph glyph-name="quotedblleft.tf" horiz-adv-x="319" 
d="M239 526q-27 0 -42 19.5t-15 51.5q0 30 13 59t34 52t46 33l21 -28q-12 -8 -24.5 -22t-21.5 -30t-13 -33q15 0 27.5 -5.5t20.5 -16.5t8 -29q0 -24 -16 -37.5t-38 -13.5zM79 526q-27 0 -42 19.5t-15 51.5q0 30 13 59t34 52t46 33l21 -28q-12 -8 -24.5 -22t-21.5 -30
t-13 -33q15 0 27.5 -5.5t20.5 -16.5t8 -29q0 -24 -16 -37.5t-38 -13.5z" />
    <glyph glyph-name="quotedblright.tf" horiz-adv-x="319" 
d="M203 516l-21 29q13 9 25 22t21.5 29t12.5 34q-22 0 -39 12.5t-17 38.5q0 24 16 37.5t38 13.5q27 0 42 -20t15 -52q0 -29 -13 -58t-33.5 -52t-46.5 -34zM43 516l-21 29q13 9 25 22t21.5 29t12.5 34q-22 0 -39 12.5t-17 38.5q0 24 16 37.5t38 13.5q27 0 42 -20t15 -52
q0 -29 -13 -58t-33.5 -52t-46.5 -34z" />
    <glyph glyph-name="quoteleft.tf" horiz-adv-x="258" 
d="M126 524q-27 0 -42.5 20t-14.5 51q0 29 12 58.5t33 53t48 33.5l21 -29q-12 -8 -24.5 -21.5t-21.5 -29.5t-13 -33q15 0 27.5 -6t20.5 -17t8 -28q0 -25 -16 -38.5t-38 -13.5z" />
    <glyph glyph-name="quoteright.tf" horiz-adv-x="258" 
d="M89 516l-21 29q13 9 25 22t21.5 29t12.5 34q-22 0 -39 12.5t-17 38.5q0 24 16 37.5t38 13.5q27 0 42 -20t15 -52q0 -29 -13 -58t-34 -52t-46 -34z" />
    <glyph glyph-name="quotedbl.tf" horiz-adv-x="315" 
d="M202 482l-11 225h74l-10 -225h-53zM61 482l-11 225h74l-10 -225h-53z" />
    <glyph glyph-name="quotesingle.tf" horiz-adv-x="256" 
d="M102 482l-11 225h74l-10 -225h-53z" />
    <glyph glyph-name="uni2713" unicode="&#x2713;" horiz-adv-x="1046" 
d="M373 0l-312 366l57 52l255 -298l553 700l59 -51z" />
    <glyph glyph-name="at" unicode="@" horiz-adv-x="989" 
d="M485 -187q-96 1 -172.5 32.5t-130 87.5t-82 132t-28.5 167q0 104 30 192t88 153t142.5 101.5t192.5 36.5q94 0 167 -31.5t123 -88.5t76.5 -132t26.5 -162q0 -43 -7 -89.5t-26 -87t-53.5 -65.5t-90.5 -25q-47 0 -78 23.5t-39 68.5q-21 -35 -47 -53.5t-54.5 -26t-58.5 -7.5
q-60 1 -97.5 30t-54.5 74t-17 93q0 47 13 91t39 78.5t64.5 55.5t90.5 20q26 0 51 -7t46 -24.5t34 -46.5l20 59l49 -4q-8 -59 -14.5 -118t-11.5 -118q-1 -30 1.5 -60t18 -49.5t49.5 -19.5t55 21.5t32 53.5t15 65.5t4 58.5q0 74 -20.5 138.5t-61 113.5t-101.5 77t-143 28
q-93 0 -163.5 -32t-118 -89t-72 -131.5t-24.5 -159.5q0 -102 42 -181.5t120.5 -125t186.5 -46.5q21 0 36.5 1t30 2.5t32.5 5.5l5 -70q-31 -6 -57.5 -8t-57.5 -2zM475 99q44 0 74.5 23t48 60t19.5 79q3 40 -8.5 75.5t-38 59t-70.5 23.5q-48 0 -79 -27.5t-45 -69.5t-14 -84
q0 -21 5 -45.5t17.5 -45.5t34.5 -34.5t56 -13.5z" />
    <glyph glyph-name="ampersand" unicode="&#x26;" horiz-adv-x="668" 
d="M281 -8q-42 0 -80.5 12t-68 35t-46.5 58t-17 82t19 83.5t53.5 66t79.5 52.5q-38 36 -60 77.5t-22 86.5q0 48 20.5 86.5t60.5 61t100 22.5q47 0 83 -18t56.5 -52t20.5 -82q0 -43 -21 -79t-57 -65.5t-81 -51.5l167 -197q21 28 33.5 62t18.5 71h69q-6 -54 -26.5 -100
t-47.5 -83l107 -120h-95l-60 67q-45 -42 -96.5 -58.5t-109.5 -16.5zM292 57q39 0 80 13.5t73 47.5l-186 215q-31 -15 -57 -37t-41.5 -50.5t-15.5 -64.5q0 -41 21 -69t55 -41.5t71 -13.5zM281 410q27 16 58 37t52.5 48.5t21.5 60.5q0 29 -12.5 50t-34.5 32.5t-51 11.5
q-50 0 -77.5 -26.5t-27.5 -73.5q0 -29 11.5 -54.5t28 -46.5t31.5 -39z" />
    <glyph glyph-name="paragraph" unicode="&#xb6;" horiz-adv-x="595" 
d="M238 0v349h-9q-56 0 -100.5 19t-70.5 59.5t-26 106.5q0 54 25 92.5t67 59.5t93 21h346v-65h-85v-642h-72v642h-96v-642h-72z" />
    <glyph glyph-name="section" unicode="&#xa7;" horiz-adv-x="545" 
d="M286 -8q-39 0 -76 7t-68 23t-52 42t-29 64h72q12 -29 38.5 -45t56.5 -22.5t51 -6.5q31 0 62 5.5t51.5 22.5t20.5 50q0 28 -12.5 42.5t-32 21t-42.5 11.5q-26 5 -56.5 10t-60.5 12.5t-54 19.5q-35 13 -59 42.5t-24 72.5q0 34 14.5 63.5t44.5 48.5q-26 18 -38.5 42.5
t-12.5 51.5q0 40 16.5 67.5t43.5 44t62.5 24.5t73.5 8q44 0 84.5 -13t68.5 -42t35 -75h-65q-6 25 -26.5 40.5t-47 22.5t-51.5 7q-30 0 -59.5 -6t-48.5 -23.5t-19 -51.5q0 -24 13 -39t32.5 -23t38.5 -13q25 -5 53.5 -11t55 -11.5t46.5 -11.5q50 -13 72.5 -42t22.5 -77
q0 -32 -15.5 -59t-40.5 -44q30 -14 44 -40t14 -63q0 -44 -18 -72t-47 -44.5t-64 -23.5t-68 -7zM367 265q12 4 22.5 14.5t18 25.5t7.5 31q0 36 -20.5 52t-53.5 24q-38 10 -78.5 16.5t-80.5 18.5q-19 -13 -30.5 -34.5t-11.5 -43.5q0 -27 14 -43.5t37 -24.5t48 -13
q30 -6 65 -12t63 -11z" />
    <glyph glyph-name="copyright" unicode="&#xa9;" horiz-adv-x="932" 
d="M466 -124q-123 0 -214 51.5t-141 146t-50 221.5q0 126 51 220.5t142.5 147t211.5 52.5q121 0 212 -52.5t142 -147t51 -220.5q0 -127 -50 -221.5t-141 -146t-214 -51.5zM466 -63q103 0 178.5 45t117 125.5t41.5 187.5t-42 187.5t-118 125.5t-177 45t-177 -44.5
t-118.5 -125.5t-42.5 -188q0 -108 42 -188t118 -125t178 -45zM474 84q-64 0 -106.5 27.5t-63.5 75.5t-21 109q0 60 21.5 107.5t64 75t105.5 27.5q66 0 109 -28.5t58 -93.5h-67q-10 35 -36 49t-62 14q-46 0 -74 -21t-40.5 -55t-12.5 -75t13 -75.5t41 -55.5t72 -21
q36 0 64.5 14t39.5 49h68q-10 -42 -34.5 -69.5t-59.5 -40.5t-79 -13z" />
    <glyph glyph-name="registered" unicode="&#xae;" horiz-adv-x="479" 
d="M240 372q-57 0 -99.5 22t-65 63t-22.5 98q0 58 23 100.5t65 65.5t99 23q58 0 99.5 -23.5t64 -66t22.5 -99.5t-22.5 -98t-64 -63t-99.5 -22zM240 410q68 0 107 38.5t39 106.5q0 69 -38.5 111t-107.5 42t-108.5 -42t-39.5 -111q0 -68 39.5 -106.5t108.5 -38.5zM171 466v190
h80q30 0 49 -14t19 -46q0 -21 -9.5 -36t-31.5 -20l50 -74h-43l-47 70h-31v-70h-36zM207 568h44q14 0 23.5 6.5t9.5 21.5q0 14 -9.5 20t-21.5 6h-46v-54z" />
    <glyph glyph-name="uni2117" unicode="&#x2117;" horiz-adv-x="932" 
d="M466 -124q-92 0 -167 29t-128 84t-81.5 132.5t-28.5 173.5q0 95 29 172t83 132.5t128.5 85.5t164.5 30t164.5 -30t128.5 -85.5t83 -132.5t29 -172q0 -96 -28.5 -173.5t-82 -132.5t-128.5 -84t-166 -29zM466 -63q103 0 178.5 45t117 125.5t41.5 187.5t-42 187.5
t-118 125.5t-177 45t-177 -44.5t-118.5 -125.5t-42.5 -188q0 -108 42 -188t118 -125t178 -45zM339 74v428h154q48 0 83 -15t54 -45.5t19 -78.5q0 -50 -21 -84t-58.5 -51t-88.5 -17h-78v-137h-64zM403 272h75q30 0 53.5 8t37.5 27t14 53q0 43 -25 62.5t-70 19.5h-85v-170z
" />
    <glyph glyph-name="trademark" unicode="&#x2122;" horiz-adv-x="651" 
d="M318 453v254h76l60 -120l60 120h75v-254h-52v197l-68 -137h-31l-69 139v-199h-51zM147 453v206h-86v48h225v-48h-87v-206h-52z" />
    <glyph glyph-name="degree" unicode="&#xb0;" horiz-adv-x="364" 
d="M180 571q-37 0 -64.5 15t-42.5 42t-15 65q0 39 16.5 67t45 43.5t62.5 15.5q36 0 63.5 -16t43 -44.5t15.5 -65.5t-16 -64.5t-44 -42.5t-64 -15zM181 617q33 0 53 20.5t20 56.5t-20.5 56.5t-52.5 20.5q-31 0 -52 -20.5t-21 -56.5t20.5 -56.5t52.5 -20.5z" />
    <glyph glyph-name="bar" unicode="|" horiz-adv-x="250" 
d="M89 -171v974h72v-974h-72z" />
    <glyph glyph-name="uni2116" unicode="&#x2116;" horiz-adv-x="1065" 
d="M70 0v707h95l389 -612v612h72v-707h-92l-392 611v-611h-72zM728 279v64h270v-64h-270zM863 411q-46 0 -77.5 20t-47.5 54.5t-16 77.5q0 45 16 79t48 53.5t78 19.5q45 0 75.5 -20t46.5 -54.5t16 -77.5q0 -42 -16 -76.5t-47 -55t-76 -20.5zM863 470q29 0 46 13.5t24 35
t7 45.5q0 22 -7 43t-24 35t-46 14t-46.5 -13t-25.5 -34.5t-8 -45.5t8 -45.5t25.5 -34.5t46.5 -13z" />
    <glyph glyph-name="cent" unicode="&#xa2;" horiz-adv-x="581" 
d="M262 -161v158q-68 9 -113.5 45t-68.5 93t-23 128t23 128t69 93.5t113 45.5v145h72v-143q67 -5 114.5 -40.5t64.5 -104.5h-73q-14 44 -50 64t-82 20q-63 0 -103 -28.5t-58.5 -76t-18.5 -103.5q0 -58 20 -105t60 -74.5t99 -27.5q45 0 84 18.5t54 65.5h74
q-18 -69 -68.5 -103.5t-116.5 -41.5v-156h-72z" />
    <glyph glyph-name="dollar" unicode="$" horiz-adv-x="653" 
d="M297 -141v135q-56 5 -104.5 25t-83 58t-48.5 96h76q16 -45 49 -70.5t75 -35t85 -9.5t81.5 12t64 40t25.5 73q0 36 -14.5 58.5t-38.5 36.5t-55 22q-34 11 -70.5 18t-72 16t-67.5 24q-50 21 -82.5 60.5t-32.5 102.5q0 65 30.5 107t80 63t107.5 23v133h73v-134
q52 -4 94.5 -25t69.5 -58t31 -92h-71q-7 43 -32 67.5t-60.5 34.5t-75.5 10t-79.5 -10t-65.5 -36.5t-26 -74.5q0 -33 12 -55.5t33.5 -36.5t47.5 -24q46 -17 98.5 -27t101.5 -25q41 -13 72 -34.5t48.5 -54t17.5 -77.5q0 -69 -30.5 -112t-80.5 -65t-111 -25v-134h-72z" />
    <glyph glyph-name="Euro" unicode="&#x20ac;" horiz-adv-x="677" 
d="M436 -8q-76 0 -134 28t-95 81.5t-54 128.5h-102l11 65h85q-1 24 -2 42t0 36.5t4 40.5h-98l11 65h95q27 110 95 173t182 63q57 0 102 -15t82 -48l-36 -52q-33 27 -68.5 38.5t-81.5 11.5q-57 0 -98.5 -23.5t-67 -62t-37.5 -85.5h293l-10 -65h-294q-2 -16 -3.5 -37.5
t-0.5 -43.5t4 -38h272l-11 -65h-251q18 -79 72.5 -127t140.5 -48q46 0 81 11t69 41l36 -48q-37 -34 -85.5 -50.5t-105.5 -16.5z" />
    <glyph glyph-name="uni20B4" unicode="&#x20b4;" horiz-adv-x="588" 
d="M292 -8q-32 0 -66 7.5t-63 24.5t-47 46t-19 73q0 14 5 34.5t17 40.5h-70v65h120l135 101h-255v64h332q21 14 39.5 42.5t18.5 60.5q1 34 -15.5 56t-45 32.5t-63.5 10.5q-25 0 -52.5 -5.5t-49.5 -21.5t-31 -48h-78q8 37 28 64t50 43.5t64.5 24.5t70.5 8t70 -8.5t61.5 -26.5
t43.5 -47t16 -70q0 -30 -8.5 -52t-19.5 -37t-21 -26h80l-1 -64h-136l-137 -101h273v-65h-345q-11 -10 -17.5 -27.5t-6.5 -37.5q0 -36 19.5 -57.5t49.5 -31t60 -9.5q29 0 55.5 5.5t48 20.5t32.5 43h75q-8 -36 -28.5 -61.5t-50.5 -41t-65.5 -22.5t-72.5 -7z" />
    <glyph glyph-name="uni20BD" unicode="&#x20bd;" horiz-adv-x="700" 
d="M160 0v94h-99v65h99v98h-99v65h99v385h241q58 0 104 -12.5t78 -39.5t49 -69t17 -102q0 -79 -34 -129t-93 -74t-133 -24h-157v-98h264v-65h-264v-94h-72zM232 322h156q54 0 96.5 16t67 52t24.5 96q0 85 -45.5 120.5t-132.5 35.5h-166v-320z" />
    <glyph glyph-name="sterling" unicode="&#xa3;" horiz-adv-x="581" 
d="M61 0v65h84v239h-84v65h84v155q0 63 23 105t67 64t106 22q66 0 116 -33.5t59 -101.5h-70q-5 23 -20.5 39t-36.5 23.5t-46 7.5q-38 0 -66.5 -11.5t-45 -39.5t-16.5 -79v-151h212v-65h-212v-239h305v-65h-459z" />
    <glyph glyph-name="yen" unicode="&#xa5;" horiz-adv-x="654" 
d="M291 0v94h-148v63h148v95h-148v63h120l-222 392h84l204 -370l201 370h83l-221 -392h118v-63h-147v-95h147v-63h-147v-94h-72z" />
    <glyph glyph-name="plus" unicode="+" horiz-adv-x="550" 
d="M241 164v158h-148v64h148v157h67v-157h150v-64h-150v-158h-67z" />
    <glyph glyph-name="minus" unicode="&#x2212;" horiz-adv-x="550" 
d="M98 322v64h354v-64h-354z" />
    <glyph glyph-name="multiply" unicode="&#xd7;" horiz-adv-x="550" 
d="M134 171l-41 41l142 141l-142 142l41 41l142 -143l141 143l41 -41l-141 -142l141 -141l-41 -41l-141 141z" />
    <glyph glyph-name="divide" unicode="&#xf7;" horiz-adv-x="550" 
d="M102 328v64h347v-64h-347zM274 123q-23 0 -37.5 15.5t-14.5 39.5q0 16 6.5 28t18.5 18.5t27 6.5q24 0 39 -15t15 -38q0 -24 -15 -39.5t-39 -15.5zM274 483q-23 0 -37.5 15.5t-14.5 38.5q0 16 6.5 28t18.5 18.5t27 6.5q24 0 39 -15t15 -38t-15 -38.5t-39 -15.5z" />
    <glyph glyph-name="equal" unicode="=" horiz-adv-x="550" 
d="M77 449v64h396v-64h-396zM77 191v64h396v-64h-396z" />
    <glyph glyph-name="notequal" unicode="&#x2260;" horiz-adv-x="550" 
d="M77 0l88 191h-88v64h117l90 194h-207v64h236l87 190h73l-87 -190h87v-64h-117l-89 -194h206v-64h-235l-88 -191h-73z" />
    <glyph glyph-name="greater" unicode="&#x3e;" horiz-adv-x="550" 
d="M111 108v77l248 166l-248 166v76l328 -225v-36z" />
    <glyph glyph-name="less" unicode="&#x3c;" horiz-adv-x="550" 
d="M439 108l-328 224v36l328 225v-76l-248 -166l248 -166v-77z" />
    <glyph glyph-name="greaterequal" unicode="&#x2265;" horiz-adv-x="550" 
d="M89 233v71l277 127l-277 127v72l373 -171v-55zM89 135v64h373v-64h-373z" />
    <glyph glyph-name="lessequal" unicode="&#x2264;" horiz-adv-x="550" 
d="M462 233l-373 171v55l373 171v-71l-277 -127l277 -128v-71zM89 135v64h373v-64h-373z" />
    <glyph glyph-name="plusminus" unicode="&#xb1;" horiz-adv-x="550" 
d="M241 259v130h-148v64h148v154h67v-154h150v-64h-150v-130h-67zM93 142v64h365v-64h-365z" />
    <glyph glyph-name="approxequal" unicode="&#x2248;" horiz-adv-x="550" 
d="M378 372q-36 0 -64 17.5t-51 40.5t-45 40t-47 17t-39.5 -14.5t-19.5 -35.5t-6 -42h-65q2 32 9.5 59.5t23 48.5t40 32.5t59.5 11.5q36 0 64 -17t50.5 -40.5t45 -40.5t48.5 -17t40 14t19 36t6 43h64q-2 -31 -10 -59t-22.5 -49t-39 -33t-60.5 -12zM378 161q-36 0 -64 17
t-51 40t-45 40t-47 17t-39.5 -14t-19.5 -35.5t-6 -43.5h-65q2 32 9.5 60t23 49t40 33t59.5 12q37 0 64.5 -17.5t50.5 -40.5t45 -40.5t48 -17.5t40 14.5t19 35.5t6 42h64q-2 -31 -10 -58.5t-22.5 -48.5t-39 -32.5t-60.5 -11.5z" />
    <glyph glyph-name="asciitilde" unicode="~" horiz-adv-x="550" 
d="M376 269q-39 0 -68 21.5t-53 44.5q-19 19 -40 34.5t-43 15.5q-27 0 -41 -18t-19 -43t-5 -47h-62q0 31 6 60t20.5 53t40 38t62.5 14q39 0 68 -22t53 -45q21 -20 41 -35.5t43 -15.5q28 0 42 18t18.5 43.5t4.5 47.5h62q-1 -31 -7.5 -60.5t-20.5 -53t-38.5 -37t-63.5 -13.5z
" />
    <glyph glyph-name="asciicircum" unicode="^" horiz-adv-x="550" 
d="M115 523l135 192h50l136 -192h-69l-92 136l-91 -136h-69z" />
    <glyph glyph-name="percent" unicode="%" horiz-adv-x="799" 
d="M143 0l436 707h74l-434 -707h-76zM598 -7q-46 0 -77 20.5t-47.5 55t-16.5 77.5q0 44 16.5 78t48 53.5t77.5 19.5q45 0 75.5 -20t47 -54t16.5 -77q0 -42 -16.5 -77t-47.5 -55.5t-76 -20.5zM598 52q29 0 46 13.5t24 35t7 45.5q0 23 -7 44t-24 34.5t-46 13.5q-43 0 -61 -28
t-18 -64q0 -38 18 -66t61 -28zM201 411q-46 0 -77 20t-47 54.5t-16 77.5q0 45 16 79t47.5 53.5t77.5 19.5t76.5 -20t46.5 -54t16 -78q0 -42 -16 -76.5t-47 -55t-77 -20.5zM202 470q29 0 45.5 13.5t23.5 35t7 44.5t-7 44.5t-23.5 35t-45.5 13.5q-44 0 -62 -28.5t-18 -64.5
q0 -37 18 -65t62 -28z" />
    <glyph glyph-name="arrowup" unicode="&#x2191;" horiz-adv-x="700" 
d="M319 0v545l-212 -257l-46 40l288 342l290 -342l-47 -40l-212 257v-545h-61z" />
    <glyph glyph-name="uni2197" unicode="&#x2197;" horiz-adv-x="700" 
d="M134 77l-43 43l385 385l-331 -32l-5 61l446 38l-37 -447l-62 6l32 331z" />
    <glyph glyph-name="arrowright" unicode="&#x2192;" horiz-adv-x="700" 
d="M342 46l-40 47l257 211h-545v61h545l-256 212l39 46l343 -288z" />
    <glyph glyph-name="uni2198" unicode="&#x2198;" horiz-adv-x="700" 
d="M587 98l-447 38l5 62l331 -32l-385 385l44 43l385 -385l-32 331l60 5z" />
    <glyph glyph-name="arrowdown" unicode="&#x2193;" horiz-adv-x="700" 
d="M350 0l-289 343l47 39l212 -256v544h61v-544l211 256l47 -39z" />
    <glyph glyph-name="uni2199" unicode="&#x2199;" horiz-adv-x="700" 
d="M112 97l38 447l62 -5l-32 -331l385 385l43 -43l-385 -385l331 31l5 -60z" />
    <glyph glyph-name="arrowleft" unicode="&#x2190;" horiz-adv-x="700" 
d="M357 46l-343 288l343 290l39 -47l-256 -212h544v-61h-544l256 -212z" />
    <glyph glyph-name="uni2196" unicode="&#x2196;" horiz-adv-x="700" 
d="M565 77l-385 385l31 -331l-61 -5l-38 446l447 -38l-5 -61l-331 32l385 -385z" />
    <glyph glyph-name="uni21A9" unicode="&#x21a9;" horiz-adv-x="1145" 
d="M374 -279l-313 311l313 312l39 -49l-238 -232h585q82 0 139.5 36.5t87.5 99.5t30 141t-30 140t-87.5 98.5t-139.5 36.5h-563v63h565q76 0 135.5 -25t101.5 -70.5t63.5 -107t21.5 -135.5q0 -75 -21.5 -137t-63 -107.5t-101 -70.5t-135.5 -25h-588l239 -233z" />
    <glyph glyph-name="uni21B6" unicode="&#x21b6;" horiz-adv-x="1016" 
d="M393 -26l-332 120l23 58l225 -88q-36 40 -58 88t-31.5 98.5t-9.5 97.5q0 112 45 200t128.5 139t197.5 51q107 0 187 -46t128.5 -126t58.5 -181h-74q-10 80 -49.5 143.5t-103 101t-147.5 37.5q-93 0 -160.5 -42.5t-103.5 -114.5t-36 -162q0 -38 8.5 -82.5t27.5 -89
t49 -82.5l68 239l60 -14z" />
    <glyph glyph-name="uni21B7" unicode="&#x21b7;" horiz-adv-x="1016" 
d="M623 -26l-101 345l60 14l68 -239q31 38 49.5 82.5t27 89t8.5 82.5q0 90 -36 162t-103 114.5t-161 42.5q-83 0 -147 -37.5t-103 -101t-49 -143.5h-75q11 101 59.5 181t128.5 126t186 46q115 0 198 -51t128 -139t46 -200q0 -47 -10 -97.5t-32 -98.5t-58 -88l225 88l23 -58z
" />
    <glyph glyph-name="uni21BA" unicode="&#x21ba;" horiz-adv-x="935" 
d="M440 -51q-116 2 -200.5 51t-131 135t-46.5 200q-1 94 32 176t98 145l49 -51q-52 -56 -79.5 -125.5t-27.5 -144.5q1 -66 22.5 -123.5t61 -101t95 -67.5t123.5 -24q74 0 130 25t94.5 68.5t58 100t19.5 118.5q1 59 -18 119.5t-55 114t-87 90.5l-8 -241h-61l12 356l353 -33
l-7 -62l-251 29q66 -43 110 -102t66.5 -128.5t21.5 -145.5q0 -77 -25.5 -145t-74.5 -121t-118 -83t-156 -30z" />
    <glyph glyph-name="uni21BB" unicode="&#x21bb;" horiz-adv-x="935" 
d="M495 -51q-88 0 -157 30t-117.5 83t-74.5 121t-26 145q0 76 22.5 145t66.5 128t110 103l-251 -29l-7 62l352 33l13 -356h-61l-8 241q-51 -37 -87 -90.5t-55 -114t-19 -119.5q1 -62 20.5 -118.5t57.5 -100t94.5 -68.5t130.5 -25q68 0 123.5 24t95 67.5t61 101t21.5 123.5
q1 75 -27 144.5t-79 125.5l49 51q64 -63 97.5 -145t32.5 -169q-1 -115 -46 -204t-129.5 -139t-202.5 -50z" />
    <glyph glyph-name="uni27F5" unicode="&#x27f5;" horiz-adv-x="1366" 
d="M374 -46l-313 313l312 312l43 -50l-240 -231h1129v-64h-1128l239 -230z" />
    <glyph glyph-name="rightLongArrow" unicode="&#x27f6;" horiz-adv-x="1366" 
d="M993 -46l-43 50l240 230h-1129v64h1128l-239 231l42 50l313 -313z" />
    <glyph glyph-name="uni0308" unicode="&#x308;" 
d="M110 614q-22 0 -36.5 14t-14.5 36t14.5 36.5t36.5 14.5q23 0 37.5 -14t14.5 -37q0 -22 -14.5 -36t-37.5 -14zM-111 614q-22 0 -36.5 14t-14.5 36t14.5 36.5t36.5 14.5q23 0 38 -14t15 -37q0 -22 -15 -36t-38 -14z" />
    <glyph glyph-name="uni0307" unicode="&#x307;" 
d="M0 612q-23 0 -37 14t-14 37t14.5 36.5t36.5 13.5q21 0 36.5 -14t15.5 -36q0 -23 -15 -37t-37 -14z" />
    <glyph glyph-name="gravecomb" unicode="&#x300;" 
d="M-21 609l-96 137h78l82 -137h-64z" />
    <glyph glyph-name="acutecomb" unicode="&#x301;" 
d="M-33 613l82 137h78l-96 -137h-64z" />
    <glyph glyph-name="uni030B" unicode="&#x30b;" 
d="M10 609l82 137h78l-96 -137h-64zM-136 609l82 137h78l-96 -137h-64z" />
    <glyph glyph-name="uni030C.alt" 
d="M129 497l-21 28q13 9 25 22.5t21 29.5t13 33q-22 0 -39 12.5t-17 38.5q0 24 15 38t39 14q29 0 43 -21.5t14 -49.5q0 -31 -13 -60.5t-34 -51.5t-46 -33z" />
    <glyph glyph-name="uni0302" unicode="&#x302;" 
d="M-151 609l126 151h50l127 -151h-72l-80 97l-80 -97h-71z" />
    <glyph glyph-name="uni030C" unicode="&#x30c;" 
d="M-25 609l-127 151h73l80 -96l79 96h72l-127 -151h-50z" />
    <glyph glyph-name="uni0306" unicode="&#x306;" 
d="M-1 613q-71 0 -114.5 29.5t-47.5 91.5h65q4 -37 30.5 -51.5t67.5 -14.5t67.5 14.5t30.5 51.5h65q-2 -41 -23.5 -68.5t-57.5 -40t-83 -12.5z" />
    <glyph glyph-name="uni030A" unicode="&#x30a;" 
d="M0 581q-42 0 -68 24t-26 66q0 41 26.5 68t68.5 27t67.5 -27t25.5 -68q0 -42 -26.5 -66t-67.5 -24zM0 624q22 0 34.5 13t12.5 35t-12.5 35.5t-34.5 13.5t-34.5 -13.5t-12.5 -35.5t12.5 -35t34.5 -13z" />
    <glyph glyph-name="tildecomb" unicode="&#x303;" 
d="M65 601q-25 0 -43.5 11t-33.5 25.5t-28 25.5t-27 11q-16 0 -23.5 -12t-9 -28t-1.5 -29h-58q0 32 8 59.5t28.5 44.5t57.5 17q24 0 42.5 -11t33.5 -26t28 -26t27 -11q18 0 25 12t8.5 28.5t1.5 28.5h59q0 -31 -8.5 -58.5t-29 -44.5t-57.5 -17z" />
    <glyph glyph-name="uni0304" unicode="&#x304;" 
d="M-156 636v61h313v-61h-313z" />
    <glyph glyph-name="uni0312" unicode="&#x312;" 
d="M1 609q-28 0 -42.5 19.5t-15.5 50.5q0 29 11.5 58t33 52.5t48.5 34.5l21 -28q-14 -9 -26 -23t-21 -29.5t-12 -32.5q24 0 40 -13.5t16 -37.5q0 -25 -16 -38t-37 -13z" />
    <glyph glyph-name="uni0326" unicode="&#x326;" 
d="M-36 -303l-21 29q13 9 25 22t21.5 29t12.5 34q-22 0 -39 12.5t-17 38.5q0 24 16 38t38 14q29 0 43.5 -21.5t13.5 -49.5q-1 -31 -13.5 -60.5t-33 -52t-46.5 -33.5z" />
    <glyph glyph-name="uni0327" unicode="&#x327;" 
d="M-35 -249q-11 -1 -23.5 -2t-26.5 0v45q17 0 36 1t37 6.5t29.5 18t11.5 33.5q0 17 -10 25.5t-23.5 11.5t-24.5 3t-26 -2t-27 -7l32 127h50l-20 -76q8 1 14.5 1.5t12.5 0.5q37 0 57.5 -21t20.5 -59q0 -36 -16.5 -58t-43.5 -33.5t-60 -14.5z" />
    <glyph glyph-name="uni0328" unicode="&#x328;" 
d="M29 -216q-56 0 -89.5 28t-33.5 79q0 42 27.5 73.5t62.5 48.5l50 -9q-31 -18 -54.5 -45t-23.5 -59q0 -30 19 -46t50 -17q11 0 22.5 3t22.5 8l12 -50q-16 -8 -31.5 -11t-33.5 -3z" />
    <glyph glyph-name="uni0308.narrow" 
d="M107 614q-22 0 -35.5 14t-13.5 35t13.5 34.5t35.5 13.5q21 0 35 -13.5t14 -34.5q0 -22 -14 -35.5t-35 -13.5zM252 614q-22 0 -35 14t-13 35t13.5 34.5t34.5 13.5q22 0 35.5 -13.5t13.5 -34.5q0 -22 -13.5 -35.5t-35.5 -13.5z" />
    <glyph glyph-name="dieresis" unicode="&#xa8;" horiz-adv-x="546" 
d="M382 616q-22 0 -36 14t-14 36t14 36.5t36 14.5q23 0 38 -14t15 -37q0 -22 -15 -36t-38 -14zM162 616q-22 0 -36.5 14t-14.5 36t14.5 36.5t36.5 14.5q23 0 37.5 -14t14.5 -37q0 -22 -14.5 -36t-37.5 -14z" />
    <glyph glyph-name="dotaccent" unicode="&#x2d9;" horiz-adv-x="571" 
d="M285 615q-23 0 -37 14t-14 38q0 23 14.5 36.5t36.5 13.5q21 0 36.5 -14t15.5 -36q0 -23 -15 -37.5t-37 -14.5z" />
    <glyph glyph-name="grave" unicode="`" 
d="M-21 609l-96 137h78l82 -137h-64z" />
    <glyph glyph-name="acute" unicode="&#xb4;" 
d="M-33 613l82 137h78l-96 -137h-64z" />
    <glyph glyph-name="hungarumlaut" unicode="&#x2dd;" horiz-adv-x="507" 
d="M274 631l82 136h78l-96 -136h-64zM128 631l82 136h78l-96 -136h-64z" />
    <glyph glyph-name="circumflex" unicode="&#x2c6;" horiz-adv-x="541" 
d="M119 616l126 151h51l126 -151h-72l-80 97l-79 -97h-72z" />
    <glyph glyph-name="caron" unicode="&#x2c7;" horiz-adv-x="541" 
d="M246 616l-127 151h72l80 -96l80 96h71l-126 -151h-50z" />
    <glyph glyph-name="breve" unicode="&#x2d8;" horiz-adv-x="557" 
d="M277 613q-71 0 -114.5 29.5t-47.5 91.5h65q4 -37 30.5 -51.5t67.5 -14.5t67.5 14.5t30.5 51.5h65q-2 -41 -23.5 -68.5t-57 -40t-83.5 -12.5z" />
    <glyph glyph-name="ring" unicode="&#x2da;" horiz-adv-x="567" 
d="M283 602q-42 0 -68 24t-26 66t26.5 69t68.5 27t67.5 -27.5t25.5 -68.5q0 -42 -26.5 -66t-67.5 -24zM283 645q22 0 34.5 13.5t12.5 35.5q0 21 -12.5 35t-34.5 14t-34.5 -14t-12.5 -35q0 -22 12.5 -35.5t34.5 -13.5z" />
    <glyph glyph-name="tilde" unicode="&#x2dc;" 
d="M65 601q-25 0 -43.5 11t-33.5 25.5t-28 25.5t-27 11q-16 0 -23.5 -12t-9 -28t-1.5 -29h-58q0 32 8 59.5t28.5 44.5t57.5 17q24 0 42.5 -11t33.5 -26t28 -26t27 -11q18 0 25 12t8.5 28.5t1.5 28.5h59q0 -31 -8.5 -58.5t-29 -44.5t-57.5 -17z" />
    <glyph glyph-name="macron" unicode="&#xaf;" horiz-adv-x="560" 
d="M124 643v61h312v-61h-312z" />
    <glyph glyph-name="cedilla" unicode="&#xb8;" horiz-adv-x="591" 
d="M275 -249q-11 -1 -23.5 -2t-26.5 0v45q17 0 36 1t37 6.5t29.5 18t11.5 33.5q0 17 -10 25.5t-23.5 11.5t-24.5 3t-26 -2t-27 -7l32 127h50l-20 -76q8 1 14.5 1.5t12.5 0.5q37 0 57.5 -21t20.5 -59q0 -36 -16.5 -58t-43.5 -33.5t-60 -14.5z" />
    <glyph glyph-name="ogonek" unicode="&#x2db;" horiz-adv-x="515" 
d="M286 -216q-56 0 -89.5 28t-33.5 79q0 42 27.5 73.5t62.5 48.5l50 -9q-30 -18 -53.5 -45t-23.5 -59q0 -30 18.5 -46t49.5 -17q11 0 23 3t22 8l12 -50q-16 -8 -31.5 -11t-33.5 -3z" />
    <glyph glyph-name="a2_alt" horiz-adv-x="606" 
d="M280 -6q-62 0 -106.5 21.5t-72 59t-40 86t-12.5 102.5q0 74 26 135.5t80 98t137 36.5q55 0 99.5 -21t74.5 -61v76h71v-527h-71v83q-29 -43 -76.5 -66t-109.5 -23zM292 56q57 0 95.5 29t59 77t20.5 104q0 58 -19.5 104t-58.5 73.5t-98 27.5q-61 0 -98.5 -28.5t-55 -75.5
t-17.5 -103q0 -59 17 -106.5t55 -74.5t100 -27z" />
    <glyph glyph-name="alt_1" horiz-adv-x="490" 
d="M49 0v66h190v513h-155v45q42 2 76.5 8t60.5 23t40 52h50v-641h158v-66h-420z" />
    <glyph glyph-name="be_alt" horiz-adv-x="570" 
d="M285 -6q-69 0 -115 24.5t-73.5 68t-39 102t-11.5 125.5q0 61 5 114t20 96.5t44.5 77.5t77.5 58q28 14 61 26t68.5 23.5t69.5 23.5q21 7 46.5 19t44.5 30l39 -55q-16 -22 -43 -34.5t-55 -22.5q-49 -17 -98.5 -32t-93.5 -35q-40 -17 -65 -45.5t-36.5 -69.5t-13.5 -96
q24 36 55 56.5t65.5 29t65.5 8.5q71 0 120.5 -31t75 -85t25.5 -123q0 -72 -27.5 -129.5t-80.5 -90.5t-131 -33zM286 56q55 0 92 26t56.5 68.5t19.5 93.5q0 50 -19 90.5t-55 64.5t-86 24q-55 0 -93 -25t-58 -67.5t-20 -95.5q0 -45 18.5 -86.5t55 -67t89.5 -25.5z" />
    <glyph glyph-name="l2_alt" horiz-adv-x="324" 
d="M216 -6q-53 0 -85 19.5t-45.5 57.5t-13.5 93v543h70v-532q0 -33 5.5 -60.5t23 -43t53.5 -15.5q19 0 37.5 6.5t32.5 18.5l30 -53q-24 -19 -51.5 -26.5t-56.5 -7.5z" />
    <glyph glyph-name="logo" horiz-adv-x="2941" 
d="M426 335q-6 0 -10 3.5t-6 3.5l-93 94h-110l-20 -19q-4 -6 -14 -6h-37q-8 0 -14.5 5.5t-6.5 13.5q0 7 7 14l25 26q8 5 14 5h37h1h106v36l-26 26h-118l-25 -20v-26q0 -8 -6 -14l-12 -13q-8 -5 -14 -5q-17 0 -19 15q-19 0 -19 19q-7 2 -12 6.5t-5 12.5q0 7 7 14l12 13
q6 6 14 6h27l0.5 0.5l1.5 1.5l31 25q4 4 12 4h39q4 13 18 13q8 0 14 -6l7 -7h55q6 0 14 -5l4 -5v20l-26 27h-135l-20 -20q-8 -5 -14 -5h-12q-6 0 -14 5l-13 13q-5 8 -5 14q0 8 4 12q-4 4 -4 13q0 6 5 14l13 12q6 6 14 6h12q8 0 14 -6l20 -19h35v28q-12 0 -18.5 15t-6.5 26
v37q0 8 5.5 14t13.5 6h51q8 0 13.5 -6t5.5 -14v-37q0 -11 -6.5 -26t-18.5 -15v-28h25q-1 1 -1 5q0 8 5.5 14t14.5 6q8 0 14 -6l36 -36q4 4 13 4q19 0 19 -19v-156l62 -62v71l-32 32q-6 6 -6 14t6 13.5t14 5.5q6 0 14 -5l4 -5v84l-95 95q-6 5 -6 14v18h-6q-19 0 -19 19
q0 8 5.5 14t13.5 6h6v6q0 8 6 13.5t14 5.5q19 0 19 -19v-6h6q8 0 13.5 -6t5.5 -14q0 -19 -19 -19h-6v-10l62 -62v120q-2 2 -2 3l-55 55q-6 6 -6 14t6 14l12 13q3 3 7 4v20q0 8 6 14l13 12q5 6 13 6q7 0 11 -3q6 6 15 6q8 0 14 -6q5 3 11 3q8 0 14 -6l12 -12q6 -6 6 -14v-20
l4 -2t3 -2l12 -13q6 -6 6 -14t-6 -14l-55 -55q0 -1 -2 -3v-120l62 62v10h-6q-19 0 -19 19q0 8 5.5 14t13.5 6h6v6q0 19 19 19q8 0 14 -5.5t6 -13.5v-6h6q8 0 13.5 -6t5.5 -14q0 -19 -19 -19h-6v-18q0 -9 -6 -14l-95 -95v-84l5 5q5 5 13 5q11 0 15.5 -6t4.5 -13q0 -8 -6 -14
l-32 -32v-71l62 62v156q0 19 19 19q9 0 13 -4l37 36q5 6 14 6q8 0 13.5 -6t5.5 -14q0 -1 -0.5 -2t-0.5 -3h25v28q-12 0 -18.5 15t-6.5 26v37q0 8 5.5 14t13.5 6h51q8 0 13.5 -6t5.5 -14v-37q0 -11 -6.5 -26t-18.5 -15v-28h36l19 19q6 6 14 6h12q8 0 14 -6l13 -12q6 -6 6 -14
q0 -5 -5 -13q5 -5 5 -12q0 -8 -6 -14l-13 -13q-8 -5 -14 -5h-12q-6 0 -14 5l-19 20h-136l-26 -27v-20l4 5q8 5 14 5h55l7 7q6 6 14 6q14 0 18 -13h39q8 0 12 -4l31 -25q1 -1 1.5 -1t1.5 -1h26q8 0 14 -6l12 -13q6 -6 6 -14q0 -6 -1 -7q-5 -9 -14 -12q0 -8 -6 -13.5t-14 -5.5
q-3 -15 -19 -15q-6 0 -14 5l-12 13q-6 6 -6 14v26l-25 20h-118l-26 -26v-36h144q9 0 14 -5l25 -26q6 -6 6 -14q0 -19 -19 -19h-38q-8 0 -14 6l-20 19h-109l-94 -94q-2 0 -6 -3.5t-9 -3.5zM204 0q-12 0 -12 13v349q0 13 12 13h61q12 0 21 -9l132 -132q2 -2 6 -2q5 0 7 2
l132 132q9 9 21 9h61q12 0 12 -13v-349q0 -13 -12 -13h-61q-13 0 -13 13v219q0 3 -4 3q-1 0 -2 -1l-118 -118q-10 -9 -22 -9h-1q-11 0 -22 9l-118 118q-1 1 -3 1q-4 0 -4 -3v-219q0 -13 -12 -13h-61zM904 -6q-57 0 -102 23.5t-71 67t-26 103.5q0 54 25 98t70 69.5t104 25.5
q58 0 102.5 -23.5t70.5 -66.5t26 -103q0 -57 -26 -100.5t-70.5 -68.5t-102.5 -25zM904 74q53 0 80.5 33.5t27.5 80.5q0 51 -31.5 82t-76.5 31q-47 0 -77.5 -31t-30.5 -82q0 -49 31.5 -81.5t76.5 -32.5zM1156 0q-9 0 -9 9v357q0 9 9 9h67q9 0 9 -9v-281q0 -4 5 -4h139
q9 0 9 -9v-63q0 -9 -9 -9h-220zM1547 -1q-15 0 -46.5 0.5t-58.5 0.5q-9 0 -9 9v357q0 9 9 9q11 0 32.5 0.5t43.5 0.5h33q75 0 121.5 -25.5t67.5 -67.5t21 -92q0 -52 -24 -96t-71.5 -70t-118.5 -26zM1549 80q56 0 88.5 28.5t32.5 82.5q0 52 -34 78.5t-86 26.5h-13t-14 -1
q-5 0 -5 -5v-205q0 -6 11.5 -5.5t19.5 0.5zM2003 -6q-57 0 -102 23.5t-71 67t-26 103.5q0 54 25 98t70 69.5t104 25.5q58 0 102.5 -23.5t70.5 -66.5t26 -103q0 -57 -26 -100.5t-70.5 -68.5t-102.5 -25zM2003 74q53 0 80.5 33.5t27.5 80.5q0 51 -31.5 82t-76.5 31
q-47 0 -77.5 -31t-30.5 -82q0 -49 31.5 -81.5t76.5 -32.5zM2358 0q-7 0 -12 9l-146 357q-1 1 -1 3q0 6 6 6h76q8 0 12 -9l91 -234q0 -2 2 -2q1 1 1 2l87 234q5 9 13 9h70q6 0 6 -6q0 -1 -0.5 -1.5t-0.5 -1.5l-142 -357q-4 -9 -13 -9h-49zM2497 0q-6 0 -6 6q0 2 1 3l141 358
q5 8 12 8h56q7 0 12 -8l141 -358q0 -1 0.5 -1.5t0.5 -1.5q0 -6 -6 -6h-70q-9 0 -11 9l-25 66q-1 4 -6 4h-133q-5 0 -6 -4l-24 -66q-4 -9 -12 -9h-65zM2635 159h71q3 0 3 3v1l-37 98l-1 1q-1 -1 -1.5 -1h-0.5l-37 -98v-1q0 -3 3 -3z" />
    <glyph glyph-name="logom" horiz-adv-x="848" 
d="M409 344l-95 95h-110l-20 -20q-6 -6 -14 -6h-38q-13 0 -18 12t4 22l25 25q6 6 14 6h146v36l-27 26h-118l-25 -20v-27t-7 -14l-5 -5l-7 -7q-8 -8 -19.5 -5t-13.5 15q-19 0 -19 19q-12 3 -15 14t5 19l12 12q7 7 14 7h27l34 27q5 5 12 5h39q4 10 14 12t18 -5l7 -7h55
q7 0 10.5 -3t8.5 -8v21l-27 26h-136l-18 -18t-10 -6t-18 -1q-8 0 -14 5.5t-13 12.5q-11 14 -1 27q-10 13 -1.5 22.5t15.5 16.5q5 6 12 6h15t14 -6l19 -19h36v28q-26 11 -26 41v38q0 8 6 14t14 6h51q8 0 14 -6t6 -14v-38q0 -30 -26 -41v-28h25q-4 14 9.5 23t23.5 -4l37 -36
q1 1 1.5 1t1.5 1q6 2 9 2q8 0 14 -6t6 -14v-156l62 -63v72l-32 32q-9 9 -5 19t14 14.5t19 -5.5l4 -5v84l-95 96q-6 6 -6 14v18h-6q-13 0 -17.5 10t0 20t17.5 10h6v5q0 13 9.5 17.5t19.5 0t10 -17.5v-5h6q13 0 17.5 -10t0 -20t-17.5 -10h-6v-10l62 -62v121q0 1 -7.5 9t-18 19
t-19.5 19.5t-12 11.5q-6 5 -6 13.5t6 14.5q4 4 9 9.5t10 7.5v21.5t4 9.5l15 15q11 12 24 3q8 7 17 6t13 -6q11 8 20.5 0t16.5 -16q6 -6 6 -14.5v-18.5q5 -2 10 -7.5t9 -9.5q6 -6 6 -14.5t-6 -13.5q-3 -3 -12 -11.5t-19.5 -19.5t-18 -19t-7.5 -9v-121l62 62v10h-6
q-13 0 -17.5 10t0 20t17.5 10h6v5q0 13 10 17.5t19.5 0t9.5 -17.5v-5h6q13 0 17.5 -10t0 -20t-17.5 -10h-6v-18t-5 -14l-96 -96v-84q4 5 7.5 8t10.5 3q14 0 18.5 -12.5t-4.5 -21.5l-32 -32v-72l62 63v156q0 13 11 18.5t21 -2.5l37 36q11 13 24 4t9 -23h25v28q-26 11 -26 41
v38q0 8 6 14t14 6h51q8 0 14 -6t6 -14v-38q0 -30 -26 -41v-28h36l18 18t10 6t18 1q8 0 14 -5.5t13 -12.5q11 -14 1 -27q10 -12 1.5 -22t-15.5 -17q-5 -5 -12 -5.5t-15 -0.5t-14 6l-19 19h-136l-27 -26v-21q5 5 8.5 8t10.5 3h55q5 5 9 8.5t12 3.5q14 0 18 -12h39q7 0 12 -5
l34 -27h27t11 -4l15 -15q10 -8 5 -21q-4 -9 -15 -12q0 -19 -19 -19q-2 -11 -13 -14q-12 -4 -20 4l-12 12q-7 7 -7 14v27l-25 20h-118l-27 -26v-36h146q8 0 14 -6l25 -25q9 -9 4 -21.5t-18 -12.5h-36t-14.5 5t-21.5 21h-110l-95 -95q-7 -8 -15.5 -8t-14.5 8zM201 0
q-13 0 -13 13v351q0 13 13 13h61q12 0 22 -9l132 -133q7 -6 13 0l133 133q11 9 22 9h61q12 0 12 -13v-351q0 -13 -12 -13h-61q-13 0 -13 13v220q0 2 -2.5 3.5t-4.5 -0.5l-119 -120q-9 -8 -22 -8t-22 8l-120 120q-2 2 -4 0.5t-2 -3.5v-220q0 -13 -13 -13h-61z" />
    <glyph glyph-name="map" horiz-adv-x="684" 
d="M295 0q-5 0 -5 5v23q0 2 -2 4l-9 9q-3 4 0 7l12 12q6 4 0 8l-12 12q-1 1 -1 4v85q0 3 1 4l14 13q1 1 1 4v119q0 3 -1 4l-13 12q-1 1 -1 4v23q0 3 -2 3l-46 47q-2 2 -2 4v21q0 3 -1 4l-46 46q-2 2 -2 3v26q0 3 -1 4l-31 30q-1 1 -1 4v29q0 2 -2 4l-21 21q-2 2 -2 4v26
q0 3 -1 4l-23 23q-2 2 -4 2h-42q-5 0 -5 5v2q0 3 1 4l16 16q2 2 4 2h39q3 0 4 1l19 19q2 2 4 2h96q2 0 4 -2l46 -46q1 -1 3 -1h33q5 0 5 -5v-25q0 -5 6 -5h6q3 0 4 1l16 17q1 1 4 1h32q5 0 5 -5v-26q0 -2 2 -4l20 -20q4 -3 7 0l10 10q1 1 4 1h6q6 0 6 -5v-79q0 -2 -2 -4
l-6 -6q-4 -4 0 -8l59 -59q1 -1 3 -1h12q5 0 5 -5v-34v-37q0 -2 2 -4l22 -22q2 -2 4 -2h12q3 0 4 -1l16 -17q2 -2 2 -4v-37q0 -2 -2 -4l-6 -5q-4 -4 0 -8l21 -20q1 -1 1 -4q0 -5 -5 -5h-19h-14q-2 0 -3 1l-9 9q-3 4 -7 0l-11 -11q-5 -3 -8 0l-15 15q-3 3 -8 0l-27 -27
q-2 -2 -3 -2h-9q-5 0 -5 6v34q0 4 -3.5 5t-5.5 -1l-22 -22q-1 -1 -1 -3v-27q0 -3 1 -4l10 -10q4 -3 0 -7l-20 -20q-1 -1 -1 -4v-25q0 -2 -2 -4l-22 -22q-1 -1 -1 -3v-12q0 -2 -2 -4l-12 -12q-2 -2 -3 -2h-9q-2 0 -3 -1l-10 -10q-2 -2 -2 -4v-38q0 -6 -5 -6h-20q-3 0 -4 -1
l-14 -15q-1 0 -1.5 -0.5t-2.5 -0.5h-3z" />
    <glyph glyph-name="tab_1" horiz-adv-x="669" 
d="M113 0v65h204v511h-175v47h43q35 0 65.5 7.5t53.5 26t35 50.5h50v-642h184v-65h-460z" />
    <glyph glyph-name="y2_alt" horiz-adv-x="546" 
d="M85 -232v67q49 0 79.5 15t51 46t39.5 77l-235 554h84l190 -469l157 469h81l-159 -446q-10 -28 -23.5 -65t-29.5 -75t-35 -71t-42 -53q-35 -31 -68 -40t-77 -9h-13z" />
    <glyph glyph-name="a00E2.alt" horiz-adv-x="554" 
d="M225 -6q-46 0 -85.5 15t-64.5 47t-25 84q0 36 13.5 61.5t36.5 43.5t52 29t59 17q40 7 92 12t114 10q0 48 -14.5 83.5t-45 55t-78.5 19.5q-40 0 -74.5 -13t-53.5 -49h-76q12 45 43.5 72t75 39.5t85.5 12.5q80 0 125.5 -32.5t64 -87.5t18.5 -125v-288h-65l-5 72
q-25 -29 -57 -46t-66.5 -24.5t-68.5 -7.5zM233 55q50 0 92 17.5t67.5 53.5t25.5 90v38q-32 -2 -67.5 -5t-69.5 -7.5t-64 -11.5q-45 -9 -70.5 -31.5t-25.5 -56.5q0 -35 18.5 -54t45 -26t48.5 -7zM134 640l126 151h50l127 -151h-72l-80 97l-80 -97h-71z" />
    <glyph glyph-name="a00E4.alt" horiz-adv-x="554" 
d="M225 -6q-46 0 -85.5 15t-64.5 47t-25 84q0 36 13.5 61.5t36.5 43.5t52 29t59 17q40 7 92 12t114 10q0 48 -14.5 83.5t-45 55t-78.5 19.5q-40 0 -74.5 -13t-53.5 -49h-76q12 45 43.5 72t75 39.5t85.5 12.5q80 0 125.5 -32.5t64 -87.5t18.5 -125v-288h-65l-5 72
q-25 -29 -57 -46t-66.5 -24.5t-68.5 -7.5zM233 55q50 0 92 17.5t67.5 53.5t25.5 90v38q-32 -2 -67.5 -5t-69.5 -7.5t-64 -11.5q-45 -9 -70.5 -31.5t-25.5 -56.5q0 -35 18.5 -54t45 -26t48.5 -7zM400 612q-22 0 -36.5 14t-14.5 36t14.5 36.5t36.5 14.5q23 0 37.5 -14
t14.5 -37q0 -22 -14.5 -36t-37.5 -14zM179 612q-22 0 -36.5 14t-14.5 36t14.5 36.5t36.5 14.5q23 0 38 -14t15 -37q0 -22 -15 -36t-38 -14z" />
    <glyph glyph-name="a0103.alt" horiz-adv-x="554" 
d="M225 -6q-46 0 -85.5 15t-64.5 47t-25 84q0 36 13.5 61.5t36.5 43.5t52 29t59 17q40 7 92 12t114 10q0 48 -14.5 83.5t-45 55t-78.5 19.5q-40 0 -74.5 -13t-53.5 -49h-76q12 45 43.5 72t75 39.5t85.5 12.5q80 0 125.5 -32.5t64 -87.5t18.5 -125v-288h-65l-5 72
q-25 -29 -57 -46t-66.5 -24.5t-68.5 -7.5zM233 55q50 0 92 17.5t67.5 53.5t25.5 90v38q-32 -2 -67.5 -5t-69.5 -7.5t-64 -11.5q-45 -9 -70.5 -31.5t-25.5 -56.5q0 -35 18.5 -54t45 -26t48.5 -7zM283 612q-71 0 -114.5 29.5t-47.5 91.5h65q4 -37 30.5 -51.5t67.5 -14.5
t67.5 14.5t30.5 51.5h65q-2 -41 -23.5 -68.5t-57.5 -40t-83 -12.5z" />
    <glyph glyph-name="t0163.alt" horiz-adv-x="390" 
d="M265 -6q-82 0 -114.5 44.5t-32.5 125.5v301h-88v62h88v158h71v-158h168v-62h-168v-290q0 -31 5.5 -58t23.5 -44t55 -17q21 0 39.5 7t31.5 17l29 -52q-15 -12 -32.5 -20t-36 -11t-39.5 -3zM208 -248q-11 -1 -23.5 -2t-26.5 0v45q17 0 36 1t37 6.5t29.5 18t11.5 33.5
q0 17 -10 25.5t-23.5 11.5t-24.5 3t-26 -2t-27 -7l32 127h50l-20 -76q8 1 14.5 1.5t12.5 0.5q37 0 57.5 -21t20.5 -59q0 -36 -16.5 -58t-43.5 -33.5t-60 -14.5z" />
    <glyph glyph-name="t021b.alt" horiz-adv-x="390" 
d="M265 -6q-82 0 -114.5 44.5t-32.5 125.5v301h-88v62h88v158h71v-158h168v-62h-168v-290q0 -31 5.5 -58t23.5 -44t55 -17q21 0 39.5 7t31.5 17l29 -52q-15 -12 -32.5 -20t-36 -11t-39.5 -3zM184 -303l-21 29q13 9 25 22t21.5 29t12.5 34q-22 0 -39 12.5t-17 38.5
q0 24 16 38t38 14q29 0 43.5 -21.5t13.5 -49.5q-1 -31 -13.5 -60.5t-33 -52t-46.5 -33.5z" />
    <glyph glyph-name="t2.alt" horiz-adv-x="390" 
d="M265 -6q-82 0 -114.5 44.5t-32.5 125.5v301h-88v62h88v158h71v-158h168v-62h-168v-290q0 -31 5.5 -58t23.5 -44t55 -17q21 0 39.5 7t31.5 17l29 -52q-15 -12 -32.5 -20t-36 -11t-39.5 -3z" />
    </font>
</defs>
</svg>
