<?xml version="1.0" standalone="no"?>
<!DOCTYPE svg PUBLIC "-//W3C//DTD SVG 1.1//EN" "http://www.w3.org/Graphics/SVG/1.1/DTD/svg11.dtd" >
<svg xmlns="http://www.w3.org/2000/svg" xmlns:xlink="http://www.w3.org/1999/xlink" version="1.1">
<metadata>
Created by FontForge 20230101 at Wed Sep  6 15:02:59 2023
 By Webmaster
Copyright 2021 The Onest Project Authors (https://github.com/simpals/onest)
</metadata>
<defs>
<font id="Onest-Thin" horiz-adv-x="0" >
  <font-face 
    font-family="Onest Thin"
    font-weight="250"
    font-stretch="normal"
    units-per-em="1000"
    panose-1="0 0 0 0 0 0 0 0 0 0"
    ascent="800"
    descent="-200"
    x-height="527"
    cap-height="707"
    bbox="-149 -300 2855 960"
    underline-thickness="50"
    underline-position="-100"
    unicode-range="U+000D-27F6"
  />
<missing-glyph horiz-adv-x="540" 
d="M20 -295v1255h500v-1255h-500zM30 -285h480v1235h-480v-1235z" />
    <glyph glyph-name=".notdef" horiz-adv-x="540" 
d="M20 -295v1255h500v-1255h-500zM30 -285h480v1235h-480v-1235z" />
    <glyph glyph-name="A" unicode="A" horiz-adv-x="638" 
d="M16 0l278 707h47l281 -707h-49l-64 163h-382l-63 -163h-48zM141 200h353l-176 457z" />
    <glyph glyph-name="Aacute" unicode="&#xc1;" horiz-adv-x="638" 
d="M16 0l278 707h47l281 -707h-49l-64 163h-382l-63 -163h-48zM141 200h353l-176 457zM301 796l76 127h50l-88 -127h-38z" />
    <glyph glyph-name="Abreve" unicode="&#x102;" horiz-adv-x="638" 
d="M16 0l278 707h47l281 -707h-49l-64 163h-382l-63 -163h-48zM141 200h353l-176 457zM318 796q-55 0 -96.5 20.5t-49.5 78.5h39q8 -41 38 -53.5t70 -12.5q39 0 69.5 12.5t38.5 53.5h39q-5 -38 -27 -60t-53.5 -30.5t-67.5 -8.5z" />
    <glyph glyph-name="Acircumflex" unicode="&#xc2;" horiz-adv-x="638" 
d="M16 0l278 707h47l281 -707h-49l-64 163h-382l-63 -163h-48zM141 200h353l-176 457zM192 796l111 127h32l111 -127h-43l-85 98l-82 -98h-44z" />
    <glyph glyph-name="Adieresis" unicode="&#xc4;" horiz-adv-x="638" 
d="M16 0l278 707h47l281 -707h-49l-64 163h-382l-63 -163h-48zM141 200h353l-176 457zM423 806q-18 0 -28.5 11.5t-10.5 27.5t10.5 27.5t28.5 11.5q19 0 30 -11t11 -28t-11 -28t-30 -11zM212 806q-18 0 -28.5 11.5t-10.5 27.5t10.5 27.5t28.5 11.5q19 0 30 -11t11 -28
t-11 -28t-30 -11z" />
    <glyph glyph-name="Agrave" unicode="&#xc0;" horiz-adv-x="638" 
d="M16 0l278 707h47l281 -707h-49l-64 163h-382l-63 -163h-48zM141 200h353l-176 457zM304 796l-88 127h50l76 -127h-38z" />
    <glyph glyph-name="Amacron" unicode="&#x100;" horiz-adv-x="638" 
d="M16 0l278 707h47l281 -707h-49l-64 163h-382l-63 -163h-48zM141 200h353l-176 457zM169 822v35h299v-35h-299z" />
    <glyph glyph-name="Aogonek" unicode="&#x104;" horiz-adv-x="638" 
d="M16 0l278 707h47l281 -707h-49l-64 163h-382l-63 -163h-48zM141 200h353l-176 457zM626 -201q-46 0 -78.5 23t-32.5 73q0 36 24 67t54 47l23 -8q-25 -18 -43.5 -43t-18.5 -55q0 -36 21 -53t56 -18q9 0 20.5 2t19.5 5l8 -30q-12 -5 -25.5 -7.5t-27.5 -2.5z" />
    <glyph glyph-name="Aring" unicode="&#xc5;" horiz-adv-x="638" 
d="M16 0l278 707h47l281 -707h-49l-64 163h-382l-63 -163h-48zM141 200h353l-176 457zM318 776q-38 0 -61 21.5t-23 58.5t23.5 61t61.5 24q39 0 62 -24t23 -61q0 -38 -24 -59t-62 -21zM318 802q26 0 40.5 14.5t14.5 40.5q0 25 -14 41t-40 16t-40 -16t-14 -41q0 -26 14 -40.5
t39 -14.5z" />
    <glyph glyph-name="Atilde" unicode="&#xc3;" horiz-adv-x="638" 
d="M16 0l278 707h47l281 -707h-49l-64 163h-382l-63 -163h-48zM141 200h353l-176 457zM382 792q-24 0 -41 11.5t-31 26.5t-27.5 26.5t-30.5 11.5q-19 0 -29 -11.5t-12.5 -28t-1.5 -32.5h-37q0 29 7.5 52t26 36.5t49.5 13.5q23 0 40 -11.5t31 -26.5t27.5 -26.5t30.5 -11.5
q20 0 29.5 11t12 28t2.5 33h37q0 -29 -8 -52.5t-26 -36.5t-49 -13z" />
    <glyph glyph-name="AE" unicode="&#xc6;" horiz-adv-x="929" 
d="M16 0l389 707h470v-38h-394v-299h352v-38h-352v-294h394v-38h-436v166h-282l-91 -166h-50zM177 203h262v466h-8z" />
    <glyph glyph-name="B" unicode="B" horiz-adv-x="651" 
d="M92 0v707h239q44 0 84 -6.5t72.5 -24.5t51 -51t18.5 -86q0 -69 -38.5 -111.5t-99.5 -58.5q78 -6 127.5 -53.5t49.5 -125.5q0 -58 -24 -95.5t-63.5 -58t-87.5 -28.5t-96 -8h-233zM134 38h188q39 0 80 4.5t75.5 19t55.5 45.5t21 83q0 46 -18.5 75.5t-49 46.5t-67.5 24
t-75 7h-210v-305zM134 380h164q37 0 75.5 7.5t71.5 25t53 47.5t20 75q0 59 -26.5 87.5t-69 37.5t-90.5 9h-198v-289z" />
    <glyph glyph-name="C" unicode="C" horiz-adv-x="699" 
d="M376 -8q-110 0 -181.5 47t-106 129t-34.5 185q0 102 35.5 184t108 130t181.5 48q58 0 109.5 -16t90.5 -50.5t59 -90.5h-44q-29 62 -85.5 91.5t-125.5 29.5q-98 0 -161.5 -44.5t-94.5 -118t-31 -161.5t30 -162.5t92.5 -119.5t159.5 -45q44 0 88.5 12.5t81 39.5t54.5 69h49
q-22 -54 -65 -89t-97.5 -51.5t-112.5 -16.5z" />
    <glyph glyph-name="Cacute" unicode="&#x106;" horiz-adv-x="699" 
d="M376 -8q-110 0 -181.5 47t-106 129t-34.5 185q0 102 35.5 184t108 130t181.5 48q58 0 109.5 -16t90.5 -50.5t59 -90.5h-44q-29 62 -85.5 91.5t-125.5 29.5q-98 0 -161.5 -44.5t-94.5 -118t-31 -161.5t30 -162.5t92.5 -119.5t159.5 -45q44 0 88.5 12.5t81 39.5t54.5 69h49
q-22 -54 -65 -89t-97.5 -51.5t-112.5 -16.5zM357 796l76 127h50l-88 -127h-38z" />
    <glyph glyph-name="Ccaron" unicode="&#x10c;" horiz-adv-x="699" 
d="M376 -8q-110 0 -181.5 47t-106 129t-34.5 185q0 102 35.5 184t108 130t181.5 48q58 0 109.5 -16t90.5 -50.5t59 -90.5h-44q-29 62 -85.5 91.5t-125.5 29.5q-98 0 -161.5 -44.5t-94.5 -118t-31 -161.5t30 -162.5t92.5 -119.5t159.5 -45q44 0 88.5 12.5t81 39.5t54.5 69h49
q-22 -54 -65 -89t-97.5 -51.5t-112.5 -16.5zM359 796l-111 127h43l85 -97l82 97h44l-111 -127h-32z" />
    <glyph glyph-name="Ccedilla" unicode="&#xc7;" horiz-adv-x="699" 
d="M376 -8q-110 0 -181.5 47t-106 129t-34.5 185q0 102 35.5 184t108 130t181.5 48q58 0 109.5 -16t90.5 -50.5t59 -90.5h-44q-29 62 -85.5 91.5t-125.5 29.5q-98 0 -161.5 -44.5t-94.5 -118t-31 -161.5t30 -162.5t92.5 -119.5t159.5 -45q44 0 88.5 12.5t81 39.5t54.5 69h49
q-22 -54 -65 -89t-97.5 -51.5t-112.5 -16.5zM325 -249h-13t-13 1v27q15 -2 35 -0.5t39 8.5t31.5 22t12.5 40q0 17 -7 28t-20.5 17t-31.5 6q-12 0 -28.5 -3t-27.5 -6l40 127h26l-30 -96q11 2 18.5 2.5t16.5 0.5q32 0 53 -20t21 -58q0 -35 -18 -56t-46 -30.5t-58 -9.5z" />
    <glyph glyph-name="Ccircumflex" unicode="&#x108;" horiz-adv-x="699" 
d="M376 -8q-110 0 -181.5 47t-106 129t-34.5 185q0 102 35.5 184t108 130t181.5 48q58 0 109.5 -16t90.5 -50.5t59 -90.5h-44q-29 62 -85.5 91.5t-125.5 29.5q-98 0 -161.5 -44.5t-94.5 -118t-31 -161.5t30 -162.5t92.5 -119.5t159.5 -45q44 0 88.5 12.5t81 39.5t54.5 69h49
q-22 -54 -65 -89t-97.5 -51.5t-112.5 -16.5zM248 796l111 127h32l111 -127h-43l-85 98l-82 -98h-44z" />
    <glyph glyph-name="Cdotaccent" unicode="&#x10a;" horiz-adv-x="699" 
d="M376 -8q-110 0 -181.5 47t-106 129t-34.5 185q0 102 35.5 184t108 130t181.5 48q58 0 109.5 -16t90.5 -50.5t59 -90.5h-44q-29 62 -85.5 91.5t-125.5 29.5q-98 0 -161.5 -44.5t-94.5 -118t-31 -161.5t30 -162.5t92.5 -119.5t159.5 -45q44 0 88.5 12.5t81 39.5t54.5 69h49
q-22 -54 -65 -89t-97.5 -51.5t-112.5 -16.5zM374 806q-17 0 -28 10t-11 30q0 19 11.5 28.5t28.5 9.5t28 -10t11 -28q0 -19 -11.5 -29.5t-28.5 -10.5z" />
    <glyph glyph-name="D" unicode="D" horiz-adv-x="720" 
d="M93 0v707h243q109 0 182 -44.5t110 -124t37 -185.5q0 -104 -37 -183.5t-110.5 -124.5t-181.5 -45h-243zM135 38h193q97 0 162 40t98 111t33 164q0 91 -31.5 162.5t-94.5 112.5t-160 41h-200v-631z" />
    <glyph glyph-name="Dcaron" unicode="&#x10e;" horiz-adv-x="720" 
d="M93 0v707h243q109 0 182 -44.5t110 -124t37 -185.5q0 -104 -37 -183.5t-110.5 -124.5t-181.5 -45h-243zM135 38h193q97 0 162 40t98 111t33 164q0 91 -31.5 162.5t-94.5 112.5t-160 41h-200v-631zM344 796l-111 127h43l85 -97l82 97h44l-111 -127h-32z" />
    <glyph glyph-name="Dcroat" unicode="&#x110;" horiz-adv-x="720" 
d="M93 0v334h-86v38h86v335h243q110 0 183 -44.5t109.5 -124.5t36.5 -185q0 -104 -37 -183.5t-110.5 -124.5t-181.5 -45h-243zM135 38h193q98 0 163 40t97.5 111t32.5 164q0 92 -31.5 163.5t-94.5 112t-160 40.5h-200v-297h183v-38h-183v-296z" />
    <glyph glyph-name="Eth" unicode="&#xd0;" horiz-adv-x="720" 
d="M93 0v334h-86v38h86v335h243q110 0 183 -44.5t109.5 -124.5t36.5 -185q0 -104 -37 -183.5t-110.5 -124.5t-181.5 -45h-243zM135 38h193q98 0 163 40t97.5 111t32.5 164q0 92 -31.5 163.5t-94.5 112t-160 40.5h-200v-297h183v-38h-183v-296z" />
    <glyph glyph-name="E" unicode="E" horiz-adv-x="603" 
d="M93 0v707h456v-38h-414v-299h372v-38h-372v-294h414v-38h-456z" />
    <glyph glyph-name="Eacute" unicode="&#xc9;" horiz-adv-x="603" 
d="M93 0v707h456v-38h-414v-299h372v-38h-372v-294h414v-38h-456zM304 796l76 127h50l-88 -127h-38z" />
    <glyph glyph-name="Ebreve" unicode="&#x114;" horiz-adv-x="603" 
d="M93 0v707h456v-38h-414v-299h372v-38h-372v-294h414v-38h-456zM321 796q-55 0 -96.5 20.5t-49.5 78.5h39q8 -41 38 -53.5t70 -12.5q39 0 69.5 12.5t38.5 53.5h39q-5 -38 -27 -60t-53.5 -30.5t-67.5 -8.5z" />
    <glyph glyph-name="Ecaron" unicode="&#x11a;" horiz-adv-x="603" 
d="M93 0v707h456v-38h-414v-299h372v-38h-372v-294h414v-38h-456zM306 796l-111 127h43l85 -97l82 97h44l-111 -127h-32z" />
    <glyph glyph-name="Ecircumflex" unicode="&#xca;" horiz-adv-x="603" 
d="M93 0v707h456v-38h-414v-299h372v-38h-372v-294h414v-38h-456zM195 796l111 127h32l111 -127h-43l-85 98l-82 -98h-44z" />
    <glyph glyph-name="Edieresis" unicode="&#xcb;" horiz-adv-x="603" 
d="M93 0v707h456v-38h-414v-299h372v-38h-372v-294h414v-38h-456zM426 806q-18 0 -28.5 11.5t-10.5 27.5t10.5 27.5t28.5 11.5q19 0 30 -11t11 -28t-11 -28t-30 -11zM215 806q-18 0 -28.5 11.5t-10.5 27.5t10.5 27.5t28.5 11.5q19 0 30 -11t11 -28t-11 -28t-30 -11z" />
    <glyph glyph-name="Edotaccent" unicode="&#x116;" horiz-adv-x="603" 
d="M93 0v707h456v-38h-414v-299h372v-38h-372v-294h414v-38h-456zM321 806q-17 0 -28 10t-11 30q0 19 11.5 28.5t28.5 9.5t28 -10t11 -28q0 -19 -11.5 -29.5t-28.5 -10.5z" />
    <glyph glyph-name="Egrave" unicode="&#xc8;" horiz-adv-x="603" 
d="M93 0v707h456v-38h-414v-299h372v-38h-372v-294h414v-38h-456zM307 796l-88 127h50l76 -127h-38z" />
    <glyph glyph-name="Emacron" unicode="&#x112;" horiz-adv-x="603" 
d="M93 0v707h456v-38h-414v-299h372v-38h-372v-294h414v-38h-456zM172 822v35h299v-35h-299z" />
    <glyph glyph-name="Eogonek" unicode="&#x118;" horiz-adv-x="603" 
d="M93 0v707h456v-38h-414v-299h372v-38h-372v-294h414v-38h-456zM595 -201q-46 0 -78.5 23t-32.5 73q0 36 24 67t54 47l23 -8q-25 -18 -43.5 -43t-18.5 -55q0 -36 21 -53t56 -18q9 0 20.5 2t19.5 5l8 -30q-12 -5 -25.5 -7.5t-27.5 -2.5z" />
    <glyph glyph-name="F" unicode="F" horiz-adv-x="592" 
d="M93 0v707h456v-38h-414v-323h354v-37h-354v-309h-42z" />
    <glyph glyph-name="G" unicode="G" horiz-adv-x="724" 
d="M375 -8q-107 0 -177.5 46.5t-106 126.5t-37.5 179q-1 77 18.5 144t59 118t100 80t141.5 29q60 0 112.5 -15.5t93 -50t64.5 -91.5h-50q-18 41 -53.5 68t-78.5 40t-86 13q-73 0 -125.5 -26.5t-86 -73t-49 -105.5t-15.5 -125q0 -87 29 -160t90.5 -117t157.5 -44
q81 0 137.5 33.5t87 94t31.5 140.5h-248v37h286v-39q0 -89 -36 -157.5t-102.5 -106.5t-156.5 -38z" />
    <glyph glyph-name="Gbreve" unicode="&#x11e;" horiz-adv-x="724" 
d="M375 -8q-107 0 -177.5 46.5t-106 126.5t-37.5 179q-1 77 18.5 144t59 118t100 80t141.5 29q60 0 112.5 -15.5t93 -50t64.5 -91.5h-50q-18 41 -53.5 68t-78.5 40t-86 13q-73 0 -125.5 -26.5t-86 -73t-49 -105.5t-15.5 -125q0 -87 29 -160t90.5 -117t157.5 -44
q81 0 137.5 33.5t87 94t31.5 140.5h-248v37h286v-39q0 -89 -36 -157.5t-102.5 -106.5t-156.5 -38zM361 796q-55 0 -96.5 20.5t-49.5 78.5h39q8 -41 38 -53.5t70 -12.5q39 0 69.5 12.5t38.5 53.5h39q-5 -38 -27 -60t-53.5 -30.5t-67.5 -8.5z" />
    <glyph glyph-name="Gcircumflex" unicode="&#x11c;" horiz-adv-x="724" 
d="M375 -8q-107 0 -177.5 46.5t-106 126.5t-37.5 179q-1 77 18.5 144t59 118t100 80t141.5 29q60 0 112.5 -15.5t93 -50t64.5 -91.5h-50q-18 41 -53.5 68t-78.5 40t-86 13q-73 0 -125.5 -26.5t-86 -73t-49 -105.5t-15.5 -125q0 -87 29 -160t90.5 -117t157.5 -44
q81 0 137.5 33.5t87 94t31.5 140.5h-248v37h286v-39q0 -89 -36 -157.5t-102.5 -106.5t-156.5 -38zM235 796l111 127h32l111 -127h-43l-85 98l-82 -98h-44z" />
    <glyph glyph-name="uni0122" unicode="&#x122;" horiz-adv-x="724" 
d="M375 -8q-107 0 -177.5 46.5t-106 126.5t-37.5 179q-1 77 18.5 144t59 118t100 80t141.5 29q60 0 112.5 -15.5t93 -50t64.5 -91.5h-50q-18 41 -53.5 68t-78.5 40t-86 13q-73 0 -125.5 -26.5t-86 -73t-49 -105.5t-15.5 -125q0 -87 29 -160t90.5 -117t157.5 -44
q81 0 137.5 33.5t87 94t31.5 140.5h-248v37h286v-39q0 -89 -36 -157.5t-102.5 -106.5t-156.5 -38zM348 -300l-15 20q12 7 23.5 18.5t20.5 27.5t11 36q-13 -4 -32 4t-19 35q0 17 11.5 28.5t29.5 11.5q22 0 33.5 -16t11.5 -37q0 -28 -9.5 -52.5t-26 -43.5t-39.5 -32z" />
    <glyph glyph-name="Gdotaccent" unicode="&#x120;" horiz-adv-x="724" 
d="M375 -8q-107 0 -177.5 46.5t-106 126.5t-37.5 179q-1 77 18.5 144t59 118t100 80t141.5 29q60 0 112.5 -15.5t93 -50t64.5 -91.5h-50q-18 41 -53.5 68t-78.5 40t-86 13q-73 0 -125.5 -26.5t-86 -73t-49 -105.5t-15.5 -125q0 -87 29 -160t90.5 -117t157.5 -44
q81 0 137.5 33.5t87 94t31.5 140.5h-248v37h286v-39q0 -89 -36 -157.5t-102.5 -106.5t-156.5 -38zM361 806q-17 0 -28 10t-11 30q0 19 11.5 28.5t28.5 9.5t28 -10t11 -28q0 -19 -11.5 -29.5t-28.5 -10.5z" />
    <glyph glyph-name="H" unicode="H" horiz-adv-x="725" 
d="M93 0v707h42v-342h455v342h42v-707h-42v328h-455v-328h-42z" />
    <glyph glyph-name="Hbar" unicode="&#x126;" horiz-adv-x="725" 
d="M93 0v517h-70v37h70v153h42v-153h455v153h42v-153h69v-37h-69v-517h-42v328h-455v-328h-42zM135 365h455v152h-455v-152z" />
    <glyph glyph-name="Hcircumflex" unicode="&#x124;" horiz-adv-x="725" 
d="M93 0v707h42v-342h455v342h42v-707h-42v328h-455v-328h-42zM236 796l111 127h32l111 -127h-43l-85 98l-82 -98h-44z" />
    <glyph glyph-name="I" unicode="I" horiz-adv-x="228" 
d="M93 0v707h42v-707h-42z" />
    <glyph glyph-name="IJ" unicode="&#x132;" horiz-adv-x="686" 
d="M392 -8q-43 0 -78 9.5t-61.5 30t-43.5 52.5t-23 77h47q8 -46 28.5 -75.5t54 -43.5t79.5 -14q67 0 101.5 30t46.5 79t12 106v464h43v-472q0 -45 -8 -88.5t-29.5 -78t-62.5 -55.5t-106 -21zM93 0v707h42v-707h-42z" />
    <glyph glyph-name="Iacute" unicode="&#xcd;" horiz-adv-x="228" 
d="M93 0v707h42v-707h-42zM96 796l76 127h50l-88 -127h-38z" />
    <glyph glyph-name="Ibreve" unicode="&#x12c;" horiz-adv-x="228" 
d="M93 0v707h42v-707h-42zM113 796q-55 0 -96.5 20.5t-49.5 78.5h39q8 -41 38 -53.5t70 -12.5q39 0 69.5 12.5t38.5 53.5h39q-5 -38 -27 -60t-53.5 -30.5t-67.5 -8.5z" />
    <glyph glyph-name="Icircumflex" unicode="&#xce;" horiz-adv-x="228" 
d="M93 0v707h42v-707h-42zM-13 796l111 127h32l111 -127h-43l-85 98l-82 -98h-44z" />
    <glyph glyph-name="Idieresis" unicode="&#xcf;" horiz-adv-x="228" 
d="M93 0v707h42v-707h-42zM218 806q-18 0 -28.5 11.5t-10.5 27.5t10.5 27.5t28.5 11.5q19 0 30 -11t11 -28t-11 -28t-30 -11zM7 806q-18 0 -28.5 11.5t-10.5 27.5t10.5 27.5t28.5 11.5q19 0 30 -11t11 -28t-11 -28t-30 -11z" />
    <glyph glyph-name="Idotaccent" unicode="&#x130;" horiz-adv-x="228" 
d="M93 0v707h42v-707h-42zM113 806q-17 0 -28 10t-11 30q0 19 11.5 28.5t28.5 9.5t28 -10t11 -28q0 -19 -11.5 -29.5t-28.5 -10.5z" />
    <glyph glyph-name="Igrave" unicode="&#xcc;" horiz-adv-x="228" 
d="M93 0v707h42v-707h-42zM99 796l-88 127h50l76 -127h-38z" />
    <glyph glyph-name="Imacron" unicode="&#x12a;" horiz-adv-x="228" 
d="M93 0v707h42v-707h-42zM-36 822v35h299v-35h-299z" />
    <glyph glyph-name="Iogonek" unicode="&#x12e;" horiz-adv-x="228" 
d="M93 0v707h42v-707h-42zM143 -201q-46 0 -78.5 23t-32.5 73q0 36 24 67t54 47l23 -8q-25 -18 -43.5 -43t-18.5 -55q0 -36 21 -53t56 -18q9 0 20.5 2t19.5 5l8 -30q-12 -5 -25.5 -7.5t-27.5 -2.5z" />
    <glyph glyph-name="Itilde" unicode="&#x128;" horiz-adv-x="228" 
d="M93 0v707h42v-707h-42zM177 792q-24 0 -41 11.5t-31 26.5t-27.5 26.5t-30.5 11.5q-19 0 -29 -11.5t-12.5 -28t-1.5 -32.5h-37q0 29 7.5 52t26 36.5t49.5 13.5q23 0 40 -11.5t31 -26.5t27.5 -26.5t30.5 -11.5q20 0 29.5 11t12 28t2.5 33h37q0 -29 -8 -52.5t-26 -36.5
t-49 -13z" />
    <glyph glyph-name="J" unicode="J" horiz-adv-x="548" 
d="M254 -8q-43 0 -78 9.5t-61.5 30t-43.5 52.5t-23 77h47q8 -46 28.5 -75.5t54 -43.5t79.5 -14q67 0 101.5 30t46.5 79t12 106v464h43v-472q0 -45 -8 -88.5t-29.5 -78t-62.5 -55.5t-106 -21z" />
    <glyph glyph-name="Jcircumflex" unicode="&#x134;" horiz-adv-x="548" 
d="M254 -8q-43 0 -78 9.5t-61.5 30t-43.5 52.5t-23 77h47q8 -46 28.5 -75.5t54 -43.5t79.5 -14q67 0 101.5 30t46.5 79t12 106v464h43v-472q0 -45 -8 -88.5t-29.5 -78t-62.5 -55.5t-106 -21zM311 796l111 127h32l111 -127h-43l-85 98l-82 -98h-44z" />
    <glyph glyph-name="K" unicode="K" horiz-adv-x="599" 
d="M93 0v707h42v-347h145l248 347h48l-252 -352l255 -355h-51l-235 323h-158v-323h-42z" />
    <glyph glyph-name="uni0136" unicode="&#x136;" horiz-adv-x="599" 
d="M93 0v707h42v-347h145l248 347h48l-252 -352l255 -355h-51l-235 323h-158v-323h-42zM270 -300l-15 20q12 7 23.5 18.5t20.5 27.5t11 36q-13 -4 -32 4t-19 35q0 17 11.5 28.5t29.5 11.5q22 0 33.5 -16t11.5 -37q0 -28 -9.5 -52.5t-26 -43.5t-39.5 -32z" />
    <glyph glyph-name="L" unicode="L" horiz-adv-x="568" 
d="M93 0v707h42v-669h414v-38h-456z" />
    <glyph glyph-name="Lacute" unicode="&#x139;" horiz-adv-x="568" 
d="M93 0v707h42v-669h414v-38h-456zM99 796l76 127h50l-88 -127h-38z" />
    <glyph glyph-name="Lcaron" unicode="&#x13d;" horiz-adv-x="568" 
d="M93 0v707h42v-669h414v-38h-456zM281 530l-15 20q12 7 23.5 18.5t20.5 27.5t11 36q-13 -4 -32 4t-19 35q0 17 11.5 28.5t30.5 11.5q20 0 32 -14.5t12 -40.5q0 -27 -9.5 -51t-26 -43t-39.5 -32z" />
    <glyph glyph-name="uni013B" unicode="&#x13b;" horiz-adv-x="568" 
d="M93 0v707h42v-669h414v-38h-456zM289 -300l-15 20q12 7 23.5 18.5t20.5 27.5t11 36q-13 -4 -32 4t-19 35q0 17 11.5 28.5t29.5 11.5q22 0 33.5 -16t11.5 -37q0 -28 -9.5 -52.5t-26 -43.5t-39.5 -32z" />
    <glyph glyph-name="Ldot" unicode="&#x13f;" horiz-adv-x="568" 
d="M93 0v707h42v-669h414v-38h-456zM350 323q-18 0 -29 10t-11 29q0 17 10.5 27.5t29.5 10.5t29 -10.5t10 -27.5q0 -18 -10 -28.5t-29 -10.5z" />
    <glyph glyph-name="Lslash" unicode="&#x141;" horiz-adv-x="568" 
d="M93 0v281l-72 -47l-21 31l93 62v380h42v-352l159 106l21 -32l-180 -120v-271h414v-38h-456z" />
    <glyph glyph-name="M" unicode="M" horiz-adv-x="835" 
d="M93 0v707h60l268 -452l262 452h59v-707h-42v657l-269 -462h-22l-274 462v-657h-42z" />
    <glyph glyph-name="N" unicode="N" horiz-adv-x="744" 
d="M93 0v707h61l455 -658v658h42v-707h-58l-458 659v-659h-42z" />
    <glyph glyph-name="Nacute" unicode="&#x143;" horiz-adv-x="744" 
d="M93 0v707h61l455 -658v658h42v-707h-58l-458 659v-659h-42zM354 796l76 127h50l-88 -127h-38z" />
    <glyph glyph-name="Ncaron" unicode="&#x147;" horiz-adv-x="744" 
d="M93 0v707h61l455 -658v658h42v-707h-58l-458 659v-659h-42zM356 796l-111 127h43l85 -97l82 97h44l-111 -127h-32z" />
    <glyph glyph-name="uni0145" unicode="&#x145;" horiz-adv-x="744" 
d="M93 0v707h61l455 -658v658h42v-707h-58l-458 659v-659h-42zM347 -300l-15 20q12 7 23.5 18.5t20.5 27.5t11 36q-13 -4 -32 4t-19 35q0 17 11.5 28.5t29.5 11.5q22 0 33.5 -16t11.5 -37q0 -28 -9.5 -52.5t-26 -43.5t-39.5 -32z" />
    <glyph glyph-name="Ntilde" unicode="&#xd1;" horiz-adv-x="744" 
d="M93 0v707h61l455 -658v658h42v-707h-58l-458 659v-659h-42zM435 792q-24 0 -41 11.5t-31 26.5t-27.5 26.5t-30.5 11.5q-19 0 -29 -11.5t-12.5 -28t-1.5 -32.5h-37q0 29 7.5 52t26 36.5t49.5 13.5q23 0 40 -11.5t31 -26.5t27.5 -26.5t30.5 -11.5q20 0 29.5 11t12 28
t2.5 33h37q0 -29 -8 -52.5t-26 -36.5t-49 -13z" />
    <glyph glyph-name="Eng" unicode="&#x14a;" horiz-adv-x="744" 
d="M467 -196v35h27q56 0 80 21.5t29.5 58t5.5 81.5h-16l-458 659v-659h-42v707h61l455 -658v658h42v-719q0 -59 -12 -100t-45.5 -62.5t-99.5 -21.5h-27z" />
    <glyph glyph-name="O" unicode="O" horiz-adv-x="767" 
d="M384 -8q-109 0 -182.5 47t-110.5 128.5t-37 185.5t37 186t110.5 129t182.5 47t182 -47.5t110 -129t37 -185.5q0 -103 -37 -185t-110 -129t-182 -47zM384 28q96 0 159 43.5t94 117.5t31 164q0 67 -17.5 126t-52.5 104t-88.5 70.5t-125.5 25.5q-96 0 -159.5 -44.5
t-95 -118.5t-31.5 -163t32 -163t96 -118t158 -44z" />
    <glyph glyph-name="Oacute" unicode="&#xd3;" horiz-adv-x="767" 
d="M384 -8q-109 0 -182.5 47t-110.5 128.5t-37 185.5t37 186t110.5 129t182.5 47t182 -47.5t110 -129t37 -185.5q0 -103 -37 -185t-110 -129t-182 -47zM384 28q96 0 159 43.5t94 117.5t31 164q0 67 -17.5 126t-52.5 104t-88.5 70.5t-125.5 25.5q-96 0 -159.5 -44.5
t-95 -118.5t-31.5 -163t32 -163t96 -118t158 -44zM366 796l76 127h50l-88 -127h-38z" />
    <glyph glyph-name="Obreve" unicode="&#x14e;" horiz-adv-x="767" 
d="M384 -8q-109 0 -182.5 47t-110.5 128.5t-37 185.5t37 186t110.5 129t182.5 47t182 -47.5t110 -129t37 -185.5q0 -103 -37 -185t-110 -129t-182 -47zM384 28q96 0 159 43.5t94 117.5t31 164q0 67 -17.5 126t-52.5 104t-88.5 70.5t-125.5 25.5q-96 0 -159.5 -44.5
t-95 -118.5t-31.5 -163t32 -163t96 -118t158 -44zM383 796q-55 0 -96.5 20.5t-49.5 78.5h39q8 -41 38 -53.5t70 -12.5q39 0 69.5 12.5t38.5 53.5h39q-5 -38 -27 -60t-53.5 -30.5t-67.5 -8.5z" />
    <glyph glyph-name="Ocircumflex" unicode="&#xd4;" horiz-adv-x="767" 
d="M384 -8q-109 0 -182.5 47t-110.5 128.5t-37 185.5t37 186t110.5 129t182.5 47t182 -47.5t110 -129t37 -185.5q0 -103 -37 -185t-110 -129t-182 -47zM384 28q96 0 159 43.5t94 117.5t31 164q0 67 -17.5 126t-52.5 104t-88.5 70.5t-125.5 25.5q-96 0 -159.5 -44.5
t-95 -118.5t-31.5 -163t32 -163t96 -118t158 -44zM257 796l111 127h32l111 -127h-43l-85 98l-82 -98h-44z" />
    <glyph glyph-name="Odieresis" unicode="&#xd6;" horiz-adv-x="767" 
d="M384 -8q-109 0 -182.5 47t-110.5 128.5t-37 185.5t37 186t110.5 129t182.5 47t182 -47.5t110 -129t37 -185.5q0 -103 -37 -185t-110 -129t-182 -47zM384 28q96 0 159 43.5t94 117.5t31 164q0 67 -17.5 126t-52.5 104t-88.5 70.5t-125.5 25.5q-96 0 -159.5 -44.5
t-95 -118.5t-31.5 -163t32 -163t96 -118t158 -44zM488 806q-18 0 -28.5 11.5t-10.5 27.5t10.5 27.5t28.5 11.5q19 0 30 -11t11 -28t-11 -28t-30 -11zM277 806q-18 0 -28.5 11.5t-10.5 27.5t10.5 27.5t28.5 11.5q19 0 30 -11t11 -28t-11 -28t-30 -11z" />
    <glyph glyph-name="Ograve" unicode="&#xd2;" horiz-adv-x="767" 
d="M384 -8q-109 0 -182.5 47t-110.5 128.5t-37 185.5t37 186t110.5 129t182.5 47t182 -47.5t110 -129t37 -185.5q0 -103 -37 -185t-110 -129t-182 -47zM384 28q96 0 159 43.5t94 117.5t31 164q0 67 -17.5 126t-52.5 104t-88.5 70.5t-125.5 25.5q-96 0 -159.5 -44.5
t-95 -118.5t-31.5 -163t32 -163t96 -118t158 -44zM369 796l-88 127h50l76 -127h-38z" />
    <glyph glyph-name="Ohungarumlaut" unicode="&#x150;" horiz-adv-x="767" 
d="M384 -8q-109 0 -182.5 47t-110.5 128.5t-37 185.5t37 186t110.5 129t182.5 47t182 -47.5t110 -129t37 -185.5q0 -103 -37 -185t-110 -129t-182 -47zM384 28q96 0 159 43.5t94 117.5t31 164q0 67 -17.5 126t-52.5 104t-88.5 70.5t-125.5 25.5q-96 0 -159.5 -44.5
t-95 -118.5t-31.5 -163t32 -163t96 -118t158 -44zM412 796l76 127h50l-88 -127h-38zM292 796l76 127h50l-88 -127h-38z" />
    <glyph glyph-name="Omacron" unicode="&#x14c;" horiz-adv-x="767" 
d="M384 -8q-109 0 -182.5 47t-110.5 128.5t-37 185.5t37 186t110.5 129t182.5 47t182 -47.5t110 -129t37 -185.5q0 -103 -37 -185t-110 -129t-182 -47zM384 28q96 0 159 43.5t94 117.5t31 164q0 67 -17.5 126t-52.5 104t-88.5 70.5t-125.5 25.5q-96 0 -159.5 -44.5
t-95 -118.5t-31.5 -163t32 -163t96 -118t158 -44zM234 822v35h299v-35h-299z" />
    <glyph glyph-name="Oslash" unicode="&#xd8;" horiz-adv-x="767" 
d="M165 -110l57 137q-61 32 -98 83.5t-53.5 114.5t-16.5 128q0 104 37 185.5t110.5 129t182.5 47.5q32 0 62 -4.5t57 -13.5l50 119h49l-58 -137q62 -32 99 -83.5t53.5 -114t16.5 -128.5q0 -102 -37 -184t-110 -129.5t-182 -47.5q-34 0 -64 4.5t-56 13.5l-50 -120h-49z
M238 65l250 597q-24 8 -50 12.5t-54 4.5q-96 0 -159.5 -44.5t-95 -118.5t-31.5 -163q0 -56 14 -111t45 -101t81 -76zM384 28q97 0 159.5 44t93.5 118t31 163q0 58 -13 112.5t-43.5 100.5t-82.5 76l-250 -597q49 -17 105 -17z" />
    <glyph glyph-name="Otilde" unicode="&#xd5;" horiz-adv-x="767" 
d="M384 -8q-109 0 -182.5 47t-110.5 128.5t-37 185.5t37 186t110.5 129t182.5 47t182 -47.5t110 -129t37 -185.5q0 -103 -37 -185t-110 -129t-182 -47zM384 28q96 0 159 43.5t94 117.5t31 164q0 67 -17.5 126t-52.5 104t-88.5 70.5t-125.5 25.5q-96 0 -159.5 -44.5
t-95 -118.5t-31.5 -163t32 -163t96 -118t158 -44zM447 792q-24 0 -41 11.5t-31 26.5t-27.5 26.5t-30.5 11.5q-19 0 -29 -11.5t-12.5 -28t-1.5 -32.5h-37q0 29 7.5 52t26 36.5t49.5 13.5q23 0 40 -11.5t31 -26.5t27.5 -26.5t30.5 -11.5q20 0 29.5 11t12 28t2.5 33h37
q0 -29 -8 -52.5t-26 -36.5t-49 -13z" />
    <glyph glyph-name="OE" unicode="&#x152;" horiz-adv-x="1162" 
d="M384 -8q-109 0 -182.5 47t-110.5 129t-37 185q0 104 37 185.5t110.5 129t182.5 47.5q91 0 165.5 -39t116.5 -122v153h442v-38h-400v-299h358v-38h-358v-294h400v-38h-442v152q-42 -82 -117 -121t-165 -39zM384 28q97 0 159.5 43.5t93.5 115t31 156.5v25q0 83 -31.5 154
t-94.5 114t-158 43q-96 0 -159.5 -44.5t-95 -118.5t-31.5 -163q0 -88 31.5 -162t95.5 -118.5t159 -44.5z" />
    <glyph glyph-name="P" unicode="P" horiz-adv-x="624" 
d="M93 0v707h235q76 0 129.5 -24t82.5 -74.5t29 -128.5t-34.5 -129t-93.5 -76t-133 -25h-173v-250h-42zM135 287h171q98 0 158.5 47t60.5 150q0 100 -54.5 142.5t-148.5 42.5h-187v-382z" />
    <glyph glyph-name="Thorn" unicode="&#xde;" horiz-adv-x="624" 
d="M93 0v707h42v-125h193q76 0 129.5 -24t82.5 -74.5t29 -128.5t-34.5 -129t-93 -76t-132.5 -25h-174v-125h-42zM135 162h170q65 0 114.5 20.5t77.5 64t28 112.5q0 100 -54.5 142.5t-148.5 42.5h-187v-382z" />
    <glyph glyph-name="Q" unicode="Q" horiz-adv-x="767" 
d="M657 -129l-112 156q-38 -17 -78 -26t-83 -9q-109 0 -182.5 47t-110.5 128.5t-37 185.5t37 186t110.5 129t182.5 47t182 -47.5t110 -129t37 -185.5q0 -95 -32.5 -173t-97.5 -130l111 -154zM384 28q98 0 160.5 43.5t93 117.5t30.5 164q0 89 -31 163t-93.5 118.5
t-159.5 44.5q-96 0 -159.5 -44.5t-95 -118.5t-31.5 -163t31.5 -163t95.5 -118t159 -44z" />
    <glyph glyph-name="R" unicode="R" horiz-adv-x="654" 
d="M93 0v707h257q55 0 100 -11t77.5 -36t50 -65.5t17.5 -99.5q0 -53 -19.5 -94t-58 -68t-96.5 -40l158 -293h-48l-154 286h-242v-286h-42zM135 323h187q44 0 85 7t73.5 26t51.5 53.5t19 88.5q0 68 -28 105t-75.5 51.5t-107.5 14.5h-205v-346z" />
    <glyph glyph-name="Racute" unicode="&#x154;" horiz-adv-x="654" 
d="M93 0v707h257q55 0 100 -11t77.5 -36t50 -65.5t17.5 -99.5q0 -53 -19.5 -94t-58 -68t-96.5 -40l158 -293h-48l-154 286h-242v-286h-42zM135 323h187q44 0 85 7t73.5 26t51.5 53.5t19 88.5q0 68 -28 105t-75.5 51.5t-107.5 14.5h-205v-346zM309 796l76 127h50l-88 -127
h-38z" />
    <glyph glyph-name="Rcaron" unicode="&#x158;" horiz-adv-x="654" 
d="M93 0v707h257q55 0 100 -11t77.5 -36t50 -65.5t17.5 -99.5q0 -53 -19.5 -94t-58 -68t-96.5 -40l158 -293h-48l-154 286h-242v-286h-42zM135 323h187q44 0 85 7t73.5 26t51.5 53.5t19 88.5q0 68 -28 105t-75.5 51.5t-107.5 14.5h-205v-346zM311 796l-111 127h43l85 -97
l82 97h44l-111 -127h-32z" />
    <glyph glyph-name="uni0156" unicode="&#x156;" horiz-adv-x="654" 
d="M93 0v707h257q55 0 100 -11t77.5 -36t50 -65.5t17.5 -99.5q0 -53 -19.5 -94t-58 -68t-96.5 -40l158 -293h-48l-154 286h-242v-286h-42zM135 323h187q44 0 85 7t73.5 26t51.5 53.5t19 88.5q0 68 -28 105t-75.5 51.5t-107.5 14.5h-205v-346zM297 -300l-15 20
q12 7 23.5 18.5t20.5 27.5t11 36q-13 -4 -32 4t-19 35q0 17 11.5 28.5t29.5 11.5q22 0 33.5 -16t11.5 -37q0 -28 -9.5 -52.5t-26 -43.5t-39.5 -32z" />
    <glyph glyph-name="S" unicode="S" horiz-adv-x="643" 
d="M335 -8q-59 0 -113.5 15t-96.5 49.5t-62 92.5h47q22 -44 57.5 -70.5t78.5 -38.5t86 -12q50 0 96.5 15.5t76 48t29.5 84.5q0 43 -17.5 69t-47.5 41.5t-68 26.5q-20 6 -39.5 11.5t-38 10.5t-35.5 9q-37 9 -73.5 21t-66 32t-47.5 51.5t-18 79.5q0 41 13 72.5t36.5 53t54 35
t65.5 20t72 6.5q55 0 103 -15t82.5 -48.5t46.5 -89.5h-45q-12 43 -41.5 68.5t-68 37t-78.5 11.5q-32 0 -66 -7t-63 -23.5t-47 -44t-18 -69.5q0 -45 19.5 -72.5t51.5 -43.5t71 -27q42 -11 83 -22t79 -23q30 -9 56.5 -23t46.5 -34t31.5 -45.5t11.5 -57.5q0 -54 -20.5 -91
t-55.5 -60t-78.5 -33.5t-89.5 -10.5z" />
    <glyph glyph-name="Sacute" unicode="&#x15a;" horiz-adv-x="643" 
d="M335 -8q-59 0 -113.5 15t-96.5 49.5t-62 92.5h47q22 -44 57.5 -70.5t78.5 -38.5t86 -12q50 0 96.5 15.5t76 48t29.5 84.5q0 43 -17.5 69t-47.5 41.5t-68 26.5q-20 6 -39.5 11.5t-38 10.5t-35.5 9q-37 9 -73.5 21t-66 32t-47.5 51.5t-18 79.5q0 41 13 72.5t36.5 53t54 35
t65.5 20t72 6.5q55 0 103 -15t82.5 -48.5t46.5 -89.5h-45q-12 43 -41.5 68.5t-68 37t-78.5 11.5q-32 0 -66 -7t-63 -23.5t-47 -44t-18 -69.5q0 -45 19.5 -72.5t51.5 -43.5t71 -27q42 -11 83 -22t79 -23q30 -9 56.5 -23t46.5 -34t31.5 -45.5t11.5 -57.5q0 -54 -20.5 -91
t-55.5 -60t-78.5 -33.5t-89.5 -10.5zM304 796l76 127h50l-88 -127h-38z" />
    <glyph glyph-name="Scaron" unicode="&#x160;" horiz-adv-x="643" 
d="M335 -8q-59 0 -113.5 15t-96.5 49.5t-62 92.5h47q22 -44 57.5 -70.5t78.5 -38.5t86 -12q50 0 96.5 15.5t76 48t29.5 84.5q0 43 -17.5 69t-47.5 41.5t-68 26.5q-20 6 -39.5 11.5t-38 10.5t-35.5 9q-37 9 -73.5 21t-66 32t-47.5 51.5t-18 79.5q0 41 13 72.5t36.5 53t54 35
t65.5 20t72 6.5q55 0 103 -15t82.5 -48.5t46.5 -89.5h-45q-12 43 -41.5 68.5t-68 37t-78.5 11.5q-32 0 -66 -7t-63 -23.5t-47 -44t-18 -69.5q0 -45 19.5 -72.5t51.5 -43.5t71 -27q42 -11 83 -22t79 -23q30 -9 56.5 -23t46.5 -34t31.5 -45.5t11.5 -57.5q0 -54 -20.5 -91
t-55.5 -60t-78.5 -33.5t-89.5 -10.5zM306 796l-111 127h43l85 -97l82 97h44l-111 -127h-32z" />
    <glyph glyph-name="Scedilla" unicode="&#x15e;" horiz-adv-x="643" 
d="M335 -8q-59 0 -113.5 15t-96.5 49.5t-62 92.5h47q22 -44 57.5 -70.5t78.5 -38.5t86 -12q50 0 96.5 15.5t76 48t29.5 84.5q0 43 -17.5 69t-47.5 41.5t-68 26.5q-20 6 -39.5 11.5t-38 10.5t-35.5 9q-37 9 -73.5 21t-66 32t-47.5 51.5t-18 79.5q0 41 13 72.5t36.5 53t54 35
t65.5 20t72 6.5q55 0 103 -15t82.5 -48.5t46.5 -89.5h-45q-12 43 -41.5 68.5t-68 37t-78.5 11.5q-32 0 -66 -7t-63 -23.5t-47 -44t-18 -69.5q0 -45 19.5 -72.5t51.5 -43.5t71 -27q42 -11 83 -22t79 -23q30 -9 56.5 -23t46.5 -34t31.5 -45.5t11.5 -57.5q0 -54 -20.5 -91
t-55.5 -60t-78.5 -33.5t-89.5 -10.5zM297 -249h-13t-13 1v27q15 -2 35 -0.5t39 8.5t31.5 22t12.5 40q0 17 -7 28t-20.5 17t-31.5 6q-12 0 -28.5 -3t-27.5 -6l40 127h26l-30 -96q11 2 18.5 2.5t16.5 0.5q32 0 53 -20t21 -58q0 -35 -18 -56t-46 -30.5t-58 -9.5z" />
    <glyph glyph-name="Scircumflex" unicode="&#x15c;" horiz-adv-x="643" 
d="M335 -8q-59 0 -113.5 15t-96.5 49.5t-62 92.5h47q22 -44 57.5 -70.5t78.5 -38.5t86 -12q50 0 96.5 15.5t76 48t29.5 84.5q0 43 -17.5 69t-47.5 41.5t-68 26.5q-20 6 -39.5 11.5t-38 10.5t-35.5 9q-37 9 -73.5 21t-66 32t-47.5 51.5t-18 79.5q0 41 13 72.5t36.5 53t54 35
t65.5 20t72 6.5q55 0 103 -15t82.5 -48.5t46.5 -89.5h-45q-12 43 -41.5 68.5t-68 37t-78.5 11.5q-32 0 -66 -7t-63 -23.5t-47 -44t-18 -69.5q0 -45 19.5 -72.5t51.5 -43.5t71 -27q42 -11 83 -22t79 -23q30 -9 56.5 -23t46.5 -34t31.5 -45.5t11.5 -57.5q0 -54 -20.5 -91
t-55.5 -60t-78.5 -33.5t-89.5 -10.5zM195 796l111 127h32l111 -127h-43l-85 98l-82 -98h-44z" />
    <glyph glyph-name="uni0218" unicode="&#x218;" horiz-adv-x="643" 
d="M335 -8q-59 0 -113.5 15t-96.5 49.5t-62 92.5h47q22 -44 57.5 -70.5t78.5 -38.5t86 -12q50 0 96.5 15.5t76 48t29.5 84.5q0 43 -17.5 69t-47.5 41.5t-68 26.5q-20 6 -39.5 11.5t-38 10.5t-35.5 9q-37 9 -73.5 21t-66 32t-47.5 51.5t-18 79.5q0 41 13 72.5t36.5 53t54 35
t65.5 20t72 6.5q55 0 103 -15t82.5 -48.5t46.5 -89.5h-45q-12 43 -41.5 68.5t-68 37t-78.5 11.5q-32 0 -66 -7t-63 -23.5t-47 -44t-18 -69.5q0 -45 19.5 -72.5t51.5 -43.5t71 -27q42 -11 83 -22t79 -23q30 -9 56.5 -23t46.5 -34t31.5 -45.5t11.5 -57.5q0 -54 -20.5 -91
t-55.5 -60t-78.5 -33.5t-89.5 -10.5zM292 -300l-15 20q12 7 23.5 18.5t20.5 27.5t11 36q-13 -4 -32 4t-19 35q0 17 11.5 28.5t29.5 11.5q22 0 33.5 -16t11.5 -37q0 -28 -9.5 -52.5t-26 -43.5t-39.5 -32z" />
    <glyph glyph-name="uni1E9E" unicode="&#x1e9e;" horiz-adv-x="667" 
d="M442 -8q-38 0 -74.5 11.5t-64 36.5t-38.5 64h45q15 -42 53.5 -59t82.5 -17q50 0 87 27.5t37 77.5q0 26 -11 49t-37 46t-72 47q-38 21 -77 41.5t-77 41.5l172 227q-22 44 -70 69t-97 25q-45 0 -83.5 -17t-62 -50t-23.5 -81v-531h-42v527q0 65 29 106.5t77 61.5t106 20
q40 0 83 -15t78 -44.5t50 -75.5l-161 -208q28 -16 56 -31t56 -31q47 -26 80 -50.5t50.5 -53.5t17.5 -69q0 -49 -22.5 -81t-60.5 -48t-87 -16z" />
    <glyph glyph-name="T" unicode="T" horiz-adv-x="566" 
d="M262 0v669h-242v38h526v-38h-242v-669h-42z" />
    <glyph glyph-name="Tbar" unicode="&#x166;" horiz-adv-x="566" 
d="M262 0v324h-129v35h129v310h-242v38h526v-38h-242v-310h128v-35h-128v-324h-42z" />
    <glyph glyph-name="Tcaron" unicode="&#x164;" horiz-adv-x="566" 
d="M262 0v669h-242v38h526v-38h-242v-669h-42zM267 796l-111 127h43l85 -97l82 97h44l-111 -127h-32z" />
    <glyph glyph-name="uni0162" unicode="&#x162;" horiz-adv-x="566" 
d="M262 0v669h-242v38h526v-38h-242v-669h-42zM258 -249h-13t-13 1v27q15 -2 35 -0.5t39 8.5t31.5 22t12.5 40q0 17 -7 28t-20.5 17t-31.5 6q-12 0 -28.5 -3t-27.5 -6l40 127h26l-30 -96q11 2 18.5 2.5t16.5 0.5q32 0 53 -20t21 -58q0 -35 -18 -56t-46 -30.5t-58 -9.5z" />
    <glyph glyph-name="uni021A" unicode="&#x21a;" horiz-adv-x="566" 
d="M262 0v669h-242v38h526v-38h-242v-669h-42zM253 -300l-15 20q12 7 23.5 18.5t20.5 27.5t11 36q-13 -4 -32 4t-19 35q0 17 11.5 28.5t29.5 11.5q22 0 33.5 -16t11.5 -37q0 -28 -9.5 -52.5t-26 -43.5t-39.5 -32z" />
    <glyph glyph-name="U" unicode="U" horiz-adv-x="718" 
d="M359 -8q-95 0 -155 39.5t-88 108.5t-28 159v408h43v-404q0 -77 23 -139.5t73.5 -99t132.5 -36.5q84 0 134 37t72 99.5t22 138.5v404h42v-408q0 -90 -27.5 -159t-87.5 -108.5t-156 -39.5z" />
    <glyph glyph-name="Uacute" unicode="&#xda;" horiz-adv-x="718" 
d="M359 -8q-95 0 -155 39.5t-88 108.5t-28 159v408h43v-404q0 -77 23 -139.5t73.5 -99t132.5 -36.5q84 0 134 37t72 99.5t22 138.5v404h42v-408q0 -90 -27.5 -159t-87.5 -108.5t-156 -39.5zM341 796l76 127h50l-88 -127h-38z" />
    <glyph glyph-name="Ubreve" unicode="&#x16c;" horiz-adv-x="718" 
d="M359 -8q-95 0 -155 39.5t-88 108.5t-28 159v408h43v-404q0 -77 23 -139.5t73.5 -99t132.5 -36.5q84 0 134 37t72 99.5t22 138.5v404h42v-408q0 -90 -27.5 -159t-87.5 -108.5t-156 -39.5zM358 796q-55 0 -96.5 20.5t-49.5 78.5h39q8 -41 38 -53.5t70 -12.5q39 0 69.5 12.5
t38.5 53.5h39q-5 -38 -27 -60t-53.5 -30.5t-67.5 -8.5z" />
    <glyph glyph-name="Ucircumflex" unicode="&#xdb;" horiz-adv-x="718" 
d="M359 -8q-95 0 -155 39.5t-88 108.5t-28 159v408h43v-404q0 -77 23 -139.5t73.5 -99t132.5 -36.5q84 0 134 37t72 99.5t22 138.5v404h42v-408q0 -90 -27.5 -159t-87.5 -108.5t-156 -39.5zM232 796l111 127h32l111 -127h-43l-85 98l-82 -98h-44z" />
    <glyph glyph-name="Udieresis" unicode="&#xdc;" horiz-adv-x="718" 
d="M359 -8q-95 0 -155 39.5t-88 108.5t-28 159v408h43v-404q0 -77 23 -139.5t73.5 -99t132.5 -36.5q84 0 134 37t72 99.5t22 138.5v404h42v-408q0 -90 -27.5 -159t-87.5 -108.5t-156 -39.5zM463 806q-18 0 -28.5 11.5t-10.5 27.5t10.5 27.5t28.5 11.5q19 0 30 -11t11 -28
t-11 -28t-30 -11zM252 806q-18 0 -28.5 11.5t-10.5 27.5t10.5 27.5t28.5 11.5q19 0 30 -11t11 -28t-11 -28t-30 -11z" />
    <glyph glyph-name="Ugrave" unicode="&#xd9;" horiz-adv-x="718" 
d="M359 -8q-95 0 -155 39.5t-88 108.5t-28 159v408h43v-404q0 -77 23 -139.5t73.5 -99t132.5 -36.5q84 0 134 37t72 99.5t22 138.5v404h42v-408q0 -90 -27.5 -159t-87.5 -108.5t-156 -39.5zM344 796l-88 127h50l76 -127h-38z" />
    <glyph glyph-name="Uhungarumlaut" unicode="&#x170;" horiz-adv-x="718" 
d="M359 -8q-95 0 -155 39.5t-88 108.5t-28 159v408h43v-404q0 -77 23 -139.5t73.5 -99t132.5 -36.5q84 0 134 37t72 99.5t22 138.5v404h42v-408q0 -90 -27.5 -159t-87.5 -108.5t-156 -39.5zM387 796l76 127h50l-88 -127h-38zM267 796l76 127h50l-88 -127h-38z" />
    <glyph glyph-name="Umacron" unicode="&#x16a;" horiz-adv-x="718" 
d="M359 -8q-95 0 -155 39.5t-88 108.5t-28 159v408h43v-404q0 -77 23 -139.5t73.5 -99t132.5 -36.5q84 0 134 37t72 99.5t22 138.5v404h42v-408q0 -90 -27.5 -159t-87.5 -108.5t-156 -39.5zM209 822v35h299v-35h-299z" />
    <glyph glyph-name="Uogonek" unicode="&#x172;" horiz-adv-x="718" 
d="M359 -8q-95 0 -155 39.5t-88 108.5t-28 159v408h43v-404q0 -77 23 -139.5t73.5 -99t132.5 -36.5q84 0 134 37t72 99.5t22 138.5v404h42v-408q0 -90 -27.5 -159t-87.5 -108.5t-156 -39.5zM415 -201q-46 0 -78.5 23t-32.5 73q0 36 24 67t54 47l23 -8q-25 -18 -43.5 -43
t-18.5 -55q0 -36 21 -53t56 -18q9 0 20.5 2t19.5 5l8 -30q-12 -5 -25.5 -7.5t-27.5 -2.5z" />
    <glyph glyph-name="Uring" unicode="&#x16e;" horiz-adv-x="718" 
d="M359 -8q-95 0 -155 39.5t-88 108.5t-28 159v408h43v-404q0 -77 23 -139.5t73.5 -99t132.5 -36.5q84 0 134 37t72 99.5t22 138.5v404h42v-408q0 -90 -27.5 -159t-87.5 -108.5t-156 -39.5zM358 776q-38 0 -61 21.5t-23 58.5t23.5 61t61.5 24q39 0 62 -24t23 -61
q0 -38 -24 -59t-62 -21zM358 802q26 0 40.5 14.5t14.5 40.5q0 25 -14 41t-40 16t-40 -16t-14 -41q0 -26 14 -40.5t39 -14.5z" />
    <glyph glyph-name="Utilde" unicode="&#x168;" horiz-adv-x="718" 
d="M359 -8q-95 0 -155 39.5t-88 108.5t-28 159v408h43v-404q0 -77 23 -139.5t73.5 -99t132.5 -36.5q84 0 134 37t72 99.5t22 138.5v404h42v-408q0 -90 -27.5 -159t-87.5 -108.5t-156 -39.5zM422 792q-24 0 -41 11.5t-31 26.5t-27.5 26.5t-30.5 11.5q-19 0 -29 -11.5
t-12.5 -28t-1.5 -32.5h-37q0 29 7.5 52t26 36.5t49.5 13.5q23 0 40 -11.5t31 -26.5t27.5 -26.5t30.5 -11.5q20 0 29.5 11t12 28t2.5 33h37q0 -29 -8 -52.5t-26 -36.5t-49 -13z" />
    <glyph glyph-name="V" unicode="V" horiz-adv-x="648" 
d="M299 0l-279 707h48l257 -660l256 660h47l-276 -707h-53z" />
    <glyph glyph-name="W" unicode="W" horiz-adv-x="937" 
d="M219 0l-199 707h46l184 -663l187 663h61l190 -663l183 663h46l-199 -707h-61l-190 663l-183 -663h-65z" />
    <glyph glyph-name="Wacute" unicode="&#x1e82;" horiz-adv-x="937" 
d="M219 0l-199 707h46l184 -663l187 663h61l190 -663l183 663h46l-199 -707h-61l-190 663l-183 -663h-65zM451 796l76 127h50l-88 -127h-38z" />
    <glyph glyph-name="Wcircumflex" unicode="&#x174;" horiz-adv-x="937" 
d="M219 0l-199 707h46l184 -663l187 663h61l190 -663l183 663h46l-199 -707h-61l-190 663l-183 -663h-65zM342 796l111 127h32l111 -127h-43l-85 98l-82 -98h-44z" />
    <glyph glyph-name="Wdieresis" unicode="&#x1e84;" horiz-adv-x="937" 
d="M219 0l-199 707h46l184 -663l187 663h61l190 -663l183 663h46l-199 -707h-61l-190 663l-183 -663h-65zM573 806q-18 0 -28.5 11.5t-10.5 27.5t10.5 27.5t28.5 11.5q19 0 30 -11t11 -28t-11 -28t-30 -11zM362 806q-18 0 -28.5 11.5t-10.5 27.5t10.5 27.5t28.5 11.5
q19 0 30 -11t11 -28t-11 -28t-30 -11z" />
    <glyph glyph-name="Wgrave" unicode="&#x1e80;" horiz-adv-x="937" 
d="M219 0l-199 707h46l184 -663l187 663h61l190 -663l183 663h46l-199 -707h-61l-190 663l-183 -663h-65zM454 796l-88 127h50l76 -127h-38z" />
    <glyph glyph-name="X" unicode="X" horiz-adv-x="558" 
d="M20 0l229 356l-221 351h56l195 -317l194 317h56l-220 -349l229 -358h-55l-205 323l-204 -323h-54z" />
    <glyph glyph-name="Y" unicode="Y" horiz-adv-x="583" 
d="M272 0v267l-252 440h52l221 -397l221 397h49l-249 -440v-267h-42z" />
    <glyph glyph-name="Yacute" unicode="&#xdd;" horiz-adv-x="583" 
d="M272 0v267l-252 440h52l221 -397l221 397h49l-249 -440v-267h-42zM274 796l76 127h50l-88 -127h-38z" />
    <glyph glyph-name="Ycircumflex" unicode="&#x176;" horiz-adv-x="583" 
d="M272 0v267l-252 440h52l221 -397l221 397h49l-249 -440v-267h-42zM165 796l111 127h32l111 -127h-43l-85 98l-82 -98h-44z" />
    <glyph glyph-name="Ydieresis" unicode="&#x178;" horiz-adv-x="583" 
d="M272 0v267l-252 440h52l221 -397l221 397h49l-249 -440v-267h-42zM396 806q-18 0 -28.5 11.5t-10.5 27.5t10.5 27.5t28.5 11.5q19 0 30 -11t11 -28t-11 -28t-30 -11zM185 806q-18 0 -28.5 11.5t-10.5 27.5t10.5 27.5t28.5 11.5q19 0 30 -11t11 -28t-11 -28t-30 -11z" />
    <glyph glyph-name="Ygrave" unicode="&#x1ef2;" horiz-adv-x="583" 
d="M272 0v267l-252 440h52l221 -397l221 397h49l-249 -440v-267h-42zM277 796l-88 127h50l76 -127h-38z" />
    <glyph glyph-name="Z" unicode="Z" horiz-adv-x="593" 
d="M50 0v40l437 629h-422v38h478v-39l-443 -630h438v-38h-488z" />
    <glyph glyph-name="Zacute" unicode="&#x179;" horiz-adv-x="593" 
d="M50 0v40l437 629h-422v38h478v-39l-443 -630h438v-38h-488zM279 796l76 127h50l-88 -127h-38z" />
    <glyph glyph-name="Zcaron" unicode="&#x17d;" horiz-adv-x="593" 
d="M50 0v40l437 629h-422v38h478v-39l-443 -630h438v-38h-488zM281 796l-111 127h43l85 -97l82 97h44l-111 -127h-32z" />
    <glyph glyph-name="Zdotaccent" unicode="&#x17b;" horiz-adv-x="593" 
d="M50 0v40l437 629h-422v38h478v-39l-443 -630h438v-38h-488zM296 806q-17 0 -28 10t-11 30q0 19 11.5 28.5t28.5 9.5t28 -10t11 -28q0 -19 -11.5 -29.5t-28.5 -10.5z" />
    <glyph glyph-name="I_alt" horiz-adv-x="585" 
d="M45 0v38h226v631h-226v38h495v-38h-227v-631h227v-38h-495z" />
    <glyph glyph-name="K_alt" horiz-adv-x="599" 
d="M93 0v707h42v-423l398 423h50l-294 -315l290 -392h-50l-270 364l-124 -133v-231h-42z" />
    <glyph glyph-name="W_alt" horiz-adv-x="888" 
d="M221 0l-201 707h49l188 -663l168 486h38l171 -486l187 663h47l-201 -707h-64l-159 454l-154 -454h-69z" />
    <glyph glyph-name="a" unicode="a" horiz-adv-x="552" 
d="M239 -7q-29 0 -61.5 7t-61 23.5t-46 45.5t-17.5 73t16 72.5t43.5 45.5t62.5 24t73 7h192q0 57 -15.5 104t-51 75t-95.5 28q-25 0 -53 -5.5t-52.5 -19.5t-39.5 -41h-47q13 35 37 55t52 30.5t55 13.5t46 3q108 0 157 -67t49 -180v-287h-42v81q-21 -28 -50.5 -48t-67 -30
t-83.5 -10zM237 29q49 0 95.5 16.5t77 51.5t30.5 90v69h-167q-29 0 -60 -3t-58 -13.5t-43.5 -32.5t-16.5 -60q0 -41 20.5 -67.5t53 -38.5t68.5 -12z" />
    <glyph glyph-name="aacute" unicode="&#xe1;" horiz-adv-x="552" 
d="M239 -7q-29 0 -61.5 7t-61 23.5t-46 45.5t-17.5 73t16 72.5t43.5 45.5t62.5 24t73 7h192q0 57 -15.5 104t-51 75t-95.5 28q-25 0 -53 -5.5t-52.5 -19.5t-39.5 -41h-47q13 35 37 55t52 30.5t55 13.5t46 3q108 0 157 -67t49 -180v-287h-42v81q-21 -28 -50.5 -48t-67 -30
t-83.5 -10zM237 29q49 0 95.5 16.5t77 51.5t30.5 90v69h-167q-29 0 -60 -3t-58 -13.5t-43.5 -32.5t-16.5 -60q0 -41 20.5 -67.5t53 -38.5t68.5 -12zM268 636l76 127h50l-88 -127h-38z" />
    <glyph glyph-name="abreve" unicode="&#x103;" horiz-adv-x="552" 
d="M239 -7q-29 0 -61.5 7t-61 23.5t-46 45.5t-17.5 73t16 72.5t43.5 45.5t62.5 24t73 7h192q0 57 -15.5 104t-51 75t-95.5 28q-25 0 -53 -5.5t-52.5 -19.5t-39.5 -41h-47q13 35 37 55t52 30.5t55 13.5t46 3q108 0 157 -67t49 -180v-287h-42v81q-21 -28 -50.5 -48t-67 -30
t-83.5 -10zM237 29q49 0 95.5 16.5t77 51.5t30.5 90v69h-167q-29 0 -60 -3t-58 -13.5t-43.5 -32.5t-16.5 -60q0 -41 20.5 -67.5t53 -38.5t68.5 -12zM285 636q-55 0 -96.5 20.5t-49.5 78.5h39q8 -41 38 -53.5t70 -12.5q39 0 69.5 12.5t38.5 53.5h39q-5 -38 -27 -60
t-53.5 -30.5t-67.5 -8.5z" />
    <glyph glyph-name="acircumflex" unicode="&#xe2;" horiz-adv-x="552" 
d="M239 -7q-29 0 -61.5 7t-61 23.5t-46 45.5t-17.5 73t16 72.5t43.5 45.5t62.5 24t73 7h192q0 57 -15.5 104t-51 75t-95.5 28q-25 0 -53 -5.5t-52.5 -19.5t-39.5 -41h-47q13 35 37 55t52 30.5t55 13.5t46 3q108 0 157 -67t49 -180v-287h-42v81q-21 -28 -50.5 -48t-67 -30
t-83.5 -10zM237 29q49 0 95.5 16.5t77 51.5t30.5 90v69h-167q-29 0 -60 -3t-58 -13.5t-43.5 -32.5t-16.5 -60q0 -41 20.5 -67.5t53 -38.5t68.5 -12zM159 636l111 127h32l111 -127h-43l-85 98l-82 -98h-44z" />
    <glyph glyph-name="adieresis" unicode="&#xe4;" horiz-adv-x="552" 
d="M239 -7q-29 0 -61.5 7t-61 23.5t-46 45.5t-17.5 73t16 72.5t43.5 45.5t62.5 24t73 7h192q0 57 -15.5 104t-51 75t-95.5 28q-25 0 -53 -5.5t-52.5 -19.5t-39.5 -41h-47q13 35 37 55t52 30.5t55 13.5t46 3q108 0 157 -67t49 -180v-287h-42v81q-21 -28 -50.5 -48t-67 -30
t-83.5 -10zM237 29q49 0 95.5 16.5t77 51.5t30.5 90v69h-167q-29 0 -60 -3t-58 -13.5t-43.5 -32.5t-16.5 -60q0 -41 20.5 -67.5t53 -38.5t68.5 -12zM390 646q-18 0 -28.5 11.5t-10.5 27.5t10.5 27.5t28.5 11.5q19 0 30 -11t11 -28t-11 -28t-30 -11zM179 646
q-18 0 -28.5 11.5t-10.5 27.5t10.5 27.5t28.5 11.5q19 0 30 -11t11 -28t-11 -28t-30 -11z" />
    <glyph glyph-name="agrave" unicode="&#xe0;" horiz-adv-x="552" 
d="M239 -7q-29 0 -61.5 7t-61 23.5t-46 45.5t-17.5 73t16 72.5t43.5 45.5t62.5 24t73 7h192q0 57 -15.5 104t-51 75t-95.5 28q-25 0 -53 -5.5t-52.5 -19.5t-39.5 -41h-47q13 35 37 55t52 30.5t55 13.5t46 3q108 0 157 -67t49 -180v-287h-42v81q-21 -28 -50.5 -48t-67 -30
t-83.5 -10zM237 29q49 0 95.5 16.5t77 51.5t30.5 90v69h-167q-29 0 -60 -3t-58 -13.5t-43.5 -32.5t-16.5 -60q0 -41 20.5 -67.5t53 -38.5t68.5 -12zM271 636l-88 127h50l76 -127h-38z" />
    <glyph glyph-name="amacron" unicode="&#x101;" horiz-adv-x="552" 
d="M239 -7q-29 0 -61.5 7t-61 23.5t-46 45.5t-17.5 73t16 72.5t43.5 45.5t62.5 24t73 7h192q0 57 -15.5 104t-51 75t-95.5 28q-25 0 -53 -5.5t-52.5 -19.5t-39.5 -41h-47q13 35 37 55t52 30.5t55 13.5t46 3q108 0 157 -67t49 -180v-287h-42v81q-21 -28 -50.5 -48t-67 -30
t-83.5 -10zM237 29q49 0 95.5 16.5t77 51.5t30.5 90v69h-167q-29 0 -60 -3t-58 -13.5t-43.5 -32.5t-16.5 -60q0 -41 20.5 -67.5t53 -38.5t68.5 -12zM136 662v35h299v-35h-299z" />
    <glyph glyph-name="aogonek" unicode="&#x105;" horiz-adv-x="552" 
d="M239 -7q-29 0 -61.5 7t-61 23.5t-46 45.5t-17.5 73t16 72.5t43.5 45.5t62.5 24t73 7h192q0 57 -15.5 104t-51 75t-95.5 28q-25 0 -53 -5.5t-52.5 -19.5t-39.5 -41h-47q13 35 37 55t52 30.5t55 13.5t46 3q108 0 157 -67t49 -180v-287h-42v81q-21 -28 -50.5 -48t-67 -30
t-83.5 -10zM237 29q49 0 95.5 16.5t77 51.5t30.5 90v69h-167q-29 0 -60 -3t-58 -13.5t-43.5 -32.5t-16.5 -60q0 -41 20.5 -67.5t53 -38.5t68.5 -12zM490 -201q-46 0 -78.5 23t-32.5 73q0 36 24 67t54 47l23 -8q-25 -18 -43.5 -43t-18.5 -55q0 -36 21 -53t56 -18q9 0 20.5 2
t19.5 5l8 -30q-12 -5 -25.5 -7.5t-27.5 -2.5z" />
    <glyph glyph-name="aring" unicode="&#xe5;" horiz-adv-x="552" 
d="M239 -7q-29 0 -61.5 7t-61 23.5t-46 45.5t-17.5 73t16 72.5t43.5 45.5t62.5 24t73 7h192q0 57 -15.5 104t-51 75t-95.5 28q-25 0 -53 -5.5t-52.5 -19.5t-39.5 -41h-47q13 35 37 55t52 30.5t55 13.5t46 3q108 0 157 -67t49 -180v-287h-42v81q-21 -28 -50.5 -48t-67 -30
t-83.5 -10zM237 29q49 0 95.5 16.5t77 51.5t30.5 90v69h-167q-29 0 -60 -3t-58 -13.5t-43.5 -32.5t-16.5 -60q0 -41 20.5 -67.5t53 -38.5t68.5 -12zM285 616q-38 0 -61 21.5t-23 58.5t23.5 61t61.5 24q39 0 62 -24t23 -61q0 -38 -24 -59t-62 -21zM285 642q26 0 40.5 14.5
t14.5 40.5q0 25 -14 41t-40 16t-40 -16t-14 -41q0 -26 14 -40.5t39 -14.5z" />
    <glyph glyph-name="atilde" unicode="&#xe3;" horiz-adv-x="552" 
d="M239 -7q-29 0 -61.5 7t-61 23.5t-46 45.5t-17.5 73t16 72.5t43.5 45.5t62.5 24t73 7h192q0 57 -15.5 104t-51 75t-95.5 28q-25 0 -53 -5.5t-52.5 -19.5t-39.5 -41h-47q13 35 37 55t52 30.5t55 13.5t46 3q108 0 157 -67t49 -180v-287h-42v81q-21 -28 -50.5 -48t-67 -30
t-83.5 -10zM237 29q49 0 95.5 16.5t77 51.5t30.5 90v69h-167q-29 0 -60 -3t-58 -13.5t-43.5 -32.5t-16.5 -60q0 -41 20.5 -67.5t53 -38.5t68.5 -12zM349 632q-24 0 -41 11.5t-31 26.5t-27.5 26.5t-30.5 11.5q-19 0 -29 -11.5t-12.5 -28t-1.5 -32.5h-37q0 29 7.5 52t26 36.5
t49.5 13.5q23 0 40 -11.5t31 -26.5t27.5 -26.5t30.5 -11.5q20 0 29.5 11t12 28t2.5 33h37q0 -29 -8 -52.5t-26 -36.5t-49 -13z" />
    <glyph glyph-name="ae" unicode="&#xe6;" horiz-adv-x="963" 
d="M247 -7q-46 0 -91 15.5t-74 48.5t-29 85q0 44 16 72t44 44t63 22.5t72 6.5h192q0 54 -15 102.5t-50 78.5t-97 30q-42 0 -82.5 -13.5t-62.5 -52.5h-45q15 39 44.5 61t67.5 31.5t76 9.5q68 0 119.5 -33.5t71.5 -99.5q30 65 87 99t129 34q76 0 124 -35t72.5 -92t28.5 -123
q1 -8 1 -16v-16h-429q0 -61 22.5 -112t69 -81t117.5 -30q30 0 60.5 7.5t56.5 24.5t41 45h47q-17 -40 -51.5 -65t-76 -36.5t-82.5 -11.5q-72 0 -129.5 30t-89.5 98q-21 -51 -55 -79t-75.5 -38.5t-87.5 -10.5zM250 29q52 0 95 19t69 57t26 96v51h-167q-29 0 -60 -2.5t-58 -12
t-43.5 -31t-16.5 -59.5q0 -42 23.5 -68t59 -38t72.5 -12zM481 287h386q-2 57 -23.5 105t-62 77t-102.5 29q-60 0 -103.5 -29.5t-67.5 -77.5t-27 -104z" />
    <glyph glyph-name="b" unicode="b" horiz-adv-x="609" 
d="M315 -7q-33 0 -71 8t-72.5 32t-58.5 72v-105h-40v707h42v-288q38 65 93.5 90t118.5 25q80 0 130.5 -38t74.5 -100t24 -134q0 -78 -28 -139t-81.5 -95.5t-131.5 -34.5zM316 29q69 0 112.5 32.5t64.5 85.5t21 115q0 64 -19.5 117.5t-63.5 86t-116 32.5q-66 0 -111 -34
t-68 -88t-23 -114q0 -64 22.5 -117t67.5 -84.5t113 -31.5z" />
    <glyph glyph-name="c" unicode="c" horiz-adv-x="551" 
d="M300 -7q-82 0 -137 35t-82.5 95.5t-27.5 138.5t28.5 139.5t84.5 97t138 35.5q45 0 83 -14t66.5 -42t43.5 -70h-46q-17 47 -59 68.5t-92 21.5q-69 0 -114.5 -31.5t-68 -85t-22.5 -119.5q0 -63 22 -116t68.5 -85t117.5 -32q53 0 95 21t62 68h46q-17 -42 -49 -70t-72 -41.5
t-85 -13.5z" />
    <glyph glyph-name="cacute" unicode="&#x107;" horiz-adv-x="551" 
d="M300 -7q-82 0 -137 35t-82.5 95.5t-27.5 138.5t28.5 139.5t84.5 97t138 35.5q45 0 83 -14t66.5 -42t43.5 -70h-46q-17 47 -59 68.5t-92 21.5q-69 0 -114.5 -31.5t-68 -85t-22.5 -119.5q0 -63 22 -116t68.5 -85t117.5 -32q53 0 95 21t62 68h46q-17 -42 -49 -70t-72 -41.5
t-85 -13.5zM258 616l76 127h50l-88 -127h-38z" />
    <glyph glyph-name="ccaron" unicode="&#x10d;" horiz-adv-x="551" 
d="M300 -7q-82 0 -137 35t-82.5 95.5t-27.5 138.5t28.5 139.5t84.5 97t138 35.5q45 0 83 -14t66.5 -42t43.5 -70h-46q-17 47 -59 68.5t-92 21.5q-69 0 -114.5 -31.5t-68 -85t-22.5 -119.5q0 -63 22 -116t68.5 -85t117.5 -32q53 0 95 21t62 68h46q-17 -42 -49 -70t-72 -41.5
t-85 -13.5zM260 616l-111 127h43l85 -97l82 97h44l-111 -127h-32z" />
    <glyph glyph-name="ccedilla" unicode="&#xe7;" horiz-adv-x="551" 
d="M300 -7q-82 0 -137 35t-82.5 95.5t-27.5 138.5t28.5 139.5t84.5 97t138 35.5q45 0 83 -14t66.5 -42t43.5 -70h-46q-17 47 -59 68.5t-92 21.5q-69 0 -114.5 -31.5t-68 -85t-22.5 -119.5q0 -63 22 -116t68.5 -85t117.5 -32q53 0 95 21t62 68h46q-17 -42 -49 -70t-72 -41.5
t-85 -13.5zM251 -249h-13t-13 1v27q15 -2 35 -0.5t39 8.5t31.5 22t12.5 40q0 17 -7 28t-20.5 17t-31.5 6q-12 0 -28.5 -3t-27.5 -6l40 127h26l-30 -96q11 2 18.5 2.5t16.5 0.5q32 0 53 -20t21 -58q0 -35 -18 -56t-46 -30.5t-58 -9.5z" />
    <glyph glyph-name="ccircumflex" unicode="&#x109;" horiz-adv-x="551" 
d="M300 -7q-82 0 -137 35t-82.5 95.5t-27.5 138.5t28.5 139.5t84.5 97t138 35.5q45 0 83 -14t66.5 -42t43.5 -70h-46q-17 47 -59 68.5t-92 21.5q-69 0 -114.5 -31.5t-68 -85t-22.5 -119.5q0 -63 22 -116t68.5 -85t117.5 -32q53 0 95 21t62 68h46q-17 -42 -49 -70t-72 -41.5
t-85 -13.5zM149 616l111 127h32l111 -127h-43l-85 98l-82 -98h-44z" />
    <glyph glyph-name="cdotaccent" unicode="&#x10b;" horiz-adv-x="551" 
d="M300 -7q-82 0 -137 35t-82.5 95.5t-27.5 138.5t28.5 139.5t84.5 97t138 35.5q45 0 83 -14t66.5 -42t43.5 -70h-46q-17 47 -59 68.5t-92 21.5q-69 0 -114.5 -31.5t-68 -85t-22.5 -119.5q0 -63 22 -116t68.5 -85t117.5 -32q53 0 95 21t62 68h46q-17 -42 -49 -70t-72 -41.5
t-85 -13.5zM275 626q-17 0 -28 10t-11 30q0 19 11.5 28.5t28.5 9.5t28 -10t11 -28q0 -19 -11.5 -29.5t-28.5 -10.5z" />
    <glyph glyph-name="d" unicode="d" horiz-adv-x="609" 
d="M284 -7q-84 0 -135 37.5t-73.5 98.5t-22.5 133q0 82 29 143t83 95t130 34q35 0 72 -10.5t71 -34t56 -63.5v281h42v-707h-42v113q-24 -45 -59 -71.5t-74.5 -37.5t-76.5 -11zM288 29q66 0 112.5 32.5t71 86.5t24.5 118t-22.5 116.5t-67.5 84t-113 31.5q-69 0 -113 -33
t-64.5 -86t-20.5 -114q0 -43 8.5 -85t30 -76t59 -54.5t95.5 -20.5z" />
    <glyph glyph-name="dcaron" unicode="&#x10f;" horiz-adv-x="609" 
d="M284 -7q-84 0 -135 37.5t-73.5 98.5t-22.5 133q0 82 29 143t83 95t130 34q35 0 72 -10.5t71 -34t56 -63.5v281h42v-707h-42v113q-24 -45 -59 -71.5t-74.5 -37.5t-76.5 -11zM288 29q66 0 112.5 32.5t71 86.5t24.5 118t-22.5 116.5t-67.5 84t-113 31.5q-69 0 -113 -33
t-64.5 -86t-20.5 -114q0 -43 8.5 -85t30 -76t59 -54.5t95.5 -20.5zM586 532l-15 20q12 7 23.5 18.5t20.5 27.5t11 36q-13 -4 -32 4t-19 35q0 17 11.5 28.5t30.5 11.5q20 0 32 -14.5t12 -40.5q0 -27 -9.5 -51t-26 -43t-39.5 -32z" />
    <glyph glyph-name="dcroat" unicode="&#x111;" horiz-adv-x="609" 
d="M284 -7q-84 0 -135 37.5t-73.5 98.5t-22.5 133q0 82 29 143t83 95t130 34q35 0 72 -10.5t71 -34t56 -63.5v145h-132v35h132v101h42v-101h83v-35h-83v-571h-42v113q-24 -45 -59 -71.5t-74.5 -37.5t-76.5 -11zM288 29q66 0 112.5 32.5t71 86.5t24.5 118t-22.5 116.5
t-67.5 84t-113 31.5q-69 0 -113 -33t-64.5 -86t-20.5 -114q0 -43 8.5 -85t30 -76t59 -54.5t95.5 -20.5z" />
    <glyph glyph-name="eth" unicode="&#xf0;" horiz-adv-x="548" 
d="M275 -7q-70 0 -119.5 30t-76 83t-26.5 121q0 63 25 115.5t72.5 83.5t112.5 31q68 0 119 -33t76 -97q-3 56 -17.5 107.5t-42.5 96t-75 78.5l-109 -75l-18 27l102 66q-36 23 -70.5 35t-75.5 21l5 30q42 -8 87 -24t82 -42l111 74l18 -27l-101 -64q54 -49 84 -102
t42.5 -113.5t12.5 -134.5q0 -60 -12.5 -112.5t-39 -91.5t-68 -61t-98.5 -22zM272 29q53 0 92 26t61 69t22 95q0 54 -21.5 100t-62 74t-99.5 28q-52 0 -90 -28t-58.5 -72t-20.5 -94q0 -51 20.5 -96.5t60 -73.5t96.5 -28z" />
    <glyph glyph-name="e" unicode="e" horiz-adv-x="578" 
d="M299 -7q-83 0 -138 35t-81.5 96t-26.5 139q0 75 27.5 136.5t82.5 98t135 36.5q56 0 97 -20t68.5 -55t42 -80.5t17.5 -96.5q1 -7 1 -14.5v-15.5h-429q3 -65 25 -115.5t67 -79t117 -28.5q29 0 60 7.5t57 24.5t41 45h47q-17 -40 -51 -65t-76 -36.5t-83 -11.5zM96 287h386
q-2 57 -23 105t-62 77t-103 29q-61 0 -104.5 -30t-67 -78t-26.5 -103z" />
    <glyph glyph-name="eacute" unicode="&#xe9;" horiz-adv-x="578" 
d="M299 -7q-83 0 -138 35t-81.5 96t-26.5 139q0 75 27.5 136.5t82.5 98t135 36.5q56 0 97 -20t68.5 -55t42 -80.5t17.5 -96.5q1 -7 1 -14.5v-15.5h-429q3 -65 25 -115.5t67 -79t117 -28.5q29 0 60 7.5t57 24.5t41 45h47q-17 -40 -51 -65t-76 -36.5t-83 -11.5zM96 287h386
q-2 57 -23 105t-62 77t-103 29q-61 0 -104.5 -30t-67 -78t-26.5 -103zM277 616l76 127h50l-88 -127h-38z" />
    <glyph glyph-name="ebreve" unicode="&#x115;" horiz-adv-x="578" 
d="M299 -7q-83 0 -138 35t-81.5 96t-26.5 139q0 75 27.5 136.5t82.5 98t135 36.5q56 0 97 -20t68.5 -55t42 -80.5t17.5 -96.5q1 -7 1 -14.5v-15.5h-429q3 -65 25 -115.5t67 -79t117 -28.5q29 0 60 7.5t57 24.5t41 45h47q-17 -40 -51 -65t-76 -36.5t-83 -11.5zM96 287h386
q-2 57 -23 105t-62 77t-103 29q-61 0 -104.5 -30t-67 -78t-26.5 -103zM294 616q-55 0 -96.5 20.5t-49.5 78.5h39q8 -41 38 -53.5t70 -12.5q39 0 69.5 12.5t38.5 53.5h39q-5 -38 -27 -60t-53.5 -30.5t-67.5 -8.5z" />
    <glyph glyph-name="ecaron" unicode="&#x11b;" horiz-adv-x="578" 
d="M299 -7q-83 0 -138 35t-81.5 96t-26.5 139q0 75 27.5 136.5t82.5 98t135 36.5q56 0 97 -20t68.5 -55t42 -80.5t17.5 -96.5q1 -7 1 -14.5v-15.5h-429q3 -65 25 -115.5t67 -79t117 -28.5q29 0 60 7.5t57 24.5t41 45h47q-17 -40 -51 -65t-76 -36.5t-83 -11.5zM96 287h386
q-2 57 -23 105t-62 77t-103 29q-61 0 -104.5 -30t-67 -78t-26.5 -103zM279 616l-111 127h43l85 -97l82 97h44l-111 -127h-32z" />
    <glyph glyph-name="ecircumflex" unicode="&#xea;" horiz-adv-x="578" 
d="M299 -7q-83 0 -138 35t-81.5 96t-26.5 139q0 75 27.5 136.5t82.5 98t135 36.5q56 0 97 -20t68.5 -55t42 -80.5t17.5 -96.5q1 -7 1 -14.5v-15.5h-429q3 -65 25 -115.5t67 -79t117 -28.5q29 0 60 7.5t57 24.5t41 45h47q-17 -40 -51 -65t-76 -36.5t-83 -11.5zM96 287h386
q-2 57 -23 105t-62 77t-103 29q-61 0 -104.5 -30t-67 -78t-26.5 -103zM168 616l111 127h32l111 -127h-43l-85 98l-82 -98h-44z" />
    <glyph glyph-name="edieresis" unicode="&#xeb;" horiz-adv-x="578" 
d="M299 -7q-83 0 -138 35t-81.5 96t-26.5 139q0 75 27.5 136.5t82.5 98t135 36.5q56 0 97 -20t68.5 -55t42 -80.5t17.5 -96.5q1 -7 1 -14.5v-15.5h-429q3 -65 25 -115.5t67 -79t117 -28.5q29 0 60 7.5t57 24.5t41 45h47q-17 -40 -51 -65t-76 -36.5t-83 -11.5zM96 287h386
q-2 57 -23 105t-62 77t-103 29q-61 0 -104.5 -30t-67 -78t-26.5 -103zM399 626q-18 0 -28.5 11.5t-10.5 27.5t10.5 27.5t28.5 11.5q19 0 30 -11t11 -28t-11 -28t-30 -11zM188 626q-18 0 -28.5 11.5t-10.5 27.5t10.5 27.5t28.5 11.5q19 0 30 -11t11 -28t-11 -28t-30 -11z" />
    <glyph glyph-name="edotaccent" unicode="&#x117;" horiz-adv-x="578" 
d="M299 -7q-83 0 -138 35t-81.5 96t-26.5 139q0 75 27.5 136.5t82.5 98t135 36.5q56 0 97 -20t68.5 -55t42 -80.5t17.5 -96.5q1 -7 1 -14.5v-15.5h-429q3 -65 25 -115.5t67 -79t117 -28.5q29 0 60 7.5t57 24.5t41 45h47q-17 -40 -51 -65t-76 -36.5t-83 -11.5zM96 287h386
q-2 57 -23 105t-62 77t-103 29q-61 0 -104.5 -30t-67 -78t-26.5 -103zM294 626q-17 0 -28 10t-11 30q0 19 11.5 28.5t28.5 9.5t28 -10t11 -28q0 -19 -11.5 -29.5t-28.5 -10.5z" />
    <glyph glyph-name="egrave" unicode="&#xe8;" horiz-adv-x="578" 
d="M299 -7q-83 0 -138 35t-81.5 96t-26.5 139q0 75 27.5 136.5t82.5 98t135 36.5q56 0 97 -20t68.5 -55t42 -80.5t17.5 -96.5q1 -7 1 -14.5v-15.5h-429q3 -65 25 -115.5t67 -79t117 -28.5q29 0 60 7.5t57 24.5t41 45h47q-17 -40 -51 -65t-76 -36.5t-83 -11.5zM96 287h386
q-2 57 -23 105t-62 77t-103 29q-61 0 -104.5 -30t-67 -78t-26.5 -103zM280 616l-88 127h50l76 -127h-38z" />
    <glyph glyph-name="emacron" unicode="&#x113;" horiz-adv-x="578" 
d="M299 -7q-83 0 -138 35t-81.5 96t-26.5 139q0 75 27.5 136.5t82.5 98t135 36.5q56 0 97 -20t68.5 -55t42 -80.5t17.5 -96.5q1 -7 1 -14.5v-15.5h-429q3 -65 25 -115.5t67 -79t117 -28.5q29 0 60 7.5t57 24.5t41 45h47q-17 -40 -51 -65t-76 -36.5t-83 -11.5zM96 287h386
q-2 57 -23 105t-62 77t-103 29q-61 0 -104.5 -30t-67 -78t-26.5 -103zM145 642v35h299v-35h-299z" />
    <glyph glyph-name="eogonek" unicode="&#x119;" horiz-adv-x="578" 
d="M299 -7q-83 0 -138 35t-81.5 96t-26.5 139q0 75 27.5 136.5t82.5 98t135 36.5q56 0 97 -20t68.5 -55t42 -80.5t17.5 -96.5q1 -7 1 -14.5v-15.5h-429q3 -65 25 -115.5t67 -79t117 -28.5q29 0 60 7.5t57 24.5t41 45h47q-17 -40 -51 -65t-76 -36.5t-83 -11.5zM96 287h386
q-2 57 -23 105t-62 77t-103 29q-61 0 -104.5 -30t-67 -78t-26.5 -103zM347 -201q-46 0 -78.5 23t-32.5 73q0 36 24 67t54 47l23 -8q-25 -18 -43.5 -43t-18.5 -55q0 -36 21 -53t56 -18q9 0 20.5 2t19.5 5l8 -30q-12 -5 -25.5 -7.5t-27.5 -2.5z" />
    <glyph glyph-name="f" unicode="f" horiz-adv-x="359" 
d="M131 0v492h-93v35h93v67q0 58 12 98t46 60.5t100 20.5h42v-35h-37q-55 0 -81 -17t-33 -50t-7 -82v-62h158v-35h-158v-492h-42z" />
    <glyph glyph-name="g" unicode="g" horiz-adv-x="609" 
d="M303 -257q-49 0 -91 12.5t-73 40t-47 71.5h47q13 -33 40.5 -52t61.5 -27.5t66 -8.5q76 0 116 29.5t55.5 81t15.5 117.5v102q-21 -43 -54.5 -68.5t-72.5 -36.5t-79 -11q-86 0 -137.5 37t-74.5 99t-23 136q0 80 28 140.5t82.5 94.5t131.5 34q55 0 110.5 -24.5t91.5 -89.5
v107h39v-521q0 -84 -23 -142.5t-74 -89.5t-136 -31zM294 29q66 0 111 33t68 87t23 116q0 64 -22 116.5t-67 84.5t-114 32t-113 -33t-64.5 -86t-20.5 -114q0 -64 19.5 -118t63.5 -86t116 -32z" />
    <glyph glyph-name="gbreve" unicode="&#x11f;" horiz-adv-x="609" 
d="M303 -257q-49 0 -91 12.5t-73 40t-47 71.5h47q13 -33 40.5 -52t61.5 -27.5t66 -8.5q76 0 116 29.5t55.5 81t15.5 117.5v102q-21 -43 -54.5 -68.5t-72.5 -36.5t-79 -11q-86 0 -137.5 37t-74.5 99t-23 136q0 80 28 140.5t82.5 94.5t131.5 34q55 0 110.5 -24.5t91.5 -89.5
v107h39v-521q0 -84 -23 -142.5t-74 -89.5t-136 -31zM294 29q66 0 111 33t68 87t23 116q0 64 -22 116.5t-67 84.5t-114 32t-113 -33t-64.5 -86t-20.5 -114q0 -64 19.5 -118t63.5 -86t116 -32zM304 616q-55 0 -96.5 20.5t-49.5 78.5h39q8 -41 38 -53.5t70 -12.5
q39 0 69.5 12.5t38.5 53.5h39q-5 -38 -27 -60t-53.5 -30.5t-67.5 -8.5z" />
    <glyph glyph-name="gcircumflex" unicode="&#x11d;" horiz-adv-x="609" 
d="M303 -257q-49 0 -91 12.5t-73 40t-47 71.5h47q13 -33 40.5 -52t61.5 -27.5t66 -8.5q76 0 116 29.5t55.5 81t15.5 117.5v102q-21 -43 -54.5 -68.5t-72.5 -36.5t-79 -11q-86 0 -137.5 37t-74.5 99t-23 136q0 80 28 140.5t82.5 94.5t131.5 34q55 0 110.5 -24.5t91.5 -89.5
v107h39v-521q0 -84 -23 -142.5t-74 -89.5t-136 -31zM294 29q66 0 111 33t68 87t23 116q0 64 -22 116.5t-67 84.5t-114 32t-113 -33t-64.5 -86t-20.5 -114q0 -64 19.5 -118t63.5 -86t116 -32zM178 616l111 127h32l111 -127h-43l-85 98l-82 -98h-44z" />
    <glyph glyph-name="uni0123" unicode="&#x123;" horiz-adv-x="609" 
d="M303 -257q-49 0 -91 12.5t-73 40t-47 71.5h47q13 -33 40.5 -52t61.5 -27.5t66 -8.5q76 0 116 29.5t55.5 81t15.5 117.5v102q-21 -43 -54.5 -68.5t-72.5 -36.5t-79 -11q-86 0 -137.5 37t-74.5 99t-23 136q0 80 28 140.5t82.5 94.5t131.5 34q55 0 110.5 -24.5t91.5 -89.5
v107h39v-521q0 -84 -23 -142.5t-74 -89.5t-136 -31zM294 29q66 0 111 33t68 87t23 116q0 64 -22 116.5t-67 84.5t-114 32t-113 -33t-64.5 -86t-20.5 -114q0 -64 19.5 -118t63.5 -86t116 -32zM305 626q-24 0 -34.5 17.5t-10.5 38.5q0 27 9 50t26 42.5t40 32.5l15 -20
q-16 -8 -27.5 -20.5t-18.5 -28t-9 -33.5q20 4 35.5 -6t15.5 -33q0 -19 -11.5 -29.5t-29.5 -10.5z" />
    <glyph glyph-name="gdotaccent" unicode="&#x121;" horiz-adv-x="609" 
d="M303 -257q-49 0 -91 12.5t-73 40t-47 71.5h47q13 -33 40.5 -52t61.5 -27.5t66 -8.5q76 0 116 29.5t55.5 81t15.5 117.5v102q-21 -43 -54.5 -68.5t-72.5 -36.5t-79 -11q-86 0 -137.5 37t-74.5 99t-23 136q0 80 28 140.5t82.5 94.5t131.5 34q55 0 110.5 -24.5t91.5 -89.5
v107h39v-521q0 -84 -23 -142.5t-74 -89.5t-136 -31zM294 29q66 0 111 33t68 87t23 116q0 64 -22 116.5t-67 84.5t-114 32t-113 -33t-64.5 -86t-20.5 -114q0 -64 19.5 -118t63.5 -86t116 -32zM304 626q-17 0 -28 10t-11 30q0 19 11.5 28.5t28.5 9.5t28 -10t11 -28
q0 -19 -11.5 -29.5t-28.5 -10.5z" />
    <glyph glyph-name="h" unicode="h" horiz-adv-x="590" 
d="M73 0v707h42v-284q24 40 55 64t68 35.5t78 11.5q76 0 120.5 -33t64 -87.5t19.5 -121.5v-292h-42v267q0 44 -6 85t-23 74t-49.5 52.5t-84.5 19.5q-50 0 -87.5 -18.5t-62.5 -50.5t-37.5 -73.5t-12.5 -87.5v-268h-42z" />
    <glyph glyph-name="hbar" unicode="&#x127;" horiz-adv-x="590" 
d="M73 0v581h-65v35h65v91h42v-91h134v-35h-134v-158q34 57 84.5 84t116.5 27q75 0 119.5 -32t64.5 -87t20 -123v-292h-42v267q0 43 -6 84t-23 74.5t-49.5 53t-84.5 19.5q-50 0 -87.5 -18.5t-62.5 -50.5t-37.5 -73t-12.5 -86v-270h-42z" />
    <glyph glyph-name="hcircumflex" unicode="&#x125;" horiz-adv-x="590" 
d="M73 0v707h42v-284q24 40 55 64t68 35.5t78 11.5q76 0 120.5 -33t64 -87.5t19.5 -121.5v-292h-42v267q0 44 -6 85t-23 74t-49.5 52.5t-84.5 19.5q-50 0 -87.5 -18.5t-62.5 -50.5t-37.5 -73.5t-12.5 -87.5v-268h-42zM157 756l111 127h32l111 -127h-43l-85 98l-82 -98h-44z
" />
    <glyph glyph-name="i" unicode="i" horiz-adv-x="188" 
d="M73 0v527h42v-527h-42zM93 626q-17 0 -28 10t-11 30q0 19 11.5 28.5t28.5 9.5t28 -10t11 -28q0 -19 -11.5 -29.5t-28.5 -10.5z" />
    <glyph glyph-name="dotlessi" unicode="&#x131;" horiz-adv-x="188" 
d="M73 0v527h42v-527h-42z" />
    <glyph glyph-name="iacute" unicode="&#xed;" horiz-adv-x="188" 
d="M73 0v527h42v-527h-42zM76 616l76 127h50l-88 -127h-38z" />
    <glyph glyph-name="ibreve" unicode="&#x12d;" horiz-adv-x="188" 
d="M73 0v527h42v-527h-42zM93 616q-55 0 -96.5 20.5t-49.5 78.5h39q8 -41 38 -53.5t70 -12.5q39 0 69.5 12.5t38.5 53.5h39q-5 -38 -27 -60t-53.5 -30.5t-67.5 -8.5z" />
    <glyph glyph-name="icircumflex" unicode="&#xee;" horiz-adv-x="188" 
d="M73 0v527h42v-527h-42zM-33 616l111 127h32l111 -127h-43l-85 98l-82 -98h-44z" />
    <glyph glyph-name="idieresis" unicode="&#xef;" horiz-adv-x="188" 
d="M73 0v527h42v-527h-42zM18 626q-19 0 -29.5 11.5t-10.5 27.5t10.5 27.5t29.5 11.5q18 0 29 -11t11 -28t-11 -28t-29 -11zM168 626q-18 0 -28.5 11.5t-10.5 27.5t10.5 27.5t29.5 11.5q18 0 29 -11t11 -28t-11 -28t-30 -11z" />
    <glyph glyph-name="i.loclTRK" horiz-adv-x="188" 
d="M73 0v527h42v-527h-42zM93 626q-17 0 -28 10t-11 30q0 19 11.5 28.5t28.5 9.5t28 -10t11 -28q0 -19 -11.5 -29.5t-28.5 -10.5z" />
    <glyph glyph-name="igrave" unicode="&#xec;" horiz-adv-x="188" 
d="M73 0v527h42v-527h-42zM79 616l-88 127h50l76 -127h-38z" />
    <glyph glyph-name="imacron" unicode="&#x12b;" horiz-adv-x="188" 
d="M73 0v527h42v-527h-42zM-56 642v35h299v-35h-299z" />
    <glyph glyph-name="iogonek" unicode="&#x12f;" horiz-adv-x="188" 
d="M73 0v527h42v-527h-42zM93 626q-17 0 -28 10t-11 30q0 19 11.5 28.5t28.5 9.5t28 -10t11 -28q0 -19 -11.5 -29.5t-28.5 -10.5zM124 -201q-46 0 -78.5 23t-32.5 73q0 36 24 67t54 47l23 -8q-25 -18 -43.5 -43t-18.5 -55q0 -36 21 -53t56 -18q9 0 20.5 2t19.5 5l8 -30
q-12 -5 -25.5 -7.5t-27.5 -2.5z" />
    <glyph glyph-name="itilde" unicode="&#x129;" horiz-adv-x="188" 
d="M73 0v527h42v-527h-42zM157 612q-24 0 -41 11.5t-31 26.5t-27.5 26.5t-30.5 11.5q-19 0 -29 -11.5t-12.5 -28t-1.5 -32.5h-37q0 29 7.5 52t26 36.5t49.5 13.5q23 0 40 -11.5t31 -26.5t27.5 -26.5t30.5 -11.5q20 0 29.5 11t12 28t2.5 33h37q0 -29 -8 -52.5t-26 -36.5
t-49 -13z" />
    <glyph glyph-name="ij" unicode="&#x133;" horiz-adv-x="414" 
d="M152 -196v35h18q54 0 78.5 20t31 54.5t6.5 78.5v535h42v-539q0 -56 -11 -97.5t-44.5 -64t-101.5 -22.5h-19zM83 0v527h42v-527h-42zM105 648q-17 0 -28.5 10.5t-11.5 28.5q0 13 5 21.5t14.5 13t20.5 4.5q18 0 29 -11t11 -28q0 -18 -11 -28.5t-29 -10.5zM308 648
q-17 0 -28 10.5t-11 28.5q0 13 5 21.5t14.5 13t20.5 4.5q19 0 29.5 -11t10.5 -28q0 -18 -11 -28.5t-30 -10.5z" />
    <glyph glyph-name="j" unicode="j" horiz-adv-x="240" 
d="M-18 -196v35h18q54 0 78.5 20t31 54.5t6.5 78.5v535h42v-539q0 -56 -11 -97.5t-44.5 -64t-101.5 -22.5h-19zM136 626q-17 0 -28 10t-11 30q0 19 11.5 28.5t28.5 9.5t28 -10t11 -28q0 -19 -11.5 -29.5t-28.5 -10.5z" />
    <glyph glyph-name="uni0237" unicode="&#x237;" horiz-adv-x="240" 
d="M-18 -196v35h18q54 0 78.5 20t31 54.5t6.5 78.5v535h42v-539q0 -56 -11 -97.5t-44.5 -64t-101.5 -22.5h-19z" />
    <glyph glyph-name="jcircumflex" unicode="&#x135;" horiz-adv-x="240" 
d="M-18 -196v35h18q54 0 78.5 20t31 54.5t6.5 78.5v535h42v-539q0 -56 -11 -97.5t-44.5 -64t-101.5 -22.5h-19zM10 616l111 127h32l111 -127h-43l-85 98l-82 -98h-44z" />
    <glyph glyph-name="k" unicode="k" horiz-adv-x="499" 
d="M73 0v707h42v-426h137l169 246h47l-176 -254l194 -273h-48l-178 246h-145v-246h-42z" />
    <glyph glyph-name="uni0137" unicode="&#x137;" horiz-adv-x="499" 
d="M73 0v707h42v-426h137l169 246h47l-176 -254l194 -273h-48l-178 246h-145v-246h-42zM220 -300l-15 20q12 7 23.5 18.5t20.5 27.5t11 36q-13 -4 -32 4t-19 35q0 17 11.5 28.5t29.5 11.5q22 0 33.5 -16t11.5 -37q0 -28 -9.5 -52.5t-26 -43.5t-39.5 -32z" />
    <glyph glyph-name="kgreenlandic" unicode="&#x138;" horiz-adv-x="499" 
d="M73 0v527h42v-246h137l169 246h47l-176 -254l194 -273h-48l-178 246h-145v-246h-42z" />
    <glyph glyph-name="l" unicode="l" horiz-adv-x="192" 
d="M75 0v707h42v-707h-42z" />
    <glyph glyph-name="lacute" unicode="&#x13a;" horiz-adv-x="192" 
d="M75 0v707h42v-707h-42zM78 796l76 127h50l-88 -127h-38z" />
    <glyph glyph-name="lcaron" unicode="&#x13e;" horiz-adv-x="192" 
d="M75 0v707h42v-707h-42zM176 531l-15 20q12 7 23.5 18.5t20.5 27.5t11 36q-13 -4 -32 4t-19 35q0 17 11.5 28.5t30.5 11.5q20 0 32 -14.5t12 -40.5q0 -27 -9.5 -51t-26 -43t-39.5 -32z" />
    <glyph glyph-name="uni013C" unicode="&#x13c;" horiz-adv-x="192" 
d="M75 0v707h42v-707h-42zM66 -300l-15 20q12 7 23.5 18.5t20.5 27.5t11 36q-13 -4 -32 4t-19 35q0 17 11.5 28.5t29.5 11.5q22 0 33.5 -16t11.5 -37q0 -28 -9.5 -52.5t-26 -43.5t-39.5 -32z" />
    <glyph glyph-name="ldot" unicode="&#x140;" horiz-adv-x="207" 
d="M75 0v707h42v-707h-42zM198 315q-18 0 -29 10t-11 29q0 17 10.5 27.5t29.5 10.5t29 -10.5t10 -27.5q0 -18 -10 -28.5t-29 -10.5z" />
    <glyph glyph-name="lslash" unicode="&#x142;" horiz-adv-x="265" 
d="M110 0v317l-89 -60l-21 32l110 73v345h42v-317l92 61l21 -31l-113 -75v-345h-42z" />
    <glyph glyph-name="m" unicode="m" horiz-adv-x="839" 
d="M73 0v527h39v-99q20 46 49.5 68.5t60.5 30t55 7.5q59 0 100 -34t55 -99q6 30 26 60.5t56 51.5t87 21q59 0 96 -23.5t54.5 -65t17.5 -95.5v-350h-42v322q0 35 -4 66.5t-17 56t-38.5 39t-67.5 14.5t-71 -19t-47 -50t-26 -68.5t-8 -74.5v-286h-42v299q0 33 -5 67.5
t-18.5 64.5t-40 48.5t-68.5 18.5q-58 0 -93 -31.5t-50.5 -82t-15.5 -109.5v-275h-42z" />
    <glyph glyph-name="n" unicode="n" horiz-adv-x="590" 
d="M73 0v527h42v-104q24 40 55 64t68 35.5t78 11.5q76 0 120.5 -33t64 -87.5t19.5 -121.5v-292h-42v267q0 44 -6 85t-23 74t-49.5 52.5t-84.5 19.5q-66 0 -110.5 -32t-67 -84.5t-22.5 -113.5v-268h-42z" />
    <glyph glyph-name="nacute" unicode="&#x144;" horiz-adv-x="590" 
d="M73 0v527h42v-104q24 40 55 64t68 35.5t78 11.5q76 0 120.5 -33t64 -87.5t19.5 -121.5v-292h-42v267q0 44 -6 85t-23 74t-49.5 52.5t-84.5 19.5q-66 0 -110.5 -32t-67 -84.5t-22.5 -113.5v-268h-42zM277 616l76 127h50l-88 -127h-38z" />
    <glyph glyph-name="napostrophe" unicode="&#x149;" horiz-adv-x="592" 
d="M-15 531l-15 20q12 7 23.5 18.5t20.5 27.5t11 36q-13 -4 -32 4t-19 35q0 17 11.5 28.5t30.5 11.5q20 0 32 -14.5t12 -40.5q0 -27 -9.5 -51t-26 -43t-39.5 -32zM75 0v527h42v-104q24 40 55 64t68 35.5t78 11.5q76 0 120.5 -33t64 -87.5t19.5 -121.5v-292h-42v267
q0 44 -6 85t-23 74t-49.5 52.5t-84.5 19.5q-66 0 -110.5 -32t-67 -84.5t-22.5 -113.5v-268h-42z" />
    <glyph glyph-name="ncaron" unicode="&#x148;" horiz-adv-x="590" 
d="M73 0v527h42v-104q24 40 55 64t68 35.5t78 11.5q76 0 120.5 -33t64 -87.5t19.5 -121.5v-292h-42v267q0 44 -6 85t-23 74t-49.5 52.5t-84.5 19.5q-66 0 -110.5 -32t-67 -84.5t-22.5 -113.5v-268h-42zM279 616l-111 127h43l85 -97l82 97h44l-111 -127h-32z" />
    <glyph glyph-name="uni0146" unicode="&#x146;" horiz-adv-x="590" 
d="M73 0v527h42v-104q24 40 55 64t68 35.5t78 11.5q76 0 120.5 -33t64 -87.5t19.5 -121.5v-292h-42v267q0 44 -6 85t-23 74t-49.5 52.5t-84.5 19.5q-66 0 -110.5 -32t-67 -84.5t-22.5 -113.5v-268h-42zM265 -300l-15 20q12 7 23.5 18.5t20.5 27.5t11 36q-13 -4 -32 4t-19 35
q0 17 11.5 28.5t29.5 11.5q22 0 33.5 -16t11.5 -37q0 -28 -9.5 -52.5t-26 -43.5t-39.5 -32z" />
    <glyph glyph-name="ntilde" unicode="&#xf1;" horiz-adv-x="590" 
d="M73 0v527h42v-104q24 40 55 64t68 35.5t78 11.5q76 0 120.5 -33t64 -87.5t19.5 -121.5v-292h-42v267q0 44 -6 85t-23 74t-49.5 52.5t-84.5 19.5q-66 0 -110.5 -32t-67 -84.5t-22.5 -113.5v-268h-42zM358 612q-24 0 -41 11.5t-31 26.5t-27.5 26.5t-30.5 11.5
q-19 0 -29 -11.5t-12.5 -28t-1.5 -32.5h-37q0 29 7.5 52t26 36.5t49.5 13.5q23 0 40 -11.5t31 -26.5t27.5 -26.5t30.5 -11.5q20 0 29.5 11t12 28t2.5 33h37q0 -29 -8 -52.5t-26 -36.5t-49 -13z" />
    <glyph glyph-name="eng" unicode="&#x14b;" horiz-adv-x="590" 
d="M336 -196v35h26q54 0 78.5 19.5t31 54.5t6.5 79v274q0 43 -6 84.5t-23 74.5t-49.5 53t-84.5 20q-66 0 -110.5 -32t-67 -84.5t-22.5 -113.5v-268h-42v527h42v-104q32 57 83.5 84t117.5 27q75 0 119.5 -32.5t64.5 -87.5t20 -123v-303q0 -59 -12 -100t-45.5 -62.5
t-99.5 -21.5h-27z" />
    <glyph glyph-name="o" unicode="o" horiz-adv-x="605" 
d="M302 -7q-82 0 -137.5 35t-83.5 96t-28 139q0 79 28 140t83.5 96t137.5 35t137.5 -35t84 -96t28.5 -140q0 -78 -28.5 -139t-84 -96t-137.5 -35zM302 29q72 0 118 31t68 84t22 119q0 65 -22 118.5t-68 85t-118 31.5t-118 -31.5t-67.5 -85t-21.5 -118.5q0 -66 21.5 -119
t67.5 -84t118 -31z" />
    <glyph glyph-name="oacute" unicode="&#xf3;" horiz-adv-x="605" 
d="M302 -7q-82 0 -137.5 35t-83.5 96t-28 139q0 79 28 140t83.5 96t137.5 35t137.5 -35t84 -96t28.5 -140q0 -78 -28.5 -139t-84 -96t-137.5 -35zM302 29q72 0 118 31t68 84t22 119q0 65 -22 118.5t-68 85t-118 31.5t-118 -31.5t-67.5 -85t-21.5 -118.5q0 -66 21.5 -119
t67.5 -84t118 -31zM285 616l76 127h50l-88 -127h-38z" />
    <glyph glyph-name="obreve" unicode="&#x14f;" horiz-adv-x="605" 
d="M302 -7q-82 0 -137.5 35t-83.5 96t-28 139q0 79 28 140t83.5 96t137.5 35t137.5 -35t84 -96t28.5 -140q0 -78 -28.5 -139t-84 -96t-137.5 -35zM302 29q72 0 118 31t68 84t22 119q0 65 -22 118.5t-68 85t-118 31.5t-118 -31.5t-67.5 -85t-21.5 -118.5q0 -66 21.5 -119
t67.5 -84t118 -31zM302 616q-55 0 -96.5 20.5t-49.5 78.5h39q8 -41 38 -53.5t70 -12.5q39 0 69.5 12.5t38.5 53.5h39q-5 -38 -27 -60t-53.5 -30.5t-67.5 -8.5z" />
    <glyph glyph-name="ocircumflex" unicode="&#xf4;" horiz-adv-x="605" 
d="M302 -7q-82 0 -137.5 35t-83.5 96t-28 139q0 79 28 140t83.5 96t137.5 35t137.5 -35t84 -96t28.5 -140q0 -78 -28.5 -139t-84 -96t-137.5 -35zM302 29q72 0 118 31t68 84t22 119q0 65 -22 118.5t-68 85t-118 31.5t-118 -31.5t-67.5 -85t-21.5 -118.5q0 -66 21.5 -119
t67.5 -84t118 -31zM176 616l111 127h32l111 -127h-43l-85 98l-82 -98h-44z" />
    <glyph glyph-name="odieresis" unicode="&#xf6;" horiz-adv-x="605" 
d="M302 -7q-82 0 -137.5 35t-83.5 96t-28 139q0 79 28 140t83.5 96t137.5 35t137.5 -35t84 -96t28.5 -140q0 -78 -28.5 -139t-84 -96t-137.5 -35zM302 29q72 0 118 31t68 84t22 119q0 65 -22 118.5t-68 85t-118 31.5t-118 -31.5t-67.5 -85t-21.5 -118.5q0 -66 21.5 -119
t67.5 -84t118 -31zM407 626q-18 0 -28.5 11.5t-10.5 27.5t10.5 27.5t28.5 11.5q19 0 30 -11t11 -28t-11 -28t-30 -11zM196 626q-18 0 -28.5 11.5t-10.5 27.5t10.5 27.5t28.5 11.5q19 0 30 -11t11 -28t-11 -28t-30 -11z" />
    <glyph glyph-name="ograve" unicode="&#xf2;" horiz-adv-x="605" 
d="M302 -7q-82 0 -137.5 35t-83.5 96t-28 139q0 79 28 140t83.5 96t137.5 35t137.5 -35t84 -96t28.5 -140q0 -78 -28.5 -139t-84 -96t-137.5 -35zM302 29q72 0 118 31t68 84t22 119q0 65 -22 118.5t-68 85t-118 31.5t-118 -31.5t-67.5 -85t-21.5 -118.5q0 -66 21.5 -119
t67.5 -84t118 -31zM288 616l-88 127h50l76 -127h-38z" />
    <glyph glyph-name="ohungarumlaut" unicode="&#x151;" horiz-adv-x="605" 
d="M302 -7q-82 0 -137.5 35t-83.5 96t-28 139q0 79 28 140t83.5 96t137.5 35t137.5 -35t84 -96t28.5 -140q0 -78 -28.5 -139t-84 -96t-137.5 -35zM302 29q72 0 118 31t68 84t22 119q0 65 -22 118.5t-68 85t-118 31.5t-118 -31.5t-67.5 -85t-21.5 -118.5q0 -66 21.5 -119
t67.5 -84t118 -31zM331 616l76 127h50l-88 -127h-38zM211 616l76 127h50l-88 -127h-38z" />
    <glyph glyph-name="omacron" unicode="&#x14d;" horiz-adv-x="605" 
d="M302 -7q-82 0 -137.5 35t-83.5 96t-28 139q0 79 28 140t83.5 96t137.5 35t137.5 -35t84 -96t28.5 -140q0 -78 -28.5 -139t-84 -96t-137.5 -35zM302 29q72 0 118 31t68 84t22 119q0 65 -22 118.5t-68 85t-118 31.5t-118 -31.5t-67.5 -85t-21.5 -118.5q0 -66 21.5 -119
t67.5 -84t118 -31zM153 642v35h299v-35h-299z" />
    <glyph glyph-name="oslash" unicode="&#xf8;" horiz-adv-x="605" 
d="M122 -110l54 131q-68 36 -95.5 102.5t-27.5 139.5q0 79 27.5 140t83 96t138.5 35q23 0 44 -3t40 -9l48 114h49l-55 -131q46 -24 73 -62.5t39 -84.5t12 -95q0 -78 -28.5 -139t-84 -96t-137.5 -35q-22 0 -43 3t-41 8l-47 -114h-49zM191 56l181 432q-29 10 -70 10
q-70 0 -116 -31t-68.5 -84.5t-22.5 -119.5q0 -60 20.5 -117.5t75.5 -89.5zM302 29q71 0 117 31t68.5 84t22.5 119q0 60 -21.5 117t-75.5 89l-181 -431q16 -4 33.5 -6.5t36.5 -2.5z" />
    <glyph glyph-name="otilde" unicode="&#xf5;" horiz-adv-x="605" 
d="M302 -7q-82 0 -137.5 35t-83.5 96t-28 139q0 79 28 140t83.5 96t137.5 35t137.5 -35t84 -96t28.5 -140q0 -78 -28.5 -139t-84 -96t-137.5 -35zM302 29q72 0 118 31t68 84t22 119q0 65 -22 118.5t-68 85t-118 31.5t-118 -31.5t-67.5 -85t-21.5 -118.5q0 -66 21.5 -119
t67.5 -84t118 -31zM366 612q-24 0 -41 11.5t-31 26.5t-27.5 26.5t-30.5 11.5q-19 0 -29 -11.5t-12.5 -28t-1.5 -32.5h-37q0 29 7.5 52t26 36.5t49.5 13.5q23 0 40 -11.5t31 -26.5t27.5 -26.5t30.5 -11.5q20 0 29.5 11t12 28t2.5 33h37q0 -29 -8 -52.5t-26 -36.5t-49 -13z
" />
    <glyph glyph-name="oe" unicode="&#x153;" horiz-adv-x="1030" 
d="M302 -7q-82 0 -137.5 35t-83.5 96t-28 139q0 79 27.5 140t83 96t138.5 35q77 0 137.5 -35t90.5 -108q29 69 87 106t133 37q74 0 121.5 -33.5t72.5 -88t30 -118.5q1 -10 1.5 -20.5t0.5 -21.5h-429q4 -100 53.5 -161.5t155.5 -61.5q44 0 90 17t68 60h47q-17 -40 -51.5 -65
t-76 -36.5t-82.5 -11.5q-51 0 -94.5 14.5t-76 45.5t-52.5 79q-31 -72 -90.5 -105.5t-135.5 -33.5zM302 29q71 0 117 31t68.5 84t22.5 119t-22.5 119t-68.5 84.5t-117 31.5q-70 0 -116 -31t-68.5 -84.5t-22.5 -119.5t21.5 -119t67.5 -84t118 -31zM548 287h386
q-2 57 -23.5 105t-62 77t-102.5 29q-59 0 -103 -29.5t-68 -77.5t-27 -104z" />
    <glyph glyph-name="p" unicode="p" horiz-adv-x="609" 
d="M73 -206v733h42v-104q39 59 89.5 85t118.5 26q80 0 131.5 -37.5t76.5 -100t25 -137.5q0 -80 -26.5 -140t-79 -93t-130.5 -33q-32 0 -70 8t-73.5 30.5t-61.5 66.5v-304h-42zM323 29q70 0 111.5 32.5t60.5 85.5t19 115q0 64 -19.5 117.5t-63.5 86t-116 32.5q-66 0 -111 -34
t-68 -88t-23 -114q0 -66 23.5 -118.5t70.5 -83.5t116 -31z" />
    <glyph glyph-name="thorn" unicode="&#xfe;" horiz-adv-x="609" 
d="M73 -206v913h42v-285q38 58 88.5 85t119.5 27q80 0 131.5 -38t76.5 -100.5t25 -136.5q0 -76 -25 -136t-77 -95t-134 -35q-64 0 -118 23.5t-87 81.5v-304h-42zM323 29q69 0 111 32.5t61 85.5t19 115q0 65 -20 118.5t-64 85.5t-115 32q-66 0 -111 -34t-68 -88t-23 -114
q0 -65 23.5 -118t70.5 -84t116 -31z" />
    <glyph glyph-name="q" unicode="q" horiz-adv-x="609" 
d="M494 -206v313q-30 -54 -81 -84t-125 -30q-70 0 -116 25t-72 65.5t-36.5 88t-10.5 92.5q0 72 28 133.5t82 99t130 37.5q72 0 120 -29t80 -76l1 98h42v-733h-42zM296 29q67 0 111 34t66.5 88t22.5 114q0 64 -22 117t-66.5 84.5t-112.5 31.5q-69 0 -113 -33t-65.5 -86.5
t-21.5 -113.5q0 -64 20 -118t64.5 -86t116.5 -32z" />
    <glyph glyph-name="r" unicode="r" horiz-adv-x="357" 
d="M73 0v527h40v-118q22 51 57 77t76 35t78 9h5h5v-36h-7q-74 0 -121 -31t-69 -85.5t-22 -124.5v-253h-42z" />
    <glyph glyph-name="racute" unicode="&#x155;" horiz-adv-x="357" 
d="M73 0v527h40v-118q22 51 57 77t76 35t78 9h5h5v-36h-7q-74 0 -121 -31t-69 -85.5t-22 -124.5v-253h-42zM178 616l76 127h50l-88 -127h-38z" />
    <glyph glyph-name="rcaron" unicode="&#x159;" horiz-adv-x="357" 
d="M73 0v527h40v-118q22 51 57 77t76 35t78 9h5h5v-36h-7q-74 0 -121 -31t-69 -85.5t-22 -124.5v-253h-42zM180 616l-111 127h43l85 -97l82 97h44l-111 -127h-32z" />
    <glyph glyph-name="uni0157" unicode="&#x157;" horiz-adv-x="357" 
d="M73 0v527h40v-118q22 51 57 77t76 35t78 9h5h5v-36h-7q-74 0 -121 -31t-69 -85.5t-22 -124.5v-253h-42zM66 -300l-15 20q12 7 23.5 18.5t20.5 27.5t11 36q-13 -4 -32 4t-19 35q0 17 11.5 28.5t29.5 11.5q22 0 33.5 -16t11.5 -37q0 -28 -9.5 -52.5t-26 -43.5t-39.5 -32z
" />
    <glyph glyph-name="s" unicode="s" horiz-adv-x="504" 
d="M256 -7q-32 0 -65 6.5t-63 20.5t-52.5 36t-32.5 53h47q16 -31 44 -48.5t60.5 -24.5t62.5 -7q26 0 54 4.5t52.5 16t39.5 32t15 52.5q0 33 -16.5 52t-41.5 29.5t-49 15.5q-14 3 -30 6t-33 6q-30 5 -63 13.5t-62 24.5t-47 43t-18 69q0 41 16.5 68t44 43t62 23t70.5 7
q39 0 77.5 -11t67.5 -35t41 -63h-42q-18 39 -61 56t-84 17q-21 0 -47 -3t-49.5 -13.5t-39 -31.5t-15.5 -56q0 -34 17 -55t43 -32.5t53 -18.5q31 -7 64.5 -12.5t65.5 -13.5q35 -9 61 -24t41 -39t15 -60q0 -43 -18 -71t-47.5 -44.5t-65.5 -23.5t-72 -7z" />
    <glyph glyph-name="sacute" unicode="&#x15b;" horiz-adv-x="504" 
d="M256 -7q-32 0 -65 6.5t-63 20.5t-52.5 36t-32.5 53h47q16 -31 44 -48.5t60.5 -24.5t62.5 -7q26 0 54 4.5t52.5 16t39.5 32t15 52.5q0 33 -16.5 52t-41.5 29.5t-49 15.5q-14 3 -30 6t-33 6q-30 5 -63 13.5t-62 24.5t-47 43t-18 69q0 41 16.5 68t44 43t62 23t70.5 7
q39 0 77.5 -11t67.5 -35t41 -63h-42q-18 39 -61 56t-84 17q-21 0 -47 -3t-49.5 -13.5t-39 -31.5t-15.5 -56q0 -34 17 -55t43 -32.5t53 -18.5q31 -7 64.5 -12.5t65.5 -13.5q35 -9 61 -24t41 -39t15 -60q0 -43 -18 -71t-47.5 -44.5t-65.5 -23.5t-72 -7zM234 616l76 127h50
l-88 -127h-38z" />
    <glyph glyph-name="scaron" unicode="&#x161;" horiz-adv-x="504" 
d="M256 -7q-32 0 -65 6.5t-63 20.5t-52.5 36t-32.5 53h47q16 -31 44 -48.5t60.5 -24.5t62.5 -7q26 0 54 4.5t52.5 16t39.5 32t15 52.5q0 33 -16.5 52t-41.5 29.5t-49 15.5q-14 3 -30 6t-33 6q-30 5 -63 13.5t-62 24.5t-47 43t-18 69q0 41 16.5 68t44 43t62 23t70.5 7
q39 0 77.5 -11t67.5 -35t41 -63h-42q-18 39 -61 56t-84 17q-21 0 -47 -3t-49.5 -13.5t-39 -31.5t-15.5 -56q0 -34 17 -55t43 -32.5t53 -18.5q31 -7 64.5 -12.5t65.5 -13.5q35 -9 61 -24t41 -39t15 -60q0 -43 -18 -71t-47.5 -44.5t-65.5 -23.5t-72 -7zM236 616l-111 127h43
l85 -97l82 97h44l-111 -127h-32z" />
    <glyph glyph-name="scedilla" unicode="&#x15f;" horiz-adv-x="504" 
d="M256 -7q-32 0 -65 6.5t-63 20.5t-52.5 36t-32.5 53h47q16 -31 44 -48.5t60.5 -24.5t62.5 -7q26 0 54 4.5t52.5 16t39.5 32t15 52.5q0 33 -16.5 52t-41.5 29.5t-49 15.5q-14 3 -30 6t-33 6q-30 5 -63 13.5t-62 24.5t-47 43t-18 69q0 41 16.5 68t44 43t62 23t70.5 7
q39 0 77.5 -11t67.5 -35t41 -63h-42q-18 39 -61 56t-84 17q-21 0 -47 -3t-49.5 -13.5t-39 -31.5t-15.5 -56q0 -34 17 -55t43 -32.5t53 -18.5q31 -7 64.5 -12.5t65.5 -13.5q35 -9 61 -24t41 -39t15 -60q0 -43 -18 -71t-47.5 -44.5t-65.5 -23.5t-72 -7zM227 -249h-13t-13 1v27
q15 -2 35 -0.5t39 8.5t31.5 22t12.5 40q0 17 -7 28t-20.5 17t-31.5 6q-12 0 -28.5 -3t-27.5 -6l40 127h26l-30 -96q11 2 18.5 2.5t16.5 0.5q32 0 53 -20t21 -58q0 -35 -18 -56t-46 -30.5t-58 -9.5z" />
    <glyph glyph-name="scircumflex" unicode="&#x15d;" horiz-adv-x="504" 
d="M256 -7q-32 0 -65 6.5t-63 20.5t-52.5 36t-32.5 53h47q16 -31 44 -48.5t60.5 -24.5t62.5 -7q26 0 54 4.5t52.5 16t39.5 32t15 52.5q0 33 -16.5 52t-41.5 29.5t-49 15.5q-14 3 -30 6t-33 6q-30 5 -63 13.5t-62 24.5t-47 43t-18 69q0 41 16.5 68t44 43t62 23t70.5 7
q39 0 77.5 -11t67.5 -35t41 -63h-42q-18 39 -61 56t-84 17q-21 0 -47 -3t-49.5 -13.5t-39 -31.5t-15.5 -56q0 -34 17 -55t43 -32.5t53 -18.5q31 -7 64.5 -12.5t65.5 -13.5q35 -9 61 -24t41 -39t15 -60q0 -43 -18 -71t-47.5 -44.5t-65.5 -23.5t-72 -7zM125 616l111 127h32
l111 -127h-43l-85 98l-82 -98h-44z" />
    <glyph glyph-name="uni0219" unicode="&#x219;" horiz-adv-x="504" 
d="M256 -7q-32 0 -65 6.5t-63 20.5t-52.5 36t-32.5 53h47q16 -31 44 -48.5t60.5 -24.5t62.5 -7q26 0 54 4.5t52.5 16t39.5 32t15 52.5q0 33 -16.5 52t-41.5 29.5t-49 15.5q-14 3 -30 6t-33 6q-30 5 -63 13.5t-62 24.5t-47 43t-18 69q0 41 16.5 68t44 43t62 23t70.5 7
q39 0 77.5 -11t67.5 -35t41 -63h-42q-18 39 -61 56t-84 17q-21 0 -47 -3t-49.5 -13.5t-39 -31.5t-15.5 -56q0 -34 17 -55t43 -32.5t53 -18.5q31 -7 64.5 -12.5t65.5 -13.5q35 -9 61 -24t41 -39t15 -60q0 -43 -18 -71t-47.5 -44.5t-65.5 -23.5t-72 -7zM222 -300l-15 20
q12 7 23.5 18.5t20.5 27.5t11 36q-13 -4 -32 4t-19 35q0 17 11.5 28.5t29.5 11.5q22 0 33.5 -16t11.5 -37q0 -28 -9.5 -52.5t-26 -43.5t-39.5 -32z" />
    <glyph glyph-name="germandbls" unicode="&#xdf;" horiz-adv-x="578" 
d="M375 -7q-39 0 -72 12t-55 37.5t-32 65.5h45q10 -38 41.5 -58.5t69.5 -20.5q49 0 84 22.5t35 76.5q0 42 -22 62t-58 33q-20 7 -39 12t-38 12q-37 14 -59.5 39t-22.5 71q0 31 18.5 60t40.5 57q22 27 39.5 54.5t17.5 55.5q0 32 -18.5 54t-46.5 33.5t-57 11.5
q-40 0 -69 -16.5t-44.5 -47.5t-15.5 -73v-546h-42v547q0 38 11 69.5t32.5 54.5t54.5 35.5t78 12.5q30 0 58.5 -8.5t51 -25t36 -41t13.5 -57.5q0 -24 -8.5 -47.5t-22.5 -44t-29 -39.5q-22 -25 -39 -50.5t-17 -51.5q0 -30 18.5 -46.5t44.5 -26.5q20 -8 41 -14.5t44 -14.5
q40 -13 65.5 -39.5t25.5 -75.5q0 -50 -19.5 -82t-55 -47t-83.5 -15z" />
    <glyph glyph-name="t" unicode="t" horiz-adv-x="359" 
d="M284 0q-54 0 -89.5 17.5t-53 54.5t-17.5 95v325h-93v35h93v158h42v-158h156v-35h-156v-321q0 -68 28 -101.5t98 -33.5h27v-36h-35z" />
    <glyph glyph-name="tbar" unicode="&#x167;" horiz-adv-x="359" 
d="M284 0q-54 0 -89.5 17.5t-53 54.5t-17.5 95v115h-93v35h93v175h-93v35h93v158h42v-158h156v-35h-156v-175h156v-35h-156v-111q0 -68 28 -101.5t98 -33.5h30v-36h-38z" />
    <glyph glyph-name="tcaron" unicode="&#x165;" horiz-adv-x="359" 
d="M284 0q-54 0 -89.5 17.5t-53 54.5t-17.5 95v325h-93v35h93v158h42v-158h156v-35h-156v-321q0 -68 28 -101.5t98 -33.5h27v-36h-35zM330 526l-15 20q12 7 23.5 18.5t20.5 27.5t11 36q-13 -4 -32 4t-19 35q0 17 11.5 28.5t30.5 11.5q20 0 32 -14.5t12 -40.5q0 -27 -9.5 -51
t-26 -43t-39.5 -32z" />
    <glyph glyph-name="uni0163" unicode="&#x163;" horiz-adv-x="359" 
d="M284 0q-54 0 -89.5 17.5t-53 54.5t-17.5 95v325h-93v35h93v158h42v-158h156v-35h-156v-321q0 -68 28 -101.5t98 -33.5h27v-36h-35zM185 -249h-13t-13 1v27q15 -2 35 -0.5t39 8.5t31.5 22t12.5 40q0 17 -7 28t-20.5 17t-31.5 6q-12 0 -28.5 -3t-27.5 -6l40 127h26l-30 -96
q11 2 18.5 2.5t16.5 0.5q32 0 53 -20t21 -58q0 -35 -18 -56t-46 -30.5t-58 -9.5z" />
    <glyph glyph-name="uni021B" unicode="&#x21b;" horiz-adv-x="359" 
d="M284 0q-54 0 -89.5 17.5t-53 54.5t-17.5 95v325h-93v35h93v158h42v-158h156v-35h-156v-321q0 -68 28 -101.5t98 -33.5h27v-36h-35zM180 -300l-15 20q12 7 23.5 18.5t20.5 27.5t11 36q-13 -4 -32 4t-19 35q0 17 11.5 28.5t29.5 11.5q22 0 33.5 -16t11.5 -37
q0 -28 -9.5 -52.5t-26 -43.5t-39.5 -32z" />
    <glyph glyph-name="u" unicode="u" horiz-adv-x="569" 
d="M283 -7q-112 0 -162 61t-50 173v300h42v-301q0 -56 16.5 -101t54 -70.5t99.5 -25.5q65 0 102.5 24.5t54 69t16.5 103.5v301h42v-300q0 -111 -50 -172.5t-165 -61.5z" />
    <glyph glyph-name="uacute" unicode="&#xfa;" horiz-adv-x="569" 
d="M283 -7q-112 0 -162 61t-50 173v300h42v-301q0 -56 16.5 -101t54 -70.5t99.5 -25.5q65 0 102.5 24.5t54 69t16.5 103.5v301h42v-300q0 -111 -50 -172.5t-165 -61.5zM267 616l76 127h50l-88 -127h-38z" />
    <glyph glyph-name="ubreve" unicode="&#x16d;" horiz-adv-x="569" 
d="M283 -7q-112 0 -162 61t-50 173v300h42v-301q0 -56 16.5 -101t54 -70.5t99.5 -25.5q65 0 102.5 24.5t54 69t16.5 103.5v301h42v-300q0 -111 -50 -172.5t-165 -61.5zM284 616q-55 0 -96.5 20.5t-49.5 78.5h39q8 -41 38 -53.5t70 -12.5q39 0 69.5 12.5t38.5 53.5h39
q-5 -38 -27 -60t-53.5 -30.5t-67.5 -8.5z" />
    <glyph glyph-name="ucircumflex" unicode="&#xfb;" horiz-adv-x="569" 
d="M283 -7q-112 0 -162 61t-50 173v300h42v-301q0 -56 16.5 -101t54 -70.5t99.5 -25.5q65 0 102.5 24.5t54 69t16.5 103.5v301h42v-300q0 -111 -50 -172.5t-165 -61.5zM158 616l111 127h32l111 -127h-43l-85 98l-82 -98h-44z" />
    <glyph glyph-name="udieresis" unicode="&#xfc;" horiz-adv-x="569" 
d="M283 -7q-112 0 -162 61t-50 173v300h42v-301q0 -56 16.5 -101t54 -70.5t99.5 -25.5q65 0 102.5 24.5t54 69t16.5 103.5v301h42v-300q0 -111 -50 -172.5t-165 -61.5zM389 626q-18 0 -28.5 11.5t-10.5 27.5t10.5 27.5t28.5 11.5q19 0 30 -11t11 -28t-11 -28t-30 -11z
M178 626q-18 0 -28.5 11.5t-10.5 27.5t10.5 27.5t28.5 11.5q19 0 30 -11t11 -28t-11 -28t-30 -11z" />
    <glyph glyph-name="ugrave" unicode="&#xf9;" horiz-adv-x="569" 
d="M283 -7q-112 0 -162 61t-50 173v300h42v-301q0 -56 16.5 -101t54 -70.5t99.5 -25.5q65 0 102.5 24.5t54 69t16.5 103.5v301h42v-300q0 -111 -50 -172.5t-165 -61.5zM270 616l-88 127h50l76 -127h-38z" />
    <glyph glyph-name="uhungarumlaut" unicode="&#x171;" horiz-adv-x="569" 
d="M283 -7q-112 0 -162 61t-50 173v300h42v-301q0 -56 16.5 -101t54 -70.5t99.5 -25.5q65 0 102.5 24.5t54 69t16.5 103.5v301h42v-300q0 -111 -50 -172.5t-165 -61.5zM313 616l76 127h50l-88 -127h-38zM193 616l76 127h50l-88 -127h-38z" />
    <glyph glyph-name="umacron" unicode="&#x16b;" horiz-adv-x="569" 
d="M283 -7q-112 0 -162 61t-50 173v300h42v-301q0 -56 16.5 -101t54 -70.5t99.5 -25.5q65 0 102.5 24.5t54 69t16.5 103.5v301h42v-300q0 -111 -50 -172.5t-165 -61.5zM135 642v35h299v-35h-299z" />
    <glyph glyph-name="uogonek" unicode="&#x173;" horiz-adv-x="569" 
d="M283 -7q-112 0 -162 61t-50 173v300h42v-301q0 -56 16.5 -101t54 -70.5t99.5 -25.5q65 0 102.5 24.5t54 69t16.5 103.5v301h42v-300q0 -111 -50 -172.5t-165 -61.5zM339 -201q-46 0 -78.5 23t-32.5 73q0 36 24 67t54 47l23 -8q-25 -18 -43.5 -43t-18.5 -55q0 -36 21 -53
t56 -18q9 0 20.5 2t19.5 5l8 -30q-12 -5 -25.5 -7.5t-27.5 -2.5z" />
    <glyph glyph-name="uring" unicode="&#x16f;" horiz-adv-x="569" 
d="M283 -7q-112 0 -162 61t-50 173v300h42v-301q0 -56 16.5 -101t54 -70.5t99.5 -25.5q65 0 102.5 24.5t54 69t16.5 103.5v301h42v-300q0 -111 -50 -172.5t-165 -61.5zM284 596q-38 0 -61 21.5t-23 58.5t23.5 61t61.5 24q39 0 62 -24t23 -61q0 -38 -24 -59t-62 -21zM284 622
q26 0 40.5 14.5t14.5 40.5q0 25 -14 41t-40 16t-40 -16t-14 -41q0 -26 14 -40.5t39 -14.5z" />
    <glyph glyph-name="utilde" unicode="&#x169;" horiz-adv-x="569" 
d="M283 -7q-112 0 -162 61t-50 173v300h42v-301q0 -56 16.5 -101t54 -70.5t99.5 -25.5q65 0 102.5 24.5t54 69t16.5 103.5v301h42v-300q0 -111 -50 -172.5t-165 -61.5zM348 612q-24 0 -41 11.5t-31 26.5t-27.5 26.5t-30.5 11.5q-19 0 -29 -11.5t-12.5 -28t-1.5 -32.5h-37
q0 29 7.5 52t26 36.5t49.5 13.5q23 0 40 -11.5t31 -26.5t27.5 -26.5t30.5 -11.5q20 0 29.5 11t12 28t2.5 33h37q0 -29 -8 -52.5t-26 -36.5t-49 -13z" />
    <glyph glyph-name="v" unicode="v" horiz-adv-x="508" 
d="M223 0l-210 527h48l193 -491l194 491h47l-213 -527h-59z" />
    <glyph glyph-name="w" unicode="w" horiz-adv-x="802" 
d="M178 0l-159 527h45l148 -491l155 491h69l155 -491l146 491h46l-161 -527h-63l-157 492l-158 -492h-66z" />
    <glyph glyph-name="wacute" unicode="&#x1e83;" horiz-adv-x="802" 
d="M178 0l-159 527h45l148 -491l155 491h69l155 -491l146 491h46l-161 -527h-63l-157 492l-158 -492h-66zM383 616l76 127h50l-88 -127h-38z" />
    <glyph glyph-name="wcircumflex" unicode="&#x175;" horiz-adv-x="802" 
d="M178 0l-159 527h45l148 -491l155 491h69l155 -491l146 491h46l-161 -527h-63l-157 492l-158 -492h-66zM274 616l111 127h32l111 -127h-43l-85 98l-82 -98h-44z" />
    <glyph glyph-name="wdieresis" unicode="&#x1e85;" horiz-adv-x="802" 
d="M178 0l-159 527h45l148 -491l155 491h69l155 -491l146 491h46l-161 -527h-63l-157 492l-158 -492h-66zM505 626q-18 0 -28.5 11.5t-10.5 27.5t10.5 27.5t28.5 11.5q19 0 30 -11t11 -28t-11 -28t-30 -11zM294 626q-18 0 -28.5 11.5t-10.5 27.5t10.5 27.5t28.5 11.5
q19 0 30 -11t11 -28t-11 -28t-30 -11z" />
    <glyph glyph-name="wgrave" unicode="&#x1e81;" horiz-adv-x="802" 
d="M178 0l-159 527h45l148 -491l155 491h69l155 -491l146 491h46l-161 -527h-63l-157 492l-158 -492h-66zM386 616l-88 127h50l76 -127h-38z" />
    <glyph glyph-name="x" unicode="x" horiz-adv-x="485" 
d="M20 0l193 268l-179 259h52l158 -231l156 231h52l-179 -256l192 -271h-53l-170 239l-170 -239h-52z" />
    <glyph glyph-name="y" unicode="y" horiz-adv-x="597" 
d="M294 -258q-53 0 -106.5 15t-95.5 47l19 36q41 -29 87 -44.5t95 -15.5q104 0 146.5 56t42.5 153v118q-25 -49 -60.5 -74t-73.5 -33t-74 -8q-79 0 -123.5 34.5t-62.5 91t-18 123.5v286h42v-260q0 -45 6 -87.5t23 -76.5t51 -54t90 -20q74 0 118 34.5t63 90.5t19 120v253h42
v-533q0 -60 -13 -106.5t-41 -79t-71.5 -49.5t-104.5 -17z" />
    <glyph glyph-name="yacute" unicode="&#xfd;" horiz-adv-x="597" 
d="M294 -258q-53 0 -106.5 15t-95.5 47l19 36q41 -29 87 -44.5t95 -15.5q104 0 146.5 56t42.5 153v118q-25 -49 -60.5 -74t-73.5 -33t-74 -8q-79 0 -123.5 34.5t-62.5 91t-18 123.5v286h42v-260q0 -45 6 -87.5t23 -76.5t51 -54t90 -20q74 0 118 34.5t63 90.5t19 120v253h42
v-533q0 -60 -13 -106.5t-41 -79t-71.5 -49.5t-104.5 -17zM281 616l76 127h50l-88 -127h-38z" />
    <glyph glyph-name="ycircumflex" unicode="&#x177;" horiz-adv-x="597" 
d="M294 -258q-53 0 -106.5 15t-95.5 47l19 36q41 -29 87 -44.5t95 -15.5q104 0 146.5 56t42.5 153v118q-25 -49 -60.5 -74t-73.5 -33t-74 -8q-79 0 -123.5 34.5t-62.5 91t-18 123.5v286h42v-260q0 -45 6 -87.5t23 -76.5t51 -54t90 -20q74 0 118 34.5t63 90.5t19 120v253h42
v-533q0 -60 -13 -106.5t-41 -79t-71.5 -49.5t-104.5 -17zM172 616l111 127h32l111 -127h-43l-85 98l-82 -98h-44z" />
    <glyph glyph-name="ydieresis" unicode="&#xff;" horiz-adv-x="597" 
d="M294 -258q-53 0 -106.5 15t-95.5 47l19 36q41 -29 87 -44.5t95 -15.5q104 0 146.5 56t42.5 153v118q-25 -49 -60.5 -74t-73.5 -33t-74 -8q-79 0 -123.5 34.5t-62.5 91t-18 123.5v286h42v-260q0 -45 6 -87.5t23 -76.5t51 -54t90 -20q74 0 118 34.5t63 90.5t19 120v253h42
v-533q0 -60 -13 -106.5t-41 -79t-71.5 -49.5t-104.5 -17zM403 626q-18 0 -28.5 11.5t-10.5 27.5t10.5 27.5t28.5 11.5q19 0 30 -11t11 -28t-11 -28t-30 -11zM192 626q-18 0 -28.5 11.5t-10.5 27.5t10.5 27.5t28.5 11.5q19 0 30 -11t11 -28t-11 -28t-30 -11z" />
    <glyph glyph-name="ygrave" unicode="&#x1ef3;" horiz-adv-x="597" 
d="M294 -258q-53 0 -106.5 15t-95.5 47l19 36q41 -29 87 -44.5t95 -15.5q104 0 146.5 56t42.5 153v118q-25 -49 -60.5 -74t-73.5 -33t-74 -8q-79 0 -123.5 34.5t-62.5 91t-18 123.5v286h42v-260q0 -45 6 -87.5t23 -76.5t51 -54t90 -20q74 0 118 34.5t63 90.5t19 120v253h42
v-533q0 -60 -13 -106.5t-41 -79t-71.5 -49.5t-104.5 -17zM284 616l-88 127h50l76 -127h-38z" />
    <glyph glyph-name="z" unicode="z" horiz-adv-x="522" 
d="M53 0v43l369 449h-364v35h411v-42l-372 -449h372v-36h-416z" />
    <glyph glyph-name="zacute" unicode="&#x17a;" horiz-adv-x="522" 
d="M53 0v43l369 449h-364v35h411v-42l-372 -449h372v-36h-416zM243 616l76 127h50l-88 -127h-38z" />
    <glyph glyph-name="zcaron" unicode="&#x17e;" horiz-adv-x="522" 
d="M53 0v43l369 449h-364v35h411v-42l-372 -449h372v-36h-416zM245 616l-111 127h43l85 -97l82 97h44l-111 -127h-32z" />
    <glyph glyph-name="zdotaccent" unicode="&#x17c;" horiz-adv-x="522" 
d="M53 0v43l369 449h-364v35h411v-42l-372 -449h372v-36h-416zM260 626q-17 0 -28 10t-11 30q0 19 11.5 28.5t28.5 9.5t28 -10t11 -28q0 -19 -11.5 -29.5t-28.5 -10.5z" />
    <glyph glyph-name="a_alt" horiz-adv-x="552" 
d="M226 -7q-46 0 -85.5 14.5t-63.5 45.5t-24 81q0 41 17.5 68.5t46.5 44.5t63 26.5t66 14.5q34 5 82 8t110 5q0 57 -15.5 101.5t-51 70t-95.5 25.5q-42 0 -82 -13t-63 -53h-47q15 38 45 60t69.5 32t79.5 10q76 0 120.5 -33.5t64 -89.5t19.5 -124v-287h-44v87
q-27 -38 -64 -58.5t-75.5 -28t-72.5 -7.5zM230 28q55 0 102.5 20.5t77.5 62t30 104.5v50q-40 -1 -90 -3.5t-97.5 -9t-82.5 -19.5q-34 -13 -54.5 -38.5t-20.5 -59.5q0 -40 21 -63.5t52.5 -33.5t61.5 -10z" />
    <glyph glyph-name="c_alt" horiz-adv-x="540" 
d="M297 -7q-82 0 -137.5 35t-83 96t-27.5 139q0 80 28.5 141t84 95.5t137.5 34.5q41 0 76.5 -10t64.5 -32.5t47 -62.5h-46q-20 35 -58 52t-80 17q-71 0 -118 -31t-70.5 -84t-23.5 -120q0 -64 22.5 -117t69 -85t117.5 -32q41 0 81.5 13t64.5 48h48q-19 -34 -50 -55.5
t-69 -31.5t-78 -10z" />
    <glyph glyph-name="f_alt" horiz-adv-x="366" 
d="M128 0v492h-93v35h93v70q0 51 13 91t46 63t91 23q26 0 45 -5t35 -13l-15 -33q-14 7 -31.5 11.5t-37.5 4.5q-45 0 -67 -20.5t-29.5 -52t-7.5 -65.5v-74h178v-35h-178v-492h-42z" />
    <glyph glyph-name="g_alt" horiz-adv-x="610" 
d="M300 -257q-69 0 -117.5 19t-83.5 43l19 35q45 -33 92 -47t94 -14q75 0 116.5 29.5t58 81t16.5 117.5v118q-21 -52 -57 -80.5t-76 -40t-75 -11.5q-86 0 -137.5 38t-74 100t-22.5 133q0 72 26.5 133.5t80.5 99t134 37.5q35 0 71 -9.5t69 -33.5t60 -70l1 106h42v-521
q0 -82 -23.5 -141t-75.5 -90.5t-138 -31.5zM293 29q64 0 108.5 34t68 88t23.5 114q0 66 -22 118.5t-67 83.5t-114 31q-67 0 -110.5 -34t-64 -87.5t-20.5 -111.5q0 -64 19.5 -118t63 -86t115.5 -32z" />
    <glyph glyph-name="i_alt" horiz-adv-x="236" 
d="M111 0v492h-93v35h135v-527h-42zM130 648q-17 0 -28.5 10.5t-11.5 28.5q0 13 5 21.5t14.5 13t20.5 4.5q18 0 29 -11t11 -28q0 -18 -11 -28.5t-29 -10.5z" />
    <glyph glyph-name="j_alt" horiz-adv-x="250" 
d="M-12 -196v35h21q43 0 69 13.5t38.5 43t12.5 78.5v518h-104v35h146v-559q0 -85 -37 -124.5t-122 -39.5h-24zM144 648q-17 0 -29 10.5t-12 28.5q0 13 5.5 21.5t15 13t20.5 4.5q18 0 29 -11t11 -28q0 -18 -11 -28.5t-29 -10.5z" />
    <glyph glyph-name="k_alt" horiz-adv-x="507" 
d="M73 0v707h42v-491l303 311h49l-210 -217l230 -310h-47l-212 283l-113 -118v-165h-42z" />
    <glyph glyph-name="l_alt" horiz-adv-x="307" 
d="M237 0q-42 0 -72.5 10t-50.5 29q-19 20 -29 52t-10 76v540h42v-536q0 -34 7 -59.5t20 -42.5q29 -33 101 -33h25v-36h-33z" />
    <glyph glyph-name="s_alt" horiz-adv-x="528" 
d="M268 -7q-33 0 -67.5 6.5t-66.5 20.5t-56 36t-35 53h47q18 -30 47.5 -47.5t64.5 -25t66 -7.5q25 0 54.5 3.5t56.5 14.5t44.5 32t17.5 55t-14.5 52.5t-38 28.5t-50.5 16q-9 2 -20 4t-23 4t-24 3q-36 5 -74 12t-70.5 22t-52.5 43t-20 74q0 41 19 68t49.5 43t66.5 23t71 7
q40 0 81.5 -11t74 -34.5t44.5 -62.5h-42q-12 26 -39.5 42t-60 23t-60.5 7q-34 0 -72 -8.5t-64 -30.5t-26 -64q0 -36 17.5 -57.5t44 -32.5t52.5 -16q23 -4 51 -8.5t55.5 -8.5t49.5 -9q36 -7 62 -22.5t40.5 -40.5t14.5 -63q0 -42 -19.5 -70t-51.5 -44.5t-69.5 -23t-74.5 -6.5z
" />
    <glyph glyph-name="t_alt" horiz-adv-x="373" 
d="M286 0q-59 0 -93.5 19t-49.5 56.5t-15 91.5v325h-93v35h94v158h41v-158h158v-35h-158v-321q0 -68 26.5 -101.5t96.5 -33.5h30v-36h-37z" />
    <glyph glyph-name="u_alt" horiz-adv-x="597" 
d="M274 -8q-79 0 -123.5 34.5t-62.5 91t-18 123.5v286h42v-260q0 -45 6 -87.5t23 -76.5t51 -54t90 -20t94 21t61.5 57t34 80.5t10.5 92.5v247h42v-527h-42v107q-25 -49 -60.5 -74t-73.5 -33t-74 -8z" />
    <glyph glyph-name="w_alt" horiz-adv-x="734" 
d="M178 0l-159 527h45l148 -491l125 360h61l125 -360l146 491h46l-161 -527h-59l-127 361l-128 -361h-62z" />
    <glyph glyph-name="y_alt" horiz-adv-x="597" 
d="M289 -257q-47 0 -89 13.5t-73.5 41t-47.5 69.5h48q15 -32 41.5 -51.5t59 -28t64.5 -8.5q54 0 89.5 16t56 41t30 54t12 55t2.5 43v119q-26 -52 -63 -76.5t-75.5 -31.5t-71.5 -7q-57 0 -96 19.5t-62 53.5t-33.5 80t-10.5 98v284h42v-261q0 -43 6 -85.5t23.5 -77t51 -55
t88.5 -20.5q57 0 95.5 21.5t62 57t33.5 78.5t10 87v255h42v-544q0 -57 -15 -102t-45 -75.5t-74 -46.5t-101 -16z" />
    <glyph glyph-name="ordfeminine" unicode="&#xaa;" horiz-adv-x="352" 
d="M156 431q-37 0 -66.5 18t-29.5 59q0 31 14.5 47t37.5 22t48 6h95q-2 42 -16 70.5t-61 28.5q-21 0 -42.5 -6t-29.5 -25h-32q8 22 23.5 34t36 17t42.5 5q43 0 66 -16.5t31.5 -44.5t8.5 -65v-147h-24l-2 39q-18 -24 -44 -33t-56 -9zM158 455q50 0 73.5 27.5t23.5 76.5h-73
q-18 0 -39.5 -1.5t-37.5 -11.5t-16 -36q0 -29 21.5 -42t47.5 -13z" />
    <glyph glyph-name="ordmasculine" unicode="&#xba;" horiz-adv-x="373" 
d="M186 431q-42 0 -67.5 18.5t-37 50t-11.5 69.5t11.5 69.5t37 50.5t67.5 19t67.5 -19t37.5 -50.5t12 -69.5t-11.5 -69.5t-37.5 -50t-68 -18.5zM186 457q31 0 49.5 15.5t27 41t8.5 55.5q0 31 -8.5 56.5t-27.5 41t-49 15.5t-48.5 -15.5t-27 -41t-8.5 -56.5q0 -30 8.5 -55.5
t27 -41t48.5 -15.5z" />
    <glyph glyph-name="uni0410" unicode="&#x410;" horiz-adv-x="638" 
d="M16 0l278 707h47l281 -707h-49l-64 163h-382l-63 -163h-48zM141 200h353l-176 457z" />
    <glyph glyph-name="uni0411" unicode="&#x411;" horiz-adv-x="649" 
d="M93 0v707h462v-38h-420v-273h199q46 0 91 -7t82 -26.5t59 -57t22 -98.5q0 -59 -20.5 -99t-56.5 -63.5t-83 -34t-100 -10.5h-235zM135 38h181q44 0 85 7t73 24.5t51 50.5t19 84q0 54 -19.5 85t-51.5 45.5t-72.5 19t-82.5 4.5h-183v-320z" />
    <glyph glyph-name="uni0412" unicode="&#x412;" horiz-adv-x="651" 
d="M92 0v707h239q44 0 84 -6.5t72.5 -24.5t51 -51t18.5 -86q0 -69 -38.5 -111.5t-99.5 -58.5q78 -6 127.5 -55t49.5 -127q0 -57 -24 -93.5t-63.5 -57t-87.5 -28.5t-96 -8h-233zM134 38h188q39 0 80 4.5t75.5 19t55.5 45.5t21 83q0 46 -18.5 75.5t-49 46.5t-67.5 24t-75 7
h-210v-305zM134 380h164q37 0 75.5 7.5t71.5 25t53 47.5t20 75q0 59 -26.5 87.5t-69 37.5t-90.5 9h-198v-289z" />
    <glyph glyph-name="uni0413" unicode="&#x413;" horiz-adv-x="561" 
d="M93 0v707h435v-38h-393v-669h-42z" />
    <glyph glyph-name="Geupturncy" unicode="&#x490;" horiz-adv-x="561" 
d="M93 0v707h392v154h43v-192h-393v-669h-42z" />
    <glyph glyph-name="uni0414" unicode="&#x414;" horiz-adv-x="718" 
d="M29 -207v245q40 8 64.5 38t37.5 65q14 36 20 83t8 98t3 97q2 80 3 151t3 137h432v-669h90v-245h-42v207h-576v-207h-43zM113 38h445v631h-347l-11 -355q-1 -25 -3 -62t-10 -77t-25.5 -76.5t-48.5 -60.5z" />
    <glyph glyph-name="uni0415" unicode="&#x415;" horiz-adv-x="603" 
d="M93 0v707h456v-38h-414v-299h372v-38h-372v-294h414v-38h-456z" />
    <glyph glyph-name="uni0401" unicode="&#x401;" horiz-adv-x="603" 
d="M93 0v707h456v-38h-414v-299h372v-38h-372v-294h414v-38h-456zM427 806q-18 0 -28.5 11.5t-10.5 27.5t10.5 27.5t28.5 11.5q19 0 30 -11t11 -28t-11 -28t-30 -11zM216 806q-18 0 -28.5 11.5t-10.5 27.5t10.5 27.5t28.5 11.5q19 0 30 -11t11 -28t-11 -28t-30 -11z" />
    <glyph glyph-name="uni0416" unicode="&#x416;" horiz-adv-x="849" 
d="M20 0l193 357l-192 350h47l187 -342h148v342h42v-342h152l185 342h45l-191 -350l193 -357h-49l-176 328h-159v-328h-42v328h-157l-176 -328h-50z" />
    <glyph glyph-name="uni0417" unicode="&#x417;" horiz-adv-x="622" 
d="M311 -8q-40 0 -83 7t-81 24t-64 47t-33 76h45q7 -35 29 -58t53 -36t64.5 -18.5t63.5 -5.5q39 0 77.5 7t71 25t52 49t19.5 79q0 50 -18.5 80t-50 46.5t-70 22t-77.5 5.5h-94v37h64q34 0 71.5 8.5t70 27t53 47.5t20.5 70q0 55 -26 87t-68 46t-90 14q-39 0 -81 -10t-74 -35
t-42 -69h-44q3 35 20 60.5t43 43t57.5 27.5t63.5 14.5t61 4.5q42 0 81 -9t70.5 -29.5t50 -54t18.5 -83.5q0 -37 -14.5 -70.5t-46 -59.5t-82.5 -40q90 -10 133 -60t43 -121q0 -55 -22 -92.5t-59 -60.5t-82.5 -33t-92.5 -10z" />
    <glyph glyph-name="uni0418" unicode="&#x418;" horiz-adv-x="734" 
d="M93 0v707h42v-670l442 670h64v-707h-43v665l-442 -665h-63z" />
    <glyph glyph-name="uni0419" unicode="&#x419;" horiz-adv-x="734" 
d="M93 0v707h42v-670l442 670h64v-707h-43v665l-442 -665h-63zM368 818q-40 0 -77 11t-62 36t-31 66h38q12 -46 49.5 -63.5t83.5 -17.5t82.5 17.5t48.5 63.5h38q-6 -40 -31.5 -65t-61.5 -36.5t-77 -11.5z" />
    <glyph glyph-name="uni041A" unicode="&#x41a;" horiz-adv-x="599" 
d="M93 0v707h42v-347h145l248 347h48l-252 -352l255 -355h-51l-235 323h-158v-323h-42z" />
    <glyph glyph-name="uni041B" unicode="&#x41b;" horiz-adv-x="688" 
d="M14 -6v44q20 2 36 9t29 19t22 29q15 29 22.5 72.5t10 90.5t2.5 84l6 365h453v-707h-42v669h-367l-6 -325q0 -26 -2 -67.5t-6.5 -85t-13.5 -75.5q-17 -58 -51 -88t-93 -34z" />
    <glyph glyph-name="uni041C" unicode="&#x41c;" horiz-adv-x="835" 
d="M93 0v707h60l268 -452l262 452h59v-707h-42v657l-269 -462h-22l-274 462v-657h-42z" />
    <glyph glyph-name="uni041D" unicode="&#x41d;" horiz-adv-x="725" 
d="M93 0v707h42v-342h455v342h42v-707h-42v328h-455v-328h-42z" />
    <glyph glyph-name="uni041E" unicode="&#x41e;" horiz-adv-x="767" 
d="M384 -8q-109 0 -182.5 47t-110.5 128.5t-37 185.5t37 186t110.5 129t182.5 47t182 -47.5t110 -129t37 -185.5q0 -103 -37 -185t-110 -129t-182 -47zM384 28q96 0 159 43.5t94 117.5t31 164q0 67 -17.5 126t-52.5 104t-88.5 70.5t-125.5 25.5q-96 0 -159.5 -44.5
t-95 -118.5t-31.5 -163t32 -163t96 -118t158 -44z" />
    <glyph glyph-name="uni041F" unicode="&#x41f;" horiz-adv-x="728" 
d="M93 0v707h542v-707h-42v669h-458v-669h-42z" />
    <glyph glyph-name="uni0420" unicode="&#x420;" horiz-adv-x="619" 
d="M93 0v707h235q76 0 129.5 -24t82.5 -74.5t29 -128.5t-34.5 -129t-93.5 -76t-133 -25h-173v-250h-42zM135 287h171q98 0 158.5 47t60.5 150q0 100 -54.5 142.5t-148.5 42.5h-187v-382z" />
    <glyph glyph-name="uni0421" unicode="&#x421;" horiz-adv-x="699" 
d="M378 -8q-110 0 -182 47t-107 129t-35 185q0 104 36.5 185.5t109 129t179.5 47.5q57 0 108.5 -16t91 -50.5t59.5 -90.5h-44q-29 62 -85.5 91.5t-125.5 29.5q-98 0 -161.5 -44.5t-94.5 -118t-31 -161.5t30.5 -162.5t93 -119.5t159.5 -45q44 0 88 12.5t80.5 39t54.5 69.5h49
q-22 -54 -65 -89t-97 -51.5t-111 -16.5z" />
    <glyph glyph-name="uni0422" unicode="&#x422;" horiz-adv-x="566" 
d="M262 0v669h-242v38h526v-38h-242v-669h-42z" />
    <glyph glyph-name="uni0423" unicode="&#x423;" horiz-adv-x="578" 
d="M109 -1v43q56 0 92 18.5t58 47t36 57.5l-269 542h51l241 -493l208 493h47l-235 -552q-7 -16 -16.5 -32.5t-21 -32t-26.5 -29.5t-33 -25q-25 -16 -58 -26t-74 -11z" />
    <glyph glyph-name="uni040E" unicode="&#x40e;" horiz-adv-x="578" 
d="M109 -1v43q56 0 92 18.5t58 47t36 57.5l-269 542h51l241 -493l208 493h47l-235 -552q-7 -16 -16.5 -32.5t-21 -32t-26.5 -29.5t-33 -25q-25 -16 -58 -26t-74 -11zM305 796q-55 0 -96.5 20.5t-49.5 78.5h39q8 -41 38 -53.5t70 -12.5q39 0 69.5 12.5t38.5 53.5h39
q-5 -38 -27 -60t-53.5 -30.5t-67.5 -8.5z" />
    <glyph glyph-name="uni0424" unicode="&#x424;" horiz-adv-x="828" 
d="M393 -16v120h-98q-79 0 -133 35.5t-81 97t-27 137.5q0 77 32 134.5t90 90t134 32.5h83v110h42v-110h85q76 0 133 -32.5t89 -90t32 -134.5q0 -74 -28 -135.5t-82 -98t-132 -36.5h-97v-120h-42zM316 136h77v462h-77q-67 0 -116.5 -28t-76.5 -78t-27 -116q0 -69 24 -123.5
t72.5 -85.5t123.5 -31zM435 136h78q75 0 123.5 31t72 85.5t23.5 123.5q0 66 -27.5 116t-77 78t-115.5 28h-77v-462z" />
    <glyph glyph-name="uni0425" unicode="&#x425;" horiz-adv-x="558" 
d="M20 0l229 356l-221 351h56l195 -317l194 317h56l-220 -349l229 -358h-55l-205 323l-204 -323h-54z" />
    <glyph glyph-name="uni0427" unicode="&#x427;" horiz-adv-x="642" 
d="M506 0v276q-30 -4 -58.5 -6.5t-54.5 -3.5t-52 -1q-84 0 -145 18.5t-93.5 68.5t-32.5 145v210h42v-198q0 -78 22.5 -123.5t71 -65t126.5 -19.5q45 0 84.5 2.5t89.5 9.5v394h43v-707h-43z" />
    <glyph glyph-name="uni0426" unicode="&#x426;" horiz-adv-x="727" 
d="M659 -207v207h-566v707h42v-669h433v669h43v-669h91v-245h-43z" />
    <glyph glyph-name="uni0428" unicode="&#x428;" horiz-adv-x="979" 
d="M93 0v707h42v-669h333v669h42v-669h333v669h43v-707h-793z" />
    <glyph glyph-name="uni0429" unicode="&#x429;" horiz-adv-x="1002" 
d="M934 -207v207h-841v707h42v-669h333v669h42v-669h333v669h43v-669h91v-245h-43z" />
    <glyph glyph-name="uni042C" unicode="&#x42c;" horiz-adv-x="627" 
d="M92 0v707h42v-311h152q50 0 100 -6t92 -25.5t67.5 -57t25.5 -100.5q0 -60 -21 -100t-57.5 -63.5t-83.5 -33.5t-100 -10h-217zM134 38h161q42 0 83.5 6t76 22.5t55 49.5t20.5 87t-20.5 85t-54.5 46.5t-75 20t-83 4.5h-163v-321z" />
    <glyph glyph-name="uni042B" unicode="&#x42b;" horiz-adv-x="820" 
d="M93 0v707h42v-311h129q52 0 102.5 -5.5t92 -24t66.5 -56t25 -101.5q0 -60 -21 -100t-57.5 -64t-84 -34.5t-100.5 -10.5h-194zM135 38h139q42 0 83.5 6t75.5 22.5t54.5 49.5t20.5 87t-20 85t-53 46.5t-73 20t-81 4.5h-146v-321zM685 0v707h42v-707h-42z" />
    <glyph glyph-name="uni042A" unicode="&#x42a;" horiz-adv-x="728" 
d="M192 0v669h-172v38h214v-311h164q48 0 96 -6.5t88.5 -25.5t65 -56.5t24.5 -99.5q0 -58 -21.5 -98t-58 -64.5t-84 -35t-99.5 -10.5h-217zM234 38h153q42 0 85 6t79 22.5t57.5 49.5t21.5 87t-20.5 85t-55 46.5t-76 20t-82.5 4.5h-162v-321z" />
    <glyph glyph-name="uni0405" unicode="&#x405;" horiz-adv-x="643" 
d="M335 -8q-59 0 -113.5 15t-96.5 49.5t-62 92.5h47q22 -44 57.5 -70.5t78.5 -38.5t86 -12q50 0 96.5 15.5t76 48t29.5 84.5q0 43 -17.5 69t-47.5 41.5t-68 26.5q-20 6 -39.5 11.5t-38 10.5t-35.5 9q-37 9 -73.5 21t-66 32t-47.5 51.5t-18 79.5q0 52 20 87.5t54.5 57.5
t77.5 32t89 10q55 0 103 -15t82.5 -48.5t46.5 -89.5h-45q-12 43 -41.5 68.5t-68 37t-78.5 11.5q-32 0 -66 -7t-63 -23.5t-47 -44t-18 -69.5q0 -45 19.5 -72.5t51.5 -43.5t71 -27q42 -11 83 -22t79 -23q30 -9 56.5 -23t46.5 -34t31.5 -45.5t11.5 -57.5q0 -54 -20.5 -91
t-55.5 -60t-78.5 -33.5t-89.5 -10.5z" />
    <glyph glyph-name="uni0404" unicode="&#x404;" horiz-adv-x="699" 
d="M378 -8q-110 0 -182 47t-107 129t-35 185q0 104 36.5 185.5t109 129t179.5 47.5q57 0 108.5 -16t91 -50.5t59.5 -90.5h-44q-19 42 -51 68.5t-73 39.5t-87 13q-94 0 -157 -41.5t-95 -111t-35 -153.5h377v-38h-377q4 -84 35.5 -154t92.5 -111.5t155 -41.5q44 0 88 12.5
t80.5 39t54.5 69.5h49q-22 -54 -65 -89t-97 -51.5t-111 -16.5z" />
    <glyph glyph-name="uni042D" unicode="&#x42d;" horiz-adv-x="697" 
d="M322 -8q-57 0 -111.5 16t-97 50.5t-65.5 90.5h51q19 -42 55 -69t81 -39.5t88 -12.5q92 0 153 39.5t92 108.5t33 159h-377v38h377q-4 82 -35.5 151.5t-89.5 112t-144 42.5q-43 0 -89 -12t-84 -38.5t-58 -70.5h-46q24 61 69.5 95t100 48t105.5 14q81 0 140 -30t97.5 -82
t57 -118t18.5 -137q0 -102 -35 -182.5t-106 -127t-180 -46.5z" />
    <glyph glyph-name="uni0406" unicode="&#x406;" horiz-adv-x="228" 
d="M93 0v707h42v-707h-42z" />
    <glyph glyph-name="uni0407" unicode="&#x407;" horiz-adv-x="228" 
d="M93 0v707h42v-707h-42zM38 806q-19 0 -29.5 11.5t-10.5 27.5t10.5 27.5t29.5 11.5q18 0 29 -11t11 -28t-11 -28t-29 -11zM188 806q-18 0 -28.5 11.5t-10.5 27.5t10.5 27.5t29.5 11.5q18 0 29 -11t11 -28t-11 -28t-30 -11z" />
    <glyph glyph-name="uni0408" unicode="&#x408;" horiz-adv-x="548" 
d="M254 -8q-43 0 -78 9.5t-61.5 30t-43.5 52.5t-23 77h47q8 -46 28.5 -75.5t54 -43.5t79.5 -14q67 0 101.5 30t46.5 79t12 106v464h43v-472q0 -45 -8 -88.5t-29.5 -78t-62.5 -55.5t-106 -21z" />
    <glyph glyph-name="Yucy" unicode="&#x42e;" horiz-adv-x="986" 
d="M602 -8q-103 0 -172 44.5t-105.5 122t-40.5 176.5h-149v-335h-42v707h42v-334h149q4 99 41 176t106.5 121.5t170.5 44.5q109 0 182.5 -47t110.5 -129t37 -186t-37 -185.5t-110.5 -128.5t-182.5 -47zM602 28q98 0 161.5 43.5t95 117.5t31.5 164q0 89 -31.5 163t-95 118.5
t-161.5 44.5q-72 0 -124.5 -26t-86 -71.5t-50 -104t-16.5 -124.5q0 -64 16.5 -122.5t50.5 -104.5t86.5 -72t123.5 -26z" />
    <glyph glyph-name="Yacy" unicode="&#x42f;" horiz-adv-x="657" 
d="M81 0l159 290q-87 17 -133 68t-46 135q0 59 19.5 99.5t54 66t81 37t101.5 11.5h247v-707h-42v284h-240l-152 -284h-49zM317 321h205v348h-200q-61 0 -111 -15t-79 -52.5t-29 -105.5q0 -65 30 -103.5t78.5 -55t105.5 -16.5z" />
    <glyph glyph-name="uni04C1" unicode="&#x4c1;" horiz-adv-x="849" 
d="M20 0l193 357l-192 350h47l187 -342h148v342h42v-342h152l185 342h45l-191 -350l193 -357h-49l-176 328h-159v-328h-42v328h-157l-176 -328h-50zM423 816q-40 0 -77 11t-62 36t-31 66h38q12 -46 49.5 -63.5t83.5 -17.5t82.5 17.5t48.5 63.5h38q-6 -40 -31.5 -65
t-61.5 -36.5t-77 -11.5z" />
    <glyph glyph-name="uni0430" unicode="&#x430;" horiz-adv-x="552" 
d="M234 -7q-26 0 -57 7t-59.5 23.5t-46.5 45.5t-18 73t16 72.5t43.5 45.5t62.5 24t73 7h192q0 57 -15.5 104t-51 75t-95.5 28q-25 0 -53 -5.5t-52.5 -19.5t-39.5 -41h-47q13 35 37 55t52 30.5t55 13.5t46 3q75 0 120 -30.5t65.5 -86t20.5 -130.5v-287h-42v81
q-21 -28 -51 -48t-68.5 -30t-86.5 -10zM237 29q49 0 95.5 17t77 52t30.5 89v69h-167q-29 0 -60 -3t-58 -13.5t-43.5 -32.5t-16.5 -60q0 -41 20.5 -67.5t53 -38.5t68.5 -12z" />
    <glyph glyph-name="uni0431" unicode="&#x431;" horiz-adv-x="576" 
d="M288 -7q-64 0 -107 21.5t-69 58t-39.5 83t-18 98t-4.5 100.5q0 61 7 117t27.5 101.5t60.5 77.5t106 45q51 10 98 14t92 9q10 2 21 4t23 4t23 4v-39q-9 -3 -31.5 -6t-50 -6t-53 -5.5t-43 -4t-19.5 -1.5q-38 -4 -73 -13.5t-63 -28.5t-47 -53q-20 -35 -27.5 -78t-9 -83.5
t-3.5 -68.5q24 59 62.5 89t80.5 41t76 11q71 0 120 -31.5t74.5 -85.5t25.5 -122q0 -72 -28.5 -129t-82 -90t-128.5 -33zM290 29q63 0 106.5 29.5t66 78t22.5 106.5t-22 104t-64 72.5t-103 26.5q-56 0 -100 -28.5t-69.5 -75t-25.5 -101.5q0 -58 21 -106t63.5 -77t104.5 -29z
" />
    <glyph glyph-name="uni0432" unicode="&#x432;" horiz-adv-x="548" 
d="M73 0v527h202q29 0 61.5 -4.5t60.5 -18t45.5 -38.5t17.5 -67q0 -16 -7 -39.5t-26.5 -46t-57.5 -34.5q62 -11 93 -45t31 -87q0 -40 -15 -68.5t-40.5 -45.5t-58.5 -25t-68 -8h-238zM115 34h178q35 0 71.5 8t61.5 30.5t25 67.5q0 39 -16.5 62t-43.5 33.5t-58 14t-60 3.5
h-158v-219zM115 287h143q26 0 53.5 5.5t52 17.5t39.5 32.5t15 50.5q0 45 -24 66t-59.5 27.5t-70.5 6.5h-149v-206z" />
    <glyph glyph-name="uni0433" unicode="&#x433;" horiz-adv-x="452" 
d="M73 0v527h350v-35h-308v-492h-42z" />
    <glyph glyph-name="geupturncy" unicode="&#x491;" horiz-adv-x="449" 
d="M73 0v527h307v145h40v-180h-305v-492h-42z" />
    <glyph glyph-name="uni0434" unicode="&#x434;" horiz-adv-x="602" 
d="M25 -176v210q20 4 35.5 15t27.5 27t21 37.5t15 46.5q12 50 14.5 101t2.5 82q1 46 1.5 92t0.5 92h359v-493h75v-210h-42v176h-468v-176h-42zM106 34h354v459h-276q-1 -42 -1.5 -84t-1.5 -84q-1 -52 -5.5 -105t-20 -101t-49.5 -85z" />
    <glyph glyph-name="uni0435" unicode="&#x435;" horiz-adv-x="578" 
d="M299 -7q-83 0 -138 35t-81.5 96t-26.5 139q0 75 27.5 136.5t82.5 98t135 36.5q56 0 97.5 -20t68.5 -55.5t41.5 -81.5t17.5 -98q1 -7 1 -13.5v-13.5h-429q3 -65 25 -115.5t67 -79t117 -28.5q29 0 60 7.5t57 24.5t41 45h47q-17 -40 -51 -65t-76 -36.5t-83 -11.5zM96 287
h386q-2 57 -23 105t-62 77t-103 29q-61 0 -104.5 -30t-67 -78t-26.5 -103z" />
    <glyph glyph-name="uni0451" unicode="&#x451;" horiz-adv-x="578" 
d="M299 -7q-83 0 -138 35t-81.5 96t-26.5 139q0 75 27.5 136.5t82.5 98t135 36.5q56 0 97.5 -20t68.5 -55.5t41.5 -81.5t17.5 -98q1 -7 1 -13.5v-13.5h-429q3 -65 25 -115.5t67 -79t117 -28.5q29 0 60 7.5t57 24.5t41 45h47q-17 -40 -51 -65t-76 -36.5t-83 -11.5zM96 287
h386q-2 57 -23 105t-62 77t-103 29q-61 0 -104.5 -30t-67 -78t-26.5 -103zM393 626q-18 0 -28.5 11.5t-10.5 27.5t10.5 27.5t28.5 11.5q19 0 30 -11t11 -28t-11 -28t-30 -11zM182 626q-18 0 -28.5 11.5t-10.5 27.5t10.5 27.5t28.5 11.5q19 0 30 -11t11 -28t-11 -28t-30 -11z
" />
    <glyph glyph-name="uni0436" unicode="&#x436;" horiz-adv-x="741" 
d="M20 0l169 277l-153 250h48l148 -245h117v245h42v-245h117l149 245h48l-154 -250l170 -277h-48l-152 247h-130v-247h-42v247h-129l-152 -247h-48z" />
    <glyph glyph-name="uni0437" unicode="&#x437;" horiz-adv-x="516" 
d="M258 -7q-31 0 -64.5 4.5t-63.5 17t-52.5 35t-32.5 57.5h46q12 -32 40.5 -49t62.5 -23t61 -6q38 0 77 9t66 33.5t27 70.5q0 47 -24.5 69.5t-61 29.5t-74.5 7h-87v35h52q27 0 56.5 4.5t56 17t43 34.5t16.5 56q0 39 -22.5 61.5t-55.5 32t-65 9.5q-27 0 -58.5 -5t-57 -21
t-35.5 -48h-43q8 44 39.5 67.5t73.5 33t80 9.5q32 0 64 -6.5t58.5 -21.5t43.5 -40t19 -63q2 -41 -19.5 -75.5t-77.5 -53.5q63 -8 92 -47t29 -85q0 -43 -18.5 -72t-49 -46t-67.5 -24t-74 -7z" />
    <glyph glyph-name="uni0438" unicode="&#x438;" horiz-adv-x="581" 
d="M73 0v527h42v-491q8 11 15.5 22t14.5 22l297 447h66v-527h-42v492q-9 -13 -17.5 -26.5t-17.5 -27.5l-291 -438h-67z" />
    <glyph glyph-name="uni0439" unicode="&#x439;" horiz-adv-x="581" 
d="M73 0v527h42v-491q8 11 15.5 22t14.5 22l297 447h66v-527h-42v492q-9 -13 -17.5 -26.5t-17.5 -27.5l-291 -438h-67zM293 630q-55 0 -96.5 20.5t-49.5 78.5h39q8 -41 38 -53.5t70 -12.5q39 0 69.5 12.5t38.5 53.5h39q-5 -38 -27 -60t-53.5 -30.5t-67.5 -8.5z" />
    <glyph glyph-name="uni043A" unicode="&#x43a;" horiz-adv-x="499" 
d="M73 0v527h42v-246h137l169 246h47l-176 -254l194 -273h-48l-178 246h-145v-246h-42z" />
    <glyph glyph-name="uni043B" unicode="&#x43b;" horiz-adv-x="568" 
d="M25 -4v41q19 2 33.5 9t25.5 17q26 25 37 68t13 94q3 46 4.5 98.5l3 105t2.5 98.5h351v-527h-42v493h-268q-1 -46 -2.5 -89.5t-3 -85.5t-3.5 -84q-2 -52 -12 -103.5t-39 -86.5q-16 -20 -40.5 -33t-59.5 -15z" />
    <glyph glyph-name="uni043C" unicode="&#x43c;" horiz-adv-x="692" 
d="M73 0v527h69l205 -326l205 326h67v-527h-42v492l-224 -353h-14l-224 353v-492h-42z" />
    <glyph glyph-name="uni043D" unicode="&#x43d;" horiz-adv-x="572" 
d="M73 0v527h42v-251h342v251h42v-527h-42v241h-342v-241h-42z" />
    <glyph glyph-name="uni043E" unicode="&#x43e;" horiz-adv-x="605" 
d="M302 -7q-82 0 -137.5 35t-83.5 96t-28 139q0 79 28 140t83.5 96t137.5 35t137.5 -35t84 -96t28.5 -140q0 -78 -28.5 -139t-84 -96t-137.5 -35zM302 29q72 0 118 31t68 84t22 119q0 65 -22 118.5t-68 85t-118 31.5t-118 -31.5t-67.5 -85t-21.5 -118.5q0 -66 21.5 -119
t67.5 -84t118 -31z" />
    <glyph glyph-name="uni043F" unicode="&#x43f;" horiz-adv-x="576" 
d="M73 0v527h430v-527h-42v492h-346v-492h-42z" />
    <glyph glyph-name="uni0440" unicode="&#x440;" horiz-adv-x="609" 
d="M73 -206v733h42v-104q39 59 89.5 85t118.5 26q80 0 131.5 -37.5t76.5 -100t25 -137.5q0 -80 -26.5 -140t-79 -93t-130.5 -33q-32 0 -70 8t-73.5 30.5t-61.5 66.5v-304h-42zM323 29q70 0 111.5 32.5t60.5 85.5t19 115q0 64 -19.5 117.5t-63.5 86t-116 32.5q-66 0 -111 -34
t-68 -88t-23 -114q0 -66 23.5 -118.5t70.5 -83.5t116 -31z" />
    <glyph glyph-name="uni0441" unicode="&#x441;" horiz-adv-x="551" 
d="M300 -7q-82 0 -137 35t-82.5 95.5t-27.5 138.5t28.5 139.5t84.5 97t138 35.5q45 0 83 -14t66.5 -42t43.5 -70h-46q-17 47 -59 68.5t-92 21.5q-69 0 -114.5 -31.5t-68 -85t-22.5 -119.5q0 -63 22 -116t68.5 -85t117.5 -32q53 0 95 21t62 68h46q-17 -42 -49 -70t-72 -41.5
t-85 -13.5z" />
    <glyph glyph-name="uni0442" unicode="&#x442;" horiz-adv-x="449" 
d="M204 0v492h-200v35h441v-35h-199v-492h-42z" />
    <glyph glyph-name="uni0443" unicode="&#x443;" horiz-adv-x="539" 
d="M86 -245v41q51 0 83.5 18t55.5 53t43 85l-241 575h51l214 -521l180 521h49l-181 -507q-8 -23 -20 -53t-26.5 -61.5t-30.5 -58.5t-34 -43q-21 -19 -42 -29.5t-45 -15t-56 -4.5z" />
    <glyph glyph-name="uni045E" unicode="&#x45e;" horiz-adv-x="539" 
d="M86 -245v41h3q50 0 82.5 18.5t55 53.5t41.5 84l-241 575h50l214 -522l181 522h49l-181 -507q-8 -23 -20 -53t-26.5 -61.5t-30.5 -58.5t-34 -43q-31 -28 -61.5 -38.5t-75.5 -10.5h-6zM280 630q-55 0 -96.5 20.5t-49.5 78.5h39q8 -41 38 -53.5t70 -12.5q39 0 69.5 12.5
t38.5 53.5h39q-5 -38 -27 -60t-53.5 -30.5t-67.5 -8.5z" />
    <glyph glyph-name="uni0444" unicode="&#x444;" horiz-adv-x="744" 
d="M351 -206v198q-61 2 -115.5 16.5t-96.5 45.5t-66 81.5t-24 123.5q0 94 37 154t105 90t160 31v170h42v-170q94 -1 161.5 -31.5t104 -90.5t36.5 -153q0 -90 -37.5 -148.5t-105 -87t-159.5 -31.5v-198h-42zM351 29v469q-124 0 -192 -58t-68 -178q0 -81 33 -132t92 -75
t135 -26zM393 29q78 0 136.5 24.5t91 76t32.5 132.5q0 120 -68 178t-192 58v-469z" />
    <glyph glyph-name="uni0445" unicode="&#x445;" horiz-adv-x="485" 
d="M20 0l193 268l-179 259h52l158 -231l156 231h52l-179 -256l192 -271h-53l-170 239l-170 -239h-52z" />
    <glyph glyph-name="uni0447" unicode="&#x447;" horiz-adv-x="530" 
d="M415 0v210q-42 -4 -86.5 -6t-70.5 -2q-73 0 -119 21t-67.5 67.5t-21.5 120.5v116h42v-106q0 -62 14.5 -102t51.5 -59t105 -19q35 0 70 1.5t82 6.5v278h42v-527h-42z" />
    <glyph glyph-name="uni0446" unicode="&#x446;" horiz-adv-x="593" 
d="M526 -176v176h-453v527h42v-491h333v491h42v-491h75v-212h-39z" />
    <glyph glyph-name="uni0448" unicode="&#x448;" horiz-adv-x="811" 
d="M73 0v527h42v-491h268v491h42v-491h271v491h42v-527h-665z" />
    <glyph glyph-name="uni0449" unicode="&#x449;" horiz-adv-x="841" 
d="M774 -176v176h-701v527h42v-491h268v491h42v-491h271v491h42v-491h75v-212h-39z" />
    <glyph glyph-name="uni044C" unicode="&#x44c;" horiz-adv-x="520" 
d="M73 0v527h42v-218h136q40 0 79 -5.5t70.5 -20.5t50.5 -43.5t19 -75.5q0 -46 -15.5 -77.5t-43.5 -50.5t-64.5 -27.5t-77.5 -8.5h-196zM115 34h119q35 0 69 3.5t62.5 15.5t45.5 38t17 70q0 38 -16.5 60.5t-43 34t-58 15t-61.5 3.5h-134v-240z" />
    <glyph glyph-name="uni044B" unicode="&#x44b;" horiz-adv-x="669" 
d="M73 0v527h42v-218h113q40 0 79 -5t70.5 -20t50.5 -43.5t19 -76.5q0 -46 -15.5 -77.5t-43 -50.5t-64 -27.5t-78.5 -8.5h-173zM115 34h94q35 0 69.5 3.5t63 15.5t46 38t17.5 70q0 38 -16 60.5t-42.5 34t-58 15t-61.5 3.5h-112v-240zM554 0v527h42v-527h-42z" />
    <glyph glyph-name="uni044A" unicode="&#x44a;" horiz-adv-x="604" 
d="M161 0v493h-141v34h183v-218h137q41 0 79.5 -6t70 -22t50 -44.5t18.5 -73.5q0 -46 -16 -77t-44 -50t-64.5 -27.5t-78.5 -8.5h-194zM203 34h121q35 0 69 3.5t61.5 15.5t44.5 38t17 70q0 38 -16.5 60.5t-44 34t-59.5 15t-62 3.5h-131v-240z" />
    <glyph glyph-name="uni0455" unicode="&#x455;" horiz-adv-x="504" 
d="M256 -7q-32 0 -65 6.5t-63 20.5t-52.5 36t-32.5 53h47q16 -31 44 -48.5t60.5 -24.5t62.5 -7q26 0 54 4.5t52.5 16t39.5 32t15 52.5q0 33 -16.5 52t-41.5 29.5t-49 15.5q-14 3 -30 6t-33 6q-30 5 -63 13.5t-62 24.5t-47 43t-18 69q0 41 16.5 68t44 43t62 23t70.5 7
q39 0 77.5 -11t67.5 -35t41 -63h-42q-18 39 -61 56t-84 17q-21 0 -47 -3t-49.5 -13.5t-39 -31.5t-15.5 -56q0 -34 17 -55t43 -32.5t53 -18.5q31 -7 64.5 -12.5t65.5 -13.5q35 -9 61 -24t41 -39t15 -60q0 -43 -18 -71t-47.5 -44.5t-65.5 -23.5t-72 -7z" />
    <glyph glyph-name="uni0454" unicode="&#x454;" horiz-adv-x="551" 
d="M300 -7q-82 0 -137 35t-82.5 95.5t-27.5 138.5t28.5 139.5t84.5 97t138 35.5q67 0 118.5 -31.5t74.5 -94.5h-46q-11 32 -34 51.5t-53 29t-64 9.5q-66 0 -111 -29t-68 -78.5t-26 -111.5h273v-35h-273q3 -59 26.5 -108t69 -78t112.5 -29q36 0 66.5 9t54 29t36.5 51h46
q-17 -42 -49 -70t-72 -41.5t-85 -13.5z" />
    <glyph glyph-name="uni044D" unicode="&#x44d;" horiz-adv-x="547" 
d="M256 -7q-46 0 -88 13.5t-74.5 41.5t-48.5 70h46q14 -33 42 -52.5t62.5 -28t65.5 -8.5q64 0 106.5 28t64.5 76.5t23 110.5h-276v35h277q-4 60 -25.5 109.5t-63 79.5t-104.5 30q-32 0 -66 -8.5t-61.5 -27.5t-41.5 -53h-43q16 43 48 70.5t73.5 41t86.5 13.5q81 0 134 -36.5
t79 -98t26 -136.5q0 -78 -26 -139t-79.5 -96t-136.5 -35z" />
    <glyph glyph-name="uni0456" unicode="&#x456;" horiz-adv-x="210" 
d="M83 0v527h42v-527h-42zM105 648q-17 0 -28.5 10.5t-11.5 28.5q0 13 5 21.5t14.5 13t20.5 4.5q18 0 29 -11t11 -28q0 -18 -11 -28.5t-29 -10.5z" />
    <glyph glyph-name="uni0457" unicode="&#x457;" horiz-adv-x="188" 
d="M73 0v527h42v-527h-42zM18 626q-19 0 -29.5 11.5t-10.5 27.5t10.5 27.5t29.5 11.5q18 0 29 -11t11 -28t-11 -28t-29 -11zM168 626q-18 0 -28.5 11.5t-10.5 27.5t10.5 27.5t29.5 11.5q18 0 29 -11t11 -28t-11 -28t-30 -11z" />
    <glyph glyph-name="uni0458" unicode="&#x458;" horiz-adv-x="240" 
d="M-18 -196v35h18q54 0 78.5 20t31 54.5t6.5 78.5v535h42v-539q0 -56 -11 -97.5t-44.5 -64t-101.5 -22.5h-19zM138 648q-17 0 -28 10.5t-11 28.5q0 13 5 21.5t14.5 13t20.5 4.5q19 0 29.5 -11t10.5 -28q0 -18 -11 -28.5t-30 -10.5z" />
    <glyph glyph-name="yucy" unicode="&#x44e;" horiz-adv-x="807" 
d="M510 -7q-114 0 -174 69t-68 184h-153v-246h-42v527h42v-246h153q6 76 34.5 132.5t80.5 88.5t128 32q83 0 137.5 -35.5t82 -96.5t27.5 -139t-28 -139t-83 -96t-137 -35zM511 29q72 0 117 31.5t66.5 85t21.5 117.5q0 65 -21.5 118.5t-66.5 85t-117 31.5t-116.5 -32.5
t-64.5 -85.5t-20 -117t21 -117.5t65.5 -85t114.5 -31.5z" />
    <glyph glyph-name="yacy" unicode="&#x44f;" horiz-adv-x="521" 
d="M44 0l148 218q-66 10 -109 46.5t-43 106.5q0 48 16 78.5t43.5 47.5t64 23.5t77.5 6.5h207v-527h-42v213h-169l-143 -213h-50zM268 248h138v244h-152q-32 0 -62.5 -3t-55.5 -14.5t-39.5 -34.5t-14.5 -64q0 -44 17.5 -69.5t45.5 -38t60.5 -16.5t62.5 -4z" />
    <glyph glyph-name="uni04C2" unicode="&#x4c2;" horiz-adv-x="741" 
d="M20 0l169 277l-153 250h48l148 -245h117v245h42v-245h117l149 245h48l-154 -250l170 -277h-48l-152 247h-130v-247h-42v247h-129l-152 -247h-48zM368 632q-37 0 -71 10.5t-57.5 33.5t-30.5 62h38q8 -31 27.5 -47t44.5 -22t50 -6t50 6t45 22t28 47h39q-8 -39 -32 -62
t-58.5 -33.5t-72.5 -10.5z" />
    <glyph glyph-name="zero" unicode="0" horiz-adv-x="663" 
d="M331 -8q-78 0 -130 30.5t-82 82t-43 116t-13 132.5q0 67 13 131.5t43.5 116.5t82 83t129.5 31t130 -31t83 -83t44 -116.5t13 -131.5t-13 -131.5t-44 -116.5t-83 -82.5t-130 -30.5zM331 28q70 0 114.5 29t68.5 77t33 105t9 114q0 56 -9 113t-33 105.5t-68.5 78
t-114.5 29.5t-114 -29.5t-68 -78t-33 -105.5t-9 -113q0 -57 9 -114t33 -105t68 -77t114 -29z" />
    <glyph glyph-name="one" unicode="1" horiz-adv-x="328" 
d="M172 0v602h-143v29q48 0 80 4t50.5 20t23.5 52h32v-707h-43z" />
    <glyph glyph-name="two" unicode="2" horiz-adv-x="560" 
d="M36 0v35l231 208q30 27 62.5 57.5t60.5 64.5t45 72t17 81q0 80 -50 120.5t-124 40.5q-51 0 -99 -19.5t-68 -68.5h-49q17 43 48 70t74.5 40.5t97.5 13.5q62 0 110.5 -22t76 -65.5t27.5 -107.5q0 -63 -26 -112t-66.5 -90.5t-86.5 -83.5l-217 -196h404v-38h-468z" />
    <glyph glyph-name="three" unicode="3" horiz-adv-x="589" 
d="M278 -8q-37 0 -75 6t-71.5 21t-58 40t-34.5 62h46q15 -37 47 -57.5t71.5 -28t75.5 -7.5q37 0 72.5 8.5t65 27t47 49t17.5 75.5q0 50 -19 80t-50.5 46.5t-70.5 22t-79 5.5h-71v37h51q34 0 71 8.5t68.5 27.5t51 49t19.5 73q0 52 -24.5 83t-64 45t-85.5 14q-36 0 -71.5 -7.5
t-62.5 -27.5t-39 -56h-46q9 41 32.5 66t55.5 38.5t66.5 18t65.5 4.5q41 0 79 -9t68.5 -29t48.5 -52.5t18 -79.5q0 -37 -13.5 -73t-44 -64t-81.5 -40q57 -4 95 -29.5t57.5 -65t19.5 -85.5q0 -54 -20.5 -91.5t-56 -60.5t-79.5 -33.5t-92 -10.5z" />
    <glyph glyph-name="four" unicode="4" horiz-adv-x="613" 
d="M437 0v151h-394v39l372 517h64v-518h91v-38h-91v-151h-42zM90 189h347v482z" />
    <glyph glyph-name="five" unicode="5" horiz-adv-x="605" 
d="M299 -8q-27 0 -61 5.5t-68 19.5t-61.5 39.5t-40.5 66.5h47q16 -35 46 -56t66 -30t69 -9q58 0 104 20.5t73 62t27 103.5q0 91 -49 138.5t-137 47.5q-55 0 -102.5 -26t-73.5 -58h-56l34 391h402v-38h-364l-28 -312q42 45 92.5 62.5t102.5 17.5q66 0 116.5 -27t79 -75.5
t28.5 -114.5q0 -77 -33.5 -127.5t-89.5 -75.5t-123 -25z" />
    <glyph glyph-name="six" unicode="6" horiz-adv-x="620" 
d="M328 -8q-75 0 -125.5 29.5t-80.5 78.5t-43 110t-13 124q0 71 13.5 138.5t45.5 122.5t85.5 87.5t132.5 32.5q44 0 81.5 -13t68 -39t49.5 -64h-46q-25 40 -67.5 60t-87.5 20q-63 0 -105 -25t-68 -67t-39 -92.5t-17 -102.5t-3 -97q24 55 60.5 85.5t79.5 43t86 12.5
q63 0 114 -27.5t81 -76.5t30 -113q0 -74 -31 -125t-83.5 -76.5t-117.5 -25.5zM327 28q59 0 101.5 24.5t66 65.5t23.5 92q0 56 -23.5 98.5t-65.5 66t-98 23.5q-48 0 -94 -21.5t-75.5 -63t-28.5 -101.5q1 -54 28 -95.5t71 -65t95 -23.5z" />
    <glyph glyph-name="seven" unicode="7" horiz-adv-x="498" 
d="M121 0l303 669h-406v38h452v-42l-301 -665h-48z" />
    <glyph glyph-name="eight" unicode="8" horiz-adv-x="608" 
d="M303 -8q-48 0 -91.5 10.5t-77.5 33.5t-53.5 60t-19.5 91q0 42 18.5 80.5t53 65t83.5 31.5q-42 11 -70 35.5t-42.5 59.5t-14.5 76q0 47 18 81t48.5 56t69 32.5t80.5 10.5q41 0 79.5 -11t69 -33.5t48.5 -56.5t18 -79q0 -41 -14.5 -75t-43.5 -58t-75 -36q54 -6 89.5 -33
t53 -65.5t17.5 -80.5q0 -53 -20 -90t-54.5 -60.5t-78 -34t-91.5 -10.5zM305 28q37 0 72.5 8t64.5 26.5t46 48.5t17 74q0 58 -30 93.5t-76 51.5t-94 16t-95 -16t-77.5 -51.5t-30.5 -93.5q0 -44 17.5 -74t46.5 -48.5t65.5 -26.5t73.5 -8zM306 381q39 0 79.5 16t68 48.5
t27.5 81.5q0 55 -25.5 88t-65.5 48.5t-85 15.5q-44 0 -84.5 -14.5t-66.5 -47t-26 -86.5q0 -52 26 -85.5t67 -49t85 -15.5z" />
    <glyph glyph-name="nine" unicode="9" horiz-adv-x="617" 
d="M290 -8q-42 0 -84 11.5t-75 37.5t-51 67h48q24 -42 70 -61t93 -19q71 0 114.5 30t66.5 79t31.5 106t8.5 111q0 13 -1 29.5t-4 42.5q-14 -53 -47 -87t-78.5 -50t-99.5 -16q-60 0 -109.5 25.5t-79 73.5t-29.5 117q0 70 29.5 120.5t81.5 78t120 27.5q78 0 128.5 -34.5
t79 -90.5t39.5 -122t11 -129q0 -67 -12 -129.5t-41 -111.5t-80.5 -77.5t-129.5 -28.5zM292 312q50 0 93 22t69.5 61.5t26.5 91.5q0 55 -24 98t-66 68.5t-98 25.5q-51 0 -94 -23.5t-68.5 -64t-25.5 -93.5q0 -87 50 -136.5t137 -49.5z" />
    <glyph glyph-name="zero.tf" horiz-adv-x="664" 
d="M331 -8q-78 0 -130 30.5t-82 82t-43 116t-13 132.5q0 67 13 131.5t43.5 116.5t82 83t129.5 31t130 -31t83 -83t44 -116.5t13 -131.5t-13 -131.5t-44 -116.5t-83 -82.5t-130 -30.5zM331 28q70 0 114.5 29t68.5 77t33 105t9 114q0 56 -9 113t-33 105.5t-68.5 78
t-114.5 29.5t-114 -29.5t-68 -78t-33 -105.5t-9 -113q0 -57 9 -114t33 -105t68 -77t114 -29z" />
    <glyph glyph-name="one.tf" horiz-adv-x="664" 
d="M315 0v602h-143v29q48 0 80 4t50.5 20t23.5 52h32v-707h-43z" />
    <glyph glyph-name="two.tf" horiz-adv-x="664" 
d="M95 0v35l231 208q30 27 62.5 57.5t60 64.5t45 72.5t17.5 80.5q0 80 -50 120.5t-124 40.5q-51 0 -99 -19.5t-68 -68.5h-49q17 43 47.5 70t73.5 40.5t95 13.5q65 0 114 -22t76.5 -65.5t27.5 -107.5q0 -63 -26 -112t-66.5 -90.5t-86.5 -83.5l-217 -196h404v-38h-468z" />
    <glyph glyph-name="three.tf" horiz-adv-x="664" 
d="M335 -8q-37 0 -75 6t-71.5 21t-58 40t-34.5 62h46q15 -37 47 -57.5t71.5 -28t75.5 -7.5q37 0 72.5 8.5t65 27t47 49t17.5 75.5q0 50 -19 80t-50.5 46.5t-70.5 22t-79 5.5h-71v37h51q34 0 71 8.5t68.5 27.5t51 49t19.5 73q0 52 -24.5 83t-64 45t-85.5 14q-36 0 -71.5 -7.5
t-62.5 -27.5t-39 -56h-46q9 41 32.5 66t55.5 38.5t66.5 18t65.5 4.5q41 0 79 -9t68.5 -29t48.5 -52.5t18 -79.5q0 -37 -13.5 -73t-44 -64t-81.5 -40q57 -4 95.5 -29.5t57.5 -65t19 -85.5q0 -54 -20.5 -91.5t-56 -60.5t-79.5 -33.5t-92 -10.5z" />
    <glyph glyph-name="four.tf" horiz-adv-x="664" 
d="M460 0v151h-394v39l372 517h64v-518h91v-38h-91v-151h-42zM113 189h347v482z" />
    <glyph glyph-name="five.tf" horiz-adv-x="664" 
d="M328 -8q-27 0 -61 5.5t-68 19.5t-61.5 39.5t-40.5 66.5h47q16 -35 46 -56t66 -30t69 -9q58 0 104 20.5t73 62t27 103.5q0 91 -49 138.5t-137 47.5q-57 0 -103 -25.5t-73 -58.5h-55l33 391h402v-38h-364l-28 -312q42 44 92.5 62t102.5 18q66 0 116.5 -27t79 -75.5
t28.5 -114.5q0 -77 -33.5 -127.5t-89.5 -75.5t-123 -25z" />
    <glyph glyph-name="six.tf" horiz-adv-x="664" 
d="M327 -8q-75 0 -125 29.5t-80 78.5t-43 110t-13 124q0 71 13.5 138.5t45 122.5t85 87.5t132.5 32.5q44 0 81.5 -13t68 -39t49.5 -64h-46q-25 40 -67.5 60t-87.5 20q-63 0 -105 -25t-68 -67t-39 -92.5t-17 -102.5t-3 -97q18 47 51.5 78t78.5 47t96 16q63 0 113.5 -27.5
t80.5 -76.5t30 -113q0 -74 -31 -125t-83 -76.5t-117 -25.5zM326 28q59 0 101.5 24.5t66 65.5t23.5 92q0 56 -23.5 98.5t-65.5 66t-98 23.5q-49 0 -94 -21.5t-74 -63t-29 -101.5q0 -54 27 -95.5t71 -65t95 -23.5z" />
    <glyph glyph-name="seven.tf" horiz-adv-x="664" 
d="M221 0l303 669h-406v38h452v-42l-301 -665h-48z" />
    <glyph glyph-name="eight.tf" horiz-adv-x="664" 
d="M331 -8q-48 0 -91.5 10.5t-77.5 33.5t-53.5 60t-19.5 91q0 42 18.5 80.5t53 65t83.5 31.5q-42 11 -70 35.5t-42.5 59.5t-14.5 76q0 47 18 81t48.5 56t69 32.5t80.5 10.5q41 0 79.5 -11t68.5 -33.5t48 -56t19 -79.5q1 -41 -13.5 -75t-44 -58t-75.5 -36q54 -6 89.5 -33
t53 -65.5t17.5 -80.5q0 -53 -20 -90t-54.5 -60.5t-78 -34t-91.5 -10.5zM333 28q37 0 72.5 8t64.5 26.5t46 48.5t17 74q0 58 -30 93.5t-76 51.5t-94 16t-95 -16t-77.5 -51.5t-30.5 -93.5q0 -44 17.5 -74t46.5 -48.5t65.5 -26.5t73.5 -8zM334 381q39 0 79.5 16t68 48.5
t27.5 81.5q0 55 -25.5 88t-65.5 48.5t-85 15.5q-44 0 -84.5 -14.5t-66.5 -47t-26 -86.5q0 -52 26 -85.5t67 -49t85 -15.5z" />
    <glyph glyph-name="nine.tf" horiz-adv-x="664" 
d="M331 -8q-42 0 -84 11.5t-75 37.5t-51 67h48q24 -42 70 -61t95 -19q71 0 114.5 30t66 79t30.5 106t8 111q0 13 -1 29.5t-4 42.5q-14 -53 -47 -87t-78.5 -50t-99.5 -16q-60 0 -110 25.5t-79.5 73.5t-29.5 117q0 70 29.5 120.5t82 78t120.5 27.5q73 0 123 -31t80 -84
t43 -120.5t13 -140.5q0 -67 -12 -129.5t-41.5 -111.5t-81 -77.5t-129.5 -28.5zM333 312q50 0 93 22t69.5 61.5t26.5 91.5q0 55 -24 98t-66 68.5t-98 25.5q-51 0 -94 -23.5t-68.5 -64t-25.5 -93.5q0 -87 50 -136.5t137 -49.5z" />
    <glyph glyph-name="uni00B2" unicode="&#xb2;" horiz-adv-x="349" 
d="M60 412v32l95 81q19 16 40 34.5t36.5 41t15.5 49.5q0 32 -19 49t-50 17q-21 0 -41 -8.5t-27 -30.5h-41q8 38 40.5 56t69.5 18q45 0 75.5 -24.5t30.5 -72.5q0 -45 -25.5 -75.5t-57.5 -57.5q-22 -19 -44 -37.5t-44 -37.5h175v-34h-229z" />
    <glyph glyph-name="uni00B3" unicode="&#xb3;" horiz-adv-x="359" 
d="M181 408q-26 0 -52 6.5t-44.5 23.5t-24.5 46h39q9 -24 34.5 -33t48.5 -9q31 0 54.5 13.5t23.5 49.5q0 39 -26 49.5t-58 10.5h-31v34h13q15 0 36 4t37 17t16 38q0 33 -19.5 46t-49.5 13q-21 0 -41.5 -9.5t-27.5 -31.5h-38q7 40 40 57.5t71 17.5q28 0 51 -9t37 -28.5
t14 -51.5q0 -29 -14.5 -45.5t-40.5 -27.5q33 -6 51.5 -26.5t18.5 -56.5q0 -34 -16.5 -56t-43 -32t-58.5 -10z" />
    <glyph glyph-name="space" unicode=" " horiz-adv-x="270" 
 />
    <glyph glyph-name="uni00A0" unicode="&#xa0;" horiz-adv-x="270" 
 />
    <glyph glyph-name="uni2009" unicode="&#x2009;" horiz-adv-x="110" 
 />
    <glyph glyph-name="uni202F" unicode="&#x202f;" horiz-adv-x="110" 
 />
    <glyph glyph-name="CR" unicode="&#xd;" horiz-adv-x="189" 
 />
    <glyph glyph-name="period" unicode="." horiz-adv-x="226" 
d="M113 -8q-19 0 -29.5 12t-10.5 29q0 18 11 29t29 11t29 -11t11 -29q0 -17 -10.5 -29t-29.5 -12z" />
    <glyph glyph-name="comma" unicode="," horiz-adv-x="230" 
d="M83 -108l-15 20q12 7 23.5 18.5t20.5 27.5t11 36q-13 -4 -32 4t-19 35q0 17 11.5 28.5t30.5 11.5q25 0 34.5 -17.5t9.5 -37.5q0 -27 -9.5 -51t-26 -43t-39.5 -32z" />
    <glyph glyph-name="colon" unicode=":" horiz-adv-x="226" 
d="M113 368q-20 0 -30 11.5t-10 29.5q0 12 5 21.5t14 14.5t21 5q19 0 29.5 -11.5t10.5 -29.5t-10 -29.5t-30 -11.5zM113 -8q-19 0 -29.5 11.5t-10.5 28.5q0 12 5 21.5t14 14.5t21 5q19 0 29.5 -11.5t10.5 -29.5q0 -17 -10.5 -28.5t-29.5 -11.5z" />
    <glyph glyph-name="semicolon" unicode=";" horiz-adv-x="230" 
d="M84 -108l-15 20q12 7 23.5 18.5t20.5 27.5t11 36q-13 -4 -32 4t-19 35q0 17 11.5 28.5t30.5 11.5q25 0 34.5 -17.5t9.5 -37.5q0 -27 -9.5 -51t-26 -43t-39.5 -32zM115 368q-18 0 -29 11.5t-11 29.5q0 12 5 21.5t14 14.5t21 5q19 0 30.5 -11.5t11.5 -29.5t-11 -29.5
t-31 -11.5z" />
    <glyph glyph-name="ellipsis" unicode="&#x2026;" horiz-adv-x="668" 
d="M554 -8q-19 0 -29.5 11.5t-10.5 28.5q0 12 5 21.5t14 14.5t21 5q19 0 29.5 -11.5t10.5 -29.5q0 -17 -10.5 -28.5t-29.5 -11.5zM114 -8q-19 0 -29.5 11.5t-10.5 28.5q0 12 5 21.5t14 14.5t21 5q19 0 29.5 -11.5t10.5 -29.5q0 -17 -10.5 -28.5t-29.5 -11.5zM334 -8
q-19 0 -29.5 11.5t-10.5 28.5q0 12 5 21.5t14 14.5t21 5q19 0 29.5 -11.5t10.5 -29.5q0 -17 -10.5 -28.5t-29.5 -11.5z" />
    <glyph glyph-name="exclam" unicode="!" horiz-adv-x="244" 
d="M104 177l-2 530h41l-2 -530h-37zM123 -8q-12 0 -21.5 5t-14.5 14t-5 21q0 13 5 21.5t14.5 13.5t21.5 5q16 0 27.5 -10.5t11.5 -30.5q0 -12 -5 -21t-13.5 -13.5t-20.5 -4.5z" />
    <glyph glyph-name="exclamdown" unicode="&#xa1;" horiz-adv-x="244" 
d="M101 -181l2 530h37l2 -530h-41zM121 454q-16 0 -27.5 10.5t-11.5 30.5q0 18 11 28.5t28 10.5q19 0 30 -11t11 -29q0 -19 -11 -29.5t-30 -10.5z" />
    <glyph glyph-name="question" unicode="?" horiz-adv-x="498" 
d="M199 204v7.5v7.5q0 26 8.5 48t22 42t30.5 38t35 34q23 21 46 47t38.5 56t15.5 62q0 44 -21 73.5t-55.5 44.5t-74.5 15q-31 0 -62.5 -8.5t-55.5 -27t-35 -49.5h-48q12 36 34.5 59.5t51 37t59 19t58.5 5.5q52 0 95.5 -18.5t69.5 -55t26 -92.5q0 -38 -13 -69.5t-37 -60
t-57 -59.5q-22 -21 -41 -41t-30.5 -44t-11.5 -56v-7.5v-7.5h-48zM225 -7q-19 0 -30 11t-11 29q0 19 11 29.5t30 10.5q16 0 27.5 -10.5t11.5 -30.5q0 -18 -11 -28.5t-28 -10.5z" />
    <glyph glyph-name="questiondown" unicode="&#xbf;" horiz-adv-x="498" 
d="M298 325v-7.5v-7.5q0 -25 -8.5 -47.5t-22 -42.5t-30.5 -37.5t-35 -34.5q-22 -21 -45.5 -47t-39 -55.5t-15.5 -62.5q0 -44 21 -73.5t55.5 -44.5t74.5 -15q31 0 62.5 8.5t56 27.5t34.5 49h48q-12 -36 -34.5 -59.5t-51 -37t-59 -19t-58.5 -5.5q-52 0 -95.5 18.5t-69.5 55.5
t-26 92q0 38 13 69.5t37.5 60.5t56.5 59q23 21 41.5 41t30 44t11.5 56v7.5v7.5h48zM272 536q19 0 30 -11t11 -29q0 -19 -11 -29.5t-30 -10.5q-16 0 -27.5 10.5t-11.5 30.5q0 18 11 28.5t28 10.5z" />
    <glyph glyph-name="periodcentered" unicode="&#xb7;" horiz-adv-x="229" 
d="M115 315q-18 0 -29 10t-11 29q0 17 10.5 27.5t29.5 10.5t29 -10.5t10 -27.5q0 -18 -10 -28.5t-29 -10.5z" />
    <glyph glyph-name="bullet" unicode="&#x2022;" horiz-adv-x="306" 
d="M153 275q-28 0 -48 12t-30.5 32.5t-10.5 45.5q0 38 24 64t65 26q28 0 47.5 -12t30.5 -32t11 -46q0 -38 -23.5 -64t-65.5 -26z" />
    <glyph glyph-name="asterisk" unicode="*" horiz-adv-x="404" 
d="M137 497l-25 16l66 90l-105 32l9 28l105 -34v110h31v-110l103 34l10 -28l-104 -33l65 -89l-25 -16l-65 89z" />
    <glyph glyph-name="numbersign" unicode="#" horiz-adv-x="650" 
d="M147 0l22 194h-104v35h108l27 250h-104v35h107l20 193h42l-20 -193h195l20 193h41l-21 -193h105v-35h-109l-27 -250h105v-35h-108l-21 -194h-40l20 194h-195l-22 -194h-41zM214 229h196l26 250h-196z" />
    <glyph glyph-name="slash" unicode="/" horiz-adv-x="440" 
d="M39 -178l315 985h47l-315 -985h-47z" />
    <glyph glyph-name="backslash" unicode="\" horiz-adv-x="440" 
d="M354 -178l-315 985h47l315 -985h-47z" />
    <glyph glyph-name="colon.case" horiz-adv-x="226" 
d="M113 490q-19 0 -29.5 12t-10.5 30q0 12 5 21t14 14t21 5q19 0 29.5 -11t10.5 -29t-10.5 -30t-29.5 -12zM113 114q-19 0 -29.5 12t-10.5 29q0 12 5 21t14 14t21 5q19 0 29.5 -11t10.5 -28q0 -18 -10.5 -30t-29.5 -12z" />
    <glyph glyph-name="periodcentered.loclCAT" horiz-adv-x="226" 
d="M113 302q-19 0 -29.5 12t-10.5 29q0 18 11 29t29 11t29 -11t11 -29q0 -17 -10.5 -29t-29.5 -12z" />
    <glyph glyph-name="period.tf" horiz-adv-x="230" 
d="M115 -8q-19 0 -29.5 12t-10.5 29q0 18 11 29t29 11t29 -11t11 -29q0 -17 -10.5 -29t-29.5 -12z" />
    <glyph glyph-name="comma.tf" horiz-adv-x="234" 
d="M83 -108l-15 20q12 7 23.5 18.5t20.5 27.5t11 36q-13 -4 -32 4t-19 35q0 17 11.5 28.5t30.5 11.5q25 0 34.5 -17.5t9.5 -37.5q0 -27 -9.5 -51t-26 -43t-39.5 -32z" />
    <glyph glyph-name="colon.tf" horiz-adv-x="230" 
d="M115 368q-20 0 -30 11.5t-10 29.5q0 12 5 21.5t14 14.5t21 5q19 0 29.5 -11.5t10.5 -29.5t-10 -29.5t-30 -11.5zM115 -8q-19 0 -29.5 11.5t-10.5 28.5q0 12 5 21.5t14 14.5t21 5q19 0 29.5 -11.5t10.5 -29.5q0 -17 -10.5 -28.5t-29.5 -11.5z" />
    <glyph glyph-name="semicolon.tf" horiz-adv-x="234" 
d="M84 -108l-15 20q12 7 23.5 18.5t20.5 27.5t11 36q-13 -4 -32 4t-19 35q0 17 11.5 28.5t30.5 11.5q25 0 34.5 -17.5t9.5 -37.5q0 -27 -9.5 -51t-26 -43t-39.5 -32zM115 368q-18 0 -29 11.5t-11 29.5q0 12 5 21.5t14 14.5t21 5q19 0 30.5 -11.5t11.5 -29.5t-11 -29.5
t-31 -11.5z" />
    <glyph glyph-name="periodcentered.loclCAT.case" horiz-adv-x="226" 
d="M113 322q-19 0 -29.5 12t-10.5 29q0 18 11 29t29 11t29 -11t11 -29q0 -17 -10.5 -29t-29.5 -12z" />
    <glyph glyph-name="colon.case.tf" horiz-adv-x="230" 
d="M115 490q-19 0 -29.5 12t-10.5 30q0 12 5 21t14 14t21 5q19 0 29.5 -11t10.5 -29t-10.5 -30t-29.5 -12zM115 114q-19 0 -29.5 12t-10.5 29q0 12 5 21t14 14t21 5q19 0 29.5 -11t10.5 -28q0 -18 -10.5 -30t-29.5 -12z" />
    <glyph glyph-name="hyphen" unicode="-" horiz-adv-x="440" 
d="M80 260v37h280v-37h-280z" />
    <glyph glyph-name="endash" unicode="&#x2013;" horiz-adv-x="568" 
d="M80 260v37h408v-37h-408z" />
    <glyph glyph-name="emdash" unicode="&#x2014;" horiz-adv-x="761" 
d="M80 260v37h601v-37h-601z" />
    <glyph glyph-name="underscore" unicode="_" horiz-adv-x="455" 
d="M3 -188v37h449v-37h-449z" />
    <glyph glyph-name="hyphen.case" horiz-adv-x="440" 
d="M80 318v37h280v-37h-280z" />
    <glyph glyph-name="endash.case" horiz-adv-x="568" 
d="M80 318v37h408v-37h-408z" />
    <glyph glyph-name="emdash.case" horiz-adv-x="761" 
d="M80 318v37h601v-37h-601z" />
    <glyph glyph-name="parenleft" unicode="(" horiz-adv-x="267" 
d="M243 -225q-56 81 -94.5 166t-58 175t-19.5 184q0 95 20.5 187.5t60 178t95.5 158.5h45q-57 -78 -97 -160t-61 -171.5t-21 -192.5q0 -101 21.5 -190.5t62 -171.5t96.5 -163h-50z" />
    <glyph glyph-name="parenright" unicode=")" horiz-adv-x="267" 
d="M25 -225h-50q56 81 96.5 163t62 171.5t21.5 190.5q0 103 -21 192.5t-61 171.5t-97 160h45q57 -73 96 -158.5t59.5 -178t20.5 -187.5q0 -94 -19.5 -184t-57.5 -175t-95 -166z" />
    <glyph glyph-name="braceleft" unicode="{" horiz-adv-x="371" 
d="M248 -197q-50 0 -75.5 19t-25.5 72v233q0 39 -7 73t-29 57.5t-68 29.5v25q45 6 67 28.5t29.5 56.5t7.5 73v236q0 53 25 71.5t76 18.5h58v-35h-59q-36 0 -49.5 -12t-14.5 -34.5t-1 -52.5v-207q0 -46 -14.5 -88.5t-64.5 -66.5q34 -12 51 -37t22.5 -55t5.5 -59v-217
q0 -40 5 -60t21 -27t48 -7h50v-35h-58z" />
    <glyph glyph-name="braceright" unicode="}" horiz-adv-x="371" 
d="M123 -197h-58v35h50q32 0 48 7t21 27t5 60v217q0 29 5.5 59t22.5 55t51 37q-50 24 -64.5 66.5t-14.5 88.5v207q0 30 -1 52.5t-14 34.5t-50 12h-59v35h58q51 0 76 -18.5t25 -71.5v-236q0 -39 7.5 -73t30 -56.5t66.5 -28.5v-25q-45 -6 -67.5 -29.5t-29.5 -57.5t-7 -73v-233
q0 -53 -25.5 -72t-75.5 -19z" />
    <glyph glyph-name="bracketleft" unicode="[" horiz-adv-x="300" 
d="M93 -197v993h166v-34h-124v-926h124v-33h-166z" />
    <glyph glyph-name="bracketright" unicode="]" horiz-adv-x="299" 
d="M41 -197v33h123v926h-123v34h165v-993h-165z" />
    <glyph glyph-name="quotesinglbase" unicode="&#x201a;" horiz-adv-x="231" 
d="M84 -108l-15 20q12 7 23.5 18.5t20.5 27.5t11 36q-13 -4 -32 4t-19 35q0 17 11.5 28.5t30.5 11.5q25 0 34.5 -17.5t9.5 -37.5q0 -27 -9.5 -51t-26 -43t-39.5 -32z" />
    <glyph glyph-name="quotedblbase" unicode="&#x201e;" horiz-adv-x="383" 
d="M234 -108l-15 20q12 7 23.5 18.5t20.5 27.5t11 36q-13 -4 -32 4t-19 35q0 17 11.5 28.5t30.5 11.5q25 0 34.5 -17.5t9.5 -37.5q0 -27 -9.5 -51t-26 -43t-39.5 -32zM84 -108l-15 20q12 7 23.5 18.5t20.5 27.5t11 36q-13 -4 -32 4t-19 35q0 17 11.5 28.5t30.5 11.5
q25 0 34.5 -17.5t9.5 -37.5q0 -27 -9.5 -51t-26 -43t-39.5 -32z" />
    <glyph glyph-name="quotedblleft" unicode="&#x201c;" horiz-adv-x="387" 
d="M267 551q-25 0 -34.5 17.5t-9.5 37.5q0 28 9.5 52t26.5 43t39 31l15 -20q-11 -6 -23 -18t-20.5 -28t-11.5 -36q9 2 21 0t21 -11t9 -28q0 -17 -11.5 -28.5t-30.5 -11.5zM117 551q-25 0 -34.5 17.5t-9.5 37.5q0 28 9.5 52t26.5 43t39 31l15 -20q-11 -6 -23 -18t-20.5 -28
t-11.5 -36q9 2 21 0t21 -11t9 -28q0 -17 -11.5 -28.5t-30.5 -11.5z" />
    <glyph glyph-name="quotedblright" unicode="&#x201d;" horiz-adv-x="383" 
d="M234 551l-15 20q12 7 23.5 18.5t20.5 27.5t11 36q-13 -4 -32 4t-19 35q0 17 11.5 28.5t30.5 11.5q25 0 34.5 -17.5t9.5 -37.5q0 -27 -9.5 -51t-26 -43t-39.5 -32zM84 551l-15 20q12 7 23.5 18.5t20.5 27.5t11 36q-13 -4 -32 4t-19 35q0 17 11.5 28.5t30.5 11.5
q25 0 34.5 -17.5t9.5 -37.5q0 -27 -9.5 -51t-26 -43t-39.5 -32z" />
    <glyph glyph-name="quoteleft" unicode="&#x2018;" horiz-adv-x="233" 
d="M117 551q-25 0 -34.5 17.5t-9.5 37.5q0 28 9.5 52t26.5 43t39 31l15 -20q-11 -6 -23 -18t-20.5 -28t-11.5 -36q9 2 21 0t21 -11t9 -28q0 -17 -11.5 -28.5t-30.5 -11.5z" />
    <glyph glyph-name="quoteright" unicode="&#x2019;" horiz-adv-x="232" 
d="M84 551l-15 20q12 7 23.5 18.5t20.5 27.5t11 36q-13 -4 -32 4t-19 35q0 17 11.5 28.5t30.5 11.5q20 0 32 -14.5t12 -40.5q0 -27 -9.5 -51t-26 -43t-39.5 -32z" />
    <glyph glyph-name="guillemotleft" unicode="&#xab;" horiz-adv-x="443" 
d="M153 97l-108 160l108 162h41l-109 -161l108 -161h-40zM340 97l-108 160l108 162h41l-108 -161l107 -161h-40z" />
    <glyph glyph-name="guillemotright" unicode="&#xbb;" horiz-adv-x="443" 
d="M250 97l108 161l-109 161h41l108 -160l-108 -162h-40zM63 97l107 161l-108 161h41l108 -160l-108 -162h-40z" />
    <glyph glyph-name="guilsinglleft" unicode="&#x2039;" horiz-adv-x="256" 
d="M153 97l-108 160l108 162h40l-107 -161l107 -161h-40z" />
    <glyph glyph-name="guilsinglright" unicode="&#x203a;" horiz-adv-x="256" 
d="M63 97l106 161l-106 161h40l108 -160l-108 -162h-40z" />
    <glyph glyph-name="quotedbl" unicode="&#x22;" horiz-adv-x="299" 
d="M196 503l-7 204h47l-5 -204h-35zM69 503l-6 204h46l-5 -204h-35z" />
    <glyph glyph-name="quotesingle" unicode="'" horiz-adv-x="172" 
d="M69 503l-6 204h46l-5 -204h-35z" />
    <glyph glyph-name="quotesinglbase.tf" horiz-adv-x="234" 
d="M83 -108l-15 20q12 7 23.5 18.5t20.5 27.5t11 36q-13 -4 -32 4t-19 35q0 17 11.5 28.5t30.5 11.5q25 0 34.5 -17.5t9.5 -37.5q0 -27 -9.5 -51t-26 -43t-39.5 -32z" />
    <glyph glyph-name="quotedblbase.tf" horiz-adv-x="285" 
d="M187 -108l-15 20q12 7 23.5 18.5t20.5 27.5t11 36q-13 -4 -32 4t-19 35q0 17 11.5 28.5t30.5 11.5q25 0 34.5 -17.5t9.5 -37.5q0 -27 -9.5 -51t-26 -43t-39.5 -32zM37 -108l-15 20q12 7 23.5 18.5t20.5 27.5t11 36q-13 -4 -32 4t-19 35q0 17 11.5 28.5t30.5 11.5
q25 0 34.5 -17.5t9.5 -37.5q0 -27 -9.5 -51t-26 -43t-39.5 -32z" />
    <glyph glyph-name="quotedblleft.tf" horiz-adv-x="285" 
d="M216 551q-25 0 -34.5 17.5t-9.5 37.5q0 28 9.5 52t26.5 43t39 31l15 -20q-11 -6 -23 -18t-20.5 -28t-11.5 -36q9 2 21 0t21 -11t9 -28q0 -17 -11.5 -28.5t-30.5 -11.5zM66 551q-25 0 -34.5 17.5t-9.5 37.5q0 28 9.5 52t26.5 43t39 31l15 -20q-11 -6 -23 -18t-20.5 -28
t-11.5 -36q9 2 21 0t21 -11t9 -28q0 -17 -11.5 -28.5t-30.5 -11.5z" />
    <glyph glyph-name="quotedblright.tf" horiz-adv-x="285" 
d="M187 551l-15 20q12 7 23.5 18.5t20.5 27.5t11 36q-13 -4 -32 4t-19 35q0 17 11.5 28.5t30.5 11.5q25 0 34.5 -17.5t9.5 -37.5q0 -27 -9.5 -51t-26 -43t-39.5 -32zM37 551l-15 20q12 7 23.5 18.5t20.5 27.5t11 36q-13 -4 -32 4t-19 35q0 17 11.5 28.5t30.5 11.5
q25 0 34.5 -17.5t9.5 -37.5q0 -27 -9.5 -51t-26 -43t-39.5 -32z" />
    <glyph glyph-name="quoteleft.tf" horiz-adv-x="234" 
d="M113 551q-25 0 -34.5 17.5t-9.5 37.5q0 28 9.5 52t26.5 43t39 31l15 -20q-11 -6 -23 -18t-20.5 -28t-11.5 -36q9 2 21 0t21 -11t9 -28q0 -17 -11.5 -28.5t-30.5 -11.5z" />
    <glyph glyph-name="quoteright.tf" horiz-adv-x="233" 
d="M83 551l-15 20q12 7 23.5 18.5t20.5 27.5t11 36q-13 -4 -32 4t-19 35q0 17 11.5 28.5t30.5 11.5q25 0 34.5 -17.5t9.5 -37.5q0 -27 -9.5 -51t-26 -43t-39.5 -32z" />
    <glyph glyph-name="quotedbl.tf" horiz-adv-x="273" 
d="M183 503l-7 204h47l-5 -204h-35zM56 503l-6 204h46l-5 -204h-35z" />
    <glyph glyph-name="quotesingle.tf" horiz-adv-x="228" 
d="M97 503l-6 204h46l-5 -204h-35z" />
    <glyph glyph-name="uni2713" unicode="&#x2713;" horiz-adv-x="1059" 
d="M373 2l-308 353l40 34l266 -312l582 730l41 -33z" />
    <glyph glyph-name="at" unicode="@" horiz-adv-x="1000" 
d="M492 -188q-93 2 -169.5 32t-131.5 84.5t-85 131t-30 171.5q0 102 31 190t90 154t144 103t191 37q93 0 166 -31.5t123.5 -89t77 -134t26.5 -166.5q0 -47 -8 -92.5t-27 -83t-51.5 -60t-81.5 -22.5q-44 0 -78 22.5t-38 80.5q-22 -40 -50.5 -61t-59 -29t-59.5 -8
q-56 0 -92.5 26t-54 69t-17.5 95q0 47 12.5 90t37.5 76.5t63 53.5t88 20q24 0 51.5 -7.5t52 -27t39.5 -56.5l7 73h38q-8 -67 -13.5 -133t-8.5 -132q-1 -30 4.5 -57.5t24 -44.5t56.5 -17t62.5 22t38.5 56.5t20 72t6 67.5q0 80 -22 151t-66 125t-111 85t-157 31
q-99 0 -175 -35.5t-128 -97.5t-79 -142.5t-27 -171.5q0 -112 47 -197.5t133 -133.5t202 -50h30.5t29 1.5t28.5 3.5l1 -40q-25 -4 -52.5 -4.5t-48.5 0.5zM479 76q50 0 87 29t57.5 73t20.5 89q0 43 -13.5 81.5t-44 63.5t-80.5 25q-55 0 -91 -31t-53 -78t-17 -95q0 -31 8 -59.5
t24 -50.5t41.5 -34.5t60.5 -12.5z" />
    <glyph glyph-name="ampersand" unicode="&#x26;" horiz-adv-x="650" 
d="M278 -8q-42 0 -79.5 11.5t-65.5 34t-44 56t-16 78.5q0 49 22 87.5t59 69t81 52.5q-35 35 -62 79t-27 94q0 52 21 88t59.5 54.5t90.5 18.5q43 0 77.5 -17.5t54.5 -49.5t20 -76q0 -45 -23 -82t-62.5 -66.5t-89.5 -53.5l200 -233q28 38 44 74t23 74h41q-8 -47 -30 -94.5
t-49 -81.5l97 -109h-56l-69 76q-51 -48 -104 -66t-113 -18zM281 29q50 0 101.5 19t86.5 58l-210 246q-36 -19 -68 -44.5t-52 -58.5t-20 -75q0 -49 22.5 -81t59.5 -48t80 -16zM271 397q33 18 70.5 41.5t64 55.5t26.5 74q0 34 -16 58.5t-42.5 38.5t-58.5 14q-59 0 -93.5 -31.5
t-34.5 -89.5q0 -32 13.5 -61.5t33 -54.5t37.5 -45z" />
    <glyph glyph-name="paragraph" unicode="&#xb6;" horiz-adv-x="514" 
d="M193 0v419h-16q-45 0 -77 17.5t-48.5 50t-16.5 78.5q0 44 19 76t52.5 49t75.5 17h297v-38h-82v-669h-42v669h-120v-669h-42z" />
    <glyph glyph-name="section" unicode="&#xa7;" horiz-adv-x="535" 
d="M281 -8q-33 0 -66 5.5t-63 18t-52.5 34t-34.5 53.5h45q15 -28 44 -44.5t62.5 -24t60.5 -7.5q44 0 78 9.5t54 30.5t20 55q0 32 -13.5 50.5t-35.5 28.5t-47 15q-22 4 -46 8.5t-47.5 9t-43.5 8.5q-54 11 -89.5 40t-35.5 81q0 37 19.5 69t53.5 53q-32 16 -47.5 42.5
t-15.5 53.5q0 39 16.5 65t43.5 41t61 21.5t68 6.5q38 0 74.5 -10t64 -33t38.5 -61h-37q-10 27 -34 43t-53 23t-56 7q-33 0 -67.5 -7.5t-58 -29t-23.5 -63.5q0 -24 12 -41.5t31 -28.5t39 -17q27 -7 54.5 -13l55 -12t53.5 -13q48 -13 76 -39t28 -77q0 -34 -18 -61.5t-53 -48.5
q36 -14 54.5 -41t18.5 -62q0 -40 -16.5 -67t-43.5 -42.5t-60.5 -22t-67.5 -6.5zM358 246q16 5 32.5 18t28.5 32t12 41q0 42 -20 61t-51 29q-46 14 -90.5 20.5t-94.5 22.5q-29 -19 -47.5 -45.5t-18.5 -53.5q0 -39 21 -59t51.5 -28.5t57.5 -14.5q31 -6 59 -11t60 -12z" />
    <glyph glyph-name="copyright" unicode="&#xa9;" horiz-adv-x="942" 
d="M471 -129q-127 0 -218 54t-139.5 149t-48.5 218q0 124 49.5 219t141 149.5t215.5 54.5q125 0 216 -54.5t140.5 -149.5t49.5 -219q0 -123 -48.5 -218t-139.5 -149t-218 -54zM471 -92q115 0 196.5 50.5t124.5 137.5t43 196q0 110 -43.5 197t-125 137.5t-195.5 50.5
q-113 0 -195 -50t-125.5 -137t-43.5 -198q0 -110 43.5 -197t125 -137t195.5 -50zM483 87q-62 0 -103 27t-61.5 73.5t-20.5 105.5q0 58 20.5 104.5t62 74t103.5 27.5q54 0 93 -22.5t57 -75.5h-39q-14 35 -42 50.5t-66 15.5q-56 0 -89 -24t-47.5 -63.5t-14.5 -86.5
q0 -46 15.5 -86t48 -64t84.5 -24q38 0 71.5 15t48.5 50h39q-12 -34 -35.5 -55.5t-55 -31.5t-69.5 -10z" />
    <glyph glyph-name="registered" unicode="&#xae;" horiz-adv-x="472" 
d="M235 386q-54 0 -95 20.5t-63.5 60t-22.5 95.5q0 58 23 98.5t64 62.5t94 22q56 0 96.5 -23t62 -64.5t21.5 -95.5q0 -55 -21.5 -94.5t-62 -60.5t-96.5 -21zM235 406q74 0 116 41.5t42 114.5t-41.5 118t-116.5 45q-73 0 -116 -45t-43 -118t43 -114.5t116 -41.5zM174 480v175
h72q27 0 43.5 -13t16.5 -39q0 -19 -10.5 -34t-36.5 -17l48 -72h-21l-47 71h-47v-71h-18zM192 568h56q17 0 29 7.5t12 27.5t-13 27.5t-28 7.5h-56v-70z" />
    <glyph glyph-name="uni2117" unicode="&#x2117;" horiz-adv-x="942" 
d="M471 -129q-95 0 -170.5 31t-128 87t-80 133t-27.5 170t28.5 170t81.5 134t128 88t168 31t168 -31t128 -88t81.5 -134t28.5 -170t-27.5 -170t-80 -133t-128 -87t-170.5 -31zM471 -92q115 0 196.5 50.5t125 137.5t43.5 196q0 110 -44 197t-125.5 137.5t-195.5 50.5
q-113 0 -195 -50t-126 -137t-44 -198q0 -110 44 -197t125.5 -137t195.5 -50zM356 78v415h140q44 0 79 -14.5t55 -44t20 -75.5t-22 -77t-59.5 -46t-86.5 -15h-86v-143h-40zM396 257h84q37 0 66 9t46.5 31t17.5 62q0 56 -34 77t-85 21h-95v-200z" />
    <glyph glyph-name="trademark" unicode="&#x2122;" horiz-adv-x="609" 
d="M317 468v239h36l76 -130l78 130h33v-239h-28v197l-73 -125h-20l-75 130v-202h-27zM154 468v213h-90v26h207v-26h-90v-213h-27z" />
    <glyph glyph-name="degree" unicode="&#xb0;" horiz-adv-x="352" 
d="M174 585q-38 0 -64.5 15.5t-40.5 42t-14 60.5q0 36 15 62t42 40.5t63 14.5q38 0 63.5 -16t39 -42.5t13.5 -58.5q0 -34 -13.5 -60.5t-39.5 -42t-64 -15.5zM174 616q39 0 61 24.5t22 62.5t-22 62t-61 24t-61.5 -24t-22.5 -62q0 -39 22.5 -63t61.5 -24z" />
    <glyph glyph-name="bar" unicode="|" horiz-adv-x="228" 
d="M93 -178v985h42v-985h-42z" />
    <glyph glyph-name="uni2116" unicode="&#x2116;" horiz-adv-x="1073" 
d="M93 0v707h61l455 -658v658h42v-707h-58l-458 659v-659h-42zM752 292v37h249v-37h-249zM873 429q-42 0 -70.5 18.5t-43.5 51t-15 73.5q0 42 14.5 74t44 50.5t72.5 18.5t71 -20.5t42.5 -53.5t14.5 -69q0 -40 -15 -72.5t-44 -51.5t-71 -19zM875 464q35 0 54.5 16.5t28 41.5
t8.5 51q0 22 -8.5 47t-28 42.5t-54.5 17.5q-34 0 -54.5 -15.5t-29.5 -40t-9 -52.5t9 -52.5t29.5 -40t54.5 -15.5z" />
    <glyph glyph-name="cent" unicode="&#xa2;" horiz-adv-x="576" 
d="M273 -163v158q-73 6 -122 41.5t-73.5 94t-24.5 131.5q0 74 25 132.5t74 95t121 42.5v150h42v-148q63 -3 111 -34.5t70 -91.5h-45q-17 46 -59 68t-92 22q-69 0 -114.5 -31.5t-68 -85t-22.5 -119.5q0 -63 21.5 -116t67.5 -85t118 -32q53 0 96 21t63 68h45
q-24 -60 -76 -90.5t-115 -33.5v-157h-42z" />
    <glyph glyph-name="dollar" unicode="$" horiz-adv-x="647" 
d="M308 -146v138q-55 4 -104 21t-85 50.5t-54 85.5h47q20 -46 55.5 -71.5t80 -35.5t90.5 -10t91.5 13.5t76 45.5t30.5 85q0 43 -19.5 70.5t-51 44.5t-68.5 26q-28 7 -53 13.5t-50.5 13t-53.5 13.5q-66 17 -110.5 60t-44.5 113q0 65 32 106.5t84 61t112 17.5v137h43v-138
q52 -1 94 -19t70.5 -51t37.5 -82h-43q-10 44 -39 69.5t-68 36.5t-82 11q-46 0 -91 -12t-74.5 -43t-29.5 -88q0 -45 18 -73t49.5 -44t69.5 -27q42 -11 83.5 -20.5t82.5 -21.5q40 -12 73 -34t53.5 -54.5t20.5 -75.5q0 -70 -32 -111.5t-84.5 -60.5t-114.5 -22v-138h-42z" />
    <glyph glyph-name="Euro" unicode="&#x20ac;" horiz-adv-x="674" 
d="M439 -8q-78 0 -136 29.5t-94.5 85t-52.5 133.5h-101l7 38h90q-3 28 -4 53.5t1 50.5t5 51h-98l7 37h97q27 112 96 178.5t182 66.5q50 0 92.5 -12.5t77.5 -37.5l-19 -32q-36 25 -72.5 35.5t-81.5 10.5q-60 0 -106.5 -27t-78.5 -74t-47 -108h336l-6 -37h-337
q-2 -21 -3.5 -49t-1 -56t4.5 -50h309l-7 -38h-297q20 -99 83 -155.5t159 -56.5q46 0 83 12t72 39l23 -31q-37 -30 -85.5 -43t-96.5 -13z" />
    <glyph glyph-name="uni20B4" unicode="&#x20b4;" horiz-adv-x="585" 
d="M287 -8q-19 0 -49.5 4.5t-61.5 18t-52 41.5t-22 75q0 17 6 44.5t26 52.5h-81v36h114l172 137h-286v36h326q32 23 55 58t23 73t-19.5 62.5t-52 36.5t-70.5 12q-23 0 -54 -6t-58 -23t-39 -50h-50q11 33 32 55t49 35.5t59 19t62 5.5q33 0 65 -7.5t59 -24.5t43 -44.5
t16 -68.5q0 -34 -14 -61t-30.5 -45t-25.5 -27h103l-1 -36h-134l-176 -137h310v-36h-350q-17 -15 -26.5 -40.5t-9.5 -47.5q0 -41 21.5 -65.5t54 -35.5t64.5 -11q29 0 61.5 5t60.5 20.5t42 45.5h47q-11 -30 -33 -50.5t-51 -33t-61.5 -18t-63.5 -5.5z" />
    <glyph glyph-name="uni20BD" unicode="&#x20bd;" horiz-adv-x="701" 
d="M169 0v98h-104v37h104v131h-104v37h104v404h232q57 0 102 -12t77 -38.5t49 -68t17 -100.5q0 -78 -34.5 -127t-94 -72t-133.5 -23h-173v-131h310v-37h-310v-98h-42zM211 303h170q66 0 116.5 18.5t78.5 60t28 110.5q0 98 -56 137.5t-151 39.5h-186v-366z" />
    <glyph glyph-name="sterling" unicode="&#xa3;" horiz-adv-x="576" 
d="M65 0v38h88v280h-88v37h88v176q0 62 22.5 102.5t64.5 61t102 20.5q58 0 104 -27t59 -83h-42q-9 26 -27.5 42.5t-42 24t-49.5 7.5q-52 0 -85.5 -17t-49.5 -51.5t-16 -86.5v-169h221v-37h-221v-280h318v-38h-446z" />
    <glyph glyph-name="yen" unicode="&#xa5;" horiz-adv-x="634" 
d="M295 0v103h-154v35h154v124h-154v36h136l-232 409h51l222 -402l220 402h51l-232 -409h134v-36h-153v-124h153v-35h-153v-103h-43z" />
    <glyph glyph-name="plus" unicode="+" horiz-adv-x="550" 
d="M252 171v165h-151v38h151v162h43v-162h154v-38h-154v-165h-43z" />
    <glyph glyph-name="minus" unicode="&#x2212;" horiz-adv-x="550" 
d="M101 336v38h348v-38h-348z" />
    <glyph glyph-name="multiply" unicode="&#xd7;" horiz-adv-x="550" 
d="M127 182l-23 23l150 148l-150 149l24 23l148 -151l147 151l23 -23l-148 -149l148 -148l-23 -23l-148 149z" />
    <glyph glyph-name="divide" unicode="&#xf7;" horiz-adv-x="550" 
d="M111 340v37h329v-37h-329zM276 134q-20 0 -30.5 11.5t-10.5 29.5q0 12 5 21t14 14t21 5q19 0 29.5 -11t10.5 -29t-10 -29.5t-29 -11.5zM276 502q-20 0 -30.5 11.5t-10.5 29.5q0 12 5 21t14 14t21 5q19 0 29.5 -11t10.5 -29t-10 -29.5t-29 -11.5z" />
    <glyph glyph-name="equal" unicode="=" horiz-adv-x="550" 
d="M86 458v37h379v-37h-379zM86 203v37h379v-37h-379z" />
    <glyph glyph-name="notequal" unicode="&#x2260;" horiz-adv-x="550" 
d="M86 0l97 203h-97v37h115l104 218h-219v37h237l99 208h43l-100 -208h100v-37h-117l-104 -218h221v-37h-239l-97 -203h-43z" />
    <glyph glyph-name="greater" unicode="&#x3e;" horiz-adv-x="550" 
d="M121 126v44l263 180l-263 182v43l309 -214v-22z" />
    <glyph glyph-name="less" unicode="&#x3c;" horiz-adv-x="550" 
d="M430 126l-309 213v22l309 214v-43l-263 -181l263 -181v-44z" />
    <glyph glyph-name="greaterequal" unicode="&#x2265;" horiz-adv-x="550" 
d="M86 214v43l323 177l-323 178v43l379 -210v-22zM86 131v37h379v-37h-379z" />
    <glyph glyph-name="lessequal" unicode="&#x2264;" horiz-adv-x="550" 
d="M465 214l-379 210v22l379 209v-43l-323 -177l323 -178v-43zM86 131v37h379v-37h-379z" />
    <glyph glyph-name="plusminus" unicode="&#xb1;" horiz-adv-x="550" 
d="M252 265v165h-151v38h151v162h43v-162h154v-38h-154v-165h-43zM101 151v38h348v-38h-348z" />
    <glyph glyph-name="approxequal" unicode="&#x2248;" horiz-adv-x="550" 
d="M383 397q-36 0 -64 16t-51.5 37.5t-48 37.5t-53.5 16t-46.5 -14.5t-24.5 -37t-7 -47.5h-39q1 29 8 53t21.5 41.5t37 27t53.5 9.5q36 0 63.5 -16t51 -37.5t48 -37.5t54.5 -16q31 0 47.5 14t23 36.5t6.5 48.5h38q-1 -28 -7.5 -52t-20 -41.5t-35.5 -27.5t-55 -10zM383 186
q-36 0 -64 16t-51.5 37t-48 37t-53.5 16t-46.5 -14t-24.5 -36.5t-7 -48.5h-39q1 30 8 54t21.5 41.5t37 27t53.5 9.5q36 0 63.5 -16t51 -37.5t48 -37.5t54.5 -16q31 0 47.5 14t23 36.5t6.5 48.5h38q-1 -29 -7.5 -53t-20 -41.5t-35.5 -27t-55 -9.5z" />
    <glyph glyph-name="asciitilde" unicode="~" horiz-adv-x="550" 
d="M383 280q-39 0 -68 21.5t-52 43.5q-20 19 -45 37.5t-52 18.5q-30 0 -47 -17.5t-24 -43.5t-7 -52h-37q1 28 7 53.5t19.5 45.5t36 32t55.5 12q35 0 64 -21t54 -44q23 -22 46.5 -39.5t52.5 -17.5q32 0 48.5 17t22.5 43t6 53h37q-2 -28 -7.5 -54t-18 -45.5t-34.5 -31
t-57 -11.5z" />
    <glyph glyph-name="asciicircum" unicode="^" horiz-adv-x="550" 
d="M139 546l120 169h32l121 -169h-36l-101 145l-100 -145h-36z" />
    <glyph glyph-name="percent" unicode="%" horiz-adv-x="789" 
d="M152 0l436 707h48l-435 -707h-49zM593 -8q-42 0 -70.5 18.5t-43.5 51t-15 73.5q0 42 14.5 74t44 50.5t72.5 18.5t71 -20t42.5 -52.5t14.5 -70.5t-15 -71t-44 -52.5t-71 -19.5zM595 27q35 0 54 16t27 41t8 51q0 25 -8 50t-27 41.5t-54 16.5q-51 0 -72 -33t-21 -75t21 -75
t72 -33zM194 429q-42 0 -71 18.5t-43.5 51t-14.5 73.5q0 42 14.5 74t44 50.5t72.5 18.5t71 -20t42.5 -52.5t14.5 -70.5t-15 -71t-44 -52.5t-71 -19.5zM196 464q35 0 54 16t27 41t8 51q0 25 -8 50t-27 41.5t-54 16.5q-51 0 -72 -33t-21 -75t21 -75t72 -33z" />
    <glyph glyph-name="arrowup" unicode="&#x2191;" horiz-adv-x="697" 
d="M331 0v590l-239 -277l-27 22l283 328l284 -328l-27 -23l-239 278v-590h-35z" />
    <glyph glyph-name="uni2197" unicode="&#x2197;" horiz-adv-x="697" 
d="M127 84l-25 25l417 417l-365 -27l-3 35l432 32l-31 -433l-36 3l28 365z" />
    <glyph glyph-name="arrowright" unicode="&#x2192;" horiz-adv-x="697" 
d="M352 47l-23 27l278 239h-590v35h590l-277 239l22 27l328 -283z" />
    <glyph glyph-name="uni2198" unicode="&#x2198;" horiz-adv-x="697" 
d="M583 96l-433 31l3 36l365 -28l-417 417l25 25l417 -417l-27 365l35 3z" />
    <glyph glyph-name="arrowdown" unicode="&#x2193;" horiz-adv-x="697" 
d="M349 0l-284 328l27 23l239 -278v590h35v-590l239 277l27 -22z" />
    <glyph glyph-name="uni2199" unicode="&#x2199;" horiz-adv-x="697" 
d="M113 96l31 433l36 -3l-28 -365l417 417l25 -25l-417 -417l365 27l3 -35z" />
    <glyph glyph-name="arrowleft" unicode="&#x2190;" horiz-adv-x="697" 
d="M344 48l-328 283l328 284l23 -27l-278 -239h590v-35h-590l277 -239z" />
    <glyph glyph-name="uni2196" unicode="&#x2196;" horiz-adv-x="697" 
d="M570 85l-417 417l27 -365l-35 -3l-32 432l433 -31l-3 -36l-365 28l417 -417z" />
    <glyph glyph-name="uni21A9" unicode="&#x21a9;" horiz-adv-x="1159" 
d="M367 -287l-302 306l302 305l28 -30l-258 -256h629q90 0 154 39.5t98 108t34 154.5q0 85 -34 152.5t-98 107t-154 39.5h-564v38h567q77 0 137 -25t102 -70.5t64 -107t22 -134.5q0 -74 -21.5 -136t-63 -108t-101.5 -71t-136 -25h-635l258 -256z" />
    <glyph glyph-name="uni21B6" unicode="&#x21b6;" horiz-adv-x="1025" 
d="M383 -25l-318 108l15 41l258 -97q-48 46 -74.5 102.5t-36.5 114.5t-10 107q1 112 45.5 199t127 137.5t198.5 50.5q104 0 182.5 -43.5t127.5 -119t62 -173.5h-46q-13 84 -57 150.5t-112.5 105t-156.5 38.5q-102 0 -175.5 -45.5t-113 -123.5t-39.5 -176q0 -40 8 -89
t31 -103t67 -111l77 260l39 -10z" />
    <glyph glyph-name="uni21B7" unicode="&#x21b7;" horiz-adv-x="1025" 
d="M642 -25l-99 323l39 10l77 -260q45 57 67.5 111t30.5 103t8 89q0 98 -39.5 176t-113 123.5t-175.5 45.5q-88 0 -156.5 -38.5t-112 -105t-57.5 -150.5h-46q14 98 62.5 173.5t127.5 119t182 43.5q116 0 198.5 -50.5t127 -137.5t45.5 -199q0 -49 -10 -107t-36 -114.5
t-75 -102.5l258 97l15 -41z" />
    <glyph glyph-name="uni21BA" unicode="&#x21ba;" horiz-adv-x="930" 
d="M440 -52q-114 0 -198 49t-130.5 136t-46.5 201q0 88 29.5 167t91.5 144l30 -29q-52 -60 -79.5 -131.5t-27.5 -150.5q0 -72 23.5 -134.5t67 -110t104.5 -74t136 -26.5t136 25.5t105.5 72t68 108.5t23.5 135q0 68 -24 135.5t-70 128.5t-112 106l-6 -261h-42l9 336l337 -11
l-1 -41l-278 10q78 -49 129 -112t76.5 -136.5t25.5 -157.5q0 -81 -26.5 -150t-76 -120.5t-119 -80t-155.5 -28.5z" />
    <glyph glyph-name="uni21BB" unicode="&#x21bb;" horiz-adv-x="930" 
d="M490 -52q-86 0 -155.5 28.5t-119 80t-76 120.5t-26.5 150q0 84 25.5 157.5t76.5 136.5t129 112l-278 -10l-1 41l337 11l9 -336h-42l-6 261q-66 -45 -112 -106t-70 -129t-24 -135q0 -73 23.5 -135t68 -108.5t105.5 -72t136 -25.5t136 26.5t104.5 74t67 110t23.5 134.5
q0 79 -27.5 150.5t-79.5 131.5l30 29q62 -65 91.5 -144t29.5 -167q0 -114 -46 -201t-130.5 -136t-198.5 -49z" />
    <glyph glyph-name="uni27F5" unicode="&#x27f5;" horiz-adv-x="1386" 
d="M367 -43l-302 305l302 306l28 -30l-258 -257h1184v-38h-1184l258 -256z" />
    <glyph glyph-name="rightLongArrow" unicode="&#x27f6;" horiz-adv-x="1386" 
d="M1019 -43l-28 30l258 256h-1184v38h1184l-258 257l28 30l302 -306z" />
    <glyph glyph-name="uni0308" unicode="&#x308;" 
d="M105 626q-18 0 -28.5 11.5t-10.5 27.5t10.5 27.5t28.5 11.5q19 0 30 -11t11 -28t-11 -28t-30 -11zM-106 626q-18 0 -28.5 11.5t-10.5 27.5t10.5 27.5t28.5 11.5q19 0 30 -11t11 -28t-11 -28t-30 -11z" />
    <glyph glyph-name="uni0307" unicode="&#x307;" 
d="M0 626q-17 0 -28 10t-11 30q0 19 11.5 28.5t28.5 9.5t28 -10t11 -28q0 -19 -11.5 -29.5t-28.5 -10.5z" />
    <glyph glyph-name="gravecomb" unicode="&#x300;" 
d="M-15 616l-88 127h50l76 -127h-38z" />
    <glyph glyph-name="acutecomb" unicode="&#x301;" 
d="M-18 616l76 127h50l-88 -127h-38z" />
    <glyph glyph-name="uni030B" unicode="&#x30b;" 
d="M27 616l76 127h50l-88 -127h-38zM-93 616l76 127h50l-88 -127h-38z" />
    <glyph glyph-name="uni030C.alt" 
d="M120 530l-15 20q12 7 23.5 18.5t20.5 27.5t11 36q-13 -4 -32 4t-19 35q0 17 11.5 28.5t30.5 11.5q20 0 32 -14.5t12 -40.5q0 -27 -9.5 -51t-26 -43t-39.5 -32z" />
    <glyph glyph-name="uni0302" unicode="&#x302;" 
d="M-127 616l111 127h32l111 -127h-43l-85 98l-82 -98h-44z" />
    <glyph glyph-name="uni030C" unicode="&#x30c;" 
d="M-16 616l-111 127h43l85 -97l82 97h44l-111 -127h-32z" />
    <glyph glyph-name="uni0306" unicode="&#x306;" 
d="M-1 636q-55 0 -96.5 20.5t-49.5 78.5h39q8 -41 38 -53.5t70 -12.5q39 0 69.5 12.5t38.5 53.5h39q-5 -38 -27 -60t-53.5 -30.5t-67.5 -8.5z" />
    <glyph glyph-name="uni030A" unicode="&#x30a;" 
d="M-1 596q-38 0 -61 21.5t-23 58.5t23.5 61t61.5 24q39 0 62 -24t23 -61q0 -38 -24 -59t-62 -21zM-1 622q26 0 40.5 14.5t14.5 40.5q0 25 -14 41t-40 16t-40 -16t-14 -41q0 -26 14 -40.5t39 -14.5z" />
    <glyph glyph-name="tildecomb" unicode="&#x303;" 
d="M64 612q-24 0 -41 11.5t-31 26.5t-27.5 26.5t-30.5 11.5q-19 0 -29 -11.5t-12.5 -28t-1.5 -32.5h-37q0 29 7.5 52t26 36.5t49.5 13.5q23 0 40 -11.5t31 -26.5t27.5 -26.5t30.5 -11.5q20 0 29.5 11t12 28t2.5 33h37q0 -29 -8 -52.5t-26 -36.5t-49 -13z" />
    <glyph glyph-name="uni0304" unicode="&#x304;" 
d="M-149 642v35h299v-35h-299z" />
    <glyph glyph-name="uni0312" unicode="&#x312;" 
d="M0 626q-24 0 -34.5 17.5t-10.5 38.5q0 27 9 50t26 42.5t40 32.5l15 -20q-16 -8 -27.5 -20.5t-18.5 -28t-9 -33.5q20 4 35.5 -6t15.5 -33q0 -19 -11.5 -29.5t-29.5 -10.5z" />
    <glyph glyph-name="uni0326" unicode="&#x326;" 
d="M-30 -300l-15 20q12 7 23.5 18.5t20.5 27.5t11 36q-13 -4 -32 4t-19 35q0 17 11.5 28.5t29.5 11.5q22 0 33.5 -16t11.5 -37q0 -28 -9.5 -52.5t-26 -43.5t-39.5 -32z" />
    <glyph glyph-name="uni0327" unicode="&#x327;" 
d="M-48 -249h-13t-13 1v27q15 -2 35 -0.5t39 8.5t31.5 22t12.5 40q0 17 -7 28t-20.5 17t-31.5 6q-12 0 -28.5 -3t-27.5 -6l40 127h26l-30 -96q11 2 18.5 2.5t16.5 0.5q32 0 53 -20t21 -58q0 -35 -18 -56t-46 -30.5t-58 -9.5z" />
    <glyph glyph-name="uni0328" unicode="&#x328;" 
d="M29 -201q-46 0 -78.5 23t-32.5 73q0 36 24 67t54 47l23 -8q-25 -18 -43.5 -43t-18.5 -55q0 -36 21 -53t56 -18q9 0 20.5 2t19.5 5l8 -30q-12 -5 -25.5 -7.5t-27.5 -2.5z" />
    <glyph glyph-name="uni0308.narrow" 
d="M88 626q-19 0 -29.5 11.5t-10.5 27.5t10.5 27.5t29.5 11.5q18 0 29 -11t11 -28t-11 -28t-29 -11zM238 626q-18 0 -28.5 11.5t-10.5 27.5t10.5 27.5t29.5 11.5q18 0 29 -11t11 -28t-11 -28t-30 -11z" />
    <glyph glyph-name="dieresis" unicode="&#xa8;" horiz-adv-x="489" 
d="M349 636q-18 0 -28.5 11.5t-10.5 27.5t10.5 27.5t28.5 11.5q19 0 30 -11t11 -28t-11 -28t-30 -11zM138 636q-18 0 -28.5 11.5t-10.5 27.5t10.5 27.5t28.5 11.5q19 0 30 -11t11 -28t-11 -28t-30 -11z" />
    <glyph glyph-name="dotaccent" unicode="&#x2d9;" horiz-adv-x="559" 
d="M279 636q-17 0 -28 10t-11 30q0 19 11.5 28.5t28.5 9.5t28 -10t11 -28q0 -19 -11.5 -29.5t-28.5 -10.5z" />
    <glyph glyph-name="grave" unicode="`" 
d="M-15 616l-88 127h50l76 -127h-38z" />
    <glyph glyph-name="acute" unicode="&#xb4;" 
d="M-18 616l76 127h50l-88 -127h-38z" />
    <glyph glyph-name="hungarumlaut" unicode="&#x2dd;" horiz-adv-x="405" 
d="M219 636l76 127h50l-88 -127h-38zM99 636l76 127h50l-88 -127h-38z" />
    <glyph glyph-name="circumflex" unicode="&#x2c6;" horiz-adv-x="506" 
d="M126 636l111 127h32l111 -127h-43l-85 98l-82 -98h-44z" />
    <glyph glyph-name="caron" unicode="&#x2c7;" horiz-adv-x="506" 
d="M237 636l-111 127h43l85 -97l82 97h44l-111 -127h-32z" />
    <glyph glyph-name="breve" unicode="&#x2d8;" horiz-adv-x="534" 
d="M266 636q-55 0 -96.5 20.5t-49.5 78.5h39q8 -41 38 -53.5t70 -12.5q39 0 69.5 12.5t38.5 53.5h39q-5 -38 -27 -60t-53.5 -30.5t-67.5 -8.5z" />
    <glyph glyph-name="ring" unicode="&#x2da;" horiz-adv-x="562" 
d="M280 616q-38 0 -61 21.5t-23 58.5t23.5 61t61.5 24q39 0 62 -24t23 -61q0 -38 -24 -59t-62 -21zM280 642q26 0 40.5 14.5t14.5 40.5q0 25 -14 41t-40 16t-40 -16t-14 -41q0 -26 14 -40.5t39 -14.5z" />
    <glyph glyph-name="tilde" unicode="&#x2dc;" 
d="M64 612q-24 0 -41 11.5t-31 26.5t-27.5 26.5t-30.5 11.5q-19 0 -29 -11.5t-12.5 -28t-1.5 -32.5h-37q0 29 7.5 52t26 36.5t49.5 13.5q23 0 40 -11.5t31 -26.5t27.5 -26.5t30.5 -11.5q20 0 29.5 11t12 28t2.5 33h37q0 -29 -8 -52.5t-26 -36.5t-49 -13z" />
    <glyph glyph-name="macron" unicode="&#xaf;" horiz-adv-x="553" 
d="M127 662v35h299v-35h-299z" />
    <glyph glyph-name="cedilla" unicode="&#xb8;" horiz-adv-x="576" 
d="M267 -249h-13t-13 1v27q15 -2 35 -0.5t39 8.5t31.5 22t12.5 40q0 17 -7 28t-20.5 17t-31.5 6q-12 0 -28.5 -3t-27.5 -6l40 127h26l-30 -96q11 2 18.5 2.5t16.5 0.5q32 0 53 -20t21 -58q0 -35 -18 -56t-46 -30.5t-58 -9.5z" />
    <glyph glyph-name="ogonek" unicode="&#x2db;" horiz-adv-x="504" 
d="M281 -201q-46 0 -78.5 23t-32.5 73q0 36 24 67t54 47l23 -8q-25 -18 -43.5 -43t-18.5 -55q0 -36 21 -53t56 -18q9 0 20.5 2t19.5 5l8 -30q-12 -5 -25.5 -7.5t-27.5 -2.5z" />
    <glyph glyph-name="a2_alt" horiz-adv-x="609" 
d="M289 -7q-70 0 -116 24.5t-72 65t-37 88t-11 93.5q0 72 28.5 133.5t82.5 99t130 37.5q72 0 121.5 -30t77.5 -78l1 101h42v-527h-42v107q-30 -54 -80.5 -84t-124.5 -30zM295 29q67 0 111.5 34t67 88t22.5 114q0 64 -22 117t-66.5 84.5t-112.5 31.5q-69 0 -113 -33
t-65.5 -86.5t-21.5 -113.5q0 -64 20 -118t64 -86t116 -32z" />
    <glyph glyph-name="alt_1" horiz-adv-x="491" 
d="M53 0v39h202v563h-149v29q47 0 81.5 3t55.5 19t26 54h29v-668h168v-39h-413z" />
    <glyph glyph-name="be_alt" horiz-adv-x="575" 
d="M288 -7q-71 0 -117 25.5t-72.5 70t-37.5 102t-11 120.5q0 73 5.5 128t20 95.5t40.5 70.5t66 53q16 10 43.5 20t60.5 20.5t63 19.5q35 11 78 27t67 38l25 -32q-29 -27 -76 -43t-91 -29q-37 -10 -68 -20.5t-57 -22.5q-46 -21 -76 -53.5t-44.5 -87.5t-16.5 -146
q26 58 64.5 86.5t80.5 38.5t76 10q70 0 117.5 -32t72.5 -85.5t25 -120.5q0 -73 -28 -130.5t-81 -90t-129 -32.5zM288 29q64 0 108 30t66.5 78.5t22.5 105.5q0 55 -21 101t-62.5 74t-101.5 28q-63 0 -107.5 -29.5t-68 -78t-23.5 -104.5q0 -55 22 -102t64 -75t101 -28z" />
    <glyph glyph-name="l2_alt" horiz-adv-x="321" 
d="M209 -7q-53 0 -82.5 21t-40.5 58.5t-11 85.5v549h42v-537q0 -36 5.5 -68t26 -52.5t64.5 -20.5q17 0 37.5 5t34.5 16l16 -34q-21 -14 -44 -18.5t-48 -4.5z" />
    <glyph glyph-name="logo" horiz-adv-x="2944" 
d="M426 335q-6 0 -10 3.5t-6 3.5l-93 94h-110l-20 -19q-4 -6 -14 -6h-37q-8 0 -14.5 5.5t-6.5 13.5q0 7 7 14l25 26q8 5 14 5h37h1h106v36l-26 26h-118l-25 -20v-26q0 -8 -6 -14l-12 -13q-8 -5 -14 -5q-17 0 -19 15q-19 0 -19 19q-7 2 -12 6.5t-5 12.5q0 7 7 14l12 13
q6 6 14 6h27l0.5 0.5l1.5 1.5l31 25q4 4 12 4h39q4 13 18 13q8 0 14 -6l7 -7h55q6 0 14 -5l4 -5v20l-26 27h-135l-20 -20q-8 -5 -14 -5h-12q-6 0 -14 5l-13 13q-5 8 -5 14q0 8 4 12q-4 4 -4 13q0 6 5 14l13 12q6 6 14 6h12q8 0 14 -6l20 -19h35v28q-12 0 -18.5 15t-6.5 26
v37q0 8 5.5 14t13.5 6h51q8 0 13.5 -6t5.5 -14v-37q0 -11 -6.5 -26t-18.5 -15v-28h25q-1 1 -1 5q0 8 5.5 14t14.5 6q8 0 14 -6l36 -36q4 4 13 4q19 0 19 -19v-156l62 -62v71l-32 32q-6 6 -6 14t6 13.5t14 5.5q6 0 14 -5l4 -5v84l-95 95q-6 5 -6 14v18h-6q-19 0 -19 19
q0 8 5.5 14t13.5 6h6v6q0 8 6 13.5t14 5.5q19 0 19 -19v-6h6q8 0 13.5 -6t5.5 -14q0 -19 -19 -19h-6v-10l62 -62v120q-2 2 -2 3l-55 55q-6 6 -6 14t6 14l12 13q3 3 7 4v20q0 8 6 14l13 12q5 6 13 6q7 0 11 -3q6 6 15 6q8 0 14 -6q5 3 11 3q8 0 14 -6l12 -12q6 -6 6 -14v-20
l4 -2t3 -2l12 -13q6 -6 6 -14t-6 -14l-55 -55q0 -1 -2 -3v-120l62 62v10h-6q-19 0 -19 19q0 8 5.5 14t13.5 6h6v6q0 19 19 19q8 0 14 -5.5t6 -13.5v-6h6q8 0 13.5 -6t5.5 -14q0 -19 -19 -19h-6v-18q0 -9 -6 -14l-95 -95v-84l5 5q5 5 13 5q11 0 15.5 -6t4.5 -13q0 -8 -6 -14
l-32 -32v-71l62 62v156q0 19 19 19q9 0 13 -4l37 36q5 6 14 6q8 0 13.5 -6t5.5 -14q0 -1 -0.5 -2t-0.5 -3h25v28q-12 0 -18.5 15t-6.5 26v37q0 8 5.5 14t13.5 6h51q8 0 13.5 -6t5.5 -14v-37q0 -11 -6.5 -26t-18.5 -15v-28h36l19 19q6 6 14 6h12q8 0 14 -6l13 -12q6 -6 6 -14
q0 -5 -5 -13q5 -5 5 -12q0 -8 -6 -14l-13 -13q-8 -5 -14 -5h-12q-6 0 -14 5l-19 20h-136l-26 -27v-20l4 5q8 5 14 5h55l7 7q6 6 14 6q14 0 18 -13h39q8 0 12 -4l31 -25q1 -1 1.5 -1t1.5 -1h26q8 0 14 -6l12 -13q6 -6 6 -14q0 -6 -1 -7q-5 -9 -14 -12q0 -8 -6 -13.5t-14 -5.5
q-3 -15 -19 -15q-6 0 -14 5l-12 13q-6 6 -6 14v26l-25 20h-118l-26 -26v-36h144q9 0 14 -5l25 -26q6 -6 6 -14q0 -19 -19 -19h-38q-8 0 -14 6l-20 19h-109l-94 -94q-2 0 -6 -3.5t-9 -3.5zM204 0q-12 0 -12 13v349q0 13 12 13h61q12 0 21 -9l132 -132q2 -2 6 -2q5 0 7 2
l132 132q9 9 21 9h61q12 0 12 -13v-349q0 -13 -12 -13h-61q-13 0 -13 13v219q0 3 -4 3q-1 0 -2 -1l-118 -118q-10 -9 -22 -9h-1q-11 0 -22 9l-118 118q-1 1 -3 1q-4 0 -4 -3v-219q0 -13 -12 -13h-61zM904 -6q-57 0 -102 23.5t-71 67t-26 103.5q0 54 25 98t70 69.5t104 25.5
q58 0 102.5 -23.5t70.5 -66.5t26 -103q0 -57 -26 -100.5t-70.5 -68.5t-102.5 -25zM904 74q53 0 80.5 33.5t27.5 80.5q0 51 -31.5 82t-76.5 31q-47 0 -77.5 -31t-30.5 -82q0 -49 31.5 -81.5t76.5 -32.5zM1156 0q-9 0 -9 9v357q0 9 9 9h67q9 0 9 -9v-281q0 -4 5 -4h139
q9 0 9 -9v-63q0 -9 -9 -9h-220zM1547 -1q-15 0 -46.5 0.5t-58.5 0.5q-9 0 -9 9v357q0 9 9 9q11 0 32.5 0.5t43.5 0.5h33q75 0 121.5 -25.5t67.5 -67.5t21 -92q0 -52 -24 -96t-71.5 -70t-118.5 -26zM1549 80q56 0 88.5 28.5t32.5 82.5q0 52 -34 78.5t-86 26.5h-13t-14 -1
q-5 0 -5 -5v-205q0 -6 11.5 -5.5t19.5 0.5zM2003 -6q-57 0 -102 23.5t-71 67t-26 103.5q0 54 25 98t70 69.5t104 25.5q58 0 102.5 -23.5t70.5 -66.5t26 -103q0 -57 -26 -100.5t-70.5 -68.5t-102.5 -25zM2003 74q53 0 80.5 33.5t27.5 80.5q0 51 -31.5 82t-76.5 31
q-47 0 -77.5 -31t-30.5 -82q0 -49 31.5 -81.5t76.5 -32.5zM2358 0q-7 0 -12 9l-146 357q-1 1 -1 3q0 6 6 6h76q8 0 12 -9l91 -234q0 -2 2 -2q1 1 1 2l87 234q5 9 13 9h70q6 0 6 -6q0 -1 -0.5 -1.5t-0.5 -1.5l-142 -357q-4 -9 -13 -9h-49zM2497 0q-6 0 -6 6q0 2 1 3l141 358
q5 8 12 8h56q7 0 12 -8l141 -358q0 -1 0.5 -1.5t0.5 -1.5q0 -6 -6 -6h-70q-9 0 -11 9l-25 66q-1 4 -6 4h-133q-5 0 -6 -4l-24 -66q-4 -9 -12 -9h-65zM2635 159h71q3 0 3 3v1l-37 98l-1 1q-1 -1 -1.5 -1h-0.5l-37 -98v-1q0 -3 3 -3z" />
    <glyph glyph-name="logom" horiz-adv-x="849" 
d="M409 344l-95 95h-110l-20 -20q-6 -6 -14 -6h-38q-13 0 -18 12t4 22l25 25q6 6 14 6h146v36l-27 26h-118l-25 -20v-27t-7 -14l-5 -5l-7 -7q-8 -8 -19.5 -5t-13.5 15q-19 0 -19 19q-12 3 -15 14t5 19l12 12q7 7 14 7h27l34 27q5 5 12 5h39q4 10 14 12t18 -5l7 -7h55
q7 0 10.5 -3t8.5 -8v21l-27 26h-136l-18 -18t-10 -6t-18 -1q-8 0 -14 5.5t-13 12.5q-11 14 -1 27q-10 13 -1.5 22.5t15.5 16.5q5 6 12 6h15t14 -6l19 -19h36v28q-26 11 -26 41v38q0 8 6 14t14 6h51q8 0 14 -6t6 -14v-38q0 -30 -26 -41v-28h25q-4 14 9.5 23t23.5 -4l37 -36
q1 1 1.5 1t1.5 1q6 2 9 2q8 0 14 -6t6 -14v-156l62 -63v72l-32 32q-9 9 -5 19t14 14.5t19 -5.5l4 -5v84l-95 96q-6 6 -6 14v18h-6q-13 0 -17.5 10t0 20t17.5 10h6v5q0 13 9.5 17.5t19.5 0t10 -17.5v-5h6q13 0 17.5 -10t0 -20t-17.5 -10h-6v-10l62 -62v121q0 1 -7.5 9t-18 19
t-19.5 19.5t-12 11.5q-6 5 -6 13.5t6 14.5q4 4 9 9.5t10 7.5v21.5t4 9.5l15 15q11 12 24 3q8 7 17 6t13 -6q11 8 20.5 0t16.5 -16q6 -6 6 -14.5v-18.5q5 -2 10 -7.5t9 -9.5q6 -6 6 -14.5t-6 -13.5q-3 -3 -12 -11.5t-19.5 -19.5t-18 -19t-7.5 -9v-121l62 62v10h-6
q-13 0 -17.5 10t0 20t17.5 10h6v5q0 13 10 17.5t19.5 0t9.5 -17.5v-5h6q13 0 17.5 -10t0 -20t-17.5 -10h-6v-18t-5 -14l-96 -96v-84q4 5 7.5 8t10.5 3q14 0 18.5 -12.5t-4.5 -21.5l-32 -32v-72l62 63v156q0 13 11 18.5t21 -2.5l37 36q11 13 24 4t9 -23h25v28q-26 11 -26 41
v38q0 8 6 14t14 6h51q8 0 14 -6t6 -14v-38q0 -30 -26 -41v-28h36l18 18t10 6t18 1q8 0 14 -5.5t13 -12.5q11 -14 1 -27q10 -12 1.5 -22t-15.5 -17q-5 -5 -12 -5.5t-15 -0.5t-14 6l-19 19h-136l-27 -26v-21q5 5 8.5 8t10.5 3h55q5 5 9 8.5t12 3.5q14 0 18 -12h39q7 0 12 -5
l34 -27h27t11 -4l15 -15q10 -8 5 -21q-4 -9 -15 -12q0 -19 -19 -19q-2 -11 -13 -14q-12 -4 -20 4l-12 12q-7 7 -7 14v27l-25 20h-118l-27 -26v-36h146q8 0 14 -6l25 -25q9 -9 4 -21.5t-18 -12.5h-36t-14.5 5t-21.5 21h-110l-95 -95q-7 -8 -15.5 -8t-14.5 8zM201 0
q-13 0 -13 13v351q0 13 13 13h61q12 0 22 -9l132 -133q7 -6 13 0l133 133q11 9 22 9h61q12 0 12 -13v-351q0 -13 -12 -13h-61q-13 0 -13 13v220q0 2 -2.5 3.5t-4.5 -0.5l-119 -120q-9 -8 -22 -8t-22 8l-120 120q-2 2 -4 0.5t-2 -3.5v-220q0 -13 -13 -13h-61z" />
    <glyph glyph-name="map" horiz-adv-x="687" 
d="M295 0q-5 0 -5 5v23q0 2 -2 4l-9 9q-3 4 0 7l12 12q6 4 0 8l-12 12q-1 1 -1 4v85q0 3 1 4l14 13q1 1 1 4v119q0 3 -1 4l-13 12q-1 1 -1 4v23q0 3 -2 3l-46 47q-2 2 -2 4v21q0 3 -1 4l-46 46q-2 2 -2 3v26q0 3 -1 4l-31 30q-1 1 -1 4v29q0 2 -2 4l-21 21q-2 2 -2 4v26
q0 3 -1 4l-23 23q-2 2 -4 2h-42q-5 0 -5 5v2q0 3 1 4l16 16q2 2 4 2h39q3 0 4 1l19 19q2 2 4 2h96q2 0 4 -2l46 -46q1 -1 3 -1h33q5 0 5 -5v-25q0 -5 6 -5h6q3 0 4 1l16 17q1 1 4 1h32q5 0 5 -5v-26q0 -2 2 -4l20 -20q4 -3 7 0l10 10q1 1 4 1h6q6 0 6 -5v-79q0 -2 -2 -4
l-6 -6q-4 -4 0 -8l59 -59q1 -1 3 -1h12q5 0 5 -5v-34v-37q0 -2 2 -4l22 -22q2 -2 4 -2h12q3 0 4 -1l16 -17q2 -2 2 -4v-37q0 -2 -2 -4l-6 -5q-4 -4 0 -8l21 -20q1 -1 1 -4q0 -5 -5 -5h-19h-14q-2 0 -3 1l-9 9q-3 4 -7 0l-11 -11q-5 -3 -8 0l-15 15q-3 3 -8 0l-27 -27
q-2 -2 -3 -2h-9q-5 0 -5 6v34q0 4 -3.5 5t-5.5 -1l-22 -22q-1 -1 -1 -3v-27q0 -3 1 -4l10 -10q4 -3 0 -7l-20 -20q-1 -1 -1 -4v-25q0 -2 -2 -4l-22 -22q-1 -1 -1 -3v-12q0 -2 -2 -4l-12 -12q-2 -2 -3 -2h-9q-2 0 -3 -1l-10 -10q-2 -2 -2 -4v-38q0 -6 -5 -6h-20q-3 0 -4 -1
l-14 -15q-1 0 -1.5 -0.5t-2.5 -0.5h-3z" />
    <glyph glyph-name="tab_1" horiz-adv-x="664" 
d="M116 0v38h196v562h-165v32h76q29 0 49.5 6.5t33 23t16.5 45.5h33v-669h189v-38h-428z" />
    <glyph glyph-name="y2_alt" horiz-adv-x="539" 
d="M86 -245v41q51 0 83.5 18t55.5 53t43 85l-241 575h51l214 -521l180 521h49l-181 -507q-8 -23 -20 -53t-26.5 -61.5t-30.5 -58.5t-34 -43q-31 -28 -62 -38.5t-77 -10.5h-4z" />
    <glyph glyph-name="a00E2.alt" horiz-adv-x="552" 
d="M226 -7q-46 0 -85.5 14.5t-63.5 45.5t-24 81q0 41 17.5 68.5t46.5 44.5t63 26.5t66 14.5q34 5 82 8t110 5q0 57 -15.5 101.5t-51 70t-95.5 25.5q-42 0 -82 -13t-63 -53h-47q15 38 45 60t69.5 32t79.5 10q76 0 120.5 -33.5t64 -89.5t19.5 -124v-287h-44v87
q-27 -38 -64 -58.5t-75.5 -28t-72.5 -7.5zM230 28q55 0 102.5 20.5t77.5 62t30 104.5v50q-40 -1 -90 -3.5t-97.5 -9t-82.5 -19.5q-34 -13 -54.5 -38.5t-20.5 -59.5q0 -40 21 -63.5t52.5 -33.5t61.5 -10zM158 647l111 127h32l111 -127h-43l-85 98l-82 -98h-44z" />
    <glyph glyph-name="a00E4.alt" horiz-adv-x="552" 
d="M226 -7q-46 0 -85.5 14.5t-63.5 45.5t-24 81q0 41 17.5 68.5t46.5 44.5t63 26.5t66 14.5q34 5 82 8t110 5q0 57 -15.5 101.5t-51 70t-95.5 25.5q-42 0 -82 -13t-63 -53h-47q15 38 45 60t69.5 32t79.5 10q76 0 120.5 -33.5t64 -89.5t19.5 -124v-287h-44v87
q-27 -38 -64 -58.5t-75.5 -28t-72.5 -7.5zM230 28q55 0 102.5 20.5t77.5 62t30 104.5v50q-40 -1 -90 -3.5t-97.5 -9t-82.5 -19.5q-34 -13 -54.5 -38.5t-20.5 -59.5q0 -40 21 -63.5t52.5 -33.5t61.5 -10zM394 636q-18 0 -28.5 11.5t-10.5 27.5t10.5 27.5t28.5 11.5
q19 0 30 -11t11 -28t-11 -28t-30 -11zM183 636q-18 0 -28.5 11.5t-10.5 27.5t10.5 27.5t28.5 11.5q19 0 30 -11t11 -28t-11 -28t-30 -11z" />
    <glyph glyph-name="a0103.alt" horiz-adv-x="552" 
d="M226 -7q-46 0 -85.5 14.5t-63.5 45.5t-24 81q0 41 17.5 68.5t46.5 44.5t63 26.5t66 14.5q34 5 82 8t110 5q0 57 -15.5 101.5t-51 70t-95.5 25.5q-42 0 -82 -13t-63 -53h-47q15 38 45 60t69.5 32t79.5 10q76 0 120.5 -33.5t64 -89.5t19.5 -124v-287h-44v87
q-27 -38 -64 -58.5t-75.5 -28t-72.5 -7.5zM230 28q55 0 102.5 20.5t77.5 62t30 104.5v50q-40 -1 -90 -3.5t-97.5 -9t-82.5 -19.5q-34 -13 -54.5 -38.5t-20.5 -59.5q0 -40 21 -63.5t52.5 -33.5t61.5 -10zM284 633q-55 0 -96.5 20.5t-49.5 78.5h39q8 -41 38 -53.5t70 -12.5
q39 0 69.5 12.5t38.5 53.5h39q-5 -38 -27 -60t-53.5 -30.5t-67.5 -8.5z" />
    <glyph glyph-name="t0163.alt" horiz-adv-x="379" 
d="M264 -7q-79 0 -109.5 44.5t-30.5 120.5v334h-93v35h93v158h42v-158h181v-35h-181v-322q0 -34 6.5 -66.5t28.5 -53.5t69 -21q18 0 38.5 5t34.5 15l15 -33q-13 -8 -28 -13.5t-31 -7.5t-35 -2zM193 -248h-13t-13 1v27q15 -2 35 -0.5t39 8.5t31.5 22t12.5 40q0 17 -7 28
t-20.5 17t-31.5 6q-12 0 -28.5 -3t-27.5 -6l40 127h26l-30 -96q11 2 18.5 2.5t16.5 0.5q32 0 53 -20t21 -58q0 -35 -18 -56t-46 -30.5t-58 -9.5z" />
    <glyph glyph-name="t021b.alt" horiz-adv-x="379" 
d="M264 -7q-79 0 -109.5 44.5t-30.5 120.5v334h-93v35h93v158h42v-158h181v-35h-181v-322q0 -34 6.5 -66.5t28.5 -53.5t69 -21q18 0 38.5 5t34.5 15l15 -33q-13 -8 -28 -13.5t-31 -7.5t-35 -2zM190 -300l-15 20q12 7 23.5 18.5t20.5 27.5t11 36q-13 -4 -32 4t-19 35
q0 17 11.5 28.5t29.5 11.5q22 0 33.5 -16t11.5 -37q0 -28 -9.5 -52.5t-26 -43.5t-39.5 -32z" />
    <glyph glyph-name="t2.alt" horiz-adv-x="379" 
d="M264 -7q-79 0 -109.5 44.5t-30.5 120.5v334h-93v35h93v158h42v-158h181v-35h-181v-322q0 -34 6.5 -66.5t28.5 -53.5t69 -21q18 0 38.5 5t34.5 15l15 -33q-13 -8 -28 -13.5t-31 -7.5t-35 -2z" />
    </font>
</defs>
</svg>
