<?xml version="1.0" standalone="no"?>
<!DOCTYPE svg PUBLIC "-//W3C//DTD SVG 1.1//EN" "http://www.w3.org/Graphics/SVG/1.1/DTD/svg11.dtd" >
<svg xmlns="http://www.w3.org/2000/svg" xmlns:xlink="http://www.w3.org/1999/xlink" version="1.1">
<metadata>
Created by FontForge 20230101 at Wed Sep  6 15:02:59 2023
 By Webmaster
Copyright 2021 The Onest Project Authors (https://github.com/simpals/onest)
</metadata>
<defs>
<font id="Onest-ExtraBold" horiz-adv-x="0" >
  <font-face 
    font-family="Onest ExtraBold"
    font-weight="800"
    font-stretch="normal"
    units-per-em="1000"
    panose-1="0 0 0 0 0 0 0 0 0 0"
    ascent="800"
    descent="-200"
    x-height="527"
    cap-height="708"
    bbox="-213 -302 2855 992"
    underline-thickness="50"
    underline-position="-100"
    unicode-range="U+000D-27F6"
  />
<missing-glyph horiz-adv-x="572" 
d="M20 -295v1255h532v-1255h-532zM30 -285h512v1235h-512v-1235z" />
    <glyph glyph-name=".notdef" horiz-adv-x="572" 
d="M20 -295v1255h532v-1255h-532zM30 -285h512v1235h-512v-1235z" />
    <glyph glyph-name="A" unicode="A" horiz-adv-x="725" 
d="M-2 0l280 708h172l277 -708h-175l-39 110h-301l-40 -110h-174zM263 257h199l-98 274z" />
    <glyph glyph-name="Aacute" unicode="&#xc1;" horiz-adv-x="725" 
d="M-2 0l280 708h172l277 -708h-175l-39 110h-301l-40 -110h-174zM263 257h199l-98 274zM275 764l123 182h168l-157 -182h-134z" />
    <glyph glyph-name="Abreve" unicode="&#x102;" horiz-adv-x="725" 
d="M-2 0l280 708h172l277 -708h-175l-39 110h-301l-40 -110h-174zM263 257h199l-98 274zM362 763q-91 0 -143 44.5t-53 135.5h130q0 -40 19 -55t48 -15q31 0 49 15t18 55h130q-1 -60 -24.5 -100.5t-67.5 -60t-106 -19.5z" />
    <glyph glyph-name="Acircumflex" unicode="&#xc2;" horiz-adv-x="725" 
d="M-2 0l280 708h172l277 -708h-175l-39 110h-301l-40 -110h-174zM263 257h199l-98 274zM149 764l160 186h105l162 -186h-150l-65 86l-62 -86h-150z" />
    <glyph glyph-name="Adieresis" unicode="&#xc4;" horiz-adv-x="725" 
d="M-2 0l280 708h172l277 -708h-175l-39 110h-301l-40 -110h-174zM263 257h199l-98 274zM488 756q-35 0 -61.5 21.5t-26.5 62.5q0 42 27.5 65t61.5 23q35 0 60.5 -22.5t25.5 -64.5t-25.5 -63.5t-61.5 -21.5zM237 756q-35 0 -61 21.5t-26 62.5q0 42 26.5 65t60.5 23
q35 0 61.5 -22.5t26.5 -65.5q0 -41 -26.5 -62.5t-61.5 -21.5z" />
    <glyph glyph-name="Agrave" unicode="&#xc0;" horiz-adv-x="725" 
d="M-2 0l280 708h172l277 -708h-175l-39 110h-301l-40 -110h-174zM263 257h199l-98 274zM319 764l-157 182h168l122 -182h-133z" />
    <glyph glyph-name="Amacron" unicode="&#x100;" horiz-adv-x="725" 
d="M-2 0l280 708h172l277 -708h-175l-39 110h-301l-40 -110h-174zM263 257h199l-98 274zM173 800v138h380v-138h-380z" />
    <glyph glyph-name="Aogonek" unicode="&#x104;" horiz-adv-x="725" 
d="M-2 0l280 708h172l277 -708h-175l-39 110h-301l-40 -110h-174zM263 257h199l-98 274zM637 -202q-60 0 -95.5 28.5t-35.5 76.5q0 37 22 66.5t56 43.5l88 -11q-25 -8 -43 -24t-18 -39q0 -22 13.5 -33.5t34.5 -11.5q11 0 21 3t19 7l16 -89q-19 -10 -39.5 -13.5t-38.5 -3.5z
" />
    <glyph glyph-name="Aring" unicode="&#xc5;" horiz-adv-x="725" 
d="M-2 0l280 708h172l277 -708h-175l-39 110h-301l-40 -110h-174zM263 257h199l-98 274zM363 752q-55 0 -90.5 33t-35.5 86t36.5 87t90.5 34t89.5 -33.5t35.5 -87.5q0 -53 -35 -86t-91 -33zM363 833q18 0 29.5 11t11.5 28t-11.5 27.5t-29.5 10.5q-17 0 -28.5 -10.5
t-11.5 -27.5t10.5 -28t29.5 -11z" />
    <glyph glyph-name="Atilde" unicode="&#xc3;" horiz-adv-x="725" 
d="M-2 0l280 708h172l277 -708h-175l-39 110h-301l-40 -110h-174zM263 257h199l-98 274zM450 762q-30 0 -53 10.5t-40.5 23.5t-32 23.5t-27.5 10.5t-20 -11.5t-8 -26.5t2 -25h-106q-4 44 6 84t39.5 65.5t81.5 25.5q27 0 46 -9.5t34.5 -22t29 -22.5t27.5 -10t20 10t7 23.5
t-1 24.5h105q4 -42 -4 -82.5t-33 -66t-73 -25.5z" />
    <glyph glyph-name="AE" unicode="&#xc6;" horiz-adv-x="938" 
d="M-4 0l310 708h600v-150h-325v-134h268v-144h-268v-131h325v-149h-487v110h-199l-49 -110h-175zM275 257h144v301h-18z" />
    <glyph glyph-name="B" unicode="B" horiz-adv-x="684" 
d="M70 0v708h331q47 0 86.5 -9.5t69 -31t46.5 -57t17 -89.5q0 -41 -19 -78t-54 -57q47 -18 75.5 -59t28.5 -107q0 -62 -23.5 -104t-64 -68t-94.5 -37t-115 -11h-284zM232 149h146q25 0 45.5 4.5t35 13t22 23t7.5 33.5q0 20 -6.5 33t-19.5 21.5t-31 12t-41 3.5h-158v-144z
M232 426h129q24 0 42.5 5t30.5 14.5t18.5 23t6.5 31.5q0 24 -11.5 36.5t-32 17t-47.5 4.5h-136v-132z" />
    <glyph glyph-name="C" unicode="C" horiz-adv-x="718" 
d="M379 -8q-110 0 -188 44t-118.5 125t-40.5 190q0 111 42 193t119.5 127.5t183.5 45.5q82 0 148 -29t107.5 -85.5t50.5 -142.5h-155q-12 49 -48.5 76.5t-98.5 27.5q-67 0 -107 -30.5t-57.5 -77.5t-17.5 -98q0 -53 18.5 -102t59 -80t107.5 -31q40 0 70.5 12t50.5 35t28 55
h159q-8 -83 -52.5 -140t-113 -86t-147.5 -29z" />
    <glyph glyph-name="Cacute" unicode="&#x106;" horiz-adv-x="718" 
d="M379 -8q-110 0 -188 44t-118.5 125t-40.5 190q0 111 42 193t119.5 127.5t183.5 45.5q82 0 148 -29t107.5 -85.5t50.5 -142.5h-155q-12 49 -48.5 76.5t-98.5 27.5q-67 0 -107 -30.5t-57.5 -77.5t-17.5 -98q0 -53 18.5 -102t59 -80t107.5 -31q40 0 70.5 12t50.5 35t28 55
h159q-8 -83 -52.5 -140t-113 -86t-147.5 -29zM284 764l123 182h168l-157 -182h-134z" />
    <glyph glyph-name="Ccaron" unicode="&#x10c;" horiz-adv-x="718" 
d="M379 -8q-110 0 -188 44t-118.5 125t-40.5 190q0 111 42 193t119.5 127.5t183.5 45.5q82 0 148 -29t107.5 -85.5t50.5 -142.5h-155q-12 49 -48.5 76.5t-98.5 27.5q-67 0 -107 -30.5t-57.5 -77.5t-17.5 -98q0 -53 18.5 -102t59 -80t107.5 -31q40 0 70.5 12t50.5 35t28 55
h159q-8 -83 -52.5 -140t-113 -86t-147.5 -29zM321 764l-162 186h150l65 -86l62 86h150l-160 -186h-105z" />
    <glyph glyph-name="Ccedilla" unicode="&#xc7;" horiz-adv-x="718" 
d="M379 -8q-110 0 -188 44t-118.5 125t-40.5 190q0 111 42 193t119.5 127.5t183.5 45.5q82 0 148 -29t107.5 -85.5t50.5 -142.5h-155q-12 49 -48.5 76.5t-98.5 27.5q-67 0 -107 -30.5t-57.5 -77.5t-17.5 -98q0 -53 18.5 -102t59 -80t107.5 -31q40 0 70.5 12t50.5 35t28 55
h159q-8 -83 -52.5 -140t-113 -86t-147.5 -29zM346 -272q-26 -1 -43 1t-32 5v93q27 -5 47.5 -5t35 3.5t22.5 12.5t8 23q0 11 -7 18t-19 10.5t-25 3.5q-17 1 -34 -2t-26 -7l45 159h102l-19 -77q6 0 12 -0.5t11 -1.5q34 -6 56.5 -28.5t22.5 -71.5q0 -47 -23 -76.5t-58.5 -44
t-75.5 -15.5z" />
    <glyph glyph-name="Ccircumflex" unicode="&#x108;" horiz-adv-x="718" 
d="M379 -8q-110 0 -188 44t-118.5 125t-40.5 190q0 111 42 193t119.5 127.5t183.5 45.5q82 0 148 -29t107.5 -85.5t50.5 -142.5h-155q-12 49 -48.5 76.5t-98.5 27.5q-67 0 -107 -30.5t-57.5 -77.5t-17.5 -98q0 -53 18.5 -102t59 -80t107.5 -31q40 0 70.5 12t50.5 35t28 55
h159q-8 -83 -52.5 -140t-113 -86t-147.5 -29zM158 764l160 186h105l162 -186h-150l-65 86l-62 -86h-150z" />
    <glyph glyph-name="Cdotaccent" unicode="&#x10a;" horiz-adv-x="718" 
d="M379 -8q-110 0 -188 44t-118.5 125t-40.5 190q0 111 42 193t119.5 127.5t183.5 45.5q82 0 148 -29t107.5 -85.5t50.5 -142.5h-155q-12 49 -48.5 76.5t-98.5 27.5q-67 0 -107 -30.5t-57.5 -77.5t-17.5 -98q0 -53 18.5 -102t59 -80t107.5 -31q40 0 70.5 12t50.5 35t28 55
h159q-8 -83 -52.5 -140t-113 -86t-147.5 -29zM372 752q-44 0 -70.5 26t-26.5 68q0 43 28 70t70 27q40 0 68 -26t28 -70q0 -43 -27 -69t-70 -26z" />
    <glyph glyph-name="D" unicode="D" horiz-adv-x="734" 
d="M71 0v708h272q111 0 191 -41t123.5 -120t43.5 -196q0 -113 -42 -191.5t-121.5 -119t-193.5 -40.5h-273zM233 149h112q71 0 112.5 26t60 72t18.5 106q0 58 -18 104.5t-60.5 73.5t-117.5 27h-107v-409z" />
    <glyph glyph-name="Dcaron" unicode="&#x10e;" horiz-adv-x="734" 
d="M71 0v708h272q111 0 191 -41t123.5 -120t43.5 -196q0 -113 -42 -191.5t-121.5 -119t-193.5 -40.5h-273zM233 149h112q71 0 112.5 26t60 72t18.5 106q0 58 -18 104.5t-60.5 73.5t-117.5 27h-107v-409zM315 764l-162 186h150l65 -86l62 86h150l-160 -186h-105z" />
    <glyph glyph-name="Dcroat" unicode="&#x110;" horiz-adv-x="734" 
d="M71 0v285h-81v137h81v286h272q113 0 193 -41.5t122.5 -121t42.5 -195.5q0 -112 -41 -190.5t-120.5 -119t-195.5 -40.5h-273zM233 149h112q67 0 109.5 24.5t62 70t19.5 109.5q0 66 -20.5 111.5t-63.5 69.5t-112 24h-107v-136h134v-137h-134v-136z" />
    <glyph glyph-name="Eth" unicode="&#xd0;" horiz-adv-x="734" 
d="M71 0v285h-81v137h81v286h272q113 0 193 -41.5t122.5 -121t42.5 -195.5q0 -112 -41 -190.5t-120.5 -119t-195.5 -40.5h-273zM233 149h112q68 0 110 24.5t61.5 70t19.5 109.5q0 66 -20.5 111.5t-63.5 69.5t-112 24h-107v-136h134v-137h-134v-136z" />
    <glyph glyph-name="E" unicode="E" horiz-adv-x="625" 
d="M71 0v708h522v-150h-360v-134h303v-144h-303v-131h360v-149h-522z" />
    <glyph glyph-name="Eacute" unicode="&#xc9;" horiz-adv-x="625" 
d="M71 0v708h522v-150h-360v-134h303v-144h-303v-131h360v-149h-522zM245 764l123 182h168l-157 -182h-134z" />
    <glyph glyph-name="Ebreve" unicode="&#x114;" horiz-adv-x="625" 
d="M71 0v708h522v-150h-360v-134h303v-144h-303v-131h360v-149h-522zM332 763q-91 0 -143 44.5t-53 135.5h130q0 -40 19 -55t48 -15q31 0 49 15t18 55h130q-1 -60 -24.5 -100.5t-67.5 -60t-106 -19.5z" />
    <glyph glyph-name="Ecaron" unicode="&#x11a;" horiz-adv-x="625" 
d="M71 0v708h522v-150h-360v-134h303v-144h-303v-131h360v-149h-522zM281 764l-162 186h150l65 -86l62 86h150l-160 -186h-105z" />
    <glyph glyph-name="Ecircumflex" unicode="&#xca;" horiz-adv-x="625" 
d="M71 0v708h522v-150h-360v-134h303v-144h-303v-131h360v-149h-522zM119 764l160 186h105l162 -186h-150l-65 86l-62 -86h-150z" />
    <glyph glyph-name="Edieresis" unicode="&#xcb;" horiz-adv-x="625" 
d="M71 0v708h522v-150h-360v-134h303v-144h-303v-131h360v-149h-522zM458 756q-35 0 -61.5 21.5t-26.5 62.5q0 42 27.5 65t61.5 23q35 0 60.5 -22.5t25.5 -64.5t-25.5 -63.5t-61.5 -21.5zM207 756q-35 0 -61 21.5t-26 62.5q0 42 26.5 65t60.5 23q35 0 61.5 -22.5t26.5 -65.5
q0 -41 -26.5 -62.5t-61.5 -21.5z" />
    <glyph glyph-name="Edotaccent" unicode="&#x116;" horiz-adv-x="625" 
d="M71 0v708h522v-150h-360v-134h303v-144h-303v-131h360v-149h-522zM333 752q-44 0 -70.5 26t-26.5 68q0 43 28 70t70 27q40 0 68 -26t28 -70q0 -43 -27 -69t-70 -26z" />
    <glyph glyph-name="Egrave" unicode="&#xc8;" horiz-adv-x="625" 
d="M71 0v708h522v-150h-360v-134h303v-144h-303v-131h360v-149h-522zM289 764l-157 182h168l122 -182h-133z" />
    <glyph glyph-name="Emacron" unicode="&#x112;" horiz-adv-x="625" 
d="M71 0v708h522v-150h-360v-134h303v-144h-303v-131h360v-149h-522zM143 800v138h380v-138h-380z" />
    <glyph glyph-name="Eogonek" unicode="&#x118;" horiz-adv-x="625" 
d="M71 0v708h522v-150h-360v-134h303v-144h-303v-131h360v-149h-522zM547 -202q-60 0 -95.5 28.5t-35.5 76.5q0 37 22 66.5t56 43.5l88 -11q-25 -8 -43 -24t-18 -39q0 -22 13.5 -33.5t34.5 -11.5q11 0 21 3t19 7l16 -89q-19 -10 -39.5 -13.5t-38.5 -3.5z" />
    <glyph glyph-name="F" unicode="F" horiz-adv-x="605" 
d="M71 0v708h513v-150h-351v-157h294v-148h-294v-253h-162z" />
    <glyph glyph-name="G" unicode="G" horiz-adv-x="736" 
d="M376 -8q-106 0 -183.5 45t-119 126.5t-41.5 192.5q0 83 23.5 149t68.5 113.5t108.5 73t143.5 25.5q81 0 147.5 -27t110 -81.5t56.5 -137.5h-162q-7 32 -26 52.5t-48 30.5t-67 10q-52 0 -88 -18t-58 -48.5t-32 -68.5t-10 -78q0 -53 18.5 -100.5t59 -76.5t107.5 -29
q39 0 72 11t54 34.5t25 58.5h-180v138h349v-33q0 -114 -36 -195t-108.5 -124t-183.5 -43z" />
    <glyph glyph-name="Gbreve" unicode="&#x11e;" horiz-adv-x="736" 
d="M376 -8q-106 0 -183.5 45t-119 126.5t-41.5 192.5q0 83 23.5 149t68.5 113.5t108.5 73t143.5 25.5q81 0 147.5 -27t110 -81.5t56.5 -137.5h-162q-7 32 -26 52.5t-48 30.5t-67 10q-52 0 -88 -18t-58 -48.5t-32 -68.5t-10 -78q0 -53 18.5 -100.5t59 -76.5t107.5 -29
q39 0 72 11t54 34.5t25 58.5h-180v138h349v-33q0 -114 -36 -195t-108.5 -124t-183.5 -43zM367 763q-91 0 -143 44.5t-53 135.5h130q0 -40 19 -55t48 -15q31 0 49 15t18 55h130q-1 -60 -24.5 -100.5t-67.5 -60t-106 -19.5z" />
    <glyph glyph-name="Gcircumflex" unicode="&#x11c;" horiz-adv-x="736" 
d="M376 -8q-106 0 -183.5 45t-119 126.5t-41.5 192.5q0 83 23.5 149t68.5 113.5t108.5 73t143.5 25.5q81 0 147.5 -27t110 -81.5t56.5 -137.5h-162q-7 32 -26 52.5t-48 30.5t-67 10q-52 0 -88 -18t-58 -48.5t-32 -68.5t-10 -78q0 -53 18.5 -100.5t59 -76.5t107.5 -29
q39 0 72 11t54 34.5t25 58.5h-180v138h349v-33q0 -114 -36 -195t-108.5 -124t-183.5 -43zM154 764l160 186h105l162 -186h-150l-65 86l-62 -86h-150z" />
    <glyph glyph-name="uni0122" unicode="&#x122;" horiz-adv-x="736" 
d="M376 -8q-106 0 -183.5 45t-119 126.5t-41.5 192.5q0 83 23.5 149t68.5 113.5t108.5 73t143.5 25.5q81 0 147.5 -27t110 -81.5t56.5 -137.5h-162q-7 32 -26 52.5t-48 30.5t-67 10q-52 0 -88 -18t-58 -48.5t-32 -68.5t-10 -78q0 -53 18.5 -100.5t59 -76.5t107.5 -29
q39 0 72 11t54 34.5t25 58.5h-180v138h349v-33q0 -114 -36 -195t-108.5 -124t-183.5 -43zM332 -297l-36 52q13 6 29 18t30 26t18 26q-26 1 -46.5 18t-20.5 47q0 36 24 54t54 18q39 -1 60 -28.5t21 -68.5q-1 -40 -19.5 -72t-49 -54.5t-64.5 -35.5z" />
    <glyph glyph-name="Gdotaccent" unicode="&#x120;" horiz-adv-x="736" 
d="M376 -8q-106 0 -183.5 45t-119 126.5t-41.5 192.5q0 83 23.5 149t68.5 113.5t108.5 73t143.5 25.5q81 0 147.5 -27t110 -81.5t56.5 -137.5h-162q-7 32 -26 52.5t-48 30.5t-67 10q-52 0 -88 -18t-58 -48.5t-32 -68.5t-10 -78q0 -53 18.5 -100.5t59 -76.5t107.5 -29
q39 0 72 11t54 34.5t25 58.5h-180v138h349v-33q0 -114 -36 -195t-108.5 -124t-183.5 -43zM368 752q-44 0 -70.5 26t-26.5 68q0 43 28 70t70 27q40 0 68 -26t28 -70q0 -43 -27 -69t-70 -26z" />
    <glyph glyph-name="H" unicode="H" horiz-adv-x="748" 
d="M71 0v708h162v-284h282v284h162v-708h-162v275h-282v-275h-162z" />
    <glyph glyph-name="Hbar" unicode="&#x126;" horiz-adv-x="748" 
d="M71 0v488h-69v132h69v88h162v-88h282v88h162v-88h69v-132h-69v-488h-162v251h-282v-251h-162zM233 400h282v88h-282v-88z" />
    <glyph glyph-name="Hcircumflex" unicode="&#x124;" horiz-adv-x="748" 
d="M71 0v708h162v-284h282v284h162v-708h-162v275h-282v-275h-162zM160 764l160 186h105l162 -186h-150l-65 86l-62 -86h-150z" />
    <glyph glyph-name="I" unicode="I" horiz-adv-x="304" 
d="M71 0v708h162v-708h-162z" />
    <glyph glyph-name="IJ" unicode="&#x132;" horiz-adv-x="835" 
d="M528 -8q-54 0 -101 13t-82.5 43t-55.5 80.5t-21 125.5h162q1 -25 7.5 -50.5t26 -43t59.5 -17.5q35 0 52.5 13.5t24 35.5t6.5 47v469h163v-455q0 -64 -15 -112.5t-45 -81.5t-75 -50t-106 -17zM71 0v708h162v-708h-162z" />
    <glyph glyph-name="Iacute" unicode="&#xcd;" horiz-adv-x="304" 
d="M71 0v708h162v-708h-162zM65 764l123 182h168l-157 -182h-134z" />
    <glyph glyph-name="Ibreve" unicode="&#x12c;" horiz-adv-x="304" 
d="M71 0v708h162v-708h-162zM152 763q-91 0 -143 44.5t-53 135.5h130q0 -40 19 -55t48 -15q31 0 49 15t18 55h130q-1 -60 -24.5 -100.5t-67.5 -60t-106 -19.5z" />
    <glyph glyph-name="Icircumflex" unicode="&#xce;" horiz-adv-x="304" 
d="M71 0v708h162v-708h-162zM-61 764l160 186h105l162 -186h-150l-65 86l-62 -86h-150z" />
    <glyph glyph-name="Idieresis" unicode="&#xcf;" horiz-adv-x="304" 
d="M71 0v708h162v-708h-162zM278 756q-35 0 -61.5 21.5t-26.5 62.5q0 42 27.5 65t61.5 23q35 0 60.5 -22.5t25.5 -64.5t-25.5 -63.5t-61.5 -21.5zM27 756q-35 0 -61 21.5t-26 62.5q0 42 26.5 65t60.5 23q35 0 61.5 -22.5t26.5 -65.5q0 -41 -26.5 -62.5t-61.5 -21.5z" />
    <glyph glyph-name="Idotaccent" unicode="&#x130;" horiz-adv-x="304" 
d="M71 0v708h162v-708h-162zM152 752q-44 0 -70.5 26t-26.5 68q0 43 28 70t70 27q40 0 68 -26t28 -70q0 -43 -27 -69t-70 -26z" />
    <glyph glyph-name="Igrave" unicode="&#xcc;" horiz-adv-x="304" 
d="M71 0v708h162v-708h-162zM108 764l-157 182h168l122 -182h-133z" />
    <glyph glyph-name="Imacron" unicode="&#x12a;" horiz-adv-x="304" 
d="M71 0v708h162v-708h-162zM-38 800v138h380v-138h-380z" />
    <glyph glyph-name="Iogonek" unicode="&#x12e;" horiz-adv-x="304" 
d="M71 0v708h162v-708h-162zM180 -202q-60 0 -95.5 28.5t-35.5 76.5q0 37 22 66.5t56 43.5l88 -11q-25 -8 -43 -24t-18 -39q0 -22 13.5 -33.5t34.5 -11.5q11 0 21 3t19 7l16 -89q-19 -10 -39.5 -13.5t-38.5 -3.5z" />
    <glyph glyph-name="Itilde" unicode="&#x128;" horiz-adv-x="304" 
d="M71 0v708h162v-708h-162zM240 762q-30 0 -53 10.5t-40.5 23.5t-32 23.5t-27.5 10.5t-20 -11.5t-8 -26.5t2 -25h-106q-4 44 6 84t39.5 65.5t81.5 25.5q27 0 46 -9.5t34.5 -22t29 -22.5t27.5 -10t20 10t7 23.5t-1 24.5h105q4 -42 -4 -82.5t-33 -66t-73 -25.5z" />
    <glyph glyph-name="J" unicode="J" horiz-adv-x="593" 
d="M286 -8q-54 0 -101 13t-82.5 43t-55.5 80.5t-21 125.5h162q0 -25 7 -50.5t26.5 -43t59.5 -17.5q34 0 52 13.5t24.5 35.5t6.5 47v469h162v-455q0 -64 -14.5 -112.5t-44.5 -81.5t-75 -50t-106 -17z" />
    <glyph glyph-name="Jcircumflex" unicode="&#x134;" horiz-adv-x="593" 
d="M286 -8q-54 0 -101 13t-82.5 43t-55.5 80.5t-21 125.5h162q0 -25 7 -50.5t26.5 -43t59.5 -17.5q34 0 52 13.5t24.5 35.5t6.5 47v469h162v-455q0 -64 -14.5 -112.5t-44.5 -81.5t-75 -50t-106 -17zM232 764l160 186h105l162 -186h-150l-65 86l-62 -86h-150z" />
    <glyph glyph-name="K" unicode="K" horiz-adv-x="688" 
d="M71 0v708h162v-283h99l168 283h185l-219 -342l218 -366h-189l-159 276h-103v-276h-162z" />
    <glyph glyph-name="uni0136" unicode="&#x136;" horiz-adv-x="688" 
d="M71 0v708h162v-283h99l168 283h185l-219 -342l218 -366h-189l-159 276h-103v-276h-162zM295 -297l-36 52q13 6 29 18t30 26t18 26q-26 1 -46.5 18t-20.5 47q0 36 24 54t54 18q39 -1 60 -28.5t21 -68.5q-1 -40 -19.5 -72t-49 -54.5t-64.5 -35.5z" />
    <glyph glyph-name="L" unicode="L" horiz-adv-x="600" 
d="M71 0v708h162v-559h349v-149h-511z" />
    <glyph glyph-name="Lacute" unicode="&#x139;" horiz-adv-x="600" 
d="M71 0v708h162v-559h349v-149h-511zM85 764l123 182h168l-157 -182h-134z" />
    <glyph glyph-name="Lcaron" unicode="&#x13d;" horiz-adv-x="600" 
d="M71 0v708h162v-559h349v-149h-511zM371 412l-44 63q15 7 34 21t35 30t21 28q-30 3 -52.5 23.5t-22.5 57.5q0 41 26.5 62t62.5 21q47 0 70.5 -32.5t23.5 -77.5q0 -48 -22.5 -88t-57.5 -68t-74 -40z" />
    <glyph glyph-name="uni013B" unicode="&#x13b;" horiz-adv-x="600" 
d="M71 0v708h162v-559h349v-149h-511zM288 -297l-36 52q13 6 29 18t30 26t18 26q-26 1 -46.5 18t-20.5 47q0 36 24 54t54 18q39 -1 60 -28.5t21 -68.5q-1 -40 -19.5 -72t-49 -54.5t-64.5 -35.5z" />
    <glyph glyph-name="Ldot" unicode="&#x13f;" horiz-adv-x="600" 
d="M71 0v708h162v-559h349v-149h-511zM420 324q-44 0 -70.5 26t-26.5 68q0 43 28 70t69 27q40 0 68.5 -26t28.5 -70q0 -43 -27 -69t-70 -26z" />
    <glyph glyph-name="Lslash" unicode="&#x141;" horiz-adv-x="603" 
d="M74 0v228l-46 -27l-69 118l115 69v320h162v-226l72 43l70 -118l-142 -84v-174h349v-149h-511z" />
    <glyph glyph-name="M" unicode="M" horiz-adv-x="914" 
d="M71 0v708h210l180 -326l180 326h202v-708h-163v484l-189 -335h-65l-193 335v-484h-162z" />
    <glyph glyph-name="N" unicode="N" horiz-adv-x="775" 
d="M71 0v708h157l313 -442v442h163v-708h-153l-318 437v-437h-162z" />
    <glyph glyph-name="Nacute" unicode="&#x143;" horiz-adv-x="775" 
d="M71 0v708h157l313 -442v442h163v-708h-153l-318 437v-437h-162zM300 764l123 182h168l-157 -182h-134z" />
    <glyph glyph-name="Ncaron" unicode="&#x147;" horiz-adv-x="775" 
d="M71 0v708h157l313 -442v442h163v-708h-153l-318 437v-437h-162zM336 764l-162 186h150l65 -86l62 86h150l-160 -186h-105z" />
    <glyph glyph-name="uni0145" unicode="&#x145;" horiz-adv-x="775" 
d="M71 0v708h157l313 -442v442h163v-708h-153l-318 437v-437h-162zM344 -297l-36 52q13 6 29 18t30 26t18 26q-26 1 -46.5 18t-20.5 47q0 36 24 54t54 18q39 -1 60 -28.5t21 -68.5q-1 -40 -19.5 -72t-49 -54.5t-64.5 -35.5z" />
    <glyph glyph-name="Ntilde" unicode="&#xd1;" horiz-adv-x="775" 
d="M71 0v708h157l313 -442v442h163v-708h-153l-318 437v-437h-162zM475 762q-30 0 -53 10.5t-40.5 23.5t-32 23.5t-27.5 10.5t-20 -11.5t-8 -26.5t2 -25h-106q-4 44 6 84t39.5 65.5t81.5 25.5q27 0 46 -9.5t34.5 -22t29 -22.5t27.5 -10t20 10t7 23.5t-1 24.5h105
q4 -42 -4 -82.5t-33 -66t-73 -25.5z" />
    <glyph glyph-name="Eng" unicode="&#x14a;" horiz-adv-x="775" 
d="M443 -212v142h42q24 0 36.5 7t17.5 21.5t5 35.5l-4 20l-307 423v-437h-162v708h157l313 -442v442h163v-734q0 -62 -18 -103.5t-56.5 -62t-101.5 -20.5h-85z" />
    <glyph glyph-name="O" unicode="O" horiz-adv-x="777" 
d="M386 -8q-109 0 -188.5 45.5t-122.5 127t-43 188.5q0 110 44.5 191.5t124.5 127t189 45.5q107 0 186.5 -45t124 -125.5t44.5 -189.5q0 -107 -44 -189.5t-124.5 -129t-190.5 -46.5zM389 145q68 0 110 31t61 79t19 98q0 37 -10.5 74t-33 68t-58.5 50t-89 19
q-67 0 -109 -30.5t-61.5 -78.5t-19.5 -101t20 -101t62.5 -78t108.5 -30z" />
    <glyph glyph-name="Oacute" unicode="&#xd3;" horiz-adv-x="777" 
d="M386 -8q-109 0 -188.5 45.5t-122.5 127t-43 188.5q0 110 44.5 191.5t124.5 127t189 45.5q107 0 186.5 -45t124 -125.5t44.5 -189.5q0 -107 -44 -189.5t-124.5 -129t-190.5 -46.5zM389 145q68 0 110 31t61 79t19 98q0 37 -10.5 74t-33 68t-58.5 50t-89 19
q-67 0 -109 -30.5t-61.5 -78.5t-19.5 -101t20 -101t62.5 -78t108.5 -30zM301 764l123 182h168l-157 -182h-134z" />
    <glyph glyph-name="Obreve" unicode="&#x14e;" horiz-adv-x="777" 
d="M386 -8q-109 0 -188.5 45.5t-122.5 127t-43 188.5q0 110 44.5 191.5t124.5 127t189 45.5q107 0 186.5 -45t124 -125.5t44.5 -189.5q0 -107 -44 -189.5t-124.5 -129t-190.5 -46.5zM389 145q68 0 110 31t61 79t19 98q0 37 -10.5 74t-33 68t-58.5 50t-89 19
q-67 0 -109 -30.5t-61.5 -78.5t-19.5 -101t20 -101t62.5 -78t108.5 -30zM388 763q-91 0 -143 44.5t-53 135.5h130q0 -40 19 -55t48 -15q31 0 49 15t18 55h130q-1 -60 -24.5 -100.5t-67.5 -60t-106 -19.5z" />
    <glyph glyph-name="Ocircumflex" unicode="&#xd4;" horiz-adv-x="777" 
d="M386 -8q-109 0 -188.5 45.5t-122.5 127t-43 188.5q0 110 44.5 191.5t124.5 127t189 45.5q107 0 186.5 -45t124 -125.5t44.5 -189.5q0 -107 -44 -189.5t-124.5 -129t-190.5 -46.5zM389 145q68 0 110 31t61 79t19 98q0 37 -10.5 74t-33 68t-58.5 50t-89 19
q-67 0 -109 -30.5t-61.5 -78.5t-19.5 -101t20 -101t62.5 -78t108.5 -30zM175 764l160 186h105l162 -186h-150l-65 86l-62 -86h-150z" />
    <glyph glyph-name="Odieresis" unicode="&#xd6;" horiz-adv-x="777" 
d="M386 -8q-109 0 -188.5 45.5t-122.5 127t-43 188.5q0 110 44.5 191.5t124.5 127t189 45.5q107 0 186.5 -45t124 -125.5t44.5 -189.5q0 -107 -44 -189.5t-124.5 -129t-190.5 -46.5zM389 145q68 0 110 31t61 79t19 98q0 37 -10.5 74t-33 68t-58.5 50t-89 19
q-67 0 -109 -30.5t-61.5 -78.5t-19.5 -101t20 -101t62.5 -78t108.5 -30zM514 756q-35 0 -61.5 21.5t-26.5 62.5q0 42 27.5 65t61.5 23q35 0 60.5 -22.5t25.5 -64.5t-25.5 -63.5t-61.5 -21.5zM263 756q-35 0 -61 21.5t-26 62.5q0 42 26.5 65t60.5 23q35 0 61.5 -22.5
t26.5 -65.5q0 -41 -26.5 -62.5t-61.5 -21.5z" />
    <glyph glyph-name="Ograve" unicode="&#xd2;" horiz-adv-x="777" 
d="M386 -8q-109 0 -188.5 45.5t-122.5 127t-43 188.5q0 110 44.5 191.5t124.5 127t189 45.5q107 0 186.5 -45t124 -125.5t44.5 -189.5q0 -107 -44 -189.5t-124.5 -129t-190.5 -46.5zM389 145q68 0 110 31t61 79t19 98q0 37 -10.5 74t-33 68t-58.5 50t-89 19
q-67 0 -109 -30.5t-61.5 -78.5t-19.5 -101t20 -101t62.5 -78t108.5 -30zM345 764l-157 182h168l122 -182h-133z" />
    <glyph glyph-name="Ohungarumlaut" unicode="&#x150;" horiz-adv-x="777" 
d="M386 -8q-109 0 -188.5 45.5t-122.5 127t-43 188.5q0 110 44.5 191.5t124.5 127t189 45.5q107 0 186.5 -45t124 -125.5t44.5 -189.5q0 -107 -44 -189.5t-124.5 -129t-190.5 -46.5zM389 145q68 0 110 31t61 79t19 98q0 37 -10.5 74t-33 68t-58.5 50t-89 19
q-67 0 -109 -30.5t-61.5 -78.5t-19.5 -101t20 -101t62.5 -78t108.5 -30zM409 764l113 182h156l-145 -182h-124zM221 764l76 182h156l-113 -182h-119z" />
    <glyph glyph-name="Omacron" unicode="&#x14c;" horiz-adv-x="777" 
d="M386 -8q-109 0 -188.5 45.5t-122.5 127t-43 188.5q0 110 44.5 191.5t124.5 127t189 45.5q107 0 186.5 -45t124 -125.5t44.5 -189.5q0 -107 -44 -189.5t-124.5 -129t-190.5 -46.5zM389 145q68 0 110 31t61 79t19 98q0 37 -10.5 74t-33 68t-58.5 50t-89 19
q-67 0 -109 -30.5t-61.5 -78.5t-19.5 -101t20 -101t62.5 -78t108.5 -30zM199 800v138h380v-138h-380z" />
    <glyph glyph-name="Oslash" unicode="&#xd8;" horiz-adv-x="777" 
d="M143 -112l54 151q-52 30 -89 76.5t-56.5 106t-19.5 130.5q0 109 44.5 191t124 128t185.5 46q16 0 28.5 -1t24.5 -3l38 107h156l-53 -150q52 -31 89 -76.5t56.5 -105t19.5 -131.5q0 -107 -44 -189.5t-123.5 -129t-188.5 -46.5q-14 0 -27 0.5t-25 2.5l-39 -107h-155z
M260 193l133 368q-9 1 -18 1t-18 -1q-52 -7 -87.5 -36t-53.5 -73t-18 -98q0 -33 6.5 -62.5t21 -54.5t34.5 -44zM421 147q52 7 87 36t53 74t18 97q0 33 -6.5 62.5t-20.5 55t-35 44.5l-135 -370q20 -1 39 1z" />
    <glyph glyph-name="Otilde" unicode="&#xd5;" horiz-adv-x="777" 
d="M386 -8q-109 0 -188.5 45.5t-122.5 127t-43 188.5q0 110 44.5 191.5t124.5 127t189 45.5q107 0 186.5 -45t124 -125.5t44.5 -189.5q0 -107 -44 -189.5t-124.5 -129t-190.5 -46.5zM389 145q68 0 110 31t61 79t19 98q0 37 -10.5 74t-33 68t-58.5 50t-89 19
q-67 0 -109 -30.5t-61.5 -78.5t-19.5 -101t20 -101t62.5 -78t108.5 -30zM476 762q-30 0 -53 10.5t-40.5 23.5t-32 23.5t-27.5 10.5t-20 -11.5t-8 -26.5t2 -25h-106q-4 44 6 84t39.5 65.5t81.5 25.5q27 0 46 -9.5t34.5 -22t29 -22.5t27.5 -10t20 10t7 23.5t-1 24.5h105
q4 -42 -4 -82.5t-33 -66t-73 -25.5z" />
    <glyph glyph-name="OE" unicode="&#x152;" horiz-adv-x="1124" 
d="M389 -8q-110 0 -190 45.5t-123.5 126.5t-43.5 188q0 109 44.5 191t125 128t189.5 46q56 0 100 -13t79 -40v44h522v-150h-360v-134h303v-144h-303v-131h360v-149h-522v45q-35 -27 -79.5 -40t-101.5 -13zM389 145q56 0 95 23.5t61 63t26 88.5v67q-3 47 -24 87.5t-61 65
t-97 24.5q-61 0 -103.5 -28t-65 -75.5t-22.5 -106.5t22 -106.5t65 -75t104 -27.5z" />
    <glyph glyph-name="P" unicode="P" horiz-adv-x="661" 
d="M71 0v708h287q82 0 143.5 -24t96 -78t34.5 -146q0 -85 -37 -142t-101 -84.5t-146 -27.5h-115v-206h-162zM233 350h115q57 0 90.5 28t33.5 82q0 48 -28.5 73t-93.5 25h-117v-208z" />
    <glyph glyph-name="Thorn" unicode="&#xde;" horiz-adv-x="654" 
d="M71 0v708h162v-105h117q84 0 145.5 -24.5t95 -78.5t33.5 -144q0 -85 -38 -141t-102 -84t-144 -28h-107v-103h-162zM233 248h107q35 0 63 10t44.5 33.5t16.5 60.5q0 59 -34 80t-88 21h-109v-205z" />
    <glyph glyph-name="Q" unicode="Q" horiz-adv-x="778" 
d="M618 -115l-100 131q-30 -12 -64 -18t-65 -6q-111 0 -191 45.5t-123 126.5t-43 188q0 110 44 192t124.5 127.5t189.5 45.5q108 0 188 -44.5t123.5 -125t43.5 -190.5q0 -82 -25.5 -144.5t-72.5 -108.5l96 -124zM386 145q69 0 111.5 31.5t62 80.5t19.5 100t-19 98.5
t-60.5 78t-109.5 30.5q-69 0 -111.5 -31.5t-61.5 -80t-19 -101.5q0 -51 19 -98.5t60.5 -77.5t108.5 -30z" />
    <glyph glyph-name="R" unicode="R" horiz-adv-x="700" 
d="M71 0v708h292q50 0 99.5 -9.5t90.5 -34.5t65.5 -70.5t24.5 -116.5q0 -48 -16 -89t-47.5 -71t-79.5 -47l161 -270h-184l-137 244h-107v-244h-162zM233 387h125q29 0 51.5 5.5t38.5 16t24.5 27.5t9.5 41q0 33 -15.5 50t-41.5 24t-60 7h-132v-171z" />
    <glyph glyph-name="Racute" unicode="&#x154;" horiz-adv-x="700" 
d="M71 0v708h292q50 0 99.5 -9.5t90.5 -34.5t65.5 -70.5t24.5 -116.5q0 -48 -16 -89t-47.5 -71t-79.5 -47l161 -270h-184l-137 244h-107v-244h-162zM233 387h125q29 0 51.5 5.5t38.5 16t24.5 27.5t9.5 41q0 33 -15.5 50t-41.5 24t-60 7h-132v-171zM262 764l123 182h168
l-157 -182h-134z" />
    <glyph glyph-name="Rcaron" unicode="&#x158;" horiz-adv-x="700" 
d="M71 0v708h292q50 0 99.5 -9.5t90.5 -34.5t65.5 -70.5t24.5 -116.5q0 -48 -16 -89t-47.5 -71t-79.5 -47l161 -270h-184l-137 244h-107v-244h-162zM233 387h125q29 0 51.5 5.5t38.5 16t24.5 27.5t9.5 41q0 33 -15.5 50t-41.5 24t-60 7h-132v-171zM298 764l-162 186h150
l65 -86l62 86h150l-160 -186h-105z" />
    <glyph glyph-name="uni0156" unicode="&#x156;" horiz-adv-x="700" 
d="M71 0v708h292q50 0 99.5 -9.5t90.5 -34.5t65.5 -70.5t24.5 -116.5q0 -48 -16 -89t-47.5 -71t-79.5 -47l161 -270h-184l-137 244h-107v-244h-162zM233 387h125q29 0 51.5 5.5t38.5 16t24.5 27.5t9.5 41q0 33 -15.5 50t-41.5 24t-60 7h-132v-171zM301 -297l-36 52
q13 6 29 18t30 26t18 26q-26 1 -46.5 18t-20.5 47q0 36 24 54t54 18q39 -1 60 -28.5t21 -68.5q-1 -40 -19.5 -72t-49 -54.5t-64.5 -35.5z" />
    <glyph glyph-name="S" unicode="S" horiz-adv-x="662" 
d="M342 -8q-76 0 -141 24.5t-107.5 77t-52.5 134.5h164q8 -31 29.5 -50t52.5 -27.5t66 -8.5q24 0 48 5.5t40 19.5t16 39q0 19 -9 30.5t-25.5 19t-40.5 13.5q-15 4 -31 7t-31 7t-30 9q-45 11 -86 25.5t-72.5 37.5t-49.5 60t-18 92q0 53 18.5 90.5t50 61t69 36t75 17.5t69.5 5
q71 0 126.5 -26t90 -76.5t41.5 -124.5h-157q-4 26 -20.5 43t-42 26t-58.5 9q-20 0 -38.5 -3.5t-32 -10.5t-22 -18.5t-8.5 -28.5q0 -18 12 -30.5t34.5 -21.5t55.5 -18q23 -8 47.5 -12.5t47.5 -11.5q42 -10 77.5 -23.5t62.5 -34t42.5 -54t15.5 -84.5q0 -62 -23 -104.5
t-63 -69.5t-89.5 -39t-102.5 -12z" />
    <glyph glyph-name="Sacute" unicode="&#x15a;" horiz-adv-x="662" 
d="M342 -8q-76 0 -141 24.5t-107.5 77t-52.5 134.5h164q8 -31 29.5 -50t52.5 -27.5t66 -8.5q24 0 48 5.5t40 19.5t16 39q0 19 -9 30.5t-25.5 19t-40.5 13.5q-15 4 -31 7t-31 7t-30 9q-45 11 -86 25.5t-72.5 37.5t-49.5 60t-18 92q0 53 18.5 90.5t50 61t69 36t75 17.5t69.5 5
q71 0 126.5 -26t90 -76.5t41.5 -124.5h-157q-4 26 -20.5 43t-42 26t-58.5 9q-20 0 -38.5 -3.5t-32 -10.5t-22 -18.5t-8.5 -28.5q0 -18 12 -30.5t34.5 -21.5t55.5 -18q23 -8 47.5 -12.5t47.5 -11.5q42 -10 77.5 -23.5t62.5 -34t42.5 -54t15.5 -84.5q0 -62 -23 -104.5
t-63 -69.5t-89.5 -39t-102.5 -12zM244 764l123 182h168l-157 -182h-134z" />
    <glyph glyph-name="Scaron" unicode="&#x160;" horiz-adv-x="662" 
d="M342 -8q-76 0 -141 24.5t-107.5 77t-52.5 134.5h164q8 -31 29.5 -50t52.5 -27.5t66 -8.5q24 0 48 5.5t40 19.5t16 39q0 19 -9 30.5t-25.5 19t-40.5 13.5q-15 4 -31 7t-31 7t-30 9q-45 11 -86 25.5t-72.5 37.5t-49.5 60t-18 92q0 53 18.5 90.5t50 61t69 36t75 17.5t69.5 5
q71 0 126.5 -26t90 -76.5t41.5 -124.5h-157q-4 26 -20.5 43t-42 26t-58.5 9q-20 0 -38.5 -3.5t-32 -10.5t-22 -18.5t-8.5 -28.5q0 -18 12 -30.5t34.5 -21.5t55.5 -18q23 -8 47.5 -12.5t47.5 -11.5q42 -10 77.5 -23.5t62.5 -34t42.5 -54t15.5 -84.5q0 -62 -23 -104.5
t-63 -69.5t-89.5 -39t-102.5 -12zM280 764l-162 186h150l65 -86l62 86h150l-160 -186h-105z" />
    <glyph glyph-name="Scedilla" unicode="&#x15e;" horiz-adv-x="662" 
d="M342 -8q-76 0 -141 24.5t-107.5 77t-52.5 134.5h164q8 -31 29.5 -50t52.5 -27.5t66 -8.5q24 0 48 5.5t40 19.5t16 39q0 19 -9 30.5t-25.5 19t-40.5 13.5q-15 4 -31 7t-31 7t-30 9q-45 11 -86 25.5t-72.5 37.5t-49.5 60t-18 92q0 53 18.5 90.5t50 61t69 36t75 17.5t69.5 5
q71 0 126.5 -26t90 -76.5t41.5 -124.5h-157q-4 26 -20.5 43t-42 26t-58.5 9q-20 0 -38.5 -3.5t-32 -10.5t-22 -18.5t-8.5 -28.5q0 -18 12 -30.5t34.5 -21.5t55.5 -18q23 -8 47.5 -12.5t47.5 -11.5q42 -10 77.5 -23.5t62.5 -34t42.5 -54t15.5 -84.5q0 -62 -23 -104.5
t-63 -69.5t-89.5 -39t-102.5 -12zM318 -272q-26 -1 -43 1t-32 5v93q27 -5 47.5 -5t35 3.5t22.5 12.5t8 23q0 11 -7 18t-19 10.5t-25 3.5q-17 1 -34 -2t-26 -7l45 159h102l-19 -77q6 0 12 -0.5t11 -1.5q34 -6 56.5 -28.5t22.5 -71.5q0 -47 -23 -76.5t-58.5 -44t-75.5 -15.5z
" />
    <glyph glyph-name="Scircumflex" unicode="&#x15c;" horiz-adv-x="662" 
d="M342 -8q-76 0 -141 24.5t-107.5 77t-52.5 134.5h164q8 -31 29.5 -50t52.5 -27.5t66 -8.5q24 0 48 5.5t40 19.5t16 39q0 19 -9 30.5t-25.5 19t-40.5 13.5q-15 4 -31 7t-31 7t-30 9q-45 11 -86 25.5t-72.5 37.5t-49.5 60t-18 92q0 53 18.5 90.5t50 61t69 36t75 17.5t69.5 5
q71 0 126.5 -26t90 -76.5t41.5 -124.5h-157q-4 26 -20.5 43t-42 26t-58.5 9q-20 0 -38.5 -3.5t-32 -10.5t-22 -18.5t-8.5 -28.5q0 -18 12 -30.5t34.5 -21.5t55.5 -18q23 -8 47.5 -12.5t47.5 -11.5q42 -10 77.5 -23.5t62.5 -34t42.5 -54t15.5 -84.5q0 -62 -23 -104.5
t-63 -69.5t-89.5 -39t-102.5 -12zM118 764l160 186h105l162 -186h-150l-65 86l-62 -86h-150z" />
    <glyph glyph-name="uni0218" unicode="&#x218;" horiz-adv-x="662" 
d="M342 -8q-76 0 -141 24.5t-107.5 77t-52.5 134.5h164q8 -31 29.5 -50t52.5 -27.5t66 -8.5q24 0 48 5.5t40 19.5t16 39q0 19 -9 30.5t-25.5 19t-40.5 13.5q-15 4 -31 7t-31 7t-30 9q-45 11 -86 25.5t-72.5 37.5t-49.5 60t-18 92q0 53 18.5 90.5t50 61t69 36t75 17.5t69.5 5
q71 0 126.5 -26t90 -76.5t41.5 -124.5h-157q-4 26 -20.5 43t-42 26t-58.5 9q-20 0 -38.5 -3.5t-32 -10.5t-22 -18.5t-8.5 -28.5q0 -18 12 -30.5t34.5 -21.5t55.5 -18q23 -8 47.5 -12.5t47.5 -11.5q42 -10 77.5 -23.5t62.5 -34t42.5 -54t15.5 -84.5q0 -62 -23 -104.5
t-63 -69.5t-89.5 -39t-102.5 -12zM283 -297l-36 52q13 6 29 18t30 26t18 26q-26 1 -46.5 18t-20.5 47q0 36 24 54t54 18q39 -1 60 -28.5t21 -68.5q-1 -40 -19.5 -72t-49 -54.5t-64.5 -35.5z" />
    <glyph glyph-name="uni1E9E" unicode="&#x1e9e;" horiz-adv-x="742" 
d="M493 -8q-65 0 -111.5 24t-71.5 68.5t-26 104.5h147q1 -20 16 -33.5t41 -13.5q27 0 41 16t14 37q0 27 -19 45t-49 32.5t-63 27.5q-23 9 -45.5 18.5t-43.5 18.5l119 170q-15 30 -42 44t-57 14q-27 0 -52.5 -10.5t-41.5 -33.5t-16 -62v-459h-162v473q0 82 36 135.5t97 81
t136 27.5q64 0 122 -21t100 -62.5t57 -105.5l-106 -129q22 -8 45 -19t44 -25q29 -18 51 -42.5t35.5 -56t13.5 -73.5q0 -54 -24.5 -97.5t-71 -68.5t-113.5 -25z" />
    <glyph glyph-name="T" unicode="T" horiz-adv-x="603" 
d="M220 0v558h-213v150h590v-150h-215v-558h-162z" />
    <glyph glyph-name="Tbar" unicode="&#x166;" horiz-adv-x="603" 
d="M220 0v216h-116v136h116v206h-213v150h590v-150h-215v-206h117v-136h-117v-216h-162z" />
    <glyph glyph-name="Tcaron" unicode="&#x164;" horiz-adv-x="603" 
d="M220 0v558h-213v150h590v-150h-215v-558h-162zM250 764l-162 186h150l65 -86l62 86h150l-160 -186h-105z" />
    <glyph glyph-name="uni0162" unicode="&#x162;" horiz-adv-x="603" 
d="M220 0v558h-213v150h590v-150h-215v-558h-162zM288 -272q-26 -1 -43 1t-32 5v93q27 -5 47.5 -5t35 3.5t22.5 12.5t8 23q0 11 -7 18t-19 10.5t-25 3.5q-17 1 -34 -2t-26 -7l45 159h102l-19 -77q6 0 12 -0.5t11 -1.5q34 -6 56.5 -28.5t22.5 -71.5q0 -47 -23 -76.5
t-58.5 -44t-75.5 -15.5z" />
    <glyph glyph-name="uni021A" unicode="&#x21a;" horiz-adv-x="603" 
d="M220 0v558h-213v150h590v-150h-215v-558h-162zM253 -297l-36 52q13 6 29 18t30 26t18 26q-26 1 -46.5 18t-20.5 47q0 36 24 54t54 18q39 -1 60 -28.5t21 -68.5q-1 -40 -19.5 -72t-49 -54.5t-64.5 -35.5z" />
    <glyph glyph-name="U" unicode="U" horiz-adv-x="741" 
d="M372 -8q-105 0 -173 38t-100.5 112t-32.5 180v386h162v-395q0 -43 13 -82t45 -63.5t88 -24.5q57 0 86.5 25t41 64t11.5 81v395h162v-386q0 -105 -32 -179t-99 -112.5t-172 -38.5z" />
    <glyph glyph-name="Uacute" unicode="&#xda;" horiz-adv-x="741" 
d="M372 -8q-105 0 -173 38t-100.5 112t-32.5 180v386h162v-395q0 -43 13 -82t45 -63.5t88 -24.5q57 0 86.5 25t41 64t11.5 81v395h162v-386q0 -105 -32 -179t-99 -112.5t-172 -38.5zM283 764l123 182h168l-157 -182h-134z" />
    <glyph glyph-name="Ubreve" unicode="&#x16c;" horiz-adv-x="741" 
d="M372 -8q-105 0 -173 38t-100.5 112t-32.5 180v386h162v-395q0 -43 13 -82t45 -63.5t88 -24.5q57 0 86.5 25t41 64t11.5 81v395h162v-386q0 -105 -32 -179t-99 -112.5t-172 -38.5zM370 763q-91 0 -143 44.5t-53 135.5h130q0 -40 19 -55t48 -15q31 0 49 15t18 55h130
q-1 -60 -24.5 -100.5t-67.5 -60t-106 -19.5z" />
    <glyph glyph-name="Ucircumflex" unicode="&#xdb;" horiz-adv-x="741" 
d="M372 -8q-105 0 -173 38t-100.5 112t-32.5 180v386h162v-395q0 -43 13 -82t45 -63.5t88 -24.5q57 0 86.5 25t41 64t11.5 81v395h162v-386q0 -105 -32 -179t-99 -112.5t-172 -38.5zM157 764l160 186h105l162 -186h-150l-65 86l-62 -86h-150z" />
    <glyph glyph-name="Udieresis" unicode="&#xdc;" horiz-adv-x="741" 
d="M372 -8q-105 0 -173 38t-100.5 112t-32.5 180v386h162v-395q0 -43 13 -82t45 -63.5t88 -24.5q57 0 86.5 25t41 64t11.5 81v395h162v-386q0 -105 -32 -179t-99 -112.5t-172 -38.5zM496 756q-35 0 -61.5 21.5t-26.5 62.5q0 42 27.5 65t61.5 23q35 0 60.5 -22.5t25.5 -64.5
t-25.5 -63.5t-61.5 -21.5zM245 756q-35 0 -61 21.5t-26 62.5q0 42 26.5 65t60.5 23q35 0 61.5 -22.5t26.5 -65.5q0 -41 -26.5 -62.5t-61.5 -21.5z" />
    <glyph glyph-name="Ugrave" unicode="&#xd9;" horiz-adv-x="741" 
d="M372 -8q-105 0 -173 38t-100.5 112t-32.5 180v386h162v-395q0 -43 13 -82t45 -63.5t88 -24.5q57 0 86.5 25t41 64t11.5 81v395h162v-386q0 -105 -32 -179t-99 -112.5t-172 -38.5zM327 764l-157 182h168l122 -182h-133z" />
    <glyph glyph-name="Uhungarumlaut" unicode="&#x170;" horiz-adv-x="741" 
d="M372 -8q-105 0 -173 38t-100.5 112t-32.5 180v386h162v-395q0 -43 13 -82t45 -63.5t88 -24.5q57 0 86.5 25t41 64t11.5 81v395h162v-386q0 -105 -32 -179t-99 -112.5t-172 -38.5zM391 764l113 182h156l-145 -182h-124zM203 764l76 182h156l-113 -182h-119z" />
    <glyph glyph-name="Umacron" unicode="&#x16a;" horiz-adv-x="741" 
d="M372 -8q-105 0 -173 38t-100.5 112t-32.5 180v386h162v-395q0 -43 13 -82t45 -63.5t88 -24.5q57 0 86.5 25t41 64t11.5 81v395h162v-386q0 -105 -32 -179t-99 -112.5t-172 -38.5zM181 800v138h380v-138h-380z" />
    <glyph glyph-name="Uogonek" unicode="&#x172;" horiz-adv-x="741" 
d="M372 -8q-105 0 -173 38t-100.5 112t-32.5 180v386h162v-395q0 -43 13 -82t45 -63.5t88 -24.5q57 0 86.5 25t41 64t11.5 81v395h162v-386q0 -105 -32 -179t-99 -112.5t-172 -38.5zM417 -202q-60 0 -95.5 28.5t-35.5 76.5q0 37 22 66.5t56 43.5l88 -11q-25 -8 -43 -24
t-18 -39q0 -22 13.5 -33.5t34.5 -11.5q11 0 21 3t19 7l16 -89q-19 -10 -39.5 -13.5t-38.5 -3.5z" />
    <glyph glyph-name="Uring" unicode="&#x16e;" horiz-adv-x="741" 
d="M372 -8q-105 0 -173 38t-100.5 112t-32.5 180v386h162v-395q0 -43 13 -82t45 -63.5t88 -24.5q57 0 86.5 25t41 64t11.5 81v395h162v-386q0 -105 -32 -179t-99 -112.5t-172 -38.5zM371 752q-55 0 -90.5 33t-35.5 86t36.5 87t90.5 34t89.5 -33.5t35.5 -87.5q0 -53 -35 -86
t-91 -33zM371 833q18 0 29.5 11t11.5 28t-11.5 27.5t-29.5 10.5q-17 0 -28.5 -10.5t-11.5 -27.5t10.5 -28t29.5 -11z" />
    <glyph glyph-name="Utilde" unicode="&#x168;" horiz-adv-x="741" 
d="M372 -8q-105 0 -173 38t-100.5 112t-32.5 180v386h162v-395q0 -43 13 -82t45 -63.5t88 -24.5q57 0 86.5 25t41 64t11.5 81v395h162v-386q0 -105 -32 -179t-99 -112.5t-172 -38.5zM458 762q-30 0 -53 10.5t-40.5 23.5t-32 23.5t-27.5 10.5t-20 -11.5t-8 -26.5t2 -25h-106
q-4 44 6 84t39.5 65.5t81.5 25.5q27 0 46 -9.5t34.5 -22t29 -22.5t27.5 -10t20 10t7 23.5t-1 24.5h105q4 -42 -4 -82.5t-33 -66t-73 -25.5z" />
    <glyph glyph-name="V" unicode="V" horiz-adv-x="725" 
d="M259 0l-256 708h176l187 -571l181 571h176l-255 -708h-209z" />
    <glyph glyph-name="W" unicode="W" horiz-adv-x="1011" 
d="M170 0l-167 708h180l112 -523l114 523h208l113 -523l107 523h171l-165 -708h-220l-113 507l-112 -507h-228z" />
    <glyph glyph-name="Wacute" unicode="&#x1e82;" horiz-adv-x="1011" 
d="M170 0l-167 708h180l112 -523l114 523h208l113 -523l107 523h171l-165 -708h-220l-113 507l-112 -507h-228zM418 764l123 182h168l-157 -182h-134z" />
    <glyph glyph-name="Wcircumflex" unicode="&#x174;" horiz-adv-x="1011" 
d="M170 0l-167 708h180l112 -523l114 523h208l113 -523l107 523h171l-165 -708h-220l-113 507l-112 -507h-228zM292 764l160 186h105l162 -186h-150l-65 86l-62 -86h-150z" />
    <glyph glyph-name="Wdieresis" unicode="&#x1e84;" horiz-adv-x="1011" 
d="M170 0l-167 708h180l112 -523l114 523h208l113 -523l107 523h171l-165 -708h-220l-113 507l-112 -507h-228zM631 756q-35 0 -61.5 21.5t-26.5 62.5q0 42 27.5 65t61.5 23q35 0 60.5 -22.5t25.5 -64.5t-25.5 -63.5t-61.5 -21.5zM380 756q-35 0 -61 21.5t-26 62.5
q0 42 26.5 65t60.5 23q35 0 61.5 -22.5t26.5 -65.5q0 -41 -26.5 -62.5t-61.5 -21.5z" />
    <glyph glyph-name="Wgrave" unicode="&#x1e80;" horiz-adv-x="1011" 
d="M170 0l-167 708h180l112 -523l114 523h208l113 -523l107 523h171l-165 -708h-220l-113 507l-112 -507h-228zM461 764l-157 182h168l122 -182h-133z" />
    <glyph glyph-name="X" unicode="X" horiz-adv-x="694" 
d="M3 0l245 355l-237 353h194l146 -237l142 237h191l-237 -354l244 -354h-195l-152 237l-157 -237h-184z" />
    <glyph glyph-name="Y" unicode="Y" horiz-adv-x="704" 
d="M270 0v263l-267 445h187l162 -296l166 296h184l-269 -444v-264h-163z" />
    <glyph glyph-name="Yacute" unicode="&#xdd;" horiz-adv-x="704" 
d="M270 0v263l-267 445h187l162 -296l166 296h184l-269 -444v-264h-163zM265 764l123 182h168l-157 -182h-134z" />
    <glyph glyph-name="Ycircumflex" unicode="&#x176;" horiz-adv-x="704" 
d="M270 0v263l-267 445h187l162 -296l166 296h184l-269 -444v-264h-163zM139 764l160 186h105l162 -186h-150l-65 86l-62 -86h-150z" />
    <glyph glyph-name="Ydieresis" unicode="&#x178;" horiz-adv-x="704" 
d="M270 0v263l-267 445h187l162 -296l166 296h184l-269 -444v-264h-163zM478 756q-35 0 -61.5 21.5t-26.5 62.5q0 42 27.5 65t61.5 23q35 0 60.5 -22.5t25.5 -64.5t-25.5 -63.5t-61.5 -21.5zM227 756q-35 0 -61 21.5t-26 62.5q0 42 26.5 65t60.5 23q35 0 61.5 -22.5
t26.5 -65.5q0 -41 -26.5 -62.5t-61.5 -21.5z" />
    <glyph glyph-name="Ygrave" unicode="&#x1ef2;" horiz-adv-x="704" 
d="M270 0v263l-267 445h187l162 -296l166 296h184l-269 -444v-264h-163zM308 764l-157 182h168l122 -182h-133z" />
    <glyph glyph-name="Z" unicode="Z" horiz-adv-x="624" 
d="M28 0v127l355 431h-345v150h558v-127l-355 -432h349v-149h-562z" />
    <glyph glyph-name="Zacute" unicode="&#x179;" horiz-adv-x="624" 
d="M28 0v127l355 431h-345v150h558v-127l-355 -432h349v-149h-562zM225 764l123 182h168l-157 -182h-134z" />
    <glyph glyph-name="Zcaron" unicode="&#x17d;" horiz-adv-x="624" 
d="M28 0v127l355 431h-345v150h558v-127l-355 -432h349v-149h-562zM261 764l-162 186h150l65 -86l62 86h150l-160 -186h-105z" />
    <glyph glyph-name="Zdotaccent" unicode="&#x17b;" horiz-adv-x="624" 
d="M28 0v127l355 431h-345v150h558v-127l-355 -432h349v-149h-562zM312 752q-44 0 -70.5 26t-26.5 68q0 43 28 70t70 27q40 0 68 -26t28 -70q0 -43 -27 -69t-70 -26z" />
    <glyph glyph-name="I_alt" horiz-adv-x="612" 
d="M37 0v150h188v408h-188v150h538v-150h-188v-408h188v-150h-538z" />
    <glyph glyph-name="K_alt" horiz-adv-x="706" 
d="M71 0v708h162v-290l265 290h210l-287 -304l270 -404h-195l-195 295l-68 -66v-229h-162z" />
    <glyph glyph-name="W_alt" horiz-adv-x="957" 
d="M170 0l-167 708h180l113 -523l109 372h162l108 -372l108 523h171l-165 -708h-214l-91 293l-90 -293h-224z" />
    <glyph glyph-name="a" unicode="a" horiz-adv-x="572" 
d="M218 -8q-37 0 -70 10t-59 30t-41 50t-15 70q0 57 23.5 90.5t64 50t92.5 21.5t108 5h50q0 25 -9.5 43.5t-28.5 29.5t-47 11q-20 0 -37.5 -5.5t-29 -15t-15.5 -23.5h-159q7 47 29.5 80.5t56 54.5t75.5 31.5t86 10.5q116 0 173 -65t57 -188v-283h-145l-1 69q-25 -38 -57 -54
t-60 -19.5t-41 -3.5zM258 115q30 0 56 13.5t42.5 35t16.5 46.5v8h-98q-16 0 -31.5 -2t-27.5 -7.5t-19 -15.5t-7 -26q0 -17 9 -28.5t24.5 -17.5t34.5 -6z" />
    <glyph glyph-name="aacute" unicode="&#xe1;" horiz-adv-x="572" 
d="M218 -8q-37 0 -70 10t-59 30t-41 50t-15 70q0 57 23.5 90.5t64 50t92.5 21.5t108 5h50q0 25 -9.5 43.5t-28.5 29.5t-47 11q-20 0 -37.5 -5.5t-29 -15t-15.5 -23.5h-159q7 47 29.5 80.5t56 54.5t75.5 31.5t86 10.5q116 0 173 -65t57 -188v-283h-145l-1 69q-25 -38 -57 -54
t-60 -19.5t-41 -3.5zM258 115q30 0 56 13.5t42.5 35t16.5 46.5v8h-98q-16 0 -31.5 -2t-27.5 -7.5t-19 -15.5t-7 -26q0 -17 9 -28.5t24.5 -17.5t34.5 -6zM206 584l123 182h168l-157 -182h-134z" />
    <glyph glyph-name="abreve" unicode="&#x103;" horiz-adv-x="572" 
d="M218 -8q-37 0 -70 10t-59 30t-41 50t-15 70q0 57 23.5 90.5t64 50t92.5 21.5t108 5h50q0 25 -9.5 43.5t-28.5 29.5t-47 11q-20 0 -37.5 -5.5t-29 -15t-15.5 -23.5h-159q7 47 29.5 80.5t56 54.5t75.5 31.5t86 10.5q116 0 173 -65t57 -188v-283h-145l-1 69q-25 -38 -57 -54
t-60 -19.5t-41 -3.5zM258 115q30 0 56 13.5t42.5 35t16.5 46.5v8h-98q-16 0 -31.5 -2t-27.5 -7.5t-19 -15.5t-7 -26q0 -17 9 -28.5t24.5 -17.5t34.5 -6zM293 583q-91 0 -143 44.5t-53 135.5h130q0 -40 19 -55t48 -15q31 0 49 15t18 55h130q-1 -60 -24.5 -100.5t-67.5 -60
t-106 -19.5z" />
    <glyph glyph-name="acircumflex" unicode="&#xe2;" horiz-adv-x="572" 
d="M218 -8q-37 0 -70 10t-59 30t-41 50t-15 70q0 57 23.5 90.5t64 50t92.5 21.5t108 5h50q0 25 -9.5 43.5t-28.5 29.5t-47 11q-20 0 -37.5 -5.5t-29 -15t-15.5 -23.5h-159q7 47 29.5 80.5t56 54.5t75.5 31.5t86 10.5q116 0 173 -65t57 -188v-283h-145l-1 69q-25 -38 -57 -54
t-60 -19.5t-41 -3.5zM258 115q30 0 56 13.5t42.5 35t16.5 46.5v8h-98q-16 0 -31.5 -2t-27.5 -7.5t-19 -15.5t-7 -26q0 -17 9 -28.5t24.5 -17.5t34.5 -6zM80 584l160 186h105l162 -186h-150l-65 86l-62 -86h-150z" />
    <glyph glyph-name="adieresis" unicode="&#xe4;" horiz-adv-x="572" 
d="M218 -8q-37 0 -70 10t-59 30t-41 50t-15 70q0 57 23.5 90.5t64 50t92.5 21.5t108 5h50q0 25 -9.5 43.5t-28.5 29.5t-47 11q-20 0 -37.5 -5.5t-29 -15t-15.5 -23.5h-159q7 47 29.5 80.5t56 54.5t75.5 31.5t86 10.5q116 0 173 -65t57 -188v-283h-145l-1 69q-25 -38 -57 -54
t-60 -19.5t-41 -3.5zM258 115q30 0 56 13.5t42.5 35t16.5 46.5v8h-98q-16 0 -31.5 -2t-27.5 -7.5t-19 -15.5t-7 -26q0 -17 9 -28.5t24.5 -17.5t34.5 -6zM419 576q-35 0 -61.5 21.5t-26.5 62.5q0 42 27.5 65t61.5 23q35 0 60.5 -22.5t25.5 -64.5t-25.5 -63.5t-61.5 -21.5z
M168 576q-35 0 -61 21.5t-26 62.5q0 42 26.5 65t60.5 23q35 0 61.5 -22.5t26.5 -65.5q0 -41 -26.5 -62.5t-61.5 -21.5z" />
    <glyph glyph-name="agrave" unicode="&#xe0;" horiz-adv-x="572" 
d="M218 -8q-37 0 -70 10t-59 30t-41 50t-15 70q0 57 23.5 90.5t64 50t92.5 21.5t108 5h50q0 25 -9.5 43.5t-28.5 29.5t-47 11q-20 0 -37.5 -5.5t-29 -15t-15.5 -23.5h-159q7 47 29.5 80.5t56 54.5t75.5 31.5t86 10.5q116 0 173 -65t57 -188v-283h-145l-1 69q-25 -38 -57 -54
t-60 -19.5t-41 -3.5zM258 115q30 0 56 13.5t42.5 35t16.5 46.5v8h-98q-16 0 -31.5 -2t-27.5 -7.5t-19 -15.5t-7 -26q0 -17 9 -28.5t24.5 -17.5t34.5 -6zM250 584l-157 182h168l122 -182h-133z" />
    <glyph glyph-name="amacron" unicode="&#x101;" horiz-adv-x="572" 
d="M218 -8q-37 0 -70 10t-59 30t-41 50t-15 70q0 57 23.5 90.5t64 50t92.5 21.5t108 5h50q0 25 -9.5 43.5t-28.5 29.5t-47 11q-20 0 -37.5 -5.5t-29 -15t-15.5 -23.5h-159q7 47 29.5 80.5t56 54.5t75.5 31.5t86 10.5q116 0 173 -65t57 -188v-283h-145l-1 69q-25 -38 -57 -54
t-60 -19.5t-41 -3.5zM258 115q30 0 56 13.5t42.5 35t16.5 46.5v8h-98q-16 0 -31.5 -2t-27.5 -7.5t-19 -15.5t-7 -26q0 -17 9 -28.5t24.5 -17.5t34.5 -6zM104 620v138h380v-138h-380z" />
    <glyph glyph-name="aogonek" unicode="&#x105;" horiz-adv-x="572" 
d="M218 -8q-37 0 -70 10t-59 30t-41 50t-15 70q0 57 23.5 90.5t64 50t92.5 21.5t108 5h50q0 25 -9.5 43.5t-28.5 29.5t-47 11q-20 0 -37.5 -5.5t-29 -15t-15.5 -23.5h-159q7 47 29.5 80.5t56 54.5t75.5 31.5t86 10.5q116 0 173 -65t57 -188v-283h-145l-1 69q-25 -38 -57 -54
t-60 -19.5t-41 -3.5zM258 115q30 0 56 13.5t42.5 35t16.5 46.5v8h-98q-16 0 -31.5 -2t-27.5 -7.5t-19 -15.5t-7 -26q0 -17 9 -28.5t24.5 -17.5t34.5 -6zM466 -202q-60 0 -95.5 28.5t-35.5 76.5q0 37 22 66.5t56 43.5l88 -11q-25 -8 -43 -24t-18 -39q0 -22 13.5 -33.5
t34.5 -11.5q11 0 21 3t19 7l16 -89q-19 -10 -39.5 -13.5t-38.5 -3.5z" />
    <glyph glyph-name="aring" unicode="&#xe5;" horiz-adv-x="572" 
d="M218 -8q-37 0 -70 10t-59 30t-41 50t-15 70q0 57 23.5 90.5t64 50t92.5 21.5t108 5h50q0 25 -9.5 43.5t-28.5 29.5t-47 11q-20 0 -37.5 -5.5t-29 -15t-15.5 -23.5h-159q7 47 29.5 80.5t56 54.5t75.5 31.5t86 10.5q116 0 173 -65t57 -188v-283h-145l-1 69q-25 -38 -57 -54
t-60 -19.5t-41 -3.5zM258 115q30 0 56 13.5t42.5 35t16.5 46.5v8h-98q-16 0 -31.5 -2t-27.5 -7.5t-19 -15.5t-7 -26q0 -17 9 -28.5t24.5 -17.5t34.5 -6zM294 572q-55 0 -90.5 33t-35.5 86t36.5 87t90.5 34t89.5 -33.5t35.5 -87.5q0 -53 -35 -86t-91 -33zM294 653
q18 0 29.5 11t11.5 28t-11.5 27.5t-29.5 10.5q-17 0 -28.5 -10.5t-11.5 -27.5t10.5 -28t29.5 -11z" />
    <glyph glyph-name="atilde" unicode="&#xe3;" horiz-adv-x="572" 
d="M218 -8q-37 0 -70 10t-59 30t-41 50t-15 70q0 57 23.5 90.5t64 50t92.5 21.5t108 5h50q0 25 -9.5 43.5t-28.5 29.5t-47 11q-20 0 -37.5 -5.5t-29 -15t-15.5 -23.5h-159q7 47 29.5 80.5t56 54.5t75.5 31.5t86 10.5q116 0 173 -65t57 -188v-283h-145l-1 69q-25 -38 -57 -54
t-60 -19.5t-41 -3.5zM258 115q30 0 56 13.5t42.5 35t16.5 46.5v8h-98q-16 0 -31.5 -2t-27.5 -7.5t-19 -15.5t-7 -26q0 -17 9 -28.5t24.5 -17.5t34.5 -6zM381 582q-30 0 -53 10.5t-40.5 23.5t-32 23.5t-27.5 10.5t-20 -11.5t-8 -26.5t2 -25h-106q-4 44 6 84t39.5 65.5
t81.5 25.5q27 0 46 -9.5t34.5 -22t29 -22.5t27.5 -10t20 10t7 23.5t-1 24.5h105q4 -42 -4 -82.5t-33 -66t-73 -25.5z" />
    <glyph glyph-name="ae" unicode="&#xe6;" horiz-adv-x="906" 
d="M239 -8q-54 0 -101 18t-76 54.5t-29 91.5q0 52 21.5 84.5t56 49t77 23t83.5 6.5h100q-1 27 -12 45.5t-29.5 28.5t-43.5 10q-22 0 -48.5 -10t-33.5 -34h-159q9 61 44 100t88 58t112 19q45 0 89.5 -13t77.5 -47q33 27 75.5 44t97.5 17q75 0 130 -32.5t85.5 -90t30.5 -136.5
q0 -15 -1.5 -30.5t-4.5 -30.5h-350q2 -31 17 -51t38 -30t50 -10q18 0 37 4t34.5 14t21.5 27h156q-14 -60 -50 -100t-86.5 -59.5t-110.5 -19.5q-64 0 -114 21t-82 62q-22 -29 -51.5 -47t-64 -27t-75.5 -9zM260 115q30 0 54 12t39.5 33.5t19.5 51.5l1 5h-112q-13 0 -25.5 -2
t-23 -8t-17 -15.5t-6.5 -24.5q0 -19 10.5 -30.5t27 -16.5t32.5 -5zM522 319h203q0 29 -13.5 49.5t-35.5 31t-50 10.5t-51.5 -10.5t-38 -31t-14.5 -49.5z" />
    <glyph glyph-name="b" unicode="b" horiz-adv-x="630" 
d="M368 -8q-22 0 -50 4t-56.5 18t-54.5 43l-1 -57h-155v708h159v-238q31 35 74 51t90 16q77 0 126.5 -35.5t74 -97t24.5 -140.5q0 -78 -24.5 -139.5t-75.5 -97t-131 -35.5zM329 134q45 0 69.5 20.5t34.5 51.5t10 63q0 31 -11 59.5t-36 46t-67 17.5q-39 0 -66 -17.5
t-40.5 -47t-13.5 -63.5t12.5 -64t39 -48t68.5 -18z" />
    <glyph glyph-name="c" unicode="c" horiz-adv-x="565" 
d="M290 -8q-80 0 -138 32.5t-89.5 93.5t-31.5 144q0 85 32.5 146.5t91.5 95t140 33.5q67 0 119.5 -24.5t84 -70.5t35.5 -113h-154q-8 32 -30.5 47.5t-54.5 15.5q-41 0 -64.5 -20.5t-33 -50.5t-9.5 -59q0 -32 10.5 -61t34 -47t60.5 -18q34 0 57.5 16t30.5 47h158
q-3 -68 -37.5 -114t-89.5 -69.5t-122 -23.5z" />
    <glyph glyph-name="cacute" unicode="&#x107;" horiz-adv-x="565" 
d="M290 -8q-80 0 -138 32.5t-89.5 93.5t-31.5 144q0 85 32.5 146.5t91.5 95t140 33.5q67 0 119.5 -24.5t84 -70.5t35.5 -113h-154q-8 32 -30.5 47.5t-54.5 15.5q-41 0 -64.5 -20.5t-33 -50.5t-9.5 -59q0 -32 10.5 -61t34 -47t60.5 -18q34 0 57.5 16t30.5 47h158
q-3 -68 -37.5 -114t-89.5 -69.5t-122 -23.5zM195 583l123 182h168l-157 -182h-134z" />
    <glyph glyph-name="ccaron" unicode="&#x10d;" horiz-adv-x="565" 
d="M290 -8q-80 0 -138 32.5t-89.5 93.5t-31.5 144q0 85 32.5 146.5t91.5 95t140 33.5q67 0 119.5 -24.5t84 -70.5t35.5 -113h-154q-8 32 -30.5 47.5t-54.5 15.5q-41 0 -64.5 -20.5t-33 -50.5t-9.5 -59q0 -32 10.5 -61t34 -47t60.5 -18q34 0 57.5 16t30.5 47h158
q-3 -68 -37.5 -114t-89.5 -69.5t-122 -23.5zM231 583l-162 186h150l65 -86l62 86h150l-160 -186h-105z" />
    <glyph glyph-name="ccedilla" unicode="&#xe7;" horiz-adv-x="565" 
d="M290 -8q-80 0 -138 32.5t-89.5 93.5t-31.5 144q0 85 32.5 146.5t91.5 95t140 33.5q67 0 119.5 -24.5t84 -70.5t35.5 -113h-154q-8 32 -30.5 47.5t-54.5 15.5q-41 0 -64.5 -20.5t-33 -50.5t-9.5 -59q0 -32 10.5 -61t34 -47t60.5 -18q34 0 57.5 16t30.5 47h158
q-3 -68 -37.5 -114t-89.5 -69.5t-122 -23.5zM269 -272q-26 -1 -43 1t-32 5v93q27 -5 47.5 -5t35 3.5t22.5 12.5t8 23q0 11 -7 18t-19 10.5t-25 3.5q-17 1 -34 -2t-26 -7l45 159h102l-19 -77q6 0 12 -0.5t11 -1.5q34 -6 56.5 -28.5t22.5 -71.5q0 -47 -23 -76.5t-58.5 -44
t-75.5 -15.5z" />
    <glyph glyph-name="ccircumflex" unicode="&#x109;" horiz-adv-x="565" 
d="M290 -8q-80 0 -138 32.5t-89.5 93.5t-31.5 144q0 85 32.5 146.5t91.5 95t140 33.5q67 0 119.5 -24.5t84 -70.5t35.5 -113h-154q-8 32 -30.5 47.5t-54.5 15.5q-41 0 -64.5 -20.5t-33 -50.5t-9.5 -59q0 -32 10.5 -61t34 -47t60.5 -18q34 0 57.5 16t30.5 47h158
q-3 -68 -37.5 -114t-89.5 -69.5t-122 -23.5zM69 583l160 186h105l162 -186h-150l-65 86l-62 -86h-150z" />
    <glyph glyph-name="cdotaccent" unicode="&#x10b;" horiz-adv-x="565" 
d="M290 -8q-80 0 -138 32.5t-89.5 93.5t-31.5 144q0 85 32.5 146.5t91.5 95t140 33.5q67 0 119.5 -24.5t84 -70.5t35.5 -113h-154q-8 32 -30.5 47.5t-54.5 15.5q-41 0 -64.5 -20.5t-33 -50.5t-9.5 -59q0 -32 10.5 -61t34 -47t60.5 -18q34 0 57.5 16t30.5 47h158
q-3 -68 -37.5 -114t-89.5 -69.5t-122 -23.5zM282 571q-44 0 -70.5 26t-26.5 68q0 43 28 70t70 27q40 0 68 -26t28 -70q0 -43 -27 -69t-70 -26z" />
    <glyph glyph-name="d" unicode="d" horiz-adv-x="632" 
d="M270 -8q-81 0 -134 37.5t-79 99t-26 135.5q0 80 29 141.5t85 96.5t138 35q28 0 53.5 -6t48 -17.5t37.5 -29.5v224h159v-708h-155v53q-19 -21 -43.5 -34t-52.5 -20t-60 -7zM304 136q42 0 68 18.5t38.5 48t12.5 61.5q0 34 -12.5 63t-38.5 47t-68 18q-43 0 -68.5 -19.5
t-36 -49.5t-10.5 -62q0 -24 6 -46.5t19.5 -40t35.5 -28t54 -10.5z" />
    <glyph glyph-name="dcaron" unicode="&#x10f;" horiz-adv-x="632" 
d="M270 -8q-81 0 -134 37.5t-79 99t-26 135.5q0 80 29 141.5t85 96.5t138 35q28 0 53.5 -6t48 -17.5t37.5 -29.5v224h159v-708h-155v53q-19 -21 -43.5 -34t-52.5 -20t-60 -7zM304 136q42 0 68 18.5t38.5 48t12.5 61.5q0 34 -12.5 63t-38.5 47t-68 18q-43 0 -68.5 -19.5
t-36 -49.5t-10.5 -62q0 -24 6 -46.5t19.5 -40t35.5 -28t54 -10.5zM641 411l-44 63q15 7 34 21t35 30t21 28q-30 3 -52.5 23.5t-22.5 57.5q0 41 26.5 62t62.5 21q47 0 70.5 -32.5t23.5 -77.5q0 -48 -22.5 -88t-57.5 -68t-74 -40z" />
    <glyph glyph-name="dcroat" unicode="&#x111;" horiz-adv-x="632" 
d="M270 -8q-81 0 -134 37.5t-79 99t-26 135.5q0 80 29 141.5t85 96t138 34.5q28 0 53.5 -6t48 -17t37.5 -29v71h-101v100h101v53h159v-53h75v-100h-75v-555h-155v53q-19 -21 -43.5 -34t-52.5 -20t-60 -7zM304 136q43 0 69 19t38 48.5t12 60.5q0 34 -12.5 63t-38.5 47t-68 18
q-43 0 -68.5 -19.5t-36 -49.5t-10.5 -62q0 -24 6 -46.5t19.5 -40t35.5 -28t54 -10.5z" />
    <glyph glyph-name="eth" unicode="&#xf0;" horiz-adv-x="611" 
d="M296 -8q-80 0 -140 32.5t-92.5 91t-32.5 136.5q0 73 29 129.5t82 89.5t124 33q50 0 95 -19t73 -61q0 26 -12 57.5t-30.5 59t-37.5 42.5l-109 -61l-52 91l65 39q-22 13 -55.5 20.5t-63.5 11.5l23 117q59 -8 113.5 -25t103.5 -46l108 62l55 -94l-70 -41q40 -47 63.5 -95.5
t34 -106t10.5 -132.5q0 -67 -16.5 -127t-51.5 -106t-88.5 -72t-127.5 -26zM301 133q34 0 59 14.5t39 40.5t14 57q0 34 -15.5 59.5t-41 39t-59.5 13.5q-32 0 -56.5 -14.5t-38 -38.5t-13.5 -57t14 -58.5t39.5 -40.5t58.5 -15z" />
    <glyph glyph-name="e" unicode="e" horiz-adv-x="575" 
d="M296 -8q-82 0 -141.5 33t-91.5 93.5t-32 142.5t33 144t92.5 97t140.5 35q59 0 104.5 -19t78 -54t49 -83t16.5 -105q-1 -15 -2 -29.5t-5 -29.5h-350q3 -25 15 -46t34 -33t56 -12q24 0 43.5 5.5t32.5 16t17 23.5h156q-13 -63 -50 -102.5t-88 -58t-108 -18.5zM191 324h203
q0 21 -10.5 41t-32.5 32.5t-57 12.5q-34 0 -57 -13t-34 -33t-12 -40z" />
    <glyph glyph-name="eacute" unicode="&#xe9;" horiz-adv-x="575" 
d="M296 -8q-82 0 -141.5 33t-91.5 93.5t-32 142.5t33 144t92.5 97t140.5 35q59 0 104.5 -19t78 -54t49 -83t16.5 -105q-1 -15 -2 -29.5t-5 -29.5h-350q3 -25 15 -46t34 -33t56 -12q24 0 43.5 5.5t32.5 16t17 23.5h156q-13 -63 -50 -102.5t-88 -58t-108 -18.5zM191 324h203
q0 21 -10.5 41t-32.5 32.5t-57 12.5q-34 0 -57 -13t-34 -33t-12 -40zM209 583l123 182h168l-157 -182h-134z" />
    <glyph glyph-name="ebreve" unicode="&#x115;" horiz-adv-x="575" 
d="M296 -8q-82 0 -141.5 33t-91.5 93.5t-32 142.5t33 144t92.5 97t140.5 35q59 0 104.5 -19t78 -54t49 -83t16.5 -105q-1 -15 -2 -29.5t-5 -29.5h-350q3 -25 15 -46t34 -33t56 -12q24 0 43.5 5.5t32.5 16t17 23.5h156q-13 -63 -50 -102.5t-88 -58t-108 -18.5zM191 324h203
q0 21 -10.5 41t-32.5 32.5t-57 12.5q-34 0 -57 -13t-34 -33t-12 -40zM296 582q-91 0 -143 44.5t-53 135.5h130q0 -40 19 -55t48 -15q31 0 49 15t18 55h130q-1 -60 -24.5 -100.5t-67.5 -60t-106 -19.5z" />
    <glyph glyph-name="ecaron" unicode="&#x11b;" horiz-adv-x="575" 
d="M296 -8q-82 0 -141.5 33t-91.5 93.5t-32 142.5t33 144t92.5 97t140.5 35q59 0 104.5 -19t78 -54t49 -83t16.5 -105q-1 -15 -2 -29.5t-5 -29.5h-350q3 -25 15 -46t34 -33t56 -12q24 0 43.5 5.5t32.5 16t17 23.5h156q-13 -63 -50 -102.5t-88 -58t-108 -18.5zM191 324h203
q0 21 -10.5 41t-32.5 32.5t-57 12.5q-34 0 -57 -13t-34 -33t-12 -40zM246 583l-162 186h150l65 -86l62 86h150l-160 -186h-105z" />
    <glyph glyph-name="ecircumflex" unicode="&#xea;" horiz-adv-x="575" 
d="M296 -8q-82 0 -141.5 33t-91.5 93.5t-32 142.5t33 144t92.5 97t140.5 35q59 0 104.5 -19t78 -54t49 -83t16.5 -105q-1 -15 -2 -29.5t-5 -29.5h-350q3 -25 15 -46t34 -33t56 -12q24 0 43.5 5.5t32.5 16t17 23.5h156q-13 -63 -50 -102.5t-88 -58t-108 -18.5zM191 324h203
q0 21 -10.5 41t-32.5 32.5t-57 12.5q-34 0 -57 -13t-34 -33t-12 -40zM83 583l160 186h105l162 -186h-150l-65 86l-62 -86h-150z" />
    <glyph glyph-name="edieresis" unicode="&#xeb;" horiz-adv-x="575" 
d="M296 -8q-82 0 -141.5 33t-91.5 93.5t-32 142.5t33 144t92.5 97t140.5 35q59 0 104.5 -19t78 -54t49 -83t16.5 -105q-1 -15 -2 -29.5t-5 -29.5h-350q3 -25 15 -46t34 -33t56 -12q24 0 43.5 5.5t32.5 16t17 23.5h156q-13 -63 -50 -102.5t-88 -58t-108 -18.5zM191 324h203
q0 21 -10.5 41t-32.5 32.5t-57 12.5q-34 0 -57 -13t-34 -33t-12 -40zM423 575q-35 0 -61.5 21.5t-26.5 62.5q0 42 27.5 65t61.5 23q35 0 60.5 -22.5t25.5 -64.5t-25.5 -63.5t-61.5 -21.5zM172 575q-35 0 -61 21.5t-26 62.5q0 42 26.5 65t60.5 23q35 0 61.5 -22.5t26.5 -65.5
q0 -41 -26.5 -62.5t-61.5 -21.5z" />
    <glyph glyph-name="edotaccent" unicode="&#x117;" horiz-adv-x="575" 
d="M296 -8q-82 0 -141.5 33t-91.5 93.5t-32 142.5t33 144t92.5 97t140.5 35q59 0 104.5 -19t78 -54t49 -83t16.5 -105q-1 -15 -2 -29.5t-5 -29.5h-350q3 -25 15 -46t34 -33t56 -12q24 0 43.5 5.5t32.5 16t17 23.5h156q-13 -63 -50 -102.5t-88 -58t-108 -18.5zM191 324h203
q0 21 -10.5 41t-32.5 32.5t-57 12.5q-34 0 -57 -13t-34 -33t-12 -40zM297 571q-44 0 -70.5 26t-26.5 68q0 43 28 70t70 27q40 0 68 -26t28 -70q0 -43 -27 -69t-70 -26z" />
    <glyph glyph-name="egrave" unicode="&#xe8;" horiz-adv-x="575" 
d="M296 -8q-82 0 -141.5 33t-91.5 93.5t-32 142.5t33 144t92.5 97t140.5 35q59 0 104.5 -19t78 -54t49 -83t16.5 -105q-1 -15 -2 -29.5t-5 -29.5h-350q3 -25 15 -46t34 -33t56 -12q24 0 43.5 5.5t32.5 16t17 23.5h156q-13 -63 -50 -102.5t-88 -58t-108 -18.5zM191 324h203
q0 21 -10.5 41t-32.5 32.5t-57 12.5q-34 0 -57 -13t-34 -33t-12 -40zM253 583l-157 182h168l122 -182h-133z" />
    <glyph glyph-name="emacron" unicode="&#x113;" horiz-adv-x="575" 
d="M296 -8q-82 0 -141.5 33t-91.5 93.5t-32 142.5t33 144t92.5 97t140.5 35q59 0 104.5 -19t78 -54t49 -83t16.5 -105q-1 -15 -2 -29.5t-5 -29.5h-350q3 -25 15 -46t34 -33t56 -12q24 0 43.5 5.5t32.5 16t17 23.5h156q-13 -63 -50 -102.5t-88 -58t-108 -18.5zM191 324h203
q0 21 -10.5 41t-32.5 32.5t-57 12.5q-34 0 -57 -13t-34 -33t-12 -40zM107 619v138h380v-138h-380z" />
    <glyph glyph-name="eogonek" unicode="&#x119;" horiz-adv-x="575" 
d="M296 -8q-82 0 -141.5 33t-91.5 93.5t-32 142.5t33 144t92.5 97t140.5 35q59 0 104.5 -19t78 -54t49 -83t16.5 -105q-1 -15 -2 -29.5t-5 -29.5h-350q3 -25 15 -46t34 -33t56 -12q24 0 43.5 5.5t32.5 16t17 23.5h156q-13 -63 -50 -102.5t-88 -58t-108 -18.5zM191 324h203
q0 21 -10.5 41t-32.5 32.5t-57 12.5q-34 0 -57 -13t-34 -33t-12 -40zM333 -202q-60 0 -95.5 28.5t-35.5 76.5q0 37 22 66.5t56 43.5l88 -11q-25 -8 -43 -24t-18 -39q0 -22 13.5 -33.5t34.5 -11.5q11 0 21 3t19 7l16 -89q-19 -10 -39.5 -13.5t-38.5 -3.5z" />
    <glyph glyph-name="f" unicode="f" horiz-adv-x="390" 
d="M93 0v386h-77v141h77v45q0 61 20 100t62.5 57t106.5 18h96v-141h-76q-19 0 -30 -5.5t-15.5 -17t-4.5 -28.5v-28h126v-141h-126v-386h-159z" />
    <glyph glyph-name="g" unicode="g" horiz-adv-x="632" 
d="M313 -246q-64 0 -118.5 20.5t-91.5 64.5t-50 114h161q6 -17 19.5 -29t33.5 -18.5t44 -6.5q45 0 68.5 19t32 50.5t8.5 66.5v26q-19 -29 -45.5 -43t-55 -19.5t-52.5 -5.5q-84 0 -136.5 37t-76 97.5t-23.5 129.5q0 77 28 140.5t82.5 101t135.5 37.5q49 0 84.5 -15.5
t61.5 -42.5l14 49h144v-439q0 -104 -24.5 -178.5t-83 -115t-160.5 -40.5zM304 135q41 0 67 18t39 48t13 64q0 36 -12.5 65t-38 46.5t-65.5 17.5q-45 0 -71 -21t-36.5 -51.5t-10.5 -60.5q0 -32 11 -61t36.5 -47t67.5 -18z" />
    <glyph glyph-name="gbreve" unicode="&#x11f;" horiz-adv-x="632" 
d="M313 -246q-64 0 -118.5 20.5t-91.5 64.5t-50 114h161q6 -17 19.5 -29t33.5 -18.5t44 -6.5q45 0 68.5 19t32 50.5t8.5 66.5v26q-19 -29 -45.5 -43t-55 -19.5t-52.5 -5.5q-84 0 -136.5 37t-76 97.5t-23.5 129.5q0 77 28 140.5t82.5 101t135.5 37.5q49 0 84.5 -15.5
t61.5 -42.5l14 49h144v-439q0 -104 -24.5 -178.5t-83 -115t-160.5 -40.5zM304 135q41 0 67 18t39 48t13 64q0 36 -12.5 65t-38 46.5t-65.5 17.5q-45 0 -71 -21t-36.5 -51.5t-10.5 -60.5q0 -32 11 -61t36.5 -47t67.5 -18zM319 582q-91 0 -143 44.5t-53 135.5h130
q0 -40 19 -55t48 -15q31 0 49 15t18 55h130q-1 -60 -24.5 -100.5t-67.5 -60t-106 -19.5z" />
    <glyph glyph-name="gcircumflex" unicode="&#x11d;" horiz-adv-x="632" 
d="M313 -246q-64 0 -118.5 20.5t-91.5 64.5t-50 114h161q6 -17 19.5 -29t33.5 -18.5t44 -6.5q45 0 68.5 19t32 50.5t8.5 66.5v26q-19 -29 -45.5 -43t-55 -19.5t-52.5 -5.5q-84 0 -136.5 37t-76 97.5t-23.5 129.5q0 77 28 140.5t82.5 101t135.5 37.5q49 0 84.5 -15.5
t61.5 -42.5l14 49h144v-439q0 -104 -24.5 -178.5t-83 -115t-160.5 -40.5zM304 135q41 0 67 18t39 48t13 64q0 36 -12.5 65t-38 46.5t-65.5 17.5q-45 0 -71 -21t-36.5 -51.5t-10.5 -60.5q0 -32 11 -61t36.5 -47t67.5 -18zM106 583l160 186h105l162 -186h-150l-65 86l-62 -86
h-150z" />
    <glyph glyph-name="uni0123" unicode="&#x123;" horiz-adv-x="632" 
d="M313 -246q-64 0 -118.5 20.5t-91.5 64.5t-50 114h161q6 -17 19.5 -29t33.5 -18.5t44 -6.5q45 0 68.5 19t32 50.5t8.5 66.5v26q-19 -29 -45.5 -43t-55 -19.5t-52.5 -5.5q-84 0 -136.5 37t-76 97.5t-23.5 129.5q0 77 28 140.5t82.5 101t135.5 37.5q49 0 84.5 -15.5
t61.5 -42.5l14 49h144v-439q0 -104 -24.5 -178.5t-83 -115t-160.5 -40.5zM304 135q41 0 67 18t39 48t13 64q0 36 -12.5 65t-38 46.5t-65.5 17.5q-45 0 -71 -21t-36.5 -51.5t-10.5 -60.5q0 -32 11 -61t36.5 -47t67.5 -18zM315 570q-47 0 -70.5 31t-23.5 75q0 46 22 84
t58 65.5t76 39.5l42 -61q-13 -6 -32.5 -19.5t-36.5 -29t-22 -27.5q31 -2 54 -22.5t23 -55.5q0 -40 -27.5 -60t-62.5 -20z" />
    <glyph glyph-name="gdotaccent" unicode="&#x121;" horiz-adv-x="632" 
d="M313 -246q-64 0 -118.5 20.5t-91.5 64.5t-50 114h161q6 -17 19.5 -29t33.5 -18.5t44 -6.5q45 0 68.5 19t32 50.5t8.5 66.5v26q-19 -29 -45.5 -43t-55 -19.5t-52.5 -5.5q-84 0 -136.5 37t-76 97.5t-23.5 129.5q0 77 28 140.5t82.5 101t135.5 37.5q49 0 84.5 -15.5
t61.5 -42.5l14 49h144v-439q0 -104 -24.5 -178.5t-83 -115t-160.5 -40.5zM304 135q41 0 67 18t39 48t13 64q0 36 -12.5 65t-38 46.5t-65.5 17.5q-45 0 -71 -21t-36.5 -51.5t-10.5 -60.5q0 -32 11 -61t36.5 -47t67.5 -18zM320 571q-44 0 -70.5 26t-26.5 68q0 43 28 70t70 27
q40 0 68 -26t28 -70q0 -43 -27 -69t-70 -26z" />
    <glyph glyph-name="h" unicode="h" horiz-adv-x="609" 
d="M51 0v708h159v-236q23 27 52 41t57.5 19t49.5 5q73 0 115 -33.5t59.5 -89.5t17.5 -123v-291h-158v274q0 19 -4 40t-14.5 38.5t-28.5 28.5t-47 11q-27 0 -46.5 -10.5t-31 -28.5t-16.5 -40.5t-5 -45.5v-267h-159z" />
    <glyph glyph-name="hbar" unicode="&#x127;" horiz-adv-x="609" 
d="M51 0v555h-64v100h64v53h159v-53h98v-100h-98v-83q28 34 70 49.5t85 15.5q75 0 117.5 -33.5t60.5 -89.5t18 -123v-291h-158v274q0 23 -4.5 44t-15.5 38t-29 26.5t-46 9.5q-27 0 -46 -10.5t-30.5 -28.5t-16.5 -40.5t-5 -45.5v-267h-159z" />
    <glyph glyph-name="hcircumflex" unicode="&#x125;" horiz-adv-x="609" 
d="M51 0v708h159v-236q23 27 52 41t57.5 19t49.5 5q73 0 115 -33.5t59.5 -89.5t17.5 -123v-291h-158v274q0 19 -4 40t-14.5 38.5t-28.5 28.5t-47 11q-27 0 -46.5 -10.5t-31 -28.5t-16.5 -40.5t-5 -45.5v-267h-159zM87 760l160 186h105l162 -186h-150l-65 86l-62 -86h-150z
" />
    <glyph glyph-name="i" unicode="i" horiz-adv-x="261" 
d="M51 0v527h159v-527h-159zM131 571q-44 0 -70.5 26t-26.5 68q0 43 28 70t70 27q40 0 68 -26t28 -70q0 -43 -27 -69t-70 -26z" />
    <glyph glyph-name="dotlessi" unicode="&#x131;" horiz-adv-x="261" 
d="M51 0v527h159v-527h-159z" />
    <glyph glyph-name="iacute" unicode="&#xed;" horiz-adv-x="261" 
d="M51 0v527h159v-527h-159zM43 583l123 182h168l-157 -182h-134z" />
    <glyph glyph-name="ibreve" unicode="&#x12d;" horiz-adv-x="261" 
d="M51 0v527h159v-527h-159zM130 582q-91 0 -143 44.5t-53 135.5h130q0 -40 19 -55t48 -15q31 0 49 15t18 55h130q-1 -60 -24.5 -100.5t-67.5 -60t-106 -19.5z" />
    <glyph glyph-name="icircumflex" unicode="&#xee;" horiz-adv-x="261" 
d="M51 0v527h159v-527h-159zM-83 583l160 186h105l162 -186h-150l-65 86l-62 -86h-150z" />
    <glyph glyph-name="idieresis" unicode="&#xef;" horiz-adv-x="261" 
d="M51 0v527h159v-527h-159zM22 582q-35 0 -61 21.5t-26 62.5t26.5 64t60.5 23t60.5 -22.5t26.5 -64.5q0 -41 -26 -62.5t-61 -21.5zM242 582q-35 0 -61.5 21.5t-26.5 62.5t27 64t61 23t59.5 -22.5t25.5 -63.5q0 -42 -25 -63.5t-60 -21.5z" />
    <glyph glyph-name="i.loclTRK" horiz-adv-x="261" 
d="M51 0v527h159v-527h-159zM131 571q-44 0 -70.5 26t-26.5 68q0 43 28 70t70 27q40 0 68 -26t28 -70q0 -43 -27 -69t-70 -26z" />
    <glyph glyph-name="igrave" unicode="&#xec;" horiz-adv-x="261" 
d="M51 0v527h159v-527h-159zM87 583l-157 182h168l122 -182h-133z" />
    <glyph glyph-name="imacron" unicode="&#x12b;" horiz-adv-x="261" 
d="M51 0v527h159v-527h-159zM-59 619v138h380v-138h-380z" />
    <glyph glyph-name="iogonek" unicode="&#x12f;" horiz-adv-x="261" 
d="M51 0v527h159v-527h-159zM131 571q-44 0 -70.5 26t-26.5 68q0 43 28 70t70 27q40 0 68 -26t28 -70q0 -43 -27 -69t-70 -26zM154 -202q-60 0 -95.5 28.5t-35.5 76.5q0 37 22 66.5t56 43.5l88 -11q-25 -8 -43 -24t-18 -39q0 -22 13.5 -33.5t34.5 -11.5q11 0 21 3t19 7
l16 -89q-19 -10 -39.5 -13.5t-38.5 -3.5z" />
    <glyph glyph-name="itilde" unicode="&#x129;" horiz-adv-x="261" 
d="M51 0v527h159v-527h-159zM218 581q-30 0 -53 10.5t-40.5 23.5t-32 23.5t-27.5 10.5t-20 -11.5t-8 -26.5t2 -25h-106q-4 44 6 84t39.5 65.5t81.5 25.5q27 0 46 -9.5t34.5 -22t29 -22.5t27.5 -10t20 10t7 23.5t-1 24.5h105q4 -42 -4 -82.5t-33 -66t-73 -25.5z" />
    <glyph glyph-name="ij" unicode="&#x133;" horiz-adv-x="547" 
d="M227 -212v142h40q29 0 41.5 10.5t15.5 25.5t3 28v533h158v-557q0 -61 -17 -101.5t-55 -60.5t-103 -20h-83zM62 0v527h158v-527h-158zM140 575q-38 0 -67.5 23.5t-29.5 68.5q0 32 14.5 53.5t37.5 33.5t47 12q38 0 66.5 -26t28.5 -71t-29 -69.5t-68 -24.5zM407 575
q-39 0 -68 23.5t-29 68.5q0 32 14.5 53.5t37.5 33.5t47 12q39 0 66.5 -26t27.5 -72q0 -47 -28.5 -70t-67.5 -23z" />
    <glyph glyph-name="j" unicode="j" horiz-adv-x="272" 
d="M-48 -212v142h40q29 0 41.5 10.5t15.5 25.5t3 28v533h158v-557q0 -61 -16.5 -101.5t-55 -60.5t-103.5 -20h-83zM131 571q-44 0 -70.5 26t-26.5 68q0 43 28 70t70 27q40 0 68 -26t28 -70q0 -43 -27 -69t-70 -26z" />
    <glyph glyph-name="uni0237" unicode="&#x237;" horiz-adv-x="272" 
d="M-48 -212v142h40q29 0 41.5 10.5t15.5 25.5t3 28v533h158v-557q0 -61 -16.5 -101.5t-55 -60.5t-103.5 -20h-83z" />
    <glyph glyph-name="jcircumflex" unicode="&#x135;" horiz-adv-x="272" 
d="M-48 -212v142h40q29 0 41.5 10.5t15.5 25.5t3 28v533h158v-557q0 -61 -16.5 -101.5t-55 -60.5t-103.5 -20h-83zM-83 583l160 186h105l162 -186h-150l-65 86l-62 -86h-150z" />
    <glyph glyph-name="k" unicode="k" horiz-adv-x="572" 
d="M51 0v708h159v-375h60l120 194h178l-166 -251l179 -276h-183l-123 192h-65v-192h-159z" />
    <glyph glyph-name="uni0137" unicode="&#x137;" horiz-adv-x="572" 
d="M51 0v708h159v-375h60l120 194h178l-166 -251l179 -276h-183l-123 192h-65v-192h-159zM238 -297l-36 52q13 6 29 18t30 26t18 26q-26 1 -46.5 18t-20.5 47q0 36 24 54t54 18q39 -1 60 -28.5t21 -68.5q-1 -40 -19.5 -72t-49 -54.5t-64.5 -35.5z" />
    <glyph glyph-name="kgreenlandic" unicode="&#x138;" horiz-adv-x="572" 
d="M51 0v527h159v-194h60l120 194h177l-165 -251l179 -276h-183l-123 192h-65v-192h-159z" />
    <glyph glyph-name="l" unicode="l" horiz-adv-x="261" 
d="M51 0v708h159v-708h-159z" />
    <glyph glyph-name="lacute" unicode="&#x13a;" horiz-adv-x="261" 
d="M51 0v708h159v-708h-159zM43 764l123 182h168l-157 -182h-134z" />
    <glyph glyph-name="lcaron" unicode="&#x13e;" horiz-adv-x="338" 
d="M51 0v708h159v-708h-159zM282 413l-44 63q15 7 34 21t35 30t21 28q-30 3 -52.5 23.5t-22.5 57.5q0 41 26.5 62t62.5 21q47 0 70.5 -32.5t23.5 -77.5q0 -48 -22.5 -88t-57.5 -68t-74 -40z" />
    <glyph glyph-name="uni013C" unicode="&#x13c;" horiz-adv-x="261" 
d="M51 0v708h159v-708h-159zM82 -297l-36 52q13 6 29 18t30 26t18 26q-26 1 -46.5 18t-20.5 47q0 36 24 54t54 18q39 -1 60 -28.5t21 -68.5q-1 -40 -19.5 -72t-49 -54.5t-64.5 -35.5z" />
    <glyph glyph-name="ldot" unicode="&#x140;" horiz-adv-x="410" 
d="M51 0v708h159v-708h-159zM337 279q-38 0 -61.5 22.5t-23.5 57.5q0 36 24 58t61 22q36 0 60.5 -22t24.5 -59q0 -35 -24 -57t-61 -22z" />
    <glyph glyph-name="lslash" unicode="&#x142;" horiz-adv-x="376" 
d="M105 0v224l-53 -32l-69 118l122 73v325h159v-232l68 41l69 -119l-137 -81v-317h-159z" />
    <glyph glyph-name="m" unicode="m" horiz-adv-x="863" 
d="M51 0v527h141l14 -57q22 29 47.5 43.5t50 18.5t41.5 4q44 0 81 -16t60 -58q22 30 48 45.5t53 22t54 6.5q63 0 101 -25.5t56 -72t18 -107.5v-331h-158v296q0 14 -2 31t-8.5 31.5t-19.5 24t-36 9.5t-38 -9.5t-24 -25t-12.5 -34.5t-3.5 -38v-285h-158v297q0 13 -2.5 29.5
t-9 31.5t-20 24.5t-38.5 9.5q-34 0 -50.5 -19t-21 -45t-4.5 -48v-280h-159z" />
    <glyph glyph-name="n" unicode="n" horiz-adv-x="609" 
d="M51 0v527h147l9 -54q23 26 51.5 40t57 19t49.5 5q75 0 117.5 -33.5t60.5 -89.5t18 -123v-291h-158v274q0 21 -4 41.5t-13.5 38t-26.5 28t-44 10.5q-35 0 -59 -17t-35 -45.5t-11 -63.5v-266h-159z" />
    <glyph glyph-name="nacute" unicode="&#x144;" horiz-adv-x="609" 
d="M51 0v527h147l9 -54q23 26 51.5 40t57 19t49.5 5q75 0 117.5 -33.5t60.5 -89.5t18 -123v-291h-158v274q0 21 -4 41.5t-13.5 38t-26.5 28t-44 10.5q-35 0 -59 -17t-35 -45.5t-11 -63.5v-266h-159zM217 583l123 182h168l-157 -182h-134z" />
    <glyph glyph-name="napostrophe" unicode="&#x149;" horiz-adv-x="763" 
d="M36 413l-43 63q15 7 33.5 21t35 30t21.5 28q-30 3 -53 23.5t-23 57.5q0 41 27 62t63 21q47 0 70.5 -32.5t23.5 -77.5q0 -48 -22.5 -88.5t-58 -68.5t-74.5 -39zM205 0v527h147l9 -54q23 26 51.5 40t57 19t49.5 5q75 0 117.5 -33.5t61 -89.5t18.5 -123v-291h-159v274
q0 21 -3.5 41.5t-13 38t-26.5 28t-45 10.5q-35 0 -59 -17t-35 -45.5t-11 -63.5v-266h-159z" />
    <glyph glyph-name="ncaron" unicode="&#x148;" horiz-adv-x="609" 
d="M51 0v527h147l9 -54q23 26 51.5 40t57 19t49.5 5q75 0 117.5 -33.5t60.5 -89.5t18 -123v-291h-158v274q0 21 -4 41.5t-13.5 38t-26.5 28t-44 10.5q-35 0 -59 -17t-35 -45.5t-11 -63.5v-266h-159zM253 583l-162 186h150l65 -86l62 86h150l-160 -186h-105z" />
    <glyph glyph-name="uni0146" unicode="&#x146;" horiz-adv-x="609" 
d="M51 0v527h147l9 -54q23 26 51.5 40t57 19t49.5 5q75 0 117.5 -33.5t60.5 -89.5t18 -123v-291h-158v274q0 21 -4 41.5t-13.5 38t-26.5 28t-44 10.5q-35 0 -59 -17t-35 -45.5t-11 -63.5v-266h-159zM256 -297l-36 52q13 6 29 18t30 26t18 26q-26 1 -46.5 18t-20.5 47
q0 36 24 54t54 18q39 -1 60 -28.5t21 -68.5q-1 -40 -19.5 -72t-49 -54.5t-64.5 -35.5z" />
    <glyph glyph-name="ntilde" unicode="&#xf1;" horiz-adv-x="609" 
d="M51 0v527h147l9 -54q23 26 51.5 40t57 19t49.5 5q75 0 117.5 -33.5t60.5 -89.5t18 -123v-291h-158v274q0 21 -4 41.5t-13.5 38t-26.5 28t-44 10.5q-35 0 -59 -17t-35 -45.5t-11 -63.5v-266h-159zM392 581q-30 0 -53 10.5t-40.5 23.5t-32 23.5t-27.5 10.5t-20 -11.5
t-8 -26.5t2 -25h-106q-4 44 6 84t39.5 65.5t81.5 25.5q27 0 46 -9.5t34.5 -22t29 -22.5t27.5 -10t20 10t7 23.5t-1 24.5h105q4 -42 -4 -82.5t-33 -66t-73 -25.5z" />
    <glyph glyph-name="eng" unicode="&#x14b;" horiz-adv-x="609" 
d="M301 -212v142h42q23 0 36.5 7t18.5 21.5t5 35.5v280q0 24 -4.5 45t-15 37.5t-27.5 26t-43 9.5q-35 0 -58 -17.5t-34 -46.5t-11 -62v-266h-159v528h147l9 -55q29 34 70.5 49t85.5 15q76 0 119 -33.5t61 -89.5t18 -123v-317q0 -62 -17.5 -103.5t-56 -62t-101.5 -20.5h-85z
" />
    <glyph glyph-name="o" unicode="o" horiz-adv-x="600" 
d="M303 -8q-79 0 -140.5 32t-96.5 92.5t-35 145.5q0 87 35.5 148.5t96.5 94t138 32.5q78 0 138 -33.5t95 -95t35 -148.5q0 -85 -33.5 -145t-93.5 -91.5t-139 -31.5zM300 139q42 0 67 18t35.5 46t10.5 58t-10.5 60t-35 49.5t-67.5 19.5q-42 0 -67 -19.5t-36 -49t-11 -60.5
q0 -30 11.5 -58.5t36 -46t66.5 -17.5z" />
    <glyph glyph-name="oacute" unicode="&#xf3;" horiz-adv-x="600" 
d="M303 -8q-79 0 -140.5 32t-96.5 92.5t-35 145.5q0 87 35.5 148.5t96.5 94t138 32.5q78 0 138 -33.5t95 -95t35 -148.5q0 -85 -33.5 -145t-93.5 -91.5t-139 -31.5zM300 139q42 0 67 18t35.5 46t10.5 58t-10.5 60t-35 49.5t-67.5 19.5q-42 0 -67 -19.5t-36 -49t-11 -60.5
q0 -30 11.5 -58.5t36 -46t66.5 -17.5zM212 583l123 182h168l-157 -182h-134z" />
    <glyph glyph-name="obreve" unicode="&#x14f;" horiz-adv-x="600" 
d="M303 -8q-79 0 -140.5 32t-96.5 92.5t-35 145.5q0 87 35.5 148.5t96.5 94t138 32.5q78 0 138 -33.5t95 -95t35 -148.5q0 -85 -33.5 -145t-93.5 -91.5t-139 -31.5zM300 139q42 0 67 18t35.5 46t10.5 58t-10.5 60t-35 49.5t-67.5 19.5q-42 0 -67 -19.5t-36 -49t-11 -60.5
q0 -30 11.5 -58.5t36 -46t66.5 -17.5zM299 582q-91 0 -143 44.5t-53 135.5h130q0 -40 19 -55t48 -15q31 0 49 15t18 55h130q-1 -60 -24.5 -100.5t-67.5 -60t-106 -19.5z" />
    <glyph glyph-name="ocircumflex" unicode="&#xf4;" horiz-adv-x="600" 
d="M303 -8q-79 0 -140.5 32t-96.5 92.5t-35 145.5q0 87 35.5 148.5t96.5 94t138 32.5q78 0 138 -33.5t95 -95t35 -148.5q0 -85 -33.5 -145t-93.5 -91.5t-139 -31.5zM300 139q42 0 67 18t35.5 46t10.5 58t-10.5 60t-35 49.5t-67.5 19.5q-42 0 -67 -19.5t-36 -49t-11 -60.5
q0 -30 11.5 -58.5t36 -46t66.5 -17.5zM86 583l160 186h105l162 -186h-150l-65 86l-62 -86h-150z" />
    <glyph glyph-name="odieresis" unicode="&#xf6;" horiz-adv-x="600" 
d="M303 -8q-79 0 -140.5 32t-96.5 92.5t-35 145.5q0 87 35.5 148.5t96.5 94t138 32.5q78 0 138 -33.5t95 -95t35 -148.5q0 -85 -33.5 -145t-93.5 -91.5t-139 -31.5zM300 139q42 0 67 18t35.5 46t10.5 58t-10.5 60t-35 49.5t-67.5 19.5q-42 0 -67 -19.5t-36 -49t-11 -60.5
q0 -30 11.5 -58.5t36 -46t66.5 -17.5zM426 575q-35 0 -61.5 21.5t-26.5 62.5q0 42 27.5 65t61.5 23q35 0 60.5 -22.5t25.5 -64.5t-25.5 -63.5t-61.5 -21.5zM175 575q-35 0 -61 21.5t-26 62.5q0 42 26.5 65t60.5 23q35 0 61.5 -22.5t26.5 -65.5q0 -41 -26.5 -62.5
t-61.5 -21.5z" />
    <glyph glyph-name="ograve" unicode="&#xf2;" horiz-adv-x="600" 
d="M303 -8q-79 0 -140.5 32t-96.5 92.5t-35 145.5q0 87 35.5 148.5t96.5 94t138 32.5q78 0 138 -33.5t95 -95t35 -148.5q0 -85 -33.5 -145t-93.5 -91.5t-139 -31.5zM300 139q42 0 67 18t35.5 46t10.5 58t-10.5 60t-35 49.5t-67.5 19.5q-42 0 -67 -19.5t-36 -49t-11 -60.5
q0 -30 11.5 -58.5t36 -46t66.5 -17.5zM256 583l-157 182h168l122 -182h-133z" />
    <glyph glyph-name="ohungarumlaut" unicode="&#x151;" horiz-adv-x="600" 
d="M303 -8q-79 0 -140.5 32t-96.5 92.5t-35 145.5q0 87 35.5 148.5t96.5 94t138 32.5q78 0 138 -33.5t95 -95t35 -148.5q0 -85 -33.5 -145t-93.5 -91.5t-139 -31.5zM300 139q42 0 67 18t35.5 46t10.5 58t-10.5 60t-35 49.5t-67.5 19.5q-42 0 -67 -19.5t-36 -49t-11 -60.5
q0 -30 11.5 -58.5t36 -46t66.5 -17.5zM321 583l113 182h156l-145 -182h-124zM133 583l76 182h156l-113 -182h-119z" />
    <glyph glyph-name="omacron" unicode="&#x14d;" horiz-adv-x="600" 
d="M303 -8q-79 0 -140.5 32t-96.5 92.5t-35 145.5q0 87 35.5 148.5t96.5 94t138 32.5q78 0 138 -33.5t95 -95t35 -148.5q0 -85 -33.5 -145t-93.5 -91.5t-139 -31.5zM300 139q42 0 67 18t35.5 46t10.5 58t-10.5 60t-35 49.5t-67.5 19.5q-42 0 -67 -19.5t-36 -49t-11 -60.5
q0 -30 11.5 -58.5t36 -46t66.5 -17.5zM110 619v138h380v-138h-380z" />
    <glyph glyph-name="oslash" unicode="&#xf8;" horiz-adv-x="600" 
d="M57 -106l70 152q-47 35 -71.5 91t-24.5 125q0 83 33.5 145t93.5 96t139 34q14 0 24 -1l20 -2l44 102h157l-70 -154q31 -24 52.5 -57.5t33 -74.5t11.5 -89q0 -80 -32 -140.5t-92 -94.5t-145 -34q-11 0 -21.5 1t-20.5 3l-45 -102h-156zM205 187l88 200q-19 -2 -35 -8
q-24 -8 -40 -24.5t-24 -40t-8 -51.5q0 -21 4.5 -40.5t14.5 -35.5zM336 146q27 6 44 23t25 41t8 53q0 22 -4.5 40t-14.5 33l-85 -194q7 0 14 1t13 3z" />
    <glyph glyph-name="otilde" unicode="&#xf5;" horiz-adv-x="600" 
d="M303 -8q-79 0 -140.5 32t-96.5 92.5t-35 145.5q0 87 35.5 148.5t96.5 94t138 32.5q78 0 138 -33.5t95 -95t35 -148.5q0 -85 -33.5 -145t-93.5 -91.5t-139 -31.5zM300 139q42 0 67 18t35.5 46t10.5 58t-10.5 60t-35 49.5t-67.5 19.5q-42 0 -67 -19.5t-36 -49t-11 -60.5
q0 -30 11.5 -58.5t36 -46t66.5 -17.5zM387 581q-30 0 -53 10.5t-40.5 23.5t-32 23.5t-27.5 10.5t-20 -11.5t-8 -26.5t2 -25h-106q-4 44 6 84t39.5 65.5t81.5 25.5q27 0 46 -9.5t34.5 -22t29 -22.5t27.5 -10t20 10t7 23.5t-1 24.5h105q4 -42 -4 -82.5t-33 -66t-73 -25.5z" />
    <glyph glyph-name="oe" unicode="&#x153;" horiz-adv-x="948" 
d="M303 -8q-83 0 -144.5 34.5t-94.5 95.5t-33 142q0 82 33.5 143.5t94.5 95.5t142 34q56 0 102.5 -17.5t80.5 -52.5q35 34 81.5 52t103.5 18q78 0 134 -33t85.5 -91.5t28.5 -134.5q0 -16 -1 -31.5t-5 -29.5h-350q4 -45 34 -68t71 -23q28 0 56 10t37 35h156
q-14 -60 -49.5 -100t-86.5 -59.5t-110 -19.5q-39 0 -72 8t-60.5 22t-52.5 36q-34 -33 -79.5 -49.5t-101.5 -16.5zM300 139q39 0 64 16t37 44t12 62q0 37 -12.5 66t-38 46t-62.5 17t-62 -17t-38.5 -45.5t-13.5 -66.5q0 -34 12.5 -62t38 -44t63.5 -16zM564 324h203
q0 28 -14 47t-36.5 29t-47.5 10q-27 0 -51 -10.5t-38.5 -29.5t-15.5 -46z" />
    <glyph glyph-name="p" unicode="p" horiz-adv-x="630" 
d="M51 -199v726h147l8 -62q35 39 74.5 55.5t88.5 16.5q77 0 128 -36.5t76.5 -97.5t25.5 -138t-27 -139t-80 -98t-131 -36q-33 0 -62 8t-52 21t-37 28v-248h-159zM331 136q44 0 68 19t34 48t10 58q0 32 -11 62.5t-36 49.5t-68 19q-39 0 -65.5 -18.5t-40 -47.5t-13.5 -62
t13 -62t40 -47.5t69 -18.5z" />
    <glyph glyph-name="thorn" unicode="&#xfe;" horiz-adv-x="630" 
d="M51 -199v907h159v-240q29 37 71 53t87 16q80 0 131 -37.5t75.5 -99t24.5 -133.5q0 -73 -25 -135.5t-76.5 -101t-131.5 -38.5q-41 0 -84 13t-72 44v-248h-159zM331 136q40 0 64.5 17t36 46t11.5 62q0 39 -13.5 68.5t-39.5 46t-63 16.5t-63.5 -16.5t-40.5 -45.5t-14 -66
q0 -36 14.5 -65t41.5 -46t66 -17z" />
    <glyph glyph-name="q" unicode="q" horiz-adv-x="632" 
d="M422 -199v248q-30 -33 -71.5 -45t-79.5 -12q-60 0 -105.5 20.5t-75 57.5t-44.5 85.5t-15 104.5q0 83 30.5 145t87 97t131.5 35q45 0 83.5 -14t62.5 -46l8 50h147v-726h-159zM307 136q39 0 64.5 17.5t38.5 46.5t13 63q0 36 -13.5 65t-39.5 46.5t-65 17.5q-40 0 -66 -18.5
t-38 -47t-12 -61.5q0 -32 12 -62t38 -48.5t68 -18.5z" />
    <glyph glyph-name="r" unicode="r" horiz-adv-x="399" 
d="M51 0v527h140l11 -56q20 29 44.5 43t50 18.5t49.5 4.5q15 0 27.5 -0.5t16.5 -1.5v-152h-33q-42 0 -75.5 -13t-52.5 -43t-19 -84v-243h-159z" />
    <glyph glyph-name="racute" unicode="&#x155;" horiz-adv-x="399" 
d="M51 0v527h140l11 -56q20 29 44.5 43t50 18.5t49.5 4.5q15 0 27.5 -0.5t16.5 -1.5v-152h-33q-42 0 -75.5 -13t-52.5 -43t-19 -84v-243h-159zM142 583l123 182h168l-157 -182h-134z" />
    <glyph glyph-name="rcaron" unicode="&#x159;" horiz-adv-x="399" 
d="M51 0v527h140l11 -56q20 29 44.5 43t50 18.5t49.5 4.5q15 0 27.5 -0.5t16.5 -1.5v-152h-33q-42 0 -75.5 -13t-52.5 -43t-19 -84v-243h-159zM178 583l-162 186h150l65 -86l62 86h150l-160 -186h-105z" />
    <glyph glyph-name="uni0157" unicode="&#x157;" horiz-adv-x="399" 
d="M51 0v527h140l11 -56q20 29 44.5 43t50 18.5t49.5 4.5q15 0 27.5 -0.5t16.5 -1.5v-152h-33q-42 0 -75.5 -13t-52.5 -43t-19 -84v-243h-159zM81 -297l-36 52q13 6 29 18t30 26t18 26q-26 1 -46.5 18t-20.5 47q0 36 24 54t54 18q39 -1 60 -28.5t21 -68.5q-1 -40 -19.5 -72
t-49 -54.5t-64.5 -35.5z" />
    <glyph glyph-name="s" unicode="s" horiz-adv-x="514" 
d="M262 -8q-38 0 -77.5 9t-73.5 29t-57 55t-31 88h160q6 -16 18.5 -27.5t31 -17t37.5 -5.5q13 0 25 2t21.5 7t14.5 12.5t5 18.5q0 16 -10.5 23.5t-29 12t-42.5 9.5q-39 8 -83.5 20t-75.5 32q-15 10 -26 22.5t-17.5 27t-10 31t-3.5 35.5q0 44 19.5 75t51 50t70.5 27.5t78 8.5
q55 0 102 -17.5t78.5 -56t39.5 -100.5h-153q-3 20 -23 32t-50 12q-11 0 -22 -2.5t-19.5 -6t-14 -10.5t-5.5 -17q0 -7 4.5 -14t14 -12.5t24.5 -10.5q34 -7 66 -13.5t61 -12.5q32 -7 62 -22.5t49.5 -43.5t19.5 -76q0 -50 -20.5 -84t-54.5 -53t-74 -28t-80 -9z" />
    <glyph glyph-name="sacute" unicode="&#x15b;" horiz-adv-x="514" 
d="M262 -8q-38 0 -77.5 9t-73.5 29t-57 55t-31 88h160q6 -16 18.5 -27.5t31 -17t37.5 -5.5q13 0 25 2t21.5 7t14.5 12.5t5 18.5q0 16 -10.5 23.5t-29 12t-42.5 9.5q-39 8 -83.5 20t-75.5 32q-15 10 -26 22.5t-17.5 27t-10 31t-3.5 35.5q0 44 19.5 75t51 50t70.5 27.5t78 8.5
q55 0 102 -17.5t78.5 -56t39.5 -100.5h-153q-3 20 -23 32t-50 12q-11 0 -22 -2.5t-19.5 -6t-14 -10.5t-5.5 -17q0 -7 4.5 -14t14 -12.5t24.5 -10.5q34 -7 66 -13.5t61 -12.5q32 -7 62 -22.5t49.5 -43.5t19.5 -76q0 -50 -20.5 -84t-54.5 -53t-74 -28t-80 -9zM169 583l123 182
h168l-157 -182h-134z" />
    <glyph glyph-name="scaron" unicode="&#x161;" horiz-adv-x="514" 
d="M262 -8q-38 0 -77.5 9t-73.5 29t-57 55t-31 88h160q6 -16 18.5 -27.5t31 -17t37.5 -5.5q13 0 25 2t21.5 7t14.5 12.5t5 18.5q0 16 -10.5 23.5t-29 12t-42.5 9.5q-39 8 -83.5 20t-75.5 32q-15 10 -26 22.5t-17.5 27t-10 31t-3.5 35.5q0 44 19.5 75t51 50t70.5 27.5t78 8.5
q55 0 102 -17.5t78.5 -56t39.5 -100.5h-153q-3 20 -23 32t-50 12q-11 0 -22 -2.5t-19.5 -6t-14 -10.5t-5.5 -17q0 -7 4.5 -14t14 -12.5t24.5 -10.5q34 -7 66 -13.5t61 -12.5q32 -7 62 -22.5t49.5 -43.5t19.5 -76q0 -50 -20.5 -84t-54.5 -53t-74 -28t-80 -9zM206 583
l-162 186h150l65 -86l62 86h150l-160 -186h-105z" />
    <glyph glyph-name="scedilla" unicode="&#x15f;" horiz-adv-x="514" 
d="M262 -8q-38 0 -77.5 9t-73.5 29t-57 55t-31 88h160q6 -16 18.5 -27.5t31 -17t37.5 -5.5q13 0 25 2t21.5 7t14.5 12.5t5 18.5q0 16 -10.5 23.5t-29 12t-42.5 9.5q-39 8 -83.5 20t-75.5 32q-15 10 -26 22.5t-17.5 27t-10 31t-3.5 35.5q0 44 19.5 75t51 50t70.5 27.5t78 8.5
q55 0 102 -17.5t78.5 -56t39.5 -100.5h-153q-3 20 -23 32t-50 12q-11 0 -22 -2.5t-19.5 -6t-14 -10.5t-5.5 -17q0 -7 4.5 -14t14 -12.5t24.5 -10.5q34 -7 66 -13.5t61 -12.5q32 -7 62 -22.5t49.5 -43.5t19.5 -76q0 -50 -20.5 -84t-54.5 -53t-74 -28t-80 -9zM244 -272
q-26 -1 -43 1t-32 5v93q27 -5 47.5 -5t35 3.5t22.5 12.5t8 23q0 11 -7 18t-19 10.5t-25 3.5q-17 1 -34 -2t-26 -7l45 159h102l-19 -77q6 0 12 -0.5t11 -1.5q34 -6 56.5 -28.5t22.5 -71.5q0 -47 -23 -76.5t-58.5 -44t-75.5 -15.5z" />
    <glyph glyph-name="scircumflex" unicode="&#x15d;" horiz-adv-x="514" 
d="M262 -8q-38 0 -77.5 9t-73.5 29t-57 55t-31 88h160q6 -16 18.5 -27.5t31 -17t37.5 -5.5q13 0 25 2t21.5 7t14.5 12.5t5 18.5q0 16 -10.5 23.5t-29 12t-42.5 9.5q-39 8 -83.5 20t-75.5 32q-15 10 -26 22.5t-17.5 27t-10 31t-3.5 35.5q0 44 19.5 75t51 50t70.5 27.5t78 8.5
q55 0 102 -17.5t78.5 -56t39.5 -100.5h-153q-3 20 -23 32t-50 12q-11 0 -22 -2.5t-19.5 -6t-14 -10.5t-5.5 -17q0 -7 4.5 -14t14 -12.5t24.5 -10.5q34 -7 66 -13.5t61 -12.5q32 -7 62 -22.5t49.5 -43.5t19.5 -76q0 -50 -20.5 -84t-54.5 -53t-74 -28t-80 -9zM43 583l160 186
h105l162 -186h-150l-65 86l-62 -86h-150z" />
    <glyph glyph-name="uni0219" unicode="&#x219;" horiz-adv-x="514" 
d="M262 -8q-38 0 -77.5 9t-73.5 29t-57 55t-31 88h160q6 -16 18.5 -27.5t31 -17t37.5 -5.5q13 0 25 2t21.5 7t14.5 12.5t5 18.5q0 16 -10.5 23.5t-29 12t-42.5 9.5q-39 8 -83.5 20t-75.5 32q-15 10 -26 22.5t-17.5 27t-10 31t-3.5 35.5q0 44 19.5 75t51 50t70.5 27.5t78 8.5
q55 0 102 -17.5t78.5 -56t39.5 -100.5h-153q-3 20 -23 32t-50 12q-11 0 -22 -2.5t-19.5 -6t-14 -10.5t-5.5 -17q0 -7 4.5 -14t14 -12.5t24.5 -10.5q34 -7 66 -13.5t61 -12.5q32 -7 62 -22.5t49.5 -43.5t19.5 -76q0 -50 -20.5 -84t-54.5 -53t-74 -28t-80 -9zM209 -297l-36 52
q13 6 29 18t30 26t18 26q-26 1 -46.5 18t-20.5 47q0 36 24 54t54 18q39 -1 60 -28.5t21 -68.5q-1 -40 -19.5 -72t-49 -54.5t-64.5 -35.5z" />
    <glyph glyph-name="germandbls" unicode="&#xdf;" horiz-adv-x="667" 
d="M449 -8q-56 0 -103.5 20t-76.5 60.5t-32 100.5h146q2 -26 16.5 -38t37.5 -12q23 -1 39 10.5t16 35.5q0 14 -6.5 24t-26.5 20q-24 12 -49 23.5t-50 22.5q-38 17 -60 41.5t-22 66.5q0 38 18 64t37 50q12 16 24 32.5t12 40.5q0 14 -8 27.5t-26 22.5t-47 9q-25 0 -42.5 -9
t-26.5 -25t-9 -38v-541h-159v556q0 53 19.5 89.5t52.5 59.5t76 34t91 11q43 0 85.5 -9.5t77.5 -29.5t56 -52t21 -77q0 -33 -10.5 -56.5t-25.5 -41t-30 -32.5q-12 -13 -22.5 -27.5t-10.5 -28.5q0 -16 10 -26t31 -19q22 -9 43 -19l42 -20q45 -21 67 -58.5t22 -86.5
q0 -61 -26.5 -99.5t-71.5 -57t-99 -18.5z" />
    <glyph glyph-name="t" unicode="t" horiz-adv-x="365" 
d="M298 0q-68 0 -115 15.5t-71.5 54t-24.5 108.5v208h-76v141h76v136h159v-136h105v-141h-105v-185q0 -26 9 -42.5t46 -16.5h45v-142h-48z" />
    <glyph glyph-name="tbar" unicode="&#x167;" horiz-adv-x="365" 
d="M280 0q-63 0 -106.5 16.5t-65 55t-21.5 106.5v40h-76v109h76v63h-76v137h76v136h159v-136h105v-137h-105v-63h105v-109h-105v-21q0 -28 9.5 -41.5t45.5 -13.5h50v-142h-71z" />
    <glyph glyph-name="tcaron" unicode="&#x165;" horiz-adv-x="534" 
d="M298 0q-68 0 -115 15.5t-71.5 54t-24.5 108.5v208h-76v141h76v136h159v-136h105v-141h-105v-185q0 -26 9 -42.5t46 -16.5h45v-142h-48zM394 364l-44 63q15 7 34 21t35 30t21 28q-30 3 -52.5 23.5t-22.5 57.5q0 41 26.5 62t62.5 21q47 0 70.5 -32.5t23.5 -77.5
q0 -48 -22.5 -88t-57.5 -68t-74 -40z" />
    <glyph glyph-name="uni0163" unicode="&#x163;" horiz-adv-x="365" 
d="M298 0q-68 0 -115 15.5t-71.5 54t-24.5 108.5v208h-76v141h76v136h159v-136h105v-141h-105v-185q0 -26 9 -42.5t46 -16.5h45v-142h-48zM200 -270q-26 -1 -43 1t-32 5v93q27 -5 47.5 -5t35 3.5t22.5 12.5t8 23q0 11 -7 18t-19 10.5t-25 3.5q-17 1 -34 -2t-26 -7l45 159
h102l-19 -77q6 0 12 -0.5t11 -1.5q34 -6 56.5 -28.5t22.5 -71.5q0 -47 -23 -76.5t-58.5 -44t-75.5 -15.5z" />
    <glyph glyph-name="uni021B" unicode="&#x21b;" horiz-adv-x="365" 
d="M298 0q-68 0 -115 15.5t-71.5 54t-24.5 108.5v208h-76v141h76v136h159v-136h105v-141h-105v-185q0 -26 9 -42.5t46 -16.5h45v-142h-48zM165 -295l-36 52q13 6 29 18t30 26t18 26q-26 1 -46.5 18t-20.5 47q0 36 24 54t54 18q39 -1 60 -28.5t21 -68.5q-1 -40 -19.5 -72
t-49 -54.5t-64.5 -35.5z" />
    <glyph glyph-name="u" unicode="u" horiz-adv-x="588" 
d="M297 -8q-119 0 -183.5 60t-64.5 181v294h159v-282q0 -31 8.5 -55.5t28.5 -39t52 -14.5q36 0 54 16t23.5 41.5t5.5 51.5v282h158v-294q0 -127 -64.5 -184t-176.5 -57z" />
    <glyph glyph-name="uacute" unicode="&#xfa;" horiz-adv-x="588" 
d="M297 -8q-119 0 -183.5 60t-64.5 181v294h159v-282q0 -31 8.5 -55.5t28.5 -39t52 -14.5q36 0 54 16t23.5 41.5t5.5 51.5v282h158v-294q0 -127 -64.5 -184t-176.5 -57zM206 583l123 182h168l-157 -182h-134z" />
    <glyph glyph-name="ubreve" unicode="&#x16d;" horiz-adv-x="588" 
d="M297 -8q-119 0 -183.5 60t-64.5 181v294h159v-282q0 -31 8.5 -55.5t28.5 -39t52 -14.5q36 0 54 16t23.5 41.5t5.5 51.5v282h158v-294q0 -127 -64.5 -184t-176.5 -57zM293 582q-91 0 -143 44.5t-53 135.5h130q0 -40 19 -55t48 -15q31 0 49 15t18 55h130
q-1 -60 -24.5 -100.5t-67.5 -60t-106 -19.5z" />
    <glyph glyph-name="ucircumflex" unicode="&#xfb;" horiz-adv-x="588" 
d="M297 -8q-119 0 -183.5 60t-64.5 181v294h159v-282q0 -31 8.5 -55.5t28.5 -39t52 -14.5q36 0 54 16t23.5 41.5t5.5 51.5v282h158v-294q0 -127 -64.5 -184t-176.5 -57zM80 583l160 186h105l162 -186h-150l-65 86l-62 -86h-150z" />
    <glyph glyph-name="udieresis" unicode="&#xfc;" horiz-adv-x="588" 
d="M297 -8q-119 0 -183.5 60t-64.5 181v294h159v-282q0 -31 8.5 -55.5t28.5 -39t52 -14.5q36 0 54 16t23.5 41.5t5.5 51.5v282h158v-294q0 -127 -64.5 -184t-176.5 -57zM420 575q-35 0 -61.5 21.5t-26.5 62.5q0 42 27.5 65t61.5 23q35 0 60.5 -22.5t25.5 -64.5t-25.5 -63.5
t-61.5 -21.5zM169 575q-35 0 -61 21.5t-26 62.5q0 42 26.5 65t60.5 23q35 0 61.5 -22.5t26.5 -65.5q0 -41 -26.5 -62.5t-61.5 -21.5z" />
    <glyph glyph-name="ugrave" unicode="&#xf9;" horiz-adv-x="588" 
d="M297 -8q-119 0 -183.5 60t-64.5 181v294h159v-282q0 -31 8.5 -55.5t28.5 -39t52 -14.5q36 0 54 16t23.5 41.5t5.5 51.5v282h158v-294q0 -127 -64.5 -184t-176.5 -57zM250 583l-157 182h168l122 -182h-133z" />
    <glyph glyph-name="uhungarumlaut" unicode="&#x171;" horiz-adv-x="588" 
d="M297 -8q-119 0 -183.5 60t-64.5 181v294h159v-282q0 -31 8.5 -55.5t28.5 -39t52 -14.5q36 0 54 16t23.5 41.5t5.5 51.5v282h158v-294q0 -127 -64.5 -184t-176.5 -57zM315 583l113 182h156l-145 -182h-124zM127 583l76 182h156l-113 -182h-119z" />
    <glyph glyph-name="umacron" unicode="&#x16b;" horiz-adv-x="588" 
d="M297 -8q-119 0 -183.5 60t-64.5 181v294h159v-282q0 -31 8.5 -55.5t28.5 -39t52 -14.5q36 0 54 16t23.5 41.5t5.5 51.5v282h158v-294q0 -127 -64.5 -184t-176.5 -57zM104 619v138h380v-138h-380z" />
    <glyph glyph-name="uogonek" unicode="&#x173;" horiz-adv-x="588" 
d="M297 -8q-119 0 -183.5 60t-64.5 181v294h159v-282q0 -31 8.5 -55.5t28.5 -39t52 -14.5q36 0 54 16t23.5 41.5t5.5 51.5v282h158v-294q0 -127 -64.5 -184t-176.5 -57zM336 -202q-60 0 -95.5 28.5t-35.5 76.5q0 37 22 66.5t56 43.5l88 -11q-25 -8 -43 -24t-18 -39
q0 -22 13.5 -33.5t34.5 -11.5q11 0 21 3t19 7l16 -89q-19 -10 -39.5 -13.5t-38.5 -3.5z" />
    <glyph glyph-name="uring" unicode="&#x16f;" horiz-adv-x="588" 
d="M297 -8q-119 0 -183.5 60t-64.5 181v294h159v-282q0 -31 8.5 -55.5t28.5 -39t52 -14.5q36 0 54 16t23.5 41.5t5.5 51.5v282h158v-294q0 -127 -64.5 -184t-176.5 -57zM294 571q-55 0 -90.5 33t-35.5 86t36.5 87t90.5 34t89.5 -33.5t35.5 -87.5q0 -53 -35 -86t-91 -33z
M294 652q18 0 29.5 11t11.5 28t-11.5 27.5t-29.5 10.5q-17 0 -28.5 -10.5t-11.5 -27.5t10.5 -28t29.5 -11z" />
    <glyph glyph-name="utilde" unicode="&#x169;" horiz-adv-x="588" 
d="M297 -8q-119 0 -183.5 60t-64.5 181v294h159v-282q0 -31 8.5 -55.5t28.5 -39t52 -14.5q36 0 54 16t23.5 41.5t5.5 51.5v282h158v-294q0 -127 -64.5 -184t-176.5 -57zM381 581q-30 0 -53 10.5t-40.5 23.5t-32 23.5t-27.5 10.5t-20 -11.5t-8 -26.5t2 -25h-106q-4 44 6 84
t39.5 65.5t81.5 25.5q27 0 46 -9.5t34.5 -22t29 -22.5t27.5 -10t20 10t7 23.5t-1 24.5h105q4 -42 -4 -82.5t-33 -66t-73 -25.5z" />
    <glyph glyph-name="v" unicode="v" horiz-adv-x="565" 
d="M176 0l-179 527h173l113 -402l112 402h172l-179 -527h-212z" />
    <glyph glyph-name="w" unicode="w" horiz-adv-x="875" 
d="M165 0l-167 527h173l88 -341l95 341h172l95 -341l87 341h169l-167 -527h-176l-97 333l-96 -333h-176z" />
    <glyph glyph-name="wacute" unicode="&#x1e83;" horiz-adv-x="875" 
d="M165 0l-167 527h173l88 -341l95 341h172l95 -341l87 341h169l-167 -527h-176l-97 333l-96 -333h-176zM350 583l123 182h168l-157 -182h-134z" />
    <glyph glyph-name="wcircumflex" unicode="&#x175;" horiz-adv-x="875" 
d="M165 0l-167 527h173l88 -341l95 341h172l95 -341l87 341h169l-167 -527h-176l-97 333l-96 -333h-176zM224 583l160 186h105l162 -186h-150l-65 86l-62 -86h-150z" />
    <glyph glyph-name="wdieresis" unicode="&#x1e85;" horiz-adv-x="875" 
d="M165 0l-167 527h173l88 -341l95 341h172l95 -341l87 341h169l-167 -527h-176l-97 333l-96 -333h-176zM563 575q-35 0 -61.5 21.5t-26.5 62.5q0 42 27.5 65t61.5 23q35 0 60.5 -22.5t25.5 -64.5t-25.5 -63.5t-61.5 -21.5zM312 575q-35 0 -61 21.5t-26 62.5q0 42 26.5 65
t60.5 23q35 0 61.5 -22.5t26.5 -65.5q0 -41 -26.5 -62.5t-61.5 -21.5z" />
    <glyph glyph-name="wgrave" unicode="&#x1e81;" horiz-adv-x="875" 
d="M165 0l-167 527h173l88 -341l95 341h172l95 -341l87 341h169l-167 -527h-176l-97 333l-96 -333h-176zM394 583l-157 182h168l122 -182h-133z" />
    <glyph glyph-name="x" unicode="x" horiz-adv-x="575" 
d="M3 0l183 269l-173 258h182l94 -154l93 154h178l-175 -261l187 -266h-184l-104 163l-105 -163h-176z" />
    <glyph glyph-name="y" unicode="y" horiz-adv-x="623" 
d="M285 -246q-61 0 -119.5 16t-111.5 52l50 128q30 -22 69.5 -35t90.5 -13q75 0 113 32t38 98v16q-17 -21 -42 -33t-52 -17.5t-54 -5.5q-76 0 -122 32t-67 88t-21 126v289h157v-258q0 -22 3 -45t13 -43.5t30.5 -33t53.5 -12.5q45 0 66 22t27 54.5t6 65.5v250h159v-426
q0 -77 -13 -140.5t-45 -109.5t-88 -71.5t-141 -25.5z" />
    <glyph glyph-name="yacute" unicode="&#xfd;" horiz-adv-x="623" 
d="M285 -246q-61 0 -119.5 16t-111.5 52l50 128q30 -22 69.5 -35t90.5 -13q75 0 113 32t38 98v16q-17 -21 -42 -33t-52 -17.5t-54 -5.5q-76 0 -122 32t-67 88t-21 126v289h157v-258q0 -22 3 -45t13 -43.5t30.5 -33t53.5 -12.5q45 0 66 22t27 54.5t6 65.5v250h159v-426
q0 -77 -13 -140.5t-45 -109.5t-88 -71.5t-141 -25.5zM224 583l123 182h168l-157 -182h-134z" />
    <glyph glyph-name="ycircumflex" unicode="&#x177;" horiz-adv-x="623" 
d="M285 -246q-61 0 -119.5 16t-111.5 52l50 128q30 -22 69.5 -35t90.5 -13q75 0 113 32t38 98v16q-17 -21 -42 -33t-52 -17.5t-54 -5.5q-76 0 -122 32t-67 88t-21 126v289h157v-258q0 -22 3 -45t13 -43.5t30.5 -33t53.5 -12.5q45 0 66 22t27 54.5t6 65.5v250h159v-426
q0 -77 -13 -140.5t-45 -109.5t-88 -71.5t-141 -25.5zM98 583l160 186h105l162 -186h-150l-65 86l-62 -86h-150z" />
    <glyph glyph-name="ydieresis" unicode="&#xff;" horiz-adv-x="623" 
d="M285 -246q-61 0 -119.5 16t-111.5 52l50 128q30 -22 69.5 -35t90.5 -13q75 0 113 32t38 98v16q-17 -21 -42 -33t-52 -17.5t-54 -5.5q-76 0 -122 32t-67 88t-21 126v289h157v-258q0 -22 3 -45t13 -43.5t30.5 -33t53.5 -12.5q45 0 66 22t27 54.5t6 65.5v250h159v-426
q0 -77 -13 -140.5t-45 -109.5t-88 -71.5t-141 -25.5zM437 575q-35 0 -61.5 21.5t-26.5 62.5q0 42 27.5 65t61.5 23q35 0 60.5 -22.5t25.5 -64.5t-25.5 -63.5t-61.5 -21.5zM186 575q-35 0 -61 21.5t-26 62.5q0 42 26.5 65t60.5 23q35 0 61.5 -22.5t26.5 -65.5
q0 -41 -26.5 -62.5t-61.5 -21.5z" />
    <glyph glyph-name="ygrave" unicode="&#x1ef3;" horiz-adv-x="623" 
d="M285 -246q-61 0 -119.5 16t-111.5 52l50 128q30 -22 69.5 -35t90.5 -13q75 0 113 32t38 98v16q-17 -21 -42 -33t-52 -17.5t-54 -5.5q-76 0 -122 32t-67 88t-21 126v289h157v-258q0 -22 3 -45t13 -43.5t30.5 -33t53.5 -12.5q45 0 66 22t27 54.5t6 65.5v250h159v-426
q0 -77 -13 -140.5t-45 -109.5t-88 -71.5t-141 -25.5zM268 583l-157 182h168l122 -182h-133z" />
    <glyph glyph-name="z" unicode="z" horiz-adv-x="508" 
d="M31 0v117l241 269h-241v141h446v-116l-242 -269h242v-142h-446z" />
    <glyph glyph-name="zacute" unicode="&#x17a;" horiz-adv-x="508" 
d="M31 0v117l241 269h-241v141h446v-116l-242 -269h242v-142h-446zM166 583l123 182h168l-157 -182h-134z" />
    <glyph glyph-name="zcaron" unicode="&#x17e;" horiz-adv-x="508" 
d="M31 0v117l241 269h-241v141h446v-116l-242 -269h242v-142h-446zM202 583l-162 186h150l65 -86l62 86h150l-160 -186h-105z" />
    <glyph glyph-name="zdotaccent" unicode="&#x17c;" horiz-adv-x="508" 
d="M31 0v117l241 269h-241v141h446v-116l-242 -269h242v-142h-446zM254 571q-44 0 -70.5 26t-26.5 68q0 43 28 70t70 27q40 0 68 -26t28 -70q0 -43 -27 -69t-70 -26z" />
    <glyph glyph-name="a_alt" horiz-adv-x="572" 
d="M218 -7q-51 0 -93 17.5t-67 53.5t-25 89q0 41 16 70t43.5 47.5t62.5 30t73 17.5q30 5 66 8.5t78 6.5q-1 23 -12 38.5t-29 24t-44 8.5q-31 0 -52 -11t-31 -34h-159q10 67 45.5 105.5t88.5 55t111 16.5q82 0 133 -27.5t75 -83.5t24 -141v-284h-146l-1 63
q-23 -30 -52.5 -45.5t-57 -20t-47.5 -4.5zM255 119q32 0 57 12t41 35t18 53l1 12q-19 -1 -37.5 -3t-37.5 -4t-38 -6q-29 -4 -49 -17t-20 -37q0 -17 9 -27t24 -14t32 -4z" />
    <glyph glyph-name="c_alt" horiz-adv-x="563" 
d="M287 -8q-81 0 -139 33t-89.5 93.5t-31.5 142.5q0 83 32.5 145t92 96t142.5 34q62 0 113 -21.5t84.5 -65.5t43.5 -112h-159q-10 29 -32.5 42t-51.5 13q-39 0 -63.5 -19.5t-35 -49.5t-10.5 -62q0 -34 11.5 -63.5t35.5 -47.5t62 -18q26 0 49 10t34 33h158
q-13 -64 -49 -104.5t-87 -59.5t-110 -19z" />
    <glyph glyph-name="f_alt" horiz-adv-x="380" 
d="M90 0v386h-77v141h77v34q0 66 27 107.5t72 61.5t100 20q37 0 69.5 -8.5t58.5 -24.5l-42 -123q-8 7 -25 13t-38 6q-22 0 -36 -8.5t-20.5 -24.5t-6.5 -36v-17h132v-141h-132v-386h-159z" />
    <glyph glyph-name="g_alt" horiz-adv-x="628" 
d="M287 -246q-60 0 -121 16t-114 52l50 128q31 -23 72 -35.5t97 -12.5q52 0 83.5 16.5t46 47t17.5 70.5v24q-17 -27 -46 -41.5t-59 -20t-53 -5.5q-78 0 -130 35t-77.5 95t-25.5 134q0 80 29 143t84.5 99.5t136.5 36.5q22 0 46.5 -4t49.5 -16.5t45 -36.5l14 48h145v-429
q0 -109 -27 -185.5t-91 -117.5t-172 -41zM304 136q39 0 64.5 17.5t38 46.5t12.5 63t-12.5 63.5t-38 47.5t-66.5 18q-44 0 -70 -19.5t-36.5 -49t-10.5 -59.5q0 -33 12.5 -62t38.5 -47.5t68 -18.5z" />
    <glyph glyph-name="i_alt" horiz-adv-x="288" 
d="M75 0v386h-79v141h237v-527h-158zM149 579q-39 0 -68.5 23.5t-29.5 68.5q0 32 14.5 53.5t37.5 33.5t47 12q38 0 66.5 -25.5t28.5 -72.5q0 -46 -29 -69.5t-67 -23.5z" />
    <glyph glyph-name="j_alt" horiz-adv-x="283" 
d="M-34 -212v142h26q36 0 51.5 13t19 31t3.5 35v377h-89v141h246v-557q0 -92 -40 -137t-135 -45h-82zM144 579q-39 0 -68.5 23.5t-29.5 68.5q0 32 14 53.5t37 33.5t48 12q38 0 66 -26t28 -72q0 -47 -28.5 -70t-66.5 -23z" />
    <glyph glyph-name="k_alt" horiz-adv-x="585" 
d="M51 0v708h159v-373l177 192h198l-210 -214l203 -313h-178l-134 211l-56 -57v-154h-159z" />
    <glyph glyph-name="l_alt" horiz-adv-x="320" 
d="M253 0q-54 0 -94 9.5t-64 33.5q-23 22 -33.5 58.5t-10.5 89.5v517h159v-498q0 -17 1.5 -31t8.5 -22q11 -15 44 -15h45v-142h-56z" />
    <glyph glyph-name="s_alt" horiz-adv-x="548" 
d="M287 -8q-41 0 -84 10t-80 31t-63 57t-33 88h161q4 -20 21.5 -31.5t41 -16.5t43.5 -5q17 0 30.5 2.5t23.5 7t15 12.5t5 18q0 13 -8.5 20.5t-23.5 12.5t-36 8q-9 2 -21 3.5t-23.5 4t-21.5 6.5q-28 6 -60.5 14t-61.5 23.5t-47.5 43.5t-18.5 73q0 49 22 81t57 49.5t75 25
t75 7.5q57 0 108 -18t85.5 -57.5t40.5 -104.5h-153q0 17 -13 28t-33 16.5t-43 5.5q-21 0 -37 -3.5t-25 -11t-9 -20.5q0 -12 12.5 -21t33.5 -14t45 -10q11 -2 24.5 -3.5t26.5 -4t23 -3.5q41 -8 77.5 -22.5t59 -43.5t22.5 -80q0 -49 -20 -82.5t-53.5 -54.5t-75 -31t-84.5 -10z
" />
    <glyph glyph-name="t_alt" horiz-adv-x="376" 
d="M299 0q-68 0 -114.5 15.5t-71 54t-24.5 108.5v208h-76v141h79l25 136h130v-136h106v-141h-106v-182q0 -26 10.5 -44t47.5 -18h43v-142h-49z" />
    <glyph glyph-name="u_alt" horiz-adv-x="610" 
d="M252 -8q-73 0 -118.5 30t-66.5 85t-21 128v292h159v-268q0 -22 3 -43.5t12.5 -39.5t28.5 -29t52 -11q30 0 49.5 9.5t30 26.5t15 40t4.5 49v266h159v-527h-145l-2 61q-18 -27 -45.5 -42.5t-57.5 -21t-57 -5.5z" />
    <glyph glyph-name="w_alt" horiz-adv-x="856" 
d="M164 0l-166 527h173l91 -341l94 235h151l92 -235l91 341h168l-166 -527h-171l-92 249l-94 -249h-171z" />
    <glyph glyph-name="y_alt" horiz-adv-x="621" 
d="M308 -246q-64 0 -117.5 20.5t-89.5 65.5t-50 114h163q5 -17 18.5 -29.5t32.5 -19t43 -6.5q22 0 40 5.5t30.5 16.5t21 26.5t12.5 35t4 41.5v18q-19 -20 -45 -31t-52.5 -15t-46.5 -4q-59 0 -100 17.5t-67 49.5t-38 77t-12 100v291h158v-258q0 -22 3 -45.5t12.5 -43
t29.5 -32t54 -12.5t54 12t30 32.5t12.5 44t2.5 46.5v256h159v-463q0 -66 -13 -123t-43 -98.5t-80 -65t-126 -23.5z" />
    <glyph glyph-name="ordfeminine" unicode="&#xaa;" horiz-adv-x="376" 
d="M144 440q-50 0 -80 26.5t-30 72.5q0 40 20 61.5t52.5 29t71.5 7.5h57q-2 22 -14 34t-34 12q-13 0 -29 -5.5t-18 -20.5h-99q4 38 25.5 62t54 36t69.5 12q46 0 76.5 -17.5t46 -51t15.5 -83.5v-171h-89l-1 40q-18 -24 -42 -34t-52 -10zM170 517q25 0 45 15t20 42h-62
q-11 0 -20.5 -2.5t-15.5 -8.5t-6 -17q0 -14 11 -21.5t28 -7.5z" />
    <glyph glyph-name="ordmasculine" unicode="&#xba;" horiz-adv-x="382" 
d="M191 439q-55 0 -87.5 23t-46 60t-13.5 79q0 44 14 81.5t47 60.5t87 23q55 0 87 -23t45.5 -60t13.5 -80t-14 -80.5t-46.5 -60.5t-86.5 -23zM191 523q24 0 35.5 13t15.5 32t4 35t-3.5 34.5t-15 31.5t-35.5 13q-23 0 -35 -13t-16.5 -31.5t-4.5 -38.5q0 -15 3.5 -32.5
t15 -30.5t36.5 -13z" />
    <glyph glyph-name="uni0410" unicode="&#x410;" horiz-adv-x="725" 
d="M-2 0l280 708h172l277 -708h-175l-39 110h-301l-40 -110h-174zM263 257h199l-98 274z" />
    <glyph glyph-name="uni0411" unicode="&#x411;" horiz-adv-x="684" 
d="M71 0v708h534v-150h-372v-118h150q52 0 99 -8.5t84 -30.5t58 -62t21 -103q0 -70 -25.5 -116t-68 -72.5t-94.5 -37t-104 -10.5h-282zM233 149h127q22 0 44 3t40 11t29.5 24t11.5 42q0 23 -9.5 37t-25.5 21.5t-37.5 10t-45.5 2.5h-134v-151z" />
    <glyph glyph-name="uni0412" unicode="&#x412;" horiz-adv-x="684" 
d="M70 0v708h331q47 0 86.5 -9.5t69 -31t46.5 -57t17 -89.5q0 -41 -19 -78t-54 -57q47 -18 75.5 -59.5t28.5 -107.5q0 -65 -23.5 -107.5t-64 -67t-92.5 -34.5t-109 -10h-292zM232 149h146q25 0 45.5 4.5t35 13t22 23t7.5 33.5q0 20 -6.5 33t-19.5 21.5t-31 12t-41 3.5h-158
v-144zM232 426h129q24 0 42.5 5t30.5 14t18.5 22t6.5 30q0 23 -10.5 36.5t-29.5 19t-46 5.5h-141v-132z" />
    <glyph glyph-name="uni0413" unicode="&#x413;" horiz-adv-x="587" 
d="M71 0v708h501v-150h-339v-558h-162z" />
    <glyph glyph-name="Geupturncy" unicode="&#x490;" horiz-adv-x="587" 
d="M71 0v708h338v167h163v-317h-339v-558h-162z" />
    <glyph glyph-name="uni0414" unicode="&#x414;" horiz-adv-x="745" 
d="M10 -173v322q43 0 63.5 23.5t29.5 57.5q9 36 14 73.5t7.5 74.5t3.5 71q3 69 4.5 132.5t1.5 126.5h516v-559h85v-322h-162v173h-401v-173h-162zM245 149h243v409h-206l-4 -206q0 -19 -1.5 -45t-5.5 -53.5t-10 -54.5t-16 -50z" />
    <glyph glyph-name="uni0415" unicode="&#x415;" horiz-adv-x="625" 
d="M71 0v708h522v-150h-360v-134h303v-144h-303v-131h360v-149h-522z" />
    <glyph glyph-name="uni0401" unicode="&#x401;" horiz-adv-x="625" 
d="M71 0v708h522v-150h-360v-134h303v-144h-303v-131h360v-149h-522zM461 756q-35 0 -61.5 21.5t-26.5 62.5q0 42 27.5 65t61.5 23q35 0 60.5 -22.5t25.5 -64.5t-25.5 -63.5t-61.5 -21.5zM210 756q-35 0 -61 21.5t-26 62.5q0 42 26.5 65t60.5 23q35 0 61.5 -22.5t26.5 -65.5
q0 -41 -26.5 -62.5t-61.5 -21.5z" />
    <glyph glyph-name="uni0416" unicode="&#x416;" horiz-adv-x="1010" 
d="M4 0l200 367l-201 341h184l151 -284h86v284h162v-284h86l152 284h183l-201 -341l201 -367h-190l-141 277h-90v-277h-162v277l-89 1l-142 -278h-189z" />
    <glyph glyph-name="uni0417" unicode="&#x417;" horiz-adv-x="666" 
d="M337 -8q-60 0 -113.5 13.5t-96 42.5t-68.5 75t-31 112h155q5 -26 19.5 -43.5t36 -28t47.5 -14.5t53 -4q24 0 46.5 3.5t42 12t31 24t11.5 39.5q0 22 -9.5 35.5t-25.5 21t-37 10.5t-43 3h-106v133h84q24 0 44 3.5t35.5 12.5t23.5 22.5t8 33.5q0 27 -17.5 41.5t-43.5 20
t-53 5.5q-36 0 -64 -8.5t-45 -26.5t-21 -46h-155q1 53 19 91.5t47 65t67 43.5t81 24.5t86 7.5q47 0 93 -11t84 -34.5t60.5 -61.5t22.5 -92q0 -28 -7.5 -51.5t-23 -44t-42.5 -38.5q55 -21 77.5 -67t22.5 -103t-24 -99.5t-65.5 -69.5t-94.5 -40t-111 -13z" />
    <glyph glyph-name="uni0418" unicode="&#x418;" horiz-adv-x="762" 
d="M71 0v708h162v-431l326 431h132v-708h-163v424l-325 -424h-132z" />
    <glyph glyph-name="uni0419" unicode="&#x419;" horiz-adv-x="762" 
d="M71 0v708h162v-431l326 431h132v-708h-163v424l-325 -424h-132zM384 742q-58 0 -102 19t-69 57.5t-28 97.5h130q2 -30 22 -46.5t49 -16.5q30 0 48 16.5t19 46.5h131q-2 -59 -27.5 -97.5t-70 -57.5t-102.5 -19z" />
    <glyph glyph-name="uni041A" unicode="&#x41a;" horiz-adv-x="689" 
d="M71 0v708h162v-283h100l168 283h185l-219 -342l218 -366h-189l-159 276h-104v-276h-162z" />
    <glyph glyph-name="uni041B" unicode="&#x41b;" horiz-adv-x="703" 
d="M8 -2v154q38 0 58.5 14t30 40t14.5 60q4 28 5.5 59.5t2 60t0.5 48.5l2 274h511v-708h-162v558h-198l-2 -153q0 -78 -3 -145.5t-17 -120.5t-49 -88q-33 -32 -76.5 -42.5t-116.5 -10.5z" />
    <glyph glyph-name="uni041C" unicode="&#x41c;" horiz-adv-x="914" 
d="M71 0v708h209l182 -326l180 326h201v-708h-162v485l-190 -336h-65l-193 336v-485h-162z" />
    <glyph glyph-name="uni041D" unicode="&#x41d;" horiz-adv-x="748" 
d="M71 0v708h162v-284h282v284h162v-708h-162v275h-282v-275h-162z" />
    <glyph glyph-name="uni041E" unicode="&#x41e;" horiz-adv-x="777" 
d="M386 -8q-109 0 -188.5 45.5t-122.5 127t-43 188.5q0 110 44.5 191.5t124.5 127t189 45.5q107 0 186.5 -45t124 -125.5t44.5 -189.5q0 -107 -44 -189.5t-124.5 -129t-190.5 -46.5zM389 145q68 0 110 31t61 79t19 98q0 37 -10.5 74t-33 68t-58.5 50t-89 19
q-67 0 -109 -30.5t-61.5 -78.5t-19.5 -101t20 -101t62.5 -78t108.5 -30z" />
    <glyph glyph-name="uni041F" unicode="&#x41f;" horiz-adv-x="741" 
d="M71 0v708h599v-708h-162v559h-275v-559h-162z" />
    <glyph glyph-name="uni0420" unicode="&#x420;" horiz-adv-x="660" 
d="M71 0v708h287q82 0 143.5 -24t96 -78t34.5 -146q0 -85 -37 -142t-101 -84.5t-146 -27.5h-115v-206h-162zM233 350h115q57 0 90.5 28t33.5 82q0 49 -28.5 73.5t-93.5 24.5h-117v-208z" />
    <glyph glyph-name="uni0421" unicode="&#x421;" horiz-adv-x="724" 
d="M379 -8q-110 0 -188 44t-118.5 125t-40.5 190q0 111 42 193t119.5 127.5t183.5 45.5q82 0 148 -29t107.5 -85.5t50.5 -142.5h-155q-12 49 -48.5 76.5t-98.5 27.5q-67 0 -107 -30.5t-57.5 -77.5t-17.5 -98q0 -53 18.5 -102t59 -80t107.5 -31q40 0 70.5 12t50.5 35t28 55
h159q-8 -83 -52.5 -140t-113 -86t-147.5 -29z" />
    <glyph glyph-name="uni0422" unicode="&#x422;" horiz-adv-x="603" 
d="M220 0v558h-213v150h590v-150h-215v-558h-162z" />
    <glyph glyph-name="uni0423" unicode="&#x423;" horiz-adv-x="658" 
d="M114 0v155q46 0 74.5 4t48 17.5t36.5 40.5l-266 491h189l161 -337l132 337h173l-180 -420q-17 -39 -34 -76.5t-36.5 -70.5t-43 -59.5t-52.5 -43.5q-36 -20 -84.5 -29t-117.5 -9z" />
    <glyph glyph-name="uni040E" unicode="&#x40e;" horiz-adv-x="658" 
d="M114 0v155q46 0 74.5 4t48 17.5t36.5 40.5l-266 491h189l161 -337l132 337h173l-180 -420q-17 -39 -34 -76.5t-36.5 -70.5t-43 -59.5t-52.5 -43.5q-36 -20 -84.5 -29t-117.5 -9zM343 763q-91 0 -143 44.5t-53 135.5h130q0 -40 19 -55t48 -15q31 0 49 15t18 55h130
q-1 -60 -24.5 -100.5t-67.5 -60t-106 -19.5z" />
    <glyph glyph-name="uni0424" unicode="&#x424;" horiz-adv-x="881" 
d="M359 -16v109h-23q-91 1 -159.5 31t-106.5 91t-38 152q0 93 39 154.5t107.5 91.5t157.5 30h23v94h162v-94h18q88 0 158 -30.5t111 -90.5t41 -152q0 -93 -37 -154.5t-106 -91.5t-163 -31h-22v-109h-162zM342 232h17v271h-18q-50 0 -83.5 -17.5t-50.5 -47.5t-17 -68
q0 -41 16.5 -72t51 -48.5t84.5 -17.5zM521 232h17q51 0 85 17.5t51 48.5t17 72q0 39 -17.5 69t-51 47t-84.5 17h-17v-271z" />
    <glyph glyph-name="uni0425" unicode="&#x425;" horiz-adv-x="694" 
d="M3 0l245 355l-237 353h194l146 -237l142 237h191l-237 -354l244 -354h-195l-152 237l-157 -237h-184z" />
    <glyph glyph-name="uni0427" unicode="&#x427;" horiz-adv-x="695" 
d="M461 0v235q-30 -4 -54.5 -6t-46.5 -3t-46 -1q-86 0 -145.5 26.5t-90 83t-30.5 146.5v227h162v-215q0 -46 15 -71.5t46.5 -35t80.5 -9.5q24 0 52 2t57 7v322h163v-708h-163z" />
    <glyph glyph-name="uni0426" unicode="&#x426;" horiz-adv-x="749" 
d="M577 -173v173h-506v708h162v-559h261v559h162v-559h83v-322h-162z" />
    <glyph glyph-name="uni0428" unicode="&#x428;" horiz-adv-x="1005" 
d="M71 0v708h162v-559h188v559h163v-559h188v559h162v-708h-863z" />
    <glyph glyph-name="uni0429" unicode="&#x429;" horiz-adv-x="1026" 
d="M854 -173v173h-783v708h162v-559h188v559h163v-559h187v559h162v-559h84v-322h-163z" />
    <glyph glyph-name="uni042C" unicode="&#x42c;" horiz-adv-x="671" 
d="M70 0v708h162v-253h137q56 0 105 -10.5t85.5 -35t57 -66t20.5 -104.5q1 -70 -24.5 -116.5t-68 -73.5t-96.5 -38t-110 -11h-268zM232 149h114q28 0 51.5 3.5t41.5 12.5t27.5 26t9.5 43q0 25 -8 40t-24 23.5t-36.5 11.5t-45.5 3h-130v-163z" />
    <glyph glyph-name="uni042B" unicode="&#x42b;" horiz-adv-x="919" 
d="M71 0v708h162v-253h98q49 0 96.5 -10t86.5 -34t62 -66.5t23 -108.5q0 -69 -25 -114.5t-68 -72t-96 -38t-108 -11.5h-231zM233 149h74q28 0 52 4t42.5 13.5t28.5 25.5t10 42t-10.5 41.5t-28 23.5t-40.5 10.5t-47 2.5h-81v-163zM686 0v708h162v-708h-162z" />
    <glyph glyph-name="uni042A" unicode="&#x42a;" horiz-adv-x="758" 
d="M157 0v558h-159v150h321v-253h140q46 0 92.5 -9t85.5 -32t63 -66.5t24 -111.5q0 -69 -24.5 -114.5t-65 -72.5t-92 -38t-104.5 -11h-281zM319 149h112q28 0 52.5 3t42.5 12.5t28.5 26t10.5 44.5q0 22 -8 36.5t-23 23.5t-35.5 13t-46.5 4h-133v-163z" />
    <glyph glyph-name="uni0405" unicode="&#x405;" horiz-adv-x="662" 
d="M342 -8q-76 0 -141 24.5t-107.5 77t-52.5 134.5h164q8 -31 29.5 -50t52.5 -27.5t66 -8.5q24 0 48 5.5t40 19.5t16 39q0 19 -9 30.5t-25.5 19t-40.5 13.5q-15 4 -31 7t-31 7t-30 9q-45 11 -86 25.5t-72.5 38t-49.5 60.5t-18 92q0 59 24 99.5t65 64.5t91.5 34.5t101.5 10.5
q72 0 127.5 -26t89.5 -76.5t41 -124.5h-157q-4 26 -20.5 43t-42 26t-58.5 9q-20 0 -38.5 -3.5t-32 -10.5t-22 -18.5t-8.5 -28.5q0 -18 12 -30t34.5 -21t55.5 -19q23 -7 47.5 -12t47.5 -12q42 -11 77.5 -24t62.5 -34t42.5 -54t15.5 -84q0 -62 -23 -104.5t-63 -69.5t-89.5 -39
t-102.5 -12z" />
    <glyph glyph-name="uni0404" unicode="&#x404;" horiz-adv-x="721" 
d="M368 -8q-111 0 -186 46t-112.5 127.5t-37.5 188.5q0 108 39.5 190t115.5 127.5t186 45.5q84 0 150 -27.5t107.5 -83.5t52.5 -140h-157q-10 38 -34 60t-56 31t-66 9q-46 0 -82.5 -16t-58.5 -47t-26 -77h261v-143h-262q2 -45 26 -76t63 -46.5t86 -15.5q34 0 65 9t54.5 30
t35.5 59h157q-11 -82 -56 -138.5t-114 -84.5t-151 -28z" />
    <glyph glyph-name="uni042D" unicode="&#x42d;" horiz-adv-x="721" 
d="M352 -8q-80 0 -149 27.5t-114.5 83.5t-56.5 140h157q10 -33 33 -55t56.5 -32.5t73.5 -10.5q54 0 90 17.5t55.5 49t21.5 71.5h-262v143h261q-3 36 -20 68t-52.5 52t-93.5 20q-43 0 -76 -12t-53 -34.5t-28 -53.5h-158q12 86 59.5 141.5t117 82.5t147.5 27q82 0 143.5 -27
t102.5 -76t61.5 -115t20.5 -144q0 -109 -39.5 -191t-114.5 -127t-183 -45z" />
    <glyph glyph-name="uni0406" unicode="&#x406;" horiz-adv-x="304" 
d="M71 0v708h162v-708h-162z" />
    <glyph glyph-name="uni0407" unicode="&#x407;" horiz-adv-x="304" 
d="M71 0v708h162v-708h-162zM44 763q-35 0 -61 21.5t-26 62.5t26.5 64t60.5 23t60.5 -22.5t26.5 -64.5q0 -41 -26 -62.5t-61 -21.5zM264 763q-35 0 -61.5 21.5t-26.5 62.5t27 64t61 23t59.5 -22.5t25.5 -63.5q0 -42 -25 -63.5t-60 -21.5z" />
    <glyph glyph-name="uni0408" unicode="&#x408;" horiz-adv-x="593" 
d="M286 -8q-54 0 -101 13t-82.5 43t-55.5 80.5t-21 125.5h162q0 -25 7 -50.5t26.5 -43t59.5 -17.5q34 0 52 13.5t24.5 35.5t6.5 47v469h162v-455q0 -64 -14.5 -112.5t-44.5 -81.5t-75 -50t-106 -17z" />
    <glyph glyph-name="Yucy" unicode="&#x42e;" horiz-adv-x="1021" 
d="M648 -8q-95 0 -166 36.5t-113 101t-51 148.5h-85v-278h-162v708h162v-285h83q9 88 52 154t113.5 103t159.5 37q109 0 187 -44.5t119.5 -125.5t41.5 -192q0 -107 -40 -189t-116 -128t-185 -46zM644 144q66 0 105.5 31t56.5 80.5t17 101.5q0 51 -16 99t-55 79t-106 31
q-52 0 -86.5 -19.5t-55 -51t-29.5 -69t-9 -73.5q0 -39 9.5 -76t30.5 -67t55 -48t83 -18z" />
    <glyph glyph-name="Yacy" unicode="&#x42f;" horiz-adv-x="716" 
d="M40 0l187 259q-78 26 -117.5 80.5t-39.5 137.5q0 67 23.5 112t64.5 71t94 37t111 11h282v-708h-162v233h-96l-154 -233h-193zM356 377h127v181h-135q-33 0 -60 -8.5t-42.5 -27.5t-15.5 -52q0 -37 19 -57t48.5 -28t58.5 -8z" />
    <glyph glyph-name="uni04C1" unicode="&#x4c1;" horiz-adv-x="1001" 
d="M0 0l199 367l-201 341h184l151 -284h86v284h162v-284h86l153 284h182l-201 -341l201 -367h-190l-141 277h-90v-277h-162v277l-89 1l-142 -278h-188zM501 758q-57 0 -100.5 18.5t-68.5 55.5t-27 94h129q1 -31 20.5 -46t48.5 -15t46.5 15t19.5 46h129q-2 -56 -27.5 -93.5
t-68.5 -56t-101 -18.5z" />
    <glyph glyph-name="uni0430" unicode="&#x430;" horiz-adv-x="572" 
d="M210 -8q-34 0 -65.5 10t-57 30t-40 50t-14.5 70q0 57 23.5 90.5t64 50t92.5 21.5t108 5h50q0 25 -9.5 43.5t-28.5 29.5t-47 11q-20 0 -37.5 -5.5t-29 -15t-15.5 -23.5h-159q7 47 29.5 80.5t56 54.5t75.5 31.5t86 10.5q78 0 128.5 -29t76 -85t25.5 -139v-283h-145l-1 61
q-22 -26 -48.5 -41.5t-55.5 -21.5t-62 -6zM258 115q31 0 57 14t42 36t16 47v6h-97q-19 0 -34.5 -2t-27 -7.5t-18 -15t-6.5 -24.5q0 -17 8.5 -29.5t24 -18.5t35.5 -6z" />
    <glyph glyph-name="uni0431" unicode="&#x431;" horiz-adv-x="616" 
d="M315 -8q-58 0 -103 17t-78.5 47.5t-55 72t-32 90.5t-10.5 102q0 75 9.5 135t30 106t56 79t87.5 53q38 17 83.5 25t99.5 15q55 6 84 10t44.5 7t27.5 5v-165q-9 -2 -19.5 -4t-22.5 -3.5t-25 -2.5t-25.5 -1.5t-24.5 -1.5q-45 -4 -91 -9t-83 -18t-59 -41q-7 -9 -14 -24
t-11.5 -32.5t-4.5 -39.5q24 36 56 55t65.5 26.5t60.5 7.5q74 0 124 -33t75.5 -88.5t25.5 -124.5q0 -81 -34 -140.5t-94.5 -92t-141.5 -32.5zM315 133q38 0 63 17t37 43t12 54q0 29 -12 53.5t-36.5 40.5t-61.5 16q-36 0 -61.5 -15.5t-39 -40.5t-13.5 -54q0 -28 12 -54t37 -43
t63 -17z" />
    <glyph glyph-name="uni0432" unicode="&#x432;" horiz-adv-x="571" 
d="M51 0v527h274q34 0 67.5 -5t61.5 -19.5t45.5 -42t17.5 -74.5q0 -22 -7 -42t-19 -35t-26 -24q36 -15 53.5 -44.5t17.5 -75.5q0 -47 -19.5 -78.5t-51 -50.5t-67 -27.5t-67.5 -8.5h-280zM210 137h112q18 0 31.5 5t21 14t7.5 24q0 11 -4.5 18.5t-13 12.5t-20.5 7t-26 2h-108
v-83zM210 320h93q14 0 25.5 2t20 7.5t13.5 13.5t5 18q0 15 -7.5 23t-21 11t-29.5 3h-99v-78z" />
    <glyph glyph-name="uni0433" unicode="&#x433;" horiz-adv-x="447" 
d="M51 0v527h385v-141h-226v-386h-159z" />
    <glyph glyph-name="geupturncy" unicode="&#x491;" horiz-adv-x="464" 
d="M51 0v527h247v147h155v-288h-243v-386h-159z" />
    <glyph glyph-name="uni0434" unicode="&#x434;" horiz-adv-x="633" 
d="M11 -144v286q22 0 38.5 11t27.5 31t18 44.5t10 52.5q7 45 8.5 93.5t1.5 90.5v31.5v30.5h441v-385h66v-286h-157v144h-296v-144h-158zM223 142h175v244h-143q-1 -31 -2 -64.5t-4 -64.5q-1 -19 -4.5 -39t-8.5 -39t-13 -37z" />
    <glyph glyph-name="uni0435" unicode="&#x435;" horiz-adv-x="575" 
d="M296 -8q-82 0 -141.5 33t-91.5 93.5t-32 142.5t33 144t92.5 97t140.5 35q58 0 104 -19t78 -53.5t49 -82.5t16 -106q0 -15 -1 -29.5t-5 -29.5h-350q3 -25 15 -46t34 -33t56 -12q24 0 43.5 5.5t32.5 16t17 23.5h156q-13 -63 -50 -102.5t-88 -58t-108 -18.5zM191 324h203
q0 21 -10.5 41t-32.5 32.5t-57 12.5q-34 0 -57 -13t-34 -33t-12 -40z" />
    <glyph glyph-name="uni0451" unicode="&#x451;" horiz-adv-x="575" 
d="M296 -8q-82 0 -141.5 33t-91.5 93.5t-32 142.5t33 144t92.5 97t140.5 35q58 0 104 -19t78 -53.5t49 -82.5t16 -106q0 -15 -1 -29.5t-5 -29.5h-350q3 -25 15 -46t34 -33t56 -12q24 0 43.5 5.5t32.5 16t17 23.5h156q-13 -63 -50 -102.5t-88 -58t-108 -18.5zM191 324h203
q0 21 -10.5 41t-32.5 32.5t-57 12.5q-34 0 -57 -13t-34 -33t-12 -40zM413 575q-35 0 -61.5 21.5t-26.5 62.5q0 42 27.5 65t61.5 23q35 0 60.5 -22.5t25.5 -64.5t-25.5 -63.5t-61.5 -21.5zM162 575q-35 0 -61 21.5t-26 62.5q0 42 26.5 65t60.5 23q35 0 61.5 -22.5t26.5 -65.5
q0 -41 -26.5 -62.5t-61.5 -21.5z" />
    <glyph glyph-name="uni0436" unicode="&#x436;" horiz-adv-x="839" 
d="M3 0l137 276l-131 251h165l95 -194h71v194h158v-194h73l92 194h167l-134 -251l140 -276h-177l-86 191h-75v-191h-158v191h-75l-87 -191h-175z" />
    <glyph glyph-name="uni0437" unicode="&#x437;" horiz-adv-x="537" 
d="M277 -8q-43 0 -86.5 10t-80 32t-60.5 58t-29 87h154q3 -18 17.5 -30t37 -17.5t45.5 -5.5q21 0 40 4.5t31 15t12 28.5q0 14 -6.5 22t-18.5 11.5t-31 3.5h-91v112h70q18 0 30 2.5t20 8t11 12.5t3 15q0 17 -10 26.5t-26 13.5t-36 4q-22 0 -43 -5.5t-35 -16.5t-18 -30h-150
q10 72 47.5 111.5t90.5 56t110 16.5q38 0 76.5 -7t70.5 -24.5t52 -46.5t20 -73q0 -29 -12 -56.5t-36 -41.5q34 -18 49 -50t15 -69q0 -49 -20.5 -83t-55 -55t-75.5 -30t-82 -9z" />
    <glyph glyph-name="uni0438" unicode="&#x438;" horiz-adv-x="617" 
d="M51 0v527h159v-282q6 9 12.5 18t13.5 16l196 248h134v-527h-159v274q-7 -11 -15 -20.5t-16 -19.5l-185 -234h-140z" />
    <glyph glyph-name="uni0439" unicode="&#x439;" horiz-adv-x="617" 
d="M51 0v527h159v-282q6 9 12.5 18t13.5 16l196 248h134v-527h-159v274q-7 -11 -15 -20.5t-16 -19.5l-185 -234h-140zM318 562q-91 0 -143 44.5t-53 135.5h130q0 -40 19 -55t48 -15q31 0 49 15t18 55h130q-1 -60 -24.5 -100.5t-67.5 -60t-106 -19.5z" />
    <glyph glyph-name="uni043A" unicode="&#x43a;" horiz-adv-x="588" 
d="M51 0v527h159v-194h76l119 194h178l-161 -247l158 -280h-182l-105 191h-83v-191h-159z" />
    <glyph glyph-name="uni043B" unicode="&#x43b;" horiz-adv-x="580" 
d="M9 -1v146q24 0 40 12.5t26 31.5q12 24 16 54t5 57q2 41 3.5 86.5t2 84t0.5 56.5h426v-527h-158v386h-125q0 -32 -1 -71.5t-4 -80t-10 -75.5q-8 -38 -20.5 -68.5t-35.5 -52.5q-25 -22 -64 -30.5t-101 -8.5z" />
    <glyph glyph-name="uni043C" unicode="&#x43c;" horiz-adv-x="738" 
d="M51 0v527h184l136 -216l135 216h181v-527h-158v311l-136 -214h-46l-138 215v-312h-158z" />
    <glyph glyph-name="uni043D" unicode="&#x43d;" horiz-adv-x="596" 
d="M51 0v527h159v-193h176v193h159v-527h-159v191h-176v-191h-159z" />
    <glyph glyph-name="uni043E" unicode="&#x43e;" horiz-adv-x="600" 
d="M303 -8q-79 0 -140.5 32t-96.5 92.5t-35 145.5q0 87 35.5 148.5t96.5 94t138 32.5q78 0 138 -33.5t95 -95t35 -148.5q0 -85 -33.5 -145t-93.5 -91.5t-139 -31.5zM300 139q43 0 67.5 18t35 46t10.5 58t-10.5 60t-35 49.5t-67.5 19.5q-42 0 -67 -19.5t-36 -49.5t-11 -60
q0 -31 11 -59t36 -45.5t67 -17.5z" />
    <glyph glyph-name="uni043F" unicode="&#x43f;" horiz-adv-x="594" 
d="M51 0v527h492v-527h-158v386h-175v-386h-159z" />
    <glyph glyph-name="uni0440" unicode="&#x440;" horiz-adv-x="626" 
d="M51 -199v726h147l8 -63q35 42 78 57t90 15q73 0 123 -36t76 -98t26 -139t-26 -138.5t-79 -97t-135 -35.5q-36 0 -64.5 8.5t-49.5 21.5t-35 27v-248h-159zM331 136q44 0 68 19t34 48t10 58q0 32 -11 62.5t-36 49.5t-68 19q-39 0 -65.5 -18.5t-40 -47.5t-13.5 -62t13 -62
t40 -47.5t69 -18.5z" />
    <glyph glyph-name="uni0441" unicode="&#x441;" horiz-adv-x="565" 
d="M290 -8q-80 0 -138 32.5t-89.5 93.5t-31.5 144q0 85 32.5 146.5t91.5 95t140 33.5q67 0 119.5 -24.5t84 -70.5t35.5 -113h-154q-8 32 -30.5 47.5t-55.5 15.5q-42 0 -64.5 -20.5t-32 -50.5t-9.5 -58q0 -32 10.5 -61.5t34 -47.5t60.5 -18q34 0 57.5 16t30.5 47h158
q-3 -68 -37.5 -114t-89.5 -69.5t-122 -23.5z" />
    <glyph glyph-name="uni0442" unicode="&#x442;" horiz-adv-x="512" 
d="M176 0v386h-168v141h496v-141h-170v-386h-158z" />
    <glyph glyph-name="uni0443" unicode="&#x443;" horiz-adv-x="577" 
d="M78 -246v163q41 0 67.5 5.5t44.5 18t32 35.5l-217 551h183l126 -374l96 374h171l-137 -466q-12 -43 -27.5 -83t-35 -75t-45 -63t-58.5 -47q-27 -16 -53.5 -24t-61 -11.5t-85.5 -3.5z" />
    <glyph glyph-name="uni045E" unicode="&#x45e;" horiz-adv-x="587" 
d="M82 -246v163h13q33 0 57 5.5t42 18.5t32 35l-219 551h184l127 -374l95 374h171l-136 -466q-11 -39 -25 -76.5t-32 -71.5t-40.5 -61.5t-50.5 -47.5q-36 -26 -80 -38t-101 -12h-37zM303 561q-91 0 -143 44.5t-52 135.5h129q0 -40 19 -55t48 -15q31 0 49 15t19 55h129
q0 -60 -24 -100t-68 -60t-106 -20z" />
    <glyph glyph-name="uni0444" unicode="&#x444;" horiz-adv-x="790" 
d="M316 -197v193q-63 2 -115.5 19.5t-91.5 51t-60.5 82.5t-21.5 116q0 91 37.5 150.5t103 89.5t148.5 30v162h158v-162q87 0 152 -30.5t101 -91t36 -152.5q0 -89 -38 -146t-103 -86t-148 -34v-192h-158zM316 136v256q-66 0 -98 -37t-32 -90q0 -37 15 -66t44 -46t71 -17z
M474 136q43 0 71.5 17t43.5 46t15 66q0 53 -32.5 90t-97.5 37v-256z" />
    <glyph glyph-name="uni0445" unicode="&#x445;" horiz-adv-x="575" 
d="M3 0l183 269l-173 258h182l94 -154l93 154h178l-175 -261l187 -266h-184l-104 163l-105 -163h-176z" />
    <glyph glyph-name="uni0447" unicode="&#x447;" horiz-adv-x="552" 
d="M342 0v169q-40 -4 -59.5 -4.5t-36.5 -0.5q-76 0 -124 24t-71 74t-23 126v139h159v-134q0 -24 4.5 -43.5t22.5 -30.5t57 -11q14 0 32.5 1t38.5 3v215h158v-527h-158z" />
    <glyph glyph-name="uni0446" unicode="&#x446;" horiz-adv-x="619" 
d="M453 -144v144h-402v527h159v-385h175v385h158v-385h68v-286h-158z" />
    <glyph glyph-name="uni0448" unicode="&#x448;" horiz-adv-x="850" 
d="M51 0v527h159v-385h134v385h159v-385h137v385h158v-527h-747z" />
    <glyph glyph-name="uni0449" unicode="&#x449;" horiz-adv-x="873" 
d="M709 -144v144h-658v527h159v-385h134v385h159v-385h136v385h159v-385h69v-286h-158z" />
    <glyph glyph-name="uni044C" unicode="&#x44c;" horiz-adv-x="557" 
d="M51 0v527h159v-159h104q45 0 84.5 -8.5t68.5 -28.5t45 -54t16 -85q0 -53 -19.5 -89.5t-52.5 -59t-75.5 -33t-87.5 -10.5h-242zM210 139h76q19 0 35 2.5t27.5 8t17 15t5.5 24.5q0 13 -5 22.5t-14.5 14.5t-23 7.5t-28.5 2.5h-90v-97z" />
    <glyph glyph-name="uni044B" unicode="&#x44b;" horiz-adv-x="767" 
d="M51 0v527h159v-159h73q43 0 82 -8t68.5 -28t46 -54.5t16.5 -87.5t-19.5 -89t-52.5 -58.5t-74.5 -32.5t-85.5 -10h-213zM210 139h45q20 0 35.5 2t27 7.5t17 14.5t5.5 23q0 15 -5.5 24.5t-14.5 15t-21.5 8t-28.5 2.5h-60v-97zM557 0v527h158v-527h-158z" />
    <glyph glyph-name="uni044A" unicode="&#x44a;" horiz-adv-x="595" 
d="M105 0v386h-107v141h266v-159h91q45 0 84 -8.5t69 -28.5t46.5 -55t16.5 -87q0 -53 -20 -89.5t-54 -58t-76.5 -31.5t-87.5 -10h-228zM264 139h61q21 0 37.5 2t28 8t17.5 16t6 25q0 12 -4.5 20.5t-13.5 14t-22 8.5t-30 3h-80v-97z" />
    <glyph glyph-name="uni0455" unicode="&#x455;" horiz-adv-x="514" 
d="M262 -8q-38 0 -77.5 9t-73.5 29t-57 55t-31 88h160q6 -16 18.5 -27.5t31 -17t37.5 -5.5q13 0 25 2t21.5 7t14.5 12.5t5 18.5q0 16 -10.5 23.5t-29 12.5t-42.5 10q-39 8 -83.5 19.5t-75.5 31.5q-15 10 -26 22.5t-17.5 27t-10 31t-3.5 35.5q0 44 19.5 75t51.5 50t71 27.5
t77 8.5q55 0 102 -17.5t78.5 -56t39.5 -100.5h-153q-3 20 -23 32t-50 12q-11 0 -22 -2.5t-19.5 -6t-14 -10.5t-5.5 -17q0 -7 4.5 -14t14 -12.5t24.5 -10.5q34 -7 66 -13.5t61 -12.5q32 -7 62 -22.5t49.5 -43.5t19.5 -76q0 -50 -20.5 -84t-54.5 -53t-74 -28t-80 -9z" />
    <glyph glyph-name="uni0454" unicode="&#x454;" horiz-adv-x="557" 
d="M285 -10q-82 0 -140 32.5t-88 92.5t-30 143q0 85 31 147t89.5 96t138.5 34q95 0 162 -48t85 -138h-157q-7 20 -22 31t-34 15.5t-37 4.5q-27 0 -49 -9.5t-35 -26t-16 -40.5h174v-126h-175q2 -26 17.5 -42.5t40 -24.5t50.5 -8q17 0 34.5 3.5t32 13.5t22.5 29h155
q-14 -59 -49 -99t-86 -60t-114 -20z" />
    <glyph glyph-name="uni044D" unicode="&#x44d;" horiz-adv-x="558" 
d="M278 -10q-58 0 -111.5 18.5t-91.5 58.5t-52 102h156q10 -15 24.5 -25.5t33.5 -15.5t40 -5q34 0 55.5 11t32 28.5t11.5 35.5h-173v126h172q-3 20 -15 37t-32.5 28t-49.5 11q-22 0 -41.5 -6t-34 -17.5t-20.5 -27.5h-158q12 61 50 102.5t92.5 62.5t116.5 21q79 0 134.5 -33
t84.5 -94t29 -146t-29.5 -145.5t-85.5 -93.5t-138 -33z" />
    <glyph glyph-name="uni0456" unicode="&#x456;" horiz-adv-x="280" 
d="M62 0v527h158v-527h-158zM140 575q-38 0 -67.5 23.5t-29.5 68.5q0 32 14.5 53.5t37.5 33.5t47 12q38 0 66.5 -26t28.5 -71t-29 -69.5t-68 -24.5z" />
    <glyph glyph-name="uni0457" unicode="&#x457;" horiz-adv-x="261" 
d="M51 0v527h159v-527h-159zM22 582q-35 0 -61 21.5t-26 62.5t26.5 64t60.5 23t60.5 -22.5t26.5 -64.5q0 -41 -26 -62.5t-61 -21.5zM242 582q-35 0 -61.5 21.5t-26.5 62.5t27 64t61 23t59.5 -22.5t25.5 -63.5q0 -42 -25 -63.5t-60 -21.5z" />
    <glyph glyph-name="uni0458" unicode="&#x458;" horiz-adv-x="272" 
d="M-48 -212v142h40q29 0 41.5 10.5t15.5 25.5t3 28v533h158v-557q0 -61 -16.5 -101.5t-55 -60.5t-103.5 -20h-83zM132 575q-38 0 -67.5 23.5t-29.5 68.5q0 32 14.5 53.5t37.5 33.5t48 12q38 0 66 -26t28 -72q0 -47 -29 -70t-68 -23z" />
    <glyph glyph-name="yucy" unicode="&#x44e;" horiz-adv-x="828" 
d="M540 -8q-106 0 -173.5 54.5t-83.5 145.5h-73v-192h-159v527h159v-193h73q11 61 44.5 106t87 71t123.5 26q78 0 137 -32.5t92.5 -94t33.5 -148.5q0 -83 -31.5 -143.5t-90 -93.5t-139.5 -33zM536 136q42 0 65.5 19.5t33.5 49t10 60.5q0 30 -10 59.5t-33.5 48.5t-65.5 19
q-41 0 -65.5 -18.5t-35.5 -48t-11 -61.5t11 -61.5t35.5 -48t65.5 -18.5z" />
    <glyph glyph-name="yacy" unicode="&#x44f;" horiz-adv-x="584" 
d="M18 0l145 194q-48 14 -79.5 55.5t-31.5 98.5q0 54 18 89t49.5 54.5t71 27.5t82.5 8h260v-527h-158v161h-64l-106 -161h-187zM294 291h81v101h-98q-16 0 -29 -3t-21.5 -9.5t-13 -15.5t-4.5 -21q0 -16 8 -26.5t21 -16t28 -7.5t28 -2z" />
    <glyph glyph-name="uni04C2" unicode="&#x4c2;" horiz-adv-x="836" 
d="M-2 0l140 276l-134 251h165l98 -194h72v194h158v-194h74l94 194h167l-135 -251l142 -276h-177l-88 191h-77v-191h-158v191h-76l-90 -191h-175zM418 568q-57 0 -101.5 17t-69.5 54.5t-28 96.5h131q1 -20 10 -34t24.5 -20.5t34.5 -6.5t34 6.5t23.5 20.5t8.5 34h130
q-2 -59 -27 -96.5t-69 -54.5t-101 -17z" />
    <glyph glyph-name="zero" unicode="0" horiz-adv-x="659" 
d="M328 -8q-79 0 -134 28t-89 78t-49 115t-15 138q0 76 16 142.5t50.5 116.5t89.5 78.5t134 28.5t134.5 -29t89 -80t49 -116t15.5 -138q0 -74 -15.5 -139t-49.5 -115.5t-89.5 -79t-136.5 -28.5zM328 141q45 0 71 22t38.5 55.5t16 70t3.5 65.5q0 28 -3 63.5t-15 69
t-37.5 55.5t-70.5 22q-44 0 -70 -21.5t-38.5 -55t-17 -69.5t-4.5 -64t3.5 -64.5t15.5 -70.5t37.5 -56t70.5 -22z" />
    <glyph glyph-name="one" unicode="1" horiz-adv-x="399" 
d="M146 0v503h-137v124q42 0 75.5 7t59.5 25t46 49h118v-708h-162z" />
    <glyph glyph-name="two" unicode="2" horiz-adv-x="559" 
d="M18 0v133l194 159q20 17 46 37.5t49.5 45t39.5 50.5t16 54q0 37 -22.5 61t-70.5 24q-47 0 -71 -21.5t-28 -52.5h-153q4 77 41 127t95 75t122 25q68 0 124 -25.5t89.5 -74t33.5 -119.5q0 -58 -22 -106.5t-61 -90.5t-89 -81l-90 -71h258v-149h-501z" />
    <glyph glyph-name="three" unicode="3" horiz-adv-x="617" 
d="M305 -7q-53 0 -102 13t-88.5 41.5t-65.5 72t-32 104.5h159q5 -27 23.5 -45t46.5 -26.5t60 -8.5q23 0 42 4t34 13t23 23t8 36q0 18 -6.5 31.5t-18.5 22t-29 13t-37 4.5h-88v137h61q23 0 40 5t29 14.5t17.5 22.5t5.5 28q0 24 -10.5 39t-30.5 22.5t-47 7.5q-28 0 -51 -8.5
t-37 -23.5t-17 -36h-157q6 57 29.5 98t60.5 67.5t83.5 39.5t96.5 13q46 0 89 -10.5t77.5 -33.5t55 -60.5t20.5 -90.5q0 -30 -10 -57t-27.5 -48t-40.5 -34q36 -13 59 -38.5t34.5 -59t11.5 -71.5q0 -62 -23 -105t-62 -68.5t-87 -36.5t-99 -11z" />
    <glyph glyph-name="four" unicode="4" horiz-adv-x="638" 
d="M377 0v127h-351v123l323 458h189v-434h79v-147h-79v-127h-161zM209 274h168v250z" />
    <glyph glyph-name="five" unicode="5" horiz-adv-x="614" 
d="M305 -7q-51 0 -95 13t-78 40.5t-56.5 70.5t-29.5 101h158q5 -16 18 -34t35.5 -29t54.5 -11q35 0 56.5 12.5t32.5 34t11 46.5q0 43 -27 70.5t-80 27.5q-30 0 -56 -10.5t-51 -28.5h-133l7 412h479v-148h-326l-4 -117q32 20 71 27t73 6q69 -3 116 -31.5t71 -78t24 -116.5
q0 -83 -35.5 -141t-97 -87t-138.5 -29z" />
    <glyph glyph-name="six" unicode="6" horiz-adv-x="624" 
d="M326 -8q-76 0 -130 28.5t-88 77.5t-50 112t-16 133q0 75 17.5 142t54 119t93 82.5t134.5 30.5q63 0 114.5 -22.5t85.5 -68t42 -115.5h-150q-10 26 -36 42.5t-63 16.5q-31 0 -55 -11.5t-41.5 -30t-28.5 -42.5t-16 -50t-5 -52q24 33 56 50.5t63 24t53 6.5q71 0 121.5 -27.5
t77.5 -78t27 -120.5q0 -76 -33.5 -131t-92 -85.5t-134.5 -30.5zM327 140q33 1 54 14t32 34.5t11 45.5q0 26 -11 47t-32 34t-53 13q-30 0 -54 -12.5t-37 -34t-13 -47.5q0 -24 12.5 -45.5t35 -35t55.5 -13.5z" />
    <glyph glyph-name="seven" unicode="7" horiz-adv-x="514" 
d="M57 0l265 557h-326v151h511v-118l-269 -590h-181z" />
    <glyph glyph-name="eight" unicode="8" horiz-adv-x="626" 
d="M311 -8q-50 0 -98 11.5t-87 38t-62 69t-23 102.5q0 38 11 69.5t32 56t51 40.5q-23 16 -38.5 38t-23.5 49t-8 57q0 53 21 90t57 60t80.5 33.5t89.5 10.5q47 0 91 -10.5t79.5 -34.5t56.5 -62t21 -93q0 -27 -9 -53.5t-25 -48t-38 -36.5q30 -15 51.5 -38.5t33 -56t11.5 -73.5
q0 -60 -23.5 -102t-63 -67.5t-88.5 -37.5t-99 -12zM312 137q22 0 41.5 5t35 16t24.5 26.5t9 37.5q0 26 -14 45t-38 29t-57 10t-58.5 -10t-39 -29t-13.5 -45q0 -22 9 -37.5t24 -26.5t34.5 -16t42.5 -5zM313 425q30 0 49.5 10t29.5 27t10 37q0 24 -11 41.5t-31.5 27t-49.5 9.5
q-28 0 -47.5 -9.5t-29.5 -26t-10 -38.5t10.5 -40t31 -28t48.5 -10z" />
    <glyph glyph-name="nine" unicode="9" horiz-adv-x="622" 
d="M293 -8q-63 0 -117.5 22t-90.5 67.5t-45 114.5h155q9 -26 38 -40.5t64 -14.5q37 0 63 14.5t42 38t23.5 52t8.5 57.5v8v8q-23 -31 -53.5 -46.5t-61.5 -22t-57 -6.5q-64 0 -114.5 27t-80 77.5t-29.5 121.5q0 82 37.5 137t98.5 82.5t132 27.5q78 0 131 -31t85 -83t46 -116.5
t14 -133.5q0 -74 -16 -139t-50 -115t-89 -78.5t-134 -28.5zM300 378q37 0 59.5 15t33.5 37.5t10 44.5q0 30 -13.5 50.5t-36.5 32.5t-52 12q-33 0 -56 -14t-35 -36t-12 -46q0 -39 26 -67.5t76 -28.5z" />
    <glyph glyph-name="zero.tf" horiz-adv-x="674" 
d="M335 -8q-79 0 -134 28t-89 78t-49 115t-15 138q0 76 16 142.5t50.5 116.5t89.5 78.5t134 28.5t134.5 -29t89 -80t49 -116t15.5 -138q0 -74 -15.5 -139t-49.5 -115.5t-89.5 -79t-136.5 -28.5zM335 141q45 0 71 22t38.5 55.5t16 70t3.5 65.5q0 28 -3 63.5t-15 69
t-37.5 55.5t-70.5 22q-44 0 -70 -21.5t-38.5 -55t-17 -69.5t-4.5 -64t3.5 -64.5t15.5 -70.5t37.5 -56t70.5 -22z" />
    <glyph glyph-name="one.tf" horiz-adv-x="674" 
d="M262 0v503h-137v124q42 0 75.5 7t60 25t46.5 49h117v-708h-162z" />
    <glyph glyph-name="two.tf" horiz-adv-x="674" 
d="M82 0v133l194 160q20 16 45.5 37t49.5 45t40 50t16 54q0 37 -23 61t-70 24t-71 -21.5t-29 -52.5h-153q5 77 42 127t94.5 75t121.5 25q68 0 124 -25.5t90 -74t34 -119.5q0 -60 -24 -109t-62 -90t-84 -76l-93 -74h259v-149h-501z" />
    <glyph glyph-name="three.tf" horiz-adv-x="674" 
d="M335 -7q-53 0 -101.5 13t-87.5 41.5t-64 72t-31 104.5h158q6 -27 24.5 -45t46 -26.5t60.5 -8.5q22 0 41.5 4t34 13t22.5 23t8 36q0 18 -6.5 31.5t-18 22t-28.5 13t-38 4.5h-87v137h60q23 0 40.5 5t29 14.5t17.5 22.5t6 28q0 24 -10.5 39t-30.5 22.5t-48 7.5t-50.5 -8.5
t-37 -23.5t-17.5 -36h-156q6 57 29.5 98t60.5 67.5t83 39.5t97 13q46 0 89 -10.5t77.5 -33.5t55 -60.5t20.5 -90.5q0 -30 -10 -57t-28 -48t-41 -34q36 -12 59 -38.5t35 -60.5t12 -72q0 -60 -22.5 -102t-61.5 -68t-88 -37.5t-103 -11.5z" />
    <glyph glyph-name="four.tf" horiz-adv-x="674" 
d="M392 0v127h-351v123l322 458h189v-434h79v-147h-79v-127h-160zM224 274h168v250z" />
    <glyph glyph-name="five.tf" horiz-adv-x="674" 
d="M331 -7q-51 0 -94.5 13t-78 40.5t-56.5 70.5t-29 101h158q5 -16 18 -34t35.5 -29t54.5 -11q34 0 56 12.5t33 34t11 47.5q0 43 -27.5 70t-79.5 27q-30 0 -56.5 -10.5t-51.5 -28.5h-132l6 412h480v-148h-327l-4 -117q32 20 70.5 27t73.5 6q70 -3 117 -31.5t71 -78
t24 -116.5q0 -83 -36 -141t-97.5 -87t-138.5 -29z" />
    <glyph glyph-name="six.tf" horiz-adv-x="674" 
d="M337 -8q-76 0 -130 28.5t-88 77t-49.5 111.5t-15.5 132q0 75 17 142.5t53.5 120t93 83t135.5 30.5q63 0 114.5 -22.5t85.5 -68t42 -115.5h-151q-10 26 -35.5 42.5t-62.5 16.5q-32 0 -55.5 -11.5t-41 -30t-28.5 -42.5t-16.5 -50t-5.5 -52q25 33 57 50.5t62.5 24t52.5 6.5
q72 0 122.5 -27.5t77.5 -78t27 -120.5q0 -76 -33 -131t-92 -85.5t-136 -30.5zM339 140q33 0 54 13.5t32 35t11 45.5q0 26 -11 47t-32 34t-53 13q-30 0 -54 -12.5t-37 -34t-13 -47.5q0 -24 12 -45.5t35 -35t56 -13.5z" />
    <glyph glyph-name="seven.tf" horiz-adv-x="674" 
d="M149 0l265 557h-326v151h511v-118l-269 -590h-181z" />
    <glyph glyph-name="eight.tf" horiz-adv-x="674" 
d="M334 -8q-50 0 -98 11.5t-86.5 38t-62 69t-23.5 102.5q0 38 11 69.5t32.5 56t50.5 40.5q-22 16 -38 38t-23.5 49t-7.5 57q0 53 21 90t57 60t80 33.5t90 10.5t90 -10.5t79.5 -34.5t56.5 -62t21 -93q0 -27 -8.5 -53.5t-25 -48t-38.5 -36.5q30 -15 51.5 -38.5t33 -56
t11.5 -73.5q0 -60 -23.5 -102t-63 -67.5t-88 -37.5t-99.5 -12zM335 137q23 0 42.5 5t35 16t24.5 26.5t9 37.5q0 26 -14 45t-38.5 29t-57.5 10t-58 -10t-39 -29t-14 -45q0 -22 9 -37.5t24.5 -26.5t35 -16t41.5 -5zM337 425q30 0 49 10t29 27t10 37q0 24 -11 41.5t-31.5 27
t-48.5 9.5t-48 -9.5t-29.5 -26t-9.5 -38.5t10.5 -40t31 -28t48.5 -10z" />
    <glyph glyph-name="nine.tf" horiz-adv-x="674" 
d="M332 -8q-64 0 -118 22t-90 67.5t-45 114.5h155q9 -26 37.5 -40.5t63.5 -14.5q37 0 63.5 14t42.5 37.5t23.5 52t8.5 57.5v8v9q-23 -31 -53.5 -46.5t-61.5 -22t-58 -6.5q-63 0 -114 27t-80 77.5t-29 121.5q0 82 37.5 137t98.5 82.5t131 27.5q78 0 131.5 -31t85 -83.5
t45.5 -117t14 -133.5q0 -73 -15.5 -138t-49.5 -115t-89 -78.5t-134 -28.5zM339 378q37 0 59.5 15t33 38t10.5 45q0 33 -16 53.5t-40.5 30.5t-48.5 10q-32 0 -54.5 -14t-34 -36t-11.5 -46q0 -39 25.5 -67.5t76.5 -28.5z" />
    <glyph glyph-name="uni00B2" unicode="&#xb2;" horiz-adv-x="386" 
d="M55 355v83l112 92q11 10 25 22t25.5 26t11.5 30q0 17 -10.5 25.5t-28.5 8.5q-20 0 -29 -10t-9 -28h-100q0 67 40 103t104 36q60 0 99 -32t39 -90q0 -38 -16 -66t-41 -51q-14 -14 -28.5 -26t-29.5 -24h111v-99h-275z" />
    <glyph glyph-name="uni00B3" unicode="&#xb3;" horiz-adv-x="415" 
d="M211 351q-44 0 -79.5 15.5t-56 45.5t-23.5 74h105q2 -19 16.5 -27t35.5 -8q15 0 30.5 6t15.5 24q0 13 -9.5 20.5t-19.5 7.5h-58v82h41q8 0 15.5 3t12.5 9t5 15q0 14 -11 20t-26 6q-17 0 -27.5 -7.5t-11.5 -22.5h-104q4 66 44.5 97.5t103.5 31.5q37 0 68.5 -10.5t51 -33.5
t19.5 -60q0 -23 -9 -43.5t-27 -32.5q28 -13 38.5 -37.5t10.5 -53.5q0 -41 -22.5 -68t-57 -40t-71.5 -13z" />
    <glyph glyph-name="space" unicode=" " horiz-adv-x="286" 
 />
    <glyph glyph-name="uni00A0" unicode="&#xa0;" horiz-adv-x="286" 
 />
    <glyph glyph-name="uni2009" unicode="&#x2009;" horiz-adv-x="134" 
 />
    <glyph glyph-name="uni202F" unicode="&#x202f;" horiz-adv-x="134" 
 />
    <glyph glyph-name="CR" unicode="&#xd;" horiz-adv-x="518" 
 />
    <glyph glyph-name="period" unicode="." horiz-adv-x="290" 
d="M145 -15q-38 0 -66 24t-28 70q0 47 28.5 73t66.5 26t65.5 -25.5t27.5 -72.5t-27.5 -71t-66.5 -24z" />
    <glyph glyph-name="comma" unicode="," horiz-adv-x="315" 
d="M97 -164l-46 71q16 7 36 22t37.5 33.5t22.5 32.5q-31 3 -56.5 25.5t-25.5 64.5q0 45 30 69t68 24q48 0 74 -35.5t26 -90.5q0 -52 -24.5 -96t-62 -75t-79.5 -45z" />
    <glyph glyph-name="colon" unicode=":" horiz-adv-x="295" 
d="M148 325q-39 0 -68 24t-29 70q0 32 14.5 54t36.5 33.5t47 11.5q38 0 66.5 -25.5t28.5 -72.5q0 -46 -29 -70.5t-67 -24.5zM148 -9q-39 0 -68 24.5t-29 70.5q0 31 14.5 53t36.5 34t47 12q38 0 66.5 -26t28.5 -73q0 -46 -29 -70.5t-67 -24.5z" />
    <glyph glyph-name="semicolon" unicode=";" horiz-adv-x="314" 
d="M97 -164l-46 71q16 7 36 22t37.5 33.5t22.5 32.5q-31 2 -56 25t-25 64q0 46 29.5 70t67.5 24q49 -1 74.5 -37t25.5 -90q-1 -52 -25 -96t-61.5 -74.5t-79.5 -44.5zM163 325q-38 0 -67 24t-29 70q0 32 14 54t36.5 33.5t47.5 11.5q38 0 66 -25.5t28 -72.5q0 -46 -28.5 -70.5
t-67.5 -24.5z" />
    <glyph glyph-name="ellipsis" unicode="&#x2026;" horiz-adv-x="783" 
d="M646 -9q-39 0 -68 24.5t-29 70.5q0 31 14.5 53t36.5 34t47 12q38 0 66.5 -26t28.5 -73q0 -46 -29 -70.5t-67 -24.5zM138 -9q-39 0 -68 24.5t-29 70.5q0 31 14.5 53t36.5 34t47 12q38 0 66.5 -26t28.5 -73q0 -46 -29 -70.5t-67 -24.5zM393 -9q-39 0 -67.5 24.5t-28.5 70.5
q0 31 14 53t36.5 34t47.5 12q38 0 66 -26t28 -73q0 -46 -28.5 -70.5t-67.5 -24.5z" />
    <glyph glyph-name="exclam" unicode="!" horiz-adv-x="315" 
d="M83 247l-11 461h173l-12 -461h-150zM158 -9q-23 0 -45.5 10.5t-37 31t-14.5 53.5q0 32 14.5 52.5t36.5 31t46 10.5q37 0 66.5 -23.5t29.5 -70.5q0 -33 -14.5 -53.5t-36.5 -31t-45 -10.5z" />
    <glyph glyph-name="exclamdown" unicode="&#xa1;" horiz-adv-x="315" 
d="M70 -180l12 461h150l11 -461h-173zM156 348q-42 0 -68.5 25.5t-26.5 67.5q0 43 27.5 69.5t69.5 26.5q40 0 68 -25.5t28 -68.5q0 -44 -28 -69.5t-70 -25.5z" />
    <glyph glyph-name="question" unicode="?" horiz-adv-x="535" 
d="M179 238q-1 7 -2 14.5t-1 15.5q0 29 9 52t24 41.5t32.5 34t33.5 29.5q17 14 30.5 28t22 28.5t8.5 29.5q0 18 -8.5 30.5t-25 19.5t-41.5 7q-28 0 -46.5 -8.5t-28 -24t-11.5 -36.5h-154q1 63 21.5 105t54.5 66.5t76.5 35.5t89.5 11q59 0 112.5 -20t87 -62t33.5 -112
q0 -37 -13 -65.5t-35.5 -54t-52.5 -53.5q-13 -12 -27 -26t-25 -30t-14 -38q-1 -3 -1 -8v-10h-149zM255 -9q-38 0 -67.5 24.5t-29.5 73.5q0 48 29.5 71t67.5 23t67 -23t29 -71q0 -49 -29 -73.5t-67 -24.5z" />
    <glyph glyph-name="questiondown" unicode="&#xbf;" horiz-adv-x="535" 
d="M357 291q2 -8 2.5 -15.5t0.5 -14.5q0 -29 -9 -52t-24 -41.5t-32.5 -34.5t-33.5 -30t-30 -27.5t-22.5 -28t-8.5 -30.5q0 -17 8.5 -29.5t25 -20t41.5 -7.5q28 0 46.5 9t28 25t11.5 35h154q-1 -62 -21.5 -104t-54.5 -67t-76.5 -35.5t-89.5 -10.5q-58 0 -112 19.5t-87.5 62.5
t-33.5 111q0 37 13 65.5t36 54.5t52 53q14 14 27.5 27t24.5 29.5t14 37.5q1 5 1 9v10h149zM281 537q38 0 67.5 -23.5t29.5 -73.5q0 -49 -29.5 -72t-67.5 -23q-37 0 -66.5 23t-29.5 72q0 50 29.5 73.5t66.5 23.5z" />
    <glyph glyph-name="periodcentered" unicode="&#xb7;" horiz-adv-x="296" 
d="M148 261q-43 0 -70 26t-27 67q0 43 28 70t70 27q40 0 68 -26t28 -70q0 -42 -27 -68t-70 -26z" />
    <glyph glyph-name="bullet" unicode="&#x2022;" horiz-adv-x="370" 
d="M185 223q-39 0 -71 17.5t-51.5 49t-19.5 73.5q0 65 40.5 103.5t100.5 38.5q41 0 73.5 -18t51 -50t18.5 -74q0 -63 -40.5 -101.5t-101.5 -38.5z" />
    <glyph glyph-name="asterisk" unicode="*" horiz-adv-x="479" 
d="M193 373l-111 82l71 70l-100 17l43 131l90 -46l-16 101h139l-16 -101l90 46l43 -131l-100 -17l71 -70l-111 -82l-46 90z" />
    <glyph glyph-name="numbersign" unicode="#" horiz-adv-x="691" 
d="M113 0l21 162h-91v141h107l12 101h-91v141h108l21 163h130l-19 -163h115l21 163h131l-21 -163h91v-141h-108l-12 -101h91v-141h-107l-21 -162h-130l19 162h-114l-20 -162h-133zM281 303h116l12 101h-115z" />
    <glyph glyph-name="slash" unicode="/" horiz-adv-x="524" 
d="M23 -162l321 945h157l-322 -945h-156z" />
    <glyph glyph-name="backslash" unicode="\" horiz-adv-x="524" 
d="M343 -162l-320 945h156l322 -945h-158z" />
    <glyph glyph-name="colon.case" horiz-adv-x="295" 
d="M148 408q-39 0 -68 24.5t-29 70.5q0 31 14.5 53t36.5 34t47 12q38 0 66.5 -26t28.5 -73q0 -46 -29 -70.5t-67 -24.5zM148 75q-39 0 -68 24t-29 70q0 32 14.5 53.5t36.5 33.5t47 12q38 0 66.5 -25.5t28.5 -72.5q0 -46 -29 -70.5t-67 -24.5z" />
    <glyph glyph-name="periodcentered.loclCAT" horiz-adv-x="290" 
d="M145 263q-38 0 -66 24t-28 70q0 47 28.5 73t66.5 26t65.5 -25.5t27.5 -72.5t-27.5 -71t-66.5 -24z" />
    <glyph glyph-name="period.tf" horiz-adv-x="338" 
d="M169 -15q-38 0 -66 24t-28 70q0 47 28.5 73t66.5 26t65.5 -25.5t27.5 -72.5t-27.5 -71t-66.5 -24z" />
    <glyph glyph-name="comma.tf" horiz-adv-x="356" 
d="M114 -164l-46 71q16 7 36 22t37.5 33.5t22.5 32.5q-31 2 -56.5 25t-25.5 64q0 46 30 69.5t68 23.5q48 0 74 -35t26 -88q0 -54 -24.5 -98.5t-62 -75t-79.5 -44.5z" />
    <glyph glyph-name="colon.tf" horiz-adv-x="343" 
d="M172 325q-39 0 -68 24t-29 70q0 32 14.5 54t36.5 33.5t47 11.5q38 0 66.5 -25.5t28.5 -72.5q0 -46 -28.5 -70.5t-67.5 -24.5zM172 -9q-39 0 -68 24.5t-29 70.5q0 31 14.5 53t36.5 34t47 12q38 0 66.5 -26t28.5 -73q0 -46 -28.5 -70.5t-67.5 -24.5z" />
    <glyph glyph-name="semicolon.tf" horiz-adv-x="356" 
d="M115 -164l-46 71q16 7 36 22t37.5 33.5t22.5 32.5q-31 3 -56 25.5t-25 64.5q0 45 29.5 69t67.5 24q48 0 74 -35.5t26 -88.5q0 -54 -24.5 -98t-62 -75t-79.5 -45zM181 325q-38 0 -67 24t-29 70q0 32 14 54t36.5 33.5t47.5 11.5q38 0 66 -25.5t28 -72.5q0 -46 -28.5 -70.5
t-67.5 -24.5z" />
    <glyph glyph-name="periodcentered.loclCAT.case" horiz-adv-x="290" 
d="M145 298q-38 0 -66 24t-28 70q0 47 28.5 73t66.5 26t65.5 -25.5t27.5 -72.5t-27.5 -71t-66.5 -24z" />
    <glyph glyph-name="colon.case.tf" horiz-adv-x="343" 
d="M172 408q-39 0 -68 24.5t-29 70.5q0 31 14.5 53t36.5 34t47 12q38 0 66.5 -26t28.5 -73q0 -46 -28.5 -70.5t-67.5 -24.5zM172 75q-39 0 -68 24t-29 70q0 32 14.5 53.5t36.5 33.5t47 12q38 0 66.5 -25.5t28.5 -72.5q0 -46 -28.5 -70.5t-67.5 -24.5z" />
    <glyph glyph-name="hyphen" unicode="-" horiz-adv-x="467" 
d="M58 221v142h351v-142h-351z" />
    <glyph glyph-name="endash" unicode="&#x2013;" horiz-adv-x="624" 
d="M58 221v142h508v-142h-508z" />
    <glyph glyph-name="emdash" unicode="&#x2014;" horiz-adv-x="835" 
d="M58 221v142h719v-142h-719z" />
    <glyph glyph-name="underscore" unicode="_" horiz-adv-x="438" 
d="M-19 -164v139h476v-139h-476z" />
    <glyph glyph-name="hyphen.case" horiz-adv-x="464" 
d="M58 283v141h348v-141h-348z" />
    <glyph glyph-name="endash.case" horiz-adv-x="620" 
d="M58 283v141h504v-141h-504z" />
    <glyph glyph-name="emdash.case" horiz-adv-x="829" 
d="M58 283v141h713v-141h-713z" />
    <glyph glyph-name="parenleft" unicode="(" horiz-adv-x="369" 
d="M219 -188q-57 73 -94.5 154.5t-56.5 168.5t-19 173q0 88 19 174.5t57 168.5t95 155h195q-69 -74 -114.5 -157t-68.5 -169.5t-23 -171.5q0 -84 23 -170.5t68.5 -169t113.5 -156.5h-195z" />
    <glyph glyph-name="parenright" unicode=")" horiz-adv-x="369" 
d="M150 -188h-195q69 74 114.5 156.5t68 169t22.5 170.5q0 85 -22 171.5t-68 169.5t-115 157h195q58 -73 95.5 -155t56.5 -168.5t19 -174.5q0 -86 -19 -173t-56.5 -168.5t-95.5 -154.5z" />
    <glyph glyph-name="braceleft" unicode="{" horiz-adv-x="408" 
d="M254 -164q-64 0 -105 29.5t-41 104.5v196q0 31 -7.5 46.5t-26 21.5t-53.5 6v137q35 0 53.5 6t26 22t7.5 46v196q0 75 41 104.5t105 29.5h111v-139h-67q-21 0 -28.5 -8t-8.5 -19t-1 -23v-165q0 -40 -10.5 -69.5t-34.5 -49.5q16 -12 26 -30t14.5 -39.5t4.5 -48.5v-166
q0 -10 1 -21.5t8.5 -19.5t28.5 -8h67v-139h-111z" />
    <glyph glyph-name="braceright" unicode="}" horiz-adv-x="408" 
d="M155 -164h-111v139h67q21 0 28.5 8t8.5 19.5t1 21.5v166q0 27 4.5 48.5t15 39.5t25.5 30q-24 20 -34.5 49.5t-10.5 69.5v165q0 12 -1 23t-8.5 19t-28.5 8h-67v139h111q64 0 105 -29.5t41 -104.5v-196q0 -30 7.5 -46t26.5 -22t53 -6v-137q-34 0 -53 -6t-26.5 -21.5
t-7.5 -46.5v-196q0 -75 -41 -104.5t-105 -29.5z" />
    <glyph glyph-name="bracketleft" unicode="[" horiz-adv-x="363" 
d="M71 -165v946h273v-139h-120v-668h120v-139h-273z" />
    <glyph glyph-name="bracketright" unicode="]" horiz-adv-x="364" 
d="M19 -165v139h121v668h-121v139h274v-946h-274z" />
    <glyph glyph-name="quotesinglbase" unicode="&#x201a;" horiz-adv-x="306" 
d="M95 -164l-44 68q15 7 34.5 21.5t36 32t21.5 30.5q-31 3 -54.5 25t-23.5 62q0 45 28.5 67t64.5 22q48 0 72 -35t24 -83q0 -51 -23 -94t-59.5 -73t-76.5 -43z" />
    <glyph glyph-name="quotedblbase" unicode="&#x201e;" horiz-adv-x="549" 
d="M338 -164l-44 68q15 7 34.5 21.5t36.5 32t22 30.5q-31 3 -54.5 25t-23.5 62q0 45 28 67t65 22q48 0 71.5 -35t23.5 -85t-23 -93t-59.5 -72.5t-76.5 -42.5zM95 -164l-44 68q15 7 34.5 21.5t36 32t21.5 30.5q-31 3 -54.5 25t-23.5 62q0 45 28.5 67t64.5 22q48 0 72 -35
t24 -85t-23.5 -93t-59.5 -72.5t-76 -42.5z" />
    <glyph glyph-name="quotedblleft" unicode="&#x201c;" horiz-adv-x="549" 
d="M391 442q-48 1 -72 35.5t-24 82.5q0 53 23.5 95.5t59.5 72t76 43.5l44 -69q-14 -6 -33.5 -21t-36 -32t-22.5 -31q21 -2 38.5 -12t28.5 -29t11 -46q0 -44 -28 -66.5t-65 -22.5zM148 442q-48 0 -72 35t-24 83q0 53 23.5 95.5t59.5 72t76 43.5l44 -69q-15 -6 -34 -21
t-36 -32t-22 -31q21 -2 38.5 -12t28.5 -29t11 -46q0 -44 -28.5 -66.5t-64.5 -22.5z" />
    <glyph glyph-name="quotedblright" unicode="&#x201d;" horiz-adv-x="549" 
d="M338 416l-44 69q15 6 34.5 21t36.5 32.5t22 30.5q-31 3 -54.5 25t-23.5 62q0 44 28 66.5t65 22.5q48 0 71.5 -35t23.5 -83q0 -52 -23 -94.5t-59.5 -72.5t-76.5 -44zM95 416l-44 69q15 6 34.5 21t36 32.5t21.5 30.5q-31 3 -54.5 25t-23.5 62q0 44 28.5 66.5t65.5 22.5
q48 0 71.5 -35t23.5 -83q0 -52 -23.5 -94.5t-59.5 -72.5t-76 -44z" />
    <glyph glyph-name="quoteleft" unicode="&#x2018;" horiz-adv-x="306" 
d="M148 442q-48 0 -72 35t-24 83q0 53 23.5 95t59.5 72t76 44l44 -69q-15 -6 -34 -21t-36 -32t-22 -31q21 -2 38.5 -12t28.5 -29t11 -46q0 -44 -28.5 -66.5t-64.5 -22.5z" />
    <glyph glyph-name="quoteright" unicode="&#x2019;" horiz-adv-x="306" 
d="M95 416l-44 69q15 6 34.5 21t36 32.5t21.5 30.5q-31 3 -54.5 25t-23.5 62q0 44 28.5 66.5t64.5 22.5q49 0 72.5 -35t23.5 -83q0 -52 -23.5 -94.5t-59.5 -72.5t-76 -44z" />
    <glyph glyph-name="guillemotleft" unicode="&#xab;" horiz-adv-x="593" 
d="M161 79l-138 195l138 195h146l-140 -195l140 -195h-146zM404 79l-136 195l136 195h146l-138 -195l138 -195h-146z" />
    <glyph glyph-name="guillemotright" unicode="&#xbb;" horiz-adv-x="593" 
d="M287 79l139 195l-139 195h145l138 -195l-138 -195h-145zM43 79l140 195l-140 195h144l137 -195l-137 -195h-144z" />
    <glyph glyph-name="guilsinglleft" unicode="&#x2039;" horiz-adv-x="367" 
d="M160 79l-137 195l137 195h164l-139 -195l139 -195h-164z" />
    <glyph glyph-name="guilsinglright" unicode="&#x203a;" horiz-adv-x="368" 
d="M43 79l141 195l-141 195h165l137 -195l-137 -195h-165z" />
    <glyph glyph-name="quotedbl" unicode="&#x22;" horiz-adv-x="429" 
d="M262 423l-24 285h148l-29 -285h-95zM66 423l-23 285h148l-30 -285h-95z" />
    <glyph glyph-name="quotesingle" unicode="'" horiz-adv-x="255" 
d="M79 423l-28 285h153l-30 -285h-95z" />
    <glyph glyph-name="quotesinglbase.tf" horiz-adv-x="347" 
d="M112 -164l-44 68q15 7 34.5 21.5t36 32t21.5 30.5q-31 3 -54.5 25t-23.5 62q0 45 28.5 67t64.5 22q47 0 71.5 -34.5t24.5 -84.5t-23.5 -93t-59.5 -73t-76 -43z" />
    <glyph glyph-name="quotedblbase.tf" horiz-adv-x="486" 
d="M305 -164l-44 68q14 7 34 21.5t36.5 32.5t21.5 30q-31 3 -54.5 25.5t-23.5 61.5q0 45 28.5 67t63.5 22q48 0 72 -34t24 -84q0 -51 -23 -94t-59.5 -73t-75.5 -43zM66 -164l-44 68q15 7 34.5 21.5t36 32.5t21.5 30q-31 3 -54.5 25.5t-23.5 61.5q0 45 28.5 67t64.5 22
q47 0 71.5 -34t24.5 -84q0 -51 -23.5 -94t-59.5 -73t-76 -43z" />
    <glyph glyph-name="quotedblleft.tf" horiz-adv-x="486" 
d="M357 443q-48 0 -72 34t-24 84q0 52 23 94t59.5 72t75.5 44l44 -68q-13 -7 -33 -22t-36.5 -31.5t-22.5 -31.5q21 -2 38.5 -12t28.5 -29t11 -45q0 -45 -28.5 -67t-63.5 -22zM118 443q-47 0 -71.5 34t-24.5 84q0 52 23.5 94t59.5 72t76 44l44 -68q-14 -7 -33.5 -22
t-36.5 -31.5t-22 -31.5q21 -2 38.5 -12t28.5 -29t11 -45q0 -45 -28.5 -67t-64.5 -22z" />
    <glyph glyph-name="quotedblright.tf" horiz-adv-x="486" 
d="M305 417l-44 68q14 7 34 21.5t36.5 32t21.5 30.5q-31 3 -54.5 25t-23.5 62q0 45 28.5 67t63.5 22q48 0 72 -34.5t24 -84.5t-23 -93t-59.5 -73t-75.5 -43zM66 417l-44 68q15 7 34.5 21.5t36 32t21.5 30.5q-31 3 -54.5 25t-23.5 62q0 45 28.5 67t64.5 22q47 0 71.5 -34.5
t24.5 -84.5t-23.5 -93t-59.5 -73t-76 -43z" />
    <glyph glyph-name="quoteleft.tf" horiz-adv-x="347" 
d="M165 442q-47 0 -71.5 34.5t-24.5 83.5q0 52 23 94.5t59.5 72.5t76.5 43l44 -68q-14 -6 -33.5 -21t-36.5 -32t-22 -31q21 -2 38.5 -12.5t28.5 -29t11 -45.5q0 -45 -28.5 -67t-64.5 -22z" />
    <glyph glyph-name="quoteright.tf" horiz-adv-x="346" 
d="M112 417l-44 68q15 7 34.5 21.5t36 32t21.5 30.5q-31 3 -54.5 25t-23.5 62q0 45 28.5 67t64.5 22q47 0 71.5 -34.5t24.5 -84.5t-23.5 -93t-59.5 -73t-76 -43z" />
    <glyph glyph-name="quotedbl.tf" horiz-adv-x="442" 
d="M268 423l-24 285h148l-29 -285h-95zM73 423l-23 285h148l-30 -285h-95z" />
    <glyph glyph-name="quotesingle.tf" horiz-adv-x="335" 
d="M119 423l-28 285h153l-30 -285h-95z" />
    <glyph glyph-name="uni2713" unicode="&#x2713;" horiz-adv-x="1088" 
d="M400 -15l-357 387l107 105l247 -265l535 615l113 -101z" />
    <glyph glyph-name="at" unicode="@" horiz-adv-x="997" 
d="M468 -162q-89 1 -164.5 28.5t-132 81t-87 131t-30.5 176.5q0 110 34.5 197t97.5 147.5t151 92t196 30.5q93 0 169 -27.5t130.5 -80t83.5 -129.5t28 -176q0 -50 -11.5 -97.5t-35 -86.5t-60 -61.5t-86.5 -22.5q-49 0 -87 24.5t-49 69.5q-15 -30 -39.5 -49.5t-54.5 -29
t-63 -9.5q-60 0 -101 29.5t-61 80t-20 112.5q0 49 14.5 93.5t43 78.5t69 54.5t92.5 20.5q27 0 52 -7t45.5 -23.5t29.5 -46.5l21 50l89 -10q-14 -72 -24 -133t-11 -101q0 -19 2.5 -37t12.5 -29t30 -11q26 0 41 18t21.5 43t8.5 47t2 32q0 63 -17 114.5t-52.5 89t-90.5 58
t-133 20.5q-80 0 -141.5 -25t-103.5 -70t-63.5 -104.5t-21.5 -127.5q0 -82 32.5 -147.5t95.5 -104t156 -38.5q27 0 48 1.5t40 4.5t39 8l19 -130q-41 -10 -77 -14.5t-77 -4.5zM489 172q35 0 54.5 18.5t28 45.5t10.5 52q2 22 -6.5 45t-27.5 39.5t-51 16.5t-53.5 -17.5
t-31.5 -44.5t-10 -56q0 -18 5 -36t15.5 -32.5t27 -22.5t39.5 -8z" />
    <glyph glyph-name="ampersand" unicode="&#x26;" horiz-adv-x="731" 
d="M287 -8q-44 0 -86 11t-76 34.5t-54 61.5t-20 92q0 46 15 81t41 62.5t59 48.5q-26 26 -42 66t-16 76q0 61 28.5 104t76 65.5t106.5 22.5q52 0 97.5 -19.5t73.5 -58.5t28 -98q0 -45 -18 -79.5t-47 -60.5t-62 -47l88 -97q12 18 18.5 45t7.5 45h133q-7 -58 -21.5 -103.5
t-38.5 -83.5l145 -160h-196l-50 51q-41 -33 -92 -46t-98 -13zM291 127q22 0 50 6t46 22l-126 136q-26 -16 -39.5 -31.5t-18 -30t-4.5 -28.5q0 -25 13.5 -42t35 -24.5t43.5 -7.5zM296 443q25 13 42.5 26t27.5 28.5t10 34.5q0 11 -6 24t-19 22.5t-36 9.5q-36 0 -50.5 -20
t-14.5 -41q0 -16 5.5 -30.5t16.5 -27.5t24 -26z" />
    <glyph glyph-name="paragraph" unicode="&#xb6;" horiz-adv-x="762" 
d="M226 0v315h-14q-48 0 -95 20.5t-77 64t-30 112.5q0 65 29 108.5t74.5 65.5t92.5 22h546v-150h-101v-558h-162v558h-101v-558h-162z" />
    <glyph glyph-name="section" unicode="&#xa7;" horiz-adv-x="575" 
d="M294 -8q-45 0 -88 9t-78.5 29t-58 54t-26.5 86h165q5 -18 18.5 -31t31.5 -19.5t37 -6.5t33.5 4t23.5 12.5t9 22.5q0 12 -5 19t-14 11t-21 6q-31 6 -68.5 13t-73 18t-60.5 27q-32 21 -47.5 49t-15.5 61q0 34 15.5 62t44.5 42q-27 17 -40 45.5t-13 57.5q0 46 21.5 75.5
t55 46.5t73.5 24t76 7q59 0 109 -16t83 -52.5t38 -96.5h-163q-3 17 -13 27t-24 14.5t-30 4.5t-30 -3.5t-23 -11.5t-9 -22q0 -15 13.5 -24.5t30.5 -13.5t29 -6l52 -10t51 -10.5t48 -15.5q43 -16 61 -45t18 -67q0 -33 -13 -62.5t-35 -45.5q26 -20 36 -47.5t10 -54.5
q0 -45 -20.5 -76.5t-54 -51.5t-75 -29t-84.5 -9zM358 304q6 4 10 11.5t6.5 15.5t2.5 14q0 21 -18 30t-37 14q-23 6 -47 12t-47 9q-9 -6 -13.5 -17t-4.5 -21q0 -11 4.5 -19.5t15.5 -14.5t27 -11q18 -5 49 -12t52 -11z" />
    <glyph glyph-name="copyright" unicode="&#xa9;" horiz-adv-x="917" 
d="M457 -92q-124 0 -217 48.5t-145 139.5t-52 218q0 128 52.5 220t145.5 142.5t213 50.5q124 0 218.5 -51.5t148 -145.5t53.5 -220t-53 -216.5t-146.5 -138t-217.5 -47.5zM462 29q94 0 158.5 36.5t98 101t33.5 147.5t-33 148.5t-97 103.5t-157 38t-159 -38t-101.5 -104
t-35.5 -149q0 -81 34 -145.5t99.5 -101.5t159.5 -37zM468 107q-63 0 -110 23.5t-73 69.5t-26 115q0 70 28 117.5t76 71.5t108 24q76 0 127.5 -38.5t62.5 -126.5h-130q-2 25 -21 36.5t-44 11.5q-32 0 -48.5 -15t-22.5 -36.5t-6 -44.5q0 -20 5.5 -41t21.5 -35.5t48 -14.5
q28 0 46.5 12t21.5 34h130q-8 -59 -35 -95t-68 -52t-91 -16z" />
    <glyph glyph-name="registered" unicode="&#xae;" horiz-adv-x="493" 
d="M246 336q-60 0 -107.5 23t-75 67.5t-27.5 107.5q0 64 27.5 109.5t75 70t109.5 24.5t109 -24.5t73.5 -70t26.5 -108.5t-27 -107.5t-74.5 -68t-109.5 -23.5zM247 402q61 0 100.5 34t39.5 101q0 65 -38 100t-101 35q-62 0 -102 -35.5t-40 -101.5q0 -65 40 -99t101 -34z
M171 441v201h85q35 0 58.5 -16t23.5 -51q0 -21 -9 -37.5t-27 -24.5l46 -72h-68l-36 63h-13v-63h-60zM231 553h27q9 0 15.5 5.5t6.5 15.5q0 11 -6.5 14.5t-17.5 3.5h-25v-39z" />
    <glyph glyph-name="uni2117" unicode="&#x2117;" horiz-adv-x="917" 
d="M459 -89q-88 0 -164 27t-132.5 78.5t-88 126t-31.5 170.5t32 172t89 129.5t131.5 81.5t159.5 28q87 0 162.5 -29t133.5 -82.5t90.5 -130t32.5 -172.5q0 -94 -31 -168t-87 -125.5t-132 -78.5t-165 -27zM465 34q94 0 157 35.5t95 98t32 143.5q0 84 -33.5 149t-96.5 102
t-156 37q-91 0 -155.5 -36t-99.5 -100.5t-35 -148.5q0 -83 34 -146t99 -98.5t159 -35.5zM320 92v441h170q50 0 90 -14.5t63 -48.5t23 -93q0 -54 -23 -90.5t-62.5 -54t-89.5 -17.5l-57 1v-124h-114zM434 314h54q23 0 37.5 8.5t22 23t6.5 31.5q-1 22 -16 37.5t-50 15.5h-54
v-116z" />
    <glyph glyph-name="trademark" unicode="&#x2122;" horiz-adv-x="774" 
d="M369 386v322h114l69 -114l67 114h112v-322h-98v162l-72 -111h-19l-73 111v-162h-100zM129 386v206h-86v116h289v-116h-86v-206h-117z" />
    <glyph glyph-name="degree" unicode="&#xb0;" horiz-adv-x="420" 
d="M209 446q-44 0 -82 17.5t-61 52.5t-23 86q0 52 23.5 88.5t62 56.5t83.5 20q44 0 81.5 -19.5t60.5 -56t23 -88.5q0 -51 -23 -86t-61 -53t-84 -18zM211 551q25 0 40.5 14.5t15.5 38.5q0 25 -16 40t-39 15q-24 0 -40 -15t-16 -40q0 -24 16 -38.5t39 -14.5z" />
    <glyph glyph-name="bar" unicode="|" horiz-adv-x="291" 
d="M71 -164v959h149v-959h-149z" />
    <glyph glyph-name="uni2116" unicode="&#x2116;" horiz-adv-x="1099" 
d="M43 0v708h156l265 -412v412h162v-708h-152l-271 410v-410h-160zM713 200v128h327v-128h-327zM876 360q-49 0 -90 21.5t-65 61t-24 94.5q0 54 23.5 93t64.5 61t93 22q53 0 92.5 -22t62.5 -61.5t23 -92.5q0 -55 -24.5 -94.5t-65 -61t-90.5 -21.5zM876 479q23 0 35 10
t16.5 23.5t4.5 23.5q0 11 -4.5 24.5t-16.5 23.5t-35 10q-22 0 -34.5 -10t-17 -23.5t-4.5 -24.5q0 -10 4.5 -23.5t17 -23.5t34.5 -10z" />
    <glyph glyph-name="cent" unicode="&#xa2;" horiz-adv-x="603" 
d="M233 -144v144q-63 14 -105.5 48.5t-63.5 88.5t-21 122q0 74 23 131.5t66 94t100 46.5v150h147v-148q72 -10 120 -61.5t54 -139.5h-154q-7 31 -32 49t-60 18q-40 0 -64 -21t-33.5 -52t-9.5 -62q0 -32 11 -61.5t34.5 -48.5t61.5 -19q35 0 61 17.5t31 46.5h161
q-7 -83 -56.5 -134.5t-123.5 -64.5v-144h-147z" />
    <glyph glyph-name="dollar" unicode="$" horiz-adv-x="666" 
d="M261 -143v145q-56 11 -103 38.5t-77.5 74t-37.5 113.5h163q9 -31 30.5 -50.5t52 -28t64.5 -8.5q30 0 54 7t38 21t14 35q0 20 -11.5 32t-30.5 19t-41 13q-44 11 -77 18.5t-60 15.5t-51 18q-56 25 -89 66.5t-33 121.5q0 63 28 105.5t74 67t98 29.5v144h146v-146
q55 -7 98 -35t69 -73.5t27 -107.5h-158q-3 25 -18.5 42t-41.5 26.5t-60 9.5q-25 0 -48.5 -5.5t-38 -18.5t-14.5 -36q0 -17 10 -30t28 -21.5t42 -15.5q25 -8 57 -15t58 -14q60 -15 105 -34.5t70 -56t25 -101.5q0 -70 -28.5 -117t-77 -73t-108.5 -33v-142h-147z" />
    <glyph glyph-name="Euro" unicode="&#x20ac;" horiz-adv-x="739" 
d="M464 -8q-71 0 -135.5 23.5t-111 71t-64.5 120.5h-120l26 123h77v17.5v16v16.5h-97l25 123h92q39 105 121.5 159t188.5 55q69 0 125 -16.5t105 -65.5l-77 -108q-19 20 -53 35.5t-85 15.5q-36 0 -67.5 -10t-54.5 -26.5t-34 -38.5h237l-23 -123h-247q0 -7 -0.5 -15.5
t-0.5 -17.5v-17h242l-24 -123h-181q22 -33 61 -51.5t86 -18.5q44 0 82.5 13.5t66.5 42.5l82 -109q-47 -50 -107.5 -71t-134.5 -21z" />
    <glyph glyph-name="uni20B4" unicode="&#x20b4;" horiz-adv-x="613" 
d="M300 -7q-38 0 -78 8t-74.5 27.5t-56.5 52t-22 80.5q0 19 4 36t10 29h-52v102h138l63 43h-201v103h337q15 8 22 21t7 25q0 16 -9 27t-27 17t-44 6q-22 0 -40.5 -5.5t-31 -17t-16.5 -30.5h-159q3 59 26.5 97.5t61 61.5t80.5 32t85 9q38 0 79 -8t75.5 -27t55.5 -52t21 -82
q0 -14 -2 -27.5t-6 -25t-10 -20.5h46v-104h-129l-66 -43h195v-102h-338q-9 -7 -13 -16.5t-4 -19.5q0 -16 10.5 -27t29 -17.5t44.5 -6.5t43.5 6t29 17t16.5 26h156q-2 -56 -24 -93.5t-58.5 -60t-81 -32t-92.5 -9.5z" />
    <glyph glyph-name="uni20BD" unicode="&#x20bd;" horiz-adv-x="694" 
d="M126 0v76h-83v125h83v53h-83v131h83v323h256q57 0 107.5 -11.5t89.5 -37.5t60.5 -69.5t21.5 -109.5q0 -83 -36 -132.5t-95 -71.5t-130 -22h-111v-53h210v-125h-210v-76h-163zM289 385h90q37 0 64 9t42 28.5t15 51.5q0 46 -29.5 65t-87.5 19h-94v-173z" />
    <glyph glyph-name="sterling" unicode="&#xa3;" horiz-adv-x="623" 
d="M44 0v149h81v118h-82v143h82v93q0 74 32 121t85.5 70t117.5 23q91 0 149.5 -49t62.5 -159h-147q0 17 -6 33.5t-20 27.5t-39 11q-26 0 -43 -10.5t-25 -27.5t-8 -37v-96h206v-143h-206v-118h296v-149h-536z" />
    <glyph glyph-name="yen" unicode="&#xa5;" horiz-adv-x="750" 
d="M295 0v79h-153v121h153v42h-153v123h92l-211 343h187l167 -297l163 297h187l-212 -343h94v-123h-152v-42h152v-121h-152v-79h-162z" />
    <glyph glyph-name="plus" unicode="+" horiz-adv-x="606" 
d="M233 122v167h-161v141h161v165h141v-165h161v-141h-161v-167h-141z" />
    <glyph glyph-name="minus" unicode="&#x2212;" horiz-adv-x="606" 
d="M76 289v141h454v-141h-454z" />
    <glyph glyph-name="multiply" unicode="&#xd7;" horiz-adv-x="606" 
d="M150 110l-98 98l154 151l-154 151l99 96l153 -153l150 153l100 -95l-154 -152l155 -150l-99 -99l-152 156z" />
    <glyph glyph-name="divide" unicode="&#xf7;" horiz-adv-x="606" 
d="M71 292v138h464v-138h-464zM301 59q-39 0 -67.5 24t-28.5 70q0 32 14 54t36.5 34t47.5 12q38 0 66 -26t28 -73q0 -46 -28.5 -70.5t-67.5 -24.5zM301 467q-39 0 -67.5 24t-28.5 70q0 32 14 54t36.5 33.5t47.5 11.5q38 0 66 -25.5t28 -72.5q0 -46 -28.5 -70.5t-67.5 -24.5z
" />
    <glyph glyph-name="equal" unicode="=" horiz-adv-x="606" 
d="M71 406v141h464v-141h-464zM71 146v142h464v-142h-464z" />
    <glyph glyph-name="notequal" unicode="&#x2260;" horiz-adv-x="606" 
d="M71 0l67 147h-67v142h133l53 114h-186v141h251l66 145h147l-66 -145h66v-141h-132l-52 -114h184v-142h-249l-67 -147h-148z" />
    <glyph glyph-name="greater" unicode="&#x3e;" horiz-adv-x="606" 
d="M96 70v162l215 125l-215 126v164l414 -245v-83z" />
    <glyph glyph-name="less" unicode="&#x3c;" horiz-adv-x="606" 
d="M510 69l-414 246v83l414 248v-161l-214 -124l214 -127v-165z" />
    <glyph glyph-name="greaterequal" unicode="&#x2265;" horiz-adv-x="606" 
d="M93 181v155l194 73l-194 73v157l420 -177v-101zM93 27v142h420v-142h-420z" />
    <glyph glyph-name="lessequal" unicode="&#x2264;" horiz-adv-x="606" 
d="M513 181l-420 177v101l420 180v-155l-194 -73l194 -73v-157zM93 27v142h420v-142h-420z" />
    <glyph glyph-name="plusminus" unicode="&#xb1;" horiz-adv-x="606" 
d="M233 218v126h-161v142h161v164h141v-164h161v-142h-161v-126h-141zM72 27v142h463v-142h-463z" />
    <glyph glyph-name="approxequal" unicode="&#x2248;" horiz-adv-x="606" 
d="M406 360q-33 0 -60.5 12.5t-50.5 29t-43.5 29t-40.5 12.5q-19 0 -28 -11t-10.5 -26t0.5 -29h-130q-5 38 0.5 75t23.5 68t51 49t82 18q33 0 61 -12t51 -28.5t44 -29t40 -12.5q20 0 28.5 10.5t10 26t-0.5 28.5h130q4 -37 -1.5 -74.5t-23 -68.5t-50 -49t-83.5 -18zM406 113
q-33 0 -60.5 12.5t-50.5 28.5t-43.5 28.5t-40.5 12.5q-19 0 -28 -10.5t-11 -25.5t1 -29h-130q-5 38 0.5 75t23.5 68t51 49t82 18q34 0 61.5 -12.5t50.5 -29t43.5 -29t40.5 -12.5q19 0 28 11t10.5 26t-0.5 29h130q4 -38 -1.5 -75t-23 -68t-50 -49t-83.5 -18z" />
    <glyph glyph-name="asciitilde" unicode="~" horiz-adv-x="606" 
d="M421 233q-52 0 -87.5 23t-60.5 44q-12 11 -26 21t-30 10q-21 0 -31 -17t-12 -39t1 -35h-139q-5 43 1.5 86t25.5 78.5t53.5 57t86.5 21.5q49 0 78.5 -19t52.5 -40q13 -10 28.5 -21.5t32.5 -11.5t27 12t13 31t0 40h137q4 -72 -8.5 -119t-35.5 -73.5t-51.5 -37.5t-55.5 -11z
" />
    <glyph glyph-name="asciicircum" unicode="^" horiz-adv-x="606" 
d="M66 446l181 264h106l187 -264h-152l-85 136l-87 -136h-150z" />
    <glyph glyph-name="percent" unicode="%" horiz-adv-x="914" 
d="M140 0l469 708h163l-466 -708h-166zM692 -8q-52 0 -92.5 22t-64 62.5t-23.5 95.5t24 96t65 63t94 22q51 0 90.5 -21.5t62.5 -61t23 -96.5t-23.5 -97.5t-64 -62.5t-91.5 -22zM692 109q21 0 34.5 9t19.5 23t6 30t-6.5 30t-19.5 23.5t-34 9.5q-33 0 -48 -20t-14 -45
q1 -23 15.5 -41.5t46.5 -18.5zM222 356q-53 0 -93 22t-63 62.5t-23 94.5q0 56 23.5 97t64.5 63t93 22t91.5 -21.5t62 -61t22.5 -96.5q0 -56 -23 -97t-63 -63t-92 -22zM222 474q21 0 34.5 8.5t19.5 23t6 30.5q0 15 -6.5 29.5t-19.5 23.5t-34 9q-33 0 -48 -20t-14 -44
q1 -23 15.5 -41.5t46.5 -18.5z" />
    <glyph glyph-name="arrowup" unicode="&#x2191;" horiz-adv-x="759" 
d="M311 0v412l-158 -187l-110 97l336 357l337 -357l-110 -97l-157 187v-412h-138z" />
    <glyph glyph-name="uni2197" unicode="&#x2197;" horiz-adv-x="759" 
d="M188 50l-97 97l290 292l-242 -21l-10 146l489 15l-13 -491l-146 10l20 243z" />
    <glyph glyph-name="arrowright" unicode="&#x2192;" horiz-adv-x="759" 
d="M361 3l-97 109l187 158h-412v138h412l-187 157l97 110l357 -336z" />
    <glyph glyph-name="uni2198" unicode="&#x2198;" horiz-adv-x="759" 
d="M619 100l-491 14l9 146l244 -21l-292 291l98 98l291 -291l-21 243l147 10z" />
    <glyph glyph-name="arrowdown" unicode="&#x2193;" horiz-adv-x="759" 
d="M379 -4l-336 357l111 97l157 -187v416h138v-416l157 187l110 -97z" />
    <glyph glyph-name="uni2199" unicode="&#x2199;" horiz-adv-x="759" 
d="M139 100l14 490l146 -9l-20 -243l290 291l98 -98l-291 -291l243 21l10 -147z" />
    <glyph glyph-name="arrowleft" unicode="&#x2190;" horiz-adv-x="759" 
d="M397 3l-358 336l358 337l96 -110l-186 -157h411v-138h-411l186 -157z" />
    <glyph glyph-name="uni2196" unicode="&#x2196;" horiz-adv-x="759" 
d="M571 51l-292 291l22 -243l-147 -10l-15 490l491 -14l-9 -146l-244 21l291 -291z" />
    <glyph glyph-name="uni21A9" unicode="&#x21a9;" horiz-adv-x="1180" 
d="M416 -260l-373 331l372 330l87 -110l-178 -150h457q62 0 109 24.5t73 69.5t26 104q0 61 -26.5 104.5t-74 67.5t-107.5 24h-610v142h629q74 0 135.5 -25.5t107 -71t70 -107t24.5 -134.5q0 -72 -24.5 -134.5t-70 -108t-107 -71t-135.5 -25.5h-477l179 -152z" />
    <glyph glyph-name="uni21B6" unicode="&#x21b6;" horiz-adv-x="1033" 
d="M416 -31l-373 138l48 133l160 -66q-19 27 -31.5 59t-18.5 67.5t-5 70.5q3 110 53 192t136.5 126.5t201.5 44.5q113 0 202.5 -46t143 -133.5t57.5 -214.5h-146q-3 76 -35 132.5t-87.5 87t-131.5 30.5q-82 0 -137.5 -33t-84 -86.5t-28.5 -114.5q0 -24 4.5 -48.5t12.5 -47
t19 -41.5l60 168l134 -55z" />
    <glyph glyph-name="uni21B7" unicode="&#x21b7;" horiz-adv-x="1033" 
d="M616 -31l-154 365l134 55l61 -178q11 20 19 44t12.5 50.5t4.5 50.5q0 61 -28.5 114.5t-83.5 86.5t-137 33q-76 0 -132 -30.5t-88 -87t-35 -132.5h-146q4 127 57.5 214.5t143 133.5t202.5 46q115 0 201.5 -45t136 -127t52.5 -193q2 -34 -4 -69t-18.5 -67t-31.5 -59l160 66
l48 -133z" />
    <glyph glyph-name="uni21BA" unicode="&#x21ba;" horiz-adv-x="949" 
d="M454 -50q-127 0 -219 50.5t-141.5 140t-49.5 208.5q0 104 40 192t124 148l96 -109q-60 -45 -86.5 -107.5t-26.5 -123.5q0 -50 16.5 -95.5t49.5 -82t82 -58t115 -21.5q68 0 116.5 22t79.5 58.5t45.5 81t15.5 90.5q0 23 -6.5 54.5t-25 68.5t-54.5 75l-1 -181h-126l16 393
l392 -28l-9 -124l-174 19q42 -31 72.5 -78t47.5 -101.5t16 -108.5q0 -82 -27.5 -151.5t-80 -121.5t-127 -81t-170.5 -29z" />
    <glyph glyph-name="uni21BB" unicode="&#x21bb;" horiz-adv-x="949" 
d="M495 -51q-96 0 -171 29t-127 81.5t-79.5 122t-27.5 151.5q0 54 16.5 108.5t47 101.5t72.5 78l-174 -19l-9 124l392 28l16 -393h-126l-1 181q-36 -37 -55 -73.5t-25 -67t-6 -51.5q1 -48 15.5 -94t45.5 -82.5t79.5 -58.5t116.5 -22q66 0 115 21t82 57.5t49.5 82t16.5 95.5
q0 61 -26.5 123.5t-86.5 107.5l96 109q84 -60 124 -148t40 -190q0 -119 -49.5 -209.5t-141 -141.5t-219.5 -51z" />
    <glyph glyph-name="uni27F5" unicode="&#x27f5;" horiz-adv-x="1394" 
d="M416 -57l-373 332l372 331l90 -111l-179 -150h1025v-141h-1025l179 -150z" />
    <glyph glyph-name="rightLongArrow" unicode="&#x27f6;" horiz-adv-x="1394" 
d="M978 -57l-89 111l180 150h-1026v141h1026l-180 150l90 111l372 -331z" />
    <glyph glyph-name="uni0308" unicode="&#x308;" 
d="M126 575q-35 0 -61.5 21.5t-26.5 62.5q0 42 27.5 65t61.5 23q35 0 60.5 -22.5t25.5 -64.5t-25.5 -63.5t-61.5 -21.5zM-125 575q-35 0 -61 21.5t-26 62.5q0 42 26.5 65t60.5 23q35 0 61.5 -22.5t26.5 -65.5q0 -41 -26.5 -62.5t-61.5 -21.5z" />
    <glyph glyph-name="uni0307" unicode="&#x307;" 
d="M0 571q-44 0 -70.5 26t-26.5 68q0 43 28 70t70 27q40 0 68 -26t28 -70q0 -43 -27 -69t-70 -26z" />
    <glyph glyph-name="gravecomb" unicode="&#x300;" 
d="M-22 583l-157 182h168l122 -182h-133z" />
    <glyph glyph-name="acutecomb" unicode="&#x301;" 
d="M-88 584l123 182h168l-157 -182h-134z" />
    <glyph glyph-name="uni030B" unicode="&#x30b;" 
d="M18 583l113 182h156l-145 -182h-124zM-170 583l76 182h156l-113 -182h-119z" />
    <glyph glyph-name="uni030C.alt" 
d="M91 412l-44 63q15 7 34 21t35 30t21 28q-30 3 -52.5 23.5t-22.5 57.5q0 41 26.5 62t62.5 21q47 0 70.5 -32.5t23.5 -77.5q0 -48 -22.5 -88t-57.5 -68t-74 -40z" />
    <glyph glyph-name="uni0302" unicode="&#x302;" 
d="M-213 583l160 186h105l162 -186h-150l-65 86l-62 -86h-150z" />
    <glyph glyph-name="uni030C" unicode="&#x30c;" 
d="M-51 583l-162 186h150l65 -86l62 86h150l-160 -186h-105z" />
    <glyph glyph-name="uni0306" unicode="&#x306;" 
d="M-1 582q-91 0 -143 44.5t-53 135.5h130q0 -40 19 -55t48 -15q31 0 49 15t18 55h130q-1 -60 -24.5 -100.5t-67.5 -60t-106 -19.5z" />
    <glyph glyph-name="uni030A" unicode="&#x30a;" 
d="M0 571q-55 0 -90.5 33t-35.5 86t36.5 87t90.5 34t89.5 -33.5t35.5 -87.5q0 -53 -35 -86t-91 -33zM0 652q18 0 29.5 11t11.5 28t-11.5 27.5t-29.5 10.5q-17 0 -28.5 -10.5t-11.5 -27.5t10.5 -28t29.5 -11z" />
    <glyph glyph-name="tildecomb" unicode="&#x303;" 
d="M88 581q-30 0 -53 10.5t-40.5 23.5t-32 23.5t-27.5 10.5t-20 -11.5t-8 -26.5t2 -25h-106q-4 44 6 84t39.5 65.5t81.5 25.5q27 0 46 -9.5t34.5 -22t29 -22.5t27.5 -10t20 10t7 23.5t-1 24.5h105q4 -42 -4 -82.5t-33 -66t-73 -25.5z" />
    <glyph glyph-name="uni0304" unicode="&#x304;" 
d="M-190 619v138h380v-138h-380z" />
    <glyph glyph-name="uni0312" unicode="&#x312;" 
d="M-5 570q-47 0 -70.5 31t-23.5 75q0 46 22 84t58 65.5t76 39.5l42 -61q-13 -6 -32.5 -19.5t-36.5 -29t-22 -27.5q31 -2 54 -22.5t23 -55.5q0 -40 -27.5 -60t-62.5 -20z" />
    <glyph glyph-name="uni0326" unicode="&#x326;" 
d="M-48 -297l-36 52q13 6 29 18t30 26t18 26q-26 1 -46.5 18t-20.5 47q0 36 24 54t54 18q39 -1 60 -28.5t21 -68.5q-1 -40 -19.5 -72t-49 -54.5t-64.5 -35.5z" />
    <glyph glyph-name="uni0327" unicode="&#x327;" 
d="M-41 -272q-26 -1 -43 1t-32 5v93q27 -5 47.5 -5t35 3.5t22.5 12.5t8 23q0 11 -7 18t-19 10.5t-25 3.5q-17 1 -34 -2t-26 -7l45 159h102l-19 -77q6 0 12 -0.5t11 -1.5q34 -6 56.5 -28.5t22.5 -71.5q0 -47 -23 -76.5t-58.5 -44t-75.5 -15.5z" />
    <glyph glyph-name="uni0328" unicode="&#x328;" 
d="M27 -202q-60 0 -95.5 28.5t-35.5 76.5q0 37 22 66.5t56 43.5l88 -11q-25 -8 -43 -24t-18 -39q0 -22 13.5 -33.5t34.5 -11.5q11 0 21 3t19 7l16 -89q-19 -10 -39.5 -13.5t-38.5 -3.5z" />
    <glyph glyph-name="uni0308.narrow" 
d="M124 582q-35 0 -61 21.5t-26 62.5t26.5 64t60.5 23t60.5 -22.5t26.5 -64.5q0 -41 -26 -62.5t-61 -21.5zM344 582q-35 0 -61.5 21.5t-26.5 62.5t27 64t61 23t59.5 -22.5t25.5 -63.5q0 -42 -25 -63.5t-60 -21.5z" />
    <glyph glyph-name="dieresis" unicode="&#xa8;" horiz-adv-x="624" 
d="M437 559q-35 0 -61 22t-26 62q0 41 26.5 64t60.5 23t60 -22.5t26 -64.5q0 -40 -25.5 -62t-60.5 -22zM188 559q-35 0 -61 22t-26 62q0 41 26.5 64t60.5 23t60 -22.5t26 -64.5q0 -40 -25.5 -62t-60.5 -22z" />
    <glyph glyph-name="dotaccent" unicode="&#x2d9;" horiz-adv-x="607" 
d="M303 579q-43 0 -70 26t-27 68q0 43 28 70t70 27q40 0 68 -26t28 -70q0 -43 -27 -69t-70 -26z" />
    <glyph glyph-name="grave" unicode="`" 
d="M-22 583l-157 182h168l122 -182h-133z" />
    <glyph glyph-name="acute" unicode="&#xb4;" 
d="M-88 584l123 182h168l-157 -182h-134z" />
    <glyph glyph-name="hungarumlaut" unicode="&#x2dd;" horiz-adv-x="635" 
d="M302 587l113 182h156l-145 -182h-124zM114 587l75 182h157l-113 -182h-119z" />
    <glyph glyph-name="circumflex" unicode="&#x2c6;" horiz-adv-x="626" 
d="M100 583l159 186h105l162 -186h-150l-64 86l-62 -86h-150z" />
    <glyph glyph-name="caron" unicode="&#x2c7;" horiz-adv-x="626" 
d="M261 583l-161 186h150l64 -86l62 86h150l-159 -186h-106z" />
    <glyph glyph-name="breve" unicode="&#x2d8;" horiz-adv-x="587" 
d="M293 582q-91 0 -143.5 44.5t-52.5 135.5h129q1 -40 19.5 -55t48.5 -15t48.5 15t18.5 55h129q0 -60 -24 -100.5t-68 -60t-105 -19.5z" />
    <glyph glyph-name="ring" unicode="&#x2da;" horiz-adv-x="620" 
d="M310 588q-56 0 -91 32.5t-35 85.5q0 54 36.5 87.5t90.5 33.5q53 0 89 -33.5t36 -87.5q0 -53 -35.5 -85.5t-90.5 -32.5zM310 669q18 0 29 10.5t11 27.5t-11.5 28t-28.5 11t-28.5 -11t-11.5 -28t10.5 -27.5t29.5 -10.5z" />
    <glyph glyph-name="tilde" unicode="&#x2dc;" 
d="M88 581q-30 0 -53 10.5t-40.5 23.5t-32 23.5t-27.5 10.5t-20 -11.5t-8 -26.5t2 -25h-106q-4 44 6 84t39.5 65.5t81.5 25.5q27 0 46 -9.5t34.5 -22t29 -22.5t27.5 -10t20 10t7 23.5t-1 24.5h105q4 -42 -4 -82.5t-33 -66t-73 -25.5z" />
    <glyph glyph-name="macron" unicode="&#xaf;" horiz-adv-x="589" 
d="M104 619v138h381v-138h-381z" />
    <glyph glyph-name="cedilla" unicode="&#xb8;" horiz-adv-x="617" 
d="M275 -272q-26 -1 -43 1t-32 5v93q27 -5 47.5 -5t35 3.5t22.5 12.5t8 23q0 11 -7 18t-19 10.5t-25 3.5q-17 1 -34 -2t-26 -7l45 159h102l-19 -77q6 0 12 -0.5t11 -1.5q34 -6 56.5 -28.5t22.5 -71.5q0 -47 -23 -76.5t-58.5 -44t-75.5 -15.5z" />
    <glyph glyph-name="ogonek" unicode="&#x2db;" horiz-adv-x="497" 
d="M275 -202q-60 0 -95.5 28.5t-35.5 76.5q0 37 22 66.5t56 43.5l88 -11q-25 -8 -43 -24t-18 -39q0 -22 13.5 -33.5t34.5 -11.5q11 0 21 3t19 7l16 -89q-19 -10 -39.5 -13.5t-38.5 -3.5z" />
    <glyph glyph-name="a2_alt" horiz-adv-x="632" 
d="M269 -8q-59 0 -104 20.5t-74.5 57.5t-44.5 85.5t-15 104.5q0 83 31 145t87.5 97t134.5 35q43 0 80.5 -14t61.5 -41l8 45h147v-527h-151l-5 46q-34 -30 -75 -42t-81 -12zM307 136q39 0 64.5 17.5t38.5 46.5t13 63q0 36 -13.5 65t-39.5 46.5t-65 17.5q-40 0 -66 -18.5
t-38 -47t-12 -61.5q0 -32 12 -62t38 -48.5t68 -18.5z" />
    <glyph glyph-name="alt_1" horiz-adv-x="515" 
d="M31 0v146h169v353h-138v124q40 0 76 7t63.5 24t42.5 48h118v-556h150v-146h-481z" />
    <glyph glyph-name="be_alt" horiz-adv-x="595" 
d="M302 -8q-74 0 -126 26.5t-85 73t-48 107t-15 129.5q0 85 12.5 147t41 107.5t76.5 78t118 56.5q25 9 48.5 16.5t47 15.5t44.5 16q26 9 44 20t29 20l79 -119q-12 -20 -31 -34t-42 -24q-33 -15 -69.5 -26t-73.5 -22q-44 -13 -82 -33.5t-61.5 -47.5t-26.5 -63q24 26 50 40.5
t56 20.5t61 6q63 0 112 -29t77.5 -83.5t28.5 -131.5q0 -81 -33 -141t-92.5 -93t-139.5 -33zM306 136q36 0 59 16.5t33.5 42t10.5 52.5q0 28 -11 53t-34 40.5t-59 15.5q-35 0 -59 -15t-37 -39.5t-13 -54.5q0 -26 12.5 -52t36.5 -42.5t61 -16.5z" />
    <glyph glyph-name="l2_alt" horiz-adv-x="385" 
d="M238 -7q-61 0 -102.5 21.5t-62.5 64t-21 105.5v524h158v-489q0 -23 6 -40.5t20 -27t38 -9.5q20 0 38 6t33 18l46 -124q-35 -29 -72.5 -39t-80.5 -10z" />
    <glyph glyph-name="logo" horiz-adv-x="2916" 
d="M426 335q-6 0 -10 3.5t-6 3.5l-93 94h-110l-20 -19q-4 -6 -14 -6h-37q-8 0 -14.5 5.5t-6.5 13.5q0 7 7 14l25 26q8 5 14 5h37h1h106v36l-26 26h-118l-25 -20v-26q0 -8 -6 -14l-12 -13q-8 -5 -14 -5q-17 0 -19 15q-19 0 -19 19q-7 2 -12 6.5t-5 12.5q0 7 7 14l12 13
q6 6 14 6h27l0.5 0.5l1.5 1.5l31 25q4 4 12 4h39q4 13 18 13q8 0 14 -6l7 -7h55q6 0 14 -5l4 -5v20l-26 27h-135l-20 -20q-8 -5 -14 -5h-12q-6 0 -14 5l-13 13q-5 8 -5 14q0 8 4 12q-4 4 -4 13q0 6 5 14l13 12q6 6 14 6h12q8 0 14 -6l20 -19h35v28q-12 0 -18.5 15t-6.5 26
v37q0 8 5.5 14t13.5 6h51q8 0 13.5 -6t5.5 -14v-37q0 -11 -6.5 -26t-18.5 -15v-28h25q-1 1 -1 5q0 8 5.5 14t14.5 6q8 0 14 -6l36 -36q4 4 13 4q19 0 19 -19v-156l62 -62v71l-32 32q-6 6 -6 14t6 13.5t14 5.5q6 0 14 -5l4 -5v84l-95 95q-6 5 -6 14v18h-6q-19 0 -19 19
q0 8 5.5 14t13.5 6h6v6q0 8 6 13.5t14 5.5q19 0 19 -19v-6h6q8 0 13.5 -6t5.5 -14q0 -19 -19 -19h-6v-10l62 -62v120q-2 2 -2 3l-55 55q-6 6 -6 14t6 14l12 13q3 3 7 4v20q0 8 6 14l13 12q5 6 13 6q7 0 11 -3q6 6 15 6q8 0 14 -6q5 3 11 3q8 0 14 -6l12 -12q6 -6 6 -14v-20
l4 -2t3 -2l12 -13q6 -6 6 -14t-6 -14l-55 -55q0 -1 -2 -3v-120l62 62v10h-6q-19 0 -19 19q0 8 5.5 14t13.5 6h6v6q0 19 19 19q8 0 14 -5.5t6 -13.5v-6h6q8 0 13.5 -6t5.5 -14q0 -19 -19 -19h-6v-18q0 -9 -6 -14l-95 -95v-84l5 5q5 5 13 5q11 0 15.5 -6t4.5 -13q0 -8 -6 -14
l-32 -32v-71l62 62v156q0 19 19 19q9 0 13 -4l37 36q5 6 14 6q8 0 13.5 -6t5.5 -14q0 -1 -0.5 -2t-0.5 -3h25v28q-12 0 -18.5 15t-6.5 26v37q0 8 5.5 14t13.5 6h51q8 0 13.5 -6t5.5 -14v-37q0 -11 -6.5 -26t-18.5 -15v-28h36l19 19q6 6 14 6h12q8 0 14 -6l13 -12q6 -6 6 -14
q0 -5 -5 -13q5 -5 5 -12q0 -8 -6 -14l-13 -13q-8 -5 -14 -5h-12q-6 0 -14 5l-19 20h-136l-26 -27v-20l4 5q8 5 14 5h55l7 7q6 6 14 6q14 0 18 -13h39q8 0 12 -4l31 -25q1 -1 1.5 -1t1.5 -1h26q8 0 14 -6l12 -13q6 -6 6 -14q0 -6 -1 -7q-5 -9 -14 -12q0 -8 -6 -13.5t-14 -5.5
q-3 -15 -19 -15q-6 0 -14 5l-12 13q-6 6 -6 14v26l-25 20h-118l-26 -26v-36h144q9 0 14 -5l25 -26q6 -6 6 -14q0 -19 -19 -19h-38q-8 0 -14 6l-20 19h-109l-94 -94q-2 0 -6 -3.5t-9 -3.5zM204 0q-12 0 -12 13v349q0 13 12 13h61q12 0 21 -9l132 -132q2 -2 6 -2q5 0 7 2
l132 132q9 9 21 9h61q12 0 12 -13v-349q0 -13 -12 -13h-61q-13 0 -13 13v219q0 3 -4 3q-1 0 -2 -1l-118 -118q-10 -9 -22 -9h-1q-11 0 -22 9l-118 118q-1 1 -3 1q-4 0 -4 -3v-219q0 -13 -12 -13h-61zM904 -6q-57 0 -102 23.5t-71 67t-26 103.5q0 54 25 98t70 69.5t104 25.5
q58 0 102.5 -23.5t70.5 -66.5t26 -103q0 -57 -26 -100.5t-70.5 -68.5t-102.5 -25zM904 74q53 0 80.5 33.5t27.5 80.5q0 51 -31.5 82t-76.5 31q-47 0 -77.5 -31t-30.5 -82q0 -49 31.5 -81.5t76.5 -32.5zM1156 0q-9 0 -9 9v357q0 9 9 9h67q9 0 9 -9v-281q0 -4 5 -4h139
q9 0 9 -9v-63q0 -9 -9 -9h-220zM1547 -1q-15 0 -46.5 0.5t-58.5 0.5q-9 0 -9 9v357q0 9 9 9q11 0 32.5 0.5t43.5 0.5h33q75 0 121.5 -25.5t67.5 -67.5t21 -92q0 -52 -24 -96t-71.5 -70t-118.5 -26zM1549 80q56 0 88.5 28.5t32.5 82.5q0 52 -34 78.5t-86 26.5h-13t-14 -1
q-5 0 -5 -5v-205q0 -6 11.5 -5.5t19.5 0.5zM2003 -6q-57 0 -102 23.5t-71 67t-26 103.5q0 54 25 98t70 69.5t104 25.5q58 0 102.5 -23.5t70.5 -66.5t26 -103q0 -57 -26 -100.5t-70.5 -68.5t-102.5 -25zM2003 74q53 0 80.5 33.5t27.5 80.5q0 51 -31.5 82t-76.5 31
q-47 0 -77.5 -31t-30.5 -82q0 -49 31.5 -81.5t76.5 -32.5zM2358 0q-7 0 -12 9l-146 357q-1 1 -1 3q0 6 6 6h76q8 0 12 -9l91 -234q0 -2 2 -2q1 1 1 2l87 234q5 9 13 9h70q6 0 6 -6q0 -1 -0.5 -1.5t-0.5 -1.5l-142 -357q-4 -9 -13 -9h-49zM2497 0q-6 0 -6 6q0 2 1 3l141 358
q5 8 12 8h56q7 0 12 -8l141 -358q0 -1 0.5 -1.5t0.5 -1.5q0 -6 -6 -6h-70q-9 0 -11 9l-25 66q-1 4 -6 4h-133q-5 0 -6 -4l-24 -66q-4 -9 -12 -9h-65zM2635 159h71q3 0 3 3v1l-37 98l-1 1q-1 -1 -1.5 -1h-0.5l-37 -98v-1q0 -3 3 -3z" />
    <glyph glyph-name="logom" horiz-adv-x="849" 
d="M409 344l-95 95h-110l-20 -20q-6 -6 -14 -6h-38q-13 0 -18 12t4 22l25 25q6 6 14 6h146v36l-27 26h-118l-25 -20v-27t-7 -14l-5 -5l-7 -7q-8 -8 -19.5 -5t-13.5 15q-19 0 -19 19q-12 3 -15 14t5 19l12 12q7 7 14 7h27l34 27q5 5 12 5h39q4 10 14 12t18 -5l7 -7h55
q7 0 10.5 -3t8.5 -8v21l-27 26h-136l-18 -18t-10 -6t-18 -1q-8 0 -14 5.5t-13 12.5q-11 14 -1 27q-10 13 -1.5 22.5t15.5 16.5q5 6 12 6h15t14 -6l19 -19h36v28q-26 11 -26 41v38q0 8 6 14t14 6h51q8 0 14 -6t6 -14v-38q0 -30 -26 -41v-28h25q-4 14 9.5 23t23.5 -4l37 -36
q1 1 1.5 1t1.5 1q6 2 9 2q8 0 14 -6t6 -14v-156l62 -63v72l-32 32q-9 9 -5 19t14 14.5t19 -5.5l4 -5v84l-95 96q-6 6 -6 14v18h-6q-13 0 -17.5 10t0 20t17.5 10h6v5q0 13 9.5 17.5t19.5 0t10 -17.5v-5h6q13 0 17.5 -10t0 -20t-17.5 -10h-6v-10l62 -62v121q0 1 -7.5 9t-18 19
t-19.5 19.5t-12 11.5q-6 5 -6 13.5t6 14.5q4 4 9 9.5t10 7.5v21.5t4 9.5l15 15q11 12 24 3q8 7 17 6t13 -6q11 8 20.5 0t16.5 -16q6 -6 6 -14.5v-18.5q5 -2 10 -7.5t9 -9.5q6 -6 6 -14.5t-6 -13.5q-3 -3 -12 -11.5t-19.5 -19.5t-18 -19t-7.5 -9v-121l62 62v10h-6
q-13 0 -17.5 10t0 20t17.5 10h6v5q0 13 10 17.5t19.5 0t9.5 -17.5v-5h6q13 0 17.5 -10t0 -20t-17.5 -10h-6v-18t-5 -14l-96 -96v-84q4 5 7.5 8t10.5 3q14 0 18.5 -12.5t-4.5 -21.5l-32 -32v-72l62 63v156q0 13 11 18.5t21 -2.5l37 36q11 13 24 4t9 -23h25v28q-26 11 -26 41
v38q0 8 6 14t14 6h51q8 0 14 -6t6 -14v-38q0 -30 -26 -41v-28h36l18 18t10 6t18 1q8 0 14 -5.5t13 -12.5q11 -14 1 -27q10 -12 1.5 -22t-15.5 -17q-5 -5 -12 -5.5t-15 -0.5t-14 6l-19 19h-136l-27 -26v-21q5 5 8.5 8t10.5 3h55q5 5 9 8.5t12 3.5q14 0 18 -12h39q7 0 12 -5
l34 -27h27t11 -4l15 -15q10 -8 5 -21q-4 -9 -15 -12q0 -19 -19 -19q-2 -11 -13 -14q-12 -4 -20 4l-12 12q-7 7 -7 14v27l-25 20h-118l-27 -26v-36h146q8 0 14 -6l25 -25q9 -9 4 -21.5t-18 -12.5h-36t-14.5 5t-21.5 21h-110l-95 -95q-7 -8 -15.5 -8t-14.5 8zM201 0
q-13 0 -13 13v351q0 13 13 13h61q12 0 22 -9l132 -133q7 -6 13 0l133 133q11 9 22 9h61q12 0 12 -13v-351q0 -13 -12 -13h-61q-13 0 -13 13v220q0 2 -2.5 3.5t-4.5 -0.5l-119 -120q-9 -8 -22 -8t-22 8l-120 120q-2 2 -4 0.5t-2 -3.5v-220q0 -13 -13 -13h-61z" />
    <glyph glyph-name="map" horiz-adv-x="659" 
d="M295 0q-5 0 -5 5v23q0 2 -2 4l-9 9q-3 4 0 7l12 12q6 4 0 8l-12 12q-1 1 -1 4v85q0 3 1 4l14 13q1 1 1 4v119q0 3 -1 4l-13 12q-1 1 -1 4v23q0 3 -2 3l-46 47q-2 2 -2 4v21q0 3 -1 4l-46 46q-2 2 -2 3v26q0 3 -1 4l-31 30q-1 1 -1 4v29q0 2 -2 4l-21 21q-2 2 -2 4v26
q0 3 -1 4l-23 23q-2 2 -4 2h-42q-5 0 -5 5v2q0 3 1 4l16 16q2 2 4 2h39q3 0 4 1l19 19q2 2 4 2h96q2 0 4 -2l46 -46q1 -1 3 -1h33q5 0 5 -5v-25q0 -5 6 -5h6q3 0 4 1l16 17q1 1 4 1h32q5 0 5 -5v-26q0 -2 2 -4l20 -20q4 -3 7 0l10 10q1 1 4 1h6q6 0 6 -5v-79q0 -2 -2 -4
l-6 -6q-4 -4 0 -8l59 -59q1 -1 3 -1h12q5 0 5 -5v-34v-37q0 -2 2 -4l22 -22q2 -2 4 -2h12q3 0 4 -1l16 -17q2 -2 2 -4v-37q0 -2 -2 -4l-6 -5q-4 -4 0 -8l21 -20q1 -1 1 -4q0 -5 -5 -5h-19h-14q-2 0 -3 1l-9 9q-3 4 -7 0l-11 -11q-5 -3 -8 0l-15 15q-3 3 -8 0l-27 -27
q-2 -2 -3 -2h-9q-5 0 -5 6v34q0 4 -3.5 5t-5.5 -1l-22 -22q-1 -1 -1 -3v-27q0 -3 1 -4l10 -10q4 -3 0 -7l-20 -20q-1 -1 -1 -4v-25q0 -2 -2 -4l-22 -22q-1 -1 -1 -3v-12q0 -2 -2 -4l-12 -12q-2 -2 -3 -2h-9q-2 0 -3 -1l-10 -10q-2 -2 -2 -4v-38q0 -6 -5 -6h-20q-3 0 -4 -1
l-14 -15q-1 0 -1.5 -0.5t-2.5 -0.5h-3z" />
    <glyph glyph-name="tab_1" horiz-adv-x="674" 
d="M86 0v146h173v358h-156v124h9q36 0 74 5t69.5 22.5t48.5 52.5h117v-562h156v-146h-491z" />
    <glyph glyph-name="y2_alt" horiz-adv-x="577" 
d="M78 -246v163q41 0 67.5 5.5t44.5 18t32 35.5l-217 551h183l126 -374l96 374h171l-137 -466q-11 -39 -25 -76.5t-31.5 -71.5t-40 -61.5t-50.5 -47.5q-36 -26 -80 -38t-101 -12h-38z" />
    <glyph glyph-name="a00E2.alt" horiz-adv-x="572" 
d="M218 -7q-51 0 -93 17.5t-67 53.5t-25 89q0 41 16 70t43.5 47.5t62.5 30t73 17.5q30 5 66 8.5t78 6.5q-1 23 -12 38.5t-29 24t-44 8.5q-31 0 -52 -11t-31 -34h-159q10 67 45.5 105.5t88.5 55t111 16.5q82 0 133 -27.5t75 -83.5t24 -141v-284h-146l-1 63
q-23 -30 -52.5 -45.5t-57 -20t-47.5 -4.5zM255 119q32 0 57 12t41 35t18 53l1 12q-19 -1 -37.5 -3t-37.5 -4t-38 -6q-29 -4 -49 -17t-20 -37q0 -17 9 -27t24 -14t32 -4zM78 590l160 186h105l162 -186h-150l-65 86l-62 -86h-150z" />
    <glyph glyph-name="a00E4.alt" horiz-adv-x="572" 
d="M218 -7q-51 0 -93 17.5t-67 53.5t-25 89q0 41 16 70t43.5 47.5t62.5 30t73 17.5q30 5 66 8.5t78 6.5q-1 23 -12 38.5t-29 24t-44 8.5q-31 0 -52 -11t-31 -34h-159q10 67 45.5 105.5t88.5 55t111 16.5q82 0 133 -27.5t75 -83.5t24 -141v-284h-146l-1 63
q-23 -30 -52.5 -45.5t-57 -20t-47.5 -4.5zM255 119q32 0 57 12t41 35t18 53l1 12q-19 -1 -37.5 -3t-37.5 -4t-38 -6q-29 -4 -49 -17t-20 -37q0 -17 9 -27t24 -14t32 -4zM419 583q-35 0 -61.5 21.5t-26.5 62.5q0 42 27.5 65t61.5 23q35 0 60.5 -22.5t25.5 -64.5t-25.5 -63.5
t-61.5 -21.5zM168 583q-35 0 -61 21.5t-26 62.5q0 42 26.5 65t60.5 23q35 0 61.5 -22.5t26.5 -65.5q0 -41 -26.5 -62.5t-61.5 -21.5z" />
    <glyph glyph-name="a0103.alt" horiz-adv-x="572" 
d="M218 -7q-51 0 -93 17.5t-67 53.5t-25 89q0 41 16 70t43.5 47.5t62.5 30t73 17.5q30 5 66 8.5t78 6.5q-1 23 -12 38.5t-29 24t-44 8.5q-31 0 -52 -11t-31 -34h-159q10 67 45.5 105.5t88.5 55t111 16.5q82 0 133 -27.5t75 -83.5t24 -141v-284h-146l-1 63
q-23 -30 -52.5 -45.5t-57 -20t-47.5 -4.5zM255 119q32 0 57 12t41 35t18 53l1 12q-19 -1 -37.5 -3t-37.5 -4t-38 -6q-29 -4 -49 -17t-20 -37q0 -17 9 -27t24 -14t32 -4zM292 569q-91 0 -143 44.5t-53 135.5h130q0 -40 19 -55t48 -15q31 0 49 15t18 55h130
q-1 -60 -24.5 -100.5t-67.5 -60t-106 -19.5z" />
    <glyph glyph-name="t0163.alt" horiz-adv-x="430" 
d="M272 -7q-91 0 -137 51.5t-46 139.5v202h-76v141h76v137h159v-137h159v-141h-159v-167q0 -24 7 -41t22.5 -26.5t40.5 -9.5t41 7.5t27 16.5l45 -124q-21 -18 -49.5 -29t-56.5 -15.5t-53 -4.5zM217 -275q-26 -1 -43 1t-32 5v93q27 -5 47.5 -5t35 3.5t22.5 12.5t8 23
q0 11 -7 18t-19 10.5t-25 3.5q-17 1 -34 -2t-26 -7l45 159h102l-19 -77q6 0 12 -0.5t11 -1.5q34 -6 56.5 -28.5t22.5 -71.5q0 -47 -23 -76.5t-58.5 -44t-75.5 -15.5z" />
    <glyph glyph-name="t021b.alt" horiz-adv-x="430" 
d="M272 -7q-91 0 -137 51.5t-46 139.5v202h-76v141h76v137h159v-137h159v-141h-159v-167q0 -24 7 -41t22.5 -26.5t40.5 -9.5t41 7.5t27 16.5l45 -124q-21 -18 -49.5 -29t-56.5 -15.5t-53 -4.5zM195 -302l-36 52q13 6 29 18t30 26t18 26q-26 1 -46.5 18t-20.5 47q0 36 24 54
t54 18q39 -1 60 -28.5t21 -68.5q-1 -40 -19.5 -72t-49 -54.5t-64.5 -35.5z" />
    <glyph glyph-name="t2.alt" horiz-adv-x="430" 
d="M272 -7q-91 0 -137 51.5t-46 139.5v202h-76v141h76v137h159v-137h159v-141h-159v-167q0 -24 7 -41t22.5 -26.5t40.5 -9.5t41 7.5t27 16.5l45 -124q-21 -18 -49.5 -29t-56.5 -15.5t-53 -4.5z" />
    </font>
</defs>
</svg>
