<?xml version="1.0" standalone="no"?>
<!DOCTYPE svg PUBLIC "-//W3C//DTD SVG 1.1//EN" "http://www.w3.org/Graphics/SVG/1.1/DTD/svg11.dtd" >
<svg xmlns="http://www.w3.org/2000/svg" xmlns:xlink="http://www.w3.org/1999/xlink" version="1.1">
<metadata>
Created by FontForge 20230101 at Wed Sep  6 15:02:59 2023
 By Webmaster
Copyright 2021 The Onest Project Authors (https://github.com/simpals/onest)
</metadata>
<defs>
<font id="Onest-Regular" horiz-adv-x="0" >
  <font-face 
    font-family="Onest"
    font-weight="400"
    font-stretch="normal"
    units-per-em="1000"
    panose-1="0 0 0 0 0 0 0 0 0 0"
    ascent="800"
    descent="-200"
    x-height="527"
    cap-height="707"
    bbox="-171 -304 2855 960"
    underline-thickness="50"
    underline-position="-100"
    unicode-range="U+000D-27F6"
  />
<missing-glyph horiz-adv-x="540" 
d="M20 -295v1255h500v-1255h-500zM30 -285h480v1235h-480v-1235z" />
    <glyph glyph-name=".notdef" horiz-adv-x="540" 
d="M20 -295v1255h500v-1255h-500zM30 -285h480v1235h-480v-1235z" />
    <glyph glyph-name="A" unicode="A" horiz-adv-x="670" 
d="M10 0l263 707h125l262 -707h-94l-56 152h-350l-56 -152h-94zM189 231h292l-146 400z" />
    <glyph glyph-name="Aacute" unicode="&#xc1;" horiz-adv-x="670" 
d="M10 0l263 707h125l262 -707h-94l-56 152h-350l-56 -152h-94zM189 231h292l-146 400zM295 786l85 141h92l-100 -141h-77z" />
    <glyph glyph-name="Abreve" unicode="&#x102;" horiz-adv-x="670" 
d="M10 0l263 707h125l262 -707h-94l-56 152h-350l-56 -152h-94zM189 231h292l-146 400zM334 781q-79 0 -123.5 34t-46.5 99h78q2 -35 26.5 -51t66.5 -16t66.5 16t26.5 51h78q-1 -43 -22 -73t-59 -45t-91 -15z" />
    <glyph glyph-name="Acircumflex" unicode="&#xc2;" horiz-adv-x="670" 
d="M10 0l263 707h125l262 -707h-94l-56 152h-350l-56 -152h-94zM189 231h292l-146 400zM171 786l133 163h60l134 -163h-86l-78 96l-78 -96h-85z" />
    <glyph glyph-name="Adieresis" unicode="&#xc4;" horiz-adv-x="670" 
d="M10 0l263 707h125l262 -707h-94l-56 152h-350l-56 -152h-94zM189 231h292l-146 400zM447 788q-24 0 -40 15.5t-16 40.5t16 40.5t40 15.5q25 0 41.5 -15.5t16.5 -40.5t-16.5 -40.5t-41.5 -15.5zM222 788q-24 0 -40.5 15.5t-16.5 40.5t16.5 40.5t40.5 15.5q25 0 41.5 -15.5
t16.5 -40.5t-16.5 -40.5t-41.5 -15.5z" />
    <glyph glyph-name="Agrave" unicode="&#xc0;" horiz-adv-x="670" 
d="M10 0l263 707h125l262 -707h-94l-56 152h-350l-56 -152h-94zM189 231h292l-146 400zM304 786l-100 141h92l85 -141h-77z" />
    <glyph glyph-name="Amacron" unicode="&#x100;" horiz-adv-x="670" 
d="M10 0l263 707h125l262 -707h-94l-56 152h-350l-56 -152h-94zM189 231h292l-146 400zM175 813v74h319v-74h-319z" />
    <glyph glyph-name="Aogonek" unicode="&#x104;" horiz-adv-x="670" 
d="M10 0l263 707h125l262 -707h-94l-56 152h-350l-56 -152h-94zM189 231h292l-146 400zM615 -224q-61 1 -95 31.5t-34 81.5q0 45 29 77t67 49l63 -10q-33 -17 -59 -45t-26 -61q0 -28 17.5 -43.5t46.5 -15.5q12 0 24 3t24 9l14 -59q-18 -10 -34.5 -13.5t-36.5 -3.5z" />
    <glyph glyph-name="Aring" unicode="&#xc5;" horiz-adv-x="670" 
d="M10 0l263 707h125l262 -707h-94l-56 152h-350l-56 -152h-94zM189 231h292l-146 400zM334 753q-44 0 -71 25.5t-27 69.5t27.5 72.5t71.5 28.5t71 -29t27 -72q0 -44 -28 -69.5t-71 -25.5zM334 805q20 0 31.5 12.5t11.5 32.5t-11.5 32.5t-31.5 12.5t-31.5 -12.5t-11.5 -32.5
t11.5 -32.5t31.5 -12.5z" />
    <glyph glyph-name="Atilde" unicode="&#xc3;" horiz-adv-x="670" 
d="M10 0l263 707h125l262 -707h-94l-56 152h-350l-56 -152h-94zM189 231h292l-146 400zM399 775q-25 0 -44 11t-34.5 25t-28.5 25t-25 11q-15 0 -21.5 -12.5t-7.5 -28t-1 -26.5h-69q0 33 8.5 62.5t30 48.5t61.5 19q25 0 44 -11t34.5 -25.5t28.5 -25.5t25 -11q17 0 23 12.5
t7 28.5t1 27h70q-1 -32 -9.5 -62t-30 -49t-62.5 -19z" />
    <glyph glyph-name="AE" unicode="&#xc6;" horiz-adv-x="923" 
d="M10 0l361 707h504v-79h-354v-238h315v-80h-315v-231h354v-79h-441v151h-251l-78 -151h-95zM225 231h209v397h-11z" />
    <glyph glyph-name="B" unicode="B" horiz-adv-x="655" 
d="M86 0v707h248q53 0 96 -8.5t74.5 -28.5t48.5 -54t17 -86q0 -54 -24.5 -96t-75.5 -62q68 -12 102 -55.5t34 -115.5q0 -59 -22 -98t-60.5 -61.5t-88.5 -32t-106 -9.5h-243zM173 79h153q31 0 64.5 3.5t62.5 15t47 36.5t18 67q0 36 -13.5 59t-36 36t-51.5 18t-59 5h-185v-240
zM173 397h136q37 0 69 6.5t56 21.5t37.5 39t13.5 60q1 46 -20 68t-55.5 29t-74.5 7h-162v-231z" />
    <glyph glyph-name="C" unicode="C" horiz-adv-x="704" 
d="M373 -8q-109 0 -181.5 46.5t-108 128t-35.5 186.5q0 104 36 185.5t108.5 129t182.5 47.5q78 0 134.5 -24.5t91.5 -67.5t48 -101h-88q-15 52 -64.5 83t-124.5 31q-84 0 -135.5 -39.5t-75.5 -103t-24 -137.5q0 -78 25 -143t78 -103.5t135 -38.5q50 0 89.5 14t66 40t36.5 60
h95q-15 -58 -53.5 -101.5t-97.5 -67.5t-138 -24z" />
    <glyph glyph-name="Cacute" unicode="&#x106;" horiz-adv-x="704" 
d="M373 -8q-109 0 -181.5 46.5t-108 128t-35.5 186.5q0 104 36 185.5t108.5 129t182.5 47.5q78 0 134.5 -24.5t91.5 -67.5t48 -101h-88q-15 52 -64.5 83t-124.5 31q-84 0 -135.5 -39.5t-75.5 -103t-24 -137.5q0 -78 25 -143t78 -103.5t135 -38.5q50 0 89.5 14t66 40t36.5 60
h95q-15 -58 -53.5 -101.5t-97.5 -67.5t-138 -24zM326 786l85 141h92l-100 -141h-77z" />
    <glyph glyph-name="Ccaron" unicode="&#x10c;" horiz-adv-x="704" 
d="M373 -8q-109 0 -181.5 46.5t-108 128t-35.5 186.5q0 104 36 185.5t108.5 129t182.5 47.5q78 0 134.5 -24.5t91.5 -67.5t48 -101h-88q-15 52 -64.5 83t-124.5 31q-84 0 -135.5 -39.5t-75.5 -103t-24 -137.5q0 -78 25 -143t78 -103.5t135 -38.5q50 0 89.5 14t66 40t36.5 60
h95q-15 -58 -53.5 -101.5t-97.5 -67.5t-138 -24zM337 786l-135 163h87l78 -96l78 96h85l-134 -163h-59z" />
    <glyph glyph-name="Ccedilla" unicode="&#xc7;" horiz-adv-x="704" 
d="M373 -8q-109 0 -181.5 46.5t-108 128t-35.5 186.5q0 104 36 185.5t108.5 129t182.5 47.5q78 0 134.5 -24.5t91.5 -67.5t48 -101h-88q-15 52 -64.5 83t-124.5 31q-84 0 -135.5 -39.5t-75.5 -103t-24 -137.5q0 -78 25 -143t78 -103.5t135 -38.5q50 0 89.5 14t66 40t36.5 60
h95q-15 -58 -53.5 -101.5t-97.5 -67.5t-138 -24zM350 -251q-14 -2 -29.5 -3t-32.5 -1v55q17 0 36 1t36 6t28 16t11 30q0 17 -11.5 24.5t-25 9t-20.5 1.5q-10 0 -24.5 -2t-27.5 -7l29 127h62l-15 -67q6 1 12 1.5t11 0.5q39 0 59 -21.5t20 -59.5q0 -36 -15.5 -59t-42 -35
t-60.5 -17z" />
    <glyph glyph-name="Ccircumflex" unicode="&#x108;" horiz-adv-x="704" 
d="M373 -8q-109 0 -181.5 46.5t-108 128t-35.5 186.5q0 104 36 185.5t108.5 129t182.5 47.5q78 0 134.5 -24.5t91.5 -67.5t48 -101h-88q-15 52 -64.5 83t-124.5 31q-84 0 -135.5 -39.5t-75.5 -103t-24 -137.5q0 -78 25 -143t78 -103.5t135 -38.5q50 0 89.5 14t66 40t36.5 60
h95q-15 -58 -53.5 -101.5t-97.5 -67.5t-138 -24zM202 786l133 163h60l134 -163h-86l-78 96l-78 -96h-85z" />
    <glyph glyph-name="Cdotaccent" unicode="&#x10a;" horiz-adv-x="704" 
d="M373 -8q-109 0 -181.5 46.5t-108 128t-35.5 186.5q0 104 36 185.5t108.5 129t182.5 47.5q78 0 134.5 -24.5t91.5 -67.5t48 -101h-88q-15 52 -64.5 83t-124.5 31q-84 0 -135.5 -39.5t-75.5 -103t-24 -137.5q0 -78 25 -143t78 -103.5t135 -38.5q50 0 89.5 14t66 40t36.5 60
h95q-15 -58 -53.5 -101.5t-97.5 -67.5t-138 -24zM365 785q-26 0 -41.5 16t-15.5 41t16 40.5t41 15.5q23 0 40.5 -16t17.5 -40q0 -25 -17 -41t-41 -16z" />
    <glyph glyph-name="D" unicode="D" horiz-adv-x="720" 
d="M87 0v707h251q110 0 184 -44.5t111.5 -124t37.5 -185.5q0 -105 -37 -184.5t-111 -124t-185 -44.5h-251zM174 79h158q86 0 141 35t82 96.5t27 142.5q0 79 -26.5 141t-80.5 98t-138 36h-163v-549z" />
    <glyph glyph-name="Dcaron" unicode="&#x10e;" horiz-adv-x="720" 
d="M87 0v707h251q110 0 184 -44.5t111.5 -124t37.5 -185.5q0 -105 -37 -184.5t-111 -124t-185 -44.5h-251zM174 79h158q86 0 141 35t82 96.5t27 142.5q0 79 -26.5 141t-80.5 98t-138 36h-163v-549zM331 786l-135 163h87l78 -96l78 96h85l-134 -163h-59z" />
    <glyph glyph-name="Dcroat" unicode="&#x110;" horiz-adv-x="720" 
d="M87 0v314h-78v78h78v315h251q110 0 184 -44.5t111.5 -124t37.5 -185.5q0 -105 -37 -184.5t-111 -124t-185 -44.5h-251zM174 79h158q86 0 141 34.5t82 96.5t27 143q0 82 -27.5 143.5t-81.5 96.5t-136 35h-163v-236h159v-78h-159v-235z" />
    <glyph glyph-name="Eth" unicode="&#xd0;" horiz-adv-x="720" 
d="M87 0v314h-78v78h78v315h251q110 0 184 -44.5t111.5 -124t37.5 -185.5q0 -105 -37 -184.5t-111 -124t-185 -44.5h-251zM174 79h158q88 0 143 36t81 98t26 140q0 82 -27.5 143.5t-81.5 96.5t-136 35h-163v-236h159v-78h-159v-235z" />
    <glyph glyph-name="E" unicode="E" horiz-adv-x="610" 
d="M87 0v707h475v-79h-388v-238h349v-80h-349v-231h388v-79h-475z" />
    <glyph glyph-name="Eacute" unicode="&#xc9;" horiz-adv-x="610" 
d="M87 0v707h475v-79h-388v-238h349v-80h-349v-231h388v-79h-475zM290 786l85 141h92l-100 -141h-77z" />
    <glyph glyph-name="Ebreve" unicode="&#x114;" horiz-adv-x="610" 
d="M87 0v707h475v-79h-388v-238h349v-80h-349v-231h388v-79h-475zM329 781q-79 0 -123.5 34t-46.5 99h78q2 -35 26.5 -51t66.5 -16t66.5 16t26.5 51h78q-1 -43 -22 -73t-59 -45t-91 -15z" />
    <glyph glyph-name="Ecaron" unicode="&#x11a;" horiz-adv-x="610" 
d="M87 0v707h475v-79h-388v-238h349v-80h-349v-231h388v-79h-475zM301 786l-135 163h87l78 -96l78 96h85l-134 -163h-59z" />
    <glyph glyph-name="Ecircumflex" unicode="&#xca;" horiz-adv-x="610" 
d="M87 0v707h475v-79h-388v-238h349v-80h-349v-231h388v-79h-475zM166 786l133 163h60l134 -163h-86l-78 96l-78 -96h-85z" />
    <glyph glyph-name="Edieresis" unicode="&#xcb;" horiz-adv-x="610" 
d="M87 0v707h475v-79h-388v-238h349v-80h-349v-231h388v-79h-475zM442 788q-24 0 -40 15.5t-16 40.5t16 40.5t40 15.5q25 0 41.5 -15.5t16.5 -40.5t-16.5 -40.5t-41.5 -15.5zM217 788q-24 0 -40.5 15.5t-16.5 40.5t16.5 40.5t40.5 15.5q25 0 41.5 -15.5t16.5 -40.5
t-16.5 -40.5t-41.5 -15.5z" />
    <glyph glyph-name="Edotaccent" unicode="&#x116;" horiz-adv-x="610" 
d="M87 0v707h475v-79h-388v-238h349v-80h-349v-231h388v-79h-475zM329 785q-26 0 -41.5 16t-15.5 41t16 40.5t41 15.5q23 0 40.5 -16t17.5 -40q0 -25 -17 -41t-41 -16z" />
    <glyph glyph-name="Egrave" unicode="&#xc8;" horiz-adv-x="610" 
d="M87 0v707h475v-79h-388v-238h349v-80h-349v-231h388v-79h-475zM299 786l-100 141h92l85 -141h-77z" />
    <glyph glyph-name="Emacron" unicode="&#x112;" horiz-adv-x="610" 
d="M87 0v707h475v-79h-388v-238h349v-80h-349v-231h388v-79h-475zM170 813v74h319v-74h-319z" />
    <glyph glyph-name="Eogonek" unicode="&#x118;" horiz-adv-x="610" 
d="M87 0v707h475v-79h-388v-238h349v-80h-349v-231h388v-79h-475zM561 -224q-61 1 -95 31.5t-34 81.5q0 45 29 77t67 49l63 -10q-33 -17 -59 -45t-26 -61q0 -28 17.5 -43.5t46.5 -15.5q12 0 24 3t24 9l14 -59q-18 -10 -34.5 -13.5t-36.5 -3.5z" />
    <glyph glyph-name="F" unicode="F" horiz-adv-x="599" 
d="M87 0v707h475v-79h-388v-265h339v-80h-339v-283h-87z" />
    <glyph glyph-name="G" unicode="G" horiz-adv-x="720" 
d="M374 -8q-110 0 -182.5 46.5t-108 127.5t-35.5 185q0 78 19.5 144t59.5 115.5t100.5 77t142.5 27.5q78 0 136 -24t95.5 -67t52.5 -102h-95q-10 35 -36 60.5t-65 39.5t-89 14q-62 0 -106 -22t-72 -60.5t-41 -90t-13 -110.5q0 -78 25 -142t77 -102t134 -38q68 0 116 24.5
t74 71t26 111.5h-232v79h315v-59q0 -92 -36 -161t-102.5 -107t-159.5 -38z" />
    <glyph glyph-name="Gbreve" unicode="&#x11e;" horiz-adv-x="720" 
d="M374 -8q-110 0 -182.5 46.5t-108 127.5t-35.5 185q0 78 19.5 144t59.5 115.5t100.5 77t142.5 27.5q78 0 136 -24t95.5 -67t52.5 -102h-95q-10 35 -36 60.5t-65 39.5t-89 14q-62 0 -106 -22t-72 -60.5t-41 -90t-13 -110.5q0 -78 25 -142t77 -102t134 -38q68 0 116 24.5
t74 71t26 111.5h-232v79h315v-59q0 -92 -36 -161t-102.5 -107t-159.5 -38zM359 781q-79 0 -123.5 34t-46.5 99h78q2 -35 26.5 -51t66.5 -16t66.5 16t26.5 51h78q-1 -43 -22 -73t-59 -45t-91 -15z" />
    <glyph glyph-name="Gcircumflex" unicode="&#x11c;" horiz-adv-x="720" 
d="M374 -8q-110 0 -182.5 46.5t-108 127.5t-35.5 185q0 78 19.5 144t59.5 115.5t100.5 77t142.5 27.5q78 0 136 -24t95.5 -67t52.5 -102h-95q-10 35 -36 60.5t-65 39.5t-89 14q-62 0 -106 -22t-72 -60.5t-41 -90t-13 -110.5q0 -78 25 -142t77 -102t134 -38q68 0 116 24.5
t74 71t26 111.5h-232v79h315v-59q0 -92 -36 -161t-102.5 -107t-159.5 -38zM196 786l133 163h60l134 -163h-86l-78 96l-78 -96h-85z" />
    <glyph glyph-name="uni0122" unicode="&#x122;" horiz-adv-x="720" 
d="M374 -8q-110 0 -182.5 46.5t-108 127.5t-35.5 185q0 78 19.5 144t59.5 115.5t100.5 77t142.5 27.5q78 0 136 -24t95.5 -67t52.5 -102h-95q-10 35 -36 60.5t-65 39.5t-89 14q-62 0 -106 -22t-72 -60.5t-41 -90t-13 -110.5q0 -78 25 -142t77 -102t134 -38q68 0 116 24.5
t74 71t26 111.5h-232v79h315v-59q0 -92 -36 -161t-102.5 -107t-159.5 -38zM334 -304l-24 33q14 10 26 24t21.5 30t13.5 32q-26 2 -42 17t-16 40q0 28 18 43t42 15q33 0 48.5 -24t14.5 -55q-1 -33 -15 -65t-37 -56t-50 -34z" />
    <glyph glyph-name="Gdotaccent" unicode="&#x120;" horiz-adv-x="720" 
d="M374 -8q-110 0 -182.5 46.5t-108 127.5t-35.5 185q0 78 19.5 144t59.5 115.5t100.5 77t142.5 27.5q78 0 136 -24t95.5 -67t52.5 -102h-95q-10 35 -36 60.5t-65 39.5t-89 14q-62 0 -106 -22t-72 -60.5t-41 -90t-13 -110.5q0 -78 25 -142t77 -102t134 -38q68 0 116 24.5
t74 71t26 111.5h-232v79h315v-59q0 -92 -36 -161t-102.5 -107t-159.5 -38zM359 785q-26 0 -41.5 16t-15.5 41t16 40.5t41 15.5q23 0 40.5 -16t17.5 -40q0 -25 -17 -41t-41 -16z" />
    <glyph glyph-name="H" unicode="H" horiz-adv-x="727" 
d="M87 0v707h87v-320h379v320h87v-707h-87v307h-379v-307h-87z" />
    <glyph glyph-name="Hbar" unicode="&#x126;" horiz-adv-x="727" 
d="M87 0v510h-87v74h87v123h87v-123h379v123h87v-123h88v-74h-88v-510h-87v307h-379v-307h-87zM174 387h379v123h-379v-123z" />
    <glyph glyph-name="Hcircumflex" unicode="&#x124;" horiz-adv-x="727" 
d="M87 0v707h87v-320h379v320h87v-707h-87v307h-379v-307h-87zM200 786l133 163h60l134 -163h-86l-78 96l-78 -96h-85z" />
    <glyph glyph-name="I" unicode="I" horiz-adv-x="261" 
d="M87 0v707h87v-707h-87z" />
    <glyph glyph-name="IJ" unicode="&#x132;" horiz-adv-x="749" 
d="M457 -8q-52 0 -92.5 12t-68.5 37t-44 63.5t-19 90.5h88q4 -38 19.5 -66t44 -43t72.5 -15q47 0 73.5 20t38 55t11.5 80v481h87v-463q0 -55 -11 -101.5t-35.5 -80t-65 -52t-98.5 -18.5zM87 0v707h87v-707h-87z" />
    <glyph glyph-name="Iacute" unicode="&#xcd;" horiz-adv-x="261" 
d="M87 0v707h87v-707h-87zM91 786l85 141h92l-100 -141h-77z" />
    <glyph glyph-name="Ibreve" unicode="&#x12c;" horiz-adv-x="261" 
d="M87 0v707h87v-707h-87zM130 781q-79 0 -123.5 34t-46.5 99h78q2 -35 26.5 -51t66.5 -16t66.5 16t26.5 51h78q-1 -43 -22 -73t-59 -45t-91 -15z" />
    <glyph glyph-name="Icircumflex" unicode="&#xce;" horiz-adv-x="261" 
d="M87 0v707h87v-707h-87zM-33 786l133 163h60l134 -163h-86l-78 96l-78 -96h-85z" />
    <glyph glyph-name="Idieresis" unicode="&#xcf;" horiz-adv-x="261" 
d="M87 0v707h87v-707h-87zM243 788q-24 0 -40 15.5t-16 40.5t16 40.5t40 15.5q25 0 41.5 -15.5t16.5 -40.5t-16.5 -40.5t-41.5 -15.5zM18 788q-24 0 -40.5 15.5t-16.5 40.5t16.5 40.5t40.5 15.5q25 0 41.5 -15.5t16.5 -40.5t-16.5 -40.5t-41.5 -15.5z" />
    <glyph glyph-name="Idotaccent" unicode="&#x130;" horiz-adv-x="261" 
d="M87 0v707h87v-707h-87zM130 785q-26 0 -41.5 16t-15.5 41t16 40.5t41 15.5q23 0 40.5 -16t17.5 -40q0 -25 -17 -41t-41 -16z" />
    <glyph glyph-name="Igrave" unicode="&#xcc;" horiz-adv-x="261" 
d="M87 0v707h87v-707h-87zM100 786l-100 141h92l85 -141h-77z" />
    <glyph glyph-name="Imacron" unicode="&#x12a;" horiz-adv-x="261" 
d="M87 0v707h87v-707h-87zM-29 813v74h319v-74h-319z" />
    <glyph glyph-name="Iogonek" unicode="&#x12e;" horiz-adv-x="261" 
d="M87 0v707h87v-707h-87zM144 -224q-61 1 -95 31.5t-34 81.5q0 45 29 77t67 49l63 -10q-33 -17 -59 -45t-26 -61q0 -28 17.5 -43.5t46.5 -15.5q12 0 24 3t24 9l14 -59q-18 -10 -34.5 -13.5t-36.5 -3.5z" />
    <glyph glyph-name="Itilde" unicode="&#x128;" horiz-adv-x="261" 
d="M87 0v707h87v-707h-87zM195 775q-25 0 -44 11t-34.5 25t-28.5 25t-25 11q-15 0 -21.5 -12.5t-7.5 -28t-1 -26.5h-69q0 33 8.5 62.5t30 48.5t61.5 19q25 0 44 -11t34.5 -25.5t28.5 -25.5t25 -11q17 0 23 12.5t7 28.5t1 27h70q-1 -32 -9.5 -62t-30 -49t-62.5 -19z" />
    <glyph glyph-name="J" unicode="J" horiz-adv-x="558" 
d="M266 -8q-52 0 -92.5 12t-68.5 37t-44 63.5t-19 90.5h88q4 -38 19.5 -66t44 -43t72.5 -15q47 0 73.5 20t38 55t11.5 80v481h87v-463q0 -55 -11 -101.5t-35.5 -80t-65 -52t-98.5 -18.5z" />
    <glyph glyph-name="Jcircumflex" unicode="&#x134;" horiz-adv-x="558" 
d="M266 -8q-52 0 -92.5 12t-68.5 37t-44 63.5t-19 90.5h88q4 -38 19.5 -66t44 -43t72.5 -15q47 0 73.5 20t38 55t11.5 80v481h87v-463q0 -55 -11 -101.5t-35.5 -80t-65 -52t-98.5 -18.5zM269 786l133 163h60l134 -163h-86l-78 96l-78 -96h-85z" />
    <glyph glyph-name="K" unicode="K" horiz-adv-x="625" 
d="M87 0v707h87v-326h104l231 326h100l-254 -351l256 -356h-103l-222 302h-112v-302h-87z" />
    <glyph glyph-name="uni0136" unicode="&#x136;" horiz-adv-x="625" 
d="M87 0v707h87v-326h104l231 326h100l-254 -351l256 -356h-103l-222 302h-112v-302h-87zM274 -304l-24 33q14 10 26 24t21.5 30t13.5 32q-26 2 -42 17t-16 40q0 28 18 43t42 15q33 0 48.5 -24t14.5 -55q-1 -33 -15 -65t-37 -56t-50 -34z" />
    <glyph glyph-name="L" unicode="L" horiz-adv-x="574" 
d="M87 0v707h87v-628h388v-79h-475z" />
    <glyph glyph-name="Lacute" unicode="&#x139;" horiz-adv-x="574" 
d="M87 0v707h87v-628h388v-79h-475zM93 786l85 141h92l-100 -141h-77z" />
    <glyph glyph-name="Lcaron" unicode="&#x13d;" horiz-adv-x="574" 
d="M87 0v707h87v-628h388v-79h-475zM333 480l-24 33q14 10 26 24t21.5 30t13.5 32q-26 2 -42 17t-16 40q0 28 16.5 43t43.5 15q34 0 48.5 -25t14.5 -54q0 -33 -14.5 -65t-37.5 -56t-50 -34z" />
    <glyph glyph-name="uni013B" unicode="&#x13b;" horiz-adv-x="574" 
d="M87 0v707h87v-628h388v-79h-475zM287 -304l-24 33q14 10 26 24t21.5 30t13.5 32q-26 2 -42 17t-16 40q0 28 18 43t42 15q33 0 48.5 -24t14.5 -55q-1 -33 -15 -65t-37 -56t-50 -34z" />
    <glyph glyph-name="Ldot" unicode="&#x13f;" horiz-adv-x="574" 
d="M87 0v707h87v-628h388v-79h-475zM367 345q-25 0 -41 16t-16 41t16 40.5t41 15.5q24 0 41 -15.5t17 -40.5t-16.5 -41t-41.5 -16z" />
    <glyph glyph-name="Lslash" unicode="&#x141;" horiz-adv-x="588" 
d="M101 0v292l-64 -42l-42 63l106 69v325h87v-269l90 59l42 -62l-132 -86v-270h388v-79h-475z" />
    <glyph glyph-name="M" unicode="M" horiz-adv-x="856" 
d="M87 0v707h132l212 -389l209 389h129v-707h-87v615l-233 -430h-40l-235 430v-615h-87z" />
    <glyph glyph-name="N" unicode="N" horiz-adv-x="741" 
d="M87 0v707h111l369 -589v589h87v-707h-109l-371 587v-587h-87z" />
    <glyph glyph-name="Nacute" unicode="&#x143;" horiz-adv-x="741" 
d="M87 0v707h111l369 -589v589h87v-707h-109l-371 587v-587h-87zM331 786l85 141h92l-100 -141h-77z" />
    <glyph glyph-name="Ncaron" unicode="&#x147;" horiz-adv-x="741" 
d="M87 0v707h111l369 -589v589h87v-707h-109l-371 587v-587h-87zM342 786l-135 163h87l78 -96l78 96h85l-134 -163h-59z" />
    <glyph glyph-name="uni0145" unicode="&#x145;" horiz-adv-x="741" 
d="M87 0v707h111l369 -589v589h87v-707h-109l-371 587v-587h-87zM328 -304l-24 33q14 10 26 24t21.5 30t13.5 32q-26 2 -42 17t-16 40q0 28 18 43t42 15q33 0 48.5 -24t14.5 -55q-1 -33 -15 -65t-37 -56t-50 -34z" />
    <glyph glyph-name="Ntilde" unicode="&#xd1;" horiz-adv-x="741" 
d="M87 0v707h111l369 -589v589h87v-707h-109l-371 587v-587h-87zM435 775q-25 0 -44 11t-34.5 25t-28.5 25t-25 11q-15 0 -21.5 -12.5t-7.5 -28t-1 -26.5h-69q0 33 8.5 62.5t30 48.5t61.5 19q25 0 44 -11t34.5 -25.5t28.5 -25.5t25 -11q17 0 23 12.5t7 28.5t1 27h70
q-1 -32 -9.5 -62t-30 -49t-62.5 -19z" />
    <glyph glyph-name="Eng" unicode="&#x14a;" horiz-adv-x="741" 
d="M432 -180v74h47q36 0 54.5 11.5t25.5 35t6 59.5h-19l-372 587v-587h-87v707h111l369 -590v590h87v-717q0 -58 -16.5 -96t-52.5 -56t-96 -18h-57z" />
    <glyph glyph-name="O" unicode="O" horiz-adv-x="761" 
d="M381 -8q-110 0 -184 47t-111.5 129t-37.5 185q0 104 37.5 186t111.5 129t184 47t183.5 -47t111 -129t37.5 -186q0 -103 -37.5 -185t-111 -129t-183.5 -47zM381 71q84 0 138 38.5t79.5 102.5t25.5 141q0 58 -14.5 109.5t-44.5 90.5t-76 61t-108 22q-83 0 -137.5 -39
t-81 -103t-26.5 -141q0 -76 26 -140t80.5 -103t138.5 -39z" />
    <glyph glyph-name="Oacute" unicode="&#xd3;" horiz-adv-x="761" 
d="M381 -8q-110 0 -184 47t-111.5 129t-37.5 185q0 104 37.5 186t111.5 129t184 47t183.5 -47t111 -129t37.5 -186q0 -103 -37.5 -185t-111 -129t-183.5 -47zM381 71q84 0 138 38.5t79.5 102.5t25.5 141q0 58 -14.5 109.5t-44.5 90.5t-76 61t-108 22q-83 0 -137.5 -39
t-81 -103t-26.5 -141q0 -76 26 -140t80.5 -103t138.5 -39zM341 786l85 141h92l-100 -141h-77z" />
    <glyph glyph-name="Obreve" unicode="&#x14e;" horiz-adv-x="761" 
d="M381 -8q-110 0 -184 47t-111.5 129t-37.5 185q0 104 37.5 186t111.5 129t184 47t183.5 -47t111 -129t37.5 -186q0 -103 -37.5 -185t-111 -129t-183.5 -47zM381 71q84 0 138 38.5t79.5 102.5t25.5 141q0 58 -14.5 109.5t-44.5 90.5t-76 61t-108 22q-83 0 -137.5 -39
t-81 -103t-26.5 -141q0 -76 26 -140t80.5 -103t138.5 -39zM380 781q-79 0 -123.5 34t-46.5 99h78q2 -35 26.5 -51t66.5 -16t66.5 16t26.5 51h78q-1 -43 -22 -73t-59 -45t-91 -15z" />
    <glyph glyph-name="Ocircumflex" unicode="&#xd4;" horiz-adv-x="761" 
d="M381 -8q-110 0 -184 47t-111.5 129t-37.5 185q0 104 37.5 186t111.5 129t184 47t183.5 -47t111 -129t37.5 -186q0 -103 -37.5 -185t-111 -129t-183.5 -47zM381 71q84 0 138 38.5t79.5 102.5t25.5 141q0 58 -14.5 109.5t-44.5 90.5t-76 61t-108 22q-83 0 -137.5 -39
t-81 -103t-26.5 -141q0 -76 26 -140t80.5 -103t138.5 -39zM217 786l133 163h60l134 -163h-86l-78 96l-78 -96h-85z" />
    <glyph glyph-name="Odieresis" unicode="&#xd6;" horiz-adv-x="761" 
d="M381 -8q-110 0 -184 47t-111.5 129t-37.5 185q0 104 37.5 186t111.5 129t184 47t183.5 -47t111 -129t37.5 -186q0 -103 -37.5 -185t-111 -129t-183.5 -47zM381 71q84 0 138 38.5t79.5 102.5t25.5 141q0 58 -14.5 109.5t-44.5 90.5t-76 61t-108 22q-83 0 -137.5 -39
t-81 -103t-26.5 -141q0 -76 26 -140t80.5 -103t138.5 -39zM493 788q-24 0 -40 15.5t-16 40.5t16 40.5t40 15.5q25 0 41.5 -15.5t16.5 -40.5t-16.5 -40.5t-41.5 -15.5zM268 788q-24 0 -40.5 15.5t-16.5 40.5t16.5 40.5t40.5 15.5q25 0 41.5 -15.5t16.5 -40.5t-16.5 -40.5
t-41.5 -15.5z" />
    <glyph glyph-name="Ograve" unicode="&#xd2;" horiz-adv-x="761" 
d="M381 -8q-110 0 -184 47t-111.5 129t-37.5 185q0 104 37.5 186t111.5 129t184 47t183.5 -47t111 -129t37.5 -186q0 -103 -37.5 -185t-111 -129t-183.5 -47zM381 71q84 0 138 38.5t79.5 102.5t25.5 141q0 58 -14.5 109.5t-44.5 90.5t-76 61t-108 22q-83 0 -137.5 -39
t-81 -103t-26.5 -141q0 -76 26 -140t80.5 -103t138.5 -39zM350 786l-100 141h92l85 -141h-77z" />
    <glyph glyph-name="Ohungarumlaut" unicode="&#x150;" horiz-adv-x="761" 
d="M381 -8q-110 0 -184 47t-111.5 129t-37.5 185q0 104 37.5 186t111.5 129t184 47t183.5 -47t111 -129t37.5 -186q0 -103 -37.5 -185t-111 -129t-183.5 -47zM381 71q84 0 138 38.5t79.5 102.5t25.5 141q0 58 -14.5 109.5t-44.5 90.5t-76 61t-108 22q-83 0 -137.5 -39
t-81 -103t-26.5 -141q0 -76 26 -140t80.5 -103t138.5 -39zM399 786l85 141h92l-100 -141h-77zM240 786l85 141h92l-100 -141h-77z" />
    <glyph glyph-name="Omacron" unicode="&#x14c;" horiz-adv-x="761" 
d="M381 -8q-110 0 -184 47t-111.5 129t-37.5 185q0 104 37.5 186t111.5 129t184 47t183.5 -47t111 -129t37.5 -186q0 -103 -37.5 -185t-111 -129t-183.5 -47zM381 71q84 0 138 38.5t79.5 102.5t25.5 141q0 58 -14.5 109.5t-44.5 90.5t-76 61t-108 22q-83 0 -137.5 -39
t-81 -103t-26.5 -141q0 -76 26 -140t80.5 -103t138.5 -39zM221 813v74h319v-74h-319z" />
    <glyph glyph-name="Oslash" unicode="&#xd8;" horiz-adv-x="761" 
d="M147 -110l59 144q-53 32 -88.5 79.5t-52.5 108t-17 131.5q0 104 37.5 186t111.5 129t184 47q27 0 52 -3t48 -9l47 113h85l-59 -143q55 -32 90 -79.5t52 -108t17 -132.5q0 -103 -37.5 -185t-111 -129t-183.5 -47q-28 0 -53.5 3t-48.5 9l-47 -114h-85zM238 112l212 515
q-16 5 -33 7t-36 2q-83 0 -137.5 -39t-81 -103t-26.5 -141q0 -53 12 -98.5t35 -81.5t55 -61zM381 71q84 0 138 38.5t79.5 102.5t25.5 141q0 53 -12 99t-34.5 82.5t-56.5 59.5l-211 -515q34 -8 71 -8z" />
    <glyph glyph-name="Otilde" unicode="&#xd5;" horiz-adv-x="761" 
d="M381 -8q-110 0 -184 47t-111.5 129t-37.5 185q0 104 37.5 186t111.5 129t184 47t183.5 -47t111 -129t37.5 -186q0 -103 -37.5 -185t-111 -129t-183.5 -47zM381 71q84 0 138 38.5t79.5 102.5t25.5 141q0 58 -14.5 109.5t-44.5 90.5t-76 61t-108 22q-83 0 -137.5 -39
t-81 -103t-26.5 -141q0 -76 26 -140t80.5 -103t138.5 -39zM445 775q-25 0 -44 11t-34.5 25t-28.5 25t-25 11q-15 0 -21.5 -12.5t-7.5 -28t-1 -26.5h-69q0 33 8.5 62.5t30 48.5t61.5 19q25 0 44 -11t34.5 -25.5t28.5 -25.5t25 -11q17 0 23 12.5t7 28.5t1 27h70
q-1 -32 -9.5 -62t-30 -49t-62.5 -19z" />
    <glyph glyph-name="OE" unicode="&#x152;" horiz-adv-x="1120" 
d="M381 -8q-110 0 -184 47t-111.5 129t-37.5 185q0 104 37.5 186t111.5 129t184 47q65 0 117 -17t99 -60v69h475v-79h-388v-238h349v-80h-349v-231h388v-79h-475v69q-46 -43 -99 -60t-117 -17zM381 71q50 0 90.5 14t72 40t53.5 63v330q-15 26 -43.5 53.5t-71 46t-101.5 18.5
q-83 0 -137.5 -39t-81 -103t-26.5 -141q0 -76 26 -140t80.5 -103t138.5 -39z" />
    <glyph glyph-name="P" unicode="P" horiz-adv-x="630" 
d="M87 0v707h245q78 0 134 -25.5t85.5 -77.5t29.5 -132q0 -78 -34.5 -131.5t-94.5 -80.5t-138 -27h-140v-233h-87zM174 312h136q81 0 131.5 38.5t50.5 125.5q0 76 -41 114t-123 38h-154v-316z" />
    <glyph glyph-name="Thorn" unicode="&#xde;" horiz-adv-x="630" 
d="M87 0v707h87v-124h158q78 0 133.5 -24t85.5 -74.5t30 -131.5q0 -80 -35.5 -132t-96 -77t-135.5 -25h-140v-119h-87zM174 198h136q55 0 95.5 16t63.5 51t23 92q0 76 -41 111.5t-123 35.5h-154v-306z" />
    <glyph glyph-name="Q" unicode="Q" horiz-adv-x="761" 
d="M630 -126l-106 145q-31 -13 -66.5 -20t-76.5 -7q-110 0 -184 47t-111.5 129t-37.5 185q0 104 37.5 186t111.5 129t184 47t183.5 -47t111 -129t37.5 -186q0 -91 -29.5 -164.5t-86.5 -122.5l101 -140zM381 71q84 0 138 38.5t79.5 102.5t25.5 141q0 78 -26 142t-80 102.5
t-137 38.5t-137.5 -39t-81 -103t-26.5 -141q0 -76 26 -140t80.5 -103t138.5 -39z" />
    <glyph glyph-name="R" unicode="R" horiz-adv-x="658" 
d="M87 0v707h265q59 0 105.5 -12t79.5 -38t50.5 -68.5t17.5 -102.5q0 -59 -22 -100.5t-58 -67.5t-78 -38l148 -280h-95l-141 265h-185v-265h-87zM174 344h150q39 0 73.5 6t61 21.5t41.5 44t16 73.5q1 51 -19 81.5t-59 44t-95 13.5h-169v-284z" />
    <glyph glyph-name="Racute" unicode="&#x154;" horiz-adv-x="658" 
d="M87 0v707h265q59 0 105.5 -12t79.5 -38t50.5 -68.5t17.5 -102.5q0 -59 -22 -100.5t-58 -67.5t-78 -38l148 -280h-95l-141 265h-185v-265h-87zM174 344h150q39 0 73.5 6t61 21.5t41.5 44t16 73.5q1 51 -19 81.5t-59 44t-95 13.5h-169v-284zM289 786l85 141h92l-100 -141
h-77z" />
    <glyph glyph-name="Rcaron" unicode="&#x158;" horiz-adv-x="658" 
d="M87 0v707h265q59 0 105.5 -12t79.5 -38t50.5 -68.5t17.5 -102.5q0 -59 -22 -100.5t-58 -67.5t-78 -38l148 -280h-95l-141 265h-185v-265h-87zM174 344h150q39 0 73.5 6t61 21.5t41.5 44t16 73.5q1 51 -19 81.5t-59 44t-95 13.5h-169v-284zM300 786l-135 163h87l78 -96
l78 96h85l-134 -163h-59z" />
    <glyph glyph-name="uni0156" unicode="&#x156;" horiz-adv-x="658" 
d="M87 0v707h265q59 0 105.5 -12t79.5 -38t50.5 -68.5t17.5 -102.5q0 -59 -22 -100.5t-58 -67.5t-78 -38l148 -280h-95l-141 265h-185v-265h-87zM174 344h150q39 0 73.5 6t61 21.5t41.5 44t16 73.5q1 51 -19 81.5t-59 44t-95 13.5h-169v-284zM290 -304l-24 33q14 10 26 24
t21.5 30t13.5 32q-26 2 -42 17t-16 40q0 28 18 43t42 15q33 0 48.5 -24t14.5 -55q-1 -33 -15 -65t-37 -56t-50 -34z" />
    <glyph glyph-name="S" unicode="S" horiz-adv-x="652" 
d="M342 -8q-67 0 -126.5 18.5t-101.5 61t-57 113.5h91q14 -45 45.5 -70t72.5 -34.5t82 -9.5t76.5 11.5t58 37.5t22.5 67q0 32 -11.5 52t-32 32.5t-48.5 20.5q-37 12 -79 20t-82.5 19t-75.5 28q-19 10 -36.5 24.5t-30 34t-20 44.5t-7.5 55q0 45 14 78t38 56t56 37t68.5 20.5
t73.5 6.5q61 0 114.5 -18.5t89 -59.5t38.5 -111h-85q-5 42 -28 66t-57 34t-72 10q-28 0 -56.5 -5t-52 -17.5t-37.5 -34t-14 -54.5q0 -26 9.5 -46t26 -33.5t36.5 -22.5q48 -20 106.5 -29.5t109.5 -27.5q30 -10 55 -25t42.5 -35t27 -45.5t9.5 -57.5q0 -58 -20 -98.5t-55 -65.5
t-80.5 -36t-96.5 -11z" />
    <glyph glyph-name="Sacute" unicode="&#x15a;" horiz-adv-x="652" 
d="M342 -8q-67 0 -126.5 18.5t-101.5 61t-57 113.5h91q14 -45 45.5 -70t72.5 -34.5t82 -9.5t76.5 11.5t58 37.5t22.5 67q0 32 -11.5 52t-32 32.5t-48.5 20.5q-37 12 -79 20t-82.5 19t-75.5 28q-19 10 -36.5 24.5t-30 34t-20 44.5t-7.5 55q0 45 14 78t38 56t56 37t68.5 20.5
t73.5 6.5q61 0 114.5 -18.5t89 -59.5t38.5 -111h-85q-5 42 -28 66t-57 34t-72 10q-28 0 -56.5 -5t-52 -17.5t-37.5 -34t-14 -54.5q0 -26 9.5 -46t26 -33.5t36.5 -22.5q48 -20 106.5 -29.5t109.5 -27.5q30 -10 55 -25t42.5 -35t27 -45.5t9.5 -57.5q0 -58 -20 -98.5t-55 -65.5
t-80.5 -36t-96.5 -11zM286 786l85 141h92l-100 -141h-77z" />
    <glyph glyph-name="Scaron" unicode="&#x160;" horiz-adv-x="652" 
d="M342 -8q-67 0 -126.5 18.5t-101.5 61t-57 113.5h91q14 -45 45.5 -70t72.5 -34.5t82 -9.5t76.5 11.5t58 37.5t22.5 67q0 32 -11.5 52t-32 32.5t-48.5 20.5q-37 12 -79 20t-82.5 19t-75.5 28q-19 10 -36.5 24.5t-30 34t-20 44.5t-7.5 55q0 45 14 78t38 56t56 37t68.5 20.5
t73.5 6.5q61 0 114.5 -18.5t89 -59.5t38.5 -111h-85q-5 42 -28 66t-57 34t-72 10q-28 0 -56.5 -5t-52 -17.5t-37.5 -34t-14 -54.5q0 -26 9.5 -46t26 -33.5t36.5 -22.5q48 -20 106.5 -29.5t109.5 -27.5q30 -10 55 -25t42.5 -35t27 -45.5t9.5 -57.5q0 -58 -20 -98.5t-55 -65.5
t-80.5 -36t-96.5 -11zM297 786l-135 163h87l78 -96l78 96h85l-134 -163h-59z" />
    <glyph glyph-name="Scedilla" unicode="&#x15e;" horiz-adv-x="652" 
d="M342 -8q-67 0 -126.5 18.5t-101.5 61t-57 113.5h91q14 -45 45.5 -70t72.5 -34.5t82 -9.5t76.5 11.5t58 37.5t22.5 67q0 32 -11.5 52t-32 32.5t-48.5 20.5q-37 12 -79 20t-82.5 19t-75.5 28q-19 10 -36.5 24.5t-30 34t-20 44.5t-7.5 55q0 45 14 78t38 56t56 37t68.5 20.5
t73.5 6.5q61 0 114.5 -18.5t89 -59.5t38.5 -111h-85q-5 42 -28 66t-57 34t-72 10q-28 0 -56.5 -5t-52 -17.5t-37.5 -34t-14 -54.5q0 -26 9.5 -46t26 -33.5t36.5 -22.5q48 -20 106.5 -29.5t109.5 -27.5q30 -10 55 -25t42.5 -35t27 -45.5t9.5 -57.5q0 -58 -20 -98.5t-55 -65.5
t-80.5 -36t-96.5 -11zM324 -251q-14 -2 -29.5 -3t-32.5 -1v55q17 0 36 1t36 6t28 16t11 30q0 17 -11.5 24.5t-25 9t-20.5 1.5q-10 0 -24.5 -2t-27.5 -7l29 127h62l-15 -67q6 1 12 1.5t11 0.5q39 0 59 -21.5t20 -59.5q0 -36 -15.5 -59t-42 -35t-60.5 -17z" />
    <glyph glyph-name="Scircumflex" unicode="&#x15c;" horiz-adv-x="652" 
d="M342 -8q-67 0 -126.5 18.5t-101.5 61t-57 113.5h91q14 -45 45.5 -70t72.5 -34.5t82 -9.5t76.5 11.5t58 37.5t22.5 67q0 32 -11.5 52t-32 32.5t-48.5 20.5q-37 12 -79 20t-82.5 19t-75.5 28q-19 10 -36.5 24.5t-30 34t-20 44.5t-7.5 55q0 45 14 78t38 56t56 37t68.5 20.5
t73.5 6.5q61 0 114.5 -18.5t89 -59.5t38.5 -111h-85q-5 42 -28 66t-57 34t-72 10q-28 0 -56.5 -5t-52 -17.5t-37.5 -34t-14 -54.5q0 -26 9.5 -46t26 -33.5t36.5 -22.5q48 -20 106.5 -29.5t109.5 -27.5q30 -10 55 -25t42.5 -35t27 -45.5t9.5 -57.5q0 -58 -20 -98.5t-55 -65.5
t-80.5 -36t-96.5 -11zM162 786l133 163h60l134 -163h-86l-78 96l-78 -96h-85z" />
    <glyph glyph-name="uni0218" unicode="&#x218;" horiz-adv-x="652" 
d="M342 -8q-67 0 -126.5 18.5t-101.5 61t-57 113.5h91q14 -45 45.5 -70t72.5 -34.5t82 -9.5t76.5 11.5t58 37.5t22.5 67q0 32 -11.5 52t-32 32.5t-48.5 20.5q-37 12 -79 20t-82.5 19t-75.5 28q-19 10 -36.5 24.5t-30 34t-20 44.5t-7.5 55q0 45 14 78t38 56t56 37t68.5 20.5
t73.5 6.5q61 0 114.5 -18.5t89 -59.5t38.5 -111h-85q-5 42 -28 66t-57 34t-72 10q-28 0 -56.5 -5t-52 -17.5t-37.5 -34t-14 -54.5q0 -26 9.5 -46t26 -33.5t36.5 -22.5q48 -20 106.5 -29.5t109.5 -27.5q30 -10 55 -25t42.5 -35t27 -45.5t9.5 -57.5q0 -58 -20 -98.5t-55 -65.5
t-80.5 -36t-96.5 -11zM287 -304l-24 33q14 10 26 24t21.5 30t13.5 32q-26 2 -42 17t-16 40q0 28 18 43t42 15q33 0 48.5 -24t14.5 -55q-1 -33 -15 -65t-37 -56t-50 -34z" />
    <glyph glyph-name="uni1E9E" unicode="&#x1e9e;" horiz-adv-x="692" 
d="M460 -8q-52 0 -94.5 17t-69.5 50t-34 80h88q8 -35 39 -51.5t74 -16.5q45 0 71 23.5t26 60.5q0 38 -25.5 65t-60.5 46t-65 32q-32 14 -61.5 26.5t-54.5 22.5l162 218q-18 38 -57 54.5t-77 16.5q-41 0 -75 -15.5t-54 -44.5t-20 -71v-505h-87v513q0 68 32 112.5t87 67
t123 22.5q51 0 98 -16.5t81 -50t46 -83.5l-144 -181q20 -9 41.5 -18t41.5 -19q42 -20 77.5 -46t57 -61t21.5 -84q0 -50 -24 -87t-66 -57t-97 -20z" />
    <glyph glyph-name="T" unicode="T" horiz-adv-x="569" 
d="M241 0v628h-227v79h541v-79h-227v-628h-87z" />
    <glyph glyph-name="Tbar" unicode="&#x166;" horiz-adv-x="569" 
d="M241 0v303h-121v74h121v251h-227v79h541v-79h-227v-251h121v-74h-121v-303h-87z" />
    <glyph glyph-name="Tcaron" unicode="&#x164;" horiz-adv-x="569" 
d="M241 0v628h-227v79h541v-79h-227v-628h-87zM256 786l-135 163h87l78 -96l78 96h85l-134 -163h-59z" />
    <glyph glyph-name="uni0162" unicode="&#x162;" horiz-adv-x="569" 
d="M241 0v628h-227v79h541v-79h-227v-628h-87zM283 -251q-14 -2 -29.5 -3t-32.5 -1v55q17 0 36 1t36 6t28 16t11 30q0 17 -11.5 24.5t-25 9t-20.5 1.5q-10 0 -24.5 -2t-27.5 -7l29 127h62l-15 -67q6 1 12 1.5t11 0.5q39 0 59 -21.5t20 -59.5q0 -36 -15.5 -59t-42 -35
t-60.5 -17z" />
    <glyph glyph-name="uni021A" unicode="&#x21a;" horiz-adv-x="569" 
d="M241 0v628h-227v79h541v-79h-227v-628h-87zM246 -304l-24 33q14 10 26 24t21.5 30t13.5 32q-26 2 -42 17t-16 40q0 28 18 43t42 15q33 0 48.5 -24t14.5 -55q-1 -33 -15 -65t-37 -56t-50 -34z" />
    <glyph glyph-name="U" unicode="U" horiz-adv-x="726" 
d="M363 -8q-99 0 -161 41t-91 111.5t-29 160.5v402h87v-401q0 -64 18.5 -117.5t61.5 -85.5t115 -32q73 0 114.5 32t59.5 85.5t18 117.5v401h88v-402q0 -89 -29 -160t-91 -112t-161 -41z" />
    <glyph glyph-name="Uacute" unicode="&#xda;" horiz-adv-x="726" 
d="M363 -8q-99 0 -161 41t-91 111.5t-29 160.5v402h87v-401q0 -64 18.5 -117.5t61.5 -85.5t115 -32q73 0 114.5 32t59.5 85.5t18 117.5v401h88v-402q0 -89 -29 -160t-91 -112t-161 -41zM323 786l85 141h92l-100 -141h-77z" />
    <glyph glyph-name="Ubreve" unicode="&#x16c;" horiz-adv-x="726" 
d="M363 -8q-99 0 -161 41t-91 111.5t-29 160.5v402h87v-401q0 -64 18.5 -117.5t61.5 -85.5t115 -32q73 0 114.5 32t59.5 85.5t18 117.5v401h88v-402q0 -89 -29 -160t-91 -112t-161 -41zM362 781q-79 0 -123.5 34t-46.5 99h78q2 -35 26.5 -51t66.5 -16t66.5 16t26.5 51h78
q-1 -43 -22 -73t-59 -45t-91 -15z" />
    <glyph glyph-name="Ucircumflex" unicode="&#xdb;" horiz-adv-x="726" 
d="M363 -8q-99 0 -161 41t-91 111.5t-29 160.5v402h87v-401q0 -64 18.5 -117.5t61.5 -85.5t115 -32q73 0 114.5 32t59.5 85.5t18 117.5v401h88v-402q0 -89 -29 -160t-91 -112t-161 -41zM199 786l133 163h60l134 -163h-86l-78 96l-78 -96h-85z" />
    <glyph glyph-name="Udieresis" unicode="&#xdc;" horiz-adv-x="726" 
d="M363 -8q-99 0 -161 41t-91 111.5t-29 160.5v402h87v-401q0 -64 18.5 -117.5t61.5 -85.5t115 -32q73 0 114.5 32t59.5 85.5t18 117.5v401h88v-402q0 -89 -29 -160t-91 -112t-161 -41zM475 788q-24 0 -40 15.5t-16 40.5t16 40.5t40 15.5q25 0 41.5 -15.5t16.5 -40.5
t-16.5 -40.5t-41.5 -15.5zM250 788q-24 0 -40.5 15.5t-16.5 40.5t16.5 40.5t40.5 15.5q25 0 41.5 -15.5t16.5 -40.5t-16.5 -40.5t-41.5 -15.5z" />
    <glyph glyph-name="Ugrave" unicode="&#xd9;" horiz-adv-x="726" 
d="M363 -8q-99 0 -161 41t-91 111.5t-29 160.5v402h87v-401q0 -64 18.5 -117.5t61.5 -85.5t115 -32q73 0 114.5 32t59.5 85.5t18 117.5v401h88v-402q0 -89 -29 -160t-91 -112t-161 -41zM332 786l-100 141h92l85 -141h-77z" />
    <glyph glyph-name="Uhungarumlaut" unicode="&#x170;" horiz-adv-x="726" 
d="M363 -8q-99 0 -161 41t-91 111.5t-29 160.5v402h87v-401q0 -64 18.5 -117.5t61.5 -85.5t115 -32q73 0 114.5 32t59.5 85.5t18 117.5v401h88v-402q0 -89 -29 -160t-91 -112t-161 -41zM381 786l85 141h92l-100 -141h-77zM222 786l85 141h92l-100 -141h-77z" />
    <glyph glyph-name="Umacron" unicode="&#x16a;" horiz-adv-x="726" 
d="M363 -8q-99 0 -161 41t-91 111.5t-29 160.5v402h87v-401q0 -64 18.5 -117.5t61.5 -85.5t115 -32q73 0 114.5 32t59.5 85.5t18 117.5v401h88v-402q0 -89 -29 -160t-91 -112t-161 -41zM203 813v74h319v-74h-319z" />
    <glyph glyph-name="Uogonek" unicode="&#x172;" horiz-adv-x="726" 
d="M363 -8q-99 0 -161 41t-91 111.5t-29 160.5v402h87v-401q0 -64 18.5 -117.5t61.5 -85.5t115 -32q73 0 114.5 32t59.5 85.5t18 117.5v401h88v-402q0 -89 -29 -160t-91 -112t-161 -41zM413 -224q-61 1 -95 31.5t-34 81.5q0 45 29 77t67 49l63 -10q-33 -17 -59 -45t-26 -61
q0 -28 17.5 -43.5t46.5 -15.5q12 0 24 3t24 9l14 -59q-18 -10 -34.5 -13.5t-36.5 -3.5z" />
    <glyph glyph-name="Uring" unicode="&#x16e;" horiz-adv-x="726" 
d="M363 -8q-99 0 -161 41t-91 111.5t-29 160.5v402h87v-401q0 -64 18.5 -117.5t61.5 -85.5t115 -32q73 0 114.5 32t59.5 85.5t18 117.5v401h88v-402q0 -89 -29 -160t-91 -112t-161 -41zM362 753q-44 0 -71 25.5t-27 69.5t27.5 72.5t71.5 28.5t71 -29t27 -72q0 -44 -28 -69.5
t-71 -25.5zM362 805q20 0 31.5 12.5t11.5 32.5t-11.5 32.5t-31.5 12.5t-31.5 -12.5t-11.5 -32.5t11.5 -32.5t31.5 -12.5z" />
    <glyph glyph-name="Utilde" unicode="&#x168;" horiz-adv-x="726" 
d="M363 -8q-99 0 -161 41t-91 111.5t-29 160.5v402h87v-401q0 -64 18.5 -117.5t61.5 -85.5t115 -32q73 0 114.5 32t59.5 85.5t18 117.5v401h88v-402q0 -89 -29 -160t-91 -112t-161 -41zM427 775q-25 0 -44 11t-34.5 25t-28.5 25t-25 11q-15 0 -21.5 -12.5t-7.5 -28t-1 -26.5
h-69q0 33 8.5 62.5t30 48.5t61.5 19q25 0 44 -11t34.5 -25.5t28.5 -25.5t25 -11q17 0 23 12.5t7 28.5t1 27h70q-1 -32 -9.5 -62t-30 -49t-62.5 -19z" />
    <glyph glyph-name="V" unicode="V" horiz-adv-x="683" 
d="M279 0l-265 707h95l233 -632l233 632h94l-264 -707h-126z" />
    <glyph glyph-name="W" unicode="W" horiz-adv-x="983" 
d="M206 0l-192 707h98l161 -632l154 632h133l154 -632l161 632h94l-192 -707h-132l-154 624l-154 -624h-131z" />
    <glyph glyph-name="Wacute" unicode="&#x1e82;" horiz-adv-x="983" 
d="M206 0l-192 707h98l161 -632l154 632h133l154 -632l161 632h94l-192 -707h-132l-154 624l-154 -624h-131zM452 786l85 141h92l-100 -141h-77z" />
    <glyph glyph-name="Wcircumflex" unicode="&#x174;" horiz-adv-x="983" 
d="M206 0l-192 707h98l161 -632l154 632h133l154 -632l161 632h94l-192 -707h-132l-154 624l-154 -624h-131zM328 786l133 163h60l134 -163h-86l-78 96l-78 -96h-85z" />
    <glyph glyph-name="Wdieresis" unicode="&#x1e84;" horiz-adv-x="983" 
d="M206 0l-192 707h98l161 -632l154 632h133l154 -632l161 632h94l-192 -707h-132l-154 624l-154 -624h-131zM604 788q-24 0 -40 15.5t-16 40.5t16 40.5t40 15.5q25 0 41.5 -15.5t16.5 -40.5t-16.5 -40.5t-41.5 -15.5zM379 788q-24 0 -40.5 15.5t-16.5 40.5t16.5 40.5
t40.5 15.5q25 0 41.5 -15.5t16.5 -40.5t-16.5 -40.5t-41.5 -15.5z" />
    <glyph glyph-name="Wgrave" unicode="&#x1e80;" horiz-adv-x="983" 
d="M206 0l-192 707h98l161 -632l154 632h133l154 -632l161 632h94l-192 -707h-132l-154 624l-154 -624h-131zM461 786l-100 141h92l85 -141h-77z" />
    <glyph glyph-name="X" unicode="X" horiz-adv-x="593" 
d="M14 0l227 353l-220 354h106l170 -282l169 282h105l-220 -351l228 -356h-105l-178 283l-180 -283h-102z" />
    <glyph glyph-name="Y" unicode="Y" horiz-adv-x="614" 
d="M264 0v265l-250 442h101l194 -354l192 354h99l-249 -441v-266h-87z" />
    <glyph glyph-name="Yacute" unicode="&#xdd;" horiz-adv-x="614" 
d="M264 0v265l-250 442h101l194 -354l192 354h99l-249 -441v-266h-87zM267 786l85 141h92l-100 -141h-77z" />
    <glyph glyph-name="Ycircumflex" unicode="&#x176;" horiz-adv-x="614" 
d="M264 0v265l-250 442h101l194 -354l192 354h99l-249 -441v-266h-87zM143 786l133 163h60l134 -163h-86l-78 96l-78 -96h-85z" />
    <glyph glyph-name="Ydieresis" unicode="&#x178;" horiz-adv-x="614" 
d="M264 0v265l-250 442h101l194 -354l192 354h99l-249 -441v-266h-87zM419 788q-24 0 -40 15.5t-16 40.5t16 40.5t40 15.5q25 0 41.5 -15.5t16.5 -40.5t-16.5 -40.5t-41.5 -15.5zM194 788q-24 0 -40.5 15.5t-16.5 40.5t16.5 40.5t40.5 15.5q25 0 41.5 -15.5t16.5 -40.5
t-16.5 -40.5t-41.5 -15.5z" />
    <glyph glyph-name="Ygrave" unicode="&#x1ef2;" horiz-adv-x="614" 
d="M264 0v265l-250 442h101l194 -354l192 354h99l-249 -441v-266h-87zM276 786l-100 141h92l85 -141h-77z" />
    <glyph glyph-name="Z" unicode="Z" horiz-adv-x="597" 
d="M44 0v69l392 559h-379v79h496v-68l-397 -560h390v-79h-502z" />
    <glyph glyph-name="Zacute" unicode="&#x179;" horiz-adv-x="597" 
d="M44 0v69l392 559h-379v79h496v-68l-397 -560h390v-79h-502zM259 786l85 141h92l-100 -141h-77z" />
    <glyph glyph-name="Zcaron" unicode="&#x17d;" horiz-adv-x="597" 
d="M44 0v69l392 559h-379v79h496v-68l-397 -560h390v-79h-502zM270 786l-135 163h87l78 -96l78 96h85l-134 -163h-59z" />
    <glyph glyph-name="Zdotaccent" unicode="&#x17b;" horiz-adv-x="597" 
d="M44 0v69l392 559h-379v79h496v-68l-397 -560h390v-79h-502zM298 785q-26 0 -41.5 16t-15.5 41t16 40.5t41 15.5q23 0 40.5 -16t17.5 -40q0 -25 -17 -41t-41 -16z" />
    <glyph glyph-name="I_alt" horiz-adv-x="565" 
d="M45 0v79h194v549h-194v79h475v-79h-194v-549h194v-79h-475z" />
    <glyph glyph-name="K_alt" horiz-adv-x="630" 
d="M87 0v707h87v-365l339 365h101l-299 -319l301 -388h-103l-261 332l-78 -83v-249h-87z" />
    <glyph glyph-name="W_alt" horiz-adv-x="929" 
d="M207 0l-193 707h98l163 -632l140 463h104l139 -463l163 632h94l-193 -707h-128l-128 417l-127 -417h-132z" />
    <glyph glyph-name="a" unicode="a" horiz-adv-x="555" 
d="M236 -6q-36 0 -69.5 9.5t-60 29t-42 49t-15.5 68.5q0 45 16.5 76t44.5 49t65 26t77 8h155q0 45 -12.5 78t-40.5 51.5t-74 18.5q-28 0 -52 -6t-41 -19t-25 -35h-91q7 36 27.5 61.5t50 42t63.5 24.5t68 8q114 0 162 -67t48 -181v-285h-71l-5 67q-22 -30 -53 -46
t-63.5 -21.5t-61.5 -5.5zM244 69q50 0 86.5 16.5t56.5 48.5t20 78v26h-93q-33 0 -65 -1t-58 -8t-41.5 -24t-15.5 -49q0 -30 15.5 -49t41 -28.5t53.5 -9.5z" />
    <glyph glyph-name="aacute" unicode="&#xe1;" horiz-adv-x="555" 
d="M236 -6q-36 0 -69.5 9.5t-60 29t-42 49t-15.5 68.5q0 45 16.5 76t44.5 49t65 26t77 8h155q0 45 -12.5 78t-40.5 51.5t-74 18.5q-28 0 -52 -6t-41 -19t-25 -35h-91q7 36 27.5 61.5t50 42t63.5 24.5t68 8q114 0 162 -67t48 -181v-285h-71l-5 67q-22 -30 -53 -46
t-63.5 -21.5t-61.5 -5.5zM244 69q50 0 86.5 16.5t56.5 48.5t20 78v26h-93q-33 0 -65 -1t-58 -8t-41.5 -24t-15.5 -49q0 -30 15.5 -49t41 -28.5t53.5 -9.5zM243 611l85 141h92l-100 -141h-77z" />
    <glyph glyph-name="abreve" unicode="&#x103;" horiz-adv-x="555" 
d="M236 -6q-36 0 -69.5 9.5t-60 29t-42 49t-15.5 68.5q0 45 16.5 76t44.5 49t65 26t77 8h155q0 45 -12.5 78t-40.5 51.5t-74 18.5q-28 0 -52 -6t-41 -19t-25 -35h-91q7 36 27.5 61.5t50 42t63.5 24.5t68 8q114 0 162 -67t48 -181v-285h-71l-5 67q-22 -30 -53 -46
t-63.5 -21.5t-61.5 -5.5zM244 69q50 0 86.5 16.5t56.5 48.5t20 78v26h-93q-33 0 -65 -1t-58 -8t-41.5 -24t-15.5 -49q0 -30 15.5 -49t41 -28.5t53.5 -9.5zM282 606q-79 0 -123.5 34t-46.5 99h78q2 -35 26.5 -51t66.5 -16t66.5 16t26.5 51h78q-1 -43 -22 -73t-59 -45t-91 -15
z" />
    <glyph glyph-name="acircumflex" unicode="&#xe2;" horiz-adv-x="555" 
d="M236 -6q-36 0 -69.5 9.5t-60 29t-42 49t-15.5 68.5q0 45 16.5 76t44.5 49t65 26t77 8h155q0 45 -12.5 78t-40.5 51.5t-74 18.5q-28 0 -52 -6t-41 -19t-25 -35h-91q7 36 27.5 61.5t50 42t63.5 24.5t68 8q114 0 162 -67t48 -181v-285h-71l-5 67q-22 -30 -53 -46
t-63.5 -21.5t-61.5 -5.5zM244 69q50 0 86.5 16.5t56.5 48.5t20 78v26h-93q-33 0 -65 -1t-58 -8t-41.5 -24t-15.5 -49q0 -30 15.5 -49t41 -28.5t53.5 -9.5zM119 611l133 163h60l134 -163h-86l-78 96l-78 -96h-85z" />
    <glyph glyph-name="adieresis" unicode="&#xe4;" horiz-adv-x="555" 
d="M236 -6q-36 0 -69.5 9.5t-60 29t-42 49t-15.5 68.5q0 45 16.5 76t44.5 49t65 26t77 8h155q0 45 -12.5 78t-40.5 51.5t-74 18.5q-28 0 -52 -6t-41 -19t-25 -35h-91q7 36 27.5 61.5t50 42t63.5 24.5t68 8q114 0 162 -67t48 -181v-285h-71l-5 67q-22 -30 -53 -46
t-63.5 -21.5t-61.5 -5.5zM244 69q50 0 86.5 16.5t56.5 48.5t20 78v26h-93q-33 0 -65 -1t-58 -8t-41.5 -24t-15.5 -49q0 -30 15.5 -49t41 -28.5t53.5 -9.5zM395 613q-24 0 -40 15.5t-16 40.5t16 40.5t40 15.5q25 0 41.5 -15.5t16.5 -40.5t-16.5 -40.5t-41.5 -15.5zM170 613
q-24 0 -40.5 15.5t-16.5 40.5t16.5 40.5t40.5 15.5q25 0 41.5 -15.5t16.5 -40.5t-16.5 -40.5t-41.5 -15.5z" />
    <glyph glyph-name="agrave" unicode="&#xe0;" horiz-adv-x="555" 
d="M236 -6q-36 0 -69.5 9.5t-60 29t-42 49t-15.5 68.5q0 45 16.5 76t44.5 49t65 26t77 8h155q0 45 -12.5 78t-40.5 51.5t-74 18.5q-28 0 -52 -6t-41 -19t-25 -35h-91q7 36 27.5 61.5t50 42t63.5 24.5t68 8q114 0 162 -67t48 -181v-285h-71l-5 67q-22 -30 -53 -46
t-63.5 -21.5t-61.5 -5.5zM244 69q50 0 86.5 16.5t56.5 48.5t20 78v26h-93q-33 0 -65 -1t-58 -8t-41.5 -24t-15.5 -49q0 -30 15.5 -49t41 -28.5t53.5 -9.5zM252 611l-100 141h92l85 -141h-77z" />
    <glyph glyph-name="amacron" unicode="&#x101;" horiz-adv-x="555" 
d="M236 -6q-36 0 -69.5 9.5t-60 29t-42 49t-15.5 68.5q0 45 16.5 76t44.5 49t65 26t77 8h155q0 45 -12.5 78t-40.5 51.5t-74 18.5q-28 0 -52 -6t-41 -19t-25 -35h-91q7 36 27.5 61.5t50 42t63.5 24.5t68 8q114 0 162 -67t48 -181v-285h-71l-5 67q-22 -30 -53 -46
t-63.5 -21.5t-61.5 -5.5zM244 69q50 0 86.5 16.5t56.5 48.5t20 78v26h-93q-33 0 -65 -1t-58 -8t-41.5 -24t-15.5 -49q0 -30 15.5 -49t41 -28.5t53.5 -9.5zM123 638v74h319v-74h-319z" />
    <glyph glyph-name="aogonek" unicode="&#x105;" horiz-adv-x="555" 
d="M236 -6q-36 0 -69.5 9.5t-60 29t-42 49t-15.5 68.5q0 45 16.5 76t44.5 49t65 26t77 8h155q0 45 -12.5 78t-40.5 51.5t-74 18.5q-28 0 -52 -6t-41 -19t-25 -35h-91q7 36 27.5 61.5t50 42t63.5 24.5t68 8q114 0 162 -67t48 -181v-285h-71l-5 67q-22 -30 -53 -46
t-63.5 -21.5t-61.5 -5.5zM244 69q50 0 86.5 16.5t56.5 48.5t20 78v26h-93q-33 0 -65 -1t-58 -8t-41.5 -24t-15.5 -49q0 -30 15.5 -49t41 -28.5t53.5 -9.5zM460 -224q-61 1 -95 31.5t-34 81.5q0 45 29 77t67 49l63 -10q-33 -17 -59 -45t-26 -61q0 -28 17.5 -43.5t46.5 -15.5
q12 0 24 3t24 9l14 -59q-18 -10 -34.5 -13.5t-36.5 -3.5z" />
    <glyph glyph-name="aring" unicode="&#xe5;" horiz-adv-x="555" 
d="M236 -6q-36 0 -69.5 9.5t-60 29t-42 49t-15.5 68.5q0 45 16.5 76t44.5 49t65 26t77 8h155q0 45 -12.5 78t-40.5 51.5t-74 18.5q-28 0 -52 -6t-41 -19t-25 -35h-91q7 36 27.5 61.5t50 42t63.5 24.5t68 8q114 0 162 -67t48 -181v-285h-71l-5 67q-22 -30 -53 -46
t-63.5 -21.5t-61.5 -5.5zM244 69q50 0 86.5 16.5t56.5 48.5t20 78v26h-93q-33 0 -65 -1t-58 -8t-41.5 -24t-15.5 -49q0 -30 15.5 -49t41 -28.5t53.5 -9.5zM282 578q-44 0 -71 25.5t-27 69.5t27.5 72.5t71.5 28.5t71 -29t27 -72q0 -44 -28 -69.5t-71 -25.5zM282 630
q20 0 31.5 12.5t11.5 32.5t-11.5 32.5t-31.5 12.5t-31.5 -12.5t-11.5 -32.5t11.5 -32.5t31.5 -12.5z" />
    <glyph glyph-name="atilde" unicode="&#xe3;" horiz-adv-x="555" 
d="M236 -6q-36 0 -69.5 9.5t-60 29t-42 49t-15.5 68.5q0 45 16.5 76t44.5 49t65 26t77 8h155q0 45 -12.5 78t-40.5 51.5t-74 18.5q-28 0 -52 -6t-41 -19t-25 -35h-91q7 36 27.5 61.5t50 42t63.5 24.5t68 8q114 0 162 -67t48 -181v-285h-71l-5 67q-22 -30 -53 -46
t-63.5 -21.5t-61.5 -5.5zM244 69q50 0 86.5 16.5t56.5 48.5t20 78v26h-93q-33 0 -65 -1t-58 -8t-41.5 -24t-15.5 -49q0 -30 15.5 -49t41 -28.5t53.5 -9.5zM347 600q-25 0 -44 11t-34.5 25t-28.5 25t-25 11q-15 0 -21.5 -12.5t-7.5 -28t-1 -26.5h-69q0 33 8.5 62.5t30 48.5
t61.5 19q25 0 44 -11t34.5 -25.5t28.5 -25.5t25 -11q17 0 23 12.5t7 28.5t1 27h70q-1 -32 -9.5 -62t-30 -49t-62.5 -19z" />
    <glyph glyph-name="ae" unicode="&#xe6;" horiz-adv-x="929" 
d="M241 -6q-48 0 -92 16.5t-72 51.5t-28 88q0 46 16.5 76.5t45 48t65 24.5t76.5 7h155q0 50 -14.5 83.5t-43.5 50.5t-73 17q-34 0 -67 -12t-47 -48h-91q9 48 42 78t78 44t89 14q54 0 102 -22t76 -73q29 43 77.5 69t115.5 26q69 0 121 -34t81.5 -93t29.5 -134q0 -10 -0.5 -20
t-1.5 -20h-391q1 -50 20 -87t56 -56.5t88 -19.5q26 0 52.5 6.5t48 22.5t30.5 43h87q-12 -52 -45.5 -84.5t-79.5 -47.5t-95 -15q-56 0 -112 21t-90 70q-26 -33 -57 -53t-68.5 -29t-83.5 -9zM249 69q54 0 89 19t52 54.5t17 84.5v5h-156q-21 0 -41.5 -2.5t-38 -10.5
t-27.5 -23.5t-10 -41.5q0 -31 17 -49.5t43.5 -27t54.5 -8.5zM492 306h305q-1 44 -19.5 78t-51 53.5t-78.5 19.5t-79.5 -19t-53 -53t-23.5 -79z" />
    <glyph glyph-name="b" unicode="b" horiz-adv-x="604" 
d="M316 -6q-36 0 -66.5 8.5t-55 24.5t-42.5 37l-4 -64h-81v707h85v-256q26 40 74.5 61t99.5 21q80 0 131 -35.5t75.5 -96t24.5 -136.5q0 -75 -26 -136.5t-79 -98t-136 -36.5zM315 69q58 0 92 26.5t49.5 70.5t15.5 97q0 54 -15.5 98t-50.5 70t-93 26q-52 0 -88.5 -29
t-55.5 -74t-19 -92q0 -51 16.5 -95t53 -71t95.5 -27z" />
    <glyph glyph-name="c" unicode="c" horiz-adv-x="553" 
d="M292 -6q-83 0 -137.5 34.5t-81 95.5t-26.5 138q0 75 27.5 136.5t84 98t143.5 36.5q54 0 96.5 -18t70.5 -52.5t39 -86.5h-87q-15 44 -47.5 62.5t-76.5 18.5q-60 0 -96 -28t-52.5 -72.5t-16.5 -94.5q0 -52 17 -96t53 -70.5t93 -26.5q42 0 79.5 18t49.5 64h88
q-10 -54 -42.5 -89t-79 -51.5t-98.5 -16.5z" />
    <glyph glyph-name="cacute" unicode="&#x107;" horiz-adv-x="553" 
d="M292 -6q-83 0 -137.5 34.5t-81 95.5t-26.5 138q0 75 27.5 136.5t84 98t143.5 36.5q54 0 96.5 -18t70.5 -52.5t39 -86.5h-87q-15 44 -47.5 62.5t-76.5 18.5q-60 0 -96 -28t-52.5 -72.5t-16.5 -94.5q0 -52 17 -96t53 -70.5t93 -26.5q42 0 79.5 18t49.5 64h88
q-10 -54 -42.5 -89t-79 -51.5t-98.5 -16.5zM237 606l85 141h92l-100 -141h-77z" />
    <glyph glyph-name="ccaron" unicode="&#x10d;" horiz-adv-x="553" 
d="M292 -6q-83 0 -137.5 34.5t-81 95.5t-26.5 138q0 75 27.5 136.5t84 98t143.5 36.5q54 0 96.5 -18t70.5 -52.5t39 -86.5h-87q-15 44 -47.5 62.5t-76.5 18.5q-60 0 -96 -28t-52.5 -72.5t-16.5 -94.5q0 -52 17 -96t53 -70.5t93 -26.5q42 0 79.5 18t49.5 64h88
q-10 -54 -42.5 -89t-79 -51.5t-98.5 -16.5zM248 606l-135 163h87l78 -96l78 96h85l-134 -163h-59z" />
    <glyph glyph-name="ccedilla" unicode="&#xe7;" horiz-adv-x="553" 
d="M292 -6q-83 0 -137.5 34.5t-81 95.5t-26.5 138q0 75 27.5 136.5t84 98t143.5 36.5q54 0 96.5 -18t70.5 -52.5t39 -86.5h-87q-15 44 -47.5 62.5t-76.5 18.5q-60 0 -96 -28t-52.5 -72.5t-16.5 -94.5q0 -52 17 -96t53 -70.5t93 -26.5q42 0 79.5 18t49.5 64h88
q-10 -54 -42.5 -89t-79 -51.5t-98.5 -16.5zM275 -251q-14 -2 -29.5 -3t-32.5 -1v55q17 0 36 1t36 6t28 16t11 30q0 17 -11.5 24.5t-25 9t-20.5 1.5q-10 0 -24.5 -2t-27.5 -7l29 127h62l-15 -67q6 1 12 1.5t11 0.5q39 0 59 -21.5t20 -59.5q0 -36 -15.5 -59t-42 -35t-60.5 -17
z" />
    <glyph glyph-name="ccircumflex" unicode="&#x109;" horiz-adv-x="553" 
d="M292 -6q-83 0 -137.5 34.5t-81 95.5t-26.5 138q0 75 27.5 136.5t84 98t143.5 36.5q54 0 96.5 -18t70.5 -52.5t39 -86.5h-87q-15 44 -47.5 62.5t-76.5 18.5q-60 0 -96 -28t-52.5 -72.5t-16.5 -94.5q0 -52 17 -96t53 -70.5t93 -26.5q42 0 79.5 18t49.5 64h88
q-10 -54 -42.5 -89t-79 -51.5t-98.5 -16.5zM113 606l133 163h60l134 -163h-86l-78 96l-78 -96h-85z" />
    <glyph glyph-name="cdotaccent" unicode="&#x10b;" horiz-adv-x="553" 
d="M292 -6q-83 0 -137.5 34.5t-81 95.5t-26.5 138q0 75 27.5 136.5t84 98t143.5 36.5q54 0 96.5 -18t70.5 -52.5t39 -86.5h-87q-15 44 -47.5 62.5t-76.5 18.5q-60 0 -96 -28t-52.5 -72.5t-16.5 -94.5q0 -52 17 -96t53 -70.5t93 -26.5q42 0 79.5 18t49.5 64h88
q-10 -54 -42.5 -89t-79 -51.5t-98.5 -16.5zM276 605q-26 0 -41.5 16t-15.5 41t16 40.5t41 15.5q23 0 40.5 -16t17.5 -40q0 -25 -17 -41t-41 -16z" />
    <glyph glyph-name="d" unicode="d" horiz-adv-x="604" 
d="M278 -6q-79 0 -130 35.5t-76 96t-25 136.5t25 137.5t77 97.5t133 36q31 0 62.5 -7.5t59.5 -23t48 -41.5v246h85v-707h-81l-4 79q-18 -30 -45.5 -48.5t-60.5 -27.5t-68 -9zM290 69q53 0 89 27t55 72t19 98q0 55 -18.5 98t-54.5 68t-91 25q-57 0 -91.5 -26t-50 -70.5
t-15.5 -99.5q0 -40 8.5 -74.5t27 -61t48.5 -41.5t74 -15z" />
    <glyph glyph-name="dcaron" unicode="&#x10f;" horiz-adv-x="604" 
d="M278 -6q-79 0 -130 35.5t-76 96t-25 136.5t25 137.5t77 97.5t133 36q31 0 62.5 -7.5t59.5 -23t48 -41.5v246h85v-707h-81l-4 79q-18 -30 -45.5 -48.5t-60.5 -27.5t-68 -9zM290 69q53 0 89 27t55 72t19 98q0 55 -18.5 98t-54.5 68t-91 25q-57 0 -91.5 -26t-50 -70.5
t-15.5 -99.5q0 -40 8.5 -74.5t27 -61t48.5 -41.5t74 -15zM590 485l-24 33q14 10 26 24t21.5 30t13.5 32q-26 2 -42 17t-16 40q0 28 16.5 43t43.5 15q34 0 48.5 -25t14.5 -54q0 -33 -14.5 -65t-37.5 -56t-50 -34z" />
    <glyph glyph-name="dcroat" unicode="&#x111;" horiz-adv-x="604" 
d="M278 -6q-79 0 -130.5 35.5t-76 96t-24.5 136.5t25 137.5t77 97.5t133 36q31 0 62.5 -7.5t59.5 -23t48 -41.5v105h-99v73h99v68h85v-68h90v-73h-90v-566h-81l-4 79q-18 -30 -45.5 -48.5t-60.5 -27.5t-68 -9zM290 69q56 0 92 29t53.5 74t17.5 94q0 55 -18.5 98t-54.5 68
t-91 25q-57 0 -91.5 -26t-50 -70.5t-15.5 -99.5q0 -40 8.5 -74.5t27 -61t48.5 -41.5t74 -15z" />
    <glyph glyph-name="eth" unicode="&#xf0;" horiz-adv-x="573" 
d="M283 -6q-76 0 -128.5 32.5t-80 90t-27.5 131.5q0 68 27 122t78 85.5t121 31.5q50 0 93 -16.5t70 -53.5q-2 35 -19 72.5t-39.5 68.5t-42.5 44l-112 -74l-39 59l89 59q-28 19 -74 30.5t-88 13.5l7 69q66 -5 122 -22.5t100 -46.5l117 77l39 -58l-96 -62q42 -38 70 -89
t42 -116.5t14 -145.5q0 -62 -12 -116.5t-40 -96.5t-75 -65.5t-116 -23.5zM286 69q47 0 80.5 23t51.5 61.5t18 82.5q0 49 -17 88.5t-51.5 63t-88.5 23.5q-47 0 -80 -23t-50 -60.5t-17 -82.5q0 -46 17.5 -86.5t52 -65t84.5 -24.5z" />
    <glyph glyph-name="e" unicode="e" horiz-adv-x="573" 
d="M295 -6q-84 0 -139 34.5t-82 95.5t-27 139q0 79 28.5 139.5t83.5 95.5t135 35q62 0 106.5 -23.5t73.5 -62.5t42 -85.5t11 -93.5q-1 -9 -1.5 -18t-1.5 -18h-391q4 -46 23 -83t54 -58.5t87 -21.5q26 0 52.5 6.5t48 22.5t30.5 43h87q-12 -51 -45 -83.5t-79 -48t-96 -15.5z
M135 306h305q-1 45 -20 79t-51.5 53t-77.5 19q-49 0 -82.5 -21t-51.5 -55t-22 -75z" />
    <glyph glyph-name="eacute" unicode="&#xe9;" horiz-adv-x="573" 
d="M295 -6q-84 0 -139 34.5t-82 95.5t-27 139q0 79 28.5 139.5t83.5 95.5t135 35q62 0 106.5 -23.5t73.5 -62.5t42 -85.5t11 -93.5q-1 -9 -1.5 -18t-1.5 -18h-391q4 -46 23 -83t54 -58.5t87 -21.5q26 0 52.5 6.5t48 22.5t30.5 43h87q-12 -51 -45 -83.5t-79 -48t-96 -15.5z
M135 306h305q-1 45 -20 79t-51.5 53t-77.5 19q-49 0 -82.5 -21t-51.5 -55t-22 -75zM255 606l85 141h92l-100 -141h-77z" />
    <glyph glyph-name="ebreve" unicode="&#x115;" horiz-adv-x="573" 
d="M295 -6q-84 0 -139 34.5t-82 95.5t-27 139q0 79 28.5 139.5t83.5 95.5t135 35q62 0 106.5 -23.5t73.5 -62.5t42 -85.5t11 -93.5q-1 -9 -1.5 -18t-1.5 -18h-391q4 -46 23 -83t54 -58.5t87 -21.5q26 0 52.5 6.5t48 22.5t30.5 43h87q-12 -51 -45 -83.5t-79 -48t-96 -15.5z
M135 306h305q-1 45 -20 79t-51.5 53t-77.5 19q-49 0 -82.5 -21t-51.5 -55t-22 -75zM294 601q-79 0 -123.5 34t-46.5 99h78q2 -35 26.5 -51t66.5 -16t66.5 16t26.5 51h78q-1 -43 -22 -73t-59 -45t-91 -15z" />
    <glyph glyph-name="ecaron" unicode="&#x11b;" horiz-adv-x="573" 
d="M295 -6q-84 0 -139 34.5t-82 95.5t-27 139q0 79 28.5 139.5t83.5 95.5t135 35q62 0 106.5 -23.5t73.5 -62.5t42 -85.5t11 -93.5q-1 -9 -1.5 -18t-1.5 -18h-391q4 -46 23 -83t54 -58.5t87 -21.5q26 0 52.5 6.5t48 22.5t30.5 43h87q-12 -51 -45 -83.5t-79 -48t-96 -15.5z
M135 306h305q-1 45 -20 79t-51.5 53t-77.5 19q-49 0 -82.5 -21t-51.5 -55t-22 -75zM266 606l-135 163h87l78 -96l78 96h85l-134 -163h-59z" />
    <glyph glyph-name="ecircumflex" unicode="&#xea;" horiz-adv-x="573" 
d="M295 -6q-84 0 -139 34.5t-82 95.5t-27 139q0 79 28.5 139.5t83.5 95.5t135 35q62 0 106.5 -23.5t73.5 -62.5t42 -85.5t11 -93.5q-1 -9 -1.5 -18t-1.5 -18h-391q4 -46 23 -83t54 -58.5t87 -21.5q26 0 52.5 6.5t48 22.5t30.5 43h87q-12 -51 -45 -83.5t-79 -48t-96 -15.5z
M135 306h305q-1 45 -20 79t-51.5 53t-77.5 19q-49 0 -82.5 -21t-51.5 -55t-22 -75zM131 606l133 163h60l134 -163h-86l-78 96l-78 -96h-85z" />
    <glyph glyph-name="edieresis" unicode="&#xeb;" horiz-adv-x="573" 
d="M295 -6q-84 0 -139 34.5t-82 95.5t-27 139q0 79 28.5 139.5t83.5 95.5t135 35q62 0 106.5 -23.5t73.5 -62.5t42 -85.5t11 -93.5q-1 -9 -1.5 -18t-1.5 -18h-391q4 -46 23 -83t54 -58.5t87 -21.5q26 0 52.5 6.5t48 22.5t30.5 43h87q-12 -51 -45 -83.5t-79 -48t-96 -15.5z
M135 306h305q-1 45 -20 79t-51.5 53t-77.5 19q-49 0 -82.5 -21t-51.5 -55t-22 -75zM407 608q-24 0 -40 15.5t-16 40.5t16 40.5t40 15.5q25 0 41.5 -15.5t16.5 -40.5t-16.5 -40.5t-41.5 -15.5zM182 608q-24 0 -40.5 15.5t-16.5 40.5t16.5 40.5t40.5 15.5q25 0 41.5 -15.5
t16.5 -40.5t-16.5 -40.5t-41.5 -15.5z" />
    <glyph glyph-name="edotaccent" unicode="&#x117;" horiz-adv-x="573" 
d="M295 -6q-84 0 -139 34.5t-82 95.5t-27 139q0 79 28.5 139.5t83.5 95.5t135 35q62 0 106.5 -23.5t73.5 -62.5t42 -85.5t11 -93.5q-1 -9 -1.5 -18t-1.5 -18h-391q4 -46 23 -83t54 -58.5t87 -21.5q26 0 52.5 6.5t48 22.5t30.5 43h87q-12 -51 -45 -83.5t-79 -48t-96 -15.5z
M135 306h305q-1 45 -20 79t-51.5 53t-77.5 19q-49 0 -82.5 -21t-51.5 -55t-22 -75zM294 605q-26 0 -41.5 16t-15.5 41t16 40.5t41 15.5q23 0 40.5 -16t17.5 -40q0 -25 -17 -41t-41 -16z" />
    <glyph glyph-name="egrave" unicode="&#xe8;" horiz-adv-x="573" 
d="M295 -6q-84 0 -139 34.5t-82 95.5t-27 139q0 79 28.5 139.5t83.5 95.5t135 35q62 0 106.5 -23.5t73.5 -62.5t42 -85.5t11 -93.5q-1 -9 -1.5 -18t-1.5 -18h-391q4 -46 23 -83t54 -58.5t87 -21.5q26 0 52.5 6.5t48 22.5t30.5 43h87q-12 -51 -45 -83.5t-79 -48t-96 -15.5z
M135 306h305q-1 45 -20 79t-51.5 53t-77.5 19q-49 0 -82.5 -21t-51.5 -55t-22 -75zM264 606l-100 141h92l85 -141h-77z" />
    <glyph glyph-name="emacron" unicode="&#x113;" horiz-adv-x="573" 
d="M295 -6q-84 0 -139 34.5t-82 95.5t-27 139q0 79 28.5 139.5t83.5 95.5t135 35q62 0 106.5 -23.5t73.5 -62.5t42 -85.5t11 -93.5q-1 -9 -1.5 -18t-1.5 -18h-391q4 -46 23 -83t54 -58.5t87 -21.5q26 0 52.5 6.5t48 22.5t30.5 43h87q-12 -51 -45 -83.5t-79 -48t-96 -15.5z
M135 306h305q-1 45 -20 79t-51.5 53t-77.5 19q-49 0 -82.5 -21t-51.5 -55t-22 -75zM135 633v74h319v-74h-319z" />
    <glyph glyph-name="eogonek" unicode="&#x119;" horiz-adv-x="573" 
d="M295 -6q-84 0 -139 34.5t-82 95.5t-27 139q0 79 28.5 139.5t83.5 95.5t135 35q62 0 106.5 -23.5t73.5 -62.5t42 -85.5t11 -93.5q-1 -9 -1.5 -18t-1.5 -18h-391q4 -46 23 -83t54 -58.5t87 -21.5q26 0 52.5 6.5t48 22.5t30.5 43h87q-12 -51 -45 -83.5t-79 -48t-96 -15.5z
M135 306h305q-1 45 -20 79t-51.5 53t-77.5 19q-49 0 -82.5 -21t-51.5 -55t-22 -75zM348 -224q-61 1 -95 31.5t-34 81.5q0 45 29 77t67 49l63 -10q-33 -17 -59 -45t-26 -61q0 -28 17.5 -43.5t46.5 -15.5q12 0 24 3t24 9l14 -59q-18 -10 -34.5 -13.5t-36.5 -3.5z" />
    <glyph glyph-name="f" unicode="f" horiz-adv-x="366" 
d="M118 0v452h-86v75h86v56q0 59 16.5 96.5t53 55.5t96.5 18h60v-75h-51q-36 0 -55.5 -12t-27 -35.5t-7.5 -57.5v-46h141v-75h-141v-452h-85z" />
    <glyph glyph-name="g" unicode="g" horiz-adv-x="604" 
d="M296 -236q-54 0 -100 16.5t-78 51.5t-43 89h88q8 -30 30 -48t51 -25.5t57 -7.5q54 0 87.5 21.5t48.5 59t15 85.5v73q-17 -30 -45 -49t-61 -27.5t-68 -8.5q-80 0 -131 35.5t-75.5 96t-24.5 136.5t25 137.5t77 97.5t133 36q46 0 93 -17t77 -55l4 66h81v-523
q0 -74 -26.5 -128t-80 -83t-134.5 -29zM290 69q53 0 89 27t55 72t19 98q0 55 -18.5 98t-54.5 68t-91 25q-57 0 -91.5 -26t-50 -70t-15.5 -98q0 -56 16 -100t51 -69t91 -25z" />
    <glyph glyph-name="gbreve" unicode="&#x11f;" horiz-adv-x="604" 
d="M296 -236q-54 0 -100 16.5t-78 51.5t-43 89h88q8 -30 30 -48t51 -25.5t57 -7.5q54 0 87.5 21.5t48.5 59t15 85.5v73q-17 -30 -45 -49t-61 -27.5t-68 -8.5q-80 0 -131 35.5t-75.5 96t-24.5 136.5t25 137.5t77 97.5t133 36q46 0 93 -17t77 -55l4 66h81v-523
q0 -74 -26.5 -128t-80 -83t-134.5 -29zM290 69q53 0 89 27t55 72t19 98q0 55 -18.5 98t-54.5 68t-91 25q-57 0 -91.5 -26t-50 -70t-15.5 -98q0 -56 16 -100t51 -69t91 -25zM301 601q-79 0 -123.5 34t-46.5 99h78q2 -35 26.5 -51t66.5 -16t66.5 16t26.5 51h78q-1 -43 -22 -73
t-59 -45t-91 -15z" />
    <glyph glyph-name="gcircumflex" unicode="&#x11d;" horiz-adv-x="604" 
d="M296 -236q-54 0 -100 16.5t-78 51.5t-43 89h88q8 -30 30 -48t51 -25.5t57 -7.5q54 0 87.5 21.5t48.5 59t15 85.5v73q-17 -30 -45 -49t-61 -27.5t-68 -8.5q-80 0 -131 35.5t-75.5 96t-24.5 136.5t25 137.5t77 97.5t133 36q46 0 93 -17t77 -55l4 66h81v-523
q0 -74 -26.5 -128t-80 -83t-134.5 -29zM290 69q53 0 89 27t55 72t19 98q0 55 -18.5 98t-54.5 68t-91 25q-57 0 -91.5 -26t-50 -70t-15.5 -98q0 -56 16 -100t51 -69t91 -25zM138 606l133 163h60l134 -163h-86l-78 96l-78 -96h-85z" />
    <glyph glyph-name="uni0123" unicode="&#x123;" horiz-adv-x="604" 
d="M296 -236q-54 0 -100 16.5t-78 51.5t-43 89h88q8 -30 30 -48t51 -25.5t57 -7.5q54 0 87.5 21.5t48.5 59t15 85.5v73q-17 -30 -45 -49t-61 -27.5t-68 -8.5q-80 0 -131 35.5t-75.5 96t-24.5 136.5t25 137.5t77 97.5t133 36q46 0 93 -17t77 -55l4 66h81v-523
q0 -74 -26.5 -128t-80 -83t-134.5 -29zM290 69q53 0 89 27t55 72t19 98q0 55 -18.5 98t-54.5 68t-91 25q-57 0 -91.5 -26t-50 -70t-15.5 -98q0 -56 16 -100t51 -69t91 -25zM303 600q-29 0 -46 21t-18 57q0 30 13 62t36.5 57.5t52.5 35.5l24 -33q-13 -9 -25.5 -23.5
t-22 -30.5t-13.5 -32q26 -2 42 -17t16 -40q0 -28 -18 -42.5t-41 -14.5z" />
    <glyph glyph-name="gdotaccent" unicode="&#x121;" horiz-adv-x="604" 
d="M296 -236q-54 0 -100 16.5t-78 51.5t-43 89h88q8 -30 30 -48t51 -25.5t57 -7.5q54 0 87.5 21.5t48.5 59t15 85.5v73q-17 -30 -45 -49t-61 -27.5t-68 -8.5q-80 0 -131 35.5t-75.5 96t-24.5 136.5t25 137.5t77 97.5t133 36q46 0 93 -17t77 -55l4 66h81v-523
q0 -74 -26.5 -128t-80 -83t-134.5 -29zM290 69q53 0 89 27t55 72t19 98q0 55 -18.5 98t-54.5 68t-91 25q-57 0 -91.5 -26t-50 -70t-15.5 -98q0 -56 16 -100t51 -69t91 -25zM301 605q-26 0 -41.5 16t-15.5 41t16 40.5t41 15.5q23 0 40.5 -16t17.5 -40q0 -25 -17 -41t-41 -16z
" />
    <glyph glyph-name="h" unicode="h" horiz-adv-x="591" 
d="M67 0v707h85v-261q19 28 46.5 47.5t60.5 29.5t68 10q77 0 120.5 -32t61.5 -86.5t18 -124.5v-290h-85v264q0 35 -4.5 69.5t-17.5 62.5t-39.5 45t-71.5 17q-43 0 -73.5 -19t-48.5 -50.5t-26.5 -69t-8.5 -73.5v-246h-85z" />
    <glyph glyph-name="hbar" unicode="&#x127;" horiz-adv-x="591" 
d="M67 0v566h-83v73h83v68h85v-68h103v-73h-103v-120q28 42 75.5 64.5t99.5 22.5q77 0 120.5 -32t61.5 -86.5t18 -124.5v-290h-85v264q0 35 -4.5 69.5t-17.5 62.5t-39.5 45t-71.5 17q-43 0 -73.5 -19t-48.5 -50.5t-26.5 -69t-8.5 -73.5v-246h-85z" />
    <glyph glyph-name="hcircumflex" unicode="&#x125;" horiz-adv-x="591" 
d="M67 0v707h85v-261q19 28 46.5 47.5t60.5 29.5t68 10q77 0 120.5 -32t61.5 -86.5t18 -124.5v-290h-85v264q0 35 -4.5 69.5t-17.5 62.5t-39.5 45t-71.5 17q-43 0 -73.5 -19t-48.5 -50.5t-26.5 -69t-8.5 -73.5v-246h-85zM147 762l133 163h60l134 -163h-86l-78 96l-78 -96
h-85z" />
    <glyph glyph-name="i" unicode="i" horiz-adv-x="219" 
d="M67 0v527h85v-527h-85zM109 605q-26 0 -41.5 16t-15.5 41t16 40.5t41 15.5q23 0 40.5 -16t17.5 -40q0 -25 -17 -41t-41 -16z" />
    <glyph glyph-name="dotlessi" unicode="&#x131;" horiz-adv-x="219" 
d="M67 0v527h85v-527h-85z" />
    <glyph glyph-name="iacute" unicode="&#xed;" horiz-adv-x="219" 
d="M67 0v527h85v-527h-85zM70 606l85 141h92l-100 -141h-77z" />
    <glyph glyph-name="ibreve" unicode="&#x12d;" horiz-adv-x="219" 
d="M67 0v527h85v-527h-85zM109 601q-79 0 -123.5 34t-46.5 99h78q2 -35 26.5 -51t66.5 -16t66.5 16t26.5 51h78q-1 -43 -22 -73t-59 -45t-91 -15z" />
    <glyph glyph-name="icircumflex" unicode="&#xee;" horiz-adv-x="219" 
d="M67 0v527h85v-527h-85zM-54 606l133 163h60l134 -163h-86l-78 96l-78 -96h-85z" />
    <glyph glyph-name="idieresis" unicode="&#xef;" horiz-adv-x="219" 
d="M67 0v527h85v-527h-85zM38 608q-23 0 -38 15t-15 39q0 23 15 37.5t38 14.5t38.5 -14.5t15.5 -37.5q0 -24 -15.5 -39t-38.5 -15zM181 608q-24 0 -38.5 15t-14.5 39q0 23 15 37.5t38 14.5t38 -14.5t15 -37.5q0 -24 -15 -39t-38 -15z" />
    <glyph glyph-name="i.loclTRK" horiz-adv-x="219" 
d="M67 0v527h85v-527h-85zM109 605q-26 0 -41.5 16t-15.5 41t16 40.5t41 15.5q23 0 40.5 -16t17.5 -40q0 -25 -17 -41t-41 -16z" />
    <glyph glyph-name="igrave" unicode="&#xec;" horiz-adv-x="219" 
d="M67 0v527h85v-527h-85zM79 606l-100 141h92l85 -141h-77z" />
    <glyph glyph-name="imacron" unicode="&#x12b;" horiz-adv-x="219" 
d="M67 0v527h85v-527h-85zM-50 633v74h319v-74h-319z" />
    <glyph glyph-name="iogonek" unicode="&#x12f;" horiz-adv-x="219" 
d="M67 0v527h85v-527h-85zM109 605q-26 0 -41.5 16t-15.5 41t16 40.5t41 15.5q23 0 40.5 -16t17.5 -40q0 -25 -17 -41t-41 -16zM119 -224q-61 1 -95 31.5t-34 81.5q0 45 29 77t67 49l63 -10q-33 -17 -59 -45t-26 -61q0 -28 17.5 -43.5t46.5 -15.5q12 0 24 3t24 9l14 -59
q-18 -10 -34.5 -13.5t-36.5 -3.5z" />
    <glyph glyph-name="itilde" unicode="&#x129;" horiz-adv-x="219" 
d="M67 0v527h85v-527h-85zM174 595q-25 0 -44 11t-34.5 25t-28.5 25t-25 11q-15 0 -21.5 -12.5t-7.5 -28t-1 -26.5h-69q0 33 8.5 62.5t30 48.5t61.5 19q25 0 44 -11t34.5 -25.5t28.5 -25.5t25 -11q17 0 23 12.5t7 28.5t1 27h70q-1 -32 -9.5 -62t-30 -49t-62.5 -19z" />
    <glyph glyph-name="ij" unicode="&#x133;" horiz-adv-x="460" 
d="M175 -180v74h36q36 0 55.5 12t27 35.5t7.5 57.5v528h85v-537q0 -58 -16.5 -96t-52.5 -56t-96 -18h-46zM74 0v527h85v-527h-85zM116 607q-25 0 -41 16t-16 41q0 17 7.5 29.5t20.5 19.5t29 7q24 0 41 -15.5t17 -40.5t-17 -41t-41 -16zM343 607q-25 0 -41 16t-16 41
q0 17 7.5 29.5t20.5 19.5t29 7q24 0 41 -15.5t17 -40.5t-17 -41t-41 -16z" />
    <glyph glyph-name="j" unicode="j" horiz-adv-x="254" 
d="M-31 -180v74h36q36 0 55.5 12t27 35.5t7.5 57.5v528h85v-537q0 -58 -16.5 -96t-52.5 -56t-96 -18h-46zM137 605q-26 0 -41.5 16t-15.5 41t16 40.5t41 15.5q23 0 40.5 -16t17.5 -40q0 -25 -17 -41t-41 -16z" />
    <glyph glyph-name="uni0237" unicode="&#x237;" horiz-adv-x="254" 
d="M-31 -180v74h36q36 0 55.5 12t27 35.5t7.5 57.5v528h85v-537q0 -58 -16.5 -96t-52.5 -56t-96 -18h-46z" />
    <glyph glyph-name="jcircumflex" unicode="&#x135;" horiz-adv-x="254" 
d="M-31 -180v74h36q36 0 55.5 12t27 35.5t7.5 57.5v528h85v-537q0 -58 -16.5 -96t-52.5 -56t-96 -18h-46zM-26 606l133 163h60l134 -163h-86l-78 96l-78 -96h-85z" />
    <glyph glyph-name="k" unicode="k" horiz-adv-x="520" 
d="M67 0v707h85v-407h92l158 227h96l-176 -251l191 -276h-100l-159 226h-102v-226h-85z" />
    <glyph glyph-name="uni0137" unicode="&#x137;" horiz-adv-x="520" 
d="M67 0v707h85v-407h92l158 227h96l-176 -251l191 -276h-100l-159 226h-102v-226h-85zM221 -304l-24 33q14 10 26 24t21.5 30t13.5 32q-26 2 -42 17t-16 40q0 28 18 43t42 15q33 0 48.5 -24t14.5 -55q-1 -33 -15 -65t-37 -56t-50 -34z" />
    <glyph glyph-name="kgreenlandic" unicode="&#x138;" horiz-adv-x="519" 
d="M67 0v527h85v-227h92l156 227h97l-176 -251l191 -276h-100l-158 226h-102v-226h-85z" />
    <glyph glyph-name="l" unicode="l" horiz-adv-x="219" 
d="M67 0v707h85v-707h-85z" />
    <glyph glyph-name="lacute" unicode="&#x13a;" horiz-adv-x="219" 
d="M67 0v707h85v-707h-85zM70 786l85 141h92l-100 -141h-77z" />
    <glyph glyph-name="lcaron" unicode="&#x13e;" horiz-adv-x="179" 
d="M67 0v707h85v-707h-85zM207 483l-24 33q14 10 26 24t21.5 30t13.5 32q-26 2 -42 17t-16 40q0 28 16.5 43t43.5 15q34 0 48.5 -25t14.5 -54q0 -33 -14.5 -65t-37.5 -56t-50 -34z" />
    <glyph glyph-name="uni013C" unicode="&#x13c;" horiz-adv-x="219" 
d="M67 0v707h85v-707h-85zM71 -304l-24 33q14 10 26 24t21.5 30t13.5 32q-26 2 -42 17t-16 40q0 28 18 43t42 15q33 0 48.5 -24t14.5 -55q-1 -33 -15 -65t-37 -56t-50 -34z" />
    <glyph glyph-name="ldot" unicode="&#x140;" horiz-adv-x="297" 
d="M67 0v707h85v-707h-85zM259 299q-25 0 -41 16t-16 41t16 40.5t41 15.5q24 0 41 -15.5t17 -40.5t-16.5 -41t-41.5 -16z" />
    <glyph glyph-name="lslash" unicode="&#x142;" horiz-adv-x="313" 
d="M99 0v276l-68 -44l-42 63l110 71v341h85v-285l88 57l42 -62l-130 -85v-332h-85z" />
    <glyph glyph-name="m" unicode="m" horiz-adv-x="819" 
d="M67 0v527h82l4 -63q17 24 38.5 39t48 22.5t56.5 7.5q55 0 89 -23.5t51 -61.5q18 27 41.5 46t53 29t65.5 10q58 0 93.5 -25t51.5 -67.5t16 -95.5v-345h-85v302q0 26 -2.5 53t-12.5 50.5t-29.5 38t-54.5 14.5q-33 0 -55.5 -15.5t-36.5 -41.5t-20 -55.5t-6 -58.5v-287h-85
v303q0 25 -2.5 52t-11 50.5t-28 38t-53.5 14.5q-48 0 -75 -27.5t-37.5 -67t-10.5 -77.5v-286h-85z" />
    <glyph glyph-name="n" unicode="n" horiz-adv-x="591" 
d="M67 0v527h82l4 -80q18 29 46 48t61.5 28.5t65.5 9.5q77 0 120.5 -32t62 -86.5t18.5 -123.5v-291h-85v268q0 37 -4.5 71t-18 61t-38.5 42.5t-67 15.5q-52 0 -88.5 -29t-55 -78t-18.5 -110v-241h-85z" />
    <glyph glyph-name="nacute" unicode="&#x144;" horiz-adv-x="591" 
d="M67 0v527h82l4 -80q18 29 46 48t61.5 28.5t65.5 9.5q77 0 120.5 -32t62 -86.5t18.5 -123.5v-291h-85v268q0 37 -4.5 71t-18 61t-38.5 42.5t-67 15.5q-52 0 -88.5 -29t-55 -78t-18.5 -110v-241h-85zM256 606l85 141h92l-100 -141h-77z" />
    <glyph glyph-name="napostrophe" unicode="&#x149;" horiz-adv-x="686" 
d="M29 484l-24 33q14 10 26 24t21.5 30t13.5 32q-26 2 -42 17t-16 40q0 28 17.5 43t42.5 15q35 0 49 -24t14 -55q0 -33 -14 -65t-37.5 -56t-50.5 -34zM162 0v527h82l4 -80q18 29 46 48t61.5 28.5t65.5 9.5q77 0 120.5 -32t62 -86.5t18.5 -123.5v-291h-85v268q0 37 -4.5 71
t-18 61t-38.5 42.5t-67 15.5q-52 0 -88.5 -29t-55 -78t-18.5 -110v-241h-85z" />
    <glyph glyph-name="ncaron" unicode="&#x148;" horiz-adv-x="591" 
d="M67 0v527h82l4 -80q18 29 46 48t61.5 28.5t65.5 9.5q77 0 120.5 -32t62 -86.5t18.5 -123.5v-291h-85v268q0 37 -4.5 71t-18 61t-38.5 42.5t-67 15.5q-52 0 -88.5 -29t-55 -78t-18.5 -110v-241h-85zM267 606l-135 163h87l78 -96l78 96h85l-134 -163h-59z" />
    <glyph glyph-name="uni0146" unicode="&#x146;" horiz-adv-x="591" 
d="M67 0v527h82l4 -80q18 29 46 48t61.5 28.5t65.5 9.5q77 0 120.5 -32t62 -86.5t18.5 -123.5v-291h-85v268q0 37 -4.5 71t-18 61t-38.5 42.5t-67 15.5q-52 0 -88.5 -29t-55 -78t-18.5 -110v-241h-85zM257 -304l-24 33q14 10 26 24t21.5 30t13.5 32q-26 2 -42 17t-16 40
q0 28 18 43t42 15q33 0 48.5 -24t14.5 -55q-1 -33 -15 -65t-37 -56t-50 -34z" />
    <glyph glyph-name="ntilde" unicode="&#xf1;" horiz-adv-x="591" 
d="M67 0v527h82l4 -80q18 29 46 48t61.5 28.5t65.5 9.5q77 0 120.5 -32t62 -86.5t18.5 -123.5v-291h-85v268q0 37 -4.5 71t-18 61t-38.5 42.5t-67 15.5q-52 0 -88.5 -29t-55 -78t-18.5 -110v-241h-85zM360 595q-25 0 -44 11t-34.5 25t-28.5 25t-25 11q-15 0 -21.5 -12.5
t-7.5 -28t-1 -26.5h-69q0 33 8.5 62.5t30 48.5t61.5 19q25 0 44 -11t34.5 -25.5t28.5 -25.5t25 -11q17 0 23 12.5t7 28.5t1 27h70q-1 -32 -9.5 -62t-30 -49t-62.5 -19z" />
    <glyph glyph-name="eng" unicode="&#x14b;" horiz-adv-x="591" 
d="M304 -180v74h48q36 0 55.5 12t27 35.5t7.5 57.5v269q0 37 -4.5 71t-18 61t-38.5 42.5t-67 15.5q-52 0 -88.5 -29t-55 -78t-18.5 -110v-241h-85v527h82l4 -80q26 44 75 65t98 21q77 0 120.5 -32t62 -86.5t18.5 -123.5v-301q0 -58 -16.5 -96t-52.5 -56t-96 -18h-58z" />
    <glyph glyph-name="o" unicode="o" horiz-adv-x="595" 
d="M297 -6q-83 0 -139 34.5t-83.5 95.5t-27.5 139q0 79 28 139.5t84 95.5t140 35q83 0 138.5 -35t83 -95.5t27.5 -139.5q0 -78 -28 -139t-83.5 -95.5t-139.5 -34.5zM297 69q58 0 94.5 26t54 70t17.5 98t-17.5 98t-54 70t-94.5 26q-57 0 -93.5 -26t-54 -70t-17.5 -98
t17.5 -98t54 -70t93.5 -26z" />
    <glyph glyph-name="oacute" unicode="&#xf3;" horiz-adv-x="595" 
d="M297 -6q-83 0 -139 34.5t-83.5 95.5t-27.5 139q0 79 28 139.5t84 95.5t140 35q83 0 138.5 -35t83 -95.5t27.5 -139.5q0 -78 -28 -139t-83.5 -95.5t-139.5 -34.5zM297 69q58 0 94.5 26t54 70t17.5 98t-17.5 98t-54 70t-94.5 26q-57 0 -93.5 -26t-54 -70t-17.5 -98
t17.5 -98t54 -70t93.5 -26zM258 606l85 141h92l-100 -141h-77z" />
    <glyph glyph-name="obreve" unicode="&#x14f;" horiz-adv-x="595" 
d="M297 -6q-83 0 -139 34.5t-83.5 95.5t-27.5 139q0 79 28 139.5t84 95.5t140 35q83 0 138.5 -35t83 -95.5t27.5 -139.5q0 -78 -28 -139t-83.5 -95.5t-139.5 -34.5zM297 69q58 0 94.5 26t54 70t17.5 98t-17.5 98t-54 70t-94.5 26q-57 0 -93.5 -26t-54 -70t-17.5 -98
t17.5 -98t54 -70t93.5 -26zM297 601q-79 0 -123.5 34t-46.5 99h78q2 -35 26.5 -51t66.5 -16t66.5 16t26.5 51h78q-1 -43 -22 -73t-59 -45t-91 -15z" />
    <glyph glyph-name="ocircumflex" unicode="&#xf4;" horiz-adv-x="595" 
d="M297 -6q-83 0 -139 34.5t-83.5 95.5t-27.5 139q0 79 28 139.5t84 95.5t140 35q83 0 138.5 -35t83 -95.5t27.5 -139.5q0 -78 -28 -139t-83.5 -95.5t-139.5 -34.5zM297 69q58 0 94.5 26t54 70t17.5 98t-17.5 98t-54 70t-94.5 26q-57 0 -93.5 -26t-54 -70t-17.5 -98
t17.5 -98t54 -70t93.5 -26zM134 606l133 163h60l134 -163h-86l-78 96l-78 -96h-85z" />
    <glyph glyph-name="odieresis" unicode="&#xf6;" horiz-adv-x="595" 
d="M297 -6q-83 0 -139 34.5t-83.5 95.5t-27.5 139q0 79 28 139.5t84 95.5t140 35q83 0 138.5 -35t83 -95.5t27.5 -139.5q0 -78 -28 -139t-83.5 -95.5t-139.5 -34.5zM297 69q58 0 94.5 26t54 70t17.5 98t-17.5 98t-54 70t-94.5 26q-57 0 -93.5 -26t-54 -70t-17.5 -98
t17.5 -98t54 -70t93.5 -26zM410 608q-24 0 -40 15.5t-16 40.5t16 40.5t40 15.5q25 0 41.5 -15.5t16.5 -40.5t-16.5 -40.5t-41.5 -15.5zM185 608q-24 0 -40.5 15.5t-16.5 40.5t16.5 40.5t40.5 15.5q25 0 41.5 -15.5t16.5 -40.5t-16.5 -40.5t-41.5 -15.5z" />
    <glyph glyph-name="ograve" unicode="&#xf2;" horiz-adv-x="595" 
d="M297 -6q-83 0 -139 34.5t-83.5 95.5t-27.5 139q0 79 28 139.5t84 95.5t140 35q83 0 138.5 -35t83 -95.5t27.5 -139.5q0 -78 -28 -139t-83.5 -95.5t-139.5 -34.5zM297 69q58 0 94.5 26t54 70t17.5 98t-17.5 98t-54 70t-94.5 26q-57 0 -93.5 -26t-54 -70t-17.5 -98
t17.5 -98t54 -70t93.5 -26zM267 606l-100 141h92l85 -141h-77z" />
    <glyph glyph-name="ohungarumlaut" unicode="&#x151;" horiz-adv-x="595" 
d="M297 -6q-83 0 -139 34.5t-83.5 95.5t-27.5 139q0 79 28 139.5t84 95.5t140 35q83 0 138.5 -35t83 -95.5t27.5 -139.5q0 -78 -28 -139t-83.5 -95.5t-139.5 -34.5zM297 69q58 0 94.5 26t54 70t17.5 98t-17.5 98t-54 70t-94.5 26q-57 0 -93.5 -26t-54 -70t-17.5 -98
t17.5 -98t54 -70t93.5 -26zM316 606l85 141h92l-100 -141h-77zM157 606l85 141h92l-100 -141h-77z" />
    <glyph glyph-name="omacron" unicode="&#x14d;" horiz-adv-x="595" 
d="M297 -6q-83 0 -139 34.5t-83.5 95.5t-27.5 139q0 79 28 139.5t84 95.5t140 35q83 0 138.5 -35t83 -95.5t27.5 -139.5q0 -78 -28 -139t-83.5 -95.5t-139.5 -34.5zM297 69q58 0 94.5 26t54 70t17.5 98t-17.5 98t-54 70t-94.5 26q-57 0 -93.5 -26t-54 -70t-17.5 -98
t17.5 -98t54 -70t93.5 -26zM138 633v74h319v-74h-319z" />
    <glyph glyph-name="oslash" unicode="&#xf8;" horiz-adv-x="595" 
d="M71 -91l68 132q-47 34 -69.5 92t-22.5 130q0 78 27 139t83 96t142 35q25 0 47 -3t41 -9l50 97h87l-69 -134q33 -25 53.5 -60t30 -76t9.5 -85q0 -75 -27 -136t-82.5 -97t-141.5 -36q-25 0 -47 3t-42 9l-50 -97h-87zM178 116l172 333q-27 8 -53 8q-57 0 -93.5 -25t-54 -69
t-17.5 -100q0 -42 10.5 -82t35.5 -65zM297 69q59 0 95.5 26.5t53.5 71t17 96.5q0 44 -12 80t-36 65l-171 -332q11 -4 24 -5.5t29 -1.5z" />
    <glyph glyph-name="otilde" unicode="&#xf5;" horiz-adv-x="595" 
d="M297 -6q-83 0 -139 34.5t-83.5 95.5t-27.5 139q0 79 28 139.5t84 95.5t140 35q83 0 138.5 -35t83 -95.5t27.5 -139.5q0 -78 -28 -139t-83.5 -95.5t-139.5 -34.5zM297 69q58 0 94.5 26t54 70t17.5 98t-17.5 98t-54 70t-94.5 26q-57 0 -93.5 -26t-54 -70t-17.5 -98
t17.5 -98t54 -70t93.5 -26zM362 595q-25 0 -44 11t-34.5 25t-28.5 25t-25 11q-15 0 -21.5 -12.5t-7.5 -28t-1 -26.5h-69q0 33 8.5 62.5t30 48.5t61.5 19q25 0 44 -11t34.5 -25.5t28.5 -25.5t25 -11q17 0 23 12.5t7 28.5t1 27h70q-1 -32 -9.5 -62t-30 -49t-62.5 -19z" />
    <glyph glyph-name="oe" unicode="&#x153;" horiz-adv-x="985" 
d="M297 -6q-83 0 -139 34.5t-83.5 95.5t-27.5 139q0 79 28 139.5t84 95.5t140 35q65 0 117 -23.5t88 -77.5q36 54 87 77.5t115 23.5q78 0 130.5 -38t78.5 -98.5t23 -128.5q-1 -9 -1 -18t-1 -18h-391q6 -69 46 -116t118 -47q39 0 78 16t53 56h87q-12 -51 -45 -83.5t-79 -48
t-96 -15.5q-48 0 -83 10t-63.5 31.5t-58.5 55.5q-37 -52 -88.5 -74.5t-116.5 -22.5zM297 69q58 0 94.5 26t54 70t17.5 98t-17.5 98t-54 70t-94.5 26q-57 0 -93.5 -26t-54 -70t-17.5 -98t17.5 -98t54 -70t93.5 -26zM547 306h305q-1 45 -20 79t-51.5 53t-77.5 19
q-49 0 -82.5 -21t-51.5 -55t-22 -75z" />
    <glyph glyph-name="p" unicode="p" horiz-adv-x="604" 
d="M67 -190v717h81l4 -79q27 41 73.5 63t100.5 22q80 0 131 -35.5t75.5 -96.5t24.5 -138t-25 -138t-77 -96t-133 -35q-40 0 -72 8.5t-56 25t-42 38.5v-256h-85zM315 69q58 0 92 26.5t49.5 70.5t15.5 97q0 54 -15.5 98t-50.5 70t-93 26q-52 0 -88.5 -26.5t-55.5 -71
t-19 -97.5q0 -55 18 -99t55 -69t92 -25z" />
    <glyph glyph-name="thorn" unicode="&#xfe;" horiz-adv-x="604" 
d="M67 -190v897h85v-259q29 41 75 63t99 22q81 0 132 -36.5t75 -98t24 -135.5q0 -75 -25 -136t-76.5 -97t-133.5 -36q-50 0 -93.5 16.5t-76.5 55.5v-256h-85zM315 69q58 0 92.5 27.5t49.5 72t15 94.5q0 53 -15.5 97t-50 70.5t-93.5 26.5q-54 0 -90 -28t-54.5 -72.5
t-18.5 -94.5q0 -52 17 -96t53.5 -70.5t94.5 -26.5z" />
    <glyph glyph-name="q" unicode="q" horiz-adv-x="604" 
d="M452 -190v269q-26 -46 -74 -65.5t-100 -19.5q-60 0 -104 20.5t-72 56.5t-41.5 85t-13.5 106q0 76 25 137.5t77 97.5t133 36q46 0 93 -17t77 -55l4 66h81v-717h-85zM290 69q51 0 87.5 26.5t56 71.5t19.5 99q0 55 -18.5 98t-54.5 68t-91 25q-57 0 -91.5 -26t-50 -70
t-15.5 -98q0 -56 16 -100t51 -69t91 -25z" />
    <glyph glyph-name="r" unicode="r" horiz-adv-x="373" 
d="M67 0v527h82l4 -82q20 31 46.5 50t59 28.5t70.5 9.5h13.5h13.5v-80h-31q-62 0 -100.5 -26.5t-55.5 -71t-17 -98.5v-257h-85z" />
    <glyph glyph-name="racute" unicode="&#x155;" horiz-adv-x="373" 
d="M67 0v527h82l4 -82q20 31 46.5 50t59 28.5t70.5 9.5h13.5h13.5v-80h-31q-62 0 -100.5 -26.5t-55.5 -71t-17 -98.5v-257h-85zM177 606l85 141h92l-100 -141h-77z" />
    <glyph glyph-name="rcaron" unicode="&#x159;" horiz-adv-x="373" 
d="M67 0v527h82l4 -82q20 31 46.5 50t59 28.5t70.5 9.5h13.5h13.5v-80h-31q-62 0 -100.5 -26.5t-55.5 -71t-17 -98.5v-257h-85zM188 606l-135 163h87l78 -96l78 96h85l-134 -163h-59z" />
    <glyph glyph-name="uni0157" unicode="&#x157;" horiz-adv-x="373" 
d="M67 0v527h82l4 -82q20 31 46.5 50t59 28.5t70.5 9.5h13.5h13.5v-80h-31q-62 0 -100.5 -26.5t-55.5 -71t-17 -98.5v-257h-85zM78 -304l-24 33q14 10 26 24t21.5 30t13.5 32q-26 2 -42 17t-16 40q0 28 18 43t42 15q33 0 48.5 -24t14.5 -55q-1 -33 -15 -65t-37 -56t-50 -34z
" />
    <glyph glyph-name="s" unicode="s" horiz-adv-x="509" 
d="M259 -6q-36 0 -72.5 7t-68 24t-52.5 46t-27 72h86q10 -27 32.5 -43.5t51 -23.5t54.5 -7q16 0 37 2t40.5 9.5t32 22.5t12.5 42q0 20 -9 33t-25 21.5t-39 12.5q-47 10 -100.5 19t-94.5 34q-14 9 -25.5 20.5t-19.5 26t-12.5 32t-4.5 38.5q0 39 15.5 67.5t43.5 47t64.5 27.5
t78.5 9q52 0 93.5 -16.5t68.5 -48t32 -77.5h-79q-7 29 -38 47.5t-79 18.5q-16 0 -36 -2.5t-38 -10t-30 -22t-12 -38.5q0 -22 11.5 -37t32.5 -24t48 -15q35 -7 77 -14.5t66 -15.5q32 -10 53.5 -28t32 -43t10.5 -58q0 -47 -18.5 -77t-49.5 -47t-68.5 -24t-74.5 -7z" />
    <glyph glyph-name="sacute" unicode="&#x15b;" horiz-adv-x="509" 
d="M259 -6q-36 0 -72.5 7t-68 24t-52.5 46t-27 72h86q10 -27 32.5 -43.5t51 -23.5t54.5 -7q16 0 37 2t40.5 9.5t32 22.5t12.5 42q0 20 -9 33t-25 21.5t-39 12.5q-47 10 -100.5 19t-94.5 34q-14 9 -25.5 20.5t-19.5 26t-12.5 32t-4.5 38.5q0 39 15.5 67.5t43.5 47t64.5 27.5
t78.5 9q52 0 93.5 -16.5t68.5 -48t32 -77.5h-79q-7 29 -38 47.5t-79 18.5q-16 0 -36 -2.5t-38 -10t-30 -22t-12 -38.5q0 -22 11.5 -37t32.5 -24t48 -15q35 -7 77 -14.5t66 -15.5q32 -10 53.5 -28t32 -43t10.5 -58q0 -47 -18.5 -77t-49.5 -47t-68.5 -24t-74.5 -7zM215 606
l85 141h92l-100 -141h-77z" />
    <glyph glyph-name="scaron" unicode="&#x161;" horiz-adv-x="509" 
d="M259 -6q-36 0 -72.5 7t-68 24t-52.5 46t-27 72h86q10 -27 32.5 -43.5t51 -23.5t54.5 -7q16 0 37 2t40.5 9.5t32 22.5t12.5 42q0 20 -9 33t-25 21.5t-39 12.5q-47 10 -100.5 19t-94.5 34q-14 9 -25.5 20.5t-19.5 26t-12.5 32t-4.5 38.5q0 39 15.5 67.5t43.5 47t64.5 27.5
t78.5 9q52 0 93.5 -16.5t68.5 -48t32 -77.5h-79q-7 29 -38 47.5t-79 18.5q-16 0 -36 -2.5t-38 -10t-30 -22t-12 -38.5q0 -22 11.5 -37t32.5 -24t48 -15q35 -7 77 -14.5t66 -15.5q32 -10 53.5 -28t32 -43t10.5 -58q0 -47 -18.5 -77t-49.5 -47t-68.5 -24t-74.5 -7zM226 606
l-135 163h87l78 -96l78 96h85l-134 -163h-59z" />
    <glyph glyph-name="scedilla" unicode="&#x15f;" horiz-adv-x="509" 
d="M259 -6q-36 0 -72.5 7t-68 24t-52.5 46t-27 72h86q10 -27 32.5 -43.5t51 -23.5t54.5 -7q16 0 37 2t40.5 9.5t32 22.5t12.5 42q0 20 -9 33t-25 21.5t-39 12.5q-47 10 -100.5 19t-94.5 34q-14 9 -25.5 20.5t-19.5 26t-12.5 32t-4.5 38.5q0 39 15.5 67.5t43.5 47t64.5 27.5
t78.5 9q52 0 93.5 -16.5t68.5 -48t32 -77.5h-79q-7 29 -38 47.5t-79 18.5q-16 0 -36 -2.5t-38 -10t-30 -22t-12 -38.5q0 -22 11.5 -37t32.5 -24t48 -15q35 -7 77 -14.5t66 -15.5q32 -10 53.5 -28t32 -43t10.5 -58q0 -47 -18.5 -77t-49.5 -47t-68.5 -24t-74.5 -7zM253 -251
q-14 -2 -29.5 -3t-32.5 -1v55q17 0 36 1t36 6t28 16t11 30q0 17 -11.5 24.5t-25 9t-20.5 1.5q-10 0 -24.5 -2t-27.5 -7l29 127h62l-15 -67q6 1 12 1.5t11 0.5q39 0 59 -21.5t20 -59.5q0 -36 -15.5 -59t-42 -35t-60.5 -17z" />
    <glyph glyph-name="scircumflex" unicode="&#x15d;" horiz-adv-x="509" 
d="M259 -6q-36 0 -72.5 7t-68 24t-52.5 46t-27 72h86q10 -27 32.5 -43.5t51 -23.5t54.5 -7q16 0 37 2t40.5 9.5t32 22.5t12.5 42q0 20 -9 33t-25 21.5t-39 12.5q-47 10 -100.5 19t-94.5 34q-14 9 -25.5 20.5t-19.5 26t-12.5 32t-4.5 38.5q0 39 15.5 67.5t43.5 47t64.5 27.5
t78.5 9q52 0 93.5 -16.5t68.5 -48t32 -77.5h-79q-7 29 -38 47.5t-79 18.5q-16 0 -36 -2.5t-38 -10t-30 -22t-12 -38.5q0 -22 11.5 -37t32.5 -24t48 -15q35 -7 77 -14.5t66 -15.5q32 -10 53.5 -28t32 -43t10.5 -58q0 -47 -18.5 -77t-49.5 -47t-68.5 -24t-74.5 -7zM91 606
l133 163h60l134 -163h-86l-78 96l-78 -96h-85z" />
    <glyph glyph-name="uni0219" unicode="&#x219;" horiz-adv-x="509" 
d="M259 -6q-36 0 -72.5 7t-68 24t-52.5 46t-27 72h86q10 -27 32.5 -43.5t51 -23.5t54.5 -7q16 0 37 2t40.5 9.5t32 22.5t12.5 42q0 20 -9 33t-25 21.5t-39 12.5q-47 10 -100.5 19t-94.5 34q-14 9 -25.5 20.5t-19.5 26t-12.5 32t-4.5 38.5q0 39 15.5 67.5t43.5 47t64.5 27.5
t78.5 9q52 0 93.5 -16.5t68.5 -48t32 -77.5h-79q-7 29 -38 47.5t-79 18.5q-16 0 -36 -2.5t-38 -10t-30 -22t-12 -38.5q0 -22 11.5 -37t32.5 -24t48 -15q35 -7 77 -14.5t66 -15.5q32 -10 53.5 -28t32 -43t10.5 -58q0 -47 -18.5 -77t-49.5 -47t-68.5 -24t-74.5 -7zM216 -304
l-24 33q14 10 26 24t21.5 30t13.5 32q-26 2 -42 17t-16 40q0 28 18 43t42 15q33 0 48.5 -24t14.5 -55q-1 -33 -15 -65t-37 -56t-50 -34z" />
    <glyph glyph-name="germandbls" unicode="&#xdf;" horiz-adv-x="607" 
d="M386 -6q-46 0 -84 15.5t-63 48.5t-32 85h86q8 -41 34.5 -57.5t62.5 -16.5q39 -1 66 17.5t27 60.5q0 30 -13 46.5t-33 26.5q-16 8 -35.5 13t-39.5 10q-51 15 -82 45.5t-31 85.5q0 28 17 59t37 56q20 24 36.5 50.5t16.5 61.5q0 22 -12.5 39.5t-34.5 28t-50 10.5
q-38 0 -61.5 -17t-34.5 -42.5t-11 -52.5v-567h-85v556q0 39 10.5 74.5t33.5 63.5t61.5 44t95.5 16q35 0 66.5 -9.5t57 -28.5t40 -47t14.5 -65q0 -27 -8 -50t-21 -42t-28 -37q-22 -26 -41 -52.5t-19 -43.5q0 -26 15 -42.5t56 -27.5q21 -6 41 -12t38 -14q39 -17 64 -45.5
t25 -81.5q0 -56 -24 -92t-65 -53t-93 -17z" />
    <glyph glyph-name="t" unicode="t" horiz-adv-x="370" 
d="M281 0q-60 0 -96.5 18t-53 56t-16.5 96v282h-86v75h86v157h85v-157h141v-75h-141v-273q0 -54 19.5 -79.5t79.5 -25.5h39v-74h-57z" />
    <glyph glyph-name="tbar" unicode="&#x167;" horiz-adv-x="370" 
d="M281 0q-60 0 -96.5 18t-53 56t-16.5 96v81h-86v74h86v127h-86v75h86v157h85v-157h141v-75h-141v-127h141v-74h-141v-72q0 -54 19.5 -79.5t79.5 -25.5h39v-74h-57z" />
    <glyph glyph-name="tcaron" unicode="&#x165;" horiz-adv-x="396" 
d="M281 0q-60 0 -96.5 18t-53 56t-16.5 96v282h-86v75h86v157h85v-157h141v-75h-141v-273q0 -54 19.5 -79.5t79.5 -25.5h39v-74h-57zM364 473l-24 33q14 10 26 24t21.5 30t13.5 32q-26 2 -42 17t-16 40q0 28 16.5 43t43.5 15q34 0 48.5 -25t14.5 -54q0 -33 -14.5 -65
t-37.5 -56t-50 -34z" />
    <glyph glyph-name="uni0163" unicode="&#x163;" horiz-adv-x="370" 
d="M281 0q-60 0 -96.5 18t-53 56t-16.5 96v282h-86v75h86v157h85v-157h141v-75h-141v-273q0 -54 19.5 -79.5t79.5 -25.5h39v-74h-57zM218 -241q-14 -2 -29.5 -3t-32.5 -1v55q17 0 36 1t36 6t28 16t11 30q0 17 -11.5 24.5t-25 9t-20.5 1.5q-10 0 -24.5 -2t-27.5 -7l29 127h62
l-15 -67q6 1 12 1.5t11 0.5q39 0 59 -21.5t20 -59.5q0 -36 -15.5 -59t-42 -35t-60.5 -17z" />
    <glyph glyph-name="uni021B" unicode="&#x21b;" horiz-adv-x="370" 
d="M281 0q-60 0 -96.5 18t-53 56t-16.5 96v282h-86v75h86v157h85v-157h141v-75h-141v-273q0 -54 19.5 -79.5t79.5 -25.5h39v-74h-57zM181 -294l-24 33q14 10 26 24t21.5 30t13.5 32q-26 2 -42 17t-16 40q0 28 18 43t42 15q33 0 48.5 -24t14.5 -55q-1 -33 -15 -65t-37 -56
t-50 -34z" />
    <glyph glyph-name="u" unicode="u" horiz-adv-x="576" 
d="M287 -6q-109 0 -165.5 58t-56.5 178v297h85v-293q0 -52 15 -89t45.5 -56.5t76.5 -19.5q48 0 79 19.5t45.5 56.5t14.5 89v293h85v-297q0 -120 -57.5 -178t-166.5 -58z" />
    <glyph glyph-name="uacute" unicode="&#xfa;" horiz-adv-x="576" 
d="M287 -6q-109 0 -165.5 58t-56.5 178v297h85v-293q0 -52 15 -89t45.5 -56.5t76.5 -19.5q48 0 79 19.5t45.5 56.5t14.5 89v293h85v-297q0 -120 -57.5 -178t-166.5 -58zM248 606l85 141h92l-100 -141h-77z" />
    <glyph glyph-name="ubreve" unicode="&#x16d;" horiz-adv-x="576" 
d="M287 -6q-109 0 -165.5 58t-56.5 178v297h85v-293q0 -52 15 -89t45.5 -56.5t76.5 -19.5q48 0 79 19.5t45.5 56.5t14.5 89v293h85v-297q0 -120 -57.5 -178t-166.5 -58zM287 601q-79 0 -123.5 34t-46.5 99h78q2 -35 26.5 -51t66.5 -16t66.5 16t26.5 51h78q-1 -43 -22 -73
t-59 -45t-91 -15z" />
    <glyph glyph-name="ucircumflex" unicode="&#xfb;" horiz-adv-x="576" 
d="M287 -6q-109 0 -165.5 58t-56.5 178v297h85v-293q0 -52 15 -89t45.5 -56.5t76.5 -19.5q48 0 79 19.5t45.5 56.5t14.5 89v293h85v-297q0 -120 -57.5 -178t-166.5 -58zM124 606l133 163h60l134 -163h-86l-78 96l-78 -96h-85z" />
    <glyph glyph-name="udieresis" unicode="&#xfc;" horiz-adv-x="576" 
d="M287 -6q-109 0 -165.5 58t-56.5 178v297h85v-293q0 -52 15 -89t45.5 -56.5t76.5 -19.5q48 0 79 19.5t45.5 56.5t14.5 89v293h85v-297q0 -120 -57.5 -178t-166.5 -58zM400 608q-24 0 -40 15.5t-16 40.5t16 40.5t40 15.5q25 0 41.5 -15.5t16.5 -40.5t-16.5 -40.5
t-41.5 -15.5zM175 608q-24 0 -40.5 15.5t-16.5 40.5t16.5 40.5t40.5 15.5q25 0 41.5 -15.5t16.5 -40.5t-16.5 -40.5t-41.5 -15.5z" />
    <glyph glyph-name="ugrave" unicode="&#xf9;" horiz-adv-x="576" 
d="M287 -6q-109 0 -165.5 58t-56.5 178v297h85v-293q0 -52 15 -89t45.5 -56.5t76.5 -19.5q48 0 79 19.5t45.5 56.5t14.5 89v293h85v-297q0 -120 -57.5 -178t-166.5 -58zM257 606l-100 141h92l85 -141h-77z" />
    <glyph glyph-name="uhungarumlaut" unicode="&#x171;" horiz-adv-x="576" 
d="M287 -6q-109 0 -165.5 58t-56.5 178v297h85v-293q0 -52 15 -89t45.5 -56.5t76.5 -19.5q48 0 79 19.5t45.5 56.5t14.5 89v293h85v-297q0 -120 -57.5 -178t-166.5 -58zM306 606l85 141h92l-100 -141h-77zM147 606l85 141h92l-100 -141h-77z" />
    <glyph glyph-name="umacron" unicode="&#x16b;" horiz-adv-x="576" 
d="M287 -6q-109 0 -165.5 58t-56.5 178v297h85v-293q0 -52 15 -89t45.5 -56.5t76.5 -19.5q48 0 79 19.5t45.5 56.5t14.5 89v293h85v-297q0 -120 -57.5 -178t-166.5 -58zM128 633v74h319v-74h-319z" />
    <glyph glyph-name="uogonek" unicode="&#x173;" horiz-adv-x="576" 
d="M287 -6q-109 0 -165.5 58t-56.5 178v297h85v-293q0 -52 15 -89t45.5 -56.5t76.5 -19.5q48 0 79 19.5t45.5 56.5t14.5 89v293h85v-297q0 -120 -57.5 -178t-166.5 -58zM330 -224q-61 1 -95 31.5t-34 81.5q0 45 29 77t67 49l63 -10q-33 -17 -59 -45t-26 -61
q0 -28 17.5 -43.5t46.5 -15.5q12 0 24 3t24 9l14 -59q-18 -10 -34.5 -13.5t-36.5 -3.5z" />
    <glyph glyph-name="uring" unicode="&#x16f;" horiz-adv-x="576" 
d="M287 -6q-109 0 -165.5 58t-56.5 178v297h85v-293q0 -52 15 -89t45.5 -56.5t76.5 -19.5q48 0 79 19.5t45.5 56.5t14.5 89v293h85v-297q0 -120 -57.5 -178t-166.5 -58zM287 573q-44 0 -71 25.5t-27 69.5t27.5 72.5t71.5 28.5t71 -29t27 -72q0 -44 -28 -69.5t-71 -25.5z
M287 625q20 0 31.5 12.5t11.5 32.5t-11.5 32.5t-31.5 12.5t-31.5 -12.5t-11.5 -32.5t11.5 -32.5t31.5 -12.5z" />
    <glyph glyph-name="utilde" unicode="&#x169;" horiz-adv-x="576" 
d="M287 -6q-109 0 -165.5 58t-56.5 178v297h85v-293q0 -52 15 -89t45.5 -56.5t76.5 -19.5q48 0 79 19.5t45.5 56.5t14.5 89v293h85v-297q0 -120 -57.5 -178t-166.5 -58zM352 595q-25 0 -44 11t-34.5 25t-28.5 25t-25 11q-15 0 -21.5 -12.5t-7.5 -28t-1 -26.5h-69
q0 33 8.5 62.5t30 48.5t61.5 19q25 0 44 -11t34.5 -25.5t28.5 -25.5t25 -11q17 0 23 12.5t7 28.5t1 27h70q-1 -32 -9.5 -62t-30 -49t-62.5 -19z" />
    <glyph glyph-name="v" unicode="v" horiz-adv-x="536" 
d="M210 0l-203 527h96l166 -445l163 445h97l-203 -527h-116z" />
    <glyph glyph-name="w" unicode="w" horiz-adv-x="843" 
d="M176 0l-164 527h96l126 -445l130 445h115l131 -445l124 445h97l-164 -527h-116l-130 427l-130 -427h-115z" />
    <glyph glyph-name="wacute" unicode="&#x1e83;" horiz-adv-x="843" 
d="M176 0l-164 527h96l126 -445l130 445h115l131 -445l124 445h97l-164 -527h-116l-130 427l-130 -427h-115zM382 606l85 141h92l-100 -141h-77z" />
    <glyph glyph-name="wcircumflex" unicode="&#x175;" horiz-adv-x="843" 
d="M176 0l-164 527h96l126 -445l130 445h115l131 -445l124 445h97l-164 -527h-116l-130 427l-130 -427h-115zM258 606l133 163h60l134 -163h-86l-78 96l-78 -96h-85z" />
    <glyph glyph-name="wdieresis" unicode="&#x1e85;" horiz-adv-x="843" 
d="M176 0l-164 527h96l126 -445l130 445h115l131 -445l124 445h97l-164 -527h-116l-130 427l-130 -427h-115zM534 608q-24 0 -40 15.5t-16 40.5t16 40.5t40 15.5q25 0 41.5 -15.5t16.5 -40.5t-16.5 -40.5t-41.5 -15.5zM309 608q-24 0 -40.5 15.5t-16.5 40.5t16.5 40.5
t40.5 15.5q25 0 41.5 -15.5t16.5 -40.5t-16.5 -40.5t-41.5 -15.5z" />
    <glyph glyph-name="wgrave" unicode="&#x1e81;" horiz-adv-x="843" 
d="M176 0l-164 527h96l126 -445l130 445h115l131 -445l124 445h97l-164 -527h-116l-130 427l-130 -427h-115zM391 606l-100 141h92l85 -141h-77z" />
    <glyph glyph-name="x" unicode="x" horiz-adv-x="515" 
d="M14 0l188 269l-179 258h102l134 -200l130 200h99l-178 -261l191 -266h-101l-146 201l-144 -201h-96z" />
    <glyph glyph-name="y" unicode="y" horiz-adv-x="597" 
d="M299 -236q-61 0 -117.5 17t-101.5 59l37 67q39 -31 83.5 -49t93.5 -18q82 0 117.5 47.5t35.5 120.5v63q-18 -27 -45.5 -44.5t-60.5 -26t-68 -8.5q-78 0 -123 31t-64 86t-19 127v291h85v-267q0 -36 4.5 -70.5t18.5 -62t41 -44t72 -16.5q57 0 91.5 28t50 75t15.5 104v253
h85v-527q0 -57 -15 -101t-45 -74t-72.5 -45.5t-98.5 -15.5z" />
    <glyph glyph-name="yacute" unicode="&#xfd;" horiz-adv-x="597" 
d="M299 -236q-61 0 -117.5 17t-101.5 59l37 67q39 -31 83.5 -49t93.5 -18q82 0 117.5 47.5t35.5 120.5v63q-18 -27 -45.5 -44.5t-60.5 -26t-68 -8.5q-78 0 -123 31t-64 86t-19 127v291h85v-267q0 -36 4.5 -70.5t18.5 -62t41 -44t72 -16.5q57 0 91.5 28t50 75t15.5 104v253
h85v-527q0 -57 -15 -101t-45 -74t-72.5 -45.5t-98.5 -15.5zM259 606l85 141h92l-100 -141h-77z" />
    <glyph glyph-name="ycircumflex" unicode="&#x177;" horiz-adv-x="597" 
d="M299 -236q-61 0 -117.5 17t-101.5 59l37 67q39 -31 83.5 -49t93.5 -18q82 0 117.5 47.5t35.5 120.5v63q-18 -27 -45.5 -44.5t-60.5 -26t-68 -8.5q-78 0 -123 31t-64 86t-19 127v291h85v-267q0 -36 4.5 -70.5t18.5 -62t41 -44t72 -16.5q57 0 91.5 28t50 75t15.5 104v253
h85v-527q0 -57 -15 -101t-45 -74t-72.5 -45.5t-98.5 -15.5zM135 606l133 163h60l134 -163h-86l-78 96l-78 -96h-85z" />
    <glyph glyph-name="ydieresis" unicode="&#xff;" horiz-adv-x="597" 
d="M299 -236q-61 0 -117.5 17t-101.5 59l37 67q39 -31 83.5 -49t93.5 -18q82 0 117.5 47.5t35.5 120.5v63q-18 -27 -45.5 -44.5t-60.5 -26t-68 -8.5q-78 0 -123 31t-64 86t-19 127v291h85v-267q0 -36 4.5 -70.5t18.5 -62t41 -44t72 -16.5q57 0 91.5 28t50 75t15.5 104v253
h85v-527q0 -57 -15 -101t-45 -74t-72.5 -45.5t-98.5 -15.5zM411 608q-24 0 -40 15.5t-16 40.5t16 40.5t40 15.5q25 0 41.5 -15.5t16.5 -40.5t-16.5 -40.5t-41.5 -15.5zM186 608q-24 0 -40.5 15.5t-16.5 40.5t16.5 40.5t40.5 15.5q25 0 41.5 -15.5t16.5 -40.5t-16.5 -40.5
t-41.5 -15.5z" />
    <glyph glyph-name="ygrave" unicode="&#x1ef3;" horiz-adv-x="597" 
d="M299 -236q-61 0 -117.5 17t-101.5 59l37 67q39 -31 83.5 -49t93.5 -18q82 0 117.5 47.5t35.5 120.5v63q-18 -27 -45.5 -44.5t-60.5 -26t-68 -8.5q-78 0 -123 31t-64 86t-19 127v291h85v-267q0 -36 4.5 -70.5t18.5 -62t41 -44t72 -16.5q57 0 91.5 28t50 75t15.5 104v253
h85v-527q0 -57 -15 -101t-45 -74t-72.5 -45.5t-98.5 -15.5zM268 606l-100 141h92l85 -141h-77z" />
    <glyph glyph-name="z" unicode="z" horiz-adv-x="518" 
d="M47 0v72l315 380h-315v75h424v-71l-318 -382h318v-74h-424z" />
    <glyph glyph-name="zacute" unicode="&#x17a;" horiz-adv-x="518" 
d="M47 0v72l315 380h-315v75h424v-71l-318 -382h318v-74h-424zM219 606l85 141h92l-100 -141h-77z" />
    <glyph glyph-name="zcaron" unicode="&#x17e;" horiz-adv-x="518" 
d="M47 0v72l315 380h-315v75h424v-71l-318 -382h318v-74h-424zM230 606l-135 163h87l78 -96l78 96h85l-134 -163h-59z" />
    <glyph glyph-name="zdotaccent" unicode="&#x17c;" horiz-adv-x="518" 
d="M47 0v72l315 380h-315v75h424v-71l-318 -382h318v-74h-424zM258 605q-26 0 -41.5 16t-15.5 41t16 40.5t41 15.5q23 0 40.5 -16t17.5 -40q0 -25 -17 -41t-41 -16z" />
    <glyph glyph-name="a_alt" horiz-adv-x="555" 
d="M224 -5q-45 0 -85 15t-65 47.5t-25 85.5q0 33 11.5 58t31.5 43.5t46 30t55 17.5q43 9 97 14.5t117 12.5q0 43 -14 74t-42 48t-70 17q-40 0 -71.5 -13t-48.5 -48h-90q10 49 42.5 78.5t77.5 43.5t89 14q82 0 127.5 -32t64 -87t18.5 -126v-288h-76l-7 64q-24 -24 -54 -39.5
t-62.5 -22.5t-66.5 -7zM234 69q48 0 87 16t62.5 49t23.5 82v33q-28 -3 -56 -6.5t-55.5 -7t-55.5 -7.5q-50 -7 -78 -28t-28 -54t17.5 -49.5t41 -22t41.5 -5.5z" />
    <glyph glyph-name="c_alt" horiz-adv-x="547" 
d="M292 -6q-84 0 -139 35t-82.5 95.5t-27.5 138.5t28 139t84.5 96t141.5 35q52 0 93 -15t69 -45.5t42 -78.5h-88q-17 35 -52 49t-69 14q-53 0 -89.5 -25.5t-55.5 -69t-19 -99.5q0 -51 17.5 -95.5t54 -71.5t93.5 -27q35 0 69 12.5t51 44.5h91q-14 -46 -46 -75t-75 -43
t-91 -14z" />
    <glyph glyph-name="f_alt" horiz-adv-x="366" 
d="M115 0v452h-86v75h86v54q0 56 14.5 94.5t47.5 58.5t88 20q33 0 60.5 -8t53.5 -30l-38 -64q-12 11 -30 19t-41 8q-31 0 -46 -15.5t-19.5 -40.5t-4.5 -56v-40h159v-75h-159v-452h-85z" />
    <glyph glyph-name="g_alt" horiz-adv-x="600" 
d="M297 -236q-55 0 -112 17t-102 59l37 67q39 -31 82.5 -49t94.5 -18q54 0 87.5 22t48.5 60t15 86v71q-17 -30 -45 -49t-61 -27.5t-68 -8.5q-80 0 -131.5 35.5t-75.5 96t-24 136.5t25 137.5t77 97.5t133 36q31 0 62.5 -7.5t59.5 -23t48 -41.5l4 66h81v-527q0 -76 -28 -129
t-81 -80t-127 -27zM286 69q53 0 89 27t55 72t19 98q0 55 -18.5 98t-54.5 68t-91 25q-57 0 -91.5 -26t-50 -70t-15.5 -98q0 -56 16 -100t51 -69t91 -25z" />
    <glyph glyph-name="i_alt" horiz-adv-x="257" 
d="M98 0v452h-86v75h171v-527h-85zM140 607q-24 0 -40.5 16t-16.5 41q0 17 7.5 29.5t20.5 19.5t29 7q25 0 41.5 -15.5t16.5 -40.5t-16.5 -41t-41.5 -16z" />
    <glyph glyph-name="j_alt" horiz-adv-x="267" 
d="M-18 -180v74h36q36 0 55.5 12t27 35.5t7.5 57.5v453h-87v75h172v-537q0 -88 -38 -129t-127 -41h-46zM150 607q-25 0 -41 16t-16 41q0 17 7.5 29.5t20.5 19.5t29 7q24 0 41 -15.5t17 -40.5t-17 -41t-41 -16z" />
    <glyph glyph-name="k_alt" horiz-adv-x="527" 
d="M67 0v707h85v-437l250 257h99l-212 -218l224 -309h-99l-186 254l-76 -78v-176h-85z" />
    <glyph glyph-name="l_alt" horiz-adv-x="285" 
d="M228 0q-51 0 -82 12t-48 34q-22 29 -26.5 73.5t-4.5 99.5v488h85v-483q0 -34 0.5 -65.5t13.5 -52.5q18 -31 82 -31h42v-75h-62z" />
    <glyph glyph-name="s_alt" horiz-adv-x="542" 
d="M280 -6q-42 0 -82 8t-72.5 25.5t-54.5 46t-28 69.5h86q11 -31 38.5 -46.5t58 -21t49.5 -5.5q18 0 41.5 2.5t45.5 9.5t36.5 22t14.5 40q0 22 -8.5 36t-24 22t-38.5 12q-32 7 -73.5 13t-81 15.5t-67.5 25.5q-13 8 -24 18.5t-19 24.5t-12 31.5t-4 39.5q0 45 19.5 74.5t52 46
t71 23.5t76.5 7q51 0 94 -15t71.5 -46.5t33.5 -80.5h-78q-2 25 -23.5 39.5t-51 20.5t-55.5 6q-23 0 -53 -5t-51.5 -20.5t-21.5 -49.5q0 -19 11 -32.5t30.5 -22.5t45.5 -15q24 -5 58 -10.5t66 -10t49 -9.5q33 -9 53.5 -27t30 -43t9.5 -56q0 -45 -17.5 -76.5t-47.5 -50
t-69.5 -27t-83.5 -8.5z" />
    <glyph glyph-name="t_alt" horiz-adv-x="380" 
d="M281 0q-60 0 -96.5 18t-53 56t-16.5 96v282h-86v75h86l16 157h69v-157h141v-75h-141v-273q0 -54 21 -79.5t78 -25.5h39v-74h-57z" />
    <glyph glyph-name="u_alt" horiz-adv-x="586" 
d="M265 -9q-76 0 -120.5 31.5t-63.5 86t-19 124.5v294h85v-272q0 -36 4 -70t16.5 -61t39 -42.5t71.5 -15.5q43 0 73 16t48 44.5t26.5 66t8.5 80.5v254h85v-527h-71l-6 76q-18 -30 -47.5 -49t-63.5 -27.5t-66 -8.5z" />
    <glyph glyph-name="w_alt" horiz-adv-x="774" 
d="M178 0l-164 527h96l126 -445l110 317h83l111 -317l124 445h96l-163 -527h-117l-93 268l-94 -268h-115z" />
    <glyph glyph-name="y_alt" horiz-adv-x="597" 
d="M289 -236q-53 0 -99.5 16.5t-78.5 51.5t-43 89h88q8 -30 30 -48t51 -25.5t57 -7.5q33 0 58 8t43 23t29 35.5t16.5 45.5t5.5 54v67q-15 -29 -43 -47.5t-60.5 -26.5t-64.5 -8q-71 0 -113.5 22.5t-63.5 58.5t-27.5 78.5t-6.5 84.5v292h85v-268q0 -36 5 -70.5t19 -62t41 -44
t71 -16.5q42 0 72 16t49 44.5t27.5 66t8.5 80.5v254h85v-526q0 -57 -16 -101.5t-47 -74.5t-76 -45.5t-102 -15.5z" />
    <glyph glyph-name="ordfeminine" unicode="&#xaa;" horiz-adv-x="366" 
d="M158 407q-44 0 -76 23.5t-32 69.5q0 36 17 56.5t44.5 28.5t57.5 8h76q-2 30 -15.5 47.5t-45.5 18.5q-21 0 -37 -6.5t-21 -25.5h-66q6 32 23.5 52t43.5 29.5t57 9.5q46 0 72.5 -18.5t38 -51t11.5 -74.5v-164h-51l-5 32q-21 -19 -44.5 -27t-47.5 -8zM164 465
q38 0 59.5 16.5t21.5 58.5h-53q-13 0 -32 -0.5t-33.5 -8t-14.5 -27.5q0 -21 15 -30t37 -9z" />
    <glyph glyph-name="ordmasculine" unicode="&#xba;" horiz-adv-x="387" 
d="M193 404q-49 0 -78.5 22.5t-42 58t-12.5 74.5q0 40 12.5 75.5t42 58t78.5 22.5q50 0 79 -22.5t42 -58t13 -75.5q0 -39 -13 -74.5t-42 -58t-79 -22.5zM193 463q29 0 43.5 15.5t19.5 38t5 42.5q0 22 -5 44t-19.5 37t-43.5 15q-28 0 -43 -15t-20 -37t-5 -44q0 -21 5 -43.5
t19.5 -37.5t43.5 -15z" />
    <glyph glyph-name="uni0410" unicode="&#x410;" horiz-adv-x="670" 
d="M10 0l263 707h125l262 -707h-94l-56 152h-350l-56 -152h-94zM189 231h292l-146 400z" />
    <glyph glyph-name="uni0411" unicode="&#x411;" horiz-adv-x="654" 
d="M87 0v707h481v-79h-394v-213h161q52 0 99.5 -8t84.5 -29t58.5 -59.5t21.5 -100.5q0 -61 -20 -103t-56 -67.5t-85 -36.5t-107 -11h-244zM174 79h146q36 0 70.5 5t61.5 18.5t43 40t16 69.5t-15.5 68t-42.5 37t-60 15.5t-68 3.5h-151v-257z" />
    <glyph glyph-name="uni0412" unicode="&#x412;" horiz-adv-x="655" 
d="M86 0v707h248q53 0 96 -8.5t74.5 -28.5t48.5 -54t17 -86q0 -54 -24.5 -96t-75.5 -62q68 -12 102 -57.5t34 -117.5q0 -57 -21.5 -95t-60 -60.5t-88.5 -32t-107 -9.5h-243zM173 79h153q31 0 64.5 3.5t62.5 15t47 36.5t18 67q0 36 -13.5 59t-36 36t-51.5 18t-59 5h-185v-240
zM173 397h136q37 0 69 6.5t56 21.5t37.5 39t13.5 60q0 46 -21 68t-55 29t-74 7h-162v-231z" />
    <glyph glyph-name="uni0413" unicode="&#x413;" horiz-adv-x="571" 
d="M87 0v707h455v-79h-368v-628h-87z" />
    <glyph glyph-name="Geupturncy" unicode="&#x490;" horiz-adv-x="571" 
d="M87 0v707h368v135h87v-214h-368v-628h-87z" />
    <glyph glyph-name="uni0414" unicode="&#x414;" horiz-adv-x="709" 
d="M22 -195v274q36 0 54.5 13.5t28.5 36.5q8 20 14 48.5t10.5 62t6.5 67.5q7 100 10 200t4 200h452v-628h85v-274h-87v195h-491v-195h-87zM183 79h332v549h-280l-9 -275q-1 -24 -2.5 -57t-6 -69.5t-12.5 -74.5t-22 -73z" />
    <glyph glyph-name="uni0415" unicode="&#x415;" horiz-adv-x="610" 
d="M87 0v707h475v-79h-388v-238h349v-80h-349v-231h388v-79h-475z" />
    <glyph glyph-name="uni0401" unicode="&#x401;" horiz-adv-x="610" 
d="M87 0v707h475v-79h-388v-238h349v-80h-349v-231h388v-79h-475zM443 788q-24 0 -40 15.5t-16 40.5t16 40.5t40 15.5q25 0 41.5 -15.5t16.5 -40.5t-16.5 -40.5t-41.5 -15.5zM218 788q-24 0 -40.5 15.5t-16.5 40.5t16.5 40.5t40.5 15.5q25 0 41.5 -15.5t16.5 -40.5
t-16.5 -40.5t-41.5 -15.5z" />
    <glyph glyph-name="uni0416" unicode="&#x416;" horiz-adv-x="860" 
d="M14 0l192 357l-191 350h96l169 -321h106v321h87v-321h108l169 321h94l-191 -350l193 -357h-102l-163 307h-108v-307h-87v307h-108l-163 -307h-101z" />
    <glyph glyph-name="uni0417" unicode="&#x417;" horiz-adv-x="626" 
d="M315 -8q-51 0 -99 11t-86.5 33.5t-61.5 58.5t-24 87h87q2 -30 18.5 -51t42.5 -34.5t58 -19.5t63 -6q25 0 55 4t57.5 17t45 38.5t17.5 67.5q0 39 -13 63t-37 37t-56.5 17.5t-71.5 4.5h-86v78h51q36 0 69.5 6.5t59.5 20.5t41.5 37t15.5 56q0 49 -23.5 74t-58.5 34.5
t-70 9.5q-40 0 -76.5 -11.5t-59.5 -35.5t-23 -60h-87q0 47 18.5 79.5t48 53t63.5 32.5t66.5 16.5t55.5 4.5q45 0 86 -9.5t74 -31t52 -56.5t19 -85q0 -25 -7 -53.5t-29 -56t-68 -49.5q63 -12 99 -61t36 -114q-1 -56 -23.5 -95.5t-59.5 -64t-83 -36t-96 -11.5z" />
    <glyph glyph-name="uni0418" unicode="&#x418;" horiz-adv-x="732" 
d="M87 0v707h87v-571l379 571h92v-707h-87v566l-380 -566h-91z" />
    <glyph glyph-name="uni0419" unicode="&#x419;" horiz-adv-x="732" 
d="M87 0v707h87v-571l379 571h92v-707h-87v566l-380 -566h-91zM366 767q-58 0 -98.5 18t-62 51.5t-23.5 81.5h83q2 -38 29 -58.5t72 -20.5t72 20.5t29 58.5h83q-1 -48 -23 -81.5t-62.5 -51.5t-98.5 -18z" />
    <glyph glyph-name="uni041A" unicode="&#x41a;" horiz-adv-x="625" 
d="M87 0v707h87v-326h105l230 326h100l-254 -351l256 -356h-103l-222 302h-112v-302h-87z" />
    <glyph glyph-name="uni041B" unicode="&#x41b;" horiz-adv-x="693" 
d="M14 -7v86q25 0 44 10.5t32.5 29.5t19.5 42q8 30 11.5 62.5t5 65.5t1.5 63l7 355h471v-707h-87v628h-297l-6 -220q-2 -73 -3.5 -140.5t-12 -122.5t-40.5 -92q-22 -27 -57.5 -42.5t-88.5 -17.5z" />
    <glyph glyph-name="uni041C" unicode="&#x41c;" horiz-adv-x="860" 
d="M87 0v707h130l216 -389l213 389h127v-707h-87v619l-235 -435h-40l-237 435v-619h-87z" />
    <glyph glyph-name="uni041D" unicode="&#x41d;" horiz-adv-x="727" 
d="M87 0v707h87v-320h379v320h87v-707h-87v307h-379v-307h-87z" />
    <glyph glyph-name="uni041E" unicode="&#x41e;" horiz-adv-x="761" 
d="M381 -8q-110 0 -184 47t-111.5 129t-37.5 185q0 104 37.5 186t111.5 129t184 47t183.5 -47t111 -129t37.5 -186q0 -103 -37.5 -185t-111 -129t-183.5 -47zM381 71q84 0 138 38.5t79.5 102.5t25.5 141q0 58 -14.5 109.5t-44.5 90.5t-76 61t-108 22q-83 0 -137.5 -39
t-81 -103t-26.5 -141q0 -76 26 -140t80.5 -103t138.5 -39z" />
    <glyph glyph-name="uni041F" unicode="&#x41f;" horiz-adv-x="730" 
d="M87 0v707h556v-707h-87v628h-382v-628h-87z" />
    <glyph glyph-name="uni0420" unicode="&#x420;" horiz-adv-x="625" 
d="M87 0v707h245q78 0 134 -25.5t85.5 -77.5t29.5 -132q0 -78 -34.5 -131.5t-94.5 -80.5t-138 -27h-140v-233h-87zM174 312h136q81 0 131.5 38.5t50.5 125.5q0 76 -41 114t-123 38h-154v-316z" />
    <glyph glyph-name="uni0421" unicode="&#x421;" horiz-adv-x="710" 
d="M373 -8q-109 0 -181.5 46.5t-108 128t-35.5 186.5q0 104 36 185.5t108.5 129t182.5 47.5q78 0 134.5 -24.5t91.5 -67.5t48 -101h-88q-15 52 -64.5 83t-124.5 31q-84 0 -135.5 -39.5t-75.5 -103t-24 -137.5q0 -78 25 -143t78 -103.5t135 -38.5q50 0 89.5 14t66 40t36.5 60
h95q-15 -58 -53.5 -101.5t-97.5 -67.5t-138 -24z" />
    <glyph glyph-name="uni0422" unicode="&#x422;" horiz-adv-x="569" 
d="M241 0v628h-227v79h541v-79h-227v-628h-87z" />
    <glyph glyph-name="uni0423" unicode="&#x423;" horiz-adv-x="614" 
d="M116 -1v82q41 0 72.5 7t57 28t47.5 63l-278 528h103l225 -438l178 438h94l-127 -299q-13 -32 -34 -81.5t-46.5 -103t-53 -99.5t-55.5 -71q-37 -33 -81 -43.5t-102 -10.5z" />
    <glyph glyph-name="uni040E" unicode="&#x40e;" horiz-adv-x="614" 
d="M116 -1v82q41 0 72.5 7t57 28t47.5 63l-278 528h103l225 -438l178 438h94l-127 -299q-13 -32 -34 -81.5t-46.5 -103t-53 -99.5t-55.5 -71q-37 -33 -81 -43.5t-102 -10.5zM329 781q-79 0 -123.5 34t-46.5 99h78q2 -35 26.5 -51t66.5 -16t66.5 16t26.5 51h78
q-1 -43 -22 -73t-59 -45t-91 -15z" />
    <glyph glyph-name="uni0424" unicode="&#x424;" horiz-adv-x="837" 
d="M375 -9v115h-80q-80 2 -135.5 38t-83.5 98t-28 140q1 82 35 141t93 91t134 32h65v100h87v-100h64q76 0 135 -32t93 -91t35 -141q1 -78 -29 -140t-86.5 -98t-136.5 -38h-75v-115h-87zM313 181h62v390h-58q-56 0 -96.5 -24t-62.5 -66t-22 -97q0 -58 18 -104t57 -72.5
t102 -26.5zM462 181h62q63 0 102 26.5t57 72.5t18 104q0 55 -22 97t-62.5 66t-96.5 24h-58v-390z" />
    <glyph glyph-name="uni0425" unicode="&#x425;" horiz-adv-x="593" 
d="M14 0l227 353l-220 354h106l170 -282l169 282h105l-220 -351l228 -356h-105l-178 283l-180 -283h-102z" />
    <glyph glyph-name="uni0427" unicode="&#x427;" horiz-adv-x="661" 
d="M487 0v258q-38 -3 -61 -5t-46.5 -3t-61.5 -1q-79 0 -136 19.5t-87.5 68.5t-30.5 138v232h87v-208q0 -71 19.5 -108t60 -50t102.5 -13q33 0 77.5 1.5t76.5 6.5v371h87v-707h-87z" />
    <glyph glyph-name="uni0426" unicode="&#x426;" horiz-adv-x="724" 
d="M618 -195v195h-531v707h87v-628h359v628h87v-628h85v-274h-87z" />
    <glyph glyph-name="uni0428" unicode="&#x428;" horiz-adv-x="965" 
d="M87 0v707h87v-628h265v628h87v-628h265v628h87v-707h-791z" />
    <glyph glyph-name="uni0429" unicode="&#x429;" horiz-adv-x="982" 
d="M876 -195v195h-789v707h87v-628h265v628h87v-628h265v628h87v-628h85v-274h-87z" />
    <glyph glyph-name="uni042C" unicode="&#x42c;" horiz-adv-x="633" 
d="M86 0v707h87v-292h145q53 0 100.5 -8t84.5 -29t58.5 -59.5t21.5 -100.5q1 -63 -20.5 -105t-59 -67t-86.5 -35.5t-105 -10.5h-226zM173 79h131q37 0 71 4.5t61 18t42.5 40t15.5 70.5q0 43 -15.5 68t-42.5 37t-60 15.5t-68 3.5h-135v-257z" />
    <glyph glyph-name="uni042B" unicode="&#x42b;" horiz-adv-x="841" 
d="M87 0v707h87v-292h125q52 0 99.5 -8t84.5 -29t58.5 -59.5t21.5 -100.5q0 -61 -20 -103t-56 -67.5t-85 -36.5t-107 -11h-208zM174 79h110q36 0 70.5 5t61.5 18.5t43 40t16 69.5t-15.5 68t-42.5 37t-60 15.5t-68 3.5h-115v-257zM667 0v707h87v-707h-87z" />
    <glyph glyph-name="uni042A" unicode="&#x42a;" horiz-adv-x="731" 
d="M184 0v628h-170v79h257v-292h146q52 0 99.5 -8t84.5 -29t58.5 -59.5t21.5 -100.5q0 -60 -20 -102t-56.5 -67.5t-86 -37t-107.5 -11.5h-227zM271 79h131q36 0 70.5 5t61.5 18.5t43 40t16 69.5t-15.5 68t-42.5 37t-60 15.5t-68 3.5h-136v-257z" />
    <glyph glyph-name="uni0405" unicode="&#x405;" horiz-adv-x="652" 
d="M342 -8q-67 0 -126.5 18.5t-101.5 61t-57 113.5h91q14 -45 45.5 -70t72.5 -34.5t82 -9.5t76.5 11.5t58 37.5t22.5 67q0 32 -11.5 52t-32 32.5t-48.5 20.5q-37 12 -79 20t-82.5 19t-75.5 28q-19 10 -36.5 24.5t-30 34t-20 44.5t-7.5 55q0 56 21 94t57 61t80.5 33t91.5 10
q64 0 117.5 -18.5t87.5 -59.5t37 -111h-85q-5 42 -28 66t-57 34t-72 10q-28 0 -56.5 -5t-52 -17.5t-37.5 -34t-14 -54.5q0 -26 9.5 -46t26 -33.5t36.5 -22.5q48 -20 106.5 -29.5t109.5 -27.5q30 -10 55 -25t42.5 -35t27 -45.5t9.5 -57.5q0 -58 -20 -98.5t-55 -65.5
t-80.5 -36t-96.5 -11z" />
    <glyph glyph-name="uni0404" unicode="&#x404;" horiz-adv-x="707" 
d="M374 -8q-109 0 -181.5 45.5t-108.5 125.5t-36 185q0 103 35 186t106.5 132t180.5 49q66 0 123.5 -19.5t98.5 -62t57 -111.5h-87q-12 42 -42.5 67t-70 36t-79.5 11q-72 0 -122.5 -32.5t-77.5 -87.5t-31 -123h326v-79h-326q3 -70 30 -125t78.5 -86.5t125.5 -31.5
q40 0 80 11t70.5 36t42.5 67h93q-17 -66 -60 -109t-102 -63.5t-123 -20.5z" />
    <glyph glyph-name="uni042D" unicode="&#x42d;" horiz-adv-x="708" 
d="M333 -8q-78 0 -136.5 24t-95.5 67.5t-53 101.5h95q10 -34 36.5 -60t66.5 -40t90 -14q76 0 126.5 32t77.5 87t29 124h-326v79h326q-4 66 -30.5 121t-76 88.5t-124.5 33.5q-50 0 -89.5 -14t-66 -39.5t-36.5 -60.5h-88q16 68 58 110.5t101 62.5t125 20q83 0 143 -28
t99 -78.5t57.5 -117t18.5 -143.5q0 -104 -36 -184.5t-108.5 -126t-182.5 -45.5z" />
    <glyph glyph-name="uni0406" unicode="&#x406;" horiz-adv-x="261" 
d="M87 0v707h87v-707h-87z" />
    <glyph glyph-name="uni0407" unicode="&#x407;" horiz-adv-x="261" 
d="M87 0v707h87v-707h-87zM59 788q-23 0 -38 15t-15 39q0 23 15 37.5t38 14.5t38.5 -14.5t15.5 -37.5q0 -24 -15.5 -39t-38.5 -15zM202 788q-24 0 -38.5 15t-14.5 39q0 23 15 37.5t38 14.5t38 -14.5t15 -37.5q0 -24 -15 -39t-38 -15z" />
    <glyph glyph-name="uni0408" unicode="&#x408;" horiz-adv-x="558" 
d="M266 -8q-52 0 -92.5 12t-68.5 37t-44 63.5t-19 90.5h88q4 -38 19.5 -66t44 -43t72.5 -15q47 0 73.5 20t38 55t11.5 80v481h87v-463q0 -55 -11 -101.5t-35.5 -80t-65 -52t-98.5 -18.5z" />
    <glyph glyph-name="Yucy" unicode="&#x42e;" horiz-adv-x="991" 
d="M610 -8q-102 0 -171.5 41.5t-106.5 114.5t-43 166h-115v-314h-87v707h87v-314h115q6 94 43 166.5t106.5 114t171.5 41.5q110 0 184 -47t111.5 -129t37.5 -186q0 -103 -37.5 -185t-111.5 -129t-184 -47zM610 71q84 0 138 38.5t79.5 102.5t25.5 141q0 78 -26 142
t-79.5 102.5t-137.5 38.5q-62 0 -106.5 -22.5t-72.5 -61.5t-41.5 -90.5t-13.5 -108.5t13 -108t41 -90t72.5 -61.5t107.5 -22.5z" />
    <glyph glyph-name="Yacy" unicode="&#x42f;" horiz-adv-x="660" 
d="M60 0l151 281q-66 16 -111 65.5t-45 137.5q0 60 18 102t51.5 69t81 39.5t105.5 12.5h262v-707h-87v265h-188l-141 -265h-97zM337 344h149v284h-176q-57 0 -94 -15.5t-55 -46.5t-18 -79q0 -58 27 -89t71.5 -42.5t95.5 -11.5z" />
    <glyph glyph-name="uni04C1" unicode="&#x4c1;" horiz-adv-x="860" 
d="M14 0l192 357l-191 350h96l169 -321h106v321h87v-321h108l169 321h94l-191 -350l193 -357h-102l-163 307h-108v-307h-87v307h-108l-163 -307h-101zM429 787q-52 0 -89.5 15t-58 44.5t-22.5 73.5h78q2 -35 26.5 -51t66.5 -16t66.5 16t26.5 51h78q-1 -44 -22 -73.5
t-59 -44.5t-91 -15z" />
    <glyph glyph-name="uni0430" unicode="&#x430;" horiz-adv-x="555" 
d="M236 -6q-36 0 -69.5 9.5t-60 29t-42 49t-15.5 68.5q0 45 16.5 76t44.5 49t65 26t77 8h155q0 45 -12.5 78t-40.5 51.5t-74 18.5q-28 0 -52 -6t-41 -19t-25 -35h-91q7 36 27.5 61.5t50 42t63.5 24.5t68 8q76 0 122 -30.5t67 -86t21 -131.5v-285h-71l-5 67q-22 -30 -53 -46
t-63.5 -21.5t-61.5 -5.5zM244 69q50 0 86.5 16.5t56.5 48.5t20 78v26h-93q-33 0 -65 -1t-58 -8t-41.5 -24t-15.5 -49q0 -30 15.5 -49t41 -28.5t53.5 -9.5z" />
    <glyph glyph-name="uni0431" unicode="&#x431;" horiz-adv-x="576" 
d="M289 -6q-50 0 -89 14.5t-67 41t-46 63t-27 79.5t-9 91q0 77 3.5 143.5t21.5 119t61 87.5t121 49q40 7 79 12t79 10q13 2 27 4t29.5 5t29.5 5v-78q-11 -4 -23.5 -6.5t-26 -4.5t-27 -3t-26.5 -2.5t-25 -3.5q-35 -4 -74 -7.5t-73.5 -16t-58.5 -47.5q-12 -18 -20.5 -43
t-12 -50.5t-4.5 -48.5q20 28 49 45.5t62 26t63 8.5q72 0 122 -29.5t76 -83.5t26 -126t-28 -129.5t-81.5 -91t-130.5 -33.5zM291 69q50 0 84 24t51.5 64t17.5 88q0 47 -17.5 84.5t-51 59.5t-82.5 22q-48 0 -82.5 -23t-53 -61.5t-18.5 -83.5q0 -46 17 -86t50.5 -64t84.5 -24z
" />
    <glyph glyph-name="uni0432" unicode="&#x432;" horiz-adv-x="547" 
d="M67 0v527h204q35 0 69.5 -4.5t63 -18t46 -39.5t17.5 -69q0 -26 -8 -47.5t-23.5 -37.5t-39.5 -28q54 -12 78 -47t24 -80q0 -40 -14.5 -69.5t-40 -48.5t-59 -28.5t-71.5 -9.5h-246zM154 74h139q31 0 58 6t44 22.5t17 47.5q0 32 -14.5 48.5t-37 23t-48.5 7.5t-49 1h-109
v-156zM154 302h73q20 0 46.5 2t52 9.5t42 23.5t16.5 44q0 37 -20.5 51.5t-48.5 17t-52 2.5h-109v-150z" />
    <glyph glyph-name="uni0433" unicode="&#x433;" horiz-adv-x="454" 
d="M67 0v527h364v-75h-279v-452h-85z" />
    <glyph glyph-name="geupturncy" unicode="&#x491;" horiz-adv-x="454" 
d="M67 0v527h280v140h84v-215h-279v-452h-85z" />
    <glyph glyph-name="uni0434" unicode="&#x434;" horiz-adv-x="593" 
d="M22 -162v236q29 0 46.5 16t27.5 42t15 56.5t8 58.5q5 46 6.5 91.5t1.5 72.5q1 29 1 58v58h374v-453h69v-236h-82v162h-385v-162h-82zM157 74h260v378h-208q-1 -42 -2 -94t-4 -97q-1 -26 -4.5 -59t-12.5 -66.5t-29 -61.5z" />
    <glyph glyph-name="uni0435" unicode="&#x435;" horiz-adv-x="573" 
d="M295 -6q-84 0 -139 34.5t-82 95.5t-27 139q0 79 28.5 139.5t83.5 95.5t135 35q59 0 103.5 -22.5t74 -60.5t43 -85t11.5 -97q-1 -9 -1 -18t-1 -18h-391q4 -46 23 -83t54 -58.5t87 -21.5q26 0 52.5 6.5t48 22.5t30.5 43h87q-12 -51 -45 -83.5t-79 -48t-96 -15.5zM135 306
h305q-1 45 -20 79t-51.5 53t-77.5 19q-49 0 -82.5 -21t-51.5 -55t-22 -75z" />
    <glyph glyph-name="uni0451" unicode="&#x451;" horiz-adv-x="573" 
d="M295 -6q-84 0 -139 34.5t-82 95.5t-27 139q0 79 28.5 139.5t83.5 95.5t135 35q59 0 103.5 -22.5t74 -60.5t43 -85t11.5 -97q-1 -9 -1 -18t-1 -18h-391q4 -46 23 -83t54 -58.5t87 -21.5q26 0 52.5 6.5t48 22.5t30.5 43h87q-12 -51 -45 -83.5t-79 -48t-96 -15.5zM135 306
h305q-1 45 -20 79t-51.5 53t-77.5 19q-49 0 -82.5 -21t-51.5 -55t-22 -75zM399 608q-24 0 -40 15.5t-16 40.5t16 40.5t40 15.5q25 0 41.5 -15.5t16.5 -40.5t-16.5 -40.5t-41.5 -15.5zM174 608q-24 0 -40.5 15.5t-16.5 40.5t16.5 40.5t40.5 15.5q25 0 41.5 -15.5t16.5 -40.5
t-16.5 -40.5t-41.5 -15.5z" />
    <glyph glyph-name="uni0436" unicode="&#x436;" horiz-adv-x="761" 
d="M14 0l171 276l-156 251h91l139 -228h79v228h85v-228h79l139 228h91l-156 -251l171 -276h-99l-137 227h-88v-227h-85v227h-88l-137 -227h-99z" />
    <glyph glyph-name="uni0437" unicode="&#x437;" horiz-adv-x="514" 
d="M258 -6q-38 0 -76 7t-70.5 23.5t-52.5 45t-22 71.5h83q5 -27 29 -43t54.5 -22.5t54.5 -6.5q28 0 57.5 6t50 24t20.5 53q0 34 -16.5 50t-43 21t-57.5 5h-94v75h77q19 0 39 3.5t37 12t27.5 24.5t10.5 41q0 28 -16 44t-41 22.5t-51 6.5q-24 0 -50.5 -5t-45.5 -19.5
t-23 -42.5h-84q2 54 33 85t77 44.5t92 13.5q35 0 69 -7t62 -23.5t44.5 -43.5t16.5 -67q0 -36 -17 -64t-52 -45q51 -16 71 -50t20 -81q0 -42 -18 -71.5t-48.5 -49t-68.5 -28.5t-78 -9z" />
    <glyph glyph-name="uni0438" unicode="&#x438;" horiz-adv-x="596" 
d="M67 0v527h85v-404q7 14 19 30.5t19 25.5l255 348h84v-527h-85v404q-8 -15 -17.5 -28t-17.5 -24l-259 -352h-83z" />
    <glyph glyph-name="uni0439" unicode="&#x439;" horiz-adv-x="596" 
d="M67 0v527h85v-404q7 14 19 30.5t19 25.5l255 348h84v-527h-85v404q-8 -15 -17.5 -28t-17.5 -24l-259 -352h-83zM305 601q-79 0 -123.5 34t-46.5 99h78q2 -35 26.5 -51t66.5 -16t66.5 16t26.5 51h78q-1 -43 -22 -73t-59 -45t-91 -15z" />
    <glyph glyph-name="uni043A" unicode="&#x43a;" horiz-adv-x="519" 
d="M67 0v527h85v-227h92l156 227h97l-176 -251l191 -276h-100l-158 226h-102v-226h-85z" />
    <glyph glyph-name="uni043B" unicode="&#x43b;" horiz-adv-x="560" 
d="M19 -1v74q20 0 36 8.5t28 25.5q14 20 22 58t11 81q4 48 6 94.5t3.5 92.5t1.5 94h366v-527h-85v452h-198q-1 -34 -2.5 -68.5l-3 -69t-3.5 -69.5q-1 -40 -8 -90t-30 -91q-22 -39 -53.5 -52t-90.5 -13z" />
    <glyph glyph-name="uni043C" unicode="&#x43c;" horiz-adv-x="699" 
d="M67 0v527h114l171 -264l168 264h112v-527h-84v433l-186 -298h-24l-187 298v-433h-84z" />
    <glyph glyph-name="uni043D" unicode="&#x43d;" horiz-adv-x="568" 
d="M67 0v527h85v-231h264v231h85v-527h-85v221h-264v-221h-85z" />
    <glyph glyph-name="uni043E" unicode="&#x43e;" horiz-adv-x="595" 
d="M297 -6q-83 0 -139 34.5t-83.5 95.5t-27.5 139q0 79 27.5 139.5t83.5 95.5t141 35q83 0 138.5 -35t83 -95.5t27.5 -139.5q0 -78 -28 -139t-83.5 -95.5t-139.5 -34.5zM297 69q58 0 94.5 26t54 70t17.5 98t-17.5 98t-54 70t-94.5 26q-57 0 -93.5 -26t-54 -70t-17.5 -98
t17.5 -98t54 -70t93.5 -26z" />
    <glyph glyph-name="uni043F" unicode="&#x43f;" horiz-adv-x="571" 
d="M67 0v527h437v-527h-85v452h-267v-452h-85z" />
    <glyph glyph-name="uni0440" unicode="&#x440;" horiz-adv-x="600" 
d="M67 -190v717h81l4 -81q27 43 73.5 65t100.5 22q80 0 131 -35.5t75.5 -96.5t24.5 -138t-25 -138t-77 -96t-133 -35q-40 0 -72 8.5t-56 24.5t-42 36v-253h-85zM315 69q58 0 92 26.5t49.5 70.5t15.5 97q0 54 -15.5 98t-50.5 70t-93 26q-52 0 -88.5 -26.5t-55.5 -71
t-19 -97.5q0 -55 18 -99t55 -69t92 -25z" />
    <glyph glyph-name="uni0441" unicode="&#x441;" horiz-adv-x="553" 
d="M292 -6q-83 0 -137.5 34.5t-81 95.5t-26.5 138q0 75 27.5 136.5t84 98t143.5 36.5q54 0 96.5 -18t70.5 -52.5t39 -86.5h-87q-15 44 -47.5 62.5t-76.5 18.5q-60 0 -96 -28t-52.5 -72.5t-16.5 -94.5q0 -52 17 -96t53 -70.5t93 -26.5q42 0 79.5 18t49.5 64h88
q-10 -54 -42.5 -89t-79 -51.5t-98.5 -16.5z" />
    <glyph glyph-name="uni0442" unicode="&#x442;" horiz-adv-x="465" 
d="M190 0v452h-181v75h447v-75h-181v-452h-85z" />
    <glyph glyph-name="uni0443" unicode="&#x443;" horiz-adv-x="549" 
d="M84 -226v81q49 0 78 13.5t48.5 42t37.5 72.5l-231 544h100l178 -444l146 444h96l-148 -415q-11 -32 -25 -72t-31 -81.5t-37.5 -77t-45.5 -57.5q-21 -19 -41 -30t-48.5 -15.5t-76.5 -4.5z" />
    <glyph glyph-name="uni045E" unicode="&#x45e;" horiz-adv-x="554" 
d="M89 -226v81h6q47 0 75 14.5t46.5 43t36.5 70.5l-236 544h100l183 -444l146 444h96l-147 -415q-11 -32 -25 -72t-31 -81.5t-38 -77t-46 -57.5q-37 -33 -71 -41.5t-77 -8.5h-18zM288 601q-79 0 -123.5 34t-46.5 99h78q2 -35 26.5 -51t66.5 -16t66.5 16t26.5 51h78
q-1 -43 -22.5 -73t-59 -45t-90.5 -15z" />
    <glyph glyph-name="uni0444" unicode="&#x444;" horiz-adv-x="722" 
d="M318 -180v174q-61 2 -111.5 18.5t-87 49t-56.5 81.5t-20 116q0 90 33 150t94.5 91t147.5 32v162h85v-162q86 -1 148 -32.5t95 -91.5t33 -149t-35 -147t-97 -86.5t-144 -31.5v-174h-85zM318 65v394q-94 0 -142 -50t-48 -147q0 -64 21 -108t63 -66t106 -23zM403 65
q65 1 107 23t63 66t21 108q0 97 -48.5 147t-142.5 50v-394z" />
    <glyph glyph-name="uni0445" unicode="&#x445;" horiz-adv-x="515" 
d="M14 0l188 269l-179 258h102l134 -200l130 200h99l-178 -261l191 -266h-101l-146 201l-144 -201h-96z" />
    <glyph glyph-name="uni0447" unicode="&#x447;" horiz-adv-x="529" 
d="M377 0v203q-38 -7 -73.5 -9.5t-63.5 -2.5q-74 0 -117 23t-61 70.5t-18 118.5v124h85v-118q0 -46 9 -78t35 -48.5t78 -16.5q30 0 63.5 3t62.5 9v249h85v-527h-85z" />
    <glyph glyph-name="uni0446" unicode="&#x446;" horiz-adv-x="584" 
d="M479 -162v162h-412v527h85v-453h255v453h86v-453h69v-236h-83z" />
    <glyph glyph-name="uni0448" unicode="&#x448;" horiz-adv-x="787" 
d="M67 0v527h85v-453h198v453h85v-453h200v453h85v-527h-653z" />
    <glyph glyph-name="uni0449" unicode="&#x449;" horiz-adv-x="811" 
d="M707 -162v162h-640v527h85v-453h198v453h85v-453h200v453h85v-453h69v-236h-82z" />
    <glyph glyph-name="uni044C" unicode="&#x44c;" horiz-adv-x="519" 
d="M67 0v527h87v-201h116q47 0 84.5 -7.5t64.5 -25.5t41.5 -48.5t14.5 -77.5q0 -43 -15 -74.5t-42 -52t-64.5 -30.5t-82.5 -10h-204zM154 74h50q35 0 67.5 2t59.5 10t42.5 26.5t15.5 51.5q0 32 -12.5 49.5t-32.5 26t-43.5 10.5t-46.5 2h-100v-178z" />
    <glyph glyph-name="uni044B" unicode="&#x44b;" horiz-adv-x="679" 
d="M67 0v527h87v-201h95q47 0 85 -8t65 -26t41 -48.5t14 -76.5q0 -44 -15 -76t-42.5 -52t-65 -29.5t-81.5 -9.5h-183zM154 74h28q35 0 68 1.5t59.5 9.5t42.5 26.5t16 52.5q0 32 -12.5 49.5t-32.5 26t-43.5 10.5t-46.5 2h-79v-178zM527 0v527h85v-527h-85z" />
    <glyph glyph-name="uni044A" unicode="&#x44a;" horiz-adv-x="590" 
d="M142 0v452h-128v75h215v-201h117q47 0 84.5 -7.5t64 -24.5t41 -47t14.5 -75q0 -46 -15 -79t-42.5 -53.5t-64.5 -30t-81 -9.5h-205zM229 74h50q36 0 69.5 1.5t59.5 9.5t41 28t15 56q0 29 -12 45.5t-31.5 24.5t-43.5 10.5t-47 2.5h-101v-178z" />
    <glyph glyph-name="uni0455" unicode="&#x455;" horiz-adv-x="509" 
d="M259 -6q-36 0 -72.5 7t-68 24t-52.5 46t-27 72h86q10 -27 32.5 -43.5t51 -23.5t54.5 -7q16 0 37 2t40.5 9.5t32 22.5t12.5 42q0 20 -9 33t-25 21.5t-39 12.5q-47 10 -100.5 19t-94.5 34q-14 9 -25.5 20.5t-19.5 26t-12.5 32t-4.5 38.5q0 40 16 68.5t44.5 47t65 27
t76.5 8.5q52 0 93.5 -16.5t68.5 -48t32 -77.5h-79q-7 29 -38 47.5t-79 18.5q-16 0 -36 -2.5t-38 -10t-30 -22t-12 -38.5q0 -22 11.5 -37t32.5 -24t48 -15q35 -7 77 -14.5t66 -15.5q32 -10 53.5 -28t32 -43t10.5 -58q0 -47 -18.5 -77t-49.5 -47t-68.5 -24t-74.5 -7z" />
    <glyph glyph-name="uni0454" unicode="&#x454;" horiz-adv-x="547" 
d="M283 -6q-84 0 -137 34t-78 94.5t-25 140.5q0 79 27 139.5t81.5 95.5t136.5 35q79 0 138 -38t77 -119h-85q-8 31 -29.5 48.5t-49.5 25t-57 7.5q-49 0 -82.5 -21t-50.5 -56.5t-20 -81.5h232v-74h-231q2 -46 20.5 -80.5t52.5 -54t80 -20.5q28 0 57 7.5t51 25.5t30 49h87
q-10 -53 -44.5 -88t-82 -52t-98.5 -17z" />
    <glyph glyph-name="uni044D" unicode="&#x44d;" horiz-adv-x="548" 
d="M262 -6q-52 0 -99.5 16.5t-80 51.5t-43.5 89h88q8 -31 30.5 -49t51.5 -25.5t57 -7.5q50 0 83 21.5t50.5 56.5t18.5 77h-231v74h232q-3 47 -21 82.5t-50.5 56t-81.5 20.5q-29 0 -57.5 -7.5t-49.5 -25t-29 -48.5h-86q13 54 45 88.5t78 51.5t99 17q85 0 137.5 -35t77 -96
t24.5 -139q0 -80 -26 -140.5t-79.5 -94.5t-137.5 -34z" />
    <glyph glyph-name="uni0456" unicode="&#x456;" horiz-adv-x="233" 
d="M74 0v527h85v-527h-85zM116 607q-25 0 -41 16t-16 41q0 17 7.5 29.5t20.5 19.5t29 7q24 0 41 -15.5t17 -40.5t-17 -41t-41 -16z" />
    <glyph glyph-name="uni0457" unicode="&#x457;" horiz-adv-x="219" 
d="M67 0v527h85v-527h-85zM38 608q-23 0 -38 15t-15 39q0 23 15 37.5t38 14.5t38.5 -14.5t15.5 -37.5q0 -24 -15.5 -39t-38.5 -15zM181 608q-24 0 -38.5 15t-14.5 39q0 23 15 37.5t38 14.5t38 -14.5t15 -37.5q0 -24 -15 -39t-38 -15z" />
    <glyph glyph-name="uni0458" unicode="&#x458;" horiz-adv-x="254" 
d="M-31 -180v74h36q36 0 55.5 12t27 35.5t7.5 57.5v528h85v-537q0 -58 -16.5 -96t-52.5 -56t-96 -18h-46zM137 607q-25 0 -41 16t-16 41q0 17 7.5 29.5t20.5 19.5t29 7q24 0 41 -15.5t17 -40.5t-17 -41t-41 -16z" />
    <glyph glyph-name="yucy" unicode="&#x44e;" horiz-adv-x="785" 
d="M494 -6q-116 0 -175 64.5t-67 167.5h-100v-226h-85v527h85v-227h100q6 69 33.5 121.5t79.5 82t129 29.5q84 0 139 -35t82 -95.5t27 -139.5q0 -78 -27 -139t-82 -95.5t-139 -34.5zM494 69q58 0 93.5 26t52.5 70t17 98t-17 98t-52.5 70t-93.5 26q-57 0 -92.5 -26t-51.5 -70
t-16 -98t16 -98t51.5 -70t92.5 -26z" />
    <glyph glyph-name="yacy" unicode="&#x44f;" horiz-adv-x="534" 
d="M34 0l137 208q-57 16 -90 52.5t-33 97.5q0 48 14 80.5t41 52t65 28t87 8.5h212v-527h-85v195h-121l-128 -195h-99zM319 269h63v183h-113q-30 0 -55 -3t-42.5 -12.5t-27.5 -27t-10 -47.5q0 -33 16.5 -52t43 -27.5t59.5 -11t66 -2.5z" />
    <glyph glyph-name="uni04C2" unicode="&#x4c2;" horiz-adv-x="761" 
d="M14 0l183 276l-168 251h93l151 -228h65v228h85v-228h65l151 228h93l-168 -251l183 -276h-99l-149 227h-76v-227h-85v227h-76l-149 -227h-99zM380 606q-52 0 -90 15t-58 44.5t-22 73.5h78q2 -23 13 -38t31.5 -22t48.5 -7t48.5 7t32 22t12.5 38h78q-1 -44 -22 -73.5
t-59 -44.5t-91 -15z" />
    <glyph glyph-name="zero" unicode="0" horiz-adv-x="665" 
d="M333 -8q-74 0 -126.5 27.5t-85.5 77t-48.5 115t-15.5 141.5t15 141.5t48 115t85.5 77.5t127.5 28q79 0 132.5 -30.5t85 -82.5t45 -116.5t13.5 -132.5t-13.5 -132.5t-45 -116t-85 -82t-132.5 -30.5zM333 71q59 0 95.5 25.5t56.5 67.5t27 91.5t7 97.5q0 47 -7 96.5t-27 92
t-56.5 68.5t-95.5 26q-60 0 -97 -26t-56.5 -68.5t-26.5 -92t-7 -96.5q0 -48 7 -97.5t26.5 -91.5t56.5 -67.5t97 -25.5z" />
    <glyph glyph-name="one" unicode="1" horiz-adv-x="363" 
d="M169 0v567h-144v59q40 3 71 9.5t55.5 23t43.5 48.5h61v-707h-87z" />
    <glyph glyph-name="two" unicode="2" horiz-adv-x="566" 
d="M30 0v73l200 173q27 23 59.5 50.5t62 59.5t49 68.5t19.5 77.5q0 64 -38 98.5t-102 34.5q-51 0 -89 -21t-50 -61h-93q10 55 45.5 90.5t86 53.5t104.5 18q66 0 116.5 -24t79 -69.5t28.5 -111.5q0 -65 -24.5 -114t-64 -88.5t-84.5 -77.5l-179 -151h360v-79h-486z" />
    <glyph glyph-name="three" unicode="3" horiz-adv-x="599" 
d="M291 -8q-42 0 -84.5 8.5t-79 27.5t-62 51t-32.5 79h90q12 -34 40 -53t62.5 -26.5t66.5 -7.5q23 0 50 4t52.5 17t41.5 38.5t16 67.5q0 40 -15 64.5t-40 37t-55.5 16.5t-61.5 4h-68v78h41q35 0 66 6.5t55 20.5t37.5 37t13.5 57q0 49 -20.5 74t-52.5 34t-67 9
q-28 0 -57.5 -8.5t-52.5 -27t-31 -49.5h-87q6 44 28 75t54.5 51t72 29t80.5 9q45 0 84.5 -9.5t69.5 -31t47.5 -56.5t17.5 -85q0 -37 -12 -68t-35.5 -54t-58.5 -38q45 -8 75.5 -32t46 -58.5t15.5 -77.5q0 -67 -24 -109t-62 -64.5t-82 -31t-83 -8.5z" />
    <glyph glyph-name="four" unicode="4" horiz-adv-x="633" 
d="M426 0v141h-384v65l346 501h125v-487h83v-79h-83v-141h-87zM147 220h279v408z" />
    <glyph glyph-name="five" unicode="5" horiz-adv-x="616" 
d="M308 -9q-44 0 -84.5 10t-73.5 30.5t-56 52.5t-32 76h88q11 -28 35 -48t54.5 -30.5t60.5 -10.5q49 0 87.5 16t61.5 49.5t23 86.5q0 73 -44 112t-114 39q-42 0 -77.5 -15t-64.5 -41h-90l32 389h423v-80h-345l-20 -222q27 22 66 35.5t96 13.5q68 0 119.5 -28t80 -78.5
t28.5 -119.5q0 -74 -33.5 -127t-91 -81.5t-129.5 -28.5z" />
    <glyph glyph-name="six" unicode="6" horiz-adv-x="623" 
d="M328 -8q-72 0 -123.5 27.5t-84 75t-47.5 108t-15 127.5q0 79 15.5 148.5t49 122.5t87.5 83.5t130 30.5q51 0 95.5 -17.5t77.5 -52t49 -84.5h-91q-18 37 -55 56t-77 19q-46 0 -79 -17.5t-55.5 -46.5t-36 -66t-19.5 -77t-6 -78q23 35 53.5 57t67 32.5t74.5 10.5
q70 0 121.5 -28.5t80.5 -79t29 -116.5q0 -70 -31 -123t-85.5 -82.5t-124.5 -29.5zM326 71q45 0 79.5 19.5t54.5 53t20 74.5q0 44 -19 78t-52.5 54t-78.5 20q-41 0 -78 -18.5t-59.5 -52t-22.5 -79.5q0 -42 20.5 -75.5t56 -53.5t79.5 -20z" />
    <glyph glyph-name="seven" unicode="7" horiz-adv-x="505" 
d="M100 0l286 627h-374v80h470v-72l-286 -635h-96z" />
    <glyph glyph-name="eight" unicode="8" horiz-adv-x="622" 
d="M311 -8q-48 0 -93.5 10.5t-81.5 34.5t-57.5 63.5t-21.5 96.5q0 40 14 73t40.5 57t62.5 38q-40 19 -61 47.5t-28 59.5t-7 56q0 50 19.5 85t53 58t75 33.5t85.5 10.5t85.5 -10.5t75 -33.5t53 -58t19.5 -85q0 -26 -7.5 -56t-28.5 -57.5t-61 -46.5q38 -14 64.5 -39t40 -58.5
t13.5 -73.5q0 -57 -21.5 -96.5t-58 -63.5t-81.5 -34.5t-93 -10.5zM311 71q24 0 52 5t53.5 18.5t42 38t16.5 63.5q0 46 -23.5 73t-61 39t-79.5 12q-41 0 -79 -12t-62 -39t-24 -73q0 -39 16.5 -63.5t42.5 -38t54 -18.5t52 -5zM311 397q38 0 70 12.5t52.5 38t20.5 64.5
q1 46 -19 73t-52.5 39t-71.5 12q-40 0 -72.5 -12.5t-51.5 -39t-19 -68.5t20.5 -68.5t53 -38.5t69.5 -12z" />
    <glyph glyph-name="nine" unicode="9" horiz-adv-x="620" 
d="M287 -8q-51 0 -97.5 17t-80.5 51.5t-47 85.5h96q18 -38 58.5 -56.5t80.5 -18.5q54 0 89.5 22.5t56 61.5t29.5 87.5t9 100.5v11v11q-19 -39 -51 -62.5t-71 -34t-79 -10.5q-62 0 -113.5 25.5t-82 75t-30.5 120.5t31 124t86.5 82.5t128.5 29.5q78 0 129.5 -33t81 -88
t41.5 -120.5t12 -130.5q0 -75 -15 -138.5t-48 -111.5t-86 -74.5t-128 -26.5zM293 338q43 0 78.5 18t57 50t21.5 75q0 46 -20 80.5t-54.5 54.5t-78.5 20q-45 0 -79.5 -20t-54.5 -54t-20 -75q0 -70 40.5 -109.5t109.5 -39.5z" />
    <glyph glyph-name="zero.tf" horiz-adv-x="672" 
d="M336 -8q-74 0 -126.5 27.5t-85.5 77t-48.5 115t-15.5 141.5t15 141.5t48 115t85.5 77.5t127.5 28q79 0 132.5 -30.5t85 -82.5t45 -116.5t13.5 -132.5t-13.5 -132.5t-45 -116t-85 -82t-132.5 -30.5zM336 71q59 0 95.5 25.5t56.5 67.5t27 91.5t7 97.5q0 47 -7 96.5t-27 92
t-56.5 68.5t-95.5 26q-60 0 -97 -26t-56.5 -68.5t-26.5 -92t-7 -96.5q0 -48 7 -97.5t26.5 -91.5t56.5 -67.5t97 -25.5z" />
    <glyph glyph-name="one.tf" horiz-adv-x="672" 
d="M319 0v567h-144v59q40 2 71.5 9t56 24t42.5 48h61v-707h-87z" />
    <glyph glyph-name="two.tf" horiz-adv-x="672" 
d="M92 0v72l200 175q27 23 59.5 50.5t62 59t49 68t19.5 77.5q0 65 -38 99t-102 34q-51 0 -89 -21t-50 -61h-93q10 55 45 90.5t85.5 53.5t104.5 18q66 0 116.5 -24t79.5 -70t29 -111t-24.5 -114t-64 -88.5t-84.5 -77.5l-179 -151h360v-79h-486z" />
    <glyph glyph-name="three.tf" horiz-adv-x="672" 
d="M339 -8q-42 0 -84.5 8.5t-79 27.5t-62 51t-32.5 79h90q12 -34 40 -53t62.5 -26.5t66.5 -7.5q23 0 50 4t52.5 17t41.5 38.5t16 67.5q0 40 -15 64.5t-40 37t-55.5 16.5t-61.5 4h-68v78h41q35 0 66 6.5t55 20.5t37.5 37t13.5 57q0 49 -20.5 74t-52.5 34t-67 9
q-28 0 -57.5 -8.5t-52.5 -27t-31 -49.5h-87q6 44 28 75t54.5 51t72 29t80.5 9q45 0 84.5 -9.5t69.5 -31t47.5 -56.5t17.5 -85q0 -37 -12 -68t-35.5 -54t-58.5 -38q45 -8 75.5 -32t46 -58.5t15.5 -77.5q0 -57 -19.5 -97.5t-53.5 -66t-79.5 -37.5t-98.5 -12z" />
    <glyph glyph-name="four.tf" horiz-adv-x="672" 
d="M439 0v141h-384v65l346 501h125v-487h83v-79h-83v-141h-87zM160 220h279v408z" />
    <glyph glyph-name="five.tf" horiz-adv-x="672" 
d="M333 -9q-44 0 -84.5 10t-73.5 30.5t-56 52.5t-32 76h88q11 -28 35 -48t54.5 -30.5t60.5 -10.5q49 0 87.5 16t61.5 49.5t23 86.5q0 73 -44 112t-114 39q-42 0 -77.5 -15t-64.5 -41h-90l32 389h423v-80h-345l-20 -222q27 22 66 35.5t96 13.5q68 0 119.5 -28t80 -78.5
t28.5 -119.5q0 -74 -33.5 -127t-91 -81.5t-129.5 -28.5z" />
    <glyph glyph-name="six.tf" horiz-adv-x="672" 
d="M347 -8q-74 0 -125.5 26t-83 71.5t-46.5 104t-15 123.5q-1 80 13.5 151.5t47.5 127t87.5 87.5t133.5 32q51 0 95.5 -17.5t77.5 -52t49 -84.5h-91q-18 37 -55 56t-77 19q-46 0 -79 -17.5t-56 -47t-36.5 -66.5t-19.5 -77t-6 -77q23 35 54 57t67.5 32.5t74.5 10.5
q70 0 121.5 -28.5t80.5 -79t29 -116.5q0 -70 -31 -123t-85.5 -82.5t-124.5 -29.5zM345 71q45 0 79.5 19.5t54.5 53t20 74.5q0 44 -19 78t-52.5 54t-78.5 20q-41 0 -78 -18.5t-59.5 -52t-22.5 -79.5q0 -42 20.5 -75.5t56 -53.5t79.5 -20z" />
    <glyph glyph-name="seven.tf" horiz-adv-x="672" 
d="M196 0l286 627h-374v80h470v-72l-286 -635h-96z" />
    <glyph glyph-name="eight.tf" horiz-adv-x="672" 
d="M336 -8q-48 0 -93.5 10.5t-81.5 34.5t-57.5 63.5t-21.5 96.5q0 40 14 73t40.5 57t62.5 38q-40 19 -61 47.5t-28 59.5t-7 56q0 50 19.5 85t53 58t75 33.5t85.5 10.5t85.5 -10.5t75 -33.5t53 -58t19.5 -85q0 -26 -7.5 -56t-28.5 -57.5t-61 -46.5q38 -14 64.5 -39t40 -58.5
t13.5 -73.5q0 -57 -21.5 -96.5t-58 -63.5t-81.5 -34.5t-93 -10.5zM336 71q24 0 52 5t53.5 18.5t42 38t16.5 63.5q0 46 -23.5 73t-61 39t-79.5 12q-41 0 -79 -12t-62 -39t-24 -73q0 -39 16.5 -63.5t42.5 -38t54 -18.5t52 -5zM336 397q38 0 70 12.5t52 38t21 64.5
q0 46 -19.5 73t-52 39t-71.5 12q-40 0 -72.5 -12.5t-51.5 -39t-19 -68.5t20.5 -68.5t53 -38.5t69.5 -12z" />
    <glyph glyph-name="nine.tf" horiz-adv-x="672" 
d="M329 -8q-51 0 -97.5 17t-80.5 51.5t-47 85.5h96q18 -38 57 -56.5t79 -18.5q54 0 90.5 22t57.5 60.5t30 87t9 102.5v11v11q-19 -39 -51 -62.5t-71 -34t-79 -10.5q-62 0 -113.5 25.5t-82 75t-30.5 120.5t31 124t86.5 82.5t128.5 29.5q78 0 129.5 -34t81 -90t41.5 -122
t12 -130q0 -72 -15 -135t-47.5 -110.5t-85.5 -74.5t-129 -27zM335 338q43 0 78.5 18t57 50t21.5 75q0 46 -20 80.5t-54.5 54.5t-78.5 20t-79 -20t-55 -54t-20 -75q0 -70 40.5 -109.5t109.5 -39.5z" />
    <glyph glyph-name="uni00B2" unicode="&#xb2;" horiz-adv-x="372" 
d="M62 380v61l99 85q14 12 32.5 28.5t32.5 35.5t14 38q0 27 -15 41t-41 14q-20 0 -36 -9.5t-18 -31.5h-70q2 56 40 82t89 26q53 0 88 -28.5t35 -82.5q0 -44 -22 -75.5t-52 -57.5q-18 -16 -36 -30t-36 -30h142v-66h-246z" />
    <glyph glyph-name="uni00B3" unicode="&#xb3;" horiz-adv-x="399" 
d="M201 376q-35 0 -65 11t-50 35.5t-26 63.5h74q7 -24 25.5 -33.5t41.5 -9.5q25 0 44 11t19 39q0 26 -19 34t-40 8h-37v61h25q14 0 27 5t22 15t9 25q0 24 -16 33.5t-36 9.5q-21 0 -36 -10.5t-20 -31.5h-73q5 56 41 82t89 26q31 0 59.5 -9t46.5 -30t18 -57q0 -24 -12 -44.5
t-33 -31.5q32 -10 45.5 -35t13.5 -57q0 -38 -19.5 -62.5t-50.5 -36t-67 -11.5z" />
    <glyph glyph-name="space" unicode=" " horiz-adv-x="270" 
 />
    <glyph glyph-name="uni00A0" unicode="&#xa0;" horiz-adv-x="270" 
 />
    <glyph glyph-name="uni2009" unicode="&#x2009;" horiz-adv-x="110" 
 />
    <glyph glyph-name="uni202F" unicode="&#x202f;" horiz-adv-x="110" 
 />
    <glyph glyph-name="CR" unicode="&#xd;" horiz-adv-x="189" 
 />
    <glyph glyph-name="period" unicode="." horiz-adv-x="254" 
d="M127 -8q-26 0 -43 17t-17 43t17 43t43 17t43 -17t17 -43t-17 -43t-43 -17z" />
    <glyph glyph-name="comma" unicode="," horiz-adv-x="261" 
d="M91 -121l-24 33q14 10 26 24t21.5 30t13.5 32q-26 2 -42 17t-16 40q1 26 18.5 41.5t40.5 15.5q29 0 46.5 -21t17.5 -59q0 -30 -14.5 -62t-37.5 -56.5t-50 -34.5z" />
    <glyph glyph-name="colon" unicode=":" horiz-adv-x="253" 
d="M126 348q-26 0 -42.5 17t-16.5 43q0 18 7.5 31.5t21 21t30.5 7.5q27 0 43.5 -17t16.5 -43q0 -27 -17.5 -43.5t-42.5 -16.5zM126 -8q-26 0 -42.5 17t-16.5 43q0 18 7.5 31.5t21 21t30.5 7.5q27 0 43.5 -17t16.5 -43t-17.5 -43t-42.5 -17z" />
    <glyph glyph-name="semicolon" unicode=";" horiz-adv-x="261" 
d="M91 -122l-24 33q14 10 26 24t21.5 30t13.5 32q-26 2 -42 17t-16 40q0 28 18 44t44 14q32 -1 46.5 -26t14.5 -57q0 -30 -14.5 -61.5t-37.5 -55.5t-50 -34zM133 348q-26 0 -42.5 17t-16.5 43q0 18 7.5 31.5t21 21t30.5 7.5q26 0 43 -17t17 -43q0 -27 -17 -43.5t-43 -16.5z
" />
    <glyph glyph-name="ellipsis" unicode="&#x2026;" horiz-adv-x="697" 
d="M580 -8q-26 0 -42.5 17t-16.5 43q0 18 7.5 31.5t21 21t30.5 7.5q25 0 42.5 -17t17.5 -43t-17.5 -43t-42.5 -17zM116 -8q-26 0 -42.5 17t-16.5 43q0 18 7.5 31.5t21 21t30.5 7.5q25 0 42.5 -17t17.5 -43t-17.5 -43t-42.5 -17zM350 -8q-26 0 -42.5 17t-16.5 43
q0 18 7.5 31.5t21 21t30.5 7.5q25 0 42.5 -17t17.5 -43t-17.5 -43t-42.5 -17z" />
    <glyph glyph-name="exclam" unicode="!" horiz-adv-x="273" 
d="M99 220l-12 487h97l-12 -487h-73zM136 -8q-17 0 -30.5 7.5t-21 21.5t-7.5 31q0 18 7.5 31.5t21 21t30.5 7.5q25 0 42.5 -17t17.5 -43q0 -17 -8 -31t-21.5 -21.5t-30.5 -7.5z" />
    <glyph glyph-name="exclamdown" unicode="&#xa1;" horiz-adv-x="273" 
d="M89 -182l12 487h73l12 -487h-97zM137 413q-25 0 -42.5 17t-17.5 43t17.5 43t42.5 17q26 0 42.5 -17t16.5 -43t-16.5 -43t-42.5 -17z" />
    <glyph glyph-name="question" unicode="?" horiz-adv-x="513" 
d="M191 213q-1 5 -1 10.5v10.5q0 37 13 64t34 49.5t44.5 43t45.5 43.5q13 14 23 30.5t15.5 34.5t5.5 34q0 34 -15 57t-41 34.5t-61 11.5q-27 0 -54.5 -7.5t-47.5 -25t-27 -47.5h-88q5 40 24.5 70t49.5 49.5t66.5 29.5t75.5 10q53 0 100 -18.5t76 -57.5t29 -102
q0 -31 -8 -57.5t-23.5 -50t-36.5 -45.5q-26 -28 -52 -50.5t-43 -48t-17 -64.5v-4v-4h-87zM233 -8q-26 0 -42.5 17t-16.5 43t16.5 43t42.5 17t43 -17t17 -43t-17 -43t-43 -17z" />
    <glyph glyph-name="questiondown" unicode="&#xbf;" horiz-adv-x="513" 
d="M321 313q1 -5 1 -10.5v-10.5q0 -37 -13 -64t-34 -49.5t-44.5 -43t-45.5 -43.5q-13 -14 -23 -30.5t-15.5 -34t-5.5 -34.5q0 -34 15 -57t41.5 -34.5t60.5 -11.5q28 0 55 7.5t47 25t27 47.5h88q-5 -40 -24.5 -70t-49.5 -49.5t-66.5 -29.5t-75.5 -10q-53 0 -100 18.5t-76 58
t-29 101.5q0 31 8.5 57.5t23.5 50.5t36 45q26 28 52 50.5t43 48.5t17 64v4v4h87zM279 534q26 0 42.5 -17t16.5 -43t-16.5 -43t-42.5 -17t-43 17t-17 43t17 43t43 17z" />
    <glyph glyph-name="periodcentered" unicode="&#xb7;" horiz-adv-x="249" 
d="M124 307q-25 0 -41 16t-16 41t16 40.5t41 15.5q24 0 41 -15.5t17 -40.5t-16.5 -41t-41.5 -16z" />
    <glyph glyph-name="bullet" unicode="&#x2022;" horiz-adv-x="340" 
d="M171 256q-28 0 -53.5 12t-42 36t-16.5 60q0 52 32.5 81.5t80.5 29.5q30 0 55 -13.5t39.5 -38t14.5 -59.5q0 -49 -32.5 -78.5t-77.5 -29.5z" />
    <glyph glyph-name="asterisk" unicode="*" horiz-adv-x="414" 
d="M150 467l-46 34l57 78l-92 30l17 54l92 -30v97h58v-97l91 30l18 -54l-92 -30l57 -78l-46 -34l-57 78z" />
    <glyph glyph-name="numbersign" unicode="#" horiz-adv-x="653" 
d="M135 0l20 179h-96v80h104l21 189h-96v79h105l18 180h85l-19 -180h136l20 180h84l-19 -180h96v-79h-105l-20 -189h96v-80h-105l-19 -179h-84l19 179h-137l-19 -179h-85zM247 259h137l21 189h-137z" />
    <glyph glyph-name="slash" unicode="/" horiz-adv-x="477" 
d="M39 -168l309 969h90l-309 -969h-90z" />
    <glyph glyph-name="backslash" unicode="\" horiz-adv-x="477" 
d="M348 -168l-309 969h90l309 -969h-90z" />
    <glyph glyph-name="colon.case" horiz-adv-x="253" 
d="M126 461q-26 0 -42.5 17t-16.5 43q0 18 7.5 31.5t21 21t30.5 7.5q25 0 42.5 -17t17.5 -43q0 -27 -17.5 -43.5t-42.5 -16.5zM126 105q-26 0 -42.5 17t-16.5 43q0 18 7.5 31.5t21 21t30.5 7.5q25 0 42.5 -17t17.5 -43t-17.5 -43t-42.5 -17z" />
    <glyph glyph-name="periodcentered.loclCAT" horiz-adv-x="254" 
d="M127 302q-26 0 -43 17t-17 43t17 43t43 17t43 -17t17 -43t-17 -43t-43 -17z" />
    <glyph glyph-name="period.tf" horiz-adv-x="270" 
d="M135 -8q-26 0 -43 17t-17 43t17 43t43 17t43 -17t17 -43t-17 -43t-43 -17z" />
    <glyph glyph-name="comma.tf" horiz-adv-x="270" 
d="M92 -122l-24 33q14 10 26 24t21.5 30t13.5 32q-26 2 -42 17t-16 40q1 27 18.5 42t40.5 15q29 0 46.5 -21t17.5 -59q0 -30 -14.5 -62t-37.5 -56.5t-50 -34.5z" />
    <glyph glyph-name="colon.tf" horiz-adv-x="270" 
d="M135 348q-26 0 -43 17t-17 43q0 18 7.5 31.5t21.5 21t31 7.5q26 0 43 -17t17 -43t-17 -43t-43 -17zM135 -8q-26 0 -43 17t-17 43q0 18 7.5 31.5t21.5 21t31 7.5q26 0 43 -17t17 -43t-17 -43t-43 -17z" />
    <glyph glyph-name="semicolon.tf" horiz-adv-x="270" 
d="M93 -121l-24 33q14 10 26 24t21.5 30t13.5 32q-26 2 -42 17t-16 40q0 28 18 42.5t41 14.5q29 0 46.5 -21t17.5 -59q0 -30 -14.5 -62t-37.5 -56.5t-50 -34.5zM135 348q-26 0 -43 17t-17 43q0 18 7.5 31.5t21.5 21t31 7.5q26 0 43 -17t17 -43t-17 -43t-43 -17z" />
    <glyph glyph-name="periodcentered.loclCAT.case" horiz-adv-x="254" 
d="M127 318q-26 0 -43 17t-17 43t17 43t43 17t43 -17t17 -43t-17 -43t-43 -17z" />
    <glyph glyph-name="colon.case.tf" horiz-adv-x="270" 
d="M135 461q-26 0 -43 17t-17 43q0 18 7.5 31.5t21.5 21t31 7.5q26 0 43 -17t17 -43t-17 -43t-43 -17zM135 105q-26 0 -43 17t-17 43q0 18 7.5 31.5t21.5 21t31 7.5q26 0 43 -17t17 -43t-17 -43t-43 -17z" />
    <glyph glyph-name="hyphen" unicode="-" horiz-adv-x="458" 
d="M74 243v78h310v-78h-310z" />
    <glyph glyph-name="endash" unicode="&#x2013;" horiz-adv-x="578" 
d="M74 243v78h430v-78h-430z" />
    <glyph glyph-name="emdash" unicode="&#x2014;" horiz-adv-x="759" 
d="M74 243v78h611v-78h-611z" />
    <glyph glyph-name="underscore" unicode="_" horiz-adv-x="463" 
d="M-3 -174v77h469v-77h-469z" />
    <glyph glyph-name="hyphen.case" horiz-adv-x="458" 
d="M74 299v78h310v-78h-310z" />
    <glyph glyph-name="endash.case" horiz-adv-x="578" 
d="M74 300v78h430v-78h-430z" />
    <glyph glyph-name="emdash.case" horiz-adv-x="759" 
d="M74 300v78h611v-78h-611z" />
    <glyph glyph-name="parenleft" unicode="(" horiz-adv-x="308" 
d="M244 -212q-60 71 -99.5 158.5t-59.5 180t-20 175.5q0 84 20.5 176t60.5 180.5t100 159.5h92q-70 -92 -111.5 -177t-59 -168.5t-17.5 -170.5q0 -88 18.5 -171t59.5 -167t108 -176h-92z" />
    <glyph glyph-name="parenright" unicode=")" horiz-adv-x="308" 
d="M64 -212h-92q67 92 108 176t59.5 167t18.5 171q0 87 -17.5 170.5t-58.5 168.5t-112 177h92q60 -71 100.5 -159.5t60.5 -180.5t20 -176q0 -83 -19.5 -175.5t-59.5 -180t-100 -158.5z" />
    <glyph glyph-name="braceleft" unicode="{" horiz-adv-x="389" 
d="M252 -186q-53 0 -85 22.5t-32 84.5v219q0 35 -7 64.5t-28 47.5t-63 18v65q42 0 63 17.5t28 47.5t7 65v219q0 62 32 84.5t85 22.5h78v-72h-69q-22 0 -31 -9.5t-10.5 -26.5t-1.5 -40v-206q0 -48 -14 -82t-54 -53q27 -12 41.5 -32t20.5 -45.5t6 -56.5v-206q0 -22 1.5 -39.5
t10.5 -27t31 -9.5h69v-72h-78z" />
    <glyph glyph-name="braceright" unicode="}" horiz-adv-x="389" 
d="M137 -186h-78v72h69q23 0 31.5 9.5t10 27t1.5 39.5v206q0 31 6 56.5t21 45.5t41 32q-40 19 -54 53t-14 82v206q0 23 -1.5 40t-10 26.5t-31.5 9.5h-69v72h78q53 0 85 -22.5t32 -84.5v-219q0 -35 7 -65t28 -47.5t63 -17.5v-65q-42 0 -63 -18t-28 -47.5t-7 -64.5v-219
q0 -62 -32 -84.5t-85 -22.5z" />
    <glyph glyph-name="bracketleft" unicode="[" horiz-adv-x="321" 
d="M87 -186v977h199v-72h-116v-833h116v-72h-199z" />
    <glyph glyph-name="bracketright" unicode="]" horiz-adv-x="321" 
d="M35 -186v72h116v833h-116v72h199v-977h-199z" />
    <glyph glyph-name="quotesinglbase" unicode="&#x201a;" horiz-adv-x="261" 
d="M91 -122l-24 33q14 10 26 24t21.5 30t13.5 32q-26 2 -42 17t-16 40q0 28 17.5 43t44.5 15q32 0 46.5 -24.5t14.5 -51.5q0 -32 -13.5 -65t-36.5 -58t-52 -35z" />
    <glyph glyph-name="quotedblbase" unicode="&#x201e;" horiz-adv-x="450" 
d="M280 -122l-24 33q14 10 26 24t21.5 30t13.5 32q-26 2 -42 17t-16 40q0 28 17.5 43t44.5 15q31 -1 46 -25.5t15 -53.5q0 -33 -14 -65t-37.5 -56t-50.5 -34zM91 -122l-24 33q14 10 26 24t21.5 30t13.5 32q-26 2 -42 17t-16 40q0 28 17.5 43t44.5 15q31 -1 46 -25.5
t15 -53.5q0 -33 -14.5 -65t-37.5 -56t-50 -34z" />
    <glyph glyph-name="quotedblleft" unicode="&#x201c;" horiz-adv-x="450" 
d="M321 511q-34 2 -49 25t-15 52q0 35 14.5 67.5t37.5 56.5t50 33l24 -33q-13 -9 -25.5 -23.5t-22 -30.5t-13.5 -32q18 -1 31 -8.5t20 -19.5t7 -29q0 -28 -17 -43.5t-42 -14.5zM133 511q-35 1 -50 24.5t-15 52.5q0 35 14.5 67.5t37.5 56.5t50 33l24 -33q-13 -9 -25.5 -23.5
t-22 -30.5t-13.5 -32q18 -1 31 -8.5t20 -19.5t7 -29q0 -28 -17.5 -43t-40.5 -15z" />
    <glyph glyph-name="quotedblright" unicode="&#x201d;" horiz-adv-x="450" 
d="M280 498l-24 33q14 10 26 24t21.5 30t13.5 32q-26 2 -42 17t-16 40q0 28 18 43.5t45 14.5q33 -1 46.5 -25.5t13.5 -53.5q0 -33 -14 -65t-37.5 -56t-50.5 -34zM91 498l-24 33q14 10 26 24t21.5 30t13.5 32q-26 2 -42 17t-16 40q0 28 18 43.5t45 14.5q33 -1 46.5 -25.5
t13.5 -53.5q0 -33 -14.5 -65t-37.5 -56t-50 -34z" />
    <glyph glyph-name="quoteleft" unicode="&#x2018;" horiz-adv-x="261" 
d="M133 511q-34 0 -49.5 24.5t-15.5 54.5q0 33 14.5 65t37.5 56.5t50 33.5l24 -33q-13 -9 -25.5 -23.5t-22 -30.5t-13.5 -32q18 -1 31 -8.5t20 -19.5t7 -29q0 -28 -18 -43.5t-40 -14.5z" />
    <glyph glyph-name="quoteright" unicode="&#x2019;" horiz-adv-x="261" 
d="M91 498l-24 33q14 10 26 24t21.5 30t13.5 32q-26 2 -42 17t-16 40q0 28 17.5 43t44.5 15q34 0 47.5 -25t13.5 -54q0 -33 -14.5 -65t-37.5 -56t-50 -34z" />
    <glyph glyph-name="guillemotleft" unicode="&#xab;" horiz-adv-x="476" 
d="M152 90l-113 174l113 174h91l-118 -174l118 -174h-91zM327 90l-113 174l113 174h90l-115 -174l115 -174h-90z" />
    <glyph glyph-name="guillemotright" unicode="&#xbb;" horiz-adv-x="476" 
d="M233 90l118 174l-118 174h91l113 -174l-113 -174h-91zM59 90l115 174l-115 174h90l113 -174l-113 -174h-90z" />
    <glyph glyph-name="guilsinglleft" unicode="&#x2039;" horiz-adv-x="301" 
d="M152 90l-113 174l113 174h90l-115 -174l115 -174h-90z" />
    <glyph glyph-name="guilsinglright" unicode="&#x203a;" horiz-adv-x="301" 
d="M59 90l115 174l-115 174h90l113 -174l-113 -174h-90z" />
    <glyph glyph-name="quotedbl" unicode="&#x22;" horiz-adv-x="359" 
d="M225 471l-13 236h88l-13 -236h-62zM72 471l-13 236h88l-13 -236h-62z" />
    <glyph glyph-name="quotesingle" unicode="'" horiz-adv-x="222" 
d="M80 471l-13 236h88l-13 -236h-62z" />
    <glyph glyph-name="quotesinglbase.tf" horiz-adv-x="270" 
d="M92 -122l-24 33q14 10 26 24t21.5 30t13.5 32q-26 2 -42 17t-16 40q0 28 18 42.5t41 14.5q29 0 46.5 -21t17.5 -59q0 -30 -14.5 -62t-37.5 -56.5t-50 -34.5z" />
    <glyph glyph-name="quotedblbase.tf" horiz-adv-x="336" 
d="M211 -121l-24 33q14 10 26 24t21.5 30t13.5 32q-26 2 -42 17t-16 40q0 28 18 42.5t41 14.5q29 0 46.5 -21t17.5 -59q0 -30 -14.5 -62t-37.5 -56.5t-50 -34.5zM46 -121l-24 33q14 10 26 24t21.5 30t13.5 32q-26 2 -42 17t-16 40q0 28 18 42.5t41 14.5q29 0 46.5 -21
t17.5 -59q0 -30 -14.5 -62t-37.5 -56.5t-50 -34.5z" />
    <glyph glyph-name="quotedblleft.tf" horiz-adv-x="336" 
d="M251 513q-29 0 -46.5 21t-17.5 59q0 30 14.5 62t38 57t49.5 34l24 -33q-13 -9 -25.5 -23.5t-22 -30.5t-13.5 -32q18 -1 31 -8.5t20 -19.5t7 -29q0 -28 -18 -42.5t-41 -14.5zM86 513q-29 0 -46.5 21t-17.5 59q0 30 14.5 62t38 57t49.5 34l24 -33q-13 -9 -25.5 -23.5
t-22 -30.5t-13.5 -32q18 -1 31 -8.5t20 -19.5t7 -29q0 -28 -18 -42.5t-41 -14.5z" />
    <glyph glyph-name="quotedblright.tf" horiz-adv-x="336" 
d="M211 499l-24 33q14 10 26 24t21.5 30t13.5 32q-26 2 -42 17t-16 40q0 28 18 42.5t41 14.5q29 0 46.5 -21t17.5 -59q0 -30 -14.5 -62t-37.5 -56.5t-50 -34.5zM46 499l-24 33q14 10 26 24t21.5 30t13.5 32q-26 2 -42 17t-16 40q0 28 18 42.5t41 14.5q29 0 46.5 -21
t17.5 -59q0 -30 -14.5 -62t-37.5 -56.5t-50 -34.5z" />
    <glyph glyph-name="quoteleft.tf" horiz-adv-x="270" 
d="M133 511q-29 0 -47 21t-17 57q0 30 13.5 62t36.5 58t52 35l24 -33q-13 -9 -25.5 -23.5t-22 -30.5t-13.5 -32q18 -1 31 -8.5t20 -19.5t7 -29q0 -28 -18 -42.5t-41 -14.5z" />
    <glyph glyph-name="quoteright.tf" horiz-adv-x="270" 
d="M92 499l-24 33q14 10 26 24t21.5 30t13.5 32q-26 2 -42 17t-16 40q0 28 18 42.5t41 14.5q29 0 46.5 -21t17.5 -59q0 -30 -15 -62t-38 -57t-49 -34z" />
    <glyph glyph-name="quotedbl.tf" horiz-adv-x="336" 
d="M211 471l-13 236h88l-13 -236h-62zM63 471l-13 236h88l-13 -236h-62z" />
    <glyph glyph-name="quotesingle.tf" horiz-adv-x="270" 
d="M104 471l-13 236h88l-13 -236h-62z" />
    <glyph glyph-name="uni2713" unicode="&#x2713;" horiz-adv-x="1039" 
d="M373 -1l-314 373l65 61l250 -292l539 686l67 -61z" />
    <glyph glyph-name="at" unicode="@" horiz-adv-x="983" 
d="M482 -186q-98 0 -174.5 32t-129.5 89t-80.5 133t-27.5 164q0 105 29.5 193t87 153t141.5 101t194 36q94 0 167 -31.5t123 -88t76 -131t26 -160.5q0 -40 -6.5 -87t-25 -89t-54.5 -68.5t-95 -26.5q-48 0 -78 24t-40 62q-20 -32 -44.5 -49.5t-52 -24.5t-58.5 -7
q-62 1 -100 31.5t-55 77t-17 92.5q1 47 14 91t39.5 79.5t65.5 56.5t91 20q27 0 51 -7t43.5 -23t30.5 -42l27 52l55 -6q-9 -55 -16 -110.5t-12 -110.5q-2 -30 -0.5 -61t15 -52t46.5 -21q32 0 51 21t28.5 52t12.5 62.5t3 53.5q0 71 -19.5 132.5t-58.5 108t-97 73t-136 26.5
q-90 0 -157.5 -30.5t-113 -85t-68.5 -126t-23 -152.5q0 -97 39.5 -174t114 -121t178.5 -44q24 0 39.5 1t30 3t35.5 6l7 -84q-34 -7 -60 -10t-62 -3zM473 110q41 0 68.5 20t43 53.5t19.5 74.5q4 38 -6.5 72.5t-35 57t-65.5 22.5q-45 0 -73 -26t-41 -65t-13 -78q0 -16 4 -38.5
t14.5 -43.5t31 -35t53.5 -14z" />
    <glyph glyph-name="ampersand" unicode="&#x26;" horiz-adv-x="677" 
d="M283 -8q-43 0 -82 12t-69 35.5t-47.5 59.5t-17.5 84q0 45 17.5 81t50.5 65t79 52q-39 37 -58.5 77t-19.5 83q0 46 20 85.5t61 64t105 24.5q48 0 85 -18t58 -53t21 -85q0 -42 -20.5 -78t-54.5 -65t-76 -51l150 -178q17 23 28 56t16 69h84q-5 -57 -25 -102.5t-47 -83.5
l112 -126h-114l-56 62q-42 -38 -92.5 -54t-107.5 -16zM297 71q34 0 69.5 11t66.5 42l-174 200q-28 -14 -51 -34t-36.5 -46t-13.5 -59q0 -38 20.5 -63.5t52.5 -38t66 -12.5zM286 417q24 14 51.5 34t47 45.5t19.5 53.5q0 26 -11 45.5t-31 30t-47 10.5q-45 0 -69.5 -24
t-24.5 -66q0 -27 10.5 -50.5t26 -43t28.5 -35.5z" />
    <glyph glyph-name="paragraph" unicode="&#xb6;" horiz-adv-x="635" 
d="M260 0v314h-5q-61 0 -112 20t-82 64.5t-31 119.5q0 59 28 101t74.5 65t102.5 23h370v-79h-87v-628h-87v628h-84v-628h-87z" />
    <glyph glyph-name="section" unicode="&#xa7;" horiz-adv-x="550" 
d="M288 -8q-42 0 -80.5 8t-70 25.5t-52 46t-26.5 69.5h86q10 -30 35.5 -46t53.5 -22t46 -6q24 0 53.5 3.5t50.5 18.5t21 48q0 26 -12 38.5t-30.5 17.5t-39.5 9q-28 6 -62 11.5t-67 14.5t-59 24t-44.5 44.5t-18.5 67.5q0 33 12.5 61t39.5 47q-22 18 -33 41.5t-11 51.5
q0 40 16 68t43.5 45.5t63.5 26t76 8.5q47 0 89.5 -14.5t71 -46t33.5 -81.5h-79q-5 24 -23.5 39t-43.5 22t-50 7q-28 0 -55 -5.5t-44 -21t-17 -45.5q0 -24 13.5 -37.5t33.5 -20t38 -10.5q24 -5 53 -10.5t55.5 -11t42.5 -10.5q51 -14 71 -44.5t20 -76.5q0 -31 -14.5 -57.5
t-34.5 -42.5q27 -14 39 -39.5t12 -63.5q0 -45 -19 -74t-49 -46t-65.5 -24t-68.5 -7zM372 274q10 4 17.5 13.5t12.5 22t5 25.5q0 34 -20.5 48t-54.5 22q-35 8 -73.5 14.5t-73.5 16.5q-13 -11 -21.5 -30t-8.5 -38q0 -21 11 -35.5t30 -22.5t43 -13q30 -5 68.5 -12t64.5 -11z
" />
    <glyph glyph-name="copyright" unicode="&#xa9;" horiz-adv-x="927" 
d="M463 -122q-120 0 -211 50.5t-142 144.5t-51 223q0 128 52 222t143 145.5t209 51.5q119 0 210 -51.5t143 -145.5t52 -222q0 -129 -51 -223t-142 -144.5t-212 -50.5zM463 -48q97 0 169.5 42t113.5 119t41 183t-41.5 183.5t-114.5 119.5t-168 42q-94 0 -167.5 -42
t-115 -119.5t-41.5 -183.5t41 -183t114 -119t169 -42zM470 83q-65 0 -108.5 27.5t-65 76t-21.5 110.5t22 110t65 75.5t107 27.5q72 0 117 -31.5t59 -103.5h-81q-9 35 -34 48.5t-60 13.5q-41 0 -66 -19.5t-36.5 -51t-11.5 -69.5t11.5 -70t37 -51.5t66.5 -19.5q35 0 60.5 13.5
t34.5 48.5h83q-9 -46 -34 -76t-61.5 -44.5t-83.5 -14.5z" />
    <glyph glyph-name="registered" unicode="&#xae;" horiz-adv-x="483" 
d="M242 365q-58 0 -101 22.5t-66 64.5t-23 100t23 101t66 67t101 24q59 0 101 -24t65 -67t23 -101t-23 -100t-65 -64.5t-101 -22.5zM242 412q66 0 103 37t37 103t-36.5 106.5t-103.5 40.5t-104.5 -40.5t-37.5 -106.5t38 -103t104 -37zM170 459v197h83q32 0 52 -14t20 -49
q0 -23 -9 -37.5t-28 -21.5l50 -75h-53l-47 69h-24v-69h-44zM214 568h39q12 0 20 6t8 18q0 11 -7.5 16.5t-17.5 5.5h-42v-46z" />
    <glyph glyph-name="uni2117" unicode="&#x2117;" horiz-adv-x="927" 
d="M463 -122q-90 0 -164.5 28.5t-128 83t-82.5 132t-29 174.5q0 96 29.5 173.5t84 132t128.5 84t162 29.5q89 0 163 -29.5t128.5 -84t84 -132t29.5 -173.5q0 -97 -29 -174.5t-83 -132t-128.5 -83t-164.5 -28.5zM463 -48q97 0 169.5 42t113.5 119t41 183t-41.5 183.5
t-114.5 119.5t-168 42q-94 0 -167.5 -42t-115 -119.5t-41.5 -183.5t41 -183t114 -119t169 -42zM330 72v435h161q50 0 85 -15.5t53.5 -46.5t18.5 -80q0 -52 -20.5 -87.5t-58 -53.5t-89.5 -18h-73v-134h-77zM407 279h70q26 0 47 7.5t33.5 25.5t12.5 48q0 37 -21 55.5t-63 18.5
h-79v-155z" />
    <glyph glyph-name="trademark" unicode="&#x2122;" horiz-adv-x="672" 
d="M318 445v262h96l52 -115l52 115h95v-262h-63v198l-66 -144h-37l-66 144v-198h-63zM144 445v203h-85v59h235v-59h-86v-203h-64z" />
    <glyph glyph-name="degree" unicode="&#xb0;" horiz-adv-x="370" 
d="M183 564q-36 0 -64 14.5t-44 42t-16 67.5t17.5 69t46.5 45t63 16t62.5 -16t45.5 -45t17 -69q0 -39 -17.5 -67t-46.5 -42.5t-64 -14.5zM185 618q29 0 48 18.5t19 53.5t-19.5 53.5t-47.5 18.5t-48 -18.5t-20 -53.5t19.5 -53.5t48.5 -18.5z" />
    <glyph glyph-name="bar" unicode="|" horiz-adv-x="261" 
d="M87 -168v969h87v-969h-87z" />
    <glyph glyph-name="uni2116" unicode="&#x2116;" horiz-adv-x="1061" 
d="M59 0v707h111l356 -589v589h87v-707h-109l-358 587v-587h-87zM716 273v77h281v-77h-281zM858 402q-48 0 -81 21t-49.5 56.5t-16.5 79.5q0 46 17 81t50 55t80 20q46 0 78 -20t49 -55t17 -81q0 -44 -17 -79.5t-49 -56.5t-78 -21zM857 473q26 0 41.5 12t22 32t6.5 42
t-6.5 41.5t-22 31.5t-41.5 12t-42.5 -12t-23.5 -31.5t-7 -41.5q0 -23 7.5 -43t23.5 -31.5t42 -11.5z" />
    <glyph glyph-name="cent" unicode="&#xa2;" horiz-adv-x="584" 
d="M257 -160v158q-66 11 -110 47t-66 92.5t-22 125.5q0 70 22 126t66.5 93t109.5 47v142h87v-140q69 -6 116 -43.5t61 -111.5h-87q-12 44 -45 62.5t-77 18.5q-60 0 -97.5 -27t-54 -71t-16.5 -96q0 -55 19.5 -99t56.5 -69.5t89 -25.5q42 0 79 17.5t49 64.5h88
q-14 -73 -64 -110t-117 -45v-156h-87z" />
    <glyph glyph-name="dollar" unicode="$" horiz-adv-x="656" 
d="M291 -138v133q-56 6 -104.5 27t-82 61.5t-45.5 101.5h91q14 -45 45.5 -70t72.5 -34.5t82 -9.5t76.5 11.5t58 37.5t22.5 67q0 32 -11.5 52t-32 32.5t-48.5 20.5q-37 12 -79 19.5t-82.5 18t-75.5 28.5q-42 23 -68 61t-26 98q0 65 29.5 107t78 64t104.5 26v130h88v-132
q53 -5 95.5 -27.5t68.5 -61.5t28 -97h-85q-5 42 -28 66t-57 34t-72 10q-37 0 -74 -9.5t-61.5 -33.5t-24.5 -68q0 -26 9.5 -46t25.5 -33t36 -22q48 -20 106.5 -30.5t110.5 -27.5q42 -13 72 -34.5t46 -54t16 -78.5q0 -68 -29.5 -112t-78.5 -67t-110 -27v-131h-87z" />
    <glyph glyph-name="Euro" unicode="&#x20ac;" horiz-adv-x="679" 
d="M435 -8q-76 0 -133.5 27t-95 79.5t-55.5 126.5h-102l13 78h83q-1 22 -1.5 36.5t0 29.5t2.5 36h-97l13 78h94q26 109 94 170.5t182 61.5q60 0 106.5 -16t84.5 -53l-44 -63q-32 28 -67 40.5t-81 12.5q-56 0 -95 -22t-61.5 -56.5t-32.5 -74.5h272l-13 -78h-272
q-2 -14 -3.5 -32.5t-0.5 -37t4 -32.5h254l-13 -78h-229q17 -69 67.5 -112.5t131.5 -43.5q46 0 80 10.5t68 41.5l42 -56q-37 -37 -85.5 -55t-109.5 -18z" />
    <glyph glyph-name="uni20B4" unicode="&#x20b4;" horiz-adv-x="589" 
d="M295 -8q-39 0 -75 9t-64 27.5t-44.5 48.5t-16.5 72q0 12 4 29.5t12 34.5h-64v79h123l117 83h-240v79h335q16 9 32 34.5t16 53.5q1 32 -14 53t-41 31t-60 10q-26 0 -51.5 -5.5t-45 -21t-27.5 -47.5h-92q6 40 26 69t50.5 47.5t67 27.5t75.5 9q37 0 72 -9t62.5 -27.5
t43.5 -48t16 -71.5q0 -27 -5.5 -46.5t-14 -33t-18.5 -25.5h68v-79h-138l-117 -83h255v-79h-343q-8 -8 -13 -21.5t-5 -31.5q0 -34 18.5 -54t47 -28.5t58.5 -8.5q28 0 52 5.5t42 20t27 42.5h89q-6 -39 -26 -67t-50 -45t-67 -25t-77 -8z" />
    <glyph glyph-name="uni20BD" unicode="&#x20bd;" horiz-adv-x="699" 
d="M156 0v92h-97v79h97v81h-97v80h97v375h245q59 0 105 -12.5t78 -40t49 -70t17 -102.5q0 -79 -33.5 -130t-92 -75.5t-133.5 -24.5h-148v-81h241v-79h-241v-92h-87zM243 332h149q47 0 85.5 14.5t61.5 48t23 88.5q0 79 -40.5 112t-122.5 33h-156v-296z" />
    <glyph glyph-name="sterling" unicode="&#xa3;" horiz-adv-x="584" 
d="M59 0v79h82v218h-82v79h82v145q0 63 23.5 106t68.5 65.5t107 22.5q71 0 123 -36.5t58 -111.5h-83q-3 22 -17 37.5t-34 23.5t-44 8q-31 0 -57.5 -9t-43 -34t-16.5 -75v-142h208v-79h-208v-218h299v-79h-466z" />
    <glyph glyph-name="yen" unicode="&#xa5;" horiz-adv-x="664" 
d="M289 0v89h-145v77h145v81h-145v77h112l-217 383h100l195 -354l192 354h99l-216 -383h110v-77h-143v-81h143v-77h-143v-89h-87z" />
    <glyph glyph-name="plus" unicode="+" horiz-adv-x="550" 
d="M236 160v155h-147v77h147v155h78v-155h148v-77h-148v-155h-78z" />
    <glyph glyph-name="minus" unicode="&#x2212;" horiz-adv-x="550" 
d="M97 315v77h356v-77h-356z" />
    <glyph glyph-name="multiply" unicode="&#xd7;" horiz-adv-x="550" 
d="M137 165l-50 50l139 138l-139 139l50 50l139 -139l138 139l50 -50l-138 -139l138 -138l-50 -50l-138 138z" />
    <glyph glyph-name="divide" unicode="&#xf7;" horiz-adv-x="550" 
d="M97 322v77h356v-77h-356zM274 118q-26 0 -42.5 17t-16.5 44q0 18 7.5 31.5t21 21t30.5 7.5q26 0 43 -17t17 -43q0 -27 -17 -44t-43 -17zM274 474q-26 0 -42.5 17t-16.5 43q0 18 7.5 31.5t21 21t30.5 7.5q26 0 43 -17t17 -43t-17 -43t-43 -17z" />
    <glyph glyph-name="equal" unicode="=" horiz-adv-x="550" 
d="M73 444v78h404v-78h-404zM73 185v78h404v-78h-404z" />
    <glyph glyph-name="notequal" unicode="&#x2260;" horiz-adv-x="550" 
d="M73 0l83 185h-83v78h118l82 181h-200v78h235l81 181h88l-81 -181h81v-78h-117l-81 -181h198v-78h-233l-83 -185h-88z" />
    <glyph glyph-name="greater" unicode="&#x3e;" horiz-adv-x="550" 
d="M106 99v93l241 159l-241 158v93l338 -230v-43z" />
    <glyph glyph-name="less" unicode="&#x3c;" horiz-adv-x="550" 
d="M444 99l-338 230v43l338 230v-93l-241 -158l241 -159v-93z" />
    <glyph glyph-name="greaterequal" unicode="&#x2265;" horiz-adv-x="550" 
d="M91 242v85l253 103l-253 101v87l369 -152v-72zM91 137v78h369v-78h-369z" />
    <glyph glyph-name="lessequal" unicode="&#x2264;" horiz-adv-x="550" 
d="M460 242l-369 152v72l369 152v-85l-254 -103l254 -102v-86zM91 137v78h369v-78h-369z" />
    <glyph glyph-name="plusminus" unicode="&#xb1;" horiz-adv-x="550" 
d="M236 256v113h-147v77h147v150h78v-150h148v-77h-148v-113h-78zM89 137v77h373v-77h-373z" />
    <glyph glyph-name="approxequal" unicode="&#x2248;" horiz-adv-x="550" 
d="M376 360q-36 0 -64 18t-51 41.5t-44 41.5t-44 18t-35.5 -14.5t-17 -35t-5.5 -39.5h-78q2 33 10 62.5t24 52t41.5 35.5t62.5 13q36 0 64 -18t50.5 -42t44 -42t44.5 -18q24 0 36.5 14.5t17 36t5.5 40.5h77q-2 -33 -10.5 -63t-24 -52.5t-41 -35.5t-62.5 -13zM376 148
q-36 0 -64 18t-51 41.5t-44 41.5t-44 18t-35.5 -14.5t-17 -35.5t-5.5 -40h-78q2 33 10 63t24 52.5t41.5 35.5t62.5 13t64.5 -18t50.5 -42t44 -42t44 -18q24 0 36.5 14.5t17 35t5.5 39.5h77q-2 -33 -10.5 -62t-24 -51.5t-41 -35.5t-62.5 -13z" />
    <glyph glyph-name="asciitilde" unicode="~" horiz-adv-x="550" 
d="M373 263q-40 0 -69 22t-53 45q-19 19 -37.5 33t-38.5 14q-26 0 -38.5 -18.5t-16 -43t-3.5 -44.5h-75q0 33 6 64t21 56.5t41.5 40.5t66.5 15t69 -22t53 -45q20 -19 38 -33.5t38 -14.5q27 0 39.5 18.5t16 43.5t3.5 45h75q-1 -33 -7.5 -64t-21.5 -56.5t-41 -40.5t-66 -15z
" />
    <glyph glyph-name="asciicircum" unicode="^" horiz-adv-x="550" 
d="M103 512l142 203h60l143 -203h-86l-87 131l-87 -131h-85z" />
    <glyph glyph-name="percent" unicode="%" horiz-adv-x="804" 
d="M139 0l435 707h88l-434 -707h-89zM601 -6q-48 0 -80.5 21t-49.5 56.5t-17 79.5q0 46 17 81t50 55t80 20q46 0 78 -20t49 -55t17 -81q0 -44 -17 -79.5t-49 -56.5t-78 -21zM600 65q26 0 41.5 12t22 32t6.5 42t-6.5 41.5t-22 31.5t-41.5 12q-40 0 -56.5 -26t-16.5 -59
q0 -35 17 -60.5t56 -25.5zM205 402q-48 0 -80.5 21t-49 56.5t-16.5 79.5q0 46 16.5 81t49.5 55t80 20t79 -20t48.5 -55t16.5 -81q0 -44 -16.5 -79.5t-48.5 -56.5t-79 -21zM205 473q26 0 41 12t22 32t7 42t-7 41.5t-22 31.5t-41 12q-40 0 -57 -26t-17 -59q0 -35 17 -60.5
t57 -25.5z" />
    <glyph glyph-name="arrowup" unicode="&#x2191;" horiz-adv-x="701" 
d="M313 0v522l-198 -246l-56 48l291 350l292 -350l-57 -48l-198 246v-522h-74z" />
    <glyph glyph-name="uni2197" unicode="&#x2197;" horiz-adv-x="701" 
d="M138 73l-52 52l369 369l-314 -34l-6 74l453 41l-41 -454l-74 7l34 314z" />
    <glyph glyph-name="arrowright" unicode="&#x2192;" horiz-adv-x="701" 
d="M337 45l-48 57l246 198h-522v74h522l-246 198l48 56l350 -291z" />
    <glyph glyph-name="uni2198" unicode="&#x2198;" horiz-adv-x="701" 
d="M589 99l-454 41l6 75l314 -34l-369 369l53 52l369 -369l-34 314l73 6z" />
    <glyph glyph-name="arrowdown" unicode="&#x2193;" horiz-adv-x="701" 
d="M351 0l-292 350l57 48l198 -246v522h74v-522l198 246l56 -48z" />
    <glyph glyph-name="uni2199" unicode="&#x2199;" horiz-adv-x="701" 
d="M112 98l41 454l75 -6l-34 -314l369 369l52 -53l-369 -369l314 34l6 -73z" />
    <glyph glyph-name="arrowleft" unicode="&#x2190;" horiz-adv-x="701" 
d="M363 45l-350 291l350 292l48 -57l-246 -198h522v-74h-522l246 -198z" />
    <glyph glyph-name="uni2196" unicode="&#x2196;" horiz-adv-x="701" 
d="M562 73l-369 369l34 -314l-74 -6l-41 453l454 -41l-7 -74l-314 34l369 -369z" />
    <glyph glyph-name="uni21A9" unicode="&#x21a9;" horiz-adv-x="1138" 
d="M377 -275l-318 314l318 315l45 -58l-228 -220h563q78 0 132 35t82 95t28 134t-28 133.5t-82 94.5t-132 35h-562v76h563q76 0 135.5 -25t101 -70.5t63 -107.5t21.5 -136q0 -75 -21.5 -137.5t-63 -107.5t-101 -70t-135.5 -25h-564l230 -221z" />
    <glyph glyph-name="uni21B6" unicode="&#x21b6;" horiz-adv-x="1012" 
d="M398 -27l-339 126l27 67l209 -84q-30 37 -50 81t-29.5 91t-9.5 93q0 112 45.5 200.5t129 139.5t197.5 51q108 0 188.5 -47.5t129 -129.5t57.5 -185h-89q-8 78 -45 140.5t-98 99t-143 36.5q-89 0 -153.5 -41t-98.5 -110t-34 -154q0 -38 8.5 -80t25.5 -81.5t40 -68.5
l64 228l70 -16z" />
    <glyph glyph-name="uni21B7" unicode="&#x21b7;" horiz-adv-x="1012" 
d="M614 -27l-102 356l70 16l64 -228q24 29 40.5 68.5t25 81.5t8.5 80q0 85 -34 154t-98 110t-154 41q-81 0 -142.5 -36.5t-98.5 -99t-45 -140.5h-89q10 103 58 185t129 129.5t188 47.5q115 0 198 -51t128.5 -139.5t45.5 -200.5q0 -46 -9.5 -93t-29.5 -91t-50 -81l209 84
l27 -67z" />
    <glyph glyph-name="uni21BA" unicode="&#x21ba;" horiz-adv-x="937" 
d="M440 -50q-117 2 -202 51t-131 135t-47 200q-1 97 34 180t101 146l58 -63q-51 -54 -79 -122.5t-27 -140.5q1 -64 21.5 -119t58 -96t90 -64t117.5 -23q74 0 127.5 24.5t88.5 67t52.5 96t18.5 110.5q1 54 -15.5 111t-47.5 107t-75 83l-9 -231h-70l14 366l360 -45l-10 -72
l-237 38q60 -40 100.5 -97t61.5 -124t20 -139q-1 -75 -26 -143t-73.5 -121.5t-117 -84t-156.5 -30.5z" />
    <glyph glyph-name="uni21BB" unicode="&#x21bb;" horiz-adv-x="937" 
d="M497 -50q-88 0 -157 30.5t-117 84t-73.5 121.5t-25.5 143q0 72 20.5 138.5t61 123.5t100.5 98l-237 -38l-10 72l360 45l14 -366h-70l-9 231q-43 -33 -74.5 -83t-48 -107t-15.5 -111q1 -57 18.5 -110.5t52.5 -96t89 -67t127 -24.5q65 0 117.5 23t90 64t58 96t21.5 119
q1 72 -27 140.5t-79 122.5l58 63q66 -63 101 -146t34 -170q-1 -116 -46 -205.5t-129.5 -140t-204.5 -50.5z" />
    <glyph glyph-name="uni27F5" unicode="&#x27f5;" horiz-adv-x="1356" 
d="M377 -48l-318 317l317 316l51 -61l-231 -217h1101v-77h-1100l230 -217z" />
    <glyph glyph-name="rightLongArrow" unicode="&#x27f6;" horiz-adv-x="1356" 
d="M980 -48l-51 61l231 217h-1101v77h1100l-230 217l50 61l318 -317z" />
    <glyph glyph-name="uni0308" unicode="&#x308;" 
d="M112 608q-24 0 -40 15.5t-16 40.5t16 40.5t40 15.5q25 0 41.5 -15.5t16.5 -40.5t-16.5 -40.5t-41.5 -15.5zM-113 608q-24 0 -40.5 15.5t-16.5 40.5t16.5 40.5t40.5 15.5q25 0 41.5 -15.5t16.5 -40.5t-16.5 -40.5t-41.5 -15.5z" />
    <glyph glyph-name="uni0307" unicode="&#x307;" 
d="M0 605q-26 0 -41.5 16t-15.5 41t16 40.5t41 15.5q23 0 40.5 -16t17.5 -40q0 -25 -17 -41t-41 -16z" />
    <glyph glyph-name="gravecomb" unicode="&#x300;" 
d="M-24 606l-100 141h92l85 -141h-77z" />
    <glyph glyph-name="acutecomb" unicode="&#x301;" 
d="M-40 612l85 141h92l-100 -141h-77z" />
    <glyph glyph-name="uni030B" unicode="&#x30b;" 
d="M2 606l85 141h92l-100 -141h-77zM-157 606l85 141h92l-100 -141h-77z" />
    <glyph glyph-name="uni030C.alt" 
d="M133 480l-24 33q14 10 26 24t21.5 30t13.5 32q-26 2 -42 17t-16 40q0 28 16.5 43t43.5 15q34 0 48.5 -25t14.5 -54q0 -33 -14.5 -65t-37.5 -56t-50 -34z" />
    <glyph glyph-name="uni0302" unicode="&#x302;" 
d="M-163 606l133 163h60l134 -163h-86l-78 96l-78 -96h-85z" />
    <glyph glyph-name="uni030C" unicode="&#x30c;" 
d="M-29 606l-135 163h87l78 -96l78 96h85l-134 -163h-59z" />
    <glyph glyph-name="uni0306" unicode="&#x306;" 
d="M-1 601q-79 0 -123.5 34t-46.5 99h78q2 -35 26.5 -51t66.5 -16t66.5 16t26.5 51h78q-1 -43 -22 -73t-59 -45t-91 -15z" />
    <glyph glyph-name="uni030A" unicode="&#x30a;" 
d="M0 573q-44 0 -71 25.5t-27 69.5t27.5 72.5t71.5 28.5t71 -29t27 -72q0 -44 -28 -69.5t-71 -25.5zM0 625q20 0 31.5 12.5t11.5 32.5t-11.5 32.5t-31.5 12.5t-31.5 -12.5t-11.5 -32.5t11.5 -32.5t31.5 -12.5z" />
    <glyph glyph-name="tildecomb" unicode="&#x303;" 
d="M65 595q-25 0 -44 11t-34.5 25t-28.5 25t-25 11q-15 0 -21.5 -12.5t-7.5 -28t-1 -26.5h-69q0 33 8.5 62.5t30 48.5t61.5 19q25 0 44 -11t34.5 -25.5t28.5 -25.5t25 -11q17 0 23 12.5t7 28.5t1 27h70q-1 -32 -9.5 -62t-30 -49t-62.5 -19z" />
    <glyph glyph-name="uni0304" unicode="&#x304;" 
d="M-159 633v74h319v-74h-319z" />
    <glyph glyph-name="uni0312" unicode="&#x312;" 
d="M1 600q-29 0 -46 21t-18 57q0 30 13 62t36.5 57.5t52.5 35.5l24 -33q-13 -9 -25.5 -23.5t-22 -30.5t-13.5 -32q26 -2 42 -17t16 -40q0 -28 -18 -42.5t-41 -14.5z" />
    <glyph glyph-name="uni0326" unicode="&#x326;" 
d="M-39 -304l-24 33q14 10 26 24t21.5 30t13.5 32q-26 2 -42 17t-16 40q0 28 18 43t42 15q33 0 48.5 -24t14.5 -55q-1 -33 -15 -65t-37 -56t-50 -34z" />
    <glyph glyph-name="uni0327" unicode="&#x327;" 
d="M-28 -249q-14 -2 -29.5 -3t-32.5 -1v55q17 0 36 1t36 6t28 16t11 30q0 17 -11.5 24.5t-25 9t-20.5 1.5q-10 0 -24.5 -2t-27.5 -7l29 127h62l-15 -67q6 1 12 1.5t11 0.5q39 0 59 -21.5t20 -59.5q0 -36 -15.5 -59t-42 -35t-60.5 -17z" />
    <glyph glyph-name="uni0328" unicode="&#x328;" 
d="M29 -224q-61 1 -95 31.5t-34 81.5q0 45 29 77t67 49l63 -10q-33 -17 -59 -45t-26 -61q0 -28 17.5 -43.5t46.5 -15.5q12 0 24 3t24 9l14 -59q-18 -10 -34.5 -13.5t-36.5 -3.5z" />
    <glyph glyph-name="uni0308.narrow" 
d="M116 608q-23 0 -38 15t-15 39q0 23 15 37.5t38 14.5t38.5 -14.5t15.5 -37.5q0 -24 -15.5 -39t-38.5 -15zM259 608q-24 0 -38.5 15t-14.5 39q0 23 15 37.5t38 14.5t38 -14.5t15 -37.5q0 -24 -15 -39t-38 -15z" />
    <glyph glyph-name="dieresis" unicode="&#xa8;" horiz-adv-x="574" 
d="M399 606q-24 0 -40 15.5t-16 40.5t16 40.5t40 15.5q25 0 41.5 -15.5t16.5 -40.5t-16.5 -40.5t-41.5 -15.5zM174 606q-24 0 -40.5 15.5t-16.5 40.5t16.5 40.5t40.5 15.5q25 0 41.5 -15.5t16.5 -40.5t-16.5 -40.5t-41.5 -15.5z" />
    <glyph glyph-name="dotaccent" unicode="&#x2d9;" horiz-adv-x="577" 
d="M288 605q-26 0 -41.5 16t-15.5 41t16 40.5t41 15.5q23 0 40.5 -16t17.5 -40q0 -25 -17 -41t-41 -16z" />
    <glyph glyph-name="grave" unicode="`" 
d="M-24 606l-100 141h92l85 -141h-77z" />
    <glyph glyph-name="acute" unicode="&#xb4;" 
d="M-40 612l85 141h92l-100 -141h-77z" />
    <glyph glyph-name="hungarumlaut" unicode="&#x2dd;" horiz-adv-x="558" 
d="M301 628l85 141h92l-100 -141h-77zM142 628l85 141h92l-100 -141h-77z" />
    <glyph glyph-name="circumflex" unicode="&#x2c6;" horiz-adv-x="559" 
d="M116 606l133 163h60l134 -163h-86l-78 96l-78 -96h-85z" />
    <glyph glyph-name="caron" unicode="&#x2c7;" horiz-adv-x="559" 
d="M250 606l-134 163h86l78 -96l78 96h85l-133 -163h-60z" />
    <glyph glyph-name="breve" unicode="&#x2d8;" horiz-adv-x="569" 
d="M283 601q-79 0 -123.5 34t-46.5 99h78q2 -35 26.5 -51t66.5 -16t66.5 16t26.5 51h78q-1 -43 -22.5 -73t-59 -45t-90.5 -15z" />
    <glyph glyph-name="ring" unicode="&#x2da;" horiz-adv-x="569" 
d="M284 595q-44 0 -71 25.5t-27 69.5t27.5 72.5t71.5 28.5t71 -29t27 -72q0 -44 -28 -69.5t-71 -25.5zM284 647q20 0 31.5 12.5t11.5 32.5t-11.5 32.5t-31.5 12.5t-31.5 -12.5t-11.5 -32.5t11.5 -32.5t31.5 -12.5z" />
    <glyph glyph-name="tilde" unicode="&#x2dc;" 
d="M65 595q-25 0 -44 11t-34.5 25t-28.5 25t-25 11q-15 0 -21.5 -12.5t-7.5 -28t-1 -26.5h-69q0 33 8.5 62.5t30 48.5t61.5 19q25 0 44 -11t34.5 -25.5t28.5 -25.5t25 -11q17 0 23 12.5t7 28.5t1 27h70q-1 -32 -9.5 -62t-30 -49t-62.5 -19z" />
    <glyph glyph-name="macron" unicode="&#xaf;" horiz-adv-x="563" 
d="M122 633v74h319v-74h-319z" />
    <glyph glyph-name="cedilla" unicode="&#xb8;" horiz-adv-x="598" 
d="M279 -249q-14 -2 -29.5 -3t-32.5 -1v55q17 0 36 1t36 6t28 16t11 30q0 17 -11.5 24.5t-25 9t-20.5 1.5q-10 0 -24.5 -2t-27.5 -7l29 127h62l-15 -67q6 1 12 1.5t11 0.5q39 0 59 -21.5t20 -59.5q0 -36 -15.5 -59t-42 -35t-60.5 -17z" />
    <glyph glyph-name="ogonek" unicode="&#x2db;" horiz-adv-x="520" 
d="M289 -224q-61 1 -95 31.5t-34 81.5q0 45 29 77t67 49l63 -10q-33 -17 -59 -45t-26 -61q0 -28 17.5 -43.5t46.5 -15.5q12 0 24 3t24 9l14 -59q-18 -10 -34.5 -13.5t-36.5 -3.5z" />
    <glyph glyph-name="a2_alt" horiz-adv-x="604" 
d="M276 -6q-59 0 -102.5 20.5t-71.5 56.5t-41.5 85t-13.5 106q0 76 24.5 137.5t78.5 97.5t141 36q46 0 88.5 -17t72.5 -53v64h85v-527h-85v71q-28 -37 -74 -57t-102 -20zM290 69q52 0 88 27t55.5 72t19.5 98q0 55 -18.5 98t-54.5 68t-91 25q-57 0 -91.5 -26t-50 -70
t-15.5 -98q0 -56 16 -100t51 -69t91 -25z" />
    <glyph glyph-name="alt_1" horiz-adv-x="489" 
d="M47 0v79h184v488h-158v54q39 3 73.5 10t63 24.5t47.5 51.5h61v-628h152v-79h-423z" />
    <glyph glyph-name="be_alt" horiz-adv-x="567" 
d="M284 -6q-68 0 -114.5 24t-74 67.5t-39.5 102t-12 127.5q0 56 5 108t20 96.5t46 80.5t83 61q34 16 70 29t73 25t72 25q15 5 31.5 15.5t32.5 26.5l47 -67q-10 -20 -27 -30.5t-37 -18.5q-55 -21 -113.5 -38.5t-112.5 -40.5q-36 -16 -58.5 -42.5t-33 -60t-11.5 -71.5
q22 26 49.5 42t58 24t60.5 8q72 0 122 -30.5t76 -84.5t26 -124q0 -72 -27.5 -129.5t-80.5 -91t-131 -33.5zM285 69q50 0 84 24t51.5 64t17.5 88q0 47 -18 84.5t-51 59.5t-78 22q-51 0 -86 -22.5t-53 -62t-18 -90.5q0 -41 17 -79.5t50.5 -63t83.5 -24.5z" />
    <glyph glyph-name="l2_alt" horiz-adv-x="326" 
d="M220 -6q-54 0 -87 19t-48 57.5t-15 96.5v540h85v-529q0 -32 5 -57t21 -38.5t48 -13.5q20 0 38 7.5t32 19.5l37 -62q-26 -22 -56 -31t-60 -9z" />
    <glyph glyph-name="logo" horiz-adv-x="2940" 
d="M426 335q-6 0 -10 3.5t-6 3.5l-93 94h-110l-20 -19q-4 -6 -14 -6h-37q-8 0 -14.5 5.5t-6.5 13.5q0 7 7 14l25 26q8 5 14 5h37h1h106v36l-26 26h-118l-25 -20v-26q0 -8 -6 -14l-12 -13q-8 -5 -14 -5q-17 0 -19 15q-19 0 -19 19q-7 2 -12 6.5t-5 12.5q0 7 7 14l12 13
q6 6 14 6h27l0.5 0.5l1.5 1.5l31 25q4 4 12 4h39q4 13 18 13q8 0 14 -6l7 -7h55q6 0 14 -5l4 -5v20l-26 27h-135l-20 -20q-8 -5 -14 -5h-12q-6 0 -14 5l-13 13q-5 8 -5 14q0 8 4 12q-4 4 -4 13q0 6 5 14l13 12q6 6 14 6h12q8 0 14 -6l20 -19h35v28q-12 0 -18.5 15t-6.5 26
v37q0 8 5.5 14t13.5 6h51q8 0 13.5 -6t5.5 -14v-37q0 -11 -6.5 -26t-18.5 -15v-28h25q-1 1 -1 5q0 8 5.5 14t14.5 6q8 0 14 -6l36 -36q4 4 13 4q19 0 19 -19v-156l62 -62v71l-32 32q-6 6 -6 14t6 13.5t14 5.5q6 0 14 -5l4 -5v84l-95 95q-6 5 -6 14v18h-6q-19 0 -19 19
q0 8 5.5 14t13.5 6h6v6q0 8 6 13.5t14 5.5q19 0 19 -19v-6h6q8 0 13.5 -6t5.5 -14q0 -19 -19 -19h-6v-10l62 -62v120q-2 2 -2 3l-55 55q-6 6 -6 14t6 14l12 13q3 3 7 4v20q0 8 6 14l13 12q5 6 13 6q7 0 11 -3q6 6 15 6q8 0 14 -6q5 3 11 3q8 0 14 -6l12 -12q6 -6 6 -14v-20
l4 -2t3 -2l12 -13q6 -6 6 -14t-6 -14l-55 -55q0 -1 -2 -3v-120l62 62v10h-6q-19 0 -19 19q0 8 5.5 14t13.5 6h6v6q0 19 19 19q8 0 14 -5.5t6 -13.5v-6h6q8 0 13.5 -6t5.5 -14q0 -19 -19 -19h-6v-18q0 -9 -6 -14l-95 -95v-84l5 5q5 5 13 5q11 0 15.5 -6t4.5 -13q0 -8 -6 -14
l-32 -32v-71l62 62v156q0 19 19 19q9 0 13 -4l37 36q5 6 14 6q8 0 13.5 -6t5.5 -14q0 -1 -0.5 -2t-0.5 -3h25v28q-12 0 -18.5 15t-6.5 26v37q0 8 5.5 14t13.5 6h51q8 0 13.5 -6t5.5 -14v-37q0 -11 -6.5 -26t-18.5 -15v-28h36l19 19q6 6 14 6h12q8 0 14 -6l13 -12q6 -6 6 -14
q0 -5 -5 -13q5 -5 5 -12q0 -8 -6 -14l-13 -13q-8 -5 -14 -5h-12q-6 0 -14 5l-19 20h-136l-26 -27v-20l4 5q8 5 14 5h55l7 7q6 6 14 6q14 0 18 -13h39q8 0 12 -4l31 -25q1 -1 1.5 -1t1.5 -1h26q8 0 14 -6l12 -13q6 -6 6 -14q0 -6 -1 -7q-5 -9 -14 -12q0 -8 -6 -13.5t-14 -5.5
q-3 -15 -19 -15q-6 0 -14 5l-12 13q-6 6 -6 14v26l-25 20h-118l-26 -26v-36h144q9 0 14 -5l25 -26q6 -6 6 -14q0 -19 -19 -19h-38q-8 0 -14 6l-20 19h-109l-94 -94q-2 0 -6 -3.5t-9 -3.5zM204 0q-12 0 -12 13v349q0 13 12 13h61q12 0 21 -9l132 -132q2 -2 6 -2q5 0 7 2
l132 132q9 9 21 9h61q12 0 12 -13v-349q0 -13 -12 -13h-61q-13 0 -13 13v219q0 3 -4 3q-1 0 -2 -1l-118 -118q-10 -9 -22 -9h-1q-11 0 -22 9l-118 118q-1 1 -3 1q-4 0 -4 -3v-219q0 -13 -12 -13h-61zM904 -6q-57 0 -102 23.5t-71 67t-26 103.5q0 54 25 98t70 69.5t104 25.5
q58 0 102.5 -23.5t70.5 -66.5t26 -103q0 -57 -26 -100.5t-70.5 -68.5t-102.5 -25zM904 74q53 0 80.5 33.5t27.5 80.5q0 51 -31.5 82t-76.5 31q-47 0 -77.5 -31t-30.5 -82q0 -49 31.5 -81.5t76.5 -32.5zM1156 0q-9 0 -9 9v357q0 9 9 9h67q9 0 9 -9v-281q0 -4 5 -4h139
q9 0 9 -9v-63q0 -9 -9 -9h-220zM1547 -1q-15 0 -46.5 0.5t-58.5 0.5q-9 0 -9 9v357q0 9 9 9q11 0 32.5 0.5t43.5 0.5h33q75 0 121.5 -25.5t67.5 -67.5t21 -92q0 -52 -24 -96t-71.5 -70t-118.5 -26zM1549 80q56 0 88.5 28.5t32.5 82.5q0 52 -34 78.5t-86 26.5h-13t-14 -1
q-5 0 -5 -5v-205q0 -6 11.5 -5.5t19.5 0.5zM2003 -6q-57 0 -102 23.5t-71 67t-26 103.5q0 54 25 98t70 69.5t104 25.5q58 0 102.5 -23.5t70.5 -66.5t26 -103q0 -57 -26 -100.5t-70.5 -68.5t-102.5 -25zM2003 74q53 0 80.5 33.5t27.5 80.5q0 51 -31.5 82t-76.5 31
q-47 0 -77.5 -31t-30.5 -82q0 -49 31.5 -81.5t76.5 -32.5zM2358 0q-7 0 -12 9l-146 357q-1 1 -1 3q0 6 6 6h76q8 0 12 -9l91 -234q0 -2 2 -2q1 1 1 2l87 234q5 9 13 9h70q6 0 6 -6q0 -1 -0.5 -1.5t-0.5 -1.5l-142 -357q-4 -9 -13 -9h-49zM2497 0q-6 0 -6 6q0 2 1 3l141 358
q5 8 12 8h56q7 0 12 -8l141 -358q0 -1 0.5 -1.5t0.5 -1.5q0 -6 -6 -6h-70q-9 0 -11 9l-25 66q-1 4 -6 4h-133q-5 0 -6 -4l-24 -66q-4 -9 -12 -9h-65zM2635 159h71q3 0 3 3v1l-37 98l-1 1q-1 -1 -1.5 -1h-0.5l-37 -98v-1q0 -3 3 -3z" />
    <glyph glyph-name="logom" horiz-adv-x="847" 
d="M409 344l-95 95h-110l-20 -20q-6 -6 -14 -6h-38q-13 0 -18 12t4 22l25 25q6 6 14 6h146v36l-27 26h-118l-25 -20v-27t-7 -14l-5 -5l-7 -7q-8 -8 -19.5 -5t-13.5 15q-19 0 -19 19q-12 3 -15 14t5 19l12 12q7 7 14 7h27l34 27q5 5 12 5h39q4 10 14 12t18 -5l7 -7h55
q7 0 10.5 -3t8.5 -8v21l-27 26h-136l-18 -18t-10 -6t-18 -1q-8 0 -14 5.5t-13 12.5q-11 14 -1 27q-10 13 -1.5 22.5t15.5 16.5q5 6 12 6h15t14 -6l19 -19h36v28q-26 11 -26 41v38q0 8 6 14t14 6h51q8 0 14 -6t6 -14v-38q0 -30 -26 -41v-28h25q-4 14 9.5 23t23.5 -4l37 -36
q1 1 1.5 1t1.5 1q6 2 9 2q8 0 14 -6t6 -14v-156l62 -63v72l-32 32q-9 9 -5 19t14 14.5t19 -5.5l4 -5v84l-95 96q-6 6 -6 14v18h-6q-13 0 -17.5 10t0 20t17.5 10h6v5q0 13 9.5 17.5t19.5 0t10 -17.5v-5h6q13 0 17.5 -10t0 -20t-17.5 -10h-6v-10l62 -62v121q0 1 -7.5 9t-18 19
t-19.5 19.5t-12 11.5q-6 5 -6 13.5t6 14.5q4 4 9 9.5t10 7.5v21.5t4 9.5l15 15q11 12 24 3q8 7 17 6t13 -6q11 8 20.5 0t16.5 -16q6 -6 6 -14.5v-18.5q5 -2 10 -7.5t9 -9.5q6 -6 6 -14.5t-6 -13.5q-3 -3 -12 -11.5t-19.5 -19.5t-18 -19t-7.5 -9v-121l62 62v10h-6
q-13 0 -17.5 10t0 20t17.5 10h6v5q0 13 10 17.5t19.5 0t9.5 -17.5v-5h6q13 0 17.5 -10t0 -20t-17.5 -10h-6v-18t-5 -14l-96 -96v-84q4 5 7.5 8t10.5 3q14 0 18.5 -12.5t-4.5 -21.5l-32 -32v-72l62 63v156q0 13 11 18.5t21 -2.5l37 36q11 13 24 4t9 -23h25v28q-26 11 -26 41
v38q0 8 6 14t14 6h51q8 0 14 -6t6 -14v-38q0 -30 -26 -41v-28h36l18 18t10 6t18 1q8 0 14 -5.5t13 -12.5q11 -14 1 -27q10 -12 1.5 -22t-15.5 -17q-5 -5 -12 -5.5t-15 -0.5t-14 6l-19 19h-136l-27 -26v-21q5 5 8.5 8t10.5 3h55q5 5 9 8.5t12 3.5q14 0 18 -12h39q7 0 12 -5
l34 -27h27t11 -4l15 -15q10 -8 5 -21q-4 -9 -15 -12q0 -19 -19 -19q-2 -11 -13 -14q-12 -4 -20 4l-12 12q-7 7 -7 14v27l-25 20h-118l-27 -26v-36h146q8 0 14 -6l25 -25q9 -9 4 -21.5t-18 -12.5h-36t-14.5 5t-21.5 21h-110l-95 -95q-7 -8 -15.5 -8t-14.5 8zM201 0
q-13 0 -13 13v351q0 13 13 13h61q12 0 22 -9l132 -133q7 -6 13 0l133 133q11 9 22 9h61q12 0 12 -13v-351q0 -13 -12 -13h-61q-13 0 -13 13v220q0 2 -2.5 3.5t-4.5 -0.5l-119 -120q-9 -8 -22 -8t-22 8l-120 120q-2 2 -4 0.5t-2 -3.5v-220q0 -13 -13 -13h-61z" />
    <glyph glyph-name="map" horiz-adv-x="683" 
d="M295 0q-5 0 -5 5v23q0 2 -2 4l-9 9q-3 4 0 7l12 12q6 4 0 8l-12 12q-1 1 -1 4v85q0 3 1 4l14 13q1 1 1 4v119q0 3 -1 4l-13 12q-1 1 -1 4v23q0 3 -2 3l-46 47q-2 2 -2 4v21q0 3 -1 4l-46 46q-2 2 -2 3v26q0 3 -1 4l-31 30q-1 1 -1 4v29q0 2 -2 4l-21 21q-2 2 -2 4v26
q0 3 -1 4l-23 23q-2 2 -4 2h-42q-5 0 -5 5v2q0 3 1 4l16 16q2 2 4 2h39q3 0 4 1l19 19q2 2 4 2h96q2 0 4 -2l46 -46q1 -1 3 -1h33q5 0 5 -5v-25q0 -5 6 -5h6q3 0 4 1l16 17q1 1 4 1h32q5 0 5 -5v-26q0 -2 2 -4l20 -20q4 -3 7 0l10 10q1 1 4 1h6q6 0 6 -5v-79q0 -2 -2 -4
l-6 -6q-4 -4 0 -8l59 -59q1 -1 3 -1h12q5 0 5 -5v-34v-37q0 -2 2 -4l22 -22q2 -2 4 -2h12q3 0 4 -1l16 -17q2 -2 2 -4v-37q0 -2 -2 -4l-6 -5q-4 -4 0 -8l21 -20q1 -1 1 -4q0 -5 -5 -5h-19h-14q-2 0 -3 1l-9 9q-3 4 -7 0l-11 -11q-5 -3 -8 0l-15 15q-3 3 -8 0l-27 -27
q-2 -2 -3 -2h-9q-5 0 -5 6v34q0 4 -3.5 5t-5.5 -1l-22 -22q-1 -1 -1 -3v-27q0 -3 1 -4l10 -10q4 -3 0 -7l-20 -20q-1 -1 -1 -4v-25q0 -2 -2 -4l-22 -22q-1 -1 -1 -3v-12q0 -2 -2 -4l-12 -12q-2 -2 -3 -2h-9q-2 0 -3 -1l-10 -10q-2 -2 -2 -4v-38q0 -6 -5 -6h-20q-3 0 -4 -1
l-14 -15q-1 0 -1.5 -0.5t-2.5 -0.5h-3z" />
    <glyph glyph-name="tab_1" horiz-adv-x="672" 
d="M112 0v79h207v485h-179v54h26q38 0 73.5 8.5t63.5 28t44 52.5h59v-628h181v-79h-475z" />
    <glyph glyph-name="y2_alt" horiz-adv-x="549" 
d="M84 -226v81q49 0 78 13.5t48.5 42t37.5 72.5l-231 544h100l178 -443l146 443h96l-148 -415q-11 -31 -25 -71.5t-31 -82t-37.5 -77t-45.5 -57.5q-37 -33 -71 -41.5t-77 -8.5h-18z" />
    <glyph glyph-name="a00E2.alt" horiz-adv-x="555" 
d="M224 -5q-45 0 -85 15t-65 47.5t-25 85.5q0 33 11.5 58t31.5 43.5t46 30t55 17.5q43 9 97 14.5t117 12.5q0 43 -14 74t-42 48t-70 17q-40 0 -71.5 -13t-48.5 -48h-90q10 49 42.5 78.5t77.5 43.5t89 14q82 0 127.5 -32t64 -87t18.5 -126v-288h-76l-7 64q-24 -24 -54 -39.5
t-62.5 -22.5t-66.5 -7zM234 69q48 0 87 16t62.5 49t23.5 82v33q-28 -3 -56 -6.5t-55.5 -7t-55.5 -7.5q-50 -7 -78 -28t-28 -54t17.5 -49.5t41 -22t41.5 -5.5zM122 637l133 163h60l134 -163h-86l-78 96l-78 -96h-85z" />
    <glyph glyph-name="a00E4.alt" horiz-adv-x="555" 
d="M224 -5q-45 0 -85 15t-65 47.5t-25 85.5q0 33 11.5 58t31.5 43.5t46 30t55 17.5q43 9 97 14.5t117 12.5q0 43 -14 74t-42 48t-70 17q-40 0 -71.5 -13t-48.5 -48h-90q10 49 42.5 78.5t77.5 43.5t89 14q82 0 127.5 -32t64 -87t18.5 -126v-288h-76l-7 64q-24 -24 -54 -39.5
t-62.5 -22.5t-66.5 -7zM234 69q48 0 87 16t62.5 49t23.5 82v33q-28 -3 -56 -6.5t-55.5 -7t-55.5 -7.5q-50 -7 -78 -28t-28 -54t17.5 -49.5t41 -22t41.5 -5.5zM402 600q-24 0 -40 15.5t-16 40.5t16 40.5t40 15.5q25 0 41.5 -15.5t16.5 -40.5t-16.5 -40.5t-41.5 -15.5z
M177 600q-24 0 -40.5 15.5t-16.5 40.5t16.5 40.5t40.5 15.5q25 0 41.5 -15.5t16.5 -40.5t-16.5 -40.5t-41.5 -15.5z" />
    <glyph glyph-name="a0103.alt" horiz-adv-x="555" 
d="M224 -5q-45 0 -85 15t-65 47.5t-25 85.5q0 33 11.5 58t31.5 43.5t46 30t55 17.5q43 9 97 14.5t117 12.5q0 43 -14 74t-42 48t-70 17q-40 0 -71.5 -13t-48.5 -48h-90q10 49 42.5 78.5t77.5 43.5t89 14q82 0 127.5 -32t64 -87t18.5 -126v-288h-76l-7 64q-24 -24 -54 -39.5
t-62.5 -22.5t-66.5 -7zM234 69q48 0 87 16t62.5 49t23.5 82v33q-28 -3 -56 -6.5t-55.5 -7t-55.5 -7.5q-50 -7 -78 -28t-28 -54t17.5 -49.5t41 -22t41.5 -5.5zM282 601q-79 0 -123.5 34t-46.5 99h78q2 -35 26.5 -51t66.5 -16t66.5 16t26.5 51h78q-1 -43 -22 -73t-59 -45
t-91 -15z" />
    <glyph glyph-name="t0163.alt" horiz-adv-x="396" 
d="M265 -6q-83 0 -116.5 45t-33.5 128v285h-86v75h86v158h85v-158h162v-75h-162v-274q0 -30 5 -54.5t21 -39t48 -15.5q23 0 40.5 8t29.5 19l37 -62q-17 -14 -35.5 -23t-38 -13t-42.5 -4zM216 -248q-14 -2 -29.5 -3t-32.5 -1v55q17 0 36 1t36 6t28 16t11 30q0 17 -11.5 24.5
t-25 9t-20.5 1.5q-10 0 -24.5 -2t-27.5 -7l29 127h62l-15 -67q6 1 12 1.5t11 0.5q39 0 59 -21.5t20 -59.5q0 -36 -15.5 -59t-42 -35t-60.5 -17z" />
    <glyph glyph-name="t021b.alt" horiz-adv-x="396" 
d="M265 -6q-83 0 -116.5 45t-33.5 128v285h-86v75h86v158h85v-158h162v-75h-162v-274q0 -30 5 -54.5t21 -39t48 -15.5q23 0 40.5 8t29.5 19l37 -62q-17 -14 -35.5 -23t-38 -13t-42.5 -4zM181 -304l-24 33q14 10 26 24t21.5 30t13.5 32q-26 2 -42 17t-16 40q0 28 18 43t42 15
q33 0 48.5 -24t14.5 -55q-1 -33 -15 -65t-37 -56t-50 -34z" />
    <glyph glyph-name="t2.alt" horiz-adv-x="396" 
d="M265 -6q-83 0 -116.5 45t-33.5 128v285h-86v75h86v158h85v-158h162v-75h-162v-274q0 -30 5 -54.5t21 -39t48 -15.5q23 0 40.5 8t29.5 19l37 -62q-17 -14 -35.5 -23t-38 -13t-42.5 -4z" />
    </font>
</defs>
</svg>
