<?xml version="1.0" standalone="no"?>
<!DOCTYPE svg PUBLIC "-//W3C//DTD SVG 1.1//EN" "http://www.w3.org/Graphics/SVG/1.1/DTD/svg11.dtd" >
<svg xmlns="http://www.w3.org/2000/svg" xmlns:xlink="http://www.w3.org/1999/xlink" version="1.1">
<metadata>
Created by FontForge 20230101 at Wed Sep  6 15:02:59 2023
 By Webmaster
Copyright 2021 The Onest Project Authors (https://github.com/simpals/onest)
</metadata>
<defs>
<font id="Onest-ExtraLight" horiz-adv-x="0" >
  <font-face 
    font-family="Onest ExtraLight"
    font-weight="250"
    font-stretch="normal"
    units-per-em="1000"
    panose-1="0 0 0 0 0 0 0 0 0 0"
    ascent="800"
    descent="-200"
    x-height="527"
    cap-height="707"
    bbox="-155 -301 2855 960"
    underline-thickness="50"
    underline-position="-100"
    unicode-range="U+000D-27F6"
  />
<missing-glyph horiz-adv-x="540" 
d="M20 -295v1255h500v-1255h-500zM30 -285h480v1235h-480v-1235z" />
    <glyph glyph-name=".notdef" horiz-adv-x="540" 
d="M20 -295v1255h500v-1255h-500zM30 -285h480v1235h-480v-1235z" />
    <glyph glyph-name="A" unicode="A" horiz-adv-x="649" 
d="M14 0l273 707h73l275 -707h-64l-62 159h-371l-61 -159h-63zM157 210h333l-166 438z" />
    <glyph glyph-name="Aacute" unicode="&#xc1;" horiz-adv-x="649" 
d="M14 0l273 707h73l275 -707h-64l-62 159h-371l-61 -159h-63zM157 210h333l-166 438zM299 793l79 131h64l-92 -131h-51z" />
    <glyph glyph-name="Abreve" unicode="&#x102;" horiz-adv-x="649" 
d="M14 0l273 707h73l275 -707h-64l-62 159h-371l-61 -159h-63zM157 210h333l-166 438zM323 791q-63 0 -105.5 25t-48.5 86h52q6 -39 34 -53t69 -14q40 0 68.5 14t34.5 53h52q-4 -40 -25.5 -64.5t-55 -35.5t-75.5 -11z" />
    <glyph glyph-name="Acircumflex" unicode="&#xc2;" horiz-adv-x="649" 
d="M14 0l273 707h73l275 -707h-64l-62 159h-371l-61 -159h-63zM157 210h333l-166 438zM185 793l118 139h42l118 -139h-57l-83 97l-80 -97h-58z" />
    <glyph glyph-name="Adieresis" unicode="&#xc4;" horiz-adv-x="649" 
d="M14 0l273 707h73l275 -707h-64l-62 159h-371l-61 -159h-63zM157 210h333l-166 438zM431 800q-20 0 -32 13t-12 32t12 31.5t32 12.5q21 0 34 -12t13 -32t-13 -32.5t-34 -12.5zM216 800q-20 0 -32.5 13t-12.5 32t12.5 31.5t32.5 12.5q21 0 33.5 -12t12.5 -32t-12.5 -32.5
t-33.5 -12.5z" />
    <glyph glyph-name="Agrave" unicode="&#xc0;" horiz-adv-x="649" 
d="M14 0l273 707h73l275 -707h-64l-62 159h-371l-61 -159h-63zM157 210h333l-166 438zM304 793l-92 131h64l79 -131h-51z" />
    <glyph glyph-name="Amacron" unicode="&#x100;" horiz-adv-x="649" 
d="M14 0l273 707h73l275 -707h-64l-62 159h-371l-61 -159h-63zM157 210h333l-166 438zM171 819v48h305v-48h-305z" />
    <glyph glyph-name="Aogonek" unicode="&#x104;" horiz-adv-x="649" 
d="M14 0l273 707h73l275 -707h-64l-62 159h-371l-61 -159h-63zM157 210h333l-166 438zM622 -209q-51 1 -84 26.5t-33 75.5q0 39 25.5 70.5t58.5 47.5l36 -9q-27 -17 -48 -43t-21 -57q0 -34 19.5 -50.5t52.5 -16.5q10 0 22 2t21 6l10 -39q-14 -7 -28.5 -10t-30.5 -3z" />
    <glyph glyph-name="Aring" unicode="&#xc5;" horiz-adv-x="649" 
d="M14 0l273 707h73l275 -707h-64l-62 159h-371l-61 -159h-63zM157 210h333l-166 438zM324 768q-41 0 -65 23t-24 62q0 40 24.5 65.5t64.5 25.5q41 0 65.5 -26t24.5 -65q0 -40 -25.5 -62.5t-64.5 -22.5zM323 803q24 0 37.5 14t13.5 37q0 24 -13 39t-37 15t-37 -15t-13 -39
q0 -23 13 -37t36 -14z" />
    <glyph glyph-name="Atilde" unicode="&#xc3;" horiz-adv-x="649" 
d="M14 0l273 707h73l275 -707h-64l-62 159h-371l-61 -159h-63zM157 210h333l-166 438zM387 786q-24 0 -41.5 11.5t-32 26t-28 26t-28.5 11.5q-18 0 -27 -12t-11 -28t-1 -30h-48q0 30 8 55t27.5 40.5t53.5 15.5q24 0 41.5 -11.5t32 -26t28 -26t28.5 -11.5q19 0 27.5 11.5
t10.5 28t2 31.5h48q-1 -30 -9 -56t-27 -41t-54 -15z" />
    <glyph glyph-name="AE" unicode="&#xc6;" horiz-adv-x="927" 
d="M14 0l380 707h481v-52h-381v-278h340v-52h-340v-273h381v-52h-438v161h-271l-87 -161h-65zM193 212h244v443h-9z" />
    <glyph glyph-name="B" unicode="B" horiz-adv-x="652" 
d="M90 0v707h242q47 0 88 -7t73 -26t50 -52t18 -86q0 -64 -33.5 -106.5t-91.5 -59.5q75 -8 119 -54t44 -122q0 -59 -23 -97t-62.5 -59t-88 -29.5t-99.5 -8.5h-236zM147 52h176q37 0 75.5 4t71 17.5t52.5 42.5t20 78q0 42 -17 69.5t-44.5 43t-62 22t-69.5 6.5h-202v-283z
M147 386h155q37 0 73 7t66 23.5t48 44.5t18 70q0 55 -24.5 81.5t-64.5 34.5t-85 8h-186v-269z" />
    <glyph glyph-name="C" unicode="C" horiz-adv-x="701" 
d="M375 -8q-110 0 -181.5 47t-106.5 128.5t-35 185.5q0 103 35.5 184.5t108 129.5t182.5 48q64 0 117.5 -19t91 -56t55.5 -94h-59q-24 59 -78.5 89t-125.5 30q-93 0 -152.5 -43t-88 -113t-28.5 -154t28 -155.5t87.5 -114.5t151.5 -43q46 0 89 13t76 40t48 66h65
q-20 -55 -61.5 -93t-97.5 -57t-121 -19z" />
    <glyph glyph-name="Cacute" unicode="&#x106;" horiz-adv-x="701" 
d="M375 -8q-110 0 -181.5 47t-106.5 128.5t-35 185.5q0 103 35.5 184.5t108 129.5t182.5 48q64 0 117.5 -19t91 -56t55.5 -94h-59q-24 59 -78.5 89t-125.5 30q-93 0 -152.5 -43t-88 -113t-28.5 -154t28 -155.5t87.5 -114.5t151.5 -43q46 0 89 13t76 40t48 66h65
q-20 -55 -61.5 -93t-97.5 -57t-121 -19zM347 793l79 131h64l-92 -131h-51z" />
    <glyph glyph-name="Ccaron" unicode="&#x10c;" horiz-adv-x="701" 
d="M375 -8q-110 0 -181.5 47t-106.5 128.5t-35 185.5q0 103 35.5 184.5t108 129.5t182.5 48q64 0 117.5 -19t91 -56t55.5 -94h-59q-24 59 -78.5 89t-125.5 30q-93 0 -152.5 -43t-88 -113t-28.5 -154t28 -155.5t87.5 -114.5t151.5 -43q46 0 89 13t76 40t48 66h65
q-20 -55 -61.5 -93t-97.5 -57t-121 -19zM352 793l-119 139h57l83 -97l81 97h57l-118 -139h-41z" />
    <glyph glyph-name="Ccedilla" unicode="&#xc7;" horiz-adv-x="701" 
d="M375 -8q-110 0 -181.5 47t-106.5 128.5t-35 185.5q0 103 35.5 184.5t108 129.5t182.5 48q64 0 117.5 -19t91 -56t55.5 -94h-59q-24 59 -78.5 89t-125.5 30q-93 0 -152.5 -43t-88 -113t-28.5 -154t28 -155.5t87.5 -114.5t151.5 -43q46 0 89 13t76 40t48 66h65
q-20 -55 -61.5 -93t-97.5 -57t-121 -19zM334 -250q-10 -1 -19 -1h-19v37q15 -2 35 -0.5t38 8t30 20t12 36.5q0 17 -8.5 27t-22 14.5t-27.5 4.5q-11 0 -27 -3t-28 -6l37 127h38l-25 -87q9 2 16 2.5t15 0.5q34 0 54.5 -20.5t20.5 -58.5q0 -35 -17 -57t-44.5 -32t-58.5 -12z
" />
    <glyph glyph-name="Ccircumflex" unicode="&#x108;" horiz-adv-x="701" 
d="M375 -8q-110 0 -181.5 47t-106.5 128.5t-35 185.5q0 103 35.5 184.5t108 129.5t182.5 48q64 0 117.5 -19t91 -56t55.5 -94h-59q-24 59 -78.5 89t-125.5 30q-93 0 -152.5 -43t-88 -113t-28.5 -154t28 -155.5t87.5 -114.5t151.5 -43q46 0 89 13t76 40t48 66h65
q-20 -55 -61.5 -93t-97.5 -57t-121 -19zM233 793l118 139h42l118 -139h-57l-83 97l-80 -97h-58z" />
    <glyph glyph-name="Cdotaccent" unicode="&#x10a;" horiz-adv-x="701" 
d="M375 -8q-110 0 -181.5 47t-106.5 128.5t-35 185.5q0 103 35.5 184.5t108 129.5t182.5 48q64 0 117.5 -19t91 -56t55.5 -94h-59q-24 59 -78.5 89t-125.5 30q-93 0 -152.5 -43t-88 -113t-28.5 -154t28 -155.5t87.5 -114.5t151.5 -43q46 0 89 13t76 40t48 66h65
q-20 -55 -61.5 -93t-97.5 -57t-121 -19zM371 799q-20 0 -32.5 12t-12.5 34q0 21 13 32.5t33 11.5q19 0 32 -12t13 -32q0 -21 -13.5 -33.5t-32.5 -12.5z" />
    <glyph glyph-name="D" unicode="D" horiz-adv-x="720" 
d="M91 0v707h246q109 0 182.5 -44.5t110.5 -124t37 -185.5q0 -105 -37 -184t-110.5 -124t-182.5 -45h-246zM148 52h181q94 0 155.5 38t92.5 106t31 157q0 87 -30 155.5t-90 107.5t-152 39h-188v-603z" />
    <glyph glyph-name="Dcaron" unicode="&#x10e;" horiz-adv-x="720" 
d="M91 0v707h246q109 0 182.5 -44.5t110.5 -124t37 -185.5q0 -105 -37 -184t-110.5 -124t-182.5 -45h-246zM148 52h181q94 0 155.5 38t92.5 106t31 157q0 87 -30 155.5t-90 107.5t-152 39h-188v-603zM340 793l-119 139h57l83 -97l81 97h57l-118 -139h-41z" />
    <glyph glyph-name="Dcroat" unicode="&#x110;" horiz-adv-x="720" 
d="M91 0v327h-83v52h83v328h246q110 0 183 -44.5t110 -124.5t37 -185q0 -104 -37 -183.5t-110.5 -124.5t-182.5 -45h-246zM148 52h181q94 0 156 38t92.5 106t30.5 157t-30 157t-90 106.5t-152 38.5h-188v-276h175v-52h-175v-275z" />
    <glyph glyph-name="Eth" unicode="&#xd0;" horiz-adv-x="720" 
d="M91 0v327h-83v52h83v328h246q110 0 183 -44.5t110 -124.5t37 -185q0 -104 -37 -183.5t-110.5 -124.5t-182.5 -45h-246zM148 52h181q95 0 156.5 38.5t92 106.5t30.5 156q0 89 -30 157t-90 106.5t-152 38.5h-188v-276h175v-52h-175v-275z" />
    <glyph glyph-name="E" unicode="E" horiz-adv-x="605" 
d="M91 0v707h462v-52h-405v-278h364v-52h-364v-273h405v-52h-462z" />
    <glyph glyph-name="Eacute" unicode="&#xc9;" horiz-adv-x="605" 
d="M91 0v707h462v-52h-405v-278h364v-52h-364v-273h405v-52h-462zM300 793l79 131h64l-92 -131h-51z" />
    <glyph glyph-name="Ebreve" unicode="&#x114;" horiz-adv-x="605" 
d="M91 0v707h462v-52h-405v-278h364v-52h-364v-273h405v-52h-462zM324 791q-63 0 -105.5 25t-48.5 86h52q6 -39 34 -53t69 -14q40 0 68.5 14t34.5 53h52q-4 -40 -25.5 -64.5t-55 -35.5t-75.5 -11z" />
    <glyph glyph-name="Ecaron" unicode="&#x11a;" horiz-adv-x="605" 
d="M91 0v707h462v-52h-405v-278h364v-52h-364v-273h405v-52h-462zM305 793l-119 139h57l83 -97l81 97h57l-118 -139h-41z" />
    <glyph glyph-name="Ecircumflex" unicode="&#xca;" horiz-adv-x="605" 
d="M91 0v707h462v-52h-405v-278h364v-52h-364v-273h405v-52h-462zM185 793l118 139h42l118 -139h-57l-83 97l-80 -97h-58z" />
    <glyph glyph-name="Edieresis" unicode="&#xcb;" horiz-adv-x="605" 
d="M91 0v707h462v-52h-405v-278h364v-52h-364v-273h405v-52h-462zM431 800q-20 0 -32 13t-12 32t12 31.5t32 12.5q21 0 34 -12t13 -32t-13 -32.5t-34 -12.5zM216 800q-20 0 -32.5 13t-12.5 32t12.5 31.5t32.5 12.5q21 0 33.5 -12t12.5 -32t-12.5 -32.5t-33.5 -12.5z" />
    <glyph glyph-name="Edotaccent" unicode="&#x116;" horiz-adv-x="605" 
d="M91 0v707h462v-52h-405v-278h364v-52h-364v-273h405v-52h-462zM324 799q-20 0 -32.5 12t-12.5 34q0 21 13 32.5t33 11.5q19 0 32 -12t13 -32q0 -21 -13.5 -33.5t-32.5 -12.5z" />
    <glyph glyph-name="Egrave" unicode="&#xc8;" horiz-adv-x="605" 
d="M91 0v707h462v-52h-405v-278h364v-52h-364v-273h405v-52h-462zM304 793l-92 131h64l79 -131h-51z" />
    <glyph glyph-name="Emacron" unicode="&#x112;" horiz-adv-x="605" 
d="M91 0v707h462v-52h-405v-278h364v-52h-364v-273h405v-52h-462zM172 819v48h305v-48h-305z" />
    <glyph glyph-name="Eogonek" unicode="&#x118;" horiz-adv-x="605" 
d="M91 0v707h462v-52h-405v-278h364v-52h-364v-273h405v-52h-462zM584 -209q-51 1 -84 26.5t-33 75.5q0 39 25.5 70.5t58.5 47.5l36 -9q-27 -17 -48 -43t-21 -57q0 -34 19.5 -50.5t52.5 -16.5q10 0 22 2t21 6l10 -39q-14 -7 -28.5 -10t-30.5 -3z" />
    <glyph glyph-name="F" unicode="F" horiz-adv-x="594" 
d="M91 0v707h462v-52h-405v-303h349v-52h-349v-300h-57z" />
    <glyph glyph-name="G" unicode="G" horiz-adv-x="723" 
d="M375 -8q-108 0 -179.5 46.5t-107 127t-36.5 180.5q-1 78 18.5 144.5t59.5 117t100.5 79t141.5 28.5q66 0 120.5 -18.5t94 -55.5t60.5 -95h-65q-16 39 -48 65.5t-74 40t-87 13.5q-69 0 -119 -25t-81.5 -69t-46 -100.5t-14.5 -120.5q0 -84 27.5 -154t86 -112t149.5 -42
q77 0 130.5 30.5t82.5 86.5t30 131h-243v51h296v-46q0 -90 -36 -158.5t-102.5 -106.5t-157.5 -38z" />
    <glyph glyph-name="Gbreve" unicode="&#x11e;" horiz-adv-x="723" 
d="M375 -8q-108 0 -179.5 46.5t-107 127t-36.5 180.5q-1 78 18.5 144.5t59.5 117t100.5 79t141.5 28.5q66 0 120.5 -18.5t94 -55.5t60.5 -95h-65q-16 39 -48 65.5t-74 40t-87 13.5q-69 0 -119 -25t-81.5 -69t-46 -100.5t-14.5 -120.5q0 -84 27.5 -154t86 -112t149.5 -42
q77 0 130.5 30.5t82.5 86.5t30 131h-243v51h296v-46q0 -90 -36 -158.5t-102.5 -106.5t-157.5 -38zM360 791q-63 0 -105.5 25t-48.5 86h52q6 -39 34 -53t69 -14q40 0 68.5 14t34.5 53h52q-4 -40 -25.5 -64.5t-55 -35.5t-75.5 -11z" />
    <glyph glyph-name="Gcircumflex" unicode="&#x11c;" horiz-adv-x="723" 
d="M375 -8q-108 0 -179.5 46.5t-107 127t-36.5 180.5q-1 78 18.5 144.5t59.5 117t100.5 79t141.5 28.5q66 0 120.5 -18.5t94 -55.5t60.5 -95h-65q-16 39 -48 65.5t-74 40t-87 13.5q-69 0 -119 -25t-81.5 -69t-46 -100.5t-14.5 -120.5q0 -84 27.5 -154t86 -112t149.5 -42
q77 0 130.5 30.5t82.5 86.5t30 131h-243v51h296v-46q0 -90 -36 -158.5t-102.5 -106.5t-157.5 -38zM222 793l118 139h42l118 -139h-57l-83 97l-80 -97h-58z" />
    <glyph glyph-name="uni0122" unicode="&#x122;" horiz-adv-x="723" 
d="M375 -8q-108 0 -179.5 46.5t-107 127t-36.5 180.5q-1 78 18.5 144.5t59.5 117t100.5 79t141.5 28.5q66 0 120.5 -18.5t94 -55.5t60.5 -95h-65q-16 39 -48 65.5t-74 40t-87 13.5q-69 0 -119 -25t-81.5 -69t-46 -100.5t-14.5 -120.5q0 -84 27.5 -154t86 -112t149.5 -42
q77 0 130.5 30.5t82.5 86.5t30 131h-243v51h296v-46q0 -90 -36 -158.5t-102.5 -106.5t-157.5 -38zM343 -301l-18 24q13 8 24.5 20.5t20.5 28.5t12 34q-17 -2 -35 8.5t-18 36.5q0 21 13.5 33.5t33.5 12.5q26 0 38.5 -18.5t12.5 -42.5q0 -30 -11 -57t-30 -47.5t-43 -32.5z" />
    <glyph glyph-name="Gdotaccent" unicode="&#x120;" horiz-adv-x="723" 
d="M375 -8q-108 0 -179.5 46.5t-107 127t-36.5 180.5q-1 78 18.5 144.5t59.5 117t100.5 79t141.5 28.5q66 0 120.5 -18.5t94 -55.5t60.5 -95h-65q-16 39 -48 65.5t-74 40t-87 13.5q-69 0 -119 -25t-81.5 -69t-46 -100.5t-14.5 -120.5q0 -84 27.5 -154t86 -112t149.5 -42
q77 0 130.5 30.5t82.5 86.5t30 131h-243v51h296v-46q0 -90 -36 -158.5t-102.5 -106.5t-157.5 -38zM360 799q-20 0 -32.5 12t-12.5 34q0 21 13 32.5t33 11.5q19 0 32 -12t13 -32q0 -21 -13.5 -33.5t-32.5 -12.5z" />
    <glyph glyph-name="H" unicode="H" horiz-adv-x="726" 
d="M91 0v707h57v-335h430v335h57v-707h-57v321h-430v-321h-57z" />
    <glyph glyph-name="Hbar" unicode="&#x126;" horiz-adv-x="726" 
d="M91 0v515h-76v49h76v143h57v-143h430v143h57v-143h75v-49h-75v-515h-57v321h-430v-321h-57zM148 372h430v143h-430v-143z" />
    <glyph glyph-name="Hcircumflex" unicode="&#x124;" horiz-adv-x="726" 
d="M91 0v707h57v-335h430v335h57v-707h-57v321h-430v-321h-57zM224 793l118 139h42l118 -139h-57l-83 97l-80 -97h-58z" />
    <glyph glyph-name="I" unicode="I" horiz-adv-x="239" 
d="M91 0v707h57v-707h-57z" />
    <glyph glyph-name="IJ" unicode="&#x132;" horiz-adv-x="707" 
d="M414 -8q-46 0 -83 10.5t-64 32.5t-43.5 56t-21.5 81h60q7 -43 26 -72t50.5 -43.5t77.5 -14.5q60 0 92 27t43.5 71t11.5 97v470h58v-469q0 -48 -9 -92.5t-31.5 -79t-63.5 -54.5t-103 -20zM91 0v707h57v-707h-57z" />
    <glyph glyph-name="Iacute" unicode="&#xcd;" horiz-adv-x="239" 
d="M91 0v707h57v-707h-57zM95 793l79 131h64l-92 -131h-51z" />
    <glyph glyph-name="Ibreve" unicode="&#x12c;" horiz-adv-x="239" 
d="M91 0v707h57v-707h-57zM119 791q-63 0 -105.5 25t-48.5 86h52q6 -39 34 -53t69 -14q40 0 68.5 14t34.5 53h52q-4 -40 -25.5 -64.5t-55 -35.5t-75.5 -11z" />
    <glyph glyph-name="Icircumflex" unicode="&#xce;" horiz-adv-x="239" 
d="M91 0v707h57v-707h-57zM-20 793l118 139h42l118 -139h-57l-83 97l-80 -97h-58z" />
    <glyph glyph-name="Idieresis" unicode="&#xcf;" horiz-adv-x="239" 
d="M91 0v707h57v-707h-57zM226 800q-20 0 -32 13t-12 32t12 31.5t32 12.5q21 0 34 -12t13 -32t-13 -32.5t-34 -12.5zM11 800q-20 0 -32.5 13t-12.5 32t12.5 31.5t32.5 12.5q21 0 33.5 -12t12.5 -32t-12.5 -32.5t-33.5 -12.5z" />
    <glyph glyph-name="Idotaccent" unicode="&#x130;" horiz-adv-x="239" 
d="M91 0v707h57v-707h-57zM119 799q-20 0 -32.5 12t-12.5 34q0 21 13 32.5t33 11.5q19 0 32 -12t13 -32q0 -21 -13.5 -33.5t-32.5 -12.5z" />
    <glyph glyph-name="Igrave" unicode="&#xcc;" horiz-adv-x="239" 
d="M91 0v707h57v-707h-57zM99 793l-92 131h64l79 -131h-51z" />
    <glyph glyph-name="Imacron" unicode="&#x12a;" horiz-adv-x="239" 
d="M91 0v707h57v-707h-57zM-33 819v48h305v-48h-305z" />
    <glyph glyph-name="Iogonek" unicode="&#x12e;" horiz-adv-x="239" 
d="M91 0v707h57v-707h-57zM143 -209q-51 1 -84 26.5t-33 75.5q0 39 25.5 70.5t58.5 47.5l36 -9q-27 -17 -48 -43t-21 -57q0 -34 19.5 -50.5t52.5 -16.5q10 0 22 2t21 6l10 -39q-14 -7 -28.5 -10t-30.5 -3z" />
    <glyph glyph-name="Itilde" unicode="&#x128;" horiz-adv-x="239" 
d="M91 0v707h57v-707h-57zM183 786q-24 0 -41.5 11.5t-32 26t-28 26t-28.5 11.5q-18 0 -27 -12t-11 -28t-1 -30h-48q0 30 8 55t27.5 40.5t53.5 15.5q24 0 41.5 -11.5t32 -26t28 -26t28.5 -11.5q19 0 27.5 11.5t10.5 28t2 31.5h48q-1 -30 -9 -56t-27 -41t-54 -15z" />
    <glyph glyph-name="J" unicode="J" horiz-adv-x="551" 
d="M258 -8q-46 0 -83 10.5t-64 32.5t-43.5 56t-21.5 81h61q6 -43 25 -72t51 -43.5t77 -14.5q60 0 92 27t44 71t12 97v470h57v-469q0 -48 -9 -92.5t-31.5 -79t-63 -54.5t-103.5 -20z" />
    <glyph glyph-name="Jcircumflex" unicode="&#x134;" horiz-adv-x="551" 
d="M258 -8q-46 0 -83 10.5t-64 32.5t-43.5 56t-21.5 81h61q6 -43 25 -72t51 -43.5t77 -14.5q60 0 92 27t44 71t12 97v470h57v-469q0 -48 -9 -92.5t-31.5 -79t-63 -54.5t-103.5 -20zM297 793l118 139h42l118 -139h-57l-83 97l-80 -97h-58z" />
    <glyph glyph-name="K" unicode="K" horiz-adv-x="608" 
d="M91 0v707h57v-340h131l243 340h65l-253 -352l256 -355h-69l-230 316h-143v-316h-57z" />
    <glyph glyph-name="uni0136" unicode="&#x136;" horiz-adv-x="608" 
d="M91 0v707h57v-340h131l243 340h65l-253 -352l256 -355h-69l-230 316h-143v-316h-57zM271 -301l-18 24q13 8 24.5 20.5t20.5 28.5t12 34q-17 -2 -35 8.5t-18 36.5q0 21 13.5 33.5t33.5 12.5q26 0 38.5 -18.5t12.5 -42.5q0 -30 -11 -57t-30 -47.5t-43 -32.5z" />
    <glyph glyph-name="L" unicode="L" horiz-adv-x="570" 
d="M91 0v707h57v-655h405v-52h-462z" />
    <glyph glyph-name="Lacute" unicode="&#x139;" horiz-adv-x="570" 
d="M91 0v707h57v-655h405v-52h-462zM97 793l79 131h64l-92 -131h-51z" />
    <glyph glyph-name="Lcaron" unicode="&#x13d;" horiz-adv-x="570" 
d="M91 0v707h57v-655h405v-52h-462zM298 513l-18 25q13 8 24.5 20t21 28t11.5 35q-17 -2 -35 8.5t-18 36.5q0 21 13 33.5t35 12.5q25 0 37.5 -18t12.5 -45q0 -29 -11 -55.5t-29.5 -47.5t-43.5 -33z" />
    <glyph glyph-name="uni013B" unicode="&#x13b;" horiz-adv-x="570" 
d="M91 0v707h57v-655h405v-52h-462zM288 -301l-18 24q13 8 24.5 20.5t20.5 28.5t12 34q-17 -2 -35 8.5t-18 36.5q0 21 13.5 33.5t33.5 12.5q26 0 38.5 -18.5t12.5 -42.5q0 -30 -11 -57t-30 -47.5t-43 -32.5z" />
    <glyph glyph-name="Ldot" unicode="&#x13f;" horiz-adv-x="570" 
d="M91 0v707h57v-655h405v-52h-462zM356 330q-21 0 -33.5 12t-12.5 33q0 20 12.5 32t33.5 12q20 0 32.5 -12t12.5 -32t-12 -32.5t-33 -12.5z" />
    <glyph glyph-name="Lslash" unicode="&#x141;" horiz-adv-x="575" 
d="M96 0v285l-70 -46l-28 42l98 64v362h57v-324l136 90l28 -42l-164 -109v-270h405v-52h-462z" />
    <glyph glyph-name="M" unicode="M" horiz-adv-x="842" 
d="M91 0v707h84l249 -431l245 431h82v-707h-57v643l-257 -451h-28l-261 451v-643h-57z" />
    <glyph glyph-name="N" unicode="N" horiz-adv-x="743" 
d="M91 0v707h78l426 -635v635h57v-707h-75l-429 635v-635h-57z" />
    <glyph glyph-name="Nacute" unicode="&#x143;" horiz-adv-x="743" 
d="M91 0v707h78l426 -635v635h57v-707h-75l-429 635v-635h-57zM347 793l79 131h64l-92 -131h-51z" />
    <glyph glyph-name="Ncaron" unicode="&#x147;" horiz-adv-x="743" 
d="M91 0v707h78l426 -635v635h57v-707h-75l-429 635v-635h-57zM352 793l-119 139h57l83 -97l81 97h57l-118 -139h-41z" />
    <glyph glyph-name="uni0145" unicode="&#x145;" horiz-adv-x="743" 
d="M91 0v707h78l426 -635v635h57v-707h-75l-429 635v-635h-57zM341 -301l-18 24q13 8 24.5 20.5t20.5 28.5t12 34q-17 -2 -35 8.5t-18 36.5q0 21 13.5 33.5t33.5 12.5q26 0 38.5 -18.5t12.5 -42.5q0 -30 -11 -57t-30 -47.5t-43 -32.5z" />
    <glyph glyph-name="Ntilde" unicode="&#xd1;" horiz-adv-x="743" 
d="M91 0v707h78l426 -635v635h57v-707h-75l-429 635v-635h-57zM435 786q-24 0 -41.5 11.5t-32 26t-28 26t-28.5 11.5q-18 0 -27 -12t-11 -28t-1 -30h-48q0 30 8 55t27.5 40.5t53.5 15.5q24 0 41.5 -11.5t32 -26t28 -26t28.5 -11.5q19 0 27.5 11.5t10.5 28t2 31.5h48
q-1 -30 -9 -56t-27 -41t-54 -15z" />
    <glyph glyph-name="Eng" unicode="&#x14a;" horiz-adv-x="743" 
d="M455 -191v48h34q49 0 71.5 18.5t28.5 50.5t5 74h-17l-429 635v-635h-57v707h78l426 -635v635h57v-718q0 -59 -13.5 -99t-48 -60.5t-98.5 -20.5h-37z" />
    <glyph glyph-name="O" unicode="O" horiz-adv-x="765" 
d="M383 -8q-110 0 -183.5 47t-110.5 128.5t-37 185.5t37.5 186t111 129t182.5 47t182.5 -47.5t110.5 -129t37 -185.5q0 -103 -37.5 -185t-110.5 -129t-182 -47zM383 42q92 0 152 42t89 113t29 156q0 64 -16.5 120.5t-49.5 99.5t-84 67.5t-120 24.5q-92 0 -152.5 -43
t-90 -113.5t-29.5 -155.5q0 -84 30 -155t90.5 -113.5t151.5 -42.5z" />
    <glyph glyph-name="Oacute" unicode="&#xd3;" horiz-adv-x="765" 
d="M383 -8q-110 0 -183.5 47t-110.5 128.5t-37 185.5t37.5 186t111 129t182.5 47t182.5 -47.5t110.5 -129t37 -185.5q0 -103 -37.5 -185t-110.5 -129t-182 -47zM383 42q92 0 152 42t89 113t29 156q0 64 -16.5 120.5t-49.5 99.5t-84 67.5t-120 24.5q-92 0 -152.5 -43
t-90 -113.5t-29.5 -155.5q0 -84 30 -155t90.5 -113.5t151.5 -42.5zM358 793l79 131h64l-92 -131h-51z" />
    <glyph glyph-name="Obreve" unicode="&#x14e;" horiz-adv-x="765" 
d="M383 -8q-110 0 -183.5 47t-110.5 128.5t-37 185.5t37.5 186t111 129t182.5 47t182.5 -47.5t110.5 -129t37 -185.5q0 -103 -37.5 -185t-110.5 -129t-182 -47zM383 42q92 0 152 42t89 113t29 156q0 64 -16.5 120.5t-49.5 99.5t-84 67.5t-120 24.5q-92 0 -152.5 -43
t-90 -113.5t-29.5 -155.5q0 -84 30 -155t90.5 -113.5t151.5 -42.5zM382 791q-63 0 -105.5 25t-48.5 86h52q6 -39 34 -53t69 -14q40 0 68.5 14t34.5 53h52q-4 -40 -25.5 -64.5t-55 -35.5t-75.5 -11z" />
    <glyph glyph-name="Ocircumflex" unicode="&#xd4;" horiz-adv-x="765" 
d="M383 -8q-110 0 -183.5 47t-110.5 128.5t-37 185.5t37.5 186t111 129t182.5 47t182.5 -47.5t110.5 -129t37 -185.5q0 -103 -37.5 -185t-110.5 -129t-182 -47zM383 42q92 0 152 42t89 113t29 156q0 64 -16.5 120.5t-49.5 99.5t-84 67.5t-120 24.5q-92 0 -152.5 -43
t-90 -113.5t-29.5 -155.5q0 -84 30 -155t90.5 -113.5t151.5 -42.5zM244 793l118 139h42l118 -139h-57l-83 97l-80 -97h-58z" />
    <glyph glyph-name="Odieresis" unicode="&#xd6;" horiz-adv-x="765" 
d="M383 -8q-110 0 -183.5 47t-110.5 128.5t-37 185.5t37.5 186t111 129t182.5 47t182.5 -47.5t110.5 -129t37 -185.5q0 -103 -37.5 -185t-110.5 -129t-182 -47zM383 42q92 0 152 42t89 113t29 156q0 64 -16.5 120.5t-49.5 99.5t-84 67.5t-120 24.5q-92 0 -152.5 -43
t-90 -113.5t-29.5 -155.5q0 -84 30 -155t90.5 -113.5t151.5 -42.5zM489 800q-20 0 -32 13t-12 32t12 31.5t32 12.5q21 0 34 -12t13 -32t-13 -32.5t-34 -12.5zM274 800q-20 0 -32.5 13t-12.5 32t12.5 31.5t32.5 12.5q21 0 33.5 -12t12.5 -32t-12.5 -32.5t-33.5 -12.5z" />
    <glyph glyph-name="Ograve" unicode="&#xd2;" horiz-adv-x="765" 
d="M383 -8q-110 0 -183.5 47t-110.5 128.5t-37 185.5t37.5 186t111 129t182.5 47t182.5 -47.5t110.5 -129t37 -185.5q0 -103 -37.5 -185t-110.5 -129t-182 -47zM383 42q92 0 152 42t89 113t29 156q0 64 -16.5 120.5t-49.5 99.5t-84 67.5t-120 24.5q-92 0 -152.5 -43
t-90 -113.5t-29.5 -155.5q0 -84 30 -155t90.5 -113.5t151.5 -42.5zM363 793l-92 131h64l79 -131h-51z" />
    <glyph glyph-name="Ohungarumlaut" unicode="&#x150;" horiz-adv-x="765" 
d="M383 -8q-110 0 -183.5 47t-110.5 128.5t-37 185.5t37.5 186t111 129t182.5 47t182.5 -47.5t110.5 -129t37 -185.5q0 -103 -37.5 -185t-110.5 -129t-182 -47zM383 42q92 0 152 42t89 113t29 156q0 64 -16.5 120.5t-49.5 99.5t-84 67.5t-120 24.5q-92 0 -152.5 -43
t-90 -113.5t-29.5 -155.5q0 -84 30 -155t90.5 -113.5t151.5 -42.5zM408 793l79 131h64l-92 -131h-51zM275 793l79 131h64l-92 -131h-51z" />
    <glyph glyph-name="Omacron" unicode="&#x14c;" horiz-adv-x="765" 
d="M383 -8q-110 0 -183.5 47t-110.5 128.5t-37 185.5t37.5 186t111 129t182.5 47t182.5 -47.5t110.5 -129t37 -185.5q0 -103 -37.5 -185t-110.5 -129t-182 -47zM383 42q92 0 152 42t89 113t29 156q0 64 -16.5 120.5t-49.5 99.5t-84 67.5t-120 24.5q-92 0 -152.5 -43
t-90 -113.5t-29.5 -155.5q0 -84 30 -155t90.5 -113.5t151.5 -42.5zM230 819v48h305v-48h-305z" />
    <glyph glyph-name="Oslash" unicode="&#xd8;" horiz-adv-x="765" 
d="M159 -110l58 139q-59 32 -95.5 82.5t-53 112.5t-16.5 129q0 104 37 185.5t111 129t183 47.5q30 0 58.5 -4t54.5 -12l49 117h61l-59 -139q60 -32 96.5 -82t53 -112t16.5 -130q0 -102 -37 -184t-110.5 -129.5t-182.5 -47.5q-32 0 -60.5 4t-53.5 12l-49 -118h-61zM238 81
l237 569q-21 7 -44 11t-48 4q-92 0 -152.5 -43t-90 -113.5t-29.5 -155.5q0 -55 13 -107t41.5 -94.5t72.5 -70.5zM383 42q93 0 152.5 42.5t88.5 113t29 155.5q0 56 -12.5 108t-40.5 94.5t-74 70.5l-237 -570q44 -14 94 -14z" />
    <glyph glyph-name="Otilde" unicode="&#xd5;" horiz-adv-x="765" 
d="M383 -8q-110 0 -183.5 47t-110.5 128.5t-37 185.5t37.5 186t111 129t182.5 47t182.5 -47.5t110.5 -129t37 -185.5q0 -103 -37.5 -185t-110.5 -129t-182 -47zM383 42q92 0 152 42t89 113t29 156q0 64 -16.5 120.5t-49.5 99.5t-84 67.5t-120 24.5q-92 0 -152.5 -43
t-90 -113.5t-29.5 -155.5q0 -84 30 -155t90.5 -113.5t151.5 -42.5zM446 786q-24 0 -41.5 11.5t-32 26t-28 26t-28.5 11.5q-18 0 -27 -12t-11 -28t-1 -30h-48q0 30 8 55t27.5 40.5t53.5 15.5q24 0 41.5 -11.5t32 -26t28 -26t28.5 -11.5q19 0 27.5 11.5t10.5 28t2 31.5h48
q-1 -30 -9 -56t-27 -41t-54 -15z" />
    <glyph glyph-name="OE" unicode="&#x152;" horiz-adv-x="1148" 
d="M383 -8q-109 0 -183 47t-111 129t-37 185q0 104 37 185.5t111 129t183 47.5q82 0 149 -31.5t111 -101.5v125h453v-52h-396v-278h355v-52h-355v-273h396v-52h-453v124q-43 -69 -111 -100.5t-149 -31.5zM383 42q81 0 136.5 34t86.5 90t38 125v127q-5 64 -35.5 120.5
t-86.5 91.5t-139 35q-92 0 -152.5 -43t-90 -113.5t-29.5 -155.5q0 -84 29.5 -154.5t90.5 -113.5t152 -43z" />
    <glyph glyph-name="P" unicode="P" horiz-adv-x="626" 
d="M91 0v707h238q77 0 131.5 -24.5t83.5 -75.5t29 -130q0 -78 -34.5 -129.5t-94 -77.5t-134.5 -26h-162v-244h-57zM148 295h159q93 0 150 44.5t57 141.5q0 92 -50 133t-140 41h-176v-360z" />
    <glyph glyph-name="Thorn" unicode="&#xde;" horiz-adv-x="626" 
d="M91 0v707h57v-125h181q77 0 131 -24t83.5 -74.5t29.5 -129.5q0 -78 -35 -129.5t-94 -76.5t-133 -25h-163v-123h-57zM148 174h159q61 0 107.5 19t73 59.5t26.5 105.5q0 92 -50 132.5t-140 40.5h-176v-357z" />
    <glyph glyph-name="Q" unicode="Q" horiz-adv-x="765" 
d="M648 -128l-110 152q-36 -15 -74.5 -23.5t-80.5 -8.5q-109 0 -183 47t-111 128.5t-37 185.5t37 186t111 129t183 47t182.5 -47.5t110.5 -129t37 -185.5q0 -94 -31.5 -170.5t-93.5 -127.5l107 -149zM383 42q93 0 153 42t88.5 112.5t28.5 156.5q0 85 -29 156t-89 113.5
t-152 42.5t-152.5 -43t-90 -113.5t-29.5 -155.5t29.5 -155.5t90.5 -113t152 -42.5z" />
    <glyph glyph-name="R" unicode="R" horiz-adv-x="655" 
d="M91 0v707h260q56 0 101.5 -11.5t78 -36.5t50 -66.5t17.5 -100.5q0 -55 -20 -96t-58 -68t-90 -39l154 -289h-63l-150 279h-223v-279h-57zM148 330h175q42 0 81 6.5t69.5 24.5t48 50.5t17.5 83.5q1 62 -24.5 97t-70 49t-103.5 14h-193v-325z" />
    <glyph glyph-name="Racute" unicode="&#x154;" horiz-adv-x="655" 
d="M91 0v707h260q56 0 101.5 -11.5t78 -36.5t50 -66.5t17.5 -100.5q0 -55 -20 -96t-58 -68t-90 -39l154 -289h-63l-150 279h-223v-279h-57zM148 330h175q42 0 81 6.5t69.5 24.5t48 50.5t17.5 83.5q1 62 -24.5 97t-70 49t-103.5 14h-193v-325zM303 793l79 131h64l-92 -131
h-51z" />
    <glyph glyph-name="Rcaron" unicode="&#x158;" horiz-adv-x="655" 
d="M91 0v707h260q56 0 101.5 -11.5t78 -36.5t50 -66.5t17.5 -100.5q0 -55 -20 -96t-58 -68t-90 -39l154 -289h-63l-150 279h-223v-279h-57zM148 330h175q42 0 81 6.5t69.5 24.5t48 50.5t17.5 83.5q1 62 -24.5 97t-70 49t-103.5 14h-193v-325zM308 793l-119 139h57l83 -97
l81 97h57l-118 -139h-41z" />
    <glyph glyph-name="uni0156" unicode="&#x156;" horiz-adv-x="655" 
d="M91 0v707h260q56 0 101.5 -11.5t78 -36.5t50 -66.5t17.5 -100.5q0 -55 -20 -96t-58 -68t-90 -39l154 -289h-63l-150 279h-223v-279h-57zM148 330h175q42 0 81 6.5t69.5 24.5t48 50.5t17.5 83.5q1 62 -24.5 97t-70 49t-103.5 14h-193v-325zM295 -301l-18 24
q13 8 24.5 20.5t20.5 28.5t12 34q-17 -2 -35 8.5t-18 36.5q0 21 13.5 33.5t33.5 12.5q26 0 38.5 -18.5t12.5 -42.5q0 -30 -11 -57t-30 -47.5t-43 -32.5z" />
    <glyph glyph-name="S" unicode="S" horiz-adv-x="646" 
d="M337 -8q-61 0 -117.5 16t-98.5 53.5t-60 99.5h62q19 -44 53 -70t76.5 -37.5t84.5 -11.5q47 0 90 14.5t70 44.5t27 79q0 39 -15.5 63t-42 38.5t-61.5 24.5q-26 8 -53 14.5t-52.5 13.5t-48.5 15q-31 9 -61.5 22t-54 33t-38 49t-14.5 71q0 43 13 75t37 54t55 35.5t66.5 20
t72.5 6.5q57 0 106.5 -16t84.5 -52t44 -97h-58q-10 43 -37.5 68t-64.5 36t-76 11q-31 0 -63 -6.5t-59 -21.5t-44 -40.5t-17 -64.5t16.5 -64t43 -40t59.5 -26q44 -14 91 -24.5t89 -24.5q30 -9 56 -23.5t45 -34.5t30 -45.5t11 -57.5q0 -55 -20.5 -93t-55.5 -62t-79 -34.5
t-92 -10.5z" />
    <glyph glyph-name="Sacute" unicode="&#x15a;" horiz-adv-x="646" 
d="M337 -8q-61 0 -117.5 16t-98.5 53.5t-60 99.5h62q19 -44 53 -70t76.5 -37.5t84.5 -11.5q47 0 90 14.5t70 44.5t27 79q0 39 -15.5 63t-42 38.5t-61.5 24.5q-26 8 -53 14.5t-52.5 13.5t-48.5 15q-31 9 -61.5 22t-54 33t-38 49t-14.5 71q0 43 13 75t37 54t55 35.5t66.5 20
t72.5 6.5q57 0 106.5 -16t84.5 -52t44 -97h-58q-10 43 -37.5 68t-64.5 36t-76 11q-31 0 -63 -6.5t-59 -21.5t-44 -40.5t-17 -64.5t16.5 -64t43 -40t59.5 -26q44 -14 91 -24.5t89 -24.5q30 -9 56 -23.5t45 -34.5t30 -45.5t11 -57.5q0 -55 -20.5 -93t-55.5 -62t-79 -34.5
t-92 -10.5zM298 793l79 131h64l-92 -131h-51z" />
    <glyph glyph-name="Scaron" unicode="&#x160;" horiz-adv-x="646" 
d="M337 -8q-61 0 -117.5 16t-98.5 53.5t-60 99.5h62q19 -44 53 -70t76.5 -37.5t84.5 -11.5q47 0 90 14.5t70 44.5t27 79q0 39 -15.5 63t-42 38.5t-61.5 24.5q-26 8 -53 14.5t-52.5 13.5t-48.5 15q-31 9 -61.5 22t-54 33t-38 49t-14.5 71q0 43 13 75t37 54t55 35.5t66.5 20
t72.5 6.5q57 0 106.5 -16t84.5 -52t44 -97h-58q-10 43 -37.5 68t-64.5 36t-76 11q-31 0 -63 -6.5t-59 -21.5t-44 -40.5t-17 -64.5t16.5 -64t43 -40t59.5 -26q44 -14 91 -24.5t89 -24.5q30 -9 56 -23.5t45 -34.5t30 -45.5t11 -57.5q0 -55 -20.5 -93t-55.5 -62t-79 -34.5
t-92 -10.5zM303 793l-119 139h57l83 -97l81 97h57l-118 -139h-41z" />
    <glyph glyph-name="Scedilla" unicode="&#x15e;" horiz-adv-x="646" 
d="M337 -8q-61 0 -117.5 16t-98.5 53.5t-60 99.5h62q19 -44 53 -70t76.5 -37.5t84.5 -11.5q47 0 90 14.5t70 44.5t27 79q0 39 -15.5 63t-42 38.5t-61.5 24.5q-26 8 -53 14.5t-52.5 13.5t-48.5 15q-31 9 -61.5 22t-54 33t-38 49t-14.5 71q0 43 13 75t37 54t55 35.5t66.5 20
t72.5 6.5q57 0 106.5 -16t84.5 -52t44 -97h-58q-10 43 -37.5 68t-64.5 36t-76 11q-31 0 -63 -6.5t-59 -21.5t-44 -40.5t-17 -64.5t16.5 -64t43 -40t59.5 -26q44 -14 91 -24.5t89 -24.5q30 -9 56 -23.5t45 -34.5t30 -45.5t11 -57.5q0 -55 -20.5 -93t-55.5 -62t-79 -34.5
t-92 -10.5zM306 -250q-10 -1 -19 -1h-19v37q15 -2 35 -0.5t38 8t30 20t12 36.5q0 17 -8.5 27t-22 14.5t-27.5 4.5q-11 0 -27 -3t-28 -6l37 127h38l-25 -87q9 2 16 2.5t15 0.5q34 0 54.5 -20.5t20.5 -58.5q0 -35 -17 -57t-44.5 -32t-58.5 -12z" />
    <glyph glyph-name="Scircumflex" unicode="&#x15c;" horiz-adv-x="646" 
d="M337 -8q-61 0 -117.5 16t-98.5 53.5t-60 99.5h62q19 -44 53 -70t76.5 -37.5t84.5 -11.5q47 0 90 14.5t70 44.5t27 79q0 39 -15.5 63t-42 38.5t-61.5 24.5q-26 8 -53 14.5t-52.5 13.5t-48.5 15q-31 9 -61.5 22t-54 33t-38 49t-14.5 71q0 43 13 75t37 54t55 35.5t66.5 20
t72.5 6.5q57 0 106.5 -16t84.5 -52t44 -97h-58q-10 43 -37.5 68t-64.5 36t-76 11q-31 0 -63 -6.5t-59 -21.5t-44 -40.5t-17 -64.5t16.5 -64t43 -40t59.5 -26q44 -14 91 -24.5t89 -24.5q30 -9 56 -23.5t45 -34.5t30 -45.5t11 -57.5q0 -55 -20.5 -93t-55.5 -62t-79 -34.5
t-92 -10.5zM184 793l118 139h42l118 -139h-57l-83 97l-80 -97h-58z" />
    <glyph glyph-name="uni0218" unicode="&#x218;" horiz-adv-x="646" 
d="M337 -8q-61 0 -117.5 16t-98.5 53.5t-60 99.5h62q19 -44 53 -70t76.5 -37.5t84.5 -11.5q47 0 90 14.5t70 44.5t27 79q0 39 -15.5 63t-42 38.5t-61.5 24.5q-26 8 -53 14.5t-52.5 13.5t-48.5 15q-31 9 -61.5 22t-54 33t-38 49t-14.5 71q0 43 13 75t37 54t55 35.5t66.5 20
t72.5 6.5q57 0 106.5 -16t84.5 -52t44 -97h-58q-10 43 -37.5 68t-64.5 36t-76 11q-31 0 -63 -6.5t-59 -21.5t-44 -40.5t-17 -64.5t16.5 -64t43 -40t59.5 -26q44 -14 91 -24.5t89 -24.5q30 -9 56 -23.5t45 -34.5t30 -45.5t11 -57.5q0 -55 -20.5 -93t-55.5 -62t-79 -34.5
t-92 -10.5zM290 -301l-18 24q13 8 24.5 20.5t20.5 28.5t12 34q-17 -2 -35 8.5t-18 36.5q0 21 13.5 33.5t33.5 12.5q26 0 38.5 -18.5t12.5 -42.5q0 -30 -11 -57t-30 -47.5t-43 -32.5z" />
    <glyph glyph-name="uni1E9E" unicode="&#x1e9e;" horiz-adv-x="675" 
d="M448 -8q-43 0 -81.5 13.5t-65.5 41t-37 69.5h59q13 -40 49 -57t80 -17q48 0 81.5 26.5t33.5 71.5q0 30 -16 54.5t-45 46t-70 42.5q-36 18 -71.5 36t-69.5 35l169 224q-21 42 -66 64.5t-90 22.5q-44 0 -81 -16.5t-59.5 -48.5t-22.5 -78v-522h-57v522q0 66 30 108.5
t80.5 63.5t111.5 21q44 0 88.5 -15.5t79 -46.5t48.5 -78l-155 -199q25 -14 51 -27t51 -27q45 -24 79 -49t53 -56t19 -74q0 -49 -23 -82.5t-62.5 -51t-90.5 -17.5z" />
    <glyph glyph-name="T" unicode="T" horiz-adv-x="567" 
d="M255 0v655h-237v52h531v-52h-237v-655h-57z" />
    <glyph glyph-name="Tbar" unicode="&#x166;" horiz-adv-x="567" 
d="M255 0v317h-126v48h126v290h-237v52h531v-52h-237v-290h126v-48h-126v-317h-57z" />
    <glyph glyph-name="Tcaron" unicode="&#x164;" horiz-adv-x="567" 
d="M255 0v655h-237v52h531v-52h-237v-655h-57zM264 793l-119 139h57l83 -97l81 97h57l-118 -139h-41z" />
    <glyph glyph-name="uni0162" unicode="&#x162;" horiz-adv-x="567" 
d="M255 0v655h-237v52h531v-52h-237v-655h-57zM267 -250q-10 -1 -19 -1h-19v37q15 -2 35 -0.5t38 8t30 20t12 36.5q0 17 -8.5 27t-22 14.5t-27.5 4.5q-11 0 -27 -3t-28 -6l37 127h38l-25 -87q9 2 16 2.5t15 0.5q34 0 54.5 -20.5t20.5 -58.5q0 -35 -17 -57t-44.5 -32
t-58.5 -12z" />
    <glyph glyph-name="uni021A" unicode="&#x21a;" horiz-adv-x="567" 
d="M255 0v655h-237v52h531v-52h-237v-655h-57zM251 -301l-18 24q13 8 24.5 20.5t20.5 28.5t12 34q-17 -2 -35 8.5t-18 36.5q0 21 13.5 33.5t33.5 12.5q26 0 38.5 -18.5t12.5 -42.5q0 -30 -11 -57t-30 -47.5t-43 -32.5z" />
    <glyph glyph-name="U" unicode="U" horiz-adv-x="721" 
d="M360 -8q-96 0 -156.5 40t-89 109.5t-28.5 159.5v406h58v-403q0 -73 21.5 -132.5t69.5 -94.5t126 -35q81 0 128 35.5t67.5 95t20.5 131.5v403h58v-406q0 -90 -28 -159.5t-89 -109.5t-158 -40z" />
    <glyph glyph-name="Uacute" unicode="&#xda;" horiz-adv-x="721" 
d="M360 -8q-96 0 -156.5 40t-89 109.5t-28.5 159.5v406h58v-403q0 -73 21.5 -132.5t69.5 -94.5t126 -35q81 0 128 35.5t67.5 95t20.5 131.5v403h58v-406q0 -90 -28 -159.5t-89 -109.5t-158 -40zM335 793l79 131h64l-92 -131h-51z" />
    <glyph glyph-name="Ubreve" unicode="&#x16c;" horiz-adv-x="721" 
d="M360 -8q-96 0 -156.5 40t-89 109.5t-28.5 159.5v406h58v-403q0 -73 21.5 -132.5t69.5 -94.5t126 -35q81 0 128 35.5t67.5 95t20.5 131.5v403h58v-406q0 -90 -28 -159.5t-89 -109.5t-158 -40zM359 791q-63 0 -105.5 25t-48.5 86h52q6 -39 34 -53t69 -14q40 0 68.5 14
t34.5 53h52q-4 -40 -25.5 -64.5t-55 -35.5t-75.5 -11z" />
    <glyph glyph-name="Ucircumflex" unicode="&#xdb;" horiz-adv-x="721" 
d="M360 -8q-96 0 -156.5 40t-89 109.5t-28.5 159.5v406h58v-403q0 -73 21.5 -132.5t69.5 -94.5t126 -35q81 0 128 35.5t67.5 95t20.5 131.5v403h58v-406q0 -90 -28 -159.5t-89 -109.5t-158 -40zM221 793l118 139h42l118 -139h-57l-83 97l-80 -97h-58z" />
    <glyph glyph-name="Udieresis" unicode="&#xdc;" horiz-adv-x="721" 
d="M360 -8q-96 0 -156.5 40t-89 109.5t-28.5 159.5v406h58v-403q0 -73 21.5 -132.5t69.5 -94.5t126 -35q81 0 128 35.5t67.5 95t20.5 131.5v403h58v-406q0 -90 -28 -159.5t-89 -109.5t-158 -40zM467 800q-20 0 -32 13t-12 32t12 31.5t32 12.5q21 0 34 -12t13 -32t-13 -32.5
t-34 -12.5zM252 800q-20 0 -32.5 13t-12.5 32t12.5 31.5t32.5 12.5q21 0 33.5 -12t12.5 -32t-12.5 -32.5t-33.5 -12.5z" />
    <glyph glyph-name="Ugrave" unicode="&#xd9;" horiz-adv-x="721" 
d="M360 -8q-96 0 -156.5 40t-89 109.5t-28.5 159.5v406h58v-403q0 -73 21.5 -132.5t69.5 -94.5t126 -35q81 0 128 35.5t67.5 95t20.5 131.5v403h58v-406q0 -90 -28 -159.5t-89 -109.5t-158 -40zM340 793l-92 131h64l79 -131h-51z" />
    <glyph glyph-name="Uhungarumlaut" unicode="&#x170;" horiz-adv-x="721" 
d="M360 -8q-96 0 -156.5 40t-89 109.5t-28.5 159.5v406h58v-403q0 -73 21.5 -132.5t69.5 -94.5t126 -35q81 0 128 35.5t67.5 95t20.5 131.5v403h58v-406q0 -90 -28 -159.5t-89 -109.5t-158 -40zM385 793l79 131h64l-92 -131h-51zM252 793l79 131h64l-92 -131h-51z" />
    <glyph glyph-name="Umacron" unicode="&#x16a;" horiz-adv-x="721" 
d="M360 -8q-96 0 -156.5 40t-89 109.5t-28.5 159.5v406h58v-403q0 -73 21.5 -132.5t69.5 -94.5t126 -35q81 0 128 35.5t67.5 95t20.5 131.5v403h58v-406q0 -90 -28 -159.5t-89 -109.5t-158 -40zM207 819v48h305v-48h-305z" />
    <glyph glyph-name="Uogonek" unicode="&#x172;" horiz-adv-x="721" 
d="M360 -8q-96 0 -156.5 40t-89 109.5t-28.5 159.5v406h58v-403q0 -73 21.5 -132.5t69.5 -94.5t126 -35q81 0 128 35.5t67.5 95t20.5 131.5v403h58v-406q0 -90 -28 -159.5t-89 -109.5t-158 -40zM414 -209q-51 1 -84 26.5t-33 75.5q0 39 25.5 70.5t58.5 47.5l36 -9
q-27 -17 -48 -43t-21 -57q0 -34 19.5 -50.5t52.5 -16.5q10 0 22 2t21 6l10 -39q-14 -7 -28.5 -10t-30.5 -3z" />
    <glyph glyph-name="Uring" unicode="&#x16e;" horiz-adv-x="721" 
d="M360 -8q-96 0 -156.5 40t-89 109.5t-28.5 159.5v406h58v-403q0 -73 21.5 -132.5t69.5 -94.5t126 -35q81 0 128 35.5t67.5 95t20.5 131.5v403h58v-406q0 -90 -28 -159.5t-89 -109.5t-158 -40zM360 768q-41 0 -65 23t-24 62q0 40 24.5 65.5t64.5 25.5q41 0 65.5 -26
t24.5 -65q0 -40 -25.5 -62.5t-64.5 -22.5zM359 803q24 0 37.5 14t13.5 37q0 24 -13 39t-37 15t-37 -15t-13 -39q0 -23 13 -37t36 -14z" />
    <glyph glyph-name="Utilde" unicode="&#x168;" horiz-adv-x="721" 
d="M360 -8q-96 0 -156.5 40t-89 109.5t-28.5 159.5v406h58v-403q0 -73 21.5 -132.5t69.5 -94.5t126 -35q81 0 128 35.5t67.5 95t20.5 131.5v403h58v-406q0 -90 -28 -159.5t-89 -109.5t-158 -40zM423 786q-24 0 -41.5 11.5t-32 26t-28 26t-28.5 11.5q-18 0 -27 -12t-11 -28
t-1 -30h-48q0 30 8 55t27.5 40.5t53.5 15.5q24 0 41.5 -11.5t32 -26t28 -26t28.5 -11.5q19 0 27.5 11.5t10.5 28t2 31.5h48q-1 -30 -9 -56t-27 -41t-54 -15z" />
    <glyph glyph-name="V" unicode="V" horiz-adv-x="660" 
d="M292 0l-274 707h64l249 -651l248 651h63l-272 -707h-78z" />
    <glyph glyph-name="W" unicode="W" horiz-adv-x="952" 
d="M215 0l-197 707h63l177 -653l176 653h85l178 -653l175 653h62l-196 -707h-85l-178 650l-173 -650h-87z" />
    <glyph glyph-name="Wacute" unicode="&#x1e82;" horiz-adv-x="952" 
d="M215 0l-197 707h63l177 -653l176 653h85l178 -653l175 653h62l-196 -707h-85l-178 650l-173 -650h-87zM452 793l79 131h64l-92 -131h-51z" />
    <glyph glyph-name="Wcircumflex" unicode="&#x174;" horiz-adv-x="952" 
d="M215 0l-197 707h63l177 -653l176 653h85l178 -653l175 653h62l-196 -707h-85l-178 650l-173 -650h-87zM337 793l118 139h42l118 -139h-57l-83 97l-80 -97h-58z" />
    <glyph glyph-name="Wdieresis" unicode="&#x1e84;" horiz-adv-x="952" 
d="M215 0l-197 707h63l177 -653l176 653h85l178 -653l175 653h62l-196 -707h-85l-178 650l-173 -650h-87zM583 800q-20 0 -32 13t-12 32t12 31.5t32 12.5q21 0 34 -12t13 -32t-13 -32.5t-34 -12.5zM368 800q-20 0 -32.5 13t-12.5 32t12.5 31.5t32.5 12.5q21 0 33.5 -12
t12.5 -32t-12.5 -32.5t-33.5 -12.5z" />
    <glyph glyph-name="Wgrave" unicode="&#x1e80;" horiz-adv-x="952" 
d="M215 0l-197 707h63l177 -653l176 653h85l178 -653l175 653h62l-196 -707h-85l-178 650l-173 -650h-87zM456 793l-92 131h64l79 -131h-51z" />
    <glyph glyph-name="X" unicode="X" horiz-adv-x="570" 
d="M18 0l228 355l-220 352h72l187 -305l186 305h72l-220 -350l229 -357h-72l-196 310l-196 -310h-70z" />
    <glyph glyph-name="Y" unicode="Y" horiz-adv-x="593" 
d="M269 0v266l-251 441h68l212 -383l212 383h65l-249 -440v-267h-57z" />
    <glyph glyph-name="Yacute" unicode="&#xdd;" horiz-adv-x="593" 
d="M269 0v266l-251 441h68l212 -383l212 383h65l-249 -440v-267h-57zM272 793l79 131h64l-92 -131h-51z" />
    <glyph glyph-name="Ycircumflex" unicode="&#x176;" horiz-adv-x="593" 
d="M269 0v266l-251 441h68l212 -383l212 383h65l-249 -440v-267h-57zM158 793l118 139h42l118 -139h-57l-83 97l-80 -97h-58z" />
    <glyph glyph-name="Ydieresis" unicode="&#x178;" horiz-adv-x="593" 
d="M269 0v266l-251 441h68l212 -383l212 383h65l-249 -440v-267h-57zM403 800q-20 0 -32 13t-12 32t12 31.5t32 12.5q21 0 34 -12t13 -32t-13 -32.5t-34 -12.5zM188 800q-20 0 -32.5 13t-12.5 32t12.5 31.5t32.5 12.5q21 0 33.5 -12t12.5 -32t-12.5 -32.5t-33.5 -12.5z" />
    <glyph glyph-name="Ygrave" unicode="&#x1ef2;" horiz-adv-x="593" 
d="M269 0v266l-251 441h68l212 -383l212 383h65l-249 -440v-267h-57zM277 793l-92 131h64l79 -131h-51z" />
    <glyph glyph-name="Z" unicode="Z" horiz-adv-x="594" 
d="M48 0v50l422 605h-408v52h484v-49l-427 -606h422v-52h-493z" />
    <glyph glyph-name="Zacute" unicode="&#x179;" horiz-adv-x="594" 
d="M48 0v50l422 605h-408v52h484v-49l-427 -606h422v-52h-493zM273 793l79 131h64l-92 -131h-51z" />
    <glyph glyph-name="Zcaron" unicode="&#x17d;" horiz-adv-x="594" 
d="M48 0v50l422 605h-408v52h484v-49l-427 -606h422v-52h-493zM278 793l-119 139h57l83 -97l81 97h57l-118 -139h-41z" />
    <glyph glyph-name="Zdotaccent" unicode="&#x17b;" horiz-adv-x="594" 
d="M48 0v50l422 605h-408v52h484v-49l-427 -606h422v-52h-493zM297 799q-20 0 -32.5 12t-12.5 34q0 21 13 32.5t33 11.5q19 0 32 -12t13 -32q0 -21 -13.5 -33.5t-32.5 -12.5z" />
    <glyph glyph-name="I_alt" horiz-adv-x="578" 
d="M45 0v52h215v603h-215v52h488v-52h-216v-603h216v-52h-488z" />
    <glyph glyph-name="K_alt" horiz-adv-x="609" 
d="M91 0v707h57v-404l378 404h67l-295 -316l293 -391h-67l-267 353l-109 -116v-237h-57z" />
    <glyph glyph-name="W_alt" horiz-adv-x="902" 
d="M216 0l-198 707h65l180 -653l159 479h60l160 -479l179 653h63l-199 -707h-85l-149 442l-145 -442h-90z" />
    <glyph glyph-name="a" unicode="a" horiz-adv-x="553" 
d="M238 -7q-31 0 -64 8t-61 25.5t-44.5 46.5t-16.5 72q0 44 16 73.5t43.5 46.5t63.5 24.5t74 7.5h180q0 53 -14.5 95.5t-47.5 67t-88 24.5q-26 0 -53 -5.5t-49 -19t-34 -39.5h-62q11 36 34 57.5t51.5 34t57.5 17.5t53 5q110 0 159 -67t49 -181v-286h-52l-2 76
q-21 -28 -51 -47t-66 -27.5t-76 -8.5zM239 42q50 0 93 16.5t70 50.5t27 86v55h-142q-31 0 -62 -2.5t-58 -11.5t-43 -29.5t-16 -56.5q0 -37 19 -61t49 -35.5t63 -11.5z" />
    <glyph glyph-name="aacute" unicode="&#xe1;" horiz-adv-x="553" 
d="M238 -7q-31 0 -64 8t-61 25.5t-44.5 46.5t-16.5 72q0 44 16 73.5t43.5 46.5t63.5 24.5t74 7.5h180q0 53 -14.5 95.5t-47.5 67t-88 24.5q-26 0 -53 -5.5t-49 -19t-34 -39.5h-62q11 36 34 57.5t51.5 34t57.5 17.5t53 5q110 0 159 -67t49 -181v-286h-52l-2 76
q-21 -28 -51 -47t-66 -27.5t-76 -8.5zM239 42q50 0 93 16.5t70 50.5t27 86v55h-142q-31 0 -62 -2.5t-58 -11.5t-43 -29.5t-16 -56.5q0 -37 19 -61t49 -35.5t63 -11.5zM260 628l79 131h64l-92 -131h-51z" />
    <glyph glyph-name="abreve" unicode="&#x103;" horiz-adv-x="553" 
d="M238 -7q-31 0 -64 8t-61 25.5t-44.5 46.5t-16.5 72q0 44 16 73.5t43.5 46.5t63.5 24.5t74 7.5h180q0 53 -14.5 95.5t-47.5 67t-88 24.5q-26 0 -53 -5.5t-49 -19t-34 -39.5h-62q11 36 34 57.5t51.5 34t57.5 17.5t53 5q110 0 159 -67t49 -181v-286h-52l-2 76
q-21 -28 -51 -47t-66 -27.5t-76 -8.5zM239 42q50 0 93 16.5t70 50.5t27 86v55h-142q-31 0 -62 -2.5t-58 -11.5t-43 -29.5t-16 -56.5q0 -37 19 -61t49 -35.5t63 -11.5zM284 626q-63 0 -105.5 25t-48.5 86h52q6 -39 34 -53t69 -14q40 0 68.5 14t34.5 53h52q-4 -40 -25.5 -64.5
t-55 -35.5t-75.5 -11z" />
    <glyph glyph-name="acircumflex" unicode="&#xe2;" horiz-adv-x="553" 
d="M238 -7q-31 0 -64 8t-61 25.5t-44.5 46.5t-16.5 72q0 44 16 73.5t43.5 46.5t63.5 24.5t74 7.5h180q0 53 -14.5 95.5t-47.5 67t-88 24.5q-26 0 -53 -5.5t-49 -19t-34 -39.5h-62q11 36 34 57.5t51.5 34t57.5 17.5t53 5q110 0 159 -67t49 -181v-286h-52l-2 76
q-21 -28 -51 -47t-66 -27.5t-76 -8.5zM239 42q50 0 93 16.5t70 50.5t27 86v55h-142q-31 0 -62 -2.5t-58 -11.5t-43 -29.5t-16 -56.5q0 -37 19 -61t49 -35.5t63 -11.5zM146 628l118 139h42l118 -139h-57l-83 97l-80 -97h-58z" />
    <glyph glyph-name="adieresis" unicode="&#xe4;" horiz-adv-x="553" 
d="M238 -7q-31 0 -64 8t-61 25.5t-44.5 46.5t-16.5 72q0 44 16 73.5t43.5 46.5t63.5 24.5t74 7.5h180q0 53 -14.5 95.5t-47.5 67t-88 24.5q-26 0 -53 -5.5t-49 -19t-34 -39.5h-62q11 36 34 57.5t51.5 34t57.5 17.5t53 5q110 0 159 -67t49 -181v-286h-52l-2 76
q-21 -28 -51 -47t-66 -27.5t-76 -8.5zM239 42q50 0 93 16.5t70 50.5t27 86v55h-142q-31 0 -62 -2.5t-58 -11.5t-43 -29.5t-16 -56.5q0 -37 19 -61t49 -35.5t63 -11.5zM391 635q-20 0 -32 13t-12 32t12 31.5t32 12.5q21 0 34 -12t13 -32t-13 -32.5t-34 -12.5zM176 635
q-20 0 -32.5 13t-12.5 32t12.5 31.5t32.5 12.5q21 0 33.5 -12t12.5 -32t-12.5 -32.5t-33.5 -12.5z" />
    <glyph glyph-name="agrave" unicode="&#xe0;" horiz-adv-x="553" 
d="M238 -7q-31 0 -64 8t-61 25.5t-44.5 46.5t-16.5 72q0 44 16 73.5t43.5 46.5t63.5 24.5t74 7.5h180q0 53 -14.5 95.5t-47.5 67t-88 24.5q-26 0 -53 -5.5t-49 -19t-34 -39.5h-62q11 36 34 57.5t51.5 34t57.5 17.5t53 5q110 0 159 -67t49 -181v-286h-52l-2 76
q-21 -28 -51 -47t-66 -27.5t-76 -8.5zM239 42q50 0 93 16.5t70 50.5t27 86v55h-142q-31 0 -62 -2.5t-58 -11.5t-43 -29.5t-16 -56.5q0 -37 19 -61t49 -35.5t63 -11.5zM265 628l-92 131h64l79 -131h-51z" />
    <glyph glyph-name="amacron" unicode="&#x101;" horiz-adv-x="553" 
d="M238 -7q-31 0 -64 8t-61 25.5t-44.5 46.5t-16.5 72q0 44 16 73.5t43.5 46.5t63.5 24.5t74 7.5h180q0 53 -14.5 95.5t-47.5 67t-88 24.5q-26 0 -53 -5.5t-49 -19t-34 -39.5h-62q11 36 34 57.5t51.5 34t57.5 17.5t53 5q110 0 159 -67t49 -181v-286h-52l-2 76
q-21 -28 -51 -47t-66 -27.5t-76 -8.5zM239 42q50 0 93 16.5t70 50.5t27 86v55h-142q-31 0 -62 -2.5t-58 -11.5t-43 -29.5t-16 -56.5q0 -37 19 -61t49 -35.5t63 -11.5zM132 654v48h305v-48h-305z" />
    <glyph glyph-name="aogonek" unicode="&#x105;" horiz-adv-x="553" 
d="M238 -7q-31 0 -64 8t-61 25.5t-44.5 46.5t-16.5 72q0 44 16 73.5t43.5 46.5t63.5 24.5t74 7.5h180q0 53 -14.5 95.5t-47.5 67t-88 24.5q-26 0 -53 -5.5t-49 -19t-34 -39.5h-62q11 36 34 57.5t51.5 34t57.5 17.5t53 5q110 0 159 -67t49 -181v-286h-52l-2 76
q-21 -28 -51 -47t-66 -27.5t-76 -8.5zM239 42q50 0 93 16.5t70 50.5t27 86v55h-142q-31 0 -62 -2.5t-58 -11.5t-43 -29.5t-16 -56.5q0 -37 19 -61t49 -35.5t63 -11.5zM480 -209q-51 1 -84 26.5t-33 75.5q0 39 25.5 70.5t58.5 47.5l36 -9q-27 -17 -48 -43t-21 -57
q0 -34 19.5 -50.5t52.5 -16.5q10 0 22 2t21 6l10 -39q-14 -7 -28.5 -10t-30.5 -3z" />
    <glyph glyph-name="aring" unicode="&#xe5;" horiz-adv-x="553" 
d="M238 -7q-31 0 -64 8t-61 25.5t-44.5 46.5t-16.5 72q0 44 16 73.5t43.5 46.5t63.5 24.5t74 7.5h180q0 53 -14.5 95.5t-47.5 67t-88 24.5q-26 0 -53 -5.5t-49 -19t-34 -39.5h-62q11 36 34 57.5t51.5 34t57.5 17.5t53 5q110 0 159 -67t49 -181v-286h-52l-2 76
q-21 -28 -51 -47t-66 -27.5t-76 -8.5zM239 42q50 0 93 16.5t70 50.5t27 86v55h-142q-31 0 -62 -2.5t-58 -11.5t-43 -29.5t-16 -56.5q0 -37 19 -61t49 -35.5t63 -11.5zM285 603q-41 0 -65 23t-24 62q0 40 24.5 65.5t64.5 25.5q41 0 65.5 -26t24.5 -65q0 -40 -25.5 -62.5
t-64.5 -22.5zM284 638q24 0 37.5 14t13.5 37q0 24 -13 39t-37 15t-37 -15t-13 -39q0 -23 13 -37t36 -14z" />
    <glyph glyph-name="atilde" unicode="&#xe3;" horiz-adv-x="553" 
d="M238 -7q-31 0 -64 8t-61 25.5t-44.5 46.5t-16.5 72q0 44 16 73.5t43.5 46.5t63.5 24.5t74 7.5h180q0 53 -14.5 95.5t-47.5 67t-88 24.5q-26 0 -53 -5.5t-49 -19t-34 -39.5h-62q11 36 34 57.5t51.5 34t57.5 17.5t53 5q110 0 159 -67t49 -181v-286h-52l-2 76
q-21 -28 -51 -47t-66 -27.5t-76 -8.5zM239 42q50 0 93 16.5t70 50.5t27 86v55h-142q-31 0 -62 -2.5t-58 -11.5t-43 -29.5t-16 -56.5q0 -37 19 -61t49 -35.5t63 -11.5zM348 621q-24 0 -41.5 11.5t-32 26t-28 26t-28.5 11.5q-18 0 -27 -12t-11 -28t-1 -30h-48q0 30 8 55
t27.5 40.5t53.5 15.5q24 0 41.5 -11.5t32 -26t28 -26t28.5 -11.5q19 0 27.5 11.5t10.5 28t2 31.5h48q-1 -30 -9 -56t-27 -41t-54 -15z" />
    <glyph glyph-name="ae" unicode="&#xe6;" horiz-adv-x="952" 
d="M245 -7q-47 0 -91.5 16t-73 49.5t-28.5 86.5q0 44 16 73t44 45.5t63.5 23t73.5 6.5h180q0 53 -15 96.5t-48 69t-89 25.5q-39 0 -77 -13t-57 -51h-61q13 42 44 67t71 36t80 11q64 0 114 -30t73 -91q30 58 84 89.5t124 31.5q74 0 123.5 -35t75.5 -92.5t29 -126.5v-17.5
v-17.5h-417q1 -57 22 -103.5t64.5 -73t107.5 -26.5q29 0 58 7.5t53.5 24t37.5 44.5h61q-16 -44 -50 -71.5t-77 -40.5t-87 -13q-66 0 -123 27t-90 89q-23 -45 -56 -70.5t-73 -35.5t-86 -10zM250 42q52 0 92.5 19t63.5 56.5t23 92.5v35h-163q-27 0 -54.5 -2.5t-51 -11.5
t-38 -28.5t-14.5 -53.5q0 -38 21.5 -61.5t54 -34.5t66.5 -11zM485 293h359q-2 53 -22.5 96.5t-58.5 69t-94 25.5t-96 -26t-62.5 -69t-25.5 -96z" />
    <glyph glyph-name="b" unicode="b" horiz-adv-x="607" 
d="M315 -7q-34 0 -69.5 8.5t-66.5 29.5t-53 60l-1 -91h-54v707h56v-277q34 56 87.5 80t112.5 24q80 0 130.5 -37.5t74.5 -99t24 -134.5q0 -77 -27 -138t-80.5 -96.5t-133.5 -35.5zM316 42q65 0 105.5 30.5t59.5 80.5t19 109q0 61 -18 111.5t-59 80.5t-109 30q-61 0 -103 -32
t-64 -83t-22 -107q0 -60 20.5 -110t63 -80t107.5 -30z" />
    <glyph glyph-name="c" unicode="c" horiz-adv-x="552" 
d="M297 -7q-82 0 -137 35t-82 95.5t-27 138.5q0 77 28 138.5t84.5 97.5t139.5 36q48 0 87.5 -15.5t68 -45.5t42.5 -76h-60q-16 46 -55 66.5t-87 20.5q-66 0 -108.5 -30t-63 -80.5t-20.5 -111.5q0 -59 20.5 -109t63.5 -80.5t109 -30.5q50 0 90.5 20t57.5 67h60
q-15 -46 -47 -76.5t-74 -45t-90 -14.5z" />
    <glyph glyph-name="cacute" unicode="&#x107;" horiz-adv-x="552" 
d="M297 -7q-82 0 -137 35t-82 95.5t-27 138.5q0 77 28 138.5t84.5 97.5t139.5 36q48 0 87.5 -15.5t68 -45.5t42.5 -76h-60q-16 46 -55 66.5t-87 20.5q-66 0 -108.5 -30t-63 -80.5t-20.5 -111.5q0 -59 20.5 -109t63.5 -80.5t109 -30.5q50 0 90.5 20t57.5 67h60
q-15 -46 -47 -76.5t-74 -45t-90 -14.5zM251 613l79 131h64l-92 -131h-51z" />
    <glyph glyph-name="ccaron" unicode="&#x10d;" horiz-adv-x="552" 
d="M297 -7q-82 0 -137 35t-82 95.5t-27 138.5q0 77 28 138.5t84.5 97.5t139.5 36q48 0 87.5 -15.5t68 -45.5t42.5 -76h-60q-16 46 -55 66.5t-87 20.5q-66 0 -108.5 -30t-63 -80.5t-20.5 -111.5q0 -59 20.5 -109t63.5 -80.5t109 -30.5q50 0 90.5 20t57.5 67h60
q-15 -46 -47 -76.5t-74 -45t-90 -14.5zM256 613l-119 139h57l83 -97l81 97h57l-118 -139h-41z" />
    <glyph glyph-name="ccedilla" unicode="&#xe7;" horiz-adv-x="552" 
d="M297 -7q-82 0 -137 35t-82 95.5t-27 138.5q0 77 28 138.5t84.5 97.5t139.5 36q48 0 87.5 -15.5t68 -45.5t42.5 -76h-60q-16 46 -55 66.5t-87 20.5q-66 0 -108.5 -30t-63 -80.5t-20.5 -111.5q0 -59 20.5 -109t63.5 -80.5t109 -30.5q50 0 90.5 20t57.5 67h60
q-15 -46 -47 -76.5t-74 -45t-90 -14.5zM259 -250q-10 -1 -19 -1h-19v37q15 -2 35 -0.5t38 8t30 20t12 36.5q0 17 -8.5 27t-22 14.5t-27.5 4.5q-11 0 -27 -3t-28 -6l37 127h38l-25 -87q9 2 16 2.5t15 0.5q34 0 54.5 -20.5t20.5 -58.5q0 -35 -17 -57t-44.5 -32t-58.5 -12z" />
    <glyph glyph-name="ccircumflex" unicode="&#x109;" horiz-adv-x="552" 
d="M297 -7q-82 0 -137 35t-82 95.5t-27 138.5q0 77 28 138.5t84.5 97.5t139.5 36q48 0 87.5 -15.5t68 -45.5t42.5 -76h-60q-16 46 -55 66.5t-87 20.5q-66 0 -108.5 -30t-63 -80.5t-20.5 -111.5q0 -59 20.5 -109t63.5 -80.5t109 -30.5q50 0 90.5 20t57.5 67h60
q-15 -46 -47 -76.5t-74 -45t-90 -14.5zM137 613l118 139h42l118 -139h-57l-83 97l-80 -97h-58z" />
    <glyph glyph-name="cdotaccent" unicode="&#x10b;" horiz-adv-x="552" 
d="M297 -7q-82 0 -137 35t-82 95.5t-27 138.5q0 77 28 138.5t84.5 97.5t139.5 36q48 0 87.5 -15.5t68 -45.5t42.5 -76h-60q-16 46 -55 66.5t-87 20.5q-66 0 -108.5 -30t-63 -80.5t-20.5 -111.5q0 -59 20.5 -109t63.5 -80.5t109 -30.5q50 0 90.5 20t57.5 67h60
q-15 -46 -47 -76.5t-74 -45t-90 -14.5zM275 619q-20 0 -32.5 12t-12.5 34q0 21 13 32.5t33 11.5q19 0 32 -12t13 -32q0 -21 -13.5 -33.5t-32.5 -12.5z" />
    <glyph glyph-name="d" unicode="d" horiz-adv-x="607" 
d="M282 -7q-82 0 -133 37t-74.5 98t-23.5 134q0 80 27.5 141t81 96t131.5 35q33 0 68.5 -9.5t67.5 -30.5t53 -56v269h56v-707h-55l-1 102q-22 -40 -54.5 -64t-70 -34.5t-73.5 -10.5zM289 42q61 0 104 31t66 82t23 111q0 61 -21.5 110.5t-63.5 78.5t-105 29q-65 0 -106 -30.5
t-60 -80.5t-19 -109q0 -42 8.5 -81.5t29 -71t55.5 -50.5t89 -19z" />
    <glyph glyph-name="dcaron" unicode="&#x10f;" horiz-adv-x="607" 
d="M282 -7q-82 0 -133 37t-74.5 98t-23.5 134q0 80 27.5 141t81 96t131.5 35q33 0 68.5 -9.5t67.5 -30.5t53 -56v269h56v-707h-55l-1 102q-22 -40 -54.5 -64t-70 -34.5t-73.5 -10.5zM289 42q61 0 104 31t66 82t23 111q0 61 -21.5 110.5t-63.5 78.5t-105 29q-65 0 -106 -30.5
t-60 -80.5t-19 -109q0 -42 8.5 -81.5t29 -71t55.5 -50.5t89 -19zM587 516l-18 25q13 8 24.5 20t21 28t11.5 35q-17 -2 -35 8.5t-18 36.5q0 21 13 33.5t35 12.5q25 0 37.5 -18t12.5 -45q0 -29 -11 -55.5t-29.5 -47.5t-43.5 -33z" />
    <glyph glyph-name="dcroat" unicode="&#x111;" horiz-adv-x="607" 
d="M282 -7q-82 0 -133.5 37t-74.5 98t-23 134q0 80 27.5 141t81 96t131.5 35q33 0 68.5 -9.5t67.5 -30.5t53 -56v131h-121v48h121v90h56v-90h86v-48h-86v-569h-55l-1 102q-22 -40 -54.5 -64t-70 -34.5t-73.5 -10.5zM289 42q62 0 105 31.5t65.5 82.5t22.5 110
q0 61 -21.5 110.5t-63.5 78.5t-105 29q-65 0 -106 -30.5t-60 -80.5t-19 -109q0 -42 8.5 -81.5t29 -71t55.5 -50.5t89 -19z" />
    <glyph glyph-name="eth" unicode="&#xf0;" horiz-adv-x="556" 
d="M278 -7q-72 0 -122.5 31t-77.5 85.5t-27 124.5q0 65 25.5 118t74.5 84t115 31q62 0 110.5 -27.5t74.5 -82.5q-3 49 -18.5 96t-41.5 87t-64 67l-110 -75l-25 38l98 63q-34 22 -72 34t-80 18l6 43q50 -7 98.5 -23.5t88.5 -43.5l113 75l25 -37l-100 -63q50 -46 79.5 -98
t42.5 -114.5t13 -138.5q0 -60 -12.5 -113.5t-39.5 -93.5t-70 -62.5t-104 -22.5zM277 42q51 0 88 25t57.5 66.5t20.5 91.5q0 52 -20 96t-58.5 70.5t-95.5 26.5q-50 0 -86.5 -26.5t-56 -68.5t-19.5 -90q0 -49 19.5 -93t57.5 -71t93 -27z" />
    <glyph glyph-name="e" unicode="e" horiz-adv-x="576" 
d="M298 -7q-84 0 -139 35t-81.5 96t-26.5 139q0 76 28 137.5t83 97.5t135 36q58 0 100 -21.5t70 -57.5t42 -82t15 -96q1 -7 0.5 -15t-0.5 -17h-416q3 -58 24 -104t62.5 -72.5t107.5 -26.5q28 0 57.5 7.5t54 24t37.5 44.5h60q-15 -44 -49 -71.5t-77 -40.5t-87 -13zM109 293
h359q-2 53 -22 96.5t-58.5 69t-94.5 25.5q-57 0 -97 -27t-62 -70t-25 -94z" />
    <glyph glyph-name="eacute" unicode="&#xe9;" horiz-adv-x="576" 
d="M298 -7q-84 0 -139 35t-81.5 96t-26.5 139q0 76 28 137.5t83 97.5t135 36q58 0 100 -21.5t70 -57.5t42 -82t15 -96q1 -7 0.5 -15t-0.5 -17h-416q3 -58 24 -104t62.5 -72.5t107.5 -26.5q28 0 57.5 7.5t54 24t37.5 44.5h60q-15 -44 -49 -71.5t-77 -40.5t-87 -13zM109 293
h359q-2 53 -22 96.5t-58.5 69t-94.5 25.5q-57 0 -97 -27t-62 -70t-25 -94zM270 613l79 131h64l-92 -131h-51z" />
    <glyph glyph-name="ebreve" unicode="&#x115;" horiz-adv-x="576" 
d="M298 -7q-84 0 -139 35t-81.5 96t-26.5 139q0 76 28 137.5t83 97.5t135 36q58 0 100 -21.5t70 -57.5t42 -82t15 -96q1 -7 0.5 -15t-0.5 -17h-416q3 -58 24 -104t62.5 -72.5t107.5 -26.5q28 0 57.5 7.5t54 24t37.5 44.5h60q-15 -44 -49 -71.5t-77 -40.5t-87 -13zM109 293
h359q-2 53 -22 96.5t-58.5 69t-94.5 25.5q-57 0 -97 -27t-62 -70t-25 -94zM294 611q-63 0 -105.5 25t-48.5 86h52q6 -39 34 -53t69 -14q40 0 68.5 14t34.5 53h52q-4 -40 -25.5 -64.5t-55 -35.5t-75.5 -11z" />
    <glyph glyph-name="ecaron" unicode="&#x11b;" horiz-adv-x="576" 
d="M298 -7q-84 0 -139 35t-81.5 96t-26.5 139q0 76 28 137.5t83 97.5t135 36q58 0 100 -21.5t70 -57.5t42 -82t15 -96q1 -7 0.5 -15t-0.5 -17h-416q3 -58 24 -104t62.5 -72.5t107.5 -26.5q28 0 57.5 7.5t54 24t37.5 44.5h60q-15 -44 -49 -71.5t-77 -40.5t-87 -13zM109 293
h359q-2 53 -22 96.5t-58.5 69t-94.5 25.5q-57 0 -97 -27t-62 -70t-25 -94zM275 613l-119 139h57l83 -97l81 97h57l-118 -139h-41z" />
    <glyph glyph-name="ecircumflex" unicode="&#xea;" horiz-adv-x="576" 
d="M298 -7q-84 0 -139 35t-81.5 96t-26.5 139q0 76 28 137.5t83 97.5t135 36q58 0 100 -21.5t70 -57.5t42 -82t15 -96q1 -7 0.5 -15t-0.5 -17h-416q3 -58 24 -104t62.5 -72.5t107.5 -26.5q28 0 57.5 7.5t54 24t37.5 44.5h60q-15 -44 -49 -71.5t-77 -40.5t-87 -13zM109 293
h359q-2 53 -22 96.5t-58.5 69t-94.5 25.5q-57 0 -97 -27t-62 -70t-25 -94zM156 613l118 139h42l118 -139h-57l-83 97l-80 -97h-58z" />
    <glyph glyph-name="edieresis" unicode="&#xeb;" horiz-adv-x="576" 
d="M298 -7q-84 0 -139 35t-81.5 96t-26.5 139q0 76 28 137.5t83 97.5t135 36q58 0 100 -21.5t70 -57.5t42 -82t15 -96q1 -7 0.5 -15t-0.5 -17h-416q3 -58 24 -104t62.5 -72.5t107.5 -26.5q28 0 57.5 7.5t54 24t37.5 44.5h60q-15 -44 -49 -71.5t-77 -40.5t-87 -13zM109 293
h359q-2 53 -22 96.5t-58.5 69t-94.5 25.5q-57 0 -97 -27t-62 -70t-25 -94zM401 620q-20 0 -32 13t-12 32t12 31.5t32 12.5q21 0 34 -12t13 -32t-13 -32.5t-34 -12.5zM186 620q-20 0 -32.5 13t-12.5 32t12.5 31.5t32.5 12.5q21 0 33.5 -12t12.5 -32t-12.5 -32.5t-33.5 -12.5z
" />
    <glyph glyph-name="edotaccent" unicode="&#x117;" horiz-adv-x="576" 
d="M298 -7q-84 0 -139 35t-81.5 96t-26.5 139q0 76 28 137.5t83 97.5t135 36q58 0 100 -21.5t70 -57.5t42 -82t15 -96q1 -7 0.5 -15t-0.5 -17h-416q3 -58 24 -104t62.5 -72.5t107.5 -26.5q28 0 57.5 7.5t54 24t37.5 44.5h60q-15 -44 -49 -71.5t-77 -40.5t-87 -13zM109 293
h359q-2 53 -22 96.5t-58.5 69t-94.5 25.5q-57 0 -97 -27t-62 -70t-25 -94zM294 619q-20 0 -32.5 12t-12.5 34q0 21 13 32.5t33 11.5q19 0 32 -12t13 -32q0 -21 -13.5 -33.5t-32.5 -12.5z" />
    <glyph glyph-name="egrave" unicode="&#xe8;" horiz-adv-x="576" 
d="M298 -7q-84 0 -139 35t-81.5 96t-26.5 139q0 76 28 137.5t83 97.5t135 36q58 0 100 -21.5t70 -57.5t42 -82t15 -96q1 -7 0.5 -15t-0.5 -17h-416q3 -58 24 -104t62.5 -72.5t107.5 -26.5q28 0 57.5 7.5t54 24t37.5 44.5h60q-15 -44 -49 -71.5t-77 -40.5t-87 -13zM109 293
h359q-2 53 -22 96.5t-58.5 69t-94.5 25.5q-57 0 -97 -27t-62 -70t-25 -94zM275 613l-92 131h64l79 -131h-51z" />
    <glyph glyph-name="emacron" unicode="&#x113;" horiz-adv-x="576" 
d="M298 -7q-84 0 -139 35t-81.5 96t-26.5 139q0 76 28 137.5t83 97.5t135 36q58 0 100 -21.5t70 -57.5t42 -82t15 -96q1 -7 0.5 -15t-0.5 -17h-416q3 -58 24 -104t62.5 -72.5t107.5 -26.5q28 0 57.5 7.5t54 24t37.5 44.5h60q-15 -44 -49 -71.5t-77 -40.5t-87 -13zM109 293
h359q-2 53 -22 96.5t-58.5 69t-94.5 25.5q-57 0 -97 -27t-62 -70t-25 -94zM142 639v48h305v-48h-305z" />
    <glyph glyph-name="eogonek" unicode="&#x119;" horiz-adv-x="576" 
d="M298 -7q-84 0 -139 35t-81.5 96t-26.5 139q0 76 28 137.5t83 97.5t135 36q58 0 100 -21.5t70 -57.5t42 -82t15 -96q1 -7 0.5 -15t-0.5 -17h-416q3 -58 24 -104t62.5 -72.5t107.5 -26.5q28 0 57.5 7.5t54 24t37.5 44.5h60q-15 -44 -49 -71.5t-77 -40.5t-87 -13zM109 293
h359q-2 53 -22 96.5t-58.5 69t-94.5 25.5q-57 0 -97 -27t-62 -70t-25 -94zM347 -209q-51 1 -84 26.5t-33 75.5q0 39 25.5 70.5t58.5 47.5l36 -9q-27 -17 -48 -43t-21 -57q0 -34 19.5 -50.5t52.5 -16.5q10 0 22 2t21 6l10 -39q-14 -7 -28.5 -10t-30.5 -3z" />
    <glyph glyph-name="f" unicode="f" horiz-adv-x="361" 
d="M127 0v479h-91v48h91v63q0 59 13.5 98t48 58.5t98.5 19.5h48v-48h-41q-49 0 -73 -15.5t-31 -45t-7 -73.5v-57h152v-48h-152v-479h-56z" />
    <glyph glyph-name="g" unicode="g" horiz-adv-x="607" 
d="M301 -250q-51 0 -94.5 14t-74.5 44t-46 77h61q11 -32 37 -50.5t58 -27t63 -8.5q69 0 106.5 27t53 74t15.5 107v92q-20 -39 -51.5 -62t-68.5 -33.5t-75 -10.5q-84 0 -135.5 36.5t-75 98t-23.5 136.5q0 79 27 139.5t80.5 95.5t132.5 35q52 0 104.5 -22t86.5 -78l1 93h53
v-522q0 -80 -24 -137t-76 -87.5t-135 -30.5zM293 42q61 0 103 31t64 82t22 110q0 61 -21 110.5t-63 79t-106 29.5q-65 0 -106 -30.5t-60 -80.5t-19 -109q0 -61 18.5 -111.5t59.5 -80.5t108 -30z" />
    <glyph glyph-name="gbreve" unicode="&#x11f;" horiz-adv-x="607" 
d="M301 -250q-51 0 -94.5 14t-74.5 44t-46 77h61q11 -32 37 -50.5t58 -27t63 -8.5q69 0 106.5 27t53 74t15.5 107v92q-20 -39 -51.5 -62t-68.5 -33.5t-75 -10.5q-84 0 -135.5 36.5t-75 98t-23.5 136.5q0 79 27 139.5t80.5 95.5t132.5 35q52 0 104.5 -22t86.5 -78l1 93h53
v-522q0 -80 -24 -137t-76 -87.5t-135 -30.5zM293 42q61 0 103 31t64 82t22 110q0 61 -21 110.5t-63 79t-106 29.5q-65 0 -106 -30.5t-60 -80.5t-19 -109q0 -61 18.5 -111.5t59.5 -80.5t108 -30zM303 611q-63 0 -105.5 25t-48.5 86h52q6 -39 34 -53t69 -14q40 0 68.5 14
t34.5 53h52q-4 -40 -25.5 -64.5t-55 -35.5t-75.5 -11z" />
    <glyph glyph-name="gcircumflex" unicode="&#x11d;" horiz-adv-x="607" 
d="M301 -250q-51 0 -94.5 14t-74.5 44t-46 77h61q11 -32 37 -50.5t58 -27t63 -8.5q69 0 106.5 27t53 74t15.5 107v92q-20 -39 -51.5 -62t-68.5 -33.5t-75 -10.5q-84 0 -135.5 36.5t-75 98t-23.5 136.5q0 79 27 139.5t80.5 95.5t132.5 35q52 0 104.5 -22t86.5 -78l1 93h53
v-522q0 -80 -24 -137t-76 -87.5t-135 -30.5zM293 42q61 0 103 31t64 82t22 110q0 61 -21 110.5t-63 79t-106 29.5q-65 0 -106 -30.5t-60 -80.5t-19 -109q0 -61 18.5 -111.5t59.5 -80.5t108 -30zM165 613l118 139h42l118 -139h-57l-83 97l-80 -97h-58z" />
    <glyph glyph-name="uni0123" unicode="&#x123;" horiz-adv-x="607" 
d="M301 -250q-51 0 -94.5 14t-74.5 44t-46 77h61q11 -32 37 -50.5t58 -27t63 -8.5q69 0 106.5 27t53 74t15.5 107v92q-20 -39 -51.5 -62t-68.5 -33.5t-75 -10.5q-84 0 -135.5 36.5t-75 98t-23.5 136.5q0 79 27 139.5t80.5 95.5t132.5 35q52 0 104.5 -22t86.5 -78l1 93h53
v-522q0 -80 -24 -137t-76 -87.5t-135 -30.5zM293 42q61 0 103 31t64 82t22 110q0 61 -21 110.5t-63 79t-106 29.5q-65 0 -106 -30.5t-60 -80.5t-19 -109q0 -61 18.5 -111.5t59.5 -80.5t108 -30zM304 617q-25 0 -38 19t-13 45q0 28 10.5 54t29.5 47.5t44 33.5l18 -25
q-15 -8 -27 -21t-19.5 -29t-10.5 -33q22 2 37.5 -9.5t15.5 -35.5q0 -22 -13.5 -34t-33.5 -12z" />
    <glyph glyph-name="gdotaccent" unicode="&#x121;" horiz-adv-x="607" 
d="M301 -250q-51 0 -94.5 14t-74.5 44t-46 77h61q11 -32 37 -50.5t58 -27t63 -8.5q69 0 106.5 27t53 74t15.5 107v92q-20 -39 -51.5 -62t-68.5 -33.5t-75 -10.5q-84 0 -135.5 36.5t-75 98t-23.5 136.5q0 79 27 139.5t80.5 95.5t132.5 35q52 0 104.5 -22t86.5 -78l1 93h53
v-522q0 -80 -24 -137t-76 -87.5t-135 -30.5zM293 42q61 0 103 31t64 82t22 110q0 61 -21 110.5t-63 79t-106 29.5q-65 0 -106 -30.5t-60 -80.5t-19 -109q0 -61 18.5 -111.5t59.5 -80.5t108 -30zM303 619q-20 0 -32.5 12t-12.5 34q0 21 13 32.5t33 11.5q19 0 32 -12t13 -32
q0 -21 -13.5 -33.5t-32.5 -12.5z" />
    <glyph glyph-name="h" unicode="h" horiz-adv-x="590" 
d="M71 0v707h56v-276q23 36 52.5 58.5t65.5 33.5t75 11q76 0 120 -33t63 -87.5t19 -122.5v-291h-56v266q0 41 -5.5 80t-21 70t-46 50t-80.5 19q-48 0 -83 -19t-57.5 -50.5t-34 -72t-11.5 -82.5v-261h-56z" />
    <glyph glyph-name="hbar" unicode="&#x127;" horiz-adv-x="590" 
d="M71 0v576h-71v48h71v83h56v-83h124v-48h-124v-145q32 52 81.5 77.5t111.5 25.5q75 0 119.5 -32t63.5 -87t19 -124v-291h-56v266q0 40 -5.5 79t-21 70.5t-46 50.5t-80.5 19q-48 0 -83 -19t-57.5 -50.5t-34 -71.5t-11.5 -82v-262h-56z" />
    <glyph glyph-name="hcircumflex" unicode="&#x125;" horiz-adv-x="590" 
d="M71 0v707h56v-276q23 36 52.5 58.5t65.5 33.5t75 11q76 0 120 -33t63 -87.5t19 -122.5v-291h-56v266q0 41 -5.5 80t-21 70t-46 50t-80.5 19q-48 0 -83 -19t-57.5 -50.5t-34 -72t-11.5 -82.5v-261h-56zM154 758l118 139h42l118 -139h-57l-83 97l-80 -97h-58z" />
    <glyph glyph-name="i" unicode="i" horiz-adv-x="198" 
d="M71 0v527h56v-527h-56zM98 619q-20 0 -32.5 12t-12.5 34q0 21 13 32.5t33 11.5q19 0 32 -12t13 -32q0 -21 -13.5 -33.5t-32.5 -12.5z" />
    <glyph glyph-name="dotlessi" unicode="&#x131;" horiz-adv-x="198" 
d="M71 0v527h56v-527h-56z" />
    <glyph glyph-name="iacute" unicode="&#xed;" horiz-adv-x="198" 
d="M71 0v527h56v-527h-56zM74 613l79 131h64l-92 -131h-51z" />
    <glyph glyph-name="ibreve" unicode="&#x12d;" horiz-adv-x="198" 
d="M71 0v527h56v-527h-56zM98 611q-63 0 -105.5 25t-48.5 86h52q6 -39 34 -53t69 -14q40 0 68.5 14t34.5 53h52q-4 -40 -25.5 -64.5t-55 -35.5t-75.5 -11z" />
    <glyph glyph-name="icircumflex" unicode="&#xee;" horiz-adv-x="198" 
d="M71 0v527h56v-527h-56zM-40 613l118 139h42l118 -139h-57l-83 97l-80 -97h-58z" />
    <glyph glyph-name="idieresis" unicode="&#xef;" horiz-adv-x="198" 
d="M71 0v527h56v-527h-56zM24 620q-20 0 -32 12.5t-12 31.5q0 18 12 30.5t32 12.5t32.5 -12t12.5 -31q0 -20 -12.5 -32t-32.5 -12zM172 620q-20 0 -32 12.5t-12 31.5q0 18 12 30.5t32 12.5t32.5 -12t12.5 -31q0 -20 -12.5 -32t-32.5 -12z" />
    <glyph glyph-name="i.loclTRK" horiz-adv-x="198" 
d="M71 0v527h56v-527h-56zM98 619q-20 0 -32.5 12t-12.5 34q0 21 13 32.5t33 11.5q19 0 32 -12t13 -32q0 -21 -13.5 -33.5t-32.5 -12.5z" />
    <glyph glyph-name="igrave" unicode="&#xec;" horiz-adv-x="198" 
d="M71 0v527h56v-527h-56zM79 613l-92 131h64l79 -131h-51z" />
    <glyph glyph-name="imacron" unicode="&#x12b;" horiz-adv-x="198" 
d="M71 0v527h56v-527h-56zM-54 639v48h305v-48h-305z" />
    <glyph glyph-name="iogonek" unicode="&#x12f;" horiz-adv-x="198" 
d="M71 0v527h56v-527h-56zM98 619q-20 0 -32.5 12t-12.5 34q0 21 13 32.5t33 11.5q19 0 32 -12t13 -32q0 -21 -13.5 -33.5t-32.5 -12.5zM122 -209q-51 1 -84 26.5t-33 75.5q0 39 25.5 70.5t58.5 47.5l36 -9q-27 -17 -48 -43t-21 -57q0 -34 19.5 -50.5t52.5 -16.5q10 0 22 2
t21 6l10 -39q-14 -7 -28.5 -10t-30.5 -3z" />
    <glyph glyph-name="itilde" unicode="&#x129;" horiz-adv-x="198" 
d="M71 0v527h56v-527h-56zM162 606q-24 0 -41.5 11.5t-32 26t-28 26t-28.5 11.5q-18 0 -27 -12t-11 -28t-1 -30h-48q0 30 8 55t27.5 40.5t53.5 15.5q24 0 41.5 -11.5t32 -26t28 -26t28.5 -11.5q19 0 27.5 11.5t10.5 28t2 31.5h48q-1 -30 -9 -56t-27 -41t-54 -15z" />
    <glyph glyph-name="ij" unicode="&#x133;" horiz-adv-x="429" 
d="M160 -191v48h24q48 0 70.5 17.5t29.5 48.5t7 71v533h56v-538q0 -57 -12.5 -97.5t-47 -61.5t-99.5 -21h-28zM80 0v527h56v-527h-56zM109 634q-20 0 -33 12.5t-13 32.5q0 15 6 24.5t16.5 15t23.5 5.5q20 0 33 -12.5t13 -32.5t-13 -32.5t-33 -12.5zM320 634
q-20 0 -32.5 12.5t-12.5 32.5q0 15 5.5 24.5t16.5 15t23 5.5q21 0 33.5 -12.5t12.5 -32.5t-13 -32.5t-33 -12.5z" />
    <glyph glyph-name="j" unicode="j" horiz-adv-x="245" 
d="M-22 -191v48h24q48 0 70.5 17.5t29.5 48.5t7 71v533h56v-538q0 -57 -12.5 -97.5t-47 -61.5t-99.5 -21h-28zM136 619q-20 0 -32.5 12t-12.5 34q0 21 13 32.5t33 11.5q19 0 32 -12t13 -32q0 -21 -13.5 -33.5t-32.5 -12.5z" />
    <glyph glyph-name="uni0237" unicode="&#x237;" horiz-adv-x="245" 
d="M-22 -191v48h24q48 0 70.5 17.5t29.5 48.5t7 71v533h56v-538q0 -57 -12.5 -97.5t-47 -61.5t-99.5 -21h-28z" />
    <glyph glyph-name="jcircumflex" unicode="&#x135;" horiz-adv-x="245" 
d="M-22 -191v48h24q48 0 70.5 17.5t29.5 48.5t7 71v533h56v-538q0 -57 -12.5 -97.5t-47 -61.5t-99.5 -21h-28zM-2 613l118 139h42l118 -139h-57l-83 97l-80 -97h-58z" />
    <glyph glyph-name="k" unicode="k" horiz-adv-x="506" 
d="M71 0v707h56v-420h122l166 240h63l-176 -253l193 -274h-65l-172 239h-131v-239h-56z" />
    <glyph glyph-name="uni0137" unicode="&#x137;" horiz-adv-x="506" 
d="M71 0v707h56v-420h122l166 240h63l-176 -253l193 -274h-65l-172 239h-131v-239h-56zM220 -301l-18 24q13 8 24.5 20.5t20.5 28.5t12 34q-17 -2 -35 8.5t-18 36.5q0 21 13.5 33.5t33.5 12.5q26 0 38.5 -18.5t12.5 -42.5q0 -30 -11 -57t-30 -47.5t-43 -32.5z" />
    <glyph glyph-name="kgreenlandic" unicode="&#x138;" horiz-adv-x="506" 
d="M71 0v527h56v-240h122l165 240h64l-176 -253l193 -274h-66l-171 239h-131v-239h-56z" />
    <glyph glyph-name="l" unicode="l" horiz-adv-x="201" 
d="M72 0v707h57v-707h-57z" />
    <glyph glyph-name="lacute" unicode="&#x13a;" horiz-adv-x="201" 
d="M72 0v707h57v-707h-57zM76 793l79 131h64l-92 -131h-51z" />
    <glyph glyph-name="lcaron" unicode="&#x13e;" horiz-adv-x="188" 
d="M72 0v707h57v-707h-57zM186 515l-18 25q13 8 24.5 20t21 28t11.5 35q-17 -2 -35 8.5t-18 36.5q0 21 13 33.5t35 12.5q25 0 37.5 -18t12.5 -45q0 -29 -11 -55.5t-29.5 -47.5t-43.5 -33z" />
    <glyph glyph-name="uni013C" unicode="&#x13c;" horiz-adv-x="201" 
d="M72 0v707h57v-707h-57zM68 -301l-18 24q13 8 24.5 20.5t20.5 28.5t12 34q-17 -2 -35 8.5t-18 36.5q0 21 13.5 33.5t33.5 12.5q26 0 38.5 -18.5t12.5 -42.5q0 -30 -11 -57t-30 -47.5t-43 -32.5z" />
    <glyph glyph-name="ldot" unicode="&#x140;" horiz-adv-x="237" 
d="M72 0v707h57v-707h-57zM218 310q-20 0 -32.5 12t-12.5 33q0 19 12 31.5t33 12.5t33.5 -12.5t12.5 -31.5q0 -21 -12.5 -33t-33.5 -12z" />
    <glyph glyph-name="lslash" unicode="&#x142;" horiz-adv-x="281" 
d="M106 0v303l-82 -54l-28 42l110 72v344h57v-306l90 59l28 -41l-118 -78v-341h-57z" />
    <glyph glyph-name="m" unicode="m" horiz-adv-x="832" 
d="M71 0v527h53l2 -87q19 39 45.5 59t56 27.5t55.5 7.5q58 0 96.5 -30.5t53.5 -86.5q10 29 31.5 55.5t55 44t79.5 17.5q59 0 95.5 -24t53.5 -66t17 -96v-348h-56v315q0 32 -3.5 62t-15.5 54.5t-35.5 39t-63.5 14.5q-39 0 -66 -18t-43.5 -47.5t-24 -64t-7.5 -69.5v-286h-56
v300q0 31 -4 63t-16 59.5t-36 45t-64 17.5q-54 0 -86.5 -30.5t-46.5 -77t-14 -98.5v-279h-56z" />
    <glyph glyph-name="n" unicode="n" horiz-adv-x="590" 
d="M71 0v527h55l2 -96q22 36 52 58.5t65.5 33.5t73.5 11q77 0 121 -33t63 -87.5t19 -121.5v-292h-56v267q0 42 -5.5 80.5t-21.5 69.5t-46 49.5t-78 18.5q-62 0 -103.5 -31t-63 -82.5t-21.5 -112.5v-259h-56z" />
    <glyph glyph-name="nacute" unicode="&#x144;" horiz-adv-x="590" 
d="M71 0v527h55l2 -96q22 36 52 58.5t65.5 33.5t73.5 11q77 0 121 -33t63 -87.5t19 -121.5v-292h-56v267q0 42 -5.5 80.5t-21.5 69.5t-46 49.5t-78 18.5q-62 0 -103.5 -31t-63 -82.5t-21.5 -112.5v-259h-56zM270 613l79 131h64l-92 -131h-51z" />
    <glyph glyph-name="napostrophe" unicode="&#x149;" horiz-adv-x="623" 
d="M0 515l-18 25q12 8 24 20t21 28t12 35q-18 -2 -36 8.5t-18 36.5q0 21 13.5 33.5t34.5 12.5q25 0 38 -17.5t13 -45.5q0 -29 -11 -55.5t-30 -47.5t-43 -33zM104 0v527h55l2 -96q22 36 52 58.5t65.5 33.5t73.5 11q77 0 121 -33t63 -87.5t19 -121.5v-292h-56v267
q0 42 -5.5 80.5t-21.5 69.5t-46 49.5t-78 18.5q-62 0 -103.5 -31t-63 -82.5t-21.5 -112.5v-259h-56z" />
    <glyph glyph-name="ncaron" unicode="&#x148;" horiz-adv-x="590" 
d="M71 0v527h55l2 -96q22 36 52 58.5t65.5 33.5t73.5 11q77 0 121 -33t63 -87.5t19 -121.5v-292h-56v267q0 42 -5.5 80.5t-21.5 69.5t-46 49.5t-78 18.5q-62 0 -103.5 -31t-63 -82.5t-21.5 -112.5v-259h-56zM275 613l-119 139h57l83 -97l81 97h57l-118 -139h-41z" />
    <glyph glyph-name="uni0146" unicode="&#x146;" horiz-adv-x="590" 
d="M71 0v527h55l2 -96q22 36 52 58.5t65.5 33.5t73.5 11q77 0 121 -33t63 -87.5t19 -121.5v-292h-56v267q0 42 -5.5 80.5t-21.5 69.5t-46 49.5t-78 18.5q-62 0 -103.5 -31t-63 -82.5t-21.5 -112.5v-259h-56zM262 -301l-18 24q13 8 24.5 20.5t20.5 28.5t12 34q-17 -2 -35 8.5
t-18 36.5q0 21 13.5 33.5t33.5 12.5q26 0 38.5 -18.5t12.5 -42.5q0 -30 -11 -57t-30 -47.5t-43 -32.5z" />
    <glyph glyph-name="ntilde" unicode="&#xf1;" horiz-adv-x="590" 
d="M71 0v527h55l2 -96q22 36 52 58.5t65.5 33.5t73.5 11q77 0 121 -33t63 -87.5t19 -121.5v-292h-56v267q0 42 -5.5 80.5t-21.5 69.5t-46 49.5t-78 18.5q-62 0 -103.5 -31t-63 -82.5t-21.5 -112.5v-259h-56zM358 606q-24 0 -41.5 11.5t-32 26t-28 26t-28.5 11.5
q-18 0 -27 -12t-11 -28t-1 -30h-48q0 30 8 55t27.5 40.5t53.5 15.5q24 0 41.5 -11.5t32 -26t28 -26t28.5 -11.5q19 0 27.5 11.5t10.5 28t2 31.5h48q-1 -30 -9 -56t-27 -41t-54 -15z" />
    <glyph glyph-name="eng" unicode="&#x14b;" horiz-adv-x="590" 
d="M325 -191v48h34q48 0 70.5 17t29.5 48.5t7 71.5v273q0 41 -5.5 80t-21.5 70t-46 49.5t-78 18.5q-62 0 -103.5 -31t-63 -82.5t-21.5 -112.5v-259h-56v527h55l2 -96q30 53 80.5 78t110.5 25q76 0 120 -32.5t63.5 -87.5t19.5 -123v-302q0 -59 -13.5 -99t-47.5 -60.5
t-98 -20.5h-38z" />
    <glyph glyph-name="o" unicode="o" horiz-adv-x="602" 
d="M300 -7q-82 0 -137.5 35t-83.5 96t-28 139q0 79 28 139.5t83.5 96t138.5 35.5q82 0 137.5 -35t84 -96t28.5 -140q0 -78 -28.5 -139t-84 -96t-138.5 -35zM300 42q68 0 110.5 29.5t63 79.5t20.5 112q0 61 -20.5 111.5t-63 80t-110.5 29.5q-67 0 -109.5 -29.5t-63 -80
t-20.5 -111.5q0 -62 20.5 -112t63 -79.5t109.5 -29.5z" />
    <glyph glyph-name="oacute" unicode="&#xf3;" horiz-adv-x="602" 
d="M300 -7q-82 0 -137.5 35t-83.5 96t-28 139q0 79 28 139.5t83.5 96t138.5 35.5q82 0 137.5 -35t84 -96t28.5 -140q0 -78 -28.5 -139t-84 -96t-138.5 -35zM300 42q68 0 110.5 29.5t63 79.5t20.5 112q0 61 -20.5 111.5t-63 80t-110.5 29.5q-67 0 -109.5 -29.5t-63 -80
t-20.5 -111.5q0 -62 20.5 -112t63 -79.5t109.5 -29.5zM276 613l79 131h64l-92 -131h-51z" />
    <glyph glyph-name="obreve" unicode="&#x14f;" horiz-adv-x="602" 
d="M300 -7q-82 0 -137.5 35t-83.5 96t-28 139q0 79 28 139.5t83.5 96t138.5 35.5q82 0 137.5 -35t84 -96t28.5 -140q0 -78 -28.5 -139t-84 -96t-138.5 -35zM300 42q68 0 110.5 29.5t63 79.5t20.5 112q0 61 -20.5 111.5t-63 80t-110.5 29.5q-67 0 -109.5 -29.5t-63 -80
t-20.5 -111.5q0 -62 20.5 -112t63 -79.5t109.5 -29.5zM300 611q-63 0 -105.5 25t-48.5 86h52q6 -39 34 -53t69 -14q40 0 68.5 14t34.5 53h52q-4 -40 -25.5 -64.5t-55 -35.5t-75.5 -11z" />
    <glyph glyph-name="ocircumflex" unicode="&#xf4;" horiz-adv-x="602" 
d="M300 -7q-82 0 -137.5 35t-83.5 96t-28 139q0 79 28 139.5t83.5 96t138.5 35.5q82 0 137.5 -35t84 -96t28.5 -140q0 -78 -28.5 -139t-84 -96t-138.5 -35zM300 42q68 0 110.5 29.5t63 79.5t20.5 112q0 61 -20.5 111.5t-63 80t-110.5 29.5q-67 0 -109.5 -29.5t-63 -80
t-20.5 -111.5q0 -62 20.5 -112t63 -79.5t109.5 -29.5zM162 613l118 139h42l118 -139h-57l-83 97l-80 -97h-58z" />
    <glyph glyph-name="odieresis" unicode="&#xf6;" horiz-adv-x="602" 
d="M300 -7q-82 0 -137.5 35t-83.5 96t-28 139q0 79 28 139.5t83.5 96t138.5 35.5q82 0 137.5 -35t84 -96t28.5 -140q0 -78 -28.5 -139t-84 -96t-138.5 -35zM300 42q68 0 110.5 29.5t63 79.5t20.5 112q0 61 -20.5 111.5t-63 80t-110.5 29.5q-67 0 -109.5 -29.5t-63 -80
t-20.5 -111.5q0 -62 20.5 -112t63 -79.5t109.5 -29.5zM408 620q-20 0 -32 13t-12 32t12 31.5t32 12.5q21 0 34 -12t13 -32t-13 -32.5t-34 -12.5zM193 620q-20 0 -32.5 13t-12.5 32t12.5 31.5t32.5 12.5q21 0 33.5 -12t12.5 -32t-12.5 -32.5t-33.5 -12.5z" />
    <glyph glyph-name="ograve" unicode="&#xf2;" horiz-adv-x="602" 
d="M300 -7q-82 0 -137.5 35t-83.5 96t-28 139q0 79 28 139.5t83.5 96t138.5 35.5q82 0 137.5 -35t84 -96t28.5 -140q0 -78 -28.5 -139t-84 -96t-138.5 -35zM300 42q68 0 110.5 29.5t63 79.5t20.5 112q0 61 -20.5 111.5t-63 80t-110.5 29.5q-67 0 -109.5 -29.5t-63 -80
t-20.5 -111.5q0 -62 20.5 -112t63 -79.5t109.5 -29.5zM281 613l-92 131h64l79 -131h-51z" />
    <glyph glyph-name="ohungarumlaut" unicode="&#x151;" horiz-adv-x="602" 
d="M300 -7q-82 0 -137.5 35t-83.5 96t-28 139q0 79 28 139.5t83.5 96t138.5 35.5q82 0 137.5 -35t84 -96t28.5 -140q0 -78 -28.5 -139t-84 -96t-138.5 -35zM300 42q68 0 110.5 29.5t63 79.5t20.5 112q0 61 -20.5 111.5t-63 80t-110.5 29.5q-67 0 -109.5 -29.5t-63 -80
t-20.5 -111.5q0 -62 20.5 -112t63 -79.5t109.5 -29.5zM326 613l79 131h64l-92 -131h-51zM193 613l79 131h64l-92 -131h-51z" />
    <glyph glyph-name="omacron" unicode="&#x14d;" horiz-adv-x="602" 
d="M300 -7q-82 0 -137.5 35t-83.5 96t-28 139q0 79 28 139.5t83.5 96t138.5 35.5q82 0 137.5 -35t84 -96t28.5 -140q0 -78 -28.5 -139t-84 -96t-138.5 -35zM300 42q68 0 110.5 29.5t63 79.5t20.5 112q0 61 -20.5 111.5t-63 80t-110.5 29.5q-67 0 -109.5 -29.5t-63 -80
t-20.5 -111.5q0 -62 20.5 -112t63 -79.5t109.5 -29.5zM148 639v48h305v-48h-305z" />
    <glyph glyph-name="oslash" unicode="&#xf8;" horiz-adv-x="602" 
d="M105 -104l59 132q-61 35 -87 98.5t-26 136.5q0 79 27.5 140t83 96t139.5 35q24 0 45 -3t40 -9l49 108h62l-60 -132q42 -24 66.5 -61.5t36 -82t11.5 -91.5q0 -77 -28 -138t-83.5 -96.5t-139.5 -35.5q-23 0 -44 3t-41 9l-48 -109h-62zM187 76l178 399q-29 9 -65 9
q-65 0 -108 -29t-64 -79t-21 -113q0 -54 17.5 -105.5t62.5 -81.5zM300 42q67 0 110 29.5t63.5 80t20.5 111.5q0 55 -18 105t-62 81l-178 -398q14 -4 30 -6.5t34 -2.5z" />
    <glyph glyph-name="otilde" unicode="&#xf5;" horiz-adv-x="602" 
d="M300 -7q-82 0 -137.5 35t-83.5 96t-28 139q0 79 28 139.5t83.5 96t138.5 35.5q82 0 137.5 -35t84 -96t28.5 -140q0 -78 -28.5 -139t-84 -96t-138.5 -35zM300 42q68 0 110.5 29.5t63 79.5t20.5 112q0 61 -20.5 111.5t-63 80t-110.5 29.5q-67 0 -109.5 -29.5t-63 -80
t-20.5 -111.5q0 -62 20.5 -112t63 -79.5t109.5 -29.5zM364 606q-24 0 -41.5 11.5t-32 26t-28 26t-28.5 11.5q-18 0 -27 -12t-11 -28t-1 -30h-48q0 30 8 55t27.5 40.5t53.5 15.5q24 0 41.5 -11.5t32 -26t28 -26t28.5 -11.5q19 0 27.5 11.5t10.5 28t2 31.5h48q-1 -30 -9 -56
t-27 -41t-54 -15z" />
    <glyph glyph-name="oe" unicode="&#x153;" horiz-adv-x="1015" 
d="M300 -7q-82 0 -137.5 35t-83.5 96t-28 139q0 79 27.5 140t83.5 96t139 35q73 0 130.5 -31.5t89.5 -97.5q32 64 87.5 96.5t126.5 32.5q76 0 125 -35t74.5 -91.5t27.5 -122.5q0 -9 0.5 -19t0.5 -21h-417q5 -89 51.5 -146t142.5 -57q43 0 86.5 17t62.5 59h61
q-16 -44 -50 -71.5t-77 -40.5t-87 -13q-50 0 -90.5 13t-71.5 41t-55 71q-33 -65 -89.5 -95t-129.5 -30zM300 42q67 0 110 29.5t63.5 79.5t20.5 112t-20.5 112t-63.5 79.5t-110 29.5q-65 0 -108 -29t-64 -79.5t-21 -112.5t20.5 -112t63 -79.5t109.5 -29.5zM548 293h359
q-2 53 -22.5 96.5t-58.5 69t-94 25.5t-96.5 -26.5t-62.5 -70t-25 -94.5z" />
    <glyph glyph-name="p" unicode="p" horiz-adv-x="607" 
d="M71 -201v728h55l1 -96q35 53 84.5 78t112.5 25q80 0 131.5 -37t76 -99t24.5 -138q0 -79 -26 -139t-78 -94t-131 -34q-35 0 -71 8.5t-67.5 29t-55.5 56.5v-288h-56zM320 42q66 0 105 30.5t57 80.5t18 109q0 61 -18 111.5t-59 80.5t-109 30q-61 0 -103 -31.5t-64 -82
t-22 -108.5q0 -62 22 -112t65.5 -79t107.5 -29z" />
    <glyph glyph-name="thorn" unicode="&#xfe;" horiz-adv-x="607" 
d="M71 -201v908h56v-276q35 52 84 77.5t113 25.5q80 0 131.5 -37.5t76 -100t24.5 -136.5q0 -75 -25 -135.5t-76.5 -96t-133.5 -35.5q-60 0 -110.5 21.5t-83.5 72.5v-288h-56zM320 42q66 0 105.5 31t57 81t17.5 108q0 61 -18.5 111.5t-59.5 80.5t-108 30q-62 0 -104 -32
t-63.5 -82.5t-21.5 -107.5q0 -61 21.5 -111t65 -79.5t108.5 -29.5z" />
    <glyph glyph-name="q" unicode="q" horiz-adv-x="607" 
d="M480 -201v299q-29 -52 -79 -78.5t-116 -26.5q-67 0 -112.5 23.5t-72 62.5t-38 87t-11.5 97q0 74 27 135.5t80.5 98.5t130.5 37q64 0 111.5 -25t78.5 -69l2 87h55v-728h-56zM294 42q62 0 103.5 31.5t63 82.5t21.5 109q0 61 -21 111t-62.5 79t-105.5 29q-65 0 -106 -30.5
t-60.5 -81t-19.5 -108.5q0 -61 19 -111.5t60 -80.5t108 -30z" />
    <glyph glyph-name="r" unicode="r" horiz-adv-x="362" 
d="M71 0v527h54l1 -106q22 44 54 68t70 33t76 9h7.5h7.5v-51h-15q-70 0 -114 -29.5t-64.5 -80.5t-20.5 -116v-254h-56z" />
    <glyph glyph-name="racute" unicode="&#x155;" horiz-adv-x="362" 
d="M71 0v527h54l1 -106q22 44 54 68t70 33t76 9h7.5h7.5v-51h-15q-70 0 -114 -29.5t-64.5 -80.5t-20.5 -116v-254h-56zM178 613l79 131h64l-92 -131h-51z" />
    <glyph glyph-name="rcaron" unicode="&#x159;" horiz-adv-x="362" 
d="M71 0v527h54l1 -106q22 44 54 68t70 33t76 9h7.5h7.5v-51h-15q-70 0 -114 -29.5t-64.5 -80.5t-20.5 -116v-254h-56zM183 613l-119 139h57l83 -97l81 97h57l-118 -139h-41z" />
    <glyph glyph-name="uni0157" unicode="&#x157;" horiz-adv-x="362" 
d="M71 0v527h54l1 -106q22 44 54 68t70 33t76 9h7.5h7.5v-51h-15q-70 0 -114 -29.5t-64.5 -80.5t-20.5 -116v-254h-56zM70 -301l-18 24q13 8 24.5 20.5t20.5 28.5t12 34q-17 -2 -35 8.5t-18 36.5q0 21 13.5 33.5t33.5 12.5q26 0 38.5 -18.5t12.5 -42.5q0 -30 -11 -57
t-30 -47.5t-43 -32.5z" />
    <glyph glyph-name="s" unicode="s" horiz-adv-x="506" 
d="M257 -7q-33 0 -67.5 7t-65 22t-52.5 39t-30 59h60q14 -29 40 -46.5t57 -24.5t60 -7q23 0 48.5 4t48.5 14t37 28.5t14 49.5q0 28 -14 45t-36 27t-46 15q-25 5 -53.5 10t-53.5 15q-24 7 -50 16.5t-48 25t-35.5 39t-13.5 58.5q0 41 16 68.5t44 44t63 24.5t73 8
q43 0 82.5 -13t68 -39.5t38.5 -67.5h-55q-14 35 -53 52.5t-82 17.5q-20 0 -44 -2.5t-45.5 -12t-36 -28.5t-14.5 -50q0 -30 15.5 -49t39.5 -30t51 -17q33 -7 69 -13.5t66 -14.5q34 -9 58.5 -25t38 -40.5t13.5 -59.5q0 -44 -18.5 -72.5t-48.5 -45.5t-66.5 -24t-72.5 -7z" />
    <glyph glyph-name="sacute" unicode="&#x15b;" horiz-adv-x="506" 
d="M257 -7q-33 0 -67.5 7t-65 22t-52.5 39t-30 59h60q14 -29 40 -46.5t57 -24.5t60 -7q23 0 48.5 4t48.5 14t37 28.5t14 49.5q0 28 -14 45t-36 27t-46 15q-25 5 -53.5 10t-53.5 15q-24 7 -50 16.5t-48 25t-35.5 39t-13.5 58.5q0 41 16 68.5t44 44t63 24.5t73 8
q43 0 82.5 -13t68 -39.5t38.5 -67.5h-55q-14 35 -53 52.5t-82 17.5q-20 0 -44 -2.5t-45.5 -12t-36 -28.5t-14.5 -50q0 -30 15.5 -49t39.5 -30t51 -17q33 -7 69 -13.5t66 -14.5q34 -9 58.5 -25t38 -40.5t13.5 -59.5q0 -44 -18.5 -72.5t-48.5 -45.5t-66.5 -24t-72.5 -7z
M228 613l79 131h64l-92 -131h-51z" />
    <glyph glyph-name="scaron" unicode="&#x161;" horiz-adv-x="506" 
d="M257 -7q-33 0 -67.5 7t-65 22t-52.5 39t-30 59h60q14 -29 40 -46.5t57 -24.5t60 -7q23 0 48.5 4t48.5 14t37 28.5t14 49.5q0 28 -14 45t-36 27t-46 15q-25 5 -53.5 10t-53.5 15q-24 7 -50 16.5t-48 25t-35.5 39t-13.5 58.5q0 41 16 68.5t44 44t63 24.5t73 8
q43 0 82.5 -13t68 -39.5t38.5 -67.5h-55q-14 35 -53 52.5t-82 17.5q-20 0 -44 -2.5t-45.5 -12t-36 -28.5t-14.5 -50q0 -30 15.5 -49t39.5 -30t51 -17q33 -7 69 -13.5t66 -14.5q34 -9 58.5 -25t38 -40.5t13.5 -59.5q0 -44 -18.5 -72.5t-48.5 -45.5t-66.5 -24t-72.5 -7z
M233 613l-119 139h57l83 -97l81 97h57l-118 -139h-41z" />
    <glyph glyph-name="scedilla" unicode="&#x15f;" horiz-adv-x="506" 
d="M257 -7q-33 0 -67.5 7t-65 22t-52.5 39t-30 59h60q14 -29 40 -46.5t57 -24.5t60 -7q23 0 48.5 4t48.5 14t37 28.5t14 49.5q0 28 -14 45t-36 27t-46 15q-25 5 -53.5 10t-53.5 15q-24 7 -50 16.5t-48 25t-35.5 39t-13.5 58.5q0 41 16 68.5t44 44t63 24.5t73 8
q43 0 82.5 -13t68 -39.5t38.5 -67.5h-55q-14 35 -53 52.5t-82 17.5q-20 0 -44 -2.5t-45.5 -12t-36 -28.5t-14.5 -50q0 -30 15.5 -49t39.5 -30t51 -17q33 -7 69 -13.5t66 -14.5q34 -9 58.5 -25t38 -40.5t13.5 -59.5q0 -44 -18.5 -72.5t-48.5 -45.5t-66.5 -24t-72.5 -7z
M236 -250q-10 -1 -19 -1h-19v37q15 -2 35 -0.5t38 8t30 20t12 36.5q0 17 -8.5 27t-22 14.5t-27.5 4.5q-11 0 -27 -3t-28 -6l37 127h38l-25 -87q9 2 16 2.5t15 0.5q34 0 54.5 -20.5t20.5 -58.5q0 -35 -17 -57t-44.5 -32t-58.5 -12z" />
    <glyph glyph-name="scircumflex" unicode="&#x15d;" horiz-adv-x="506" 
d="M257 -7q-33 0 -67.5 7t-65 22t-52.5 39t-30 59h60q14 -29 40 -46.5t57 -24.5t60 -7q23 0 48.5 4t48.5 14t37 28.5t14 49.5q0 28 -14 45t-36 27t-46 15q-25 5 -53.5 10t-53.5 15q-24 7 -50 16.5t-48 25t-35.5 39t-13.5 58.5q0 41 16 68.5t44 44t63 24.5t73 8
q43 0 82.5 -13t68 -39.5t38.5 -67.5h-55q-14 35 -53 52.5t-82 17.5q-20 0 -44 -2.5t-45.5 -12t-36 -28.5t-14.5 -50q0 -30 15.5 -49t39.5 -30t51 -17q33 -7 69 -13.5t66 -14.5q34 -9 58.5 -25t38 -40.5t13.5 -59.5q0 -44 -18.5 -72.5t-48.5 -45.5t-66.5 -24t-72.5 -7z
M114 613l118 139h42l118 -139h-57l-83 97l-80 -97h-58z" />
    <glyph glyph-name="uni0219" unicode="&#x219;" horiz-adv-x="506" 
d="M257 -7q-33 0 -67.5 7t-65 22t-52.5 39t-30 59h60q14 -29 40 -46.5t57 -24.5t60 -7q23 0 48.5 4t48.5 14t37 28.5t14 49.5q0 28 -14 45t-36 27t-46 15q-25 5 -53.5 10t-53.5 15q-24 7 -50 16.5t-48 25t-35.5 39t-13.5 58.5q0 41 16 68.5t44 44t63 24.5t73 8
q43 0 82.5 -13t68 -39.5t38.5 -67.5h-55q-14 35 -53 52.5t-82 17.5q-20 0 -44 -2.5t-45.5 -12t-36 -28.5t-14.5 -50q0 -30 15.5 -49t39.5 -30t51 -17q33 -7 69 -13.5t66 -14.5q34 -9 58.5 -25t38 -40.5t13.5 -59.5q0 -44 -18.5 -72.5t-48.5 -45.5t-66.5 -24t-72.5 -7z
M220 -301l-18 24q13 8 24.5 20.5t20.5 28.5t12 34q-17 -2 -35 8.5t-18 36.5q0 21 13.5 33.5t33.5 12.5q26 0 38.5 -18.5t12.5 -42.5q0 -30 -11 -57t-30 -47.5t-43 -32.5z" />
    <glyph glyph-name="germandbls" unicode="&#xdf;" horiz-adv-x="588" 
d="M379 -7q-42 0 -76.5 13.5t-57.5 41.5t-32 72h59q9 -39 39 -58.5t67 -19.5q46 0 78 21t32 71q0 38 -19 57t-49 31q-19 7 -38 12t-39 12q-41 14 -66.5 41t-25.5 76q0 30 18 59.5t39 56.5q22 26 39 53t17 58q0 28 -16.5 48.5t-42.5 32t-55 11.5q-39 0 -66 -17t-41 -46
t-14 -66v-553h-57v550q0 38 11 71t33 57.5t57 38.5t84 14q31 0 60.5 -9t53 -26.5t37.5 -43t14 -59.5q0 -25 -8.5 -48.5t-22 -43.5t-28.5 -39q-22 -25 -39.5 -51t-17.5 -49q0 -28 17 -44.5t48 -27.5q21 -7 41.5 -13.5t41.5 -14.5q40 -14 65.5 -41t25.5 -78q0 -52 -21 -85
t-58.5 -49t-86.5 -16z" />
    <glyph glyph-name="t" unicode="t" horiz-adv-x="363" 
d="M283 0q-56 0 -92 17.5t-53 55t-17 95.5v311h-91v48h91v158h56v-158h151v-48h-151v-305q0 -64 25.5 -94.5t91.5 -30.5h31v-49h-42z" />
    <glyph glyph-name="tbar" unicode="&#x167;" horiz-adv-x="363" 
d="M283 0q-56 0 -92 17.5t-53 55t-17 95.5v104h-91v48h91v159h-91v48h91v158h56v-158h151v-48h-151v-159h151v-48h-151v-98q0 -64 25.5 -94.5t91.5 -30.5h33v-49h-44z" />
    <glyph glyph-name="tcaron" unicode="&#x165;" horiz-adv-x="371" 
d="M283 0q-56 0 -92 17.5t-53 55t-17 95.5v311h-91v48h91v158h56v-158h151v-48h-151v-305q0 -64 25.5 -94.5t91.5 -30.5h31v-49h-42zM341 508l-18 25q13 8 24.5 20t21 28t11.5 35q-17 -2 -35 8.5t-18 36.5q0 21 13 33.5t35 12.5q25 0 37.5 -18t12.5 -45q0 -29 -11 -55.5
t-29.5 -47.5t-43.5 -33z" />
    <glyph glyph-name="uni0163" unicode="&#x163;" horiz-adv-x="363" 
d="M283 0q-56 0 -92 17.5t-53 55t-17 95.5v311h-91v48h91v158h56v-158h151v-48h-151v-305q0 -64 25.5 -94.5t91.5 -30.5h31v-49h-42zM196 -246q-10 -1 -19 -1h-19v37q15 -2 35 -0.5t38 8t30 20t12 36.5q0 17 -8.5 27t-22 14.5t-27.5 4.5q-11 0 -27 -3t-28 -6l37 127h38
l-25 -87q9 2 16 2.5t15 0.5q34 0 54.5 -20.5t20.5 -58.5q0 -35 -17 -57t-44.5 -32t-58.5 -12z" />
    <glyph glyph-name="uni021B" unicode="&#x21b;" horiz-adv-x="363" 
d="M283 0q-56 0 -92 17.5t-53 55t-17 95.5v311h-91v48h91v158h56v-158h151v-48h-151v-305q0 -64 25.5 -94.5t91.5 -30.5h31v-49h-42zM180 -298l-18 24q13 8 24.5 20.5t20.5 28.5t12 34q-17 -2 -35 8.5t-18 36.5q0 21 13.5 33.5t33.5 12.5q26 0 38.5 -18.5t12.5 -42.5
q0 -30 -11 -57t-30 -47.5t-43 -32.5z" />
    <glyph glyph-name="u" unicode="u" horiz-adv-x="571" 
d="M284 -7q-111 0 -163 60t-52 175v299h56v-298q0 -55 16 -97.5t51.5 -66t91.5 -23.5q60 0 95 23t51 65t16 99v298h56v-299q0 -114 -52.5 -174.5t-165.5 -60.5z" />
    <glyph glyph-name="uacute" unicode="&#xfa;" horiz-adv-x="571" 
d="M284 -7q-111 0 -163 60t-52 175v299h56v-298q0 -55 16 -97.5t51.5 -66t91.5 -23.5q60 0 95 23t51 65t16 99v298h56v-299q0 -114 -52.5 -174.5t-165.5 -60.5zM261 613l79 131h64l-92 -131h-51z" />
    <glyph glyph-name="ubreve" unicode="&#x16d;" horiz-adv-x="571" 
d="M284 -7q-111 0 -163 60t-52 175v299h56v-298q0 -55 16 -97.5t51.5 -66t91.5 -23.5q60 0 95 23t51 65t16 99v298h56v-299q0 -114 -52.5 -174.5t-165.5 -60.5zM285 611q-63 0 -105.5 25t-48.5 86h52q6 -39 34 -53t69 -14q40 0 68.5 14t34.5 53h52q-4 -40 -25.5 -64.5
t-55 -35.5t-75.5 -11z" />
    <glyph glyph-name="ucircumflex" unicode="&#xfb;" horiz-adv-x="571" 
d="M284 -7q-111 0 -163 60t-52 175v299h56v-298q0 -55 16 -97.5t51.5 -66t91.5 -23.5q60 0 95 23t51 65t16 99v298h56v-299q0 -114 -52.5 -174.5t-165.5 -60.5zM147 613l118 139h42l118 -139h-57l-83 97l-80 -97h-58z" />
    <glyph glyph-name="udieresis" unicode="&#xfc;" horiz-adv-x="571" 
d="M284 -7q-111 0 -163 60t-52 175v299h56v-298q0 -55 16 -97.5t51.5 -66t91.5 -23.5q60 0 95 23t51 65t16 99v298h56v-299q0 -114 -52.5 -174.5t-165.5 -60.5zM392 620q-20 0 -32 13t-12 32t12 31.5t32 12.5q21 0 34 -12t13 -32t-13 -32.5t-34 -12.5zM177 620
q-20 0 -32.5 13t-12.5 32t12.5 31.5t32.5 12.5q21 0 33.5 -12t12.5 -32t-12.5 -32.5t-33.5 -12.5z" />
    <glyph glyph-name="ugrave" unicode="&#xf9;" horiz-adv-x="571" 
d="M284 -7q-111 0 -163 60t-52 175v299h56v-298q0 -55 16 -97.5t51.5 -66t91.5 -23.5q60 0 95 23t51 65t16 99v298h56v-299q0 -114 -52.5 -174.5t-165.5 -60.5zM266 613l-92 131h64l79 -131h-51z" />
    <glyph glyph-name="uhungarumlaut" unicode="&#x171;" horiz-adv-x="571" 
d="M284 -7q-111 0 -163 60t-52 175v299h56v-298q0 -55 16 -97.5t51.5 -66t91.5 -23.5q60 0 95 23t51 65t16 99v298h56v-299q0 -114 -52.5 -174.5t-165.5 -60.5zM311 613l79 131h64l-92 -131h-51zM178 613l79 131h64l-92 -131h-51z" />
    <glyph glyph-name="umacron" unicode="&#x16b;" horiz-adv-x="571" 
d="M284 -7q-111 0 -163 60t-52 175v299h56v-298q0 -55 16 -97.5t51.5 -66t91.5 -23.5q60 0 95 23t51 65t16 99v298h56v-299q0 -114 -52.5 -174.5t-165.5 -60.5zM133 639v48h305v-48h-305z" />
    <glyph glyph-name="uogonek" unicode="&#x173;" horiz-adv-x="571" 
d="M284 -7q-111 0 -163 60t-52 175v299h56v-298q0 -55 16 -97.5t51.5 -66t91.5 -23.5q60 0 95 23t51 65t16 99v298h56v-299q0 -114 -52.5 -174.5t-165.5 -60.5zM336 -209q-51 1 -84 26.5t-33 75.5q0 39 25.5 70.5t58.5 47.5l36 -9q-27 -17 -48 -43t-21 -57q0 -34 19.5 -50.5
t52.5 -16.5q10 0 22 2t21 6l10 -39q-14 -7 -28.5 -10t-30.5 -3z" />
    <glyph glyph-name="uring" unicode="&#x16f;" horiz-adv-x="571" 
d="M284 -7q-111 0 -163 60t-52 175v299h56v-298q0 -55 16 -97.5t51.5 -66t91.5 -23.5q60 0 95 23t51 65t16 99v298h56v-299q0 -114 -52.5 -174.5t-165.5 -60.5zM286 588q-41 0 -65 23t-24 62q0 40 24.5 65.5t64.5 25.5q41 0 65.5 -26t24.5 -65q0 -40 -25.5 -62.5
t-64.5 -22.5zM285 623q24 0 37.5 14t13.5 37q0 24 -13 39t-37 15t-37 -15t-13 -39q0 -23 13 -37t36 -14z" />
    <glyph glyph-name="utilde" unicode="&#x169;" horiz-adv-x="571" 
d="M284 -7q-111 0 -163 60t-52 175v299h56v-298q0 -55 16 -97.5t51.5 -66t91.5 -23.5q60 0 95 23t51 65t16 99v298h56v-299q0 -114 -52.5 -174.5t-165.5 -60.5zM349 606q-24 0 -41.5 11.5t-32 26t-28 26t-28.5 11.5q-18 0 -27 -12t-11 -28t-1 -30h-48q0 30 8 55t27.5 40.5
t53.5 15.5q24 0 41.5 -11.5t32 -26t28 -26t28.5 -11.5q19 0 27.5 11.5t10.5 28t2 31.5h48q-1 -30 -9 -56t-27 -41t-54 -15z" />
    <glyph glyph-name="v" unicode="v" horiz-adv-x="517" 
d="M219 0l-208 527h64l184 -476l184 476h63l-209 -527h-78z" />
    <glyph glyph-name="w" unicode="w" horiz-adv-x="816" 
d="M177 0l-160 527h62l140 -476l147 476h84l147 -476l139 476h63l-162 -527h-81l-148 470l-148 -470h-83z" />
    <glyph glyph-name="wacute" unicode="&#x1e83;" horiz-adv-x="816" 
d="M177 0l-160 527h62l140 -476l147 476h84l147 -476l139 476h63l-162 -527h-81l-148 470l-148 -470h-83zM383 613l79 131h64l-92 -131h-51z" />
    <glyph glyph-name="wcircumflex" unicode="&#x175;" horiz-adv-x="816" 
d="M177 0l-160 527h62l140 -476l147 476h84l147 -476l139 476h63l-162 -527h-81l-148 470l-148 -470h-83zM269 613l118 139h42l118 -139h-57l-83 97l-80 -97h-58z" />
    <glyph glyph-name="wdieresis" unicode="&#x1e85;" horiz-adv-x="816" 
d="M177 0l-160 527h62l140 -476l147 476h84l147 -476l139 476h63l-162 -527h-81l-148 470l-148 -470h-83zM514 620q-20 0 -32 13t-12 32t12 31.5t32 12.5q21 0 34 -12t13 -32t-13 -32.5t-34 -12.5zM299 620q-20 0 -32.5 13t-12.5 32t12.5 31.5t32.5 12.5q21 0 33.5 -12
t12.5 -32t-12.5 -32.5t-33.5 -12.5z" />
    <glyph glyph-name="wgrave" unicode="&#x1e81;" horiz-adv-x="816" 
d="M177 0l-160 527h62l140 -476l147 476h84l147 -476l139 476h63l-162 -527h-81l-148 470l-148 -470h-83zM388 613l-92 131h64l79 -131h-51z" />
    <glyph glyph-name="x" unicode="x" horiz-adv-x="495" 
d="M18 0l191 268l-179 259h69l150 -221l147 221h68l-179 -258l192 -269h-69l-162 226l-161 -226h-67z" />
    <glyph glyph-name="y" unicode="y" horiz-adv-x="597" 
d="M296 -251q-56 0 -110.5 16t-97.5 51l25 46q40 -29 85.5 -45.5t94.5 -16.5q97 0 137 53t40 142v100q-22 -42 -55 -64.5t-69.5 -30.5t-71.5 -8q-79 0 -123.5 33.5t-63 89.5t-18.5 124v288h56v-262q0 -42 5.5 -82t21.5 -72t48 -50.5t84 -18.5q68 0 109 32t59 85t18 115v253
h56v-531q0 -59 -13.5 -104.5t-42.5 -77.5t-72 -48.5t-102 -16.5z" />
    <glyph glyph-name="yacute" unicode="&#xfd;" horiz-adv-x="597" 
d="M296 -251q-56 0 -110.5 16t-97.5 51l25 46q40 -29 85.5 -45.5t94.5 -16.5q97 0 137 53t40 142v100q-22 -42 -55 -64.5t-69.5 -30.5t-71.5 -8q-79 0 -123.5 33.5t-63 89.5t-18.5 124v288h56v-262q0 -42 5.5 -82t21.5 -72t48 -50.5t84 -18.5q68 0 109 32t59 85t18 115v253
h56v-531q0 -59 -13.5 -104.5t-42.5 -77.5t-72 -48.5t-102 -16.5zM274 613l79 131h64l-92 -131h-51z" />
    <glyph glyph-name="ycircumflex" unicode="&#x177;" horiz-adv-x="597" 
d="M296 -251q-56 0 -110.5 16t-97.5 51l25 46q40 -29 85.5 -45.5t94.5 -16.5q97 0 137 53t40 142v100q-22 -42 -55 -64.5t-69.5 -30.5t-71.5 -8q-79 0 -123.5 33.5t-63 89.5t-18.5 124v288h56v-262q0 -42 5.5 -82t21.5 -72t48 -50.5t84 -18.5q68 0 109 32t59 85t18 115v253
h56v-531q0 -59 -13.5 -104.5t-42.5 -77.5t-72 -48.5t-102 -16.5zM160 613l118 139h42l118 -139h-57l-83 97l-80 -97h-58z" />
    <glyph glyph-name="ydieresis" unicode="&#xff;" horiz-adv-x="597" 
d="M296 -251q-56 0 -110.5 16t-97.5 51l25 46q40 -29 85.5 -45.5t94.5 -16.5q97 0 137 53t40 142v100q-22 -42 -55 -64.5t-69.5 -30.5t-71.5 -8q-79 0 -123.5 33.5t-63 89.5t-18.5 124v288h56v-262q0 -42 5.5 -82t21.5 -72t48 -50.5t84 -18.5q68 0 109 32t59 85t18 115v253
h56v-531q0 -59 -13.5 -104.5t-42.5 -77.5t-72 -48.5t-102 -16.5zM405 620q-20 0 -32 13t-12 32t12 31.5t32 12.5q21 0 34 -12t13 -32t-13 -32.5t-34 -12.5zM190 620q-20 0 -32.5 13t-12.5 32t12.5 31.5t32.5 12.5q21 0 33.5 -12t12.5 -32t-12.5 -32.5t-33.5 -12.5z" />
    <glyph glyph-name="ygrave" unicode="&#x1ef3;" horiz-adv-x="597" 
d="M296 -251q-56 0 -110.5 16t-97.5 51l25 46q40 -29 85.5 -45.5t94.5 -16.5q97 0 137 53t40 142v100q-22 -42 -55 -64.5t-69.5 -30.5t-71.5 -8q-79 0 -123.5 33.5t-63 89.5t-18.5 124v288h56v-262q0 -42 5.5 -82t21.5 -72t48 -50.5t84 -18.5q68 0 109 32t59 85t18 115v253
h56v-531q0 -59 -13.5 -104.5t-42.5 -77.5t-72 -48.5t-102 -16.5zM279 613l-92 131h64l79 -131h-51z" />
    <glyph glyph-name="z" unicode="z" horiz-adv-x="521" 
d="M51 0v53l351 426h-348v48h416v-52l-354 -426h354v-49h-419z" />
    <glyph glyph-name="zacute" unicode="&#x17a;" horiz-adv-x="521" 
d="M51 0v53l351 426h-348v48h416v-52l-354 -426h354v-49h-419zM235 613l79 131h64l-92 -131h-51z" />
    <glyph glyph-name="zcaron" unicode="&#x17e;" horiz-adv-x="521" 
d="M51 0v53l351 426h-348v48h416v-52l-354 -426h354v-49h-419zM240 613l-119 139h57l83 -97l81 97h57l-118 -139h-41z" />
    <glyph glyph-name="zdotaccent" unicode="&#x17c;" horiz-adv-x="521" 
d="M51 0v53l351 426h-348v48h416v-52l-354 -426h354v-49h-419zM259 619q-20 0 -32.5 12t-12.5 34q0 21 13 32.5t33 11.5q19 0 32 -12t13 -32q0 -21 -13.5 -33.5t-32.5 -12.5z" />
    <glyph glyph-name="a_alt" horiz-adv-x="553" 
d="M225 -6q-45 0 -85 14.5t-64 46t-24 82.5q0 38 15.5 65t41.5 44.5t57 27.5t62 15q37 7 87 10.5t113 7.5q0 52 -15 92t-48 63t-87 23q-42 0 -79 -13t-58 -52h-61q13 42 44 66.5t72 36t83 11.5q78 0 122.5 -33t64 -89t19.5 -125v-287h-55l-2 79q-26 -33 -61 -52t-71.5 -26
t-70.5 -7zM231 42q53 0 97.5 19t72.5 57.5t28 96.5v45q-36 -2 -78.5 -5t-83.5 -8.5t-74 -15.5q-39 -11 -62 -35t-23 -57q0 -38 20 -59t48.5 -29.5t54.5 -8.5z" />
    <glyph glyph-name="c_alt" horiz-adv-x="542" 
d="M295 -7q-82 0 -137.5 35t-83 96t-27.5 139q0 79 28.5 140t84 96t138.5 35q45 0 82.5 -12t66 -37t45.5 -68h-60q-19 35 -56 51t-77 16q-65 0 -108.5 -29t-65.5 -79t-22 -113q0 -60 21 -110t64 -80.5t110 -30.5q39 0 77 13t60 47h62q-17 -38 -48.5 -62t-71 -35.5
t-82.5 -11.5z" />
    <glyph glyph-name="f_alt" horiz-adv-x="366" 
d="M124 0v479h-91v48h91v65q0 52 13.5 91.5t46.5 61.5t90 22q28 0 50 -6t41 -18l-23 -44q-13 9 -30.5 14.5t-38.5 5.5q-41 0 -60.5 -19t-26 -48t-6.5 -62v-63h172v-48h-172v-479h-56z" />
    <glyph glyph-name="g_alt" horiz-adv-x="607" 
d="M299 -250q-64 0 -115.5 18.5t-89.5 48.5l25 45q43 -32 88.5 -47.5t94.5 -15.5q68 0 106.5 27t54.5 74t16 107v103q-19 -45 -52.5 -70.5t-71 -36t-72.5 -10.5q-84 0 -135.5 37.5t-74.5 99t-23 133.5q0 74 26 135.5t79 98.5t134 37q33 0 67.5 -9t66 -30t56.5 -61l2 93h55
v-523q0 -80 -25 -137t-77.5 -87t-134.5 -30zM291 42q60 0 101.5 32t63.5 83t22 108q0 63 -20.5 112t-62.5 78t-107 29q-63 0 -103.5 -31t-59.5 -81.5t-19 -107.5q0 -61 18.5 -111.5t59 -80.5t107.5 -30z" />
    <glyph glyph-name="i_alt" horiz-adv-x="243" 
d="M107 0v479h-91v48h147v-527h-56zM134 634q-20 0 -33 12.5t-13 33.5q0 14 5.5 23.5t16 15t23.5 5.5q21 0 33.5 -12.5t12.5 -32.5t-12.5 -32.5t-32.5 -12.5z" />
    <glyph glyph-name="j_alt" horiz-adv-x="256" 
d="M-14 -191v48h26q41 0 64.5 13t34.5 40.5t11 71.5v497h-98v48h154v-552q0 -86 -37 -126t-124 -40h-31zM146 634q-20 0 -33 12.5t-13 32.5q0 15 6 24.5t16.5 15t23.5 5.5q20 0 33 -12.5t13 -32.5t-13 -32.5t-33 -12.5z" />
    <glyph glyph-name="k_alt" horiz-adv-x="514" 
d="M71 0v707h56v-473l286 293h65l-210 -217l228 -310h-65l-203 273l-101 -104v-169h-56z" />
    <glyph glyph-name="l_alt" horiz-adv-x="300" 
d="M234 0q-45 0 -75.5 10.5t-49.5 30.5q-20 23 -28.5 59.5t-8.5 83.5v523h57v-518q0 -34 4.5 -61.5t17.5 -46.5q26 -32 95 -32h31v-49h-43z" />
    <glyph glyph-name="s_alt" horiz-adv-x="533" 
d="M272 -7q-36 0 -72.5 7t-68.5 22.5t-55.5 39.5t-32.5 58h60q16 -30 44.5 -47t62 -23.5t60.5 -6.5q23 0 50.5 3t53 12.5t42 28.5t16.5 50q0 30 -12.5 47t-33.5 26.5t-47 14.5q-16 4 -37.5 7.5t-42.5 8t-38 10.5q-29 6 -58 14t-53 22.5t-39 39t-15 62.5q0 43 19.5 70.5
t50.5 44t68 23.5t73 7q43 0 85 -12.5t73.5 -38.5t40.5 -69h-54q-8 26 -33.5 41.5t-57 22t-59.5 6.5q-30 0 -65.5 -7t-60 -27t-24.5 -59q0 -31 15.5 -49.5t39.5 -29t50 -15.5q24 -5 54 -9.5t59 -9t49 -9.5q35 -7 59 -23.5t37 -41.5t13 -61q0 -43 -19 -72t-50 -46t-69.5 -24.5
t-77.5 -7.5z" />
    <glyph glyph-name="t_alt" horiz-adv-x="375" 
d="M284 0q-59 0 -94 18.5t-50.5 56.5t-15.5 93v311h-91v48h91l6 158h50v-158h152v-48h-152v-305q0 -64 24.5 -94.5t90.5 -30.5h33v-49h-44z" />
    <glyph glyph-name="u_alt" horiz-adv-x="593" 
d="M271 -8q-78 0 -122.5 33.5t-63 89t-18.5 123.5v289h57v-264q0 -42 5 -81.5t20.5 -71.5t47 -50.5t84.5 -18.5q51 0 86.5 19.5t57 53t31.5 75.5t10 89v249h56v-527h-51l-2 97q-23 -43 -56.5 -66t-70 -31t-71.5 -8z" />
    <glyph glyph-name="w_alt" horiz-adv-x="747" 
d="M178 0l-161 527h62l141 -476l120 346h68l121 -346l138 476h63l-162 -527h-78l-116 330l-116 -330h-80z" />
    <glyph glyph-name="y_alt" horiz-adv-x="597" 
d="M289 -250q-49 0 -92.5 14.5t-75 44.5t-46.5 76h62q12 -31 37 -50t56.5 -27.5t62.5 -8.5q47 0 79 13.5t51.5 35t29.5 48t13.5 52t3.5 46.5v102q-22 -45 -56 -67.5t-70.5 -29.5t-69.5 -7q-62 0 -102 20.5t-62.5 55t-31.5 79.5t-9 93v287h56v-263q0 -41 6 -81t22 -72
t47.5 -51t82.5 -19q52 0 88 19.5t58 52.5t31.5 74.5t9.5 84.5v255h56v-538q0 -57 -15.5 -102t-45.5 -75t-74.5 -46t-101.5 -16z" />
    <glyph glyph-name="ordfeminine" unicode="&#xaa;" horiz-adv-x="357" 
d="M157 423q-40 0 -70 20t-30 62q0 33 15 50.5t39.5 24t51.5 6.5h89q-2 38 -16 63t-56 25q-21 0 -40.5 -6t-26.5 -25h-44q8 25 24 40t38.5 21.5t47.5 6.5q44 0 68 -17.5t33.5 -47t9.5 -67.5v-153h-33l-3 37q-19 -23 -44 -31.5t-53 -8.5zM160 458q46 0 69 24t23 71h-67
q-16 0 -36.5 -1.5t-36 -10.5t-15.5 -33q0 -26 19 -38t44 -12z" />
    <glyph glyph-name="ordmasculine" unicode="&#xba;" horiz-adv-x="378" 
d="M188 422q-44 0 -71 20t-38.5 52.5t-11.5 71.5q0 38 11.5 71t38.5 53t71 20q45 0 71.5 -20t39 -53t12.5 -71q0 -39 -12 -71.5t-39 -52.5t-72 -20zM188 459q31 0 48 15.5t24.5 40t7.5 51.5q0 28 -7.5 52t-25 39.5t-47.5 15.5q-29 0 -46.5 -15.5t-24.5 -39.5t-7 -52
q0 -27 7 -51.5t24.5 -40t46.5 -15.5z" />
    <glyph glyph-name="uni0410" unicode="&#x410;" horiz-adv-x="649" 
d="M14 0l273 707h73l275 -707h-64l-62 159h-371l-61 -159h-63zM157 210h333l-166 438z" />
    <glyph glyph-name="uni0411" unicode="&#x411;" horiz-adv-x="651" 
d="M91 0v707h468v-52h-411v-253h186q48 0 94 -7t83 -27t59 -58t22 -99q0 -60 -20.5 -100.5t-56.5 -65t-83.5 -35t-102.5 -10.5h-238zM148 52h169q42 0 80.5 6t69 22.5t48.5 47t18 79.5q0 50 -18 79t-48.5 42.5t-68.5 18t-78 4.5h-172v-299z" />
    <glyph glyph-name="uni0412" unicode="&#x412;" horiz-adv-x="652" 
d="M90 0v707h242q47 0 88 -7t73 -26t50 -52t18 -86q0 -64 -33.5 -106.5t-91.5 -59.5q75 -8 119 -56t44 -124q0 -57 -23 -94t-62 -58t-88 -29.5t-100 -8.5h-236zM147 52h176q37 0 75.5 4t71 17.5t52.5 42.5t20 78q0 42 -17 69.5t-44.5 43t-62 22t-69.5 6.5h-202v-283z
M147 386h155q37 0 73 7t66 23.5t48 44.5t18 70q0 55 -24.5 81.5t-64.5 34.5t-85 8h-186v-269z" />
    <glyph glyph-name="uni0413" unicode="&#x413;" horiz-adv-x="564" 
d="M91 0v707h442v-52h-385v-655h-57z" />
    <glyph glyph-name="Geupturncy" unicode="&#x490;" horiz-adv-x="564" 
d="M91 0v707h384v148h58v-200h-385v-655h-57z" />
    <glyph glyph-name="uni0414" unicode="&#x414;" horiz-adv-x="715" 
d="M27 -203v255q38 5 60.5 29.5t34.5 55.5t18 71.5t9 86t4 87.5q4 86 5.5 167t3.5 158h439v-655h88v-255h-57v203h-548v-203h-57zM136 52h408v603h-325l-10 -328q-1 -25 -3 -60.5t-9 -74.5t-21 -76t-40 -64z" />
    <glyph glyph-name="uni0415" unicode="&#x415;" horiz-adv-x="605" 
d="M91 0v707h462v-52h-405v-278h364v-52h-364v-273h405v-52h-462z" />
    <glyph glyph-name="uni0401" unicode="&#x401;" horiz-adv-x="605" 
d="M91 0v707h462v-52h-405v-278h364v-52h-364v-273h405v-52h-462zM432 800q-20 0 -32 13t-12 32t12 31.5t32 12.5q21 0 34 -12t13 -32t-13 -32.5t-34 -12.5zM217 800q-20 0 -32.5 13t-12.5 32t12.5 31.5t32.5 12.5q21 0 33.5 -12t12.5 -32t-12.5 -32.5t-33.5 -12.5z" />
    <glyph glyph-name="uni0416" unicode="&#x416;" horiz-adv-x="853" 
d="M18 0l193 357l-192 350h63l181 -335h134v335h57v-335h138l179 335h62l-191 -350l193 -357h-67l-172 321h-142v-321h-57v321h-140l-172 -321h-67z" />
    <glyph glyph-name="uni0417" unicode="&#x417;" horiz-adv-x="623" 
d="M312 -8q-43 0 -88 8.5t-83 27t-63 50.5t-30 80h59q5 -33 25.5 -55.5t49.5 -35.5t62 -19t64 -6q34 0 69.5 6t66.5 22.5t50 45.5t19 75q0 47 -17 75t-46 43t-65.5 20.5t-75.5 5.5h-91v50h60q34 0 70.5 8t66.5 25t49 44t19 65q0 53 -25 83t-65 42.5t-83 12.5
q-40 0 -80 -10.5t-69 -35.5t-36 -66h-58q2 39 19.5 67t44.5 46.5t59.5 29t64.5 15t59 4.5q43 0 83 -9t72 -30t50.5 -55t18.5 -84q0 -33 -12 -65t-40.5 -58.5t-77.5 -42.5q81 -11 121.5 -60.5t40.5 -118.5q0 -56 -22 -94t-59 -61.5t-83 -34t-94 -10.5z" />
    <glyph glyph-name="uni0418" unicode="&#x418;" horiz-adv-x="733" 
d="M91 0v707h57v-637l421 637h73v-707h-57v632l-422 -632h-72z" />
    <glyph glyph-name="uni0419" unicode="&#x419;" horiz-adv-x="733" 
d="M91 0v707h57v-637l421 637h73v-707h-57v632l-422 -632h-72zM367 801q-46 0 -84 13.5t-62 41t-28 71.5h53q8 -44 42 -62.5t80 -18.5t79 18.5t42 62.5h53q-4 -43 -28.5 -71t-62 -41.5t-84.5 -13.5z" />
    <glyph glyph-name="uni041A" unicode="&#x41a;" horiz-adv-x="608" 
d="M91 0v707h57v-340h132l242 340h65l-253 -352l256 -355h-69l-230 316h-143v-316h-57z" />
    <glyph glyph-name="uni041B" unicode="&#x41b;" horiz-adv-x="690" 
d="M14 -6v58q22 1 39 9t30 22.5t21 33.5q13 29 19 69t8 82.5t2 76.5l7 362h459v-707h-57v655h-344l-6 -290q-1 -41 -2.5 -91.5t-8 -97.5t-22.5 -81q-19 -48 -53.5 -73t-91.5 -28z" />
    <glyph glyph-name="uni041C" unicode="&#x41c;" horiz-adv-x="843" 
d="M91 0v707h83l251 -431l246 431h81v-707h-57v644l-257 -453h-28l-262 453v-644h-57z" />
    <glyph glyph-name="uni041D" unicode="&#x41d;" horiz-adv-x="726" 
d="M91 0v707h57v-335h430v335h57v-707h-57v321h-430v-321h-57z" />
    <glyph glyph-name="uni041E" unicode="&#x41e;" horiz-adv-x="765" 
d="M383 -8q-110 0 -183.5 47t-110.5 128.5t-37 185.5t37.5 186t111 129t182.5 47t182.5 -47.5t110.5 -129t37 -185.5q0 -103 -37.5 -185t-110.5 -129t-182 -47zM383 42q92 0 152 42t89 113t29 156q0 64 -16.5 120.5t-49.5 99.5t-84 67.5t-120 24.5q-92 0 -152.5 -43
t-90 -113.5t-29.5 -155.5q0 -84 30 -155t90.5 -113.5t151.5 -42.5z" />
    <glyph glyph-name="uni041F" unicode="&#x41f;" horiz-adv-x="729" 
d="M91 0v707h547v-707h-57v655h-433v-655h-57z" />
    <glyph glyph-name="uni0420" unicode="&#x420;" horiz-adv-x="621" 
d="M91 0v707h238q77 0 131.5 -24.5t83.5 -75.5t29 -130q0 -78 -34.5 -129.5t-94 -77.5t-134.5 -26h-162v-244h-57zM148 295h159q93 0 150 44.5t57 141.5q0 92 -50 133t-140 41h-176v-360z" />
    <glyph glyph-name="uni0421" unicode="&#x421;" horiz-adv-x="703" 
d="M376 -8q-109 0 -181.5 47t-107.5 128.5t-35 185.5t36.5 185.5t109 129t180.5 47.5q64 0 117 -19t91 -56t56 -94h-59q-24 59 -78.5 89t-125.5 30q-93 0 -152.5 -43t-88 -113t-28.5 -154t28.5 -155.5t88 -114.5t151.5 -43q46 0 88.5 13t75.5 39.5t48 66.5h65
q-20 -55 -61.5 -93t-97 -57t-120.5 -19z" />
    <glyph glyph-name="uni0422" unicode="&#x422;" horiz-adv-x="567" 
d="M255 0v655h-237v52h531v-52h-237v-655h-57z" />
    <glyph glyph-name="uni0423" unicode="&#x423;" horiz-adv-x="590" 
d="M111 -1v56q51 0 85.5 14.5t58 40.5t39.5 60l-272 537h69l235 -475l198 475h63l-199 -468q-9 -21 -22.5 -48.5t-29.5 -55.5t-35 -53t-41 -40q-29 -22 -65.5 -32t-83.5 -11z" />
    <glyph glyph-name="uni040E" unicode="&#x40e;" horiz-adv-x="590" 
d="M111 -1v56q51 0 85.5 14.5t58 40.5t39.5 60l-272 537h69l235 -475l198 475h63l-199 -468q-9 -21 -22.5 -48.5t-29.5 -55.5t-35 -53t-41 -40q-29 -22 -65.5 -32t-83.5 -11zM313 791q-63 0 -105.5 25t-48.5 86h52q6 -39 34 -53t69 -14q40 0 68.5 14t34.5 53h52
q-4 -40 -25.5 -64.5t-55 -35.5t-75.5 -11z" />
    <glyph glyph-name="uni0424" unicode="&#x424;" horiz-adv-x="831" 
d="M387 -14v119h-92q-79 0 -133.5 36t-82 97.5t-27.5 138.5q0 78 33 136t91 90.5t134 32.5h77v107h57v-107h78q76 0 133.5 -32.5t90.5 -90.5t33 -136q0 -76 -28.5 -137.5t-83.5 -98t-133 -36.5h-90v-119h-57zM315 151h72v438h-71q-63 0 -109.5 -26.5t-72 -74t-25.5 -109.5
q0 -66 22 -117.5t67.5 -81t116.5 -29.5zM444 151h73q71 0 116 29.5t67 81t22 117.5q0 62 -26 109.5t-72.5 74t-108.5 26.5h-71v-438z" />
    <glyph glyph-name="uni0425" unicode="&#x425;" horiz-adv-x="570" 
d="M18 0l228 355l-220 352h72l187 -305l186 305h72l-220 -350l229 -357h-72l-196 310l-196 -310h-70z" />
    <glyph glyph-name="uni0427" unicode="&#x427;" horiz-adv-x="648" 
d="M500 0v270q-33 -4 -59.5 -6t-52 -3t-55.5 -1q-82 0 -141.5 18.5t-91.5 68.5t-32 143v217h57v-201q0 -76 21.5 -118.5t67.5 -60t118 -17.5q41 0 82.5 2t85.5 9v386h57v-707h-57z" />
    <glyph glyph-name="uni0426" unicode="&#x426;" horiz-adv-x="726" 
d="M645 -203v203h-554v707h57v-655h408v655h58v-655h89v-255h-58z" />
    <glyph glyph-name="uni0428" unicode="&#x428;" horiz-adv-x="974" 
d="M91 0v707h57v-655h310v655h57v-655h311v655h57v-707h-792z" />
    <glyph glyph-name="uni0429" unicode="&#x429;" horiz-adv-x="995" 
d="M915 -203v203h-824v707h57v-655h310v655h57v-655h311v655h57v-655h89v-255h-57z" />
    <glyph glyph-name="uni042C" unicode="&#x42c;" horiz-adv-x="629" 
d="M90 0v707h57v-305h150q51 0 100 -6.5t89.5 -26.5t64.5 -58t24 -100q0 -61 -21 -102t-58 -65t-84.5 -34t-101.5 -10h-220zM147 52h151q40 0 79 5.5t71 21t51 46t19 81.5q0 50 -19 79t-50.5 43.5t-70 18.5t-77.5 4h-154v-299z" />
    <glyph glyph-name="uni042B" unicode="&#x42b;" horiz-adv-x="827" 
d="M91 0v707h57v-305h128q52 0 101.5 -6t89.5 -25.5t63.5 -57.5t23.5 -101q0 -60 -20.5 -101t-57 -65.5t-84.5 -35t-102 -10.5h-199zM148 52h129q40 0 79.5 5.5t71 21t50.5 46.5t19 81t-18.5 79t-49.5 43.5t-68.5 18.5t-76.5 4h-136v-299zM679 0v707h57v-707h-57z" />
    <glyph glyph-name="uni042A" unicode="&#x42a;" horiz-adv-x="729" 
d="M189 0v655h-171v52h228v-305h158q50 0 97.5 -7t87 -26.5t63 -57.5t23.5 -100q0 -58 -21 -99t-57.5 -65.5t-84.5 -35.5t-102 -11h-221zM246 52h146q40 0 80 5.5t73 21t53 46.5t20 81t-19 79t-51 43.5t-70.5 18.5t-77.5 4h-154v-299z" />
    <glyph glyph-name="uni0405" unicode="&#x405;" horiz-adv-x="646" 
d="M337 -8q-61 0 -117.5 16t-98.5 53.5t-60 99.5h62q19 -44 53 -70t76.5 -37.5t84.5 -11.5q47 0 90 14.5t70 44.5t27 79q0 39 -15.5 63t-42 38.5t-61.5 24.5q-26 8 -53 14.5t-52.5 13.5t-48.5 15q-31 9 -61.5 22t-54 33t-38 49t-14.5 71q0 54 20 90t55 58.5t78.5 32.5
t90.5 10q58 0 107.5 -16t84 -52t43.5 -97h-58q-10 43 -37.5 68t-64.5 36t-76 11q-31 0 -63 -6.5t-59 -21.5t-44 -40.5t-17 -64.5t16.5 -64t43 -40t59.5 -26q44 -14 91 -24.5t89 -24.5q30 -9 56 -23.5t45 -34.5t30 -45.5t11 -57.5q0 -55 -20.5 -93t-55.5 -62t-79 -34.5
t-92 -10.5z" />
    <glyph glyph-name="uni0404" unicode="&#x404;" horiz-adv-x="702" 
d="M377 -8q-110 0 -182 46.5t-107.5 128t-35.5 184.5q0 104 36 186t108 130t180 48q60 0 113.5 -17t93.5 -54.5t59 -97.5h-59q-16 42 -47.5 68t-72 38.5t-84.5 12.5q-87 0 -146 -38.5t-89 -103.5t-34 -143h360v-52h-360q4 -79 34 -144t88 -103.5t145 -38.5q43 0 85.5 12
t77 38t50.5 69h64q-21 -58 -64 -95.5t-98.5 -55.5t-114.5 -18z" />
    <glyph glyph-name="uni042D" unicode="&#x42d;" horiz-adv-x="701" 
d="M326 -8q-64 0 -120 18.5t-96.5 56t-61.5 94.5h66q16 -39 48.5 -66t76 -40t88.5 -13q87 0 144.5 37t87 101.5t31.5 147.5h-360v52h360q-4 76 -33.5 141t-85 104.5t-137.5 39.5q-45 0 -89 -13t-78 -39t-51 -67h-60q21 63 65.5 100t100.5 53t112 16q82 0 141 -29.5t98 -81
t57.5 -117.5t18.5 -139q0 -103 -35.5 -183.5t-107 -126.5t-180.5 -46z" />
    <glyph glyph-name="uni0406" unicode="&#x406;" horiz-adv-x="239" 
d="M91 0v707h57v-707h-57z" />
    <glyph glyph-name="uni0407" unicode="&#x407;" horiz-adv-x="239" 
d="M91 0v707h57v-707h-57zM45 800q-20 0 -32 12.5t-12 31.5q0 18 12 30.5t32 12.5t32.5 -12t12.5 -31q0 -20 -12.5 -32t-32.5 -12zM193 800q-20 0 -32 12.5t-12 31.5q0 18 12 30.5t32 12.5t32.5 -12t12.5 -31q0 -20 -12.5 -32t-32.5 -12z" />
    <glyph glyph-name="uni0408" unicode="&#x408;" horiz-adv-x="551" 
d="M258 -8q-46 0 -83 10.5t-64 32.5t-43.5 56t-21.5 81h61q6 -43 25 -72t51 -43.5t77 -14.5q60 0 92 27t44 71t12 97v470h57v-469q0 -48 -9 -92.5t-31.5 -79t-63 -54.5t-103.5 -20z" />
    <glyph glyph-name="Yucy" unicode="&#x42e;" horiz-adv-x="988" 
d="M605 -8q-103 0 -172 43.5t-106 119.5t-41 173h-138v-328h-57v707h57v-327h138q4 97 41 172.5t106.5 119t171.5 43.5q109 0 182.5 -47t111 -129t37.5 -186t-37.5 -185.5t-111 -128.5t-182.5 -47zM605 42q93 0 153.5 42t90 112.5t29.5 156.5q0 85 -30 156t-90 113.5
t-153 42.5q-69 0 -119 -25t-81.5 -68.5t-47 -99.5t-15.5 -119q0 -62 15.5 -118t47.5 -99.5t81.5 -68.5t118.5 -25z" />
    <glyph glyph-name="Yacy" unicode="&#x42f;" horiz-adv-x="658" 
d="M74 0l156 287q-80 17 -125.5 67.5t-45.5 135.5q0 59 19 100t53 67t81 38t103 12h252v-707h-57v278h-223l-148 -278h-65zM324 329h186v326h-192q-60 0 -105.5 -15t-71 -50.5t-25.5 -96.5q0 -63 29 -99t76.5 -50.5t102.5 -14.5z" />
    <glyph glyph-name="uni04C1" unicode="&#x4c1;" horiz-adv-x="853" 
d="M18 0l193 357l-192 350h63l181 -335h134v335h57v-335h138l179 335h62l-191 -350l193 -357h-67l-172 321h-142v-321h-57v321h-140l-172 -321h-67zM425 806q-44 0 -81 12.5t-60.5 39t-28.5 68.5h51q9 -42 42 -59t78 -17t77.5 17t40.5 59h52q-5 -41 -29 -67.5t-60.5 -39.5
t-81.5 -13z" />
    <glyph glyph-name="uni0430" unicode="&#x430;" horiz-adv-x="553" 
d="M235 -7q-30 0 -61.5 8t-59.5 25.5t-45 46.5t-17 72q0 44 16 73.5t43.5 46.5t63.5 24.5t74 7.5h180q0 53 -14.5 95.5t-47.5 67t-88 24.5q-26 0 -53 -5.5t-49 -19t-34 -39.5h-62q11 36 34 57.5t51.5 34t57.5 17.5t53 5q76 0 121 -30.5t66 -86t21 -131.5v-286h-52l-2 76
q-21 -28 -51.5 -47t-67 -27.5t-77.5 -8.5zM239 42q50 0 93 17t70 51t27 85v55h-142q-31 0 -62 -2.5t-58 -11.5t-43 -29.5t-16 -56.5q0 -37 19 -61t49 -35.5t63 -11.5z" />
    <glyph glyph-name="uni0431" unicode="&#x431;" horiz-adv-x="576" 
d="M288 -7q-59 0 -100.5 19.5t-68.5 52.5t-42 76t-21 92t-6 97q0 67 6 126.5t25.5 107t60.5 80.5t111 47q48 9 92 13t88 9q11 2 23 4t25 4.5t25 4.5v-52q-10 -3 -29 -6t-42 -5.5t-44.5 -4.5t-37.5 -3.5t-21 -2.5q-37 -4 -73.5 -11.5t-66.5 -24.5t-51 -51q-17 -29 -25 -66
t-10 -72.5t-4 -62.5q23 49 58.5 75t74.5 36t71 10q72 0 121 -31t75 -85t26 -123q0 -72 -28.5 -129t-82 -90.5t-129.5 -33.5zM290 42q59 0 99.5 28t61 73.5t20.5 100.5q0 54 -20.5 97t-59.5 68t-96 25q-53 0 -94 -26.5t-64 -70.5t-23 -95q0 -54 19.5 -99.5t59 -73t97.5 -27.5
z" />
    <glyph glyph-name="uni0432" unicode="&#x432;" horiz-adv-x="548" 
d="M71 0v527h203q31 0 64 -4.5t61 -18t45.5 -39t17.5 -67.5q0 -19 -7 -42t-25.5 -43.5t-51.5 -32.5q59 -11 88 -45.5t29 -84.5q0 -40 -15 -69t-40.5 -46.5t-58.5 -26t-69 -8.5h-241zM128 47h165q34 0 67 7.5t55.5 28t22.5 60.5q0 37 -16 58t-41.5 30t-54.5 11.5t-56 2.5
h-142v-198zM128 292h120q24 0 51 4.5t52 15t40.5 29.5t15.5 48q0 42 -23 61t-56 24t-64 5h-136v-187z" />
    <glyph glyph-name="uni0433" unicode="&#x433;" horiz-adv-x="453" 
d="M71 0v527h355v-48h-299v-479h-56z" />
    <glyph glyph-name="geupturncy" unicode="&#x491;" horiz-adv-x="451" 
d="M71 0v527h298v143h55v-191h-297v-479h-56z" />
    <glyph glyph-name="uni0434" unicode="&#x434;" horiz-adv-x="599" 
d="M24 -171v218q23 3 39 15.5t27.5 32t19 44t12.5 50.5q10 49 12 98t2 79q1 40 1.5 80.5t0.5 80.5h364v-480h73v-218h-55v171h-441v-171h-55zM123 47h323v432h-254q-1 -42 -1.5 -87t-2.5 -88q-1 -44 -5 -90t-17.5 -89.5t-42.5 -77.5z" />
    <glyph glyph-name="uni0435" unicode="&#x435;" horiz-adv-x="576" 
d="M298 -7q-84 0 -139 35t-81.5 96t-26.5 139q0 76 28 137.5t83 97.5t135 36q57 0 99.5 -21t70 -57.5t42 -82.5t15.5 -98v-14.5v-15.5h-416q3 -58 24 -104t62.5 -72.5t107.5 -26.5q28 0 57.5 7.5t54 24t37.5 44.5h60q-15 -44 -49 -71.5t-77 -40.5t-87 -13zM109 293h359
q-2 53 -22 96.5t-58.5 69t-94.5 25.5q-57 0 -97 -27t-62 -70t-25 -94z" />
    <glyph glyph-name="uni0451" unicode="&#x451;" horiz-adv-x="576" 
d="M298 -7q-84 0 -139 35t-81.5 96t-26.5 139q0 76 28 137.5t83 97.5t135 36q57 0 99.5 -21t70 -57.5t42 -82.5t15.5 -98v-14.5v-15.5h-416q3 -58 24 -104t62.5 -72.5t107.5 -26.5q28 0 57.5 7.5t54 24t37.5 44.5h60q-15 -44 -49 -71.5t-77 -40.5t-87 -13zM109 293h359
q-2 53 -22 96.5t-58.5 69t-94.5 25.5q-57 0 -97 -27t-62 -70t-25 -94zM395 620q-20 0 -32 13t-12 32t12 31.5t32 12.5q21 0 34 -12t13 -32t-13 -32.5t-34 -12.5zM180 620q-20 0 -32.5 13t-12.5 32t12.5 31.5t32.5 12.5q21 0 33.5 -12t12.5 -32t-12.5 -32.5t-33.5 -12.5z" />
    <glyph glyph-name="uni0436" unicode="&#x436;" horiz-adv-x="748" 
d="M18 0l170 277l-154 250h62l145 -239h104v239h57v-239h104l146 239h62l-155 -250l171 -277h-65l-147 240h-116v-240h-57v240h-115l-147 -240h-65z" />
    <glyph glyph-name="uni0437" unicode="&#x437;" horiz-adv-x="515" 
d="M258 -7q-33 0 -68 5.5t-66 19.5t-52.5 38.5t-29.5 61.5h59q9 -30 36 -46.5t60 -23t59 -6.5q35 0 70.5 8t60.5 30.5t25 64.5q0 43 -22 63.5t-55 26.5t-69 6h-89v49h60q25 0 51 4t49.5 15t38 31t14.5 51q0 36 -20.5 56t-50.5 28.5t-60 8.5q-26 0 -56 -5t-53.5 -20.5
t-31.5 -45.5h-56q6 47 37 73t74.5 37t84.5 11q33 0 65.5 -7t59.5 -22.5t44 -41t18 -64.5t-19 -71.5t-69 -50.5q59 -11 85 -48t26 -84q0 -42 -18 -71.5t-48.5 -47t-68 -25.5t-75.5 -8z" />
    <glyph glyph-name="uni0438" unicode="&#x438;" horiz-adv-x="586" 
d="M71 0v527h56v-462q8 12 17 25t16 23l283 414h72v-527h-56v463q-9 -14 -18 -27.5t-17 -26.5l-281 -409h-72z" />
    <glyph glyph-name="uni0439" unicode="&#x439;" horiz-adv-x="586" 
d="M71 0v527h56v-462q8 12 17 25t16 23l283 414h72v-527h-56v463q-9 -14 -18 -27.5t-17 -26.5l-281 -409h-72zM297 620q-63 0 -105.5 25t-48.5 86h52q6 -39 34 -53t69 -14q40 0 68.5 14t34.5 53h52q-4 -40 -25.5 -64.5t-55 -35.5t-75.5 -11z" />
    <glyph glyph-name="uni043A" unicode="&#x43a;" horiz-adv-x="506" 
d="M71 0v527h56v-240h122l165 240h64l-176 -253l193 -274h-66l-171 239h-131v-239h-56z" />
    <glyph glyph-name="uni043B" unicode="&#x43b;" horiz-adv-x="565" 
d="M23 -3v52q19 1 34 8.5t27 20.5q22 23 32 64.5t12 89.5q3 47 5 97.5t3.5 100.5t1.5 97h356v-527h-56v479h-245q-1 -42 -2.5 -82.5t-3 -80t-3.5 -78.5q-1 -48 -10 -99t-36 -88q-18 -27 -45 -40t-70 -14z" />
    <glyph glyph-name="uni043C" unicode="&#x43c;" horiz-adv-x="694" 
d="M71 0v527h84l194 -305l192 305h82v-527h-56v472l-211 -334h-17l-212 334v-472h-56z" />
    <glyph glyph-name="uni043D" unicode="&#x43d;" horiz-adv-x="571" 
d="M71 0v527h56v-244h316v244h57v-527h-57v234h-316v-234h-56z" />
    <glyph glyph-name="uni043E" unicode="&#x43e;" horiz-adv-x="602" 
d="M300 -7q-82 0 -137.5 35t-83.5 96t-28 139q0 79 28 140t83.5 96t138.5 35q82 0 137.5 -35t84 -96t28.5 -140q0 -78 -28.5 -139t-84 -96t-138.5 -35zM300 42q68 0 110.5 29.5t63 79.5t20.5 112q0 61 -20.5 111.5t-63 80t-110.5 29.5q-67 0 -109.5 -29.5t-63 -80
t-20.5 -111.5q0 -62 20.5 -112t63 -79.5t109.5 -29.5z" />
    <glyph glyph-name="uni043F" unicode="&#x43f;" horiz-adv-x="574" 
d="M71 0v527h432v-527h-56v479h-320v-479h-56z" />
    <glyph glyph-name="uni0440" unicode="&#x440;" horiz-adv-x="606" 
d="M71 -201v728h55l1 -96q35 53 84.5 78t112.5 25q80 0 131.5 -37t76 -99t24.5 -138q0 -79 -26 -139t-78 -94t-131 -34q-35 0 -71 8.5t-67.5 28.5t-55.5 56v-287h-56zM320 42q66 0 105 30.5t57 80.5t18 109q0 61 -18 111.5t-59 80.5t-109 30q-61 0 -103 -31.5t-64 -82
t-22 -108.5q0 -62 22 -112t65.5 -79t107.5 -29z" />
    <glyph glyph-name="uni0441" unicode="&#x441;" horiz-adv-x="552" 
d="M297 -7q-82 0 -137 35t-82 95.5t-27 138.5q0 77 28 138.5t84.5 97.5t139.5 36q48 0 87.5 -15.5t68 -45.5t42.5 -76h-60q-16 46 -55 66.5t-87 20.5q-66 0 -108.5 -30t-63 -80.5t-20.5 -111.5q0 -59 20.5 -109t63.5 -80.5t109 -30.5q50 0 90.5 20t57.5 67h60
q-15 -46 -47 -76.5t-74 -45t-90 -14.5z" />
    <glyph glyph-name="uni0442" unicode="&#x442;" horiz-adv-x="454" 
d="M199 0v479h-193v48h443v-48h-193v-479h-57z" />
    <glyph glyph-name="uni0443" unicode="&#x443;" horiz-adv-x="542" 
d="M85 -239v55q51 0 82 16.5t53 49t41 80.5l-237 565h67l202 -495l169 495h64l-170 -476q-9 -26 -21.5 -59.5t-28 -68.5t-33 -64.5t-37.5 -47.5q-21 -19 -41.5 -30t-46 -15.5t-63.5 -4.5z" />
    <glyph glyph-name="uni045E" unicode="&#x45e;" horiz-adv-x="544" 
d="M87 -239v55h4q49 0 80 17t52 50t40 79l-239 565h66l204 -496l169 496h65l-170 -476q-9 -26 -21.5 -59.5t-28 -68.5t-33 -64.5t-37.5 -47.5q-33 -30 -65 -40t-76 -10h-10zM283 620q-63 0 -105.5 25t-48.5 86h52q6 -39 34 -53t69 -14q40 0 68.5 14t34.5 53h52
q-4 -40 -26 -64.5t-55.5 -35.5t-74.5 -11z" />
    <glyph glyph-name="uni0444" unicode="&#x444;" horiz-adv-x="737" 
d="M340 -197v190q-61 2 -114 17t-93.5 46.5t-63 81.5t-22.5 121q0 93 35.5 153t101.5 90t156 31v168h56v-168q92 -1 157.5 -31.5t101 -90.5t35.5 -152q0 -90 -37 -148t-102.5 -86.5t-154.5 -31.5v-190h-56zM340 41v444q-114 0 -175.5 -55.5t-61.5 -167.5q0 -75 29 -124
t82.5 -72t125.5 -25zM396 41q74 0 127 24t81.5 73t28.5 124q0 112 -61.5 167.5t-175.5 55.5v-444z" />
    <glyph glyph-name="uni0445" unicode="&#x445;" horiz-adv-x="495" 
d="M18 0l191 268l-179 259h69l150 -221l147 221h68l-179 -258l192 -269h-69l-162 226l-161 -226h-67z" />
    <glyph glyph-name="uni0447" unicode="&#x447;" horiz-adv-x="530" 
d="M402 0v208q-40 -5 -81.5 -7.5t-68.5 -2.5q-73 0 -118 22t-65.5 68.5t-20.5 119.5v119h56v-110q0 -57 13 -94t46 -55.5t96 -18.5q33 0 67.5 2t75.5 8v268h57v-527h-57z" />
    <glyph glyph-name="uni0446" unicode="&#x446;" horiz-adv-x="590" 
d="M510 -171v171h-439v527h56v-478h307v478h57v-478h73v-220h-54z" />
    <glyph glyph-name="uni0448" unicode="&#x448;" horiz-adv-x="803" 
d="M71 0v527h56v-478h245v478h56v-478h248v478h56v-527h-661z" />
    <glyph glyph-name="uni0449" unicode="&#x449;" horiz-adv-x="831" 
d="M752 -171v171h-681v527h56v-478h245v478h56v-478h248v478h56v-478h73v-220h-53z" />
    <glyph glyph-name="uni044C" unicode="&#x44c;" horiz-adv-x="520" 
d="M71 0v527h57v-212h129q43 0 81.5 -6.5t68.5 -22.5t47.5 -45t17.5 -76q0 -45 -15.5 -76.5t-43 -51t-64.5 -28.5t-79 -9h-199zM128 47h96q35 0 68.5 3t61.5 14t44.5 34.5t16.5 63.5q0 36 -15 57t-39.5 31.5t-53.5 13.5t-56 3h-123v-220z" />
    <glyph glyph-name="uni044B" unicode="&#x44b;" horiz-adv-x="672" 
d="M71 0v527h57v-212h107q42 0 81 -6t69 -22t47 -45.5t17 -76.5q0 -45 -15 -77t-42.5 -51t-64.5 -28t-80 -9h-176zM128 47h72q35 0 69 3t62 13.5t45 34t17 64.5q0 36 -15 57t-39.5 31.5t-53 13.5t-56.5 3h-101v-220zM545 0v527h56v-527h-56z" />
    <glyph glyph-name="uni044A" unicode="&#x44a;" horiz-adv-x="599" 
d="M155 0v479h-137v48h194v-212h130q43 0 81 -6.5t68 -23t47 -45.5t17 -74q0 -46 -15.5 -77.5t-43.5 -51t-64.5 -28.5t-79.5 -9h-197zM212 47h97q35 0 69 3t61 13.5t43.5 34.5t16.5 66q0 35 -15 55.5t-40 30.5t-54.5 13.5t-56.5 3.5h-121v-220z" />
    <glyph glyph-name="uni0455" unicode="&#x455;" horiz-adv-x="506" 
d="M257 -7q-33 0 -67.5 7t-65 22t-52.5 39t-30 59h60q14 -29 40 -46.5t57 -24.5t60 -7q23 0 48.5 4t48.5 14t37 28.5t14 49.5q0 28 -14 45t-36 27t-46 15q-25 5 -53.5 10t-53.5 15q-24 7 -50 16.5t-48 25t-35.5 39t-13.5 58.5q0 41 16.5 68.5t44 44.5t63 24.5t72.5 7.5
q43 0 82.5 -13t68 -39.5t38.5 -67.5h-55q-14 35 -53 52.5t-82 17.5q-20 0 -44 -2.5t-45.5 -12t-36 -28.5t-14.5 -50q0 -30 15.5 -49t39.5 -30t51 -17q33 -7 69 -13.5t66 -14.5q34 -9 58.5 -25t38 -40.5t13.5 -59.5q0 -44 -18.5 -72.5t-48.5 -45.5t-66.5 -24t-72.5 -7z" />
    <glyph glyph-name="uni0454" unicode="&#x454;" horiz-adv-x="550" 
d="M294 -7q-82 0 -136.5 35t-81 95.5t-26.5 138.5q0 79 28 140t83.5 96.5t137.5 35.5q71 0 125 -34t75 -103h-59q-10 32 -32.5 51t-52 27.5t-61.5 8.5q-60 0 -101.5 -26t-62.5 -71t-24 -102h260v-48h-259q2 -54 24 -98.5t63.5 -70t101.5 -26.5q34 0 64 8.5t53 28t34 50.5h60
q-15 -46 -48 -76t-75.5 -45t-89.5 -15z" />
    <glyph glyph-name="uni044D" unicode="&#x44d;" horiz-adv-x="547" 
d="M258 -7q-48 0 -92 14.5t-76.5 45t-46.5 76.5h60q12 -32 38 -51t59 -27.5t63 -8.5q59 0 98.5 26t60 70t21.5 99h-261v48h262q-4 56 -24.5 101t-59 71.5t-96.5 26.5q-31 0 -63 -8t-57.5 -26.5t-37.5 -51.5h-57q15 47 47 76.5t75 44.5t90 15q83 0 135.5 -36t78 -97.5
t25.5 -137.5q0 -79 -26 -139.5t-79.5 -95.5t-136.5 -35z" />
    <glyph glyph-name="uni0456" unicode="&#x456;" horiz-adv-x="218" 
d="M80 0v527h56v-527h-56zM109 634q-20 0 -33 12.5t-13 32.5q0 15 6 24.5t16.5 15t23.5 5.5q20 0 33 -12.5t13 -32.5t-13 -32.5t-33 -12.5z" />
    <glyph glyph-name="uni0457" unicode="&#x457;" horiz-adv-x="198" 
d="M71 0v527h56v-527h-56zM24 620q-20 0 -32 12.5t-12 31.5q0 18 12 30.5t32 12.5t32.5 -12t12.5 -31q0 -20 -12.5 -32t-32.5 -12zM172 620q-20 0 -32 12.5t-12 31.5q0 18 12 30.5t32 12.5t32.5 -12t12.5 -31q0 -20 -12.5 -32t-32.5 -12z" />
    <glyph glyph-name="uni0458" unicode="&#x458;" horiz-adv-x="245" 
d="M-22 -191v48h24q48 0 70.5 17.5t29.5 48.5t7 71v533h56v-538q0 -57 -12.5 -97.5t-47 -61.5t-99.5 -21h-28zM138 634q-20 0 -32.5 12.5t-12.5 32.5q0 15 5.5 24.5t16.5 15t23 5.5q21 0 33.5 -12.5t12.5 -32.5t-13 -32.5t-33 -12.5z" />
    <glyph glyph-name="yucy" unicode="&#x44e;" horiz-adv-x="800" 
d="M505 -7q-115 0 -174.5 67.5t-67.5 178.5h-136v-239h-56v527h56v-240h136q6 74 34 129t80 86.5t128 31.5q84 0 138.5 -35.5t82 -96.5t27.5 -139t-28 -139t-83 -96t-137 -35zM505 42q68 0 109.5 30t61.5 80t20 111t-20 111.5t-61.5 80t-109.5 29.5q-67 0 -108.5 -30
t-60 -80t-18.5 -111t19.5 -111t61 -80t106.5 -30z" />
    <glyph glyph-name="yacy" unicode="&#x44f;" horiz-adv-x="525" 
d="M41 0l144 215q-63 12 -102.5 48.5t-39.5 103.5q0 48 15 79t42.5 49t64.5 25t81 7h208v-527h-56v207h-153l-138 -207h-66zM285 255h113v224h-139q-31 0 -60 -3t-51.5 -14t-35.5 -32t-13 -59q0 -40 17.5 -63.5t45 -34.5t60 -14.5t63.5 -3.5z" />
    <glyph glyph-name="uni04C2" unicode="&#x4c2;" horiz-adv-x="748" 
d="M18 0l174 277l-158 250h63l149 -239h99v239h57v-239h99l150 239h63l-159 -250l175 -277h-65l-151 240h-112v-240h-57v240h-111l-151 -240h-65zM372 623q-42 0 -77.5 12t-57.5 37.5t-28 65.5h52q6 -28 22.5 -43.5t40 -22t49.5 -6.5t49.5 6.5t40.5 22t23 43.5h52
q-6 -40 -29 -65.5t-58.5 -37.5t-78.5 -12z" />
    <glyph glyph-name="zero" unicode="0" horiz-adv-x="664" 
d="M332 -8q-77 0 -129 29.5t-83 80.5t-45 115.5t-14 135.5q0 70 13.5 135t45 116t83.5 81t129 30q78 0 130.5 -31t83.5 -83t44.5 -116.5t13.5 -131.5t-13.5 -131.5t-44.5 -116.5t-83.5 -82.5t-130.5 -30.5zM332 42q66 0 108 28t64.5 74t31 100.5t8.5 108.5q0 53 -8.5 107.5
t-31 101t-64.5 75t-108 28.5q-67 0 -108.5 -28.5t-64 -75t-31 -101t-8.5 -107.5q0 -54 8.5 -108.5t31 -100.5t64 -74t108.5 -28z" />
    <glyph glyph-name="one" unicode="1" horiz-adv-x="340" 
d="M171 0v590h-143v39q45 1 76.5 6t52 21t30.5 51h42v-707h-58z" />
    <glyph glyph-name="two" unicode="2" horiz-adv-x="562" 
d="M34 0v48l221 196q29 26 61.5 55.5t61 62.5t46 70.5t17.5 80.5q0 74 -46 112.5t-116 38.5q-51 0 -96 -20t-62 -66h-64q15 47 47.5 77t78.5 45t100 15q63 0 112 -22.5t77 -67t28 -108.5t-25.5 -113t-65.5 -90t-86 -81l-204 -181h389v-52h-474z" />
    <glyph glyph-name="three" unicode="3" horiz-adv-x="592" 
d="M282 -8q-38 0 -77.5 7t-74 23t-59.5 43.5t-34 67.5h61q14 -36 44.5 -56t68.5 -27.5t72 -7.5q33 0 65.5 7t60.5 24t45 45.5t17 72.5q0 47 -17.5 75t-47 43.5t-65.5 20.5t-73 5h-70v50h48q34 0 69 8t64 25.5t46.5 45t17.5 67.5q0 51 -23 80t-60 41.5t-80 12.5
q-33 0 -66.5 -8t-59 -27.5t-36.5 -53.5h-60q8 42 31 69t55.5 42.5t68.5 21.5t70 6q43 0 81.5 -9t68.5 -29.5t48 -54t18 -81.5q0 -37 -13 -71.5t-41 -60.5t-74 -39q53 -6 88.5 -31t53.5 -62.5t18 -82.5q0 -59 -21.5 -98t-58 -61.5t-80.5 -32.5t-89 -10z" />
    <glyph glyph-name="four" unicode="4" horiz-adv-x="620" 
d="M433 0v148h-390v47l363 512h84v-508h89v-51h-89v-148h-57zM109 199h324v458z" />
    <glyph glyph-name="five" unicode="5" horiz-adv-x="609" 
d="M302 -8q-33 0 -69 7t-69.5 23t-59.5 43.5t-38 69.5h61q14 -32 42 -53t62 -30.5t66 -9.5q55 0 98.5 19t69.5 58t26 98q0 85 -47.5 129.5t-129.5 44.5q-51 0 -94.5 -22t-70.5 -52h-67l33 390h409v-52h-357l-26 -282q37 37 84 53.5t100 16.5q67 0 118 -27.5t79.5 -76.5
t28.5 -116q0 -76 -33.5 -127.5t-90 -77.5t-125.5 -26z" />
    <glyph glyph-name="six" unicode="6" horiz-adv-x="621" 
d="M328 -8q-74 0 -125 29t-81.5 77.5t-44.5 109t-14 125.5q0 73 14.5 141.5t47 122.5t86 86t131.5 32q46 0 86 -14.5t71.5 -43.5t49.5 -71h-61q-23 39 -63.5 59t-84.5 20q-57 0 -96 -22.5t-64 -60.5t-38 -84t-17.5 -94t-4.5 -90q24 48 58.5 75.5t75.5 39.5t82 12
q65 0 116.5 -28t81 -77.5t29.5 -113.5q0 -73 -31 -124.5t-84 -78.5t-120 -27zM327 42q54 0 94 23t62 61.5t22 86.5q0 52 -22 91.5t-61 62t-91 22.5q-46 0 -89 -20.5t-70 -59.5t-27 -94q1 -50 26 -89t66 -61.5t90 -22.5z" />
    <glyph glyph-name="seven" unicode="7" horiz-adv-x="500" 
d="M114 0l297 655h-395v52h458v-52l-296 -655h-64z" />
    <glyph glyph-name="eight" unicode="8" horiz-adv-x="613" 
d="M306 -8q-48 0 -92.5 10.5t-79 34t-54.5 61t-20 92.5q0 42 17 78.5t48.5 62t76.5 33.5q-41 14 -67 40t-38 59.5t-12 69.5q0 48 18.5 82t50 56.5t71 33t82.5 10.5q42 0 81.5 -11t71 -33.5t50 -57t18.5 -80.5q0 -36 -12 -69t-38.5 -58t-70.5 -39q49 -9 81.5 -35.5t48.5 -63
t16 -78.5q0 -54 -20.5 -92t-55.5 -61.5t-79 -34t-92 -10.5zM307 42q33 0 66 7t60.5 24t44.5 45t17 71q0 54 -28 86.5t-71 47t-89 14.5t-90 -14.5t-72 -47t-28 -86.5q0 -43 17 -71t45 -45t61.5 -24t66.5 -7zM308 386q38 0 76 15t63 45t25 76q0 52 -23.5 83t-61 45.5
t-80.5 14.5t-80.5 -14t-61.5 -44.5t-24 -80.5q0 -49 24.5 -80t62.5 -45.5t80 -14.5z" />
    <glyph glyph-name="nine" unicode="9" horiz-adv-x="618" 
d="M289 -8q-45 0 -88.5 13.5t-77 42t-49.5 73.5h64q22 -41 66 -60t89 -19q65 0 106 27.5t63 73.5t31 100t9 107q0 11 -1 24t-3 32q-15 -49 -48 -79.5t-76 -44.5t-93 -14q-60 0 -110.5 25.5t-80 74t-29.5 118.5t30 121.5t83 79.5t123 28q78 0 128.5 -34t79.5 -89.5
t40.5 -121.5t11.5 -130q0 -69 -13 -132t-43.5 -111.5t-82.5 -76.5t-129 -28zM292 321q48 0 88.5 20.5t65.5 57.5t25 86q0 52 -23 92t-62.5 64t-91.5 24q-49 0 -89 -22.5t-63.5 -61t-23.5 -87.5q0 -81 46.5 -127t127.5 -46z" />
    <glyph glyph-name="zero.tf" horiz-adv-x="667" 
d="M333 -8q-77 0 -129 29.5t-83 80.5t-45 115.5t-14 135.5q0 70 13.5 135t45 116t83.5 81t129 30q78 0 130.5 -31t83.5 -83t44.5 -116.5t13.5 -131.5t-13.5 -131.5t-44.5 -116.5t-83.5 -82.5t-130.5 -30.5zM333 42q66 0 108 28t64.5 74t31 100.5t8.5 108.5q0 53 -8.5 107.5
t-31 101t-64.5 75t-108 28.5q-67 0 -108.5 -28.5t-64 -75t-31 -101t-8.5 -107.5q0 -54 8.5 -108.5t31 -100.5t64 -74t108.5 -28z" />
    <glyph glyph-name="one.tf" horiz-adv-x="667" 
d="M316 0v590h-143v39q45 1 77 6t52.5 21.5t29.5 50.5h42v-707h-58z" />
    <glyph glyph-name="two.tf" horiz-adv-x="667" 
d="M94 0v47l221 197q29 26 61.5 55.5t60.5 62.5t46 71t18 80q0 75 -46 113t-116 38q-51 0 -96 -20t-62 -66h-64q15 47 47 77t77.5 45t98.5 15q65 0 114.5 -22.5t77.5 -67t28 -108.5t-25.5 -113t-65.5 -90t-86 -81l-204 -181h389v-52h-474z" />
    <glyph glyph-name="three.tf" horiz-adv-x="667" 
d="M336 -8q-38 0 -77.5 7t-74 23t-59.5 43.5t-34 67.5h61q14 -36 44.5 -56t68.5 -27.5t72 -7.5q33 0 65.5 7t60.5 24t45 45.5t17 72.5q0 47 -17.5 75t-47 43.5t-65.5 20.5t-73 5h-70v50h48q34 0 69 8t64 25.5t46.5 45t17.5 67.5q0 51 -23 80t-60 41.5t-80 12.5
q-33 0 -66.5 -8t-59 -27.5t-36.5 -53.5h-60q8 42 31 69t55.5 42.5t68.5 21.5t70 6q43 0 81.5 -9t68.5 -29.5t48 -54t18 -81.5q0 -37 -13 -71.5t-41 -60.5t-74 -39q53 -6 89 -31t53.5 -62.5t17.5 -82.5q0 -55 -20 -93.5t-55 -62.5t-79.5 -35t-94.5 -11z" />
    <glyph glyph-name="four.tf" horiz-adv-x="667" 
d="M453 0v148h-391v47l364 512h84v-508h88v-51h-88v-148h-57zM129 199h324v458z" />
    <glyph glyph-name="five.tf" horiz-adv-x="667" 
d="M330 -8q-33 0 -69 7t-70 23t-60 43.5t-37 69.5h60q15 -32 43 -53t62 -30.5t66 -9.5q55 0 98.5 19t69 58t25.5 98q0 85 -47 129.5t-129 44.5q-52 0 -94.5 -22t-70.5 -52h-67l33 390h409v-52h-358l-25 -282q37 37 83.5 53.5t100.5 16.5q67 0 117.5 -27.5t79 -76.5
t28.5 -116q0 -76 -33.5 -127.5t-90 -77.5t-124.5 -26z" />
    <glyph glyph-name="six.tf" horiz-adv-x="667" 
d="M334 -8q-75 0 -125.5 28.5t-81 76t-44 108t-13.5 123.5q-1 74 13 143t46 124t86 87.5t133 32.5q46 0 86 -14.5t71 -43.5t49 -71h-61q-22 39 -63 59t-84 20q-57 0 -96 -22.5t-64 -60.5t-38.5 -84t-18 -94t-3.5 -90q19 43 52 71t75 42t89 14q65 0 116 -28t80.5 -77.5
t29.5 -113.5q0 -73 -31 -124.5t-84 -78.5t-119 -27zM332 42q55 0 94.5 23t62 61.5t22.5 86.5q0 52 -22 91.5t-61 62t-92 22.5q-46 0 -88.5 -20.5t-69 -59.5t-26.5 -94q0 -50 24.5 -89t66 -61.5t89.5 -22.5z" />
    <glyph glyph-name="seven.tf" horiz-adv-x="667" 
d="M213 0l297 655h-395v52h458v-52l-296 -655h-64z" />
    <glyph glyph-name="eight.tf" horiz-adv-x="667" 
d="M333 -8q-48 0 -92.5 10.5t-79 34t-54.5 61t-20 92.5q0 42 17 78.5t48.5 62t76.5 33.5q-41 14 -67 40t-38 59.5t-12 69.5q0 48 18.5 82t50 56.5t71 33t82.5 10.5q42 0 81.5 -11t70.5 -33.5t49.5 -56.5t19.5 -81q1 -36 -11.5 -69t-39 -58t-70.5 -39q49 -9 81.5 -35.5
t48.5 -63t16 -78.5q0 -54 -20.5 -92t-55.5 -61.5t-79 -34t-92 -10.5zM334 42q33 0 66 7t60.5 24t44.5 45t17 71q0 54 -28 86.5t-71 47t-89 14.5t-90 -14.5t-72 -47t-28 -86.5q0 -43 17 -71t45 -45t61.5 -24t66.5 -7zM335 386q38 0 76 15t63 45t25 76q0 52 -23.5 83t-61 45.5
t-80.5 14.5t-80.5 -14t-61.5 -44.5t-24 -80.5q0 -49 24.5 -80t62.5 -45.5t80 -14.5z" />
    <glyph glyph-name="nine.tf" horiz-adv-x="667" 
d="M330 -8q-45 0 -88.5 13.5t-76.5 42t-50 73.5h64q22 -41 66 -60t90 -19q65 0 106 27.5t63 73t30.5 99.5t8.5 108q0 11 -0.5 24t-2.5 32q-16 -49 -48.5 -79.5t-76 -44.5t-92.5 -14q-61 0 -111.5 25.5t-80.5 74t-30 118.5t30 121.5t83.5 79.5t123.5 28q75 0 125.5 -32
t80 -86t42.5 -121t13 -137q0 -69 -13 -131.5t-43.5 -111t-82.5 -76.5t-130 -28zM334 321q47 0 87.5 20.5t65.5 57.5t25 86q0 52 -22.5 92t-62 64t-91.5 24q-49 0 -89.5 -22.5t-64 -61t-23.5 -87.5q0 -81 47 -127t128 -46z" />
    <glyph glyph-name="uni00B2" unicode="&#xb2;" horiz-adv-x="357" 
d="M61 401v42l96 82q17 15 37.5 33t35.5 39t15 46q0 30 -18 46t-47 16q-21 0 -39.5 -9t-23.5 -31h-51q6 44 40.5 65t75.5 21q48 0 80 -26t32 -76q0 -45 -24.5 -75.5t-55.5 -57.5q-21 -18 -41.5 -35t-41.5 -35h164v-45h-234z" />
    <glyph glyph-name="uni00B3" unicode="&#xb3;" horiz-adv-x="372" 
d="M188 397q-29 0 -56.5 8t-46.5 27.5t-25 52.5h51q8 -24 31 -33.5t46 -9.5q29 0 51 13t22 46q0 35 -23.5 44.5t-51.5 9.5h-33v43h17q14 0 32.5 4.5t32 16.5t13.5 33q0 30 -18 42t-45 12q-21 0 -39.5 -10t-25.5 -31h-49q6 45 40 65.5t77 20.5q29 0 54 -9t40 -29t15 -54
q0 -27 -13.5 -45t-37.5 -29q32 -7 49 -29t17 -57t-17.5 -58t-45.5 -33.5t-61 -10.5z" />
    <glyph glyph-name="space" unicode=" " horiz-adv-x="270" 
 />
    <glyph glyph-name="uni00A0" unicode="&#xa0;" horiz-adv-x="270" 
 />
    <glyph glyph-name="uni2009" unicode="&#x2009;" horiz-adv-x="110" 
 />
    <glyph glyph-name="uni202F" unicode="&#x202f;" horiz-adv-x="110" 
 />
    <glyph glyph-name="CR" unicode="&#xd;" horiz-adv-x="189" 
 />
    <glyph glyph-name="period" unicode="." horiz-adv-x="235" 
d="M118 -8q-22 0 -34.5 13.5t-12.5 33.5q0 21 13 34t34 13q20 0 33 -13t13 -34q0 -20 -12.5 -33.5t-33.5 -13.5z" />
    <glyph glyph-name="comma" unicode="," horiz-adv-x="240" 
d="M86 -112l-18 24q12 8 24 20.5t21 28.5t12 34q-18 -2 -36 8.5t-18 36.5q1 20 14.5 33t33.5 13q26 0 38.5 -18.5t12.5 -44.5q0 -28 -11.5 -55t-30 -47.5t-42.5 -32.5z" />
    <glyph glyph-name="colon" unicode=":" horiz-adv-x="235" 
d="M118 361q-23 0 -35 13.5t-12 34.5q0 14 6 24.5t16.5 16.5t23.5 6q22 0 34.5 -13.5t12.5 -33.5q0 -21 -12.5 -34.5t-33.5 -13.5zM118 -8q-22 0 -34.5 13t-12.5 34q0 14 6 24.5t16.5 16.5t23.5 6q22 0 34.5 -13.5t12.5 -33.5q0 -21 -13 -34t-33 -13z" />
    <glyph glyph-name="semicolon" unicode=";" horiz-adv-x="240" 
d="M86 -113l-18 25q13 8 24.5 20t21 28t11.5 35q-17 -2 -35 8.5t-18 36.5q0 21 13.5 34t35.5 12q27 0 38 -20t11 -44q0 -28 -11 -54.5t-29.5 -47.5t-43.5 -33zM121 361q-21 0 -33.5 13.5t-12.5 34.5q0 14 5.5 24.5t16 16.5t24.5 6q21 0 34.5 -13.5t13.5 -33.5
q0 -21 -13 -34.5t-35 -13.5z" />
    <glyph glyph-name="ellipsis" unicode="&#x2026;" horiz-adv-x="678" 
d="M563 -8q-22 0 -34.5 13t-12.5 34q0 14 6 24.5t16.5 16.5t24.5 6q21 0 33.5 -13.5t12.5 -33.5q0 -21 -12.5 -34t-33.5 -13zM115 -8q-22 0 -34.5 13t-12.5 34q0 14 6 24.5t16.5 16.5t24.5 6q21 0 33.5 -13.5t12.5 -33.5q0 -21 -12.5 -34t-33.5 -13zM340 -8q-22 0 -34.5 13
t-12.5 34q0 14 6 24.5t16.5 16.5t23.5 6q21 0 34 -13.5t13 -33.5q0 -21 -13 -34t-33 -13z" />
    <glyph glyph-name="exclam" unicode="!" horiz-adv-x="254" 
d="M102 191l-5 516h60l-6 -516h-49zM127 -8q-13 0 -24 6t-17 16.5t-6 24.5t6 24.5t17 16t24 5.5q19 0 32.5 -12.5t13.5 -34.5q0 -14 -6 -24.5t-16 -16t-24 -5.5z" />
    <glyph glyph-name="exclamdown" unicode="&#xa1;" horiz-adv-x="254" 
d="M97 -181l5 515h49l6 -515h-60zM126 440q-19 0 -32.5 13t-13.5 35q0 20 13.5 33t32.5 13q22 0 34.5 -13t12.5 -34t-12.5 -34t-34.5 -13z" />
    <glyph glyph-name="question" unicode="?" horiz-adv-x="503" 
d="M196 207v8.5v8.5q0 30 10 53.5t26 44.5t35 39.5t39 37.5q19 18 38 41t31 49t12 53q0 40 -19 67.5t-50.5 41.5t-70.5 14q-29 0 -59.5 -8.5t-53 -26.5t-32.5 -49h-61q10 38 31.5 63.5t50.5 41t61.5 22.5t63.5 7q53 0 97.5 -18.5t71.5 -56t27 -95.5q0 -36 -11.5 -65.5
t-32.5 -56.5t-50 -55q-23 -23 -44.5 -44t-35 -45.5t-13.5 -58.5v-7v-6h-61zM228 -7q-22 0 -34.5 13t-12.5 33q0 22 12.5 34.5t34.5 12.5q19 0 32.5 -12.5t13.5 -34.5q0 -21 -13 -33.5t-33 -12.5z" />
    <glyph glyph-name="questiondown" unicode="&#xbf;" horiz-adv-x="503" 
d="M306 321v-8.5v-8.5q0 -29 -10 -53t-26 -45t-35 -39.5t-39 -37.5q-19 -18 -38 -41t-31 -48.5t-12 -53.5q0 -40 19 -67.5t51 -41.5t70 -14q30 0 60 8.5t53 27t32 48.5h61q-10 -38 -31.5 -63.5t-50.5 -41t-61.5 -22.5t-63.5 -7q-53 0 -97.5 18.5t-71.5 56.5t-27 95
q0 36 11.5 65.5t33 57t49.5 54.5q24 23 45 44t34.5 45.5t13.5 58.5v7v6h61zM274 535q22 0 34.5 -13t12.5 -33q0 -22 -12.5 -34.5t-34.5 -12.5q-19 0 -32.5 12.5t-13.5 34.5q0 21 13 33.5t33 12.5z" />
    <glyph glyph-name="periodcentered" unicode="&#xb7;" horiz-adv-x="236" 
d="M118 312q-20 0 -33 12t-13 33q0 20 12.5 32t33.5 12t33 -12t12 -32t-12 -32.5t-33 -12.5z" />
    <glyph glyph-name="bullet" unicode="&#x2022;" horiz-adv-x="317" 
d="M159 269q-28 0 -50 12t-34.5 33.5t-12.5 50.5q0 42 27 69.5t70 27.5q29 0 50.5 -12.5t33.5 -34t12 -50.5q0 -42 -26.5 -69t-69.5 -27z" />
    <glyph glyph-name="asterisk" unicode="*" horiz-adv-x="407" 
d="M141 487l-32 22l63 86l-100 31l11 37l101 -33v106h40v-106l99 33l13 -37l-100 -32l62 -85l-32 -22l-62 85z" />
    <glyph glyph-name="numbersign" unicode="#" horiz-adv-x="651" 
d="M143 0l21 189h-101v50h107l25 230h-102v49h107l19 189h56l-19 -189h175l20 189h55l-20 -189h102v-49h-108l-24 -230h102v-50h-107l-21 -189h-54l19 189h-175l-21 -189h-56zM225 239h176l25 230h-177z" />
    <glyph glyph-name="slash" unicode="/" horiz-adv-x="452" 
d="M39 -175l313 980h61l-313 -980h-61z" />
    <glyph glyph-name="backslash" unicode="\" horiz-adv-x="452" 
d="M352 -175l-313 980h61l313 -980h-61z" />
    <glyph glyph-name="colon.case" horiz-adv-x="235" 
d="M118 480q-22 0 -34.5 13.5t-12.5 34.5q0 14 6 24.5t16.5 16.5t23.5 6q21 0 34 -13t13 -33q0 -22 -13 -35.5t-33 -13.5zM118 111q-22 0 -34.5 13.5t-12.5 33.5q0 14 6 24.5t16.5 16.5t23.5 6q21 0 34 -13t13 -33q0 -21 -13 -34.5t-33 -13.5z" />
    <glyph glyph-name="periodcentered.loclCAT" horiz-adv-x="235" 
d="M118 302q-22 0 -34.5 13.5t-12.5 33.5q0 21 13 34t34 13q20 0 33 -13t13 -34q0 -20 -12.5 -33.5t-33.5 -13.5z" />
    <glyph glyph-name="period.tf" horiz-adv-x="243" 
d="M122 -8q-22 0 -34.5 13.5t-12.5 33.5q0 21 13 34t34 13q20 0 33 -13t13 -34q0 -20 -12.5 -33.5t-33.5 -13.5z" />
    <glyph glyph-name="comma.tf" horiz-adv-x="246" 
d="M86 -113l-18 25q13 8 24.5 20t20.5 28t12 35q-17 -2 -35 8.5t-18 36.5q0 20 13.5 33t33.5 13q27 0 39 -19t12 -45q0 -28 -11 -54.5t-30 -47.5t-43 -33z" />
    <glyph glyph-name="colon.tf" horiz-adv-x="243" 
d="M122 361q-22 0 -34.5 13.5t-12.5 34.5q0 14 6 24.5t16.5 16.5t24.5 6q21 0 33.5 -13.5t12.5 -33.5q0 -21 -12 -34.5t-34 -13.5zM122 -8q-22 0 -34.5 13t-12.5 34q0 14 6 24.5t16.5 16.5t24.5 6q21 0 33.5 -13.5t12.5 -33.5q0 -21 -12.5 -34t-33.5 -13z" />
    <glyph glyph-name="semicolon.tf" horiz-adv-x="246" 
d="M87 -112l-18 24q13 8 24.5 20.5t20.5 28.5t12 34q-17 -2 -35 8.5t-18 36.5q0 21 13.5 33.5t33.5 12.5q27 0 39 -18.5t12 -44.5q0 -28 -11 -55t-30 -47.5t-43 -32.5zM122 361q-21 0 -34 13.5t-13 34.5q0 14 6 24.5t16.5 16.5t24.5 6q21 0 34.5 -13.5t13.5 -33.5
q0 -21 -13 -34.5t-35 -13.5z" />
    <glyph glyph-name="periodcentered.loclCAT.case" horiz-adv-x="235" 
d="M118 321q-22 0 -34.5 13.5t-12.5 33.5q0 21 13 34t34 13q20 0 33 -13t13 -34q0 -20 -12.5 -33.5t-33.5 -13.5z" />
    <glyph glyph-name="colon.case.tf" horiz-adv-x="243" 
d="M122 480q-22 0 -34.5 13.5t-12.5 34.5q0 14 6 24.5t16.5 16.5t24.5 6q21 0 33.5 -13t12.5 -34t-12.5 -34.5t-33.5 -13.5zM122 111q-22 0 -34.5 13.5t-12.5 33.5q0 14 6 24.5t16.5 16.5t24.5 6q21 0 33.5 -13t12.5 -33q0 -21 -12.5 -34.5t-33.5 -13.5z" />
    <glyph glyph-name="hyphen" unicode="-" horiz-adv-x="446" 
d="M78 254v51h290v-51h-290z" />
    <glyph glyph-name="endash" unicode="&#x2013;" horiz-adv-x="571" 
d="M78 254v51h415v-51h-415z" />
    <glyph glyph-name="emdash" unicode="&#x2014;" horiz-adv-x="760" 
d="M78 254v51h604v-51h-604z" />
    <glyph glyph-name="underscore" unicode="_" horiz-adv-x="458" 
d="M1 -183v50h456v-50h-456z" />
    <glyph glyph-name="hyphen.case" horiz-adv-x="446" 
d="M78 312v50h290v-50h-290z" />
    <glyph glyph-name="endash.case" horiz-adv-x="571" 
d="M78 312v51h415v-51h-415z" />
    <glyph glyph-name="emdash.case" horiz-adv-x="760" 
d="M78 312v51h604v-51h-604z" />
    <glyph glyph-name="parenleft" unicode="(" horiz-adv-x="281" 
d="M243 -221q-57 78 -96 164t-58.5 176.5t-19.5 181.5t20.5 183.5t60 179t97.5 158.5h60q-61 -83 -101.5 -166t-60.5 -170.5t-20 -184.5t20.5 -184.5t61.5 -170t100 -167.5h-64z" />
    <glyph glyph-name="parenright" unicode=")" horiz-adv-x="281" 
d="M38 -221h-64q60 85 100.5 167.5t61 170t20.5 184.5t-20 184.5t-60 170.5t-102 166h61q58 -72 97.5 -158.5t59.5 -179t20 -183.5t-19.5 -181.5t-58 -176.5t-96.5 -164z" />
    <glyph glyph-name="braceleft" unicode="{" horiz-adv-x="377" 
d="M249 -193q-51 0 -78.5 20t-27.5 76v228q0 38 -7 70.5t-28.5 54t-66.5 25.5v39q44 4 65.5 24.5t29 53.5t7.5 70v231q0 56 27.5 75.5t78.5 19.5h65v-47h-62q-32 0 -44 -11t-13 -32t-1 -48v-207q0 -47 -14.5 -86.5t-60.5 -61.5q31 -12 47.5 -35.5t22 -52t5.5 -58.5v-213
q0 -34 4 -53t17.5 -27t42.5 -8h56v-47h-65z" />
    <glyph glyph-name="braceright" unicode="}" horiz-adv-x="377" 
d="M128 -193h-65v47h56q29 0 42.5 8t17.5 27t4 53v213q0 30 5.5 58.5t22 52t47.5 35.5q-46 22 -60.5 61.5t-14.5 86.5v207q0 27 -1 48t-12.5 32t-44.5 11h-62v47h65q51 0 78.5 -19.5t27.5 -75.5v-231q0 -37 7.5 -70t29.5 -53.5t65 -24.5v-39q-44 -4 -66 -25.5t-29 -54
t-7 -70.5v-228q0 -56 -27.5 -76t-78.5 -20z" />
    <glyph glyph-name="bracketleft" unicode="[" horiz-adv-x="307" 
d="M91 -193v987h177v-46h-121v-895h121v-46h-177z" />
    <glyph glyph-name="bracketright" unicode="]" horiz-adv-x="306" 
d="M39 -193v46h121v895h-121v46h176v-987h-176z" />
    <glyph glyph-name="quotesinglbase" unicode="&#x201a;" horiz-adv-x="241" 
d="M86 -113l-18 25q13 8 24.5 20t21 28t11.5 35q-17 -2 -35 8.5t-18 36.5q0 21 13.5 33.5t35.5 12.5q27 0 38 -20t11 -42q0 -29 -10.5 -56t-29.5 -48t-44 -33z" />
    <glyph glyph-name="quotedblbase" unicode="&#x201e;" horiz-adv-x="405" 
d="M249 -113l-18 25q13 8 24.5 20t21 28t11.5 35q-17 -2 -35 8.5t-18 36.5q0 21 13.5 33.5t35.5 12.5q27 0 38 -20t11 -43q0 -29 -11 -55.5t-29.5 -47.5t-43.5 -33zM86 -113l-18 25q13 8 24.5 20t21 28t11.5 35q-17 -2 -35 8.5t-18 36.5q0 21 13.5 33.5t35.5 12.5
q27 0 38 -20t11 -43q0 -29 -11 -55.5t-29.5 -47.5t-43.5 -33z" />
    <glyph glyph-name="quotedblleft" unicode="&#x201c;" horiz-adv-x="408" 
d="M285 538q-28 0 -39.5 19.5t-11.5 42.5q0 30 11.5 57t30.5 47.5t42 31.5l18 -24q-11 -7 -23.5 -20t-21 -29t-12.5 -34q12 1 24.5 -3t21 -14t8.5 -28q0 -21 -13.5 -34t-34.5 -12zM122 538q-28 0 -39.5 19.5t-11.5 42.5q0 30 11.5 57t30.5 47.5t42 31.5l18 -24
q-11 -7 -23.5 -20t-21 -29t-12.5 -34q12 1 24.5 -3t21 -14t8.5 -28q0 -21 -13.5 -33.5t-34.5 -12.5z" />
    <glyph glyph-name="quotedblright" unicode="&#x201d;" horiz-adv-x="405" 
d="M249 533l-18 25q13 8 24.5 20t21 28t11.5 35q-17 -2 -35 8.5t-18 36.5q0 21 13.5 33.5t35.5 12.5q28 0 38.5 -20t10.5 -43q0 -29 -11 -55.5t-29.5 -47.5t-43.5 -33zM86 533l-18 25q13 8 24.5 20t21 28t11.5 35q-17 -2 -35 8.5t-18 36.5q0 21 13.5 33.5t35.5 12.5
q28 0 38.5 -20t10.5 -43q0 -29 -11 -55.5t-29.5 -47.5t-43.5 -33z" />
    <glyph glyph-name="quoteleft" unicode="&#x2018;" horiz-adv-x="242" 
d="M122 538q-28 0 -39.5 19.5t-11.5 43.5q0 29 11.5 56t30.5 47.5t42 31.5l18 -24q-11 -7 -23.5 -20t-21 -29t-12.5 -34q12 1 24.5 -3t21 -14t8.5 -28q0 -21 -14 -34t-34 -12z" />
    <glyph glyph-name="quoteright" unicode="&#x2019;" horiz-adv-x="242" 
d="M86 533l-18 25q13 8 24.5 20t21 28t11.5 35q-17 -2 -35 8.5t-18 36.5q0 21 13.5 33.5t35.5 12.5q24 0 36.5 -18t12.5 -45q0 -29 -11 -55.5t-29.5 -47.5t-43.5 -33z" />
    <glyph glyph-name="guillemotleft" unicode="&#xab;" horiz-adv-x="454" 
d="M153 95l-110 164l110 166h57l-112 -165l112 -165h-57zM336 95l-110 164l110 166h57l-110 -165l109 -165h-56z" />
    <glyph glyph-name="guillemotright" unicode="&#xbb;" horiz-adv-x="454" 
d="M244 95l112 165l-112 165h57l110 -164l-110 -166h-57zM62 95l109 165l-110 165h57l110 -164l-110 -166h-56z" />
    <glyph glyph-name="guilsinglleft" unicode="&#x2039;" horiz-adv-x="271" 
d="M153 95l-110 164l110 166h56l-109 -165l109 -165h-56z" />
    <glyph glyph-name="guilsinglright" unicode="&#x203a;" horiz-adv-x="271" 
d="M62 95l109 165l-109 165h56l110 -164l-110 -166h-56z" />
    <glyph glyph-name="quotedbl" unicode="&#x22;" horiz-adv-x="319" 
d="M206 492l-9 215h60l-7 -215h-44zM70 492l-8 215h60l-8 -215h-44z" />
    <glyph glyph-name="quotesingle" unicode="'" horiz-adv-x="189" 
d="M73 492l-9 215h60l-7 -215h-44z" />
    <glyph glyph-name="quotesinglbase.tf" horiz-adv-x="246" 
d="M86 -113l-18 25q13 8 24.5 20t20.5 28t12 35q-17 -2 -35 8.5t-18 36.5q0 21 13.5 33.5t33.5 12.5q27 0 39 -19t12 -45q0 -28 -11 -54.5t-30 -47.5t-43 -33z" />
    <glyph glyph-name="quotedblbase.tf" horiz-adv-x="302" 
d="M195 -112l-18 24q13 8 24.5 20.5t20.5 28.5t12 34q-17 -2 -35 8.5t-18 36.5q0 21 13.5 33.5t33.5 12.5q27 0 39 -18.5t12 -44.5q0 -28 -11 -55t-30 -47.5t-43 -32.5zM40 -112l-18 24q13 8 24.5 20.5t20.5 28.5t12 34q-17 -2 -35 8.5t-18 36.5q0 21 13.5 33.5t33.5 12.5
q27 0 39 -18.5t12 -44.5q0 -28 -11 -55t-30 -47.5t-43 -32.5z" />
    <glyph glyph-name="quotedblleft.tf" horiz-adv-x="302" 
d="M228 538q-27 0 -39 19t-12 45q0 28 11 55t30.5 48t42.5 32l18 -25q-12 -7 -24 -19.5t-21 -28.5t-12 -35q12 1 24.5 -3t20.5 -14t8 -28q0 -21 -13.5 -33.5t-33.5 -12.5zM73 538q-27 0 -39 19t-12 45q0 28 11 55t30.5 48t42.5 32l18 -25q-12 -7 -24 -19.5t-21 -28.5
t-12 -35q12 1 24.5 -3t20.5 -14t8 -28q0 -21 -13.5 -33.5t-33.5 -12.5z" />
    <glyph glyph-name="quotedblright.tf" horiz-adv-x="302" 
d="M195 534l-18 24q13 8 24.5 20.5t20.5 28.5t12 34q-17 -2 -35 8.5t-18 36.5q0 21 13.5 33.5t33.5 12.5q27 0 39 -18.5t12 -44.5q0 -28 -11 -55t-30 -47.5t-43 -32.5zM40 534l-18 24q13 8 24.5 20.5t20.5 28.5t12 34q-17 -2 -35 8.5t-18 36.5q0 21 13.5 33.5t33.5 12.5
q27 0 39 -18.5t12 -44.5q0 -28 -11 -55t-30 -47.5t-43 -32.5z" />
    <glyph glyph-name="quoteleft.tf" horiz-adv-x="246" 
d="M120 538q-27 0 -39 18.5t-12 43.5q0 29 11 55.5t30 48t43 32.5l18 -24q-12 -7 -24 -20t-21 -29t-12 -35q12 1 24.5 -2.5t20.5 -13.5t8 -29q0 -20 -13.5 -32.5t-33.5 -12.5z" />
    <glyph glyph-name="quoteright.tf" horiz-adv-x="245" 
d="M86 534l-18 24q13 8 24.5 20.5t20.5 28.5t12 34q-17 -2 -35 8.5t-18 36.5q0 21 13.5 33.5t33.5 12.5q27 0 39 -18.5t12 -44.5q0 -28 -11.5 -55t-30 -48t-42.5 -32z" />
    <glyph glyph-name="quotedbl.tf" horiz-adv-x="294" 
d="M192 492l-9 215h61l-8 -215h-44zM58 492l-8 215h60l-8 -215h-44z" />
    <glyph glyph-name="quotesingle.tf" horiz-adv-x="242" 
d="M99 492l-8 215h60l-8 -215h-44z" />
    <glyph glyph-name="uni2713" unicode="&#x2713;" horiz-adv-x="1052" 
d="M373 1l-310 360l48 43l261 -306l568 716l49 -43z" />
    <glyph glyph-name="at" unicode="@" horiz-adv-x="994" 
d="M489 -187q-95 1 -171.5 31.5t-131 86t-83.5 132t-29 168.5q0 103 30.5 191t89 154t143 102.5t192.5 36.5q93 0 166 -31.5t123.5 -88.5t76.5 -133t26 -165q0 -44 -7.5 -90t-26 -85t-52.5 -63t-86 -24q-45 0 -78 23t-39 74q-21 -37 -48 -57t-56.5 -27.5t-59.5 -7.5
q-58 0 -95 27.5t-54.5 72t-17.5 94.5q1 47 13.5 90t38 77.5t64 54.5t88.5 20q25 0 51.5 -7.5t49.5 -25.5t36 -52l14 66l44 -2q-9 -63 -15 -125.5t-9 -124.5q-2 -30 2.5 -58.5t21 -47t53.5 -18.5q36 0 58.5 21.5t35 55t17.5 69t5 62.5q0 77 -21 145t-63.5 119.5t-106.5 81
t-150 29.5q-96 0 -169 -34t-123 -93.5t-75.5 -137t-25.5 -164.5q0 -107 44.5 -190t126.5 -129.5t194 -47.5h33.5t29 2t31.5 4l3 -54q-28 -5 -55 -6.5t-53 -0.5zM477 87q47 0 81 26t52.5 66.5t20.5 84.5q1 41 -11.5 78.5t-41 61.5t-75.5 24q-52 0 -85 -29.5t-49 -73.5
t-16 -89q0 -26 7 -52.5t21 -48.5t38 -35t58 -13z" />
    <glyph glyph-name="ampersand" unicode="&#x26;" horiz-adv-x="659" 
d="M280 -8q-43 0 -81 11.5t-66.5 34.5t-45 57.5t-16.5 80.5q0 47 20.5 85t56 68t80.5 52q-36 36 -60.5 78.5t-24.5 90.5q0 50 20.5 87t60 57.5t95.5 20.5q44 0 79.5 -17.5t56 -50.5t20.5 -79q0 -44 -22.5 -81t-60 -66t-84.5 -53l183 -214q24 33 38.5 68t20.5 72h56
q-7 -50 -28.5 -97t-48.5 -82l102 -115h-75l-65 71q-48 -44 -100 -61.5t-111 -17.5zM286 43q45 0 91 16.5t80 52.5l-198 231q-33 -18 -62 -41.5t-47 -54t-18 -69.5q0 -46 22 -75.5t57 -44.5t75 -15zM276 404q30 16 64 38.5t58.5 52.5t24.5 67q0 31 -14.5 54t-39 36t-54.5 13
q-54 0 -85.5 -29t-31.5 -82q0 -30 12.5 -57.5t31 -51t34.5 -41.5z" />
    <glyph glyph-name="paragraph" unicode="&#xb6;" horiz-adv-x="554" 
d="M215 0v384h-12q-50 0 -88.5 18.5t-60 55t-21.5 91.5q0 49 22 84.5t60 54.5t85 19h321v-52h-84v-655h-57v655h-108v-655h-57z" />
    <glyph glyph-name="section" unicode="&#xa7;" horiz-adv-x="540" 
d="M283 -8q-36 0 -70.5 6.5t-65 20.5t-52.5 38t-32 59h59q13 -29 41 -45.5t59.5 -23.5t55.5 -7q37 0 69.5 7.5t53 26.5t20.5 53q0 30 -13 46.5t-34 25t-44 12.5q-24 5 -51.5 10t-54 11t-48.5 13q-45 13 -75 42t-30 76q0 36 17.5 66.5t48.5 51.5q-28 16 -42 41.5t-14 53.5
q0 39 16 65.5t43.5 42.5t62 23t70.5 7q41 0 79.5 -11.5t66.5 -37t37 -67.5h-51q-9 26 -31 41.5t-49.5 22.5t-54.5 7q-31 0 -63 -7t-53.5 -26.5t-21.5 -57.5q0 -24 12.5 -40t32 -25.5t38.5 -14.5q26 -7 54 -12.5t55.5 -11.5t49.5 -12q49 -14 74.5 -41.5t25.5 -76.5
q0 -33 -17 -60t-47 -47q33 -14 49.5 -40.5t16.5 -62.5q0 -41 -17.5 -69t-45.5 -44t-62 -22.5t-68 -6.5zM363 255q14 5 27.5 17t23 28.5t9.5 35.5q0 40 -20 57t-52 27q-43 12 -85.5 18.5t-87.5 20.5q-23 -17 -38.5 -41t-15.5 -48q0 -33 18 -51t44.5 -26.5t52.5 -14.5
q31 -5 62.5 -11t61.5 -12z" />
    <glyph glyph-name="copyright" unicode="&#xa9;" horiz-adv-x="937" 
d="M468 -127q-124 0 -215 53t-140.5 147.5t-49.5 219.5q0 126 50.5 220.5t141.5 148t213 53.5q123 0 214 -53.5t141.5 -148t50.5 -220.5q0 -125 -49.5 -219.5t-140.5 -147.5t-216 -53zM468 -77q109 0 187.5 47.5t121 131t42.5 191.5q0 109 -43 193t-121.5 131.5t-186.5 47.5
q-106 0 -185.5 -47.5t-122 -131t-42.5 -193.5q0 -108 42.5 -192t121 -131t186.5 -47zM479 86q-63 0 -105 27t-63 74t-21 107t21 107t63 74.5t105 27.5q60 0 101 -25.5t58 -85.5h-53q-13 35 -40 50t-64 15q-51 0 -81 -22.5t-43.5 -59.5t-13.5 -81q0 -43 14 -80.5t44 -60
t79 -22.5q37 0 67.5 14.5t43.5 49.5h54q-11 -38 -35 -62t-57 -35.5t-74 -11.5z" />
    <glyph glyph-name="registered" unicode="&#xae;" horiz-adv-x="476" 
d="M237 379q-55 0 -96.5 21t-64.5 61.5t-23 97.5q0 58 23 99t65 64t96 23q57 0 98 -23.5t63 -65.5t22 -97q0 -56 -22 -96.5t-63 -62t-98 -21.5zM237 408q72 0 112 40t40 111q0 70 -39.5 113.5t-112.5 43.5q-71 0 -112 -43.5t-41 -113.5q0 -71 41.5 -111t111.5 -40zM173 473
v182h75q29 0 46.5 -13t17.5 -42q0 -21 -10 -35.5t-33 -18.5l48 -73h-31l-47 70h-40v-70h-26zM199 568h51q15 0 25.5 7t10.5 24t-11 24t-24 7h-52v-62z" />
    <glyph glyph-name="uni2117" unicode="&#x2117;" horiz-adv-x="937" 
d="M468 -127q-93 0 -168 30.5t-128 86t-81 132.5t-28 171t29 171.5t82.5 133.5t128 86.5t165.5 30.5q92 0 166.5 -30.5t128 -86.5t82.5 -133.5t29 -171.5t-28 -171t-81 -132.5t-128 -86t-169 -30.5zM468 -77q109 0 187.5 47.5t121.5 131t43 191.5q0 109 -43.5 193
t-122 131.5t-186.5 47.5q-106 0 -185.5 -47.5t-122.5 -131t-43 -193.5q0 -108 43 -192t121.5 -131t186.5 -47zM347 76v422h147q46 0 81 -15t54.5 -45t19.5 -77q0 -48 -21.5 -80.5t-59 -48.5t-87.5 -16h-81v-140h-53zM400 264h79q33 0 59.5 8.5t42.5 29.5t16 57q0 50 -30 70
t-78 20h-89v-185z" />
    <glyph glyph-name="trademark" unicode="&#x2122;" horiz-adv-x="630" 
d="M317 460v247h56l68 -125l70 125h53v-247h-39v198l-71 -132h-26l-72 135v-201h-39zM151 460v210h-89v37h217v-37h-89v-210h-39z" />
    <glyph glyph-name="degree" unicode="&#xb0;" horiz-adv-x="358" 
d="M177 578q-37 0 -64 15t-42 42t-15 63q0 37 16 64t43.5 42t63.5 15t62.5 -16t41.5 -43t15 -62q0 -36 -15 -63t-42 -42t-64 -15zM178 617q35 0 56 22.5t21 59.5t-21 59t-56 22q-36 0 -57.5 -22t-21.5 -59q0 -38 21.5 -60t57.5 -22z" />
    <glyph glyph-name="bar" unicode="|" horiz-adv-x="239" 
d="M91 -175v980h57v-980h-57z" />
    <glyph glyph-name="uni2116" unicode="&#x2116;" horiz-adv-x="1069" 
d="M82 0v707h77l422 -635v635h57v-707h-75l-424 635v-635h-57zM740 286v50h260v-50h-260zM868 420q-44 0 -74 19.5t-45.5 53t-15.5 75.5q0 43 15.5 76t46 52t74.5 19t73.5 -20.5t45 -54t15.5 -72.5q0 -42 -16 -75.5t-46 -53t-73 -19.5zM869 467q32 0 50 15t26 38.5t8 47.5
q0 22 -8 45.5t-26 39t-50 15.5q-31 0 -50.5 -14.5t-27.5 -37t-8 -48.5q0 -27 8.5 -50t27.5 -37t50 -14z" />
    <glyph glyph-name="cent" unicode="&#xa2;" horiz-adv-x="579" 
d="M268 -162v158q-71 8 -118.5 43.5t-71 93.5t-23.5 129q0 73 24 130.5t71.5 94.5t117.5 44v147h57v-145q65 -4 112.5 -37.5t66.5 -98.5h-59q-15 46 -54 66.5t-87 20.5q-66 0 -109 -30t-63.5 -80t-20.5 -112q0 -60 21 -110t64 -80t108 -30q50 0 91 20t58 67h59
q-20 -64 -71.5 -97t-115.5 -37v-157h-57z" />
    <glyph glyph-name="dollar" unicode="$" horiz-adv-x="650" 
d="M302 -143v136q-55 5 -104 23t-84 54t-51 91h62q18 -46 52 -71t77.5 -35t87.5 -10t86.5 13t70 43t27.5 79q0 39 -16.5 64t-44.5 40.5t-62 24.5q-31 8 -61.5 15t-61 15t-61.5 18q-58 19 -96 60.5t-38 108.5q0 65 31 106.5t82 62t109 20.5v134h58v-136q53 -2 95 -21.5
t69.5 -54.5t34.5 -87h-57q-8 43 -35 68t-64.5 36t-78.5 11q-43 0 -85.5 -11.5t-70.5 -40t-28 -81.5q0 -38 15.5 -63.5t41.5 -40.5t58 -25q44 -14 91.5 -24t91.5 -24q41 -12 73 -34t51 -54.5t19 -76.5q0 -69 -31 -111.5t-82.5 -62.5t-113.5 -24v-135h-57z" />
    <glyph glyph-name="Euro" unicode="&#x20ac;" horiz-adv-x="676" 
d="M438 -8q-78 0 -135.5 28.5t-94.5 83t-54 131.5h-101l9 51h88q-3 26 -3.5 48t1 43.5t3.5 46.5h-97l9 50h96q26 111 95 176t182 65q53 0 97 -13.5t80 -42.5l-27 -43q-35 26 -71 37.5t-81 11.5q-59 0 -103 -25.5t-73 -68.5t-42 -97h315l-9 -50h-315q-2 -19 -3.5 -44
t-1 -49.5t4.5 -44.5h291l-9 -51h-275q19 -89 78 -141t150 -52q46 0 82 11.5t71 39.5l29 -39q-37 -33 -85.5 -47.5t-100.5 -14.5z" />
    <glyph glyph-name="uni20B4" unicode="&#x20b4;" horiz-adv-x="586" 
d="M290 -8q-26 0 -58.5 6t-62.5 21t-49.5 44t-19.5 74q0 15 5 39.5t21 46.5h-75v50h117l154 119h-271v51h329q27 18 47.5 50t20.5 66q0 36 -18 59.5t-48 35t-67 11.5q-24 0 -53 -6t-53.5 -22.5t-35.5 -49.5h-64q9 36 30 60t49.5 39.5t61.5 22t67 6.5t67 -8t60 -25.5
t43 -45.5t16 -70q0 -31 -11 -55.5t-25 -41t-23 -26.5h91v-51h-136l-156 -119h292v-50h-348q-14 -13 -22 -34.5t-8 -41.5q0 -39 20.5 -62t51.5 -33t63 -10q28 0 58 5t54.5 20t36.5 45h61q-9 -33 -30.5 -56t-50.5 -37t-63 -20.5t-68 -6.5z" />
    <glyph glyph-name="uni20BD" unicode="&#x20bd;" horiz-adv-x="700" 
d="M165 0v96h-102v51h102v114h-102v52h102v394h236q58 0 103 -12t77 -39t49 -69t17 -101q0 -78 -34 -128t-93 -73.5t-134 -23.5h-164v-114h287v-51h-287v-96h-57zM222 313h163q59 0 105.5 17t73 56t26.5 103q0 92 -51 129t-141 37h-176v-342z" />
    <glyph glyph-name="sterling" unicode="&#xa3;" horiz-adv-x="579" 
d="M63 0v52h86v259h-86v51h86v166q0 62 23 103.5t66 62.5t103 21q63 0 111 -30t58 -93h-55q-7 25 -24 41t-39.5 24t-47.5 8q-45 0 -76.5 -14.5t-47.5 -46t-16 -82.5v-160h217v-51h-217v-259h312v-52h-453z" />
    <glyph glyph-name="yen" unicode="&#xa5;" horiz-adv-x="644" 
d="M293 0v98h-151v49h151v110h-151v50h128l-227 400h67l213 -386l211 386h67l-227 -400h126v-50h-149v-110h149v-49h-149v-98h-58z" />
    <glyph glyph-name="plus" unicode="+" horiz-adv-x="550" 
d="M247 167v162h-150v51h150v160h54v-160h152v-51h-152v-162h-54z" />
    <glyph glyph-name="minus" unicode="&#x2212;" horiz-adv-x="550" 
d="M100 329v51h350v-51h-350z" />
    <glyph glyph-name="multiply" unicode="&#xd7;" horiz-adv-x="550" 
d="M130 176l-32 32l147 145l-147 146l33 32l145 -147l144 147l32 -32l-145 -146l145 -145l-32 -32l-145 146z" />
    <glyph glyph-name="divide" unicode="&#xf7;" horiz-adv-x="550" 
d="M106 334v50h338v-50h-338zM275 129q-22 0 -34.5 13t-12.5 34q0 14 6 24.5t16.5 16.5t24.5 6q21 0 33.5 -13t12.5 -33q0 -22 -12 -35t-34 -13zM275 493q-22 0 -34.5 13t-12.5 34q0 14 6 24.5t16.5 16.5t24.5 6q21 0 33.5 -13t12.5 -34q0 -20 -12 -33.5t-34 -13.5z" />
    <glyph glyph-name="equal" unicode="=" horiz-adv-x="550" 
d="M82 453v51h387v-51h-387zM82 197v51h387v-51h-387z" />
    <glyph glyph-name="notequal" unicode="&#x2260;" horiz-adv-x="550" 
d="M82 0l92 197h-92v51h116l96 205h-212v51h236l93 199h58l-94 -199h94v-51h-117l-96 -205h213v-51h-237l-92 -197h-58z" />
    <glyph glyph-name="greater" unicode="&#x3e;" horiz-adv-x="550" 
d="M116 117v60l256 173l-256 174v60l319 -219v-29z" />
    <glyph glyph-name="less" unicode="&#x3c;" horiz-adv-x="550" 
d="M435 117l-319 219v29l319 219v-60l-256 -173l256 -174v-60z" />
    <glyph glyph-name="greaterequal" unicode="&#x2265;" horiz-adv-x="550" 
d="M88 223v57l299 153l-299 152v58l375 -191v-39zM88 133v51h375v-51h-375z" />
    <glyph glyph-name="lessequal" unicode="&#x2264;" horiz-adv-x="550" 
d="M463 223l-375 191v39l375 190v-57l-300 -153l300 -152v-58zM88 133v51h375v-51h-375z" />
    <glyph glyph-name="plusminus" unicode="&#xb1;" horiz-adv-x="550" 
d="M247 262v148h-150v51h150v158h54v-158h152v-51h-152v-148h-54zM97 146v51h356v-51h-356z" />
    <glyph glyph-name="approxequal" unicode="&#x2248;" horiz-adv-x="550" 
d="M381 385q-36 0 -64 16.5t-51.5 38.5t-47 39t-50.5 17t-42.5 -14.5t-22 -36.5t-6.5 -45h-52q1 30 8.5 56t22.5 45t38.5 30t56.5 11q36 0 63.5 -17t51 -39t47 -39t50.5 -17q29 0 44 14.5t21 36.5t6 46h51q-1 -30 -8 -56t-21.5 -45t-37.5 -30t-57 -11zM381 173q-36 0 -64 17
t-51.5 38.5t-47 38.5t-50.5 17t-42.5 -14.5t-22 -36.5t-6.5 -45h-52q1 31 8.5 57t22.5 45t38.5 29.5t56.5 10.5q36 0 63.5 -16.5t51 -39t47 -39t50.5 -16.5q29 0 44 14t21 36t6 46h51q-1 -31 -8 -56.5t-21.5 -44.5t-37.5 -30t-57 -11z" />
    <glyph glyph-name="asciitilde" unicode="~" horiz-adv-x="550" 
d="M380 274q-40 0 -69 22t-52 44q-20 19 -42.5 36t-47.5 17q-29 0 -44.5 -18t-21 -43.5t-5.5 -49.5h-50q1 30 7 57.5t20 49t37.5 34.5t59.5 13t65 -21t54 -44q22 -21 43.5 -37.5t47.5 -16.5q31 0 46 17.5t20 43t5 50.5h50q-2 -30 -7.5 -57.5t-19 -49t-37 -34.5t-59.5 -13z
" />
    <glyph glyph-name="asciicircum" unicode="^" horiz-adv-x="550" 
d="M127 535l127 180h42l128 -180h-53l-96 140l-96 -140h-52z" />
    <glyph glyph-name="percent" unicode="%" horiz-adv-x="794" 
d="M148 0l435 707h62l-435 -707h-62zM596 -7q-44 0 -74 19t-45.5 52.5t-15.5 75.5q0 44 15 77t46 52t75 19t73.5 -20t44.5 -53.5t15 -74.5q0 -40 -15.5 -73.5t-45.5 -53.5t-73 -20zM597 40q32 0 49.5 14.5t25 38t7.5 47.5t-7.5 47.5t-25 38.5t-49.5 15q-48 0 -67.5 -31
t-19.5 -70t20 -69.5t67 -30.5zM198 420q-44 0 -74.5 19.5t-45.5 53t-15 75.5q0 43 15 76t46 52t75 19t73.5 -20t44.5 -53.5t15 -73.5t-15.5 -74t-45.5 -54t-73 -20zM199 467q32 0 49.5 14.5t25.5 38t8 48.5q0 24 -8 47t-25.5 38t-49.5 15q-47 0 -67 -30.5t-20 -69.5
q0 -40 20 -70.5t67 -30.5z" />
    <glyph glyph-name="arrowup" unicode="&#x2191;" horiz-adv-x="698" 
d="M325 0v567l-225 -266l-37 30l286 336l286 -336l-37 -31l-225 267v-567h-48z" />
    <glyph glyph-name="uni2197" unicode="&#x2197;" horiz-adv-x="698" 
d="M131 80l-34 34l401 401l-348 -29l-4 48l439 35l-35 -440l-48 4l30 348z" />
    <glyph glyph-name="arrowright" unicode="&#x2192;" horiz-adv-x="698" 
d="M347 46l-31 37l267 226h-567v48h567l-267 225l31 37l335 -286z" />
    <glyph glyph-name="uni2198" unicode="&#x2198;" horiz-adv-x="698" 
d="M585 97l-440 34l4 49l348 -30l-401 401l34 34l401 -401l-29 348l48 4z" />
    <glyph glyph-name="arrowdown" unicode="&#x2193;" horiz-adv-x="698" 
d="M350 0l-287 335l37 32l225 -268v568h48v-568l226 267l36 -31z" />
    <glyph glyph-name="uni2199" unicode="&#x2199;" horiz-adv-x="698" 
d="M113 97l34 440l49 -4l-30 -348l401 401l34 -35l-401 -401l348 30l4 -48z" />
    <glyph glyph-name="arrowleft" unicode="&#x2190;" horiz-adv-x="698" 
d="M350 47l-335 286l335 286l32 -37l-268 -225h568v-48h-568l267 -225z" />
    <glyph glyph-name="uni2196" unicode="&#x2196;" horiz-adv-x="698" 
d="M567 81l-401 401l30 -348l-48 -4l-35 439l440 -34l-5 -49l-348 30l401 -401z" />
    <glyph glyph-name="uni21A9" unicode="&#x21a9;" horiz-adv-x="1152" 
d="M370 -283l-307 309l307 308l34 -39l-248 -244h607q86 0 146.5 38t92.5 103.5t32 147.5q0 81 -32 146t-92.5 103t-146.5 38h-563v51h565q77 0 137 -25t101.5 -70.5t63.5 -107.5t22 -135q0 -74 -21.5 -136.5t-63 -108t-101.5 -70.5t-136 -25h-611l249 -244z" />
    <glyph glyph-name="uni21B6" unicode="&#x21b6;" horiz-adv-x="1021" 
d="M388 -26l-325 114l19 50l242 -93q-42 43 -66.5 95.5t-34.5 107t-10 102.5q1 112 46 199.5t127.5 138t198.5 50.5q105 0 184 -45t128 -122.5t61 -177.5h-61q-11 82 -52.5 147.5t-107.5 103t-152 37.5q-98 0 -168.5 -44t-108 -119t-37.5 -168q0 -40 8 -86.5t29 -95.5
t58 -97l73 249l49 -12z" />
    <glyph glyph-name="uni21B7" unicode="&#x21b7;" horiz-adv-x="1021" 
d="M633 -26l-100 334l49 12l73 -249q38 48 58.5 97t28.5 95.5t8 86.5q0 93 -37.5 168t-108 119t-168.5 44q-86 0 -152 -37.5t-107.5 -103t-53.5 -147.5h-60q13 100 61 177.5t128 122.5t184 45q116 0 198.5 -50.5t127.5 -138t45 -199.5q0 -48 -9.5 -102.5t-33.5 -107
t-67 -95.5l242 93l19 -50z" />
    <glyph glyph-name="uni21BA" unicode="&#x21ba;" horiz-adv-x="932" 
d="M440 -51q-115 0 -199.5 49t-130.5 136t-47 201q0 91 31.5 171t94.5 145l39 -41q-51 -58 -79 -128.5t-27 -146.5q0 -70 22.5 -130t64 -105t99.5 -70.5t130 -25.5q75 0 133.5 25t99.5 70.5t62.5 104.5t22.5 127q0 63 -21.5 127t-62.5 121.5t-100 98.5l-7 -251h-51l11 346
l344 -23l-4 -51l-264 19q72 -46 119.5 -107t71.5 -132t24 -151q-1 -79 -27 -148t-75 -121t-118 -81t-156 -29z" />
    <glyph glyph-name="uni21BB" unicode="&#x21bb;" horiz-adv-x="932" 
d="M492 -51q-86 0 -155.5 29t-118.5 81t-75 121t-26 148q0 80 23.5 151t71 132t119.5 107l-264 -19l-4 51l345 23l10 -346h-51l-7 251q-58 -41 -99.5 -98.5t-63 -122t-20.5 -126.5q0 -68 21.5 -127t63 -104.5t100 -70.5t132.5 -25q72 0 130 25.5t99.5 70.5t64 105t23.5 130
q0 76 -27.5 146.5t-79.5 128.5l39 41q64 -65 95 -145t31 -168q0 -115 -46 -202.5t-130.5 -137t-200.5 -49.5z" />
    <glyph glyph-name="uni27F5" unicode="&#x27f5;" horiz-adv-x="1376" 
d="M370 -45l-307 309l307 310l36 -41l-249 -243h1156v-51h-1156l249 -243z" />
    <glyph glyph-name="rightLongArrow" unicode="&#x27f6;" horiz-adv-x="1376" 
d="M1006 -45l-36 41l249 243h-1156v51h1156l-249 243l36 41l307 -310z" />
    <glyph glyph-name="uni0308" unicode="&#x308;" 
d="M107 620q-20 0 -32 13t-12 32t12 31.5t32 12.5q21 0 34 -12t13 -32t-13 -32.5t-34 -12.5zM-108 620q-20 0 -32.5 13t-12.5 32t12.5 31.5t32.5 12.5q21 0 33.5 -12t12.5 -32t-12.5 -32.5t-33.5 -12.5z" />
    <glyph glyph-name="uni0307" unicode="&#x307;" 
d="M0 619q-20 0 -32.5 12t-12.5 34q0 21 13 32.5t33 11.5q19 0 32 -12t13 -32q0 -21 -13.5 -33.5t-32.5 -12.5z" />
    <glyph glyph-name="gravecomb" unicode="&#x300;" 
d="M-18 613l-92 131h64l79 -131h-51z" />
    <glyph glyph-name="acutecomb" unicode="&#x301;" 
d="M-25 615l79 131h64l-92 -131h-51z" />
    <glyph glyph-name="uni030B" unicode="&#x30b;" 
d="M19 613l79 131h64l-92 -131h-51zM-114 613l79 131h64l-92 -131h-51z" />
    <glyph glyph-name="uni030C.alt" 
d="M124 513l-18 25q13 8 24.5 20t21 28t11.5 35q-17 -2 -35 8.5t-18 36.5q0 21 13 33.5t35 12.5q25 0 37.5 -18t12.5 -45q0 -29 -11 -55.5t-29.5 -47.5t-43.5 -33z" />
    <glyph glyph-name="uni0302" unicode="&#x302;" 
d="M-139 613l118 139h42l118 -139h-57l-83 97l-80 -97h-58z" />
    <glyph glyph-name="uni030C" unicode="&#x30c;" 
d="M-20 613l-119 139h57l83 -97l81 97h57l-118 -139h-41z" />
    <glyph glyph-name="uni0306" unicode="&#x306;" 
d="M-1 624q-63 0 -105.5 25t-48.5 86h52q6 -39 34 -53t69 -14q40 0 68.5 14t34.5 53h52q-4 -40 -25.5 -64.5t-55 -35.5t-75.5 -11z" />
    <glyph glyph-name="uni030A" unicode="&#x30a;" 
d="M0 588q-41 0 -65 23t-24 62q0 40 24.5 65.5t64.5 25.5q41 0 65.5 -26t24.5 -65q0 -40 -25.5 -62.5t-64.5 -22.5zM-1 623q24 0 37.5 14t13.5 37q0 24 -13 39t-37 15t-37 -15t-13 -39q0 -23 13 -37t36 -14z" />
    <glyph glyph-name="tildecomb" unicode="&#x303;" 
d="M64 606q-24 0 -41.5 11.5t-32 26t-28 26t-28.5 11.5q-18 0 -27 -12t-11 -28t-1 -30h-48q0 30 8 55t27.5 40.5t53.5 15.5q24 0 41.5 -11.5t32 -26t28 -26t28.5 -11.5q19 0 27.5 11.5t10.5 28t2 31.5h48q-1 -30 -9 -56t-27 -41t-54 -15z" />
    <glyph glyph-name="uni0304" unicode="&#x304;" 
d="M-152 639v48h305v-48h-305z" />
    <glyph glyph-name="uni0312" unicode="&#x312;" 
d="M0 617q-25 0 -38 19t-13 45q0 28 10.5 54t29.5 47.5t44 33.5l18 -25q-15 -8 -27 -21t-19.5 -29t-10.5 -33q22 2 37.5 -9.5t15.5 -35.5q0 -22 -13.5 -34t-33.5 -12z" />
    <glyph glyph-name="uni0326" unicode="&#x326;" 
d="M-33 -301l-18 24q13 8 24.5 20.5t20.5 28.5t12 34q-17 -2 -35 8.5t-18 36.5q0 21 13.5 33.5t33.5 12.5q26 0 38.5 -18.5t12.5 -42.5q0 -30 -11 -57t-30 -47.5t-43 -32.5z" />
    <glyph glyph-name="uni0327" unicode="&#x327;" 
d="M-41 -249q-10 -1 -19 -1h-19v37q15 -2 35 -0.5t38 8t30 20t12 36.5q0 17 -8.5 27t-22 14.5t-27.5 4.5q-11 0 -27 -3t-28 -6l37 127h38l-25 -87q9 2 16 2.5t15 0.5q34 0 54.5 -20.5t20.5 -58.5q0 -35 -17 -57t-44.5 -32t-58.5 -12z" />
    <glyph glyph-name="uni0328" unicode="&#x328;" 
d="M29 -209q-51 1 -84 26.5t-33 75.5q0 39 25.5 70.5t58.5 47.5l36 -9q-27 -17 -48 -43t-21 -57q0 -34 19.5 -50.5t52.5 -16.5q10 0 22 2t21 6l10 -39q-14 -7 -28.5 -10t-30.5 -3z" />
    <glyph glyph-name="uni0308.narrow" 
d="M97 620q-20 0 -32 12.5t-12 31.5q0 18 12 30.5t32 12.5t32.5 -12t12.5 -31q0 -20 -12.5 -32t-32.5 -12zM245 620q-20 0 -32 12.5t-12 31.5q0 18 12 30.5t32 12.5t32.5 -12t12.5 -31q0 -20 -12.5 -32t-32.5 -12z" />
    <glyph glyph-name="dieresis" unicode="&#xa8;" horiz-adv-x="517" 
d="M366 626q-20 0 -32.5 13t-12.5 32t12.5 31.5t32.5 12.5q21 0 33.5 -12t12.5 -32t-12.5 -32.5t-33.5 -12.5zM150 626q-20 0 -32.5 13t-12.5 32t12.5 31.5t32.5 12.5q21 0 34 -12t13 -32t-13 -32.5t-34 -12.5z" />
    <glyph glyph-name="dotaccent" unicode="&#x2d9;" horiz-adv-x="565" 
d="M282 626q-20 0 -32.5 12t-12.5 33t13 32.5t33 11.5q19 0 32 -12t13 -32q0 -21 -13.5 -33t-32.5 -12z" />
    <glyph glyph-name="grave" unicode="`" 
d="M-18 613l-92 131h64l79 -131h-51z" />
    <glyph glyph-name="acute" unicode="&#xb4;" 
d="M-25 615l79 131h64l-92 -131h-51z" />
    <glyph glyph-name="hungarumlaut" unicode="&#x2dd;" horiz-adv-x="456" 
d="M246 633l79 132h64l-92 -132h-51zM113 633l79 132h64l-92 -132h-51z" />
    <glyph glyph-name="circumflex" unicode="&#x2c6;" horiz-adv-x="524" 
d="M123 626l118 139h41l119 -139h-57l-83 97l-81 -97h-57z" />
    <glyph glyph-name="caron" unicode="&#x2c7;" horiz-adv-x="524" 
d="M241 626l-118 139h57l83 -97l80 97h58l-118 -139h-42z" />
    <glyph glyph-name="breve" unicode="&#x2d8;" horiz-adv-x="546" 
d="M272 624q-63 0 -105.5 25t-48.5 86h52q6 -39 34 -53t69 -14q40 0 68.5 14t34.5 53h52q-4 -40 -26 -64.5t-55.5 -35.5t-74.5 -11z" />
    <glyph glyph-name="ring" unicode="&#x2da;" horiz-adv-x="564" 
d="M282 609q-41 0 -65 23t-24 62t24.5 64.5t64.5 25.5q41 0 65.5 -25.5t24.5 -64.5q0 -40 -25.5 -62.5t-64.5 -22.5zM281 644q24 0 37.5 13.5t13.5 37.5t-13 38.5t-37 14.5t-37 -14.5t-13 -38.5t13 -37.5t36 -13.5z" />
    <glyph glyph-name="tilde" unicode="&#x2dc;" 
d="M64 606q-24 0 -41.5 11.5t-32 26t-28 26t-28.5 11.5q-18 0 -27 -12t-11 -28t-1 -30h-48q0 30 8 55t27.5 40.5t53.5 15.5q24 0 41.5 -11.5t32 -26t28 -26t28.5 -11.5q19 0 27.5 11.5t10.5 28t2 31.5h48q-1 -30 -9 -56t-27 -41t-54 -15z" />
    <glyph glyph-name="macron" unicode="&#xaf;" horiz-adv-x="556" 
d="M125 652v48h306v-48h-306z" />
    <glyph glyph-name="cedilla" unicode="&#xb8;" horiz-adv-x="583" 
d="M271 -249q-10 -1 -19 -1h-19v37q15 -2 35 -0.5t38 8t30 20t12 36.5q0 17 -8.5 27t-22 14.5t-27.5 4.5q-11 0 -27 -3t-28 -6l37 127h38l-25 -87q9 2 16 2.5t15 0.5q34 0 54.5 -20.5t20.5 -58.5q0 -35 -17 -57t-44.5 -32t-58.5 -12z" />
    <glyph glyph-name="ogonek" unicode="&#x2db;" horiz-adv-x="509" 
d="M284 -209q-51 1 -84 26.5t-33 75.5q0 39 25.5 70.5t58.5 47.5l36 -9q-28 -17 -49 -43t-21 -57q0 -34 20 -50.5t53 -16.5q10 0 21.5 2t21.5 6l10 -39q-14 -7 -28.5 -10t-30.5 -3z" />
    <glyph glyph-name="a2_alt" horiz-adv-x="607" 
d="M285 -7q-67 0 -112 23.5t-71.5 62.5t-38.5 87t-12 97q0 74 27 135.5t81 98.5t134 37q63 0 110.5 -26t75.5 -70l1 89h56v-527h-56v95q-29 -48 -78 -75t-117 -27zM293 42q62 0 104 32t63.5 83t21.5 108q0 61 -21 111t-62.5 79t-105.5 29q-65 0 -106 -30.5t-60.5 -81
t-19.5 -108.5q0 -61 19 -111.5t60 -80.5t107 -30z" />
    <glyph glyph-name="alt_1" horiz-adv-x="490" 
d="M51 0v52h196v538h-152v38q44 1 78.5 5t58 20.5t33.5 53.5h40v-655h162v-52h-416z" />
    <glyph glyph-name="be_alt" horiz-adv-x="572" 
d="M287 -7q-70 0 -116.5 25t-73 69.5t-38 102t-11.5 122.5q0 68 5.5 122t20 95.5t42 73.5t71.5 56q22 12 52.5 23t65 22t65.5 21q29 9 63 23.5t55 34.5l33 -44q-23 -25 -60 -39t-73 -25q-43 -14 -83 -27t-76 -28q-42 -20 -69.5 -50.5t-41 -78t-14.5 -121.5q24 48 59 72
t73 33.5t71 9.5q71 0 119 -31.5t73.5 -85t25.5 -121.5q0 -73 -28 -130.5t-81 -90.5t-129 -33zM287 42q59 0 100 28t61.5 74t20.5 100q0 52 -20 95t-58.5 69t-93.5 26q-59 0 -100.5 -27t-63 -72.5t-21.5 -99.5q0 -51 20.5 -95t59.5 -71t95 -27z" />
    <glyph glyph-name="l2_alt" horiz-adv-x="323" 
d="M213 -7q-54 0 -84.5 20.5t-43 58.5t-12.5 89v546h57v-534q0 -35 5 -64.5t24 -48t59 -18.5q18 0 38 6t34 17l23 -43q-23 -17 -48.5 -23t-51.5 -6z" />
    <glyph glyph-name="logo" horiz-adv-x="2943" 
d="M426 335q-6 0 -10 3.5t-6 3.5l-93 94h-110l-20 -19q-4 -6 -14 -6h-37q-8 0 -14.5 5.5t-6.5 13.5q0 7 7 14l25 26q8 5 14 5h37h1h106v36l-26 26h-118l-25 -20v-26q0 -8 -6 -14l-12 -13q-8 -5 -14 -5q-17 0 -19 15q-19 0 -19 19q-7 2 -12 6.5t-5 12.5q0 7 7 14l12 13
q6 6 14 6h27l0.5 0.5l1.5 1.5l31 25q4 4 12 4h39q4 13 18 13q8 0 14 -6l7 -7h55q6 0 14 -5l4 -5v20l-26 27h-135l-20 -20q-8 -5 -14 -5h-12q-6 0 -14 5l-13 13q-5 8 -5 14q0 8 4 12q-4 4 -4 13q0 6 5 14l13 12q6 6 14 6h12q8 0 14 -6l20 -19h35v28q-12 0 -18.5 15t-6.5 26
v37q0 8 5.5 14t13.5 6h51q8 0 13.5 -6t5.5 -14v-37q0 -11 -6.5 -26t-18.5 -15v-28h25q-1 1 -1 5q0 8 5.5 14t14.5 6q8 0 14 -6l36 -36q4 4 13 4q19 0 19 -19v-156l62 -62v71l-32 32q-6 6 -6 14t6 13.5t14 5.5q6 0 14 -5l4 -5v84l-95 95q-6 5 -6 14v18h-6q-19 0 -19 19
q0 8 5.5 14t13.5 6h6v6q0 8 6 13.5t14 5.5q19 0 19 -19v-6h6q8 0 13.5 -6t5.5 -14q0 -19 -19 -19h-6v-10l62 -62v120q-2 2 -2 3l-55 55q-6 6 -6 14t6 14l12 13q3 3 7 4v20q0 8 6 14l13 12q5 6 13 6q7 0 11 -3q6 6 15 6q8 0 14 -6q5 3 11 3q8 0 14 -6l12 -12q6 -6 6 -14v-20
l4 -2t3 -2l12 -13q6 -6 6 -14t-6 -14l-55 -55q0 -1 -2 -3v-120l62 62v10h-6q-19 0 -19 19q0 8 5.5 14t13.5 6h6v6q0 19 19 19q8 0 14 -5.5t6 -13.5v-6h6q8 0 13.5 -6t5.5 -14q0 -19 -19 -19h-6v-18q0 -9 -6 -14l-95 -95v-84l5 5q5 5 13 5q11 0 15.5 -6t4.5 -13q0 -8 -6 -14
l-32 -32v-71l62 62v156q0 19 19 19q9 0 13 -4l37 36q5 6 14 6q8 0 13.5 -6t5.5 -14q0 -1 -0.5 -2t-0.5 -3h25v28q-12 0 -18.5 15t-6.5 26v37q0 8 5.5 14t13.5 6h51q8 0 13.5 -6t5.5 -14v-37q0 -11 -6.5 -26t-18.5 -15v-28h36l19 19q6 6 14 6h12q8 0 14 -6l13 -12q6 -6 6 -14
q0 -5 -5 -13q5 -5 5 -12q0 -8 -6 -14l-13 -13q-8 -5 -14 -5h-12q-6 0 -14 5l-19 20h-136l-26 -27v-20l4 5q8 5 14 5h55l7 7q6 6 14 6q14 0 18 -13h39q8 0 12 -4l31 -25q1 -1 1.5 -1t1.5 -1h26q8 0 14 -6l12 -13q6 -6 6 -14q0 -6 -1 -7q-5 -9 -14 -12q0 -8 -6 -13.5t-14 -5.5
q-3 -15 -19 -15q-6 0 -14 5l-12 13q-6 6 -6 14v26l-25 20h-118l-26 -26v-36h144q9 0 14 -5l25 -26q6 -6 6 -14q0 -19 -19 -19h-38q-8 0 -14 6l-20 19h-109l-94 -94q-2 0 -6 -3.5t-9 -3.5zM204 0q-12 0 -12 13v349q0 13 12 13h61q12 0 21 -9l132 -132q2 -2 6 -2q5 0 7 2
l132 132q9 9 21 9h61q12 0 12 -13v-349q0 -13 -12 -13h-61q-13 0 -13 13v219q0 3 -4 3q-1 0 -2 -1l-118 -118q-10 -9 -22 -9h-1q-11 0 -22 9l-118 118q-1 1 -3 1q-4 0 -4 -3v-219q0 -13 -12 -13h-61zM904 -6q-57 0 -102 23.5t-71 67t-26 103.5q0 54 25 98t70 69.5t104 25.5
q58 0 102.5 -23.5t70.5 -66.5t26 -103q0 -57 -26 -100.5t-70.5 -68.5t-102.5 -25zM904 74q53 0 80.5 33.5t27.5 80.5q0 51 -31.5 82t-76.5 31q-47 0 -77.5 -31t-30.5 -82q0 -49 31.5 -81.5t76.5 -32.5zM1156 0q-9 0 -9 9v357q0 9 9 9h67q9 0 9 -9v-281q0 -4 5 -4h139
q9 0 9 -9v-63q0 -9 -9 -9h-220zM1547 -1q-15 0 -46.5 0.5t-58.5 0.5q-9 0 -9 9v357q0 9 9 9q11 0 32.5 0.5t43.5 0.5h33q75 0 121.5 -25.5t67.5 -67.5t21 -92q0 -52 -24 -96t-71.5 -70t-118.5 -26zM1549 80q56 0 88.5 28.5t32.5 82.5q0 52 -34 78.5t-86 26.5h-13t-14 -1
q-5 0 -5 -5v-205q0 -6 11.5 -5.5t19.5 0.5zM2003 -6q-57 0 -102 23.5t-71 67t-26 103.5q0 54 25 98t70 69.5t104 25.5q58 0 102.5 -23.5t70.5 -66.5t26 -103q0 -57 -26 -100.5t-70.5 -68.5t-102.5 -25zM2003 74q53 0 80.5 33.5t27.5 80.5q0 51 -31.5 82t-76.5 31
q-47 0 -77.5 -31t-30.5 -82q0 -49 31.5 -81.5t76.5 -32.5zM2358 0q-7 0 -12 9l-146 357q-1 1 -1 3q0 6 6 6h76q8 0 12 -9l91 -234q0 -2 2 -2q1 1 1 2l87 234q5 9 13 9h70q6 0 6 -6q0 -1 -0.5 -1.5t-0.5 -1.5l-142 -357q-4 -9 -13 -9h-49zM2497 0q-6 0 -6 6q0 2 1 3l141 358
q5 8 12 8h56q7 0 12 -8l141 -358q0 -1 0.5 -1.5t0.5 -1.5q0 -6 -6 -6h-70q-9 0 -11 9l-25 66q-1 4 -6 4h-133q-5 0 -6 -4l-24 -66q-4 -9 -12 -9h-65zM2635 159h71q3 0 3 3v1l-37 98l-1 1q-1 -1 -1.5 -1h-0.5l-37 -98v-1q0 -3 3 -3z" />
    <glyph glyph-name="logom" horiz-adv-x="848" 
d="M409 344l-95 95h-110l-20 -20q-6 -6 -14 -6h-38q-13 0 -18 12t4 22l25 25q6 6 14 6h146v36l-27 26h-118l-25 -20v-27t-7 -14l-5 -5l-7 -7q-8 -8 -19.5 -5t-13.5 15q-19 0 -19 19q-12 3 -15 14t5 19l12 12q7 7 14 7h27l34 27q5 5 12 5h39q4 10 14 12t18 -5l7 -7h55
q7 0 10.5 -3t8.5 -8v21l-27 26h-136l-18 -18t-10 -6t-18 -1q-8 0 -14 5.5t-13 12.5q-11 14 -1 27q-10 13 -1.5 22.5t15.5 16.5q5 6 12 6h15t14 -6l19 -19h36v28q-26 11 -26 41v38q0 8 6 14t14 6h51q8 0 14 -6t6 -14v-38q0 -30 -26 -41v-28h25q-4 14 9.5 23t23.5 -4l37 -36
q1 1 1.5 1t1.5 1q6 2 9 2q8 0 14 -6t6 -14v-156l62 -63v72l-32 32q-9 9 -5 19t14 14.5t19 -5.5l4 -5v84l-95 96q-6 6 -6 14v18h-6q-13 0 -17.5 10t0 20t17.5 10h6v5q0 13 9.5 17.5t19.5 0t10 -17.5v-5h6q13 0 17.5 -10t0 -20t-17.5 -10h-6v-10l62 -62v121q0 1 -7.5 9t-18 19
t-19.5 19.5t-12 11.5q-6 5 -6 13.5t6 14.5q4 4 9 9.5t10 7.5v21.5t4 9.5l15 15q11 12 24 3q8 7 17 6t13 -6q11 8 20.5 0t16.5 -16q6 -6 6 -14.5v-18.5q5 -2 10 -7.5t9 -9.5q6 -6 6 -14.5t-6 -13.5q-3 -3 -12 -11.5t-19.5 -19.5t-18 -19t-7.5 -9v-121l62 62v10h-6
q-13 0 -17.5 10t0 20t17.5 10h6v5q0 13 10 17.5t19.5 0t9.5 -17.5v-5h6q13 0 17.5 -10t0 -20t-17.5 -10h-6v-18t-5 -14l-96 -96v-84q4 5 7.5 8t10.5 3q14 0 18.5 -12.5t-4.5 -21.5l-32 -32v-72l62 63v156q0 13 11 18.5t21 -2.5l37 36q11 13 24 4t9 -23h25v28q-26 11 -26 41
v38q0 8 6 14t14 6h51q8 0 14 -6t6 -14v-38q0 -30 -26 -41v-28h36l18 18t10 6t18 1q8 0 14 -5.5t13 -12.5q11 -14 1 -27q10 -12 1.5 -22t-15.5 -17q-5 -5 -12 -5.5t-15 -0.5t-14 6l-19 19h-136l-27 -26v-21q5 5 8.5 8t10.5 3h55q5 5 9 8.5t12 3.5q14 0 18 -12h39q7 0 12 -5
l34 -27h27t11 -4l15 -15q10 -8 5 -21q-4 -9 -15 -12q0 -19 -19 -19q-2 -11 -13 -14q-12 -4 -20 4l-12 12q-7 7 -7 14v27l-25 20h-118l-27 -26v-36h146q8 0 14 -6l25 -25q9 -9 4 -21.5t-18 -12.5h-36t-14.5 5t-21.5 21h-110l-95 -95q-7 -8 -15.5 -8t-14.5 8zM201 0
q-13 0 -13 13v351q0 13 13 13h61q12 0 22 -9l132 -133q7 -6 13 0l133 133q11 9 22 9h61q12 0 12 -13v-351q0 -13 -12 -13h-61q-13 0 -13 13v220q0 2 -2.5 3.5t-4.5 -0.5l-119 -120q-9 -8 -22 -8t-22 8l-120 120q-2 2 -4 0.5t-2 -3.5v-220q0 -13 -13 -13h-61z" />
    <glyph glyph-name="map" horiz-adv-x="686" 
d="M295 0q-5 0 -5 5v23q0 2 -2 4l-9 9q-3 4 0 7l12 12q6 4 0 8l-12 12q-1 1 -1 4v85q0 3 1 4l14 13q1 1 1 4v119q0 3 -1 4l-13 12q-1 1 -1 4v23q0 3 -2 3l-46 47q-2 2 -2 4v21q0 3 -1 4l-46 46q-2 2 -2 3v26q0 3 -1 4l-31 30q-1 1 -1 4v29q0 2 -2 4l-21 21q-2 2 -2 4v26
q0 3 -1 4l-23 23q-2 2 -4 2h-42q-5 0 -5 5v2q0 3 1 4l16 16q2 2 4 2h39q3 0 4 1l19 19q2 2 4 2h96q2 0 4 -2l46 -46q1 -1 3 -1h33q5 0 5 -5v-25q0 -5 6 -5h6q3 0 4 1l16 17q1 1 4 1h32q5 0 5 -5v-26q0 -2 2 -4l20 -20q4 -3 7 0l10 10q1 1 4 1h6q6 0 6 -5v-79q0 -2 -2 -4
l-6 -6q-4 -4 0 -8l59 -59q1 -1 3 -1h12q5 0 5 -5v-34v-37q0 -2 2 -4l22 -22q2 -2 4 -2h12q3 0 4 -1l16 -17q2 -2 2 -4v-37q0 -2 -2 -4l-6 -5q-4 -4 0 -8l21 -20q1 -1 1 -4q0 -5 -5 -5h-19h-14q-2 0 -3 1l-9 9q-3 4 -7 0l-11 -11q-5 -3 -8 0l-15 15q-3 3 -8 0l-27 -27
q-2 -2 -3 -2h-9q-5 0 -5 6v34q0 4 -3.5 5t-5.5 -1l-22 -22q-1 -1 -1 -3v-27q0 -3 1 -4l10 -10q4 -3 0 -7l-20 -20q-1 -1 -1 -4v-25q0 -2 -2 -4l-22 -22q-1 -1 -1 -3v-12q0 -2 -2 -4l-12 -12q-2 -2 -3 -2h-9q-2 0 -3 -1l-10 -10q-2 -2 -2 -4v-38q0 -6 -5 -6h-20q-3 0 -4 -1
l-14 -15q-1 0 -1.5 -0.5t-2.5 -0.5h-3z" />
    <glyph glyph-name="tab_1" horiz-adv-x="667" 
d="M115 0v52h199v536h-169v39h59q32 0 57.5 7.5t43 25t25.5 47.5h42v-655h186v-52h-443z" />
    <glyph glyph-name="y2_alt" horiz-adv-x="542" 
d="M85 -239v55q51 0 82 16.5t53 49t41 80.5l-237 565h67l202 -495l169 495h64l-170 -476q-9 -26 -21.5 -59.5t-28 -68.5t-33 -64.5t-37.5 -47.5q-33 -30 -65 -40t-77 -10h-9z" />
    <glyph glyph-name="a00E2.alt" horiz-adv-x="553" 
d="M225 -6q-45 0 -85 14.5t-64 46t-24 82.5q0 38 15.5 65t41.5 44.5t57 27.5t62 15q37 7 87 10.5t113 7.5q0 52 -15 92t-48 63t-87 23q-42 0 -79 -13t-58 -52h-61q13 42 44 66.5t72 36t83 11.5q78 0 122.5 -33t64 -89t19.5 -125v-287h-55l-2 79q-26 -33 -61 -52t-71.5 -26
t-70.5 -7zM231 42q53 0 97.5 19t72.5 57.5t28 96.5v45q-36 -2 -78.5 -5t-83.5 -8.5t-74 -15.5q-39 -11 -62 -35t-23 -57q0 -38 20 -59t48.5 -29.5t54.5 -8.5zM146 644l118 139h42l118 -139h-57l-83 97l-80 -97h-58z" />
    <glyph glyph-name="a00E4.alt" horiz-adv-x="553" 
d="M225 -6q-45 0 -85 14.5t-64 46t-24 82.5q0 38 15.5 65t41.5 44.5t57 27.5t62 15q37 7 87 10.5t113 7.5q0 52 -15 92t-48 63t-87 23q-42 0 -79 -13t-58 -52h-61q13 42 44 66.5t72 36t83 11.5q78 0 122.5 -33t64 -89t19.5 -125v-287h-55l-2 79q-26 -33 -61 -52t-71.5 -26
t-70.5 -7zM231 42q53 0 97.5 19t72.5 57.5t28 96.5v45q-36 -2 -78.5 -5t-83.5 -8.5t-74 -15.5q-39 -11 -62 -35t-23 -57q0 -38 20 -59t48.5 -29.5t54.5 -8.5zM396 624q-20 0 -32 13t-12 32t12 31.5t32 12.5q21 0 34 -12t13 -32t-13 -32.5t-34 -12.5zM181 624q-20 0 -32.5 13
t-12.5 32t12.5 31.5t32.5 12.5q21 0 33.5 -12t12.5 -32t-12.5 -32.5t-33.5 -12.5z" />
    <glyph glyph-name="a0103.alt" horiz-adv-x="553" 
d="M225 -6q-45 0 -85 14.5t-64 46t-24 82.5q0 38 15.5 65t41.5 44.5t57 27.5t62 15q37 7 87 10.5t113 7.5q0 52 -15 92t-48 63t-87 23q-42 0 -79 -13t-58 -52h-61q13 42 44 66.5t72 36t83 11.5q78 0 122.5 -33t64 -89t19.5 -125v-287h-55l-2 79q-26 -33 -61 -52t-71.5 -26
t-70.5 -7zM231 42q53 0 97.5 19t72.5 57.5t28 96.5v45q-36 -2 -78.5 -5t-83.5 -8.5t-74 -15.5q-39 -11 -62 -35t-23 -57q0 -38 20 -59t48.5 -29.5t54.5 -8.5zM283 622q-63 0 -105.5 25t-48.5 86h52q6 -39 34 -53t69 -14q40 0 68.5 14t34.5 53h52q-4 -40 -25.5 -64.5
t-55 -35.5t-75.5 -11z" />
    <glyph glyph-name="t0163.alt" horiz-adv-x="385" 
d="M264 -7q-80 0 -111.5 45t-31.5 123v318h-91v48h91v158h56v-158h175v-48h-175v-306q0 -33 6 -63t26 -48.5t62 -19.5q20 0 39.5 6t32.5 17l23 -43q-15 -10 -31 -16.5t-33 -9.5t-38 -3zM201 -248q-10 -1 -19 -1h-19v37q15 -2 35 -0.5t38 8t30 20t12 36.5q0 17 -8.5 27
t-22 14.5t-27.5 4.5q-11 0 -27 -3t-28 -6l37 127h38l-25 -87q9 2 16 2.5t15 0.5q34 0 54.5 -20.5t20.5 -58.5q0 -35 -17 -57t-44.5 -32t-58.5 -12z" />
    <glyph glyph-name="t021b.alt" horiz-adv-x="385" 
d="M264 -7q-80 0 -111.5 45t-31.5 123v318h-91v48h91v158h56v-158h175v-48h-175v-306q0 -33 6 -63t26 -48.5t62 -19.5q20 0 39.5 6t32.5 17l23 -43q-15 -10 -31 -16.5t-33 -9.5t-38 -3zM187 -301l-18 24q13 8 24.5 20.5t20.5 28.5t12 34q-17 -2 -35 8.5t-18 36.5
q0 21 13.5 33.5t33.5 12.5q26 0 38.5 -18.5t12.5 -42.5q0 -30 -11 -57t-30 -47.5t-43 -32.5z" />
    <glyph glyph-name="t2.alt" horiz-adv-x="385" 
d="M264 -7q-80 0 -111.5 45t-31.5 123v318h-91v48h91v158h56v-158h175v-48h-175v-306q0 -33 6 -63t26 -48.5t62 -19.5q20 0 39.5 6t32.5 17l23 -43q-15 -10 -31 -16.5t-33 -9.5t-38 -3z" />
    </font>
</defs>
</svg>
