<?xml version="1.0" standalone="no"?>
<!DOCTYPE svg PUBLIC "-//W3C//DTD SVG 1.1//EN" "http://www.w3.org/Graphics/SVG/1.1/DTD/svg11.dtd" >
<svg xmlns="http://www.w3.org/2000/svg" xmlns:xlink="http://www.w3.org/1999/xlink" version="1.1">
<metadata>
Created by FontForge 20230101 at Wed Sep  6 15:02:59 2023
 By Webmaster
Copyright 2021 The Onest Project Authors (https://github.com/simpals/onest)
</metadata>
<defs>
<font id="Onest-SemiBold" horiz-adv-x="618" >
  <font-face 
    font-family="Onest SemiBold"
    font-weight="600"
    font-stretch="normal"
    units-per-em="1000"
    panose-1="0 0 0 0 0 0 0 0 0 0"
    ascent="800"
    descent="-200"
    x-height="527"
    cap-height="707"
    bbox="-191 -302 2855 970"
    underline-thickness="50"
    underline-position="-100"
    unicode-range="U+000D-27F6"
  />
<missing-glyph horiz-adv-x="556" 
d="M20 -295v1255h516v-1255h-516zM30 -285h496v1235h-496v-1235z" />
    <glyph glyph-name=".notdef" horiz-adv-x="556" 
d="M20 -295v1255h516v-1255h-516zM30 -285h496v1235h-496v-1235z" />
    <glyph glyph-name="A" unicode="A" horiz-adv-x="698" 
d="M4 0l271 707h149l270 -707h-135l-47 131h-326l-48 -131h-134zM226 244h245l-122 337z" />
    <glyph glyph-name="Aacute" unicode="&#xc1;" horiz-adv-x="698" 
d="M4 0l271 707h149l270 -707h-135l-47 131h-326l-48 -131h-134zM226 244h245l-122 337zM285 775l104 161h130l-129 -161h-105z" />
    <glyph glyph-name="Abreve" unicode="&#x102;" horiz-adv-x="698" 
d="M4 0l271 707h149l270 -707h-135l-47 131h-326l-48 -131h-134zM226 244h245l-122 337zM348 771q-85 0 -133.5 39.5t-49.5 117.5h104q1 -37 22.5 -53t57.5 -16t57.5 16t22.5 53h104q-1 -51 -23.5 -86.5t-63.5 -53t-98 -17.5z" />
    <glyph glyph-name="Acircumflex" unicode="&#xc2;" horiz-adv-x="698" 
d="M4 0l271 707h149l270 -707h-135l-47 131h-326l-48 -131h-134zM226 244h245l-122 337zM160 774l146 175h83l148 -175h-118l-71 92l-70 -92h-118z" />
    <glyph glyph-name="Adieresis" unicode="&#xc4;" horiz-adv-x="698" 
d="M4 0l271 707h149l270 -707h-135l-47 131h-326l-48 -131h-134zM226 244h245l-122 337zM468 772q-29 0 -50.5 18.5t-21.5 51.5t21.5 52.5t51.5 19.5q29 0 50.5 -19.5t21.5 -52.5t-21.5 -51.5t-51.5 -18.5zM230 772q-30 0 -51 18.5t-21 51.5t21.5 52.5t50.5 19.5
q30 0 51.5 -19.5t21.5 -52.5t-21.5 -51.5t-51.5 -18.5z" />
    <glyph glyph-name="Agrave" unicode="&#xc0;" horiz-adv-x="698" 
d="M4 0l271 707h149l270 -707h-135l-47 131h-326l-48 -131h-134zM226 244h245l-122 337zM311 774l-129 162h130l104 -162h-105z" />
    <glyph glyph-name="Amacron" unicode="&#x100;" horiz-adv-x="698" 
d="M4 0l271 707h149l270 -707h-135l-47 131h-326l-48 -131h-134zM226 244h245l-122 337zM173 806v106h350v-106h-350z" />
    <glyph glyph-name="Aogonek" unicode="&#x104;" horiz-adv-x="698" 
d="M4 0l271 707h149l270 -707h-135l-47 131h-326l-48 -131h-134zM226 244h245l-122 337zM626 -213q-60 0 -95 29.5t-35 79.5q0 41 25.5 71.5t61.5 46.5l76 -11q-29 -12 -51 -34t-22 -50q0 -25 15.5 -38.5t40.5 -13.5q11 0 22 3t22 8l14 -74q-18 -10 -36.5 -13.5t-37.5 -3.5z
" />
    <glyph glyph-name="Aring" unicode="&#xc5;" horiz-adv-x="698" 
d="M4 0l271 707h149l270 -707h-135l-47 131h-326l-48 -131h-134zM226 244h245l-122 337zM348 752q-50 0 -81 29t-31 78t32 80t81 31t80.5 -31.5t31.5 -79.5q0 -49 -32 -78t-81 -29zM348 819q19 0 30.5 11.5t11.5 29.5q0 19 -11.5 30.5t-30.5 11.5q-18 0 -29.5 -11.5
t-11.5 -30.5q0 -18 11 -29.5t30 -11.5z" />
    <glyph glyph-name="Atilde" unicode="&#xc3;" horiz-adv-x="698" 
d="M4 0l271 707h149l270 -707h-135l-47 131h-326l-48 -131h-134zM226 244h245l-122 337zM425 768q-28 0 -49 10.5t-37.5 24.5t-30 24.5t-26.5 10.5q-14 0 -20.5 -12t-7.5 -27.5t0 -25.5h-88q-2 38 7.5 73t35 57.5t71.5 22.5q26 0 45 -10.5t34.5 -24t29 -24t25.5 -10.5
q16 0 22 11.5t7 26t0 25.5h88q1 -37 -7.5 -72t-31.5 -57.5t-67 -22.5z" />
    <glyph glyph-name="AE" unicode="&#xc6;" horiz-adv-x="931" 
d="M3 0l336 707h552v-114h-340v-186h291v-112h-291v-181h340v-114h-465v131h-225l-63 -131h-135zM250 244h176v349h-14z" />
    <glyph glyph-name="B" unicode="B" horiz-adv-x="669" 
d="M78 0v707h290q49 0 90.5 -8.5t72 -29.5t47.5 -56t17 -87q0 -48 -22 -87.5t-65 -59.5q58 -15 89 -57.5t31 -110.5q0 -61 -22.5 -101.5t-62 -64.5t-91.5 -34.5t-111 -10.5h-263zM203 114h149q28 0 55 4t49 14t34.5 29.5t12.5 50.5q0 28 -10 46t-27.5 28.5t-41.5 15t-50 4.5
h-171v-192zM203 411h132q31 0 56 6t43 18.5t28 31t10 45.5q0 35 -16 52.5t-43.5 23t-61.5 5.5h-148v-182z" />
    <glyph glyph-name="C" unicode="C" horiz-adv-x="711" 
d="M376 -8q-110 0 -185 45.5t-113 126.5t-38 188t39 189t114 128.5t183 46.5q80 0 141 -27t99.5 -76.5t49.5 -121.5h-121q-14 51 -57 80t-112 29q-75 0 -121 -35t-66.5 -90t-20.5 -118q0 -65 21.5 -122t68.5 -92t121 -35q46 0 80.5 13t58 37.5t32.5 57.5h127
q-12 -71 -53.5 -121t-105 -76.5t-142.5 -26.5z" />
    <glyph glyph-name="Cacute" unicode="&#x106;" horiz-adv-x="711" 
d="M376 -8q-110 0 -185 45.5t-113 126.5t-38 188t39 189t114 128.5t183 46.5q80 0 141 -27t99.5 -76.5t49.5 -121.5h-121q-14 51 -57 80t-112 29q-75 0 -121 -35t-66.5 -90t-20.5 -118q0 -65 21.5 -122t68.5 -92t121 -35q46 0 80.5 13t58 37.5t32.5 57.5h127
q-12 -71 -53.5 -121t-105 -76.5t-142.5 -26.5zM305 775l104 161h130l-129 -161h-105z" />
    <glyph glyph-name="Ccaron" unicode="&#x10c;" horiz-adv-x="711" 
d="M376 -8q-110 0 -185 45.5t-113 126.5t-38 188t39 189t114 128.5t183 46.5q80 0 141 -27t99.5 -76.5t49.5 -121.5h-121q-14 51 -57 80t-112 29q-75 0 -121 -35t-66.5 -90t-20.5 -118q0 -65 21.5 -122t68.5 -92t121 -35q46 0 80.5 13t58 37.5t32.5 57.5h127
q-12 -71 -53.5 -121t-105 -76.5t-142.5 -26.5zM329 774l-148 175h118l71 -91l70 91h118l-147 -175h-82z" />
    <glyph glyph-name="Ccedilla" unicode="&#xc7;" horiz-adv-x="711" 
d="M376 -8q-110 0 -185 45.5t-113 126.5t-38 188t39 189t114 128.5t183 46.5q80 0 141 -27t99.5 -76.5t49.5 -121.5h-121q-14 51 -57 80t-112 29q-75 0 -121 -35t-66.5 -90t-20.5 -118q0 -65 21.5 -122t68.5 -92t121 -35q46 0 80.5 13t58 37.5t32.5 57.5h127
q-12 -71 -53.5 -121t-105 -76.5t-142.5 -26.5zM348 -262q-20 -1 -36.5 -0.5t-32.5 2.5v73q22 -2 42 -1.5t35.5 5t25 14.5t9.5 26q0 14 -9.5 21.5t-22 10t-22.5 2.5q-13 0 -29 -2.5t-27 -6.5l37 143h82l-17 -73q6 1 12 1t11 -1q36 -2 57.5 -24.5t21.5 -65.5q0 -41 -19 -67.5
t-50.5 -40t-67.5 -16.5z" />
    <glyph glyph-name="Ccircumflex" unicode="&#x108;" horiz-adv-x="711" 
d="M376 -8q-110 0 -185 45.5t-113 126.5t-38 188t39 189t114 128.5t183 46.5q80 0 141 -27t99.5 -76.5t49.5 -121.5h-121q-14 51 -57 80t-112 29q-75 0 -121 -35t-66.5 -90t-20.5 -118q0 -65 21.5 -122t68.5 -92t121 -35q46 0 80.5 13t58 37.5t32.5 57.5h127
q-12 -71 -53.5 -121t-105 -76.5t-142.5 -26.5zM180 774l146 175h83l148 -175h-118l-71 92l-70 -92h-118z" />
    <glyph glyph-name="Cdotaccent" unicode="&#x10a;" horiz-adv-x="711" 
d="M376 -8q-110 0 -185 45.5t-113 126.5t-38 188t39 189t114 128.5t183 46.5q80 0 141 -27t99.5 -76.5t49.5 -121.5h-121q-14 51 -57 80t-112 29q-75 0 -121 -35t-66.5 -90t-20.5 -118q0 -65 21.5 -122t68.5 -92t121 -35q46 0 80.5 13t58 37.5t32.5 57.5h127
q-12 -71 -53.5 -121t-105 -76.5t-142.5 -26.5zM369 768q-35 0 -56 21t-21 55q0 33 22 54.5t55 21.5q32 0 55 -21t23 -55t-22 -55t-56 -21z" />
    <glyph glyph-name="D" unicode="D" horiz-adv-x="727" 
d="M79 0v707h261q111 0 188 -42.5t117.5 -122t40.5 -190.5q0 -109 -39.5 -188t-116.5 -121.5t-189 -42.5h-262zM204 114h134q79 0 127.5 30.5t71 84t22.5 124.5q0 69 -22 123t-70.5 85.5t-127.5 31.5h-135v-479z" />
    <glyph glyph-name="Dcaron" unicode="&#x10e;" horiz-adv-x="727" 
d="M79 0v707h261q111 0 188 -42.5t117.5 -122t40.5 -190.5q0 -109 -39.5 -188t-116.5 -121.5t-189 -42.5h-262zM204 114h134q79 0 127.5 30.5t71 84t22.5 124.5q0 69 -22 123t-70.5 85.5t-127.5 31.5h-135v-479zM323 774l-148 175h118l71 -91l70 91h118l-147 -175h-82z" />
    <glyph glyph-name="Dcroat" unicode="&#x110;" horiz-adv-x="727" 
d="M79 0v300h-80v107h80v300h261q112 0 189 -42.5t117 -122t40 -191.5q0 -108 -39 -187t-115.5 -121.5t-190.5 -42.5h-262zM204 114h134q77 0 125.5 29.5t72 83t23.5 126.5q0 74 -24 127.5t-72.5 83t-123.5 29.5h-135v-186h146v-107h-146v-186z" />
    <glyph glyph-name="Eth" unicode="&#xd0;" horiz-adv-x="727" 
d="M79 0v300h-80v107h80v300h261q112 0 189 -42.5t117 -122t40 -191.5q0 -108 -39 -187t-115.5 -121.5t-190.5 -42.5h-262zM204 114h134q78 0 127 30.5t71.5 84t22.5 124.5q0 74 -24 127.5t-72.5 83t-123.5 29.5h-135v-186h146v-107h-146v-186z" />
    <glyph glyph-name="E" unicode="E" 
d="M79 0v707h499v-114h-374v-186h325v-112h-325v-181h374v-114h-499z" />
    <glyph glyph-name="Eacute" unicode="&#xc9;" 
d="M79 0v707h499v-114h-374v-186h325v-112h-325v-181h374v-114h-499zM268 775l104 161h130l-129 -161h-105z" />
    <glyph glyph-name="Ebreve" unicode="&#x114;" 
d="M79 0v707h499v-114h-374v-186h325v-112h-325v-181h374v-114h-499zM331 771q-85 0 -133.5 39.5t-49.5 117.5h104q1 -37 22.5 -53t57.5 -16t57.5 16t22.5 53h104q-1 -51 -23.5 -86.5t-63.5 -53t-98 -17.5z" />
    <glyph glyph-name="Ecaron" unicode="&#x11a;" 
d="M79 0v707h499v-114h-374v-186h325v-112h-325v-181h374v-114h-499zM291 774l-148 175h118l71 -91l70 91h118l-147 -175h-82z" />
    <glyph glyph-name="Ecircumflex" unicode="&#xca;" 
d="M79 0v707h499v-114h-374v-186h325v-112h-325v-181h374v-114h-499zM143 774l146 175h83l148 -175h-118l-71 92l-70 -92h-118z" />
    <glyph glyph-name="Edieresis" unicode="&#xcb;" 
d="M79 0v707h499v-114h-374v-186h325v-112h-325v-181h374v-114h-499zM450 772q-29 0 -50.5 18.5t-21.5 51.5t21.5 52.5t51.5 19.5q29 0 50.5 -19.5t21.5 -52.5t-21.5 -51.5t-51.5 -18.5zM212 772q-30 0 -51 18.5t-21 51.5t21.5 52.5t50.5 19.5q30 0 51.5 -19.5t21.5 -52.5
t-21.5 -51.5t-51.5 -18.5z" />
    <glyph glyph-name="Edotaccent" unicode="&#x116;" 
d="M79 0v707h499v-114h-374v-186h325v-112h-325v-181h374v-114h-499zM331 768q-35 0 -56 21t-21 55q0 33 22 54.5t55 21.5q32 0 55 -21t23 -55t-22 -55t-56 -21z" />
    <glyph glyph-name="Egrave" unicode="&#xc8;" 
d="M79 0v707h499v-114h-374v-186h325v-112h-325v-181h374v-114h-499zM294 774l-129 162h130l104 -162h-105z" />
    <glyph glyph-name="Emacron" unicode="&#x112;" 
d="M79 0v707h499v-114h-374v-186h325v-112h-325v-181h374v-114h-499zM156 806v106h350v-106h-350z" />
    <glyph glyph-name="Eogonek" unicode="&#x118;" 
d="M79 0v707h499v-114h-374v-186h325v-112h-325v-181h374v-114h-499zM554 -213q-60 0 -95 29.5t-35 79.5q0 41 25.5 71.5t61.5 46.5l76 -11q-29 -12 -51 -34t-22 -50q0 -25 15.5 -38.5t40.5 -13.5q11 0 22 3t22 8l14 -74q-18 -10 -36.5 -13.5t-37.5 -3.5z" />
    <glyph glyph-name="F" unicode="F" horiz-adv-x="602" 
d="M79 0v707h494v-114h-369v-211h316v-114h-316v-268h-125z" />
    <glyph glyph-name="G" unicode="G" horiz-adv-x="728" 
d="M375 -8q-108 0 -183 45.5t-113.5 127t-38.5 188.5q0 81 21.5 147t64 114.5t104.5 75t143 26.5q79 0 141.5 -25.5t103 -74.5t54.5 -120h-129q-8 34 -30.5 57t-56.5 35t-78 12q-57 0 -97 -20t-65 -54.5t-36.5 -79t-11.5 -94.5q0 -65 21.5 -121t68 -89.5t121.5 -33.5
q53 0 93.5 18t64 52.5t25.5 85.5h-206v108h332v-46q0 -103 -36 -178t-105.5 -115.5t-171.5 -40.5z" />
    <glyph glyph-name="Gbreve" unicode="&#x11e;" horiz-adv-x="728" 
d="M375 -8q-108 0 -183 45.5t-113.5 127t-38.5 188.5q0 81 21.5 147t64 114.5t104.5 75t143 26.5q79 0 141.5 -25.5t103 -74.5t54.5 -120h-129q-8 34 -30.5 57t-56.5 35t-78 12q-57 0 -97 -20t-65 -54.5t-36.5 -79t-11.5 -94.5q0 -65 21.5 -121t68 -89.5t121.5 -33.5
q53 0 93.5 18t64 52.5t25.5 85.5h-206v108h332v-46q0 -103 -36 -178t-105.5 -115.5t-171.5 -40.5zM363 771q-85 0 -133.5 39.5t-49.5 117.5h104q1 -37 22.5 -53t57.5 -16t57.5 16t22.5 53h104q-1 -51 -23.5 -86.5t-63.5 -53t-98 -17.5z" />
    <glyph glyph-name="Gcircumflex" unicode="&#x11c;" horiz-adv-x="728" 
d="M375 -8q-108 0 -183 45.5t-113.5 127t-38.5 188.5q0 81 21.5 147t64 114.5t104.5 75t143 26.5q79 0 141.5 -25.5t103 -74.5t54.5 -120h-129q-8 34 -30.5 57t-56.5 35t-78 12q-57 0 -97 -20t-65 -54.5t-36.5 -79t-11.5 -94.5q0 -65 21.5 -121t68 -89.5t121.5 -33.5
q53 0 93.5 18t64 52.5t25.5 85.5h-206v108h332v-46q0 -103 -36 -178t-105.5 -115.5t-171.5 -40.5zM175 774l146 175h83l148 -175h-118l-71 92l-70 -92h-118z" />
    <glyph glyph-name="uni0122" unicode="&#x122;" horiz-adv-x="728" 
d="M375 -8q-108 0 -183 45.5t-113.5 127t-38.5 188.5q0 81 21.5 147t64 114.5t104.5 75t143 26.5q79 0 141.5 -25.5t103 -74.5t54.5 -120h-129q-8 34 -30.5 57t-56.5 35t-78 12q-57 0 -97 -20t-65 -54.5t-36.5 -79t-11.5 -94.5q0 -65 21.5 -121t68 -89.5t121.5 -33.5
q53 0 93.5 18t64 52.5t25.5 85.5h-206v108h332v-46q0 -103 -36 -178t-105.5 -115.5t-171.5 -40.5zM334 -300l-30 42q13 8 27 21t26 28t16 29q-26 1 -44.5 17t-18.5 44q0 32 21 48.5t48 16.5q36 0 54 -26t18 -62q-1 -36 -17.5 -68t-43 -55.5t-56.5 -34.5z" />
    <glyph glyph-name="Gdotaccent" unicode="&#x120;" horiz-adv-x="728" 
d="M375 -8q-108 0 -183 45.5t-113.5 127t-38.5 188.5q0 81 21.5 147t64 114.5t104.5 75t143 26.5q79 0 141.5 -25.5t103 -74.5t54.5 -120h-129q-8 34 -30.5 57t-56.5 35t-78 12q-57 0 -97 -20t-65 -54.5t-36.5 -79t-11.5 -94.5q0 -65 21.5 -121t68 -89.5t121.5 -33.5
q53 0 93.5 18t64 52.5t25.5 85.5h-206v108h332v-46q0 -103 -36 -178t-105.5 -115.5t-171.5 -40.5zM363 768q-35 0 -56 21t-21 55q0 33 22 54.5t55 21.5q32 0 55 -21t23 -55t-22 -55t-56 -21z" />
    <glyph glyph-name="H" unicode="H" horiz-adv-x="737" 
d="M79 0v707h125v-302h330v302h124v-707h-124v291h-330v-291h-125z" />
    <glyph glyph-name="Hbar" unicode="&#x126;" horiz-adv-x="737" 
d="M79 0v499h-78v103h78v105h125v-105h330v105h124v-105h79v-103h-79v-499h-124v279h-330v-279h-125zM204 393h330v106h-330v-106z" />
    <glyph glyph-name="Hcircumflex" unicode="&#x124;" horiz-adv-x="737" 
d="M79 0v707h125v-302h330v302h124v-707h-124v291h-330v-291h-125zM180 774l146 175h83l148 -175h-118l-71 92l-70 -92h-118z" />
    <glyph glyph-name="I" unicode="I" horiz-adv-x="283" 
d="M79 0v707h125v-707h-125z" />
    <glyph glyph-name="IJ" unicode="&#x132;" horiz-adv-x="792" 
d="M493 -8q-54 0 -97.5 12.5t-75.5 40t-50 72t-19 108.5h124q3 -32 14 -59t35 -43t66 -16q41 0 63 17t31 45t9 63v475h125v-459q0 -59 -13 -106.5t-40 -81t-70 -51t-102 -17.5zM79 0v707h125v-707h-125z" />
    <glyph glyph-name="Iacute" unicode="&#xcd;" horiz-adv-x="283" 
d="M79 0v707h125v-707h-125zM78 775l104 161h130l-129 -161h-105z" />
    <glyph glyph-name="Ibreve" unicode="&#x12c;" horiz-adv-x="283" 
d="M79 0v707h125v-707h-125zM141 771q-85 0 -133.5 39.5t-49.5 117.5h104q1 -37 22.5 -53t57.5 -16t57.5 16t22.5 53h104q-1 -51 -23.5 -86.5t-63.5 -53t-98 -17.5z" />
    <glyph glyph-name="Icircumflex" unicode="&#xce;" horiz-adv-x="283" 
d="M79 0v707h125v-707h-125zM-47 774l146 175h83l148 -175h-118l-71 92l-70 -92h-118z" />
    <glyph glyph-name="Idieresis" unicode="&#xcf;" horiz-adv-x="283" 
d="M79 0v707h125v-707h-125zM260 772q-29 0 -50.5 18.5t-21.5 51.5t21.5 52.5t51.5 19.5q29 0 50.5 -19.5t21.5 -52.5t-21.5 -51.5t-51.5 -18.5zM22 772q-30 0 -51 18.5t-21 51.5t21.5 52.5t50.5 19.5q30 0 51.5 -19.5t21.5 -52.5t-21.5 -51.5t-51.5 -18.5z" />
    <glyph glyph-name="Idotaccent" unicode="&#x130;" horiz-adv-x="283" 
d="M79 0v707h125v-707h-125zM141 768q-35 0 -56 21t-21 55q0 33 22 54.5t55 21.5q32 0 55 -21t23 -55t-22 -55t-56 -21z" />
    <glyph glyph-name="Igrave" unicode="&#xcc;" horiz-adv-x="283" 
d="M79 0v707h125v-707h-125zM104 774l-129 162h130l104 -162h-105z" />
    <glyph glyph-name="Imacron" unicode="&#x12a;" horiz-adv-x="283" 
d="M79 0v707h125v-707h-125zM-34 806v106h350v-106h-350z" />
    <glyph glyph-name="Iogonek" unicode="&#x12e;" horiz-adv-x="283" 
d="M79 0v707h125v-707h-125zM162 -213q-60 0 -95 29.5t-35 79.5q0 41 25.5 71.5t61.5 46.5l76 -11q-29 -12 -51 -34t-22 -50q0 -25 15.5 -38.5t40.5 -13.5q11 0 22 3t22 8l14 -74q-18 -10 -36.5 -13.5t-37.5 -3.5z" />
    <glyph glyph-name="Itilde" unicode="&#x128;" horiz-adv-x="283" 
d="M79 0v707h125v-707h-125zM218 768q-28 0 -49 10.5t-37.5 24.5t-30 24.5t-26.5 10.5q-14 0 -20.5 -12t-7.5 -27.5t0 -25.5h-88q-2 38 7.5 73t35 57.5t71.5 22.5q26 0 45 -10.5t34.5 -24t29 -24t25.5 -10.5q16 0 22 11.5t7 26t0 25.5h88q1 -37 -7.5 -72t-31.5 -57.5
t-67 -22.5z" />
    <glyph glyph-name="J" unicode="J" horiz-adv-x="576" 
d="M276 -8q-53 0 -97 12.5t-75.5 40t-49.5 72t-20 108.5h125q2 -32 13 -59t35.5 -43t66.5 -16q40 0 62 17t31.5 45t9.5 63v475h124v-459q0 -59 -12.5 -106.5t-40 -81t-70 -51t-102.5 -17.5z" />
    <glyph glyph-name="Jcircumflex" unicode="&#x134;" horiz-adv-x="576" 
d="M276 -8q-53 0 -97 12.5t-75.5 40t-49.5 72t-20 108.5h125q2 -32 13 -59t35.5 -43t66.5 -16q40 0 62 17t31.5 45t9.5 63v475h124v-459q0 -59 -12.5 -106.5t-40 -81t-70 -51t-102.5 -17.5zM250 774l146 175h83l148 -175h-118l-71 92l-70 -92h-118z" />
    <glyph glyph-name="K" unicode="K" horiz-adv-x="657" 
d="M79 0v707h125v-304h101l200 304h142l-236 -346l236 -361h-145l-191 289h-107v-289h-125z" />
    <glyph glyph-name="uni0136" unicode="&#x136;" horiz-adv-x="657" 
d="M79 0v707h125v-304h101l200 304h142l-236 -346l236 -361h-145l-191 289h-107v-289h-125zM285 -300l-30 42q13 8 27 21t26 28t16 29q-26 1 -44.5 17t-18.5 44q0 32 21 48.5t48 16.5q36 0 54 -26t18 -62q-1 -36 -17.5 -68t-43 -55.5t-56.5 -34.5z" />
    <glyph glyph-name="L" unicode="L" horiz-adv-x="587" 
d="M79 0v707h125v-593h368v-114h-493z" />
    <glyph glyph-name="Lacute" unicode="&#x139;" horiz-adv-x="587" 
d="M79 0v707h125v-593h368v-114h-493zM89 775l104 161h130l-129 -161h-105z" />
    <glyph glyph-name="Lcaron" unicode="&#x13d;" horiz-adv-x="587" 
d="M79 0v707h125v-593h368v-114h-493zM352 446l-34 48q15 9 30 23t28 30t18 30q-28 2 -47.5 20t-19.5 49q0 34 21.5 52t53.5 18q40 0 59 -29t19 -66q0 -40 -18.5 -76t-47.5 -62t-62 -37z" />
    <glyph glyph-name="uni013B" unicode="&#x13b;" horiz-adv-x="587" 
d="M79 0v707h125v-593h368v-114h-493zM288 -300l-30 42q13 8 27 21t26 28t16 29q-26 1 -44.5 17t-18.5 44q0 32 21 48.5t48 16.5q36 0 54 -26t18 -62q-1 -36 -17.5 -68t-43 -55.5t-56.5 -34.5z" />
    <glyph glyph-name="Ldot" unicode="&#x13f;" horiz-adv-x="587" 
d="M79 0v707h125v-593h368v-114h-493zM393 335q-34 0 -55.5 21t-21.5 54q0 34 22 55t56 21q32 0 54.5 -20.5t22.5 -55.5q0 -33 -21.5 -54t-56.5 -21z" />
    <glyph glyph-name="Lslash" unicode="&#x141;" horiz-adv-x="596" 
d="M87 0v260l-54 -34l-56 90l110 69v322h125v-247l81 51l56 -90l-137 -85v-222h368v-114h-493z" />
    <glyph glyph-name="M" unicode="M" horiz-adv-x="885" 
d="M79 0v707h171l196 -357l194 357h166v-707h-125v549l-211 -382h-53l-213 382v-549h-125z" />
    <glyph glyph-name="N" unicode="N" horiz-adv-x="758" 
d="M79 0v707h134l341 -515v515h125v-707h-131l-344 512v-512h-125z" />
    <glyph glyph-name="Nacute" unicode="&#x143;" horiz-adv-x="758" 
d="M79 0v707h134l341 -515v515h125v-707h-131l-344 512v-512h-125zM315 775l104 161h130l-129 -161h-105z" />
    <glyph glyph-name="Ncaron" unicode="&#x147;" horiz-adv-x="758" 
d="M79 0v707h134l341 -515v515h125v-707h-131l-344 512v-512h-125zM339 774l-148 175h118l71 -91l70 91h118l-147 -175h-82z" />
    <glyph glyph-name="uni0145" unicode="&#x145;" horiz-adv-x="758" 
d="M79 0v707h134l341 -515v515h125v-707h-131l-344 512v-512h-125zM336 -300l-30 42q13 8 27 21t26 28t16 29q-26 1 -44.5 17t-18.5 44q0 32 21 48.5t48 16.5q36 0 54 -26t18 -62q-1 -36 -17.5 -68t-43 -55.5t-56.5 -34.5z" />
    <glyph glyph-name="Ntilde" unicode="&#xd1;" horiz-adv-x="758" 
d="M79 0v707h134l341 -515v515h125v-707h-131l-344 512v-512h-125zM455 768q-28 0 -49 10.5t-37.5 24.5t-30 24.5t-26.5 10.5q-14 0 -20.5 -12t-7.5 -27.5t0 -25.5h-88q-2 38 7.5 73t35 57.5t71.5 22.5q26 0 45 -10.5t34.5 -24t29 -24t25.5 -10.5q16 0 22 11.5t7 26t0 25.5
h88q1 -37 -7.5 -72t-31.5 -57.5t-67 -22.5z" />
    <glyph glyph-name="Eng" unicode="&#x14a;" horiz-adv-x="758" 
d="M438 -196v108h44q30 0 45.5 9.5t21.5 28t6 47.5l-12 10l-339 505v-512h-125v707h134l341 -516v516h125v-725q0 -60 -17 -100t-54.5 -59t-98.5 -19h-71z" />
    <glyph glyph-name="O" unicode="O" horiz-adv-x="769" 
d="M383 -8q-109 0 -185.5 46t-117 128t-40.5 187q0 107 41 188.5t118 128t186 46.5t185.5 -46t117.5 -127.5t41 -187.5q0 -105 -40.5 -187t-118 -129t-187.5 -47zM385 108q76 0 124 35t70.5 91t22.5 119q0 48 -12.5 92t-39 79t-67.5 55.5t-98 20.5q-75 0 -123.5 -35
t-71.5 -91t-23 -121q0 -64 23 -120t71.5 -90.5t123.5 -34.5z" />
    <glyph glyph-name="Oacute" unicode="&#xd3;" horiz-adv-x="769" 
d="M383 -8q-109 0 -185.5 46t-117 128t-40.5 187q0 107 41 188.5t118 128t186 46.5t185.5 -46t117.5 -127.5t41 -187.5q0 -105 -40.5 -187t-118 -129t-187.5 -47zM385 108q76 0 124 35t70.5 91t22.5 119q0 48 -12.5 92t-39 79t-67.5 55.5t-98 20.5q-75 0 -123.5 -35
t-71.5 -91t-23 -121q0 -64 23 -120t71.5 -90.5t123.5 -34.5zM321 775l104 161h130l-129 -161h-105z" />
    <glyph glyph-name="Obreve" unicode="&#x14e;" horiz-adv-x="769" 
d="M383 -8q-109 0 -185.5 46t-117 128t-40.5 187q0 107 41 188.5t118 128t186 46.5t185.5 -46t117.5 -127.5t41 -187.5q0 -105 -40.5 -187t-118 -129t-187.5 -47zM385 108q76 0 124 35t70.5 91t22.5 119q0 48 -12.5 92t-39 79t-67.5 55.5t-98 20.5q-75 0 -123.5 -35
t-71.5 -91t-23 -121q0 -64 23 -120t71.5 -90.5t123.5 -34.5zM384 771q-85 0 -133.5 39.5t-49.5 117.5h104q1 -37 22.5 -53t57.5 -16t57.5 16t22.5 53h104q-1 -51 -23.5 -86.5t-63.5 -53t-98 -17.5z" />
    <glyph glyph-name="Ocircumflex" unicode="&#xd4;" horiz-adv-x="769" 
d="M383 -8q-109 0 -185.5 46t-117 128t-40.5 187q0 107 41 188.5t118 128t186 46.5t185.5 -46t117.5 -127.5t41 -187.5q0 -105 -40.5 -187t-118 -129t-187.5 -47zM385 108q76 0 124 35t70.5 91t22.5 119q0 48 -12.5 92t-39 79t-67.5 55.5t-98 20.5q-75 0 -123.5 -35
t-71.5 -91t-23 -121q0 -64 23 -120t71.5 -90.5t123.5 -34.5zM196 774l146 175h83l148 -175h-118l-71 92l-70 -92h-118z" />
    <glyph glyph-name="Odieresis" unicode="&#xd6;" horiz-adv-x="769" 
d="M383 -8q-109 0 -185.5 46t-117 128t-40.5 187q0 107 41 188.5t118 128t186 46.5t185.5 -46t117.5 -127.5t41 -187.5q0 -105 -40.5 -187t-118 -129t-187.5 -47zM385 108q76 0 124 35t70.5 91t22.5 119q0 48 -12.5 92t-39 79t-67.5 55.5t-98 20.5q-75 0 -123.5 -35
t-71.5 -91t-23 -121q0 -64 23 -120t71.5 -90.5t123.5 -34.5zM504 772q-29 0 -50.5 18.5t-21.5 51.5t21.5 52.5t51.5 19.5q29 0 50.5 -19.5t21.5 -52.5t-21.5 -51.5t-51.5 -18.5zM266 772q-30 0 -51 18.5t-21 51.5t21.5 52.5t50.5 19.5q30 0 51.5 -19.5t21.5 -52.5
t-21.5 -51.5t-51.5 -18.5z" />
    <glyph glyph-name="Ograve" unicode="&#xd2;" horiz-adv-x="769" 
d="M383 -8q-109 0 -185.5 46t-117 128t-40.5 187q0 107 41 188.5t118 128t186 46.5t185.5 -46t117.5 -127.5t41 -187.5q0 -105 -40.5 -187t-118 -129t-187.5 -47zM385 108q76 0 124 35t70.5 91t22.5 119q0 48 -12.5 92t-39 79t-67.5 55.5t-98 20.5q-75 0 -123.5 -35
t-71.5 -91t-23 -121q0 -64 23 -120t71.5 -90.5t123.5 -34.5zM347 774l-129 162h130l104 -162h-105z" />
    <glyph glyph-name="Ohungarumlaut" unicode="&#x150;" horiz-adv-x="769" 
d="M383 -8q-109 0 -185.5 46t-117 128t-40.5 187q0 107 41 188.5t118 128t186 46.5t185.5 -46t117.5 -127.5t41 -187.5q0 -105 -40.5 -187t-118 -129t-187.5 -47zM385 108q76 0 124 35t70.5 91t22.5 119q0 48 -12.5 92t-39 79t-67.5 55.5t-98 20.5q-75 0 -123.5 -35
t-71.5 -91t-23 -121q0 -64 23 -120t71.5 -90.5t123.5 -34.5zM404 774l99 162h124l-122 -162h-101zM231 774l80 162h124l-107 -162h-97z" />
    <glyph glyph-name="Omacron" unicode="&#x14c;" horiz-adv-x="769" 
d="M383 -8q-109 0 -185.5 46t-117 128t-40.5 187q0 107 41 188.5t118 128t186 46.5t185.5 -46t117.5 -127.5t41 -187.5q0 -105 -40.5 -187t-118 -129t-187.5 -47zM385 108q76 0 124 35t70.5 91t22.5 119q0 48 -12.5 92t-39 79t-67.5 55.5t-98 20.5q-75 0 -123.5 -35
t-71.5 -91t-23 -121q0 -64 23 -120t71.5 -90.5t123.5 -34.5zM209 806v106h350v-106h-350z" />
    <glyph glyph-name="Oslash" unicode="&#xd8;" horiz-adv-x="769" 
d="M145 -111l57 147q-53 32 -89.5 78.5t-54.5 107t-18 131.5q0 106 41 188t117.5 128.5t184.5 46.5q22 0 40.5 -2t36.5 -6l42 110h121l-56 -147q54 -31 90 -77.5t54 -106.5t18 -132q0 -105 -40.5 -187t-117 -129t-186.5 -47q-21 0 -40 2t-37 6l-43 -111h-120zM249 152
l173 442q-13 3 -26 4t-27 0q-67 -3 -112.5 -37t-67.5 -88t-22 -120q0 -43 9.5 -80.5t28 -67.5t44.5 -53zM401 109q68 4 112.5 37.5t66.5 88t22 118.5q0 43 -9.5 81t-27.5 69t-46 52l-173 -442q27 -5 55 -4z" />
    <glyph glyph-name="Otilde" unicode="&#xd5;" horiz-adv-x="769" 
d="M383 -8q-109 0 -185.5 46t-117 128t-40.5 187q0 107 41 188.5t118 128t186 46.5t185.5 -46t117.5 -127.5t41 -187.5q0 -105 -40.5 -187t-118 -129t-187.5 -47zM385 108q76 0 124 35t70.5 91t22.5 119q0 48 -12.5 92t-39 79t-67.5 55.5t-98 20.5q-75 0 -123.5 -35
t-71.5 -91t-23 -121q0 -64 23 -120t71.5 -90.5t123.5 -34.5zM461 768q-28 0 -49 10.5t-37.5 24.5t-30 24.5t-26.5 10.5q-14 0 -20.5 -12t-7.5 -27.5t0 -25.5h-88q-2 38 7.5 73t35 57.5t71.5 22.5q26 0 45 -10.5t34.5 -24t29 -24t25.5 -10.5q16 0 22 11.5t7 26t0 25.5h88
q1 -37 -7.5 -72t-31.5 -57.5t-67 -22.5z" />
    <glyph glyph-name="OE" unicode="&#x152;" horiz-adv-x="1122" 
d="M385 -8q-110 0 -187 46t-117.5 128t-40.5 187q0 106 41 188t118.5 128.5t186.5 46.5q60 0 108 -15t89 -50v56h499v-114h-374v-186h326v-112h-326v-181h374v-114h-499v57q-40 -35 -89 -50t-109 -15zM385 108q53 0 93 18.5t66.5 51.5t39.5 76v198q-9 37 -34 71t-66 55.5
t-99 21.5q-72 0 -120.5 -33.5t-73 -89t-24.5 -124.5q0 -67 24 -122.5t73 -89t121 -33.5z" />
    <glyph glyph-name="P" unicode="P" horiz-adv-x="646" 
d="M79 0v707h266q80 0 138.5 -24.5t91 -77.5t32.5 -139q0 -82 -36 -137t-98 -82.5t-142 -27.5h-127v-219h-125zM204 331h125q69 0 111 33t42 104q0 62 -35 93.5t-108 31.5h-135v-262z" />
    <glyph glyph-name="Thorn" unicode="&#xde;" horiz-adv-x="642" 
d="M79 0v707h125v-114h137q81 0 139.5 -24t90.5 -76.5t32 -137.5q0 -83 -37 -137t-99 -80.5t-140 -26.5h-123v-111h-125zM204 223h121q45 0 79 13t54 42.5t20 76.5q0 67 -37.5 95t-105.5 28h-131v-255z" />
    <glyph glyph-name="Q" unicode="Q" horiz-adv-x="769" 
d="M624 -120l-103 137q-30 -12 -65 -18.5t-71 -6.5q-110 0 -187 46t-117.5 128t-40.5 187q0 106 40.5 188t118 128.5t186.5 46.5q110 0 186.5 -45.5t117 -127t40.5 -188.5q0 -87 -27.5 -154.5t-79.5 -115.5l98 -132zM383 108q77 0 125.5 35t71 91.5t22.5 120.5t-23 120
t-70.5 90.5t-123.5 34.5q-75 0 -123.5 -35t-71.5 -91.5t-23 -121.5q0 -63 22.5 -119t70.5 -90.5t123 -34.5z" />
    <glyph glyph-name="R" unicode="R" horiz-adv-x="679" 
d="M79 0v707h279q54 0 102 -10.5t85 -36t58 -69.5t21 -109q0 -54 -19 -95t-52.5 -69t-79.5 -43l155 -275h-140l-139 255h-145v-255h-125zM204 366h137q34 0 62.5 5.5t50 18.5t33 35.5t12.5 57.5q0 42 -17.5 66t-50 34t-77.5 10h-150v-227z" />
    <glyph glyph-name="Racute" unicode="&#x154;" horiz-adv-x="679" 
d="M79 0v707h279q54 0 102 -10.5t85 -36t58 -69.5t21 -109q0 -54 -19 -95t-52.5 -69t-79.5 -43l155 -275h-140l-139 255h-145v-255h-125zM204 366h137q34 0 62.5 5.5t50 18.5t33 35.5t12.5 57.5q0 42 -17.5 66t-50 34t-77.5 10h-150v-227zM275 775l104 161h130l-129 -161
h-105z" />
    <glyph glyph-name="Rcaron" unicode="&#x158;" horiz-adv-x="679" 
d="M79 0v707h279q54 0 102 -10.5t85 -36t58 -69.5t21 -109q0 -54 -19 -95t-52.5 -69t-79.5 -43l155 -275h-140l-139 255h-145v-255h-125zM204 366h137q34 0 62.5 5.5t50 18.5t33 35.5t12.5 57.5q0 42 -17.5 66t-50 34t-77.5 10h-150v-227zM299 774l-148 175h118l71 -91
l70 91h118l-147 -175h-82z" />
    <glyph glyph-name="uni0156" unicode="&#x156;" horiz-adv-x="679" 
d="M79 0v707h279q54 0 102 -10.5t85 -36t58 -69.5t21 -109q0 -54 -19 -95t-52.5 -69t-79.5 -43l155 -275h-140l-139 255h-145v-255h-125zM204 366h137q34 0 62.5 5.5t50 18.5t33 35.5t12.5 57.5q0 42 -17.5 66t-50 34t-77.5 10h-150v-227zM296 -300l-30 42q13 8 27 21t26 28
t16 29q-26 1 -44.5 17t-18.5 44q0 32 21 48.5t48 16.5q36 0 54 -26t18 -62q-1 -36 -17.5 -68t-43 -55.5t-56.5 -34.5z" />
    <glyph glyph-name="S" unicode="S" horiz-adv-x="657" 
d="M342 -8q-71 0 -133.5 21.5t-104.5 69t-55 124.5h127q12 -39 38.5 -61t62.5 -30.5t73 -8.5q33 0 62.5 8.5t49 28.5t19.5 53q0 25 -10.5 40.5t-29 26t-44.5 16.5q-25 8 -54 14t-57 13t-53 18q-32 11 -61.5 25.5t-51 35.5t-34.5 52t-13 74q0 49 16.5 84.5t44 58.5t62 36
t72 19t71.5 6q66 0 120.5 -22t89.5 -68t40 -118h-121q-4 34 -24 54.5t-50 30t-65 9.5q-24 0 -47.5 -4t-42 -14t-30 -26.5t-11.5 -41.5q0 -22 11 -38.5t30.5 -27.5t46.5 -20q35 -14 76.5 -21t78.5 -19q36 -10 66.5 -24.5t52.5 -35t34.5 -50t12.5 -70.5q0 -60 -21.5 -101.5
t-59 -67.5t-85 -37.5t-99.5 -11.5z" />
    <glyph glyph-name="Sacute" unicode="&#x15a;" horiz-adv-x="657" 
d="M342 -8q-71 0 -133.5 21.5t-104.5 69t-55 124.5h127q12 -39 38.5 -61t62.5 -30.5t73 -8.5q33 0 62.5 8.5t49 28.5t19.5 53q0 25 -10.5 40.5t-29 26t-44.5 16.5q-25 8 -54 14t-57 13t-53 18q-32 11 -61.5 25.5t-51 35.5t-34.5 52t-13 74q0 49 16.5 84.5t44 58.5t62 36
t72 19t71.5 6q66 0 120.5 -22t89.5 -68t40 -118h-121q-4 34 -24 54.5t-50 30t-65 9.5q-24 0 -47.5 -4t-42 -14t-30 -26.5t-11.5 -41.5q0 -22 11 -38.5t30.5 -27.5t46.5 -20q35 -14 76.5 -21t78.5 -19q36 -10 66.5 -24.5t52.5 -35t34.5 -50t12.5 -70.5q0 -60 -21.5 -101.5
t-59 -67.5t-85 -37.5t-99.5 -11.5zM265 775l104 161h130l-129 -161h-105z" />
    <glyph glyph-name="Scaron" unicode="&#x160;" horiz-adv-x="657" 
d="M342 -8q-71 0 -133.5 21.5t-104.5 69t-55 124.5h127q12 -39 38.5 -61t62.5 -30.5t73 -8.5q33 0 62.5 8.5t49 28.5t19.5 53q0 25 -10.5 40.5t-29 26t-44.5 16.5q-25 8 -54 14t-57 13t-53 18q-32 11 -61.5 25.5t-51 35.5t-34.5 52t-13 74q0 49 16.5 84.5t44 58.5t62 36
t72 19t71.5 6q66 0 120.5 -22t89.5 -68t40 -118h-121q-4 34 -24 54.5t-50 30t-65 9.5q-24 0 -47.5 -4t-42 -14t-30 -26.5t-11.5 -41.5q0 -22 11 -38.5t30.5 -27.5t46.5 -20q35 -14 76.5 -21t78.5 -19q36 -10 66.5 -24.5t52.5 -35t34.5 -50t12.5 -70.5q0 -60 -21.5 -101.5
t-59 -67.5t-85 -37.5t-99.5 -11.5zM288 774l-148 175h118l71 -91l70 91h118l-147 -175h-82z" />
    <glyph glyph-name="Scedilla" unicode="&#x15e;" horiz-adv-x="657" 
d="M342 -8q-71 0 -133.5 21.5t-104.5 69t-55 124.5h127q12 -39 38.5 -61t62.5 -30.5t73 -8.5q33 0 62.5 8.5t49 28.5t19.5 53q0 25 -10.5 40.5t-29 26t-44.5 16.5q-25 8 -54 14t-57 13t-53 18q-32 11 -61.5 25.5t-51 35.5t-34.5 52t-13 74q0 49 16.5 84.5t44 58.5t62 36
t72 19t71.5 6q66 0 120.5 -22t89.5 -68t40 -118h-121q-4 34 -24 54.5t-50 30t-65 9.5q-24 0 -47.5 -4t-42 -14t-30 -26.5t-11.5 -41.5q0 -22 11 -38.5t30.5 -27.5t46.5 -20q35 -14 76.5 -21t78.5 -19q36 -10 66.5 -24.5t52.5 -35t34.5 -50t12.5 -70.5q0 -60 -21.5 -101.5
t-59 -67.5t-85 -37.5t-99.5 -11.5zM322 -262q-20 -1 -36.5 -0.5t-32.5 2.5v73q22 -2 42 -1.5t35.5 5t25 14.5t9.5 26q0 14 -9.5 21.5t-22 10t-22.5 2.5q-13 0 -29 -2.5t-27 -6.5l37 143h82l-17 -73q6 1 12 1t11 -1q36 -2 57.5 -24.5t21.5 -65.5q0 -41 -19 -67.5t-50.5 -40
t-67.5 -16.5z" />
    <glyph glyph-name="Scircumflex" unicode="&#x15c;" horiz-adv-x="657" 
d="M342 -8q-71 0 -133.5 21.5t-104.5 69t-55 124.5h127q12 -39 38.5 -61t62.5 -30.5t73 -8.5q33 0 62.5 8.5t49 28.5t19.5 53q0 25 -10.5 40.5t-29 26t-44.5 16.5q-25 8 -54 14t-57 13t-53 18q-32 11 -61.5 25.5t-51 35.5t-34.5 52t-13 74q0 49 16.5 84.5t44 58.5t62 36
t72 19t71.5 6q66 0 120.5 -22t89.5 -68t40 -118h-121q-4 34 -24 54.5t-50 30t-65 9.5q-24 0 -47.5 -4t-42 -14t-30 -26.5t-11.5 -41.5q0 -22 11 -38.5t30.5 -27.5t46.5 -20q35 -14 76.5 -21t78.5 -19q36 -10 66.5 -24.5t52.5 -35t34.5 -50t12.5 -70.5q0 -60 -21.5 -101.5
t-59 -67.5t-85 -37.5t-99.5 -11.5zM140 774l146 175h83l148 -175h-118l-71 92l-70 -92h-118z" />
    <glyph glyph-name="uni0218" unicode="&#x218;" horiz-adv-x="657" 
d="M342 -8q-71 0 -133.5 21.5t-104.5 69t-55 124.5h127q12 -39 38.5 -61t62.5 -30.5t73 -8.5q33 0 62.5 8.5t49 28.5t19.5 53q0 25 -10.5 40.5t-29 26t-44.5 16.5q-25 8 -54 14t-57 13t-53 18q-32 11 -61.5 25.5t-51 35.5t-34.5 52t-13 74q0 49 16.5 84.5t44 58.5t62 36
t72 19t71.5 6q66 0 120.5 -22t89.5 -68t40 -118h-121q-4 34 -24 54.5t-50 30t-65 9.5q-24 0 -47.5 -4t-42 -14t-30 -26.5t-11.5 -41.5q0 -22 11 -38.5t30.5 -27.5t46.5 -20q35 -14 76.5 -21t78.5 -19q36 -10 66.5 -24.5t52.5 -35t34.5 -50t12.5 -70.5q0 -60 -21.5 -101.5
t-59 -67.5t-85 -37.5t-99.5 -11.5zM285 -300l-30 42q13 8 27 21t26 28t16 29q-26 1 -44.5 17t-18.5 44q0 32 21 48.5t48 16.5q36 0 54 -26t18 -62q-1 -36 -17.5 -68t-43 -55.5t-56.5 -34.5z" />
    <glyph glyph-name="uni1E9E" unicode="&#x1e9e;" horiz-adv-x="717" 
d="M476 -8q-58 0 -102.5 20.5t-70.5 59t-30 92.5h117q5 -28 28 -42.5t57 -14.5q37 0 57 19.5t20 48.5q0 32 -22.5 55t-55 39.5t-63.5 29.5q-28 11 -54 22.5t-49 20.5l141 194q-17 34 -50 49t-67 15t-64 -12.5t-48 -38.5t-18 -67v-482h-124v493q0 75 34 124t92 74t129 25
q58 0 110.5 -19t90.5 -56.5t52 -93.5l-126 -155q22 -9 44 -19t43 -22q35 -19 64 -44.5t46.5 -58.5t17.5 -78q0 -52 -24.5 -92.5t-69 -63t-105.5 -22.5z" />
    <glyph glyph-name="T" unicode="T" horiz-adv-x="586" 
d="M231 0v593h-221v114h566v-114h-221v-593h-124z" />
    <glyph glyph-name="Tbar" unicode="&#x166;" horiz-adv-x="586" 
d="M231 0v259h-119v106h119v228h-221v114h566v-114h-221v-228h119v-106h-119v-259h-124z" />
    <glyph glyph-name="Tcaron" unicode="&#x164;" horiz-adv-x="586" 
d="M231 0v593h-221v114h566v-114h-221v-593h-124zM253 774l-148 175h118l71 -91l70 91h118l-147 -175h-82z" />
    <glyph glyph-name="uni0162" unicode="&#x162;" horiz-adv-x="586" 
d="M231 0v593h-221v114h566v-114h-221v-593h-124zM286 -262q-20 -1 -36.5 -0.5t-32.5 2.5v73q22 -2 42 -1.5t35.5 5t25 14.5t9.5 26q0 14 -9.5 21.5t-22 10t-22.5 2.5q-13 0 -29 -2.5t-27 -6.5l37 143h82l-17 -73q6 1 12 1t11 -1q36 -2 57.5 -24.5t21.5 -65.5
q0 -41 -19 -67.5t-50.5 -40t-67.5 -16.5z" />
    <glyph glyph-name="uni021A" unicode="&#x21a;" horiz-adv-x="586" 
d="M231 0v593h-221v114h566v-114h-221v-593h-124zM250 -300l-30 42q13 8 27 21t26 28t16 29q-26 1 -44.5 17t-18.5 44q0 32 21 48.5t48 16.5q36 0 54 -26t18 -62q-1 -36 -17.5 -68t-43 -55.5t-56.5 -34.5z" />
    <glyph glyph-name="U" unicode="U" horiz-adv-x="734" 
d="M367 -8q-101 0 -166 39.5t-96 111.5t-31 170v394h125v-397q0 -54 15.5 -100.5t53 -74.5t101.5 -28q65 0 100.5 28.5t50 74.5t14.5 100v397h126v-394q0 -97 -31 -169t-95 -112t-167 -40z" />
    <glyph glyph-name="Uacute" unicode="&#xda;" horiz-adv-x="734" 
d="M367 -8q-101 0 -166 39.5t-96 111.5t-31 170v394h125v-397q0 -54 15.5 -100.5t53 -74.5t101.5 -28q65 0 100.5 28.5t50 74.5t14.5 100v397h126v-394q0 -97 -31 -169t-95 -112t-167 -40zM303 775l104 161h130l-129 -161h-105z" />
    <glyph glyph-name="Ubreve" unicode="&#x16c;" horiz-adv-x="734" 
d="M367 -8q-101 0 -166 39.5t-96 111.5t-31 170v394h125v-397q0 -54 15.5 -100.5t53 -74.5t101.5 -28q65 0 100.5 28.5t50 74.5t14.5 100v397h126v-394q0 -97 -31 -169t-95 -112t-167 -40zM366 771q-85 0 -133.5 39.5t-49.5 117.5h104q1 -37 22.5 -53t57.5 -16t57.5 16
t22.5 53h104q-1 -51 -23.5 -86.5t-63.5 -53t-98 -17.5z" />
    <glyph glyph-name="Ucircumflex" unicode="&#xdb;" horiz-adv-x="734" 
d="M367 -8q-101 0 -166 39.5t-96 111.5t-31 170v394h125v-397q0 -54 15.5 -100.5t53 -74.5t101.5 -28q65 0 100.5 28.5t50 74.5t14.5 100v397h126v-394q0 -97 -31 -169t-95 -112t-167 -40zM178 774l146 175h83l148 -175h-118l-71 92l-70 -92h-118z" />
    <glyph glyph-name="Udieresis" unicode="&#xdc;" horiz-adv-x="734" 
d="M367 -8q-101 0 -166 39.5t-96 111.5t-31 170v394h125v-397q0 -54 15.5 -100.5t53 -74.5t101.5 -28q65 0 100.5 28.5t50 74.5t14.5 100v397h126v-394q0 -97 -31 -169t-95 -112t-167 -40zM486 772q-29 0 -50.5 18.5t-21.5 51.5t21.5 52.5t51.5 19.5q29 0 50.5 -19.5
t21.5 -52.5t-21.5 -51.5t-51.5 -18.5zM248 772q-30 0 -51 18.5t-21 51.5t21.5 52.5t50.5 19.5q30 0 51.5 -19.5t21.5 -52.5t-21.5 -51.5t-51.5 -18.5z" />
    <glyph glyph-name="Ugrave" unicode="&#xd9;" horiz-adv-x="734" 
d="M367 -8q-101 0 -166 39.5t-96 111.5t-31 170v394h125v-397q0 -54 15.5 -100.5t53 -74.5t101.5 -28q65 0 100.5 28.5t50 74.5t14.5 100v397h126v-394q0 -97 -31 -169t-95 -112t-167 -40zM329 774l-129 162h130l104 -162h-105z" />
    <glyph glyph-name="Uhungarumlaut" unicode="&#x170;" horiz-adv-x="734" 
d="M367 -8q-101 0 -166 39.5t-96 111.5t-31 170v394h125v-397q0 -54 15.5 -100.5t53 -74.5t101.5 -28q65 0 100.5 28.5t50 74.5t14.5 100v397h126v-394q0 -97 -31 -169t-95 -112t-167 -40zM386 774l99 162h124l-122 -162h-101zM213 774l80 162h124l-107 -162h-97z" />
    <glyph glyph-name="Umacron" unicode="&#x16a;" horiz-adv-x="734" 
d="M367 -8q-101 0 -166 39.5t-96 111.5t-31 170v394h125v-397q0 -54 15.5 -100.5t53 -74.5t101.5 -28q65 0 100.5 28.5t50 74.5t14.5 100v397h126v-394q0 -97 -31 -169t-95 -112t-167 -40zM191 806v106h350v-106h-350z" />
    <glyph glyph-name="Uogonek" unicode="&#x172;" horiz-adv-x="734" 
d="M367 -8q-101 0 -166 39.5t-96 111.5t-31 170v394h125v-397q0 -54 15.5 -100.5t53 -74.5t101.5 -28q65 0 100.5 28.5t50 74.5t14.5 100v397h126v-394q0 -97 -31 -169t-95 -112t-167 -40zM415 -213q-60 0 -95 29.5t-35 79.5q0 41 25.5 71.5t61.5 46.5l76 -11
q-29 -12 -51 -34t-22 -50q0 -25 15.5 -38.5t40.5 -13.5q11 0 22 3t22 8l14 -74q-18 -10 -36.5 -13.5t-37.5 -3.5z" />
    <glyph glyph-name="Uring" unicode="&#x16e;" horiz-adv-x="734" 
d="M367 -8q-101 0 -166 39.5t-96 111.5t-31 170v394h125v-397q0 -54 15.5 -100.5t53 -74.5t101.5 -28q65 0 100.5 28.5t50 74.5t14.5 100v397h126v-394q0 -97 -31 -169t-95 -112t-167 -40zM366 752q-50 0 -81 29t-31 78t32 80t81 31t80.5 -31.5t31.5 -79.5q0 -49 -32 -78
t-81 -29zM366 819q19 0 30.5 11.5t11.5 29.5q0 19 -11.5 30.5t-30.5 11.5q-18 0 -29.5 -11.5t-11.5 -30.5q0 -18 11 -29.5t30 -11.5z" />
    <glyph glyph-name="Utilde" unicode="&#x168;" horiz-adv-x="734" 
d="M367 -8q-101 0 -166 39.5t-96 111.5t-31 170v394h125v-397q0 -54 15.5 -100.5t53 -74.5t101.5 -28q65 0 100.5 28.5t50 74.5t14.5 100v397h126v-394q0 -97 -31 -169t-95 -112t-167 -40zM443 768q-28 0 -49 10.5t-37.5 24.5t-30 24.5t-26.5 10.5q-14 0 -20.5 -12
t-7.5 -27.5t0 -25.5h-88q-2 38 7.5 73t35 57.5t71.5 22.5q26 0 45 -10.5t34.5 -24t29 -24t25.5 -10.5q16 0 22 11.5t7 26t0 25.5h88q1 -37 -7.5 -72t-31.5 -57.5t-67 -22.5z" />
    <glyph glyph-name="V" unicode="V" horiz-adv-x="704" 
d="M269 0l-261 707h136l210 -601l207 601h135l-259 -707h-168z" />
    <glyph glyph-name="W" unicode="W" horiz-adv-x="997" 
d="M188 0l-180 707h140l136 -577l134 577h170l134 -577l134 577h133l-179 -707h-176l-133 566l-134 -566h-179z" />
    <glyph glyph-name="Wacute" unicode="&#x1e82;" horiz-adv-x="997" 
d="M188 0l-180 707h140l136 -577l134 577h170l134 -577l134 577h133l-179 -707h-176l-133 566l-134 -566h-179zM435 775l104 161h130l-129 -161h-105z" />
    <glyph glyph-name="Wcircumflex" unicode="&#x174;" horiz-adv-x="997" 
d="M188 0l-180 707h140l136 -577l134 577h170l134 -577l134 577h133l-179 -707h-176l-133 566l-134 -566h-179zM310 774l146 175h83l148 -175h-118l-71 92l-70 -92h-118z" />
    <glyph glyph-name="Wdieresis" unicode="&#x1e84;" horiz-adv-x="997" 
d="M188 0l-180 707h140l136 -577l134 577h170l134 -577l134 577h133l-179 -707h-176l-133 566l-134 -566h-179zM617 772q-29 0 -50.5 18.5t-21.5 51.5t21.5 52.5t51.5 19.5q29 0 50.5 -19.5t21.5 -52.5t-21.5 -51.5t-51.5 -18.5zM379 772q-30 0 -51 18.5t-21 51.5t21.5 52.5
t50.5 19.5q30 0 51.5 -19.5t21.5 -52.5t-21.5 -51.5t-51.5 -18.5z" />
    <glyph glyph-name="Wgrave" unicode="&#x1e80;" horiz-adv-x="997" 
d="M188 0l-180 707h140l136 -577l134 577h170l134 -577l134 577h133l-179 -707h-176l-133 566l-134 -566h-179zM461 774l-129 162h130l104 -162h-105z" />
    <glyph glyph-name="X" unicode="X" horiz-adv-x="643" 
d="M8 0l237 354l-229 353h150l158 -259l156 259h147l-228 -352l236 -355h-150l-165 260l-168 -260h-144z" />
    <glyph glyph-name="Y" unicode="Y" horiz-adv-x="659" 
d="M267 0v264l-259 443h145l178 -324l178 324h142l-259 -442v-265h-125z" />
    <glyph glyph-name="Yacute" unicode="&#xdd;" horiz-adv-x="659" 
d="M267 0v264l-259 443h145l178 -324l178 324h142l-259 -442v-265h-125zM266 775l104 161h130l-129 -161h-105z" />
    <glyph glyph-name="Ycircumflex" unicode="&#x176;" horiz-adv-x="659" 
d="M267 0v264l-259 443h145l178 -324l178 324h142l-259 -442v-265h-125zM141 774l146 175h83l148 -175h-118l-71 92l-70 -92h-118z" />
    <glyph glyph-name="Ydieresis" unicode="&#x178;" horiz-adv-x="659" 
d="M267 0v264l-259 443h145l178 -324l178 324h142l-259 -442v-265h-125zM448 772q-29 0 -50.5 18.5t-21.5 51.5t21.5 52.5t51.5 19.5q29 0 50.5 -19.5t21.5 -52.5t-21.5 -51.5t-51.5 -18.5zM210 772q-30 0 -51 18.5t-21 51.5t21.5 52.5t50.5 19.5q30 0 51.5 -19.5
t21.5 -52.5t-21.5 -51.5t-51.5 -18.5z" />
    <glyph glyph-name="Ygrave" unicode="&#x1ef2;" horiz-adv-x="659" 
d="M267 0v264l-259 443h145l178 -324l178 324h142l-259 -442v-265h-125zM292 774l-129 162h130l104 -162h-105z" />
    <glyph glyph-name="Z" unicode="Z" horiz-adv-x="611" 
d="M36 0v98l374 495h-363v114h528v-97l-377 -496h370v-114h-532z" />
    <glyph glyph-name="Zacute" unicode="&#x179;" horiz-adv-x="611" 
d="M36 0v98l374 495h-363v114h528v-97l-377 -496h370v-114h-532zM242 775l104 161h130l-129 -161h-105z" />
    <glyph glyph-name="Zcaron" unicode="&#x17d;" horiz-adv-x="611" 
d="M36 0v98l374 495h-363v114h528v-97l-377 -496h370v-114h-532zM265 774l-148 175h118l71 -91l70 91h118l-147 -175h-82z" />
    <glyph glyph-name="Zdotaccent" unicode="&#x17b;" horiz-adv-x="611" 
d="M36 0v98l374 495h-363v114h528v-97l-377 -496h370v-114h-532zM305 768q-35 0 -56 21t-21 55q0 33 22 54.5t55 21.5q32 0 55 -21t23 -55t-22 -55t-56 -21z" />
    <glyph glyph-name="I_alt" horiz-adv-x="589" 
d="M41 0v115h191v478h-191v114h507v-114h-192v-478h192v-115h-507z" />
    <glyph glyph-name="K_alt" horiz-adv-x="668" 
d="M79 0v707h125v-327l301 327h156l-293 -311l286 -396h-149l-229 314l-72 -75v-239h-125z" />
    <glyph glyph-name="W_alt" horiz-adv-x="943" 
d="M189 0l-181 707h140l137 -577l125 418h133l123 -418l136 577h133l-179 -707h-172l-109 355l-108 -355h-178z" />
    <glyph glyph-name="a" unicode="a" horiz-adv-x="563" 
d="M227 -7q-37 0 -70 10t-59 29.5t-41.5 49t-15.5 69.5q0 51 20 83.5t54.5 49.5t78.5 23.5t92 6.5h103q0 35 -11 60.5t-34.5 40.5t-60.5 15q-24 0 -44.5 -5.5t-35 -17t-20.5 -29.5h-125q7 41 28.5 70.5t53 48.5t69.5 28.5t77 9.5q115 0 167.5 -66t52.5 -185v-284h-108l-3 68
q-23 -34 -55 -50t-62 -20.5t-51 -4.5zM251 92q40 0 71 15t49.5 42t18.5 62v17h-96q-24 0 -47.5 -1.5t-42.5 -8t-30.5 -19.5t-11.5 -37t12.5 -39t33 -23t43.5 -8z" />
    <glyph glyph-name="aacute" unicode="&#xe1;" horiz-adv-x="563" 
d="M227 -7q-37 0 -70 10t-59 29.5t-41.5 49t-15.5 69.5q0 51 20 83.5t54.5 49.5t78.5 23.5t92 6.5h103q0 35 -11 60.5t-34.5 40.5t-60.5 15q-24 0 -44.5 -5.5t-35 -17t-20.5 -29.5h-125q7 41 28.5 70.5t53 48.5t69.5 28.5t77 9.5q115 0 167.5 -66t52.5 -185v-284h-108l-3 68
q-23 -34 -55 -50t-62 -20.5t-51 -4.5zM251 92q40 0 71 15t49.5 42t18.5 62v17h-96q-24 0 -47.5 -1.5t-42.5 -8t-30.5 -19.5t-11.5 -37t12.5 -39t33 -23t43.5 -8zM225 597l104 161h130l-129 -161h-105z" />
    <glyph glyph-name="abreve" unicode="&#x103;" horiz-adv-x="563" 
d="M227 -7q-37 0 -70 10t-59 29.5t-41.5 49t-15.5 69.5q0 51 20 83.5t54.5 49.5t78.5 23.5t92 6.5h103q0 35 -11 60.5t-34.5 40.5t-60.5 15q-24 0 -44.5 -5.5t-35 -17t-20.5 -29.5h-125q7 41 28.5 70.5t53 48.5t69.5 28.5t77 9.5q115 0 167.5 -66t52.5 -185v-284h-108l-3 68
q-23 -34 -55 -50t-62 -20.5t-51 -4.5zM251 92q40 0 71 15t49.5 42t18.5 62v17h-96q-24 0 -47.5 -1.5t-42.5 -8t-30.5 -19.5t-11.5 -37t12.5 -39t33 -23t43.5 -8zM288 594q-85 0 -133.5 39.5t-49.5 117.5h104q1 -37 22.5 -53t57.5 -16t57.5 16t22.5 53h104
q-1 -51 -23.5 -86.5t-63.5 -53t-98 -17.5z" />
    <glyph glyph-name="acircumflex" unicode="&#xe2;" horiz-adv-x="563" 
d="M227 -7q-37 0 -70 10t-59 29.5t-41.5 49t-15.5 69.5q0 51 20 83.5t54.5 49.5t78.5 23.5t92 6.5h103q0 35 -11 60.5t-34.5 40.5t-60.5 15q-24 0 -44.5 -5.5t-35 -17t-20.5 -29.5h-125q7 41 28.5 70.5t53 48.5t69.5 28.5t77 9.5q115 0 167.5 -66t52.5 -185v-284h-108l-3 68
q-23 -34 -55 -50t-62 -20.5t-51 -4.5zM251 92q40 0 71 15t49.5 42t18.5 62v17h-96q-24 0 -47.5 -1.5t-42.5 -8t-30.5 -19.5t-11.5 -37t12.5 -39t33 -23t43.5 -8zM100 597l146 175h83l148 -175h-118l-71 92l-70 -92h-118z" />
    <glyph glyph-name="adieresis" unicode="&#xe4;" horiz-adv-x="563" 
d="M227 -7q-37 0 -70 10t-59 29.5t-41.5 49t-15.5 69.5q0 51 20 83.5t54.5 49.5t78.5 23.5t92 6.5h103q0 35 -11 60.5t-34.5 40.5t-60.5 15q-24 0 -44.5 -5.5t-35 -17t-20.5 -29.5h-125q7 41 28.5 70.5t53 48.5t69.5 28.5t77 9.5q115 0 167.5 -66t52.5 -185v-284h-108l-3 68
q-23 -34 -55 -50t-62 -20.5t-51 -4.5zM251 92q40 0 71 15t49.5 42t18.5 62v17h-96q-24 0 -47.5 -1.5t-42.5 -8t-30.5 -19.5t-11.5 -37t12.5 -39t33 -23t43.5 -8zM407 595q-29 0 -50.5 18.5t-21.5 51.5t21.5 52.5t51.5 19.5q29 0 50.5 -19.5t21.5 -52.5t-21.5 -51.5
t-51.5 -18.5zM169 595q-30 0 -51 18.5t-21 51.5t21.5 52.5t50.5 19.5q30 0 51.5 -19.5t21.5 -52.5t-21.5 -51.5t-51.5 -18.5z" />
    <glyph glyph-name="agrave" unicode="&#xe0;" horiz-adv-x="563" 
d="M227 -7q-37 0 -70 10t-59 29.5t-41.5 49t-15.5 69.5q0 51 20 83.5t54.5 49.5t78.5 23.5t92 6.5h103q0 35 -11 60.5t-34.5 40.5t-60.5 15q-24 0 -44.5 -5.5t-35 -17t-20.5 -29.5h-125q7 41 28.5 70.5t53 48.5t69.5 28.5t77 9.5q115 0 167.5 -66t52.5 -185v-284h-108l-3 68
q-23 -34 -55 -50t-62 -20.5t-51 -4.5zM251 92q40 0 71 15t49.5 42t18.5 62v17h-96q-24 0 -47.5 -1.5t-42.5 -8t-30.5 -19.5t-11.5 -37t12.5 -39t33 -23t43.5 -8zM251 597l-129 162h130l104 -162h-105z" />
    <glyph glyph-name="amacron" unicode="&#x101;" horiz-adv-x="563" 
d="M227 -7q-37 0 -70 10t-59 29.5t-41.5 49t-15.5 69.5q0 51 20 83.5t54.5 49.5t78.5 23.5t92 6.5h103q0 35 -11 60.5t-34.5 40.5t-60.5 15q-24 0 -44.5 -5.5t-35 -17t-20.5 -29.5h-125q7 41 28.5 70.5t53 48.5t69.5 28.5t77 9.5q115 0 167.5 -66t52.5 -185v-284h-108l-3 68
q-23 -34 -55 -50t-62 -20.5t-51 -4.5zM251 92q40 0 71 15t49.5 42t18.5 62v17h-96q-24 0 -47.5 -1.5t-42.5 -8t-30.5 -19.5t-11.5 -37t12.5 -39t33 -23t43.5 -8zM113 629v106h350v-106h-350z" />
    <glyph glyph-name="aogonek" unicode="&#x105;" horiz-adv-x="563" 
d="M227 -7q-37 0 -70 10t-59 29.5t-41.5 49t-15.5 69.5q0 51 20 83.5t54.5 49.5t78.5 23.5t92 6.5h103q0 35 -11 60.5t-34.5 40.5t-60.5 15q-24 0 -44.5 -5.5t-35 -17t-20.5 -29.5h-125q7 41 28.5 70.5t53 48.5t69.5 28.5t77 9.5q115 0 167.5 -66t52.5 -185v-284h-108l-3 68
q-23 -34 -55 -50t-62 -20.5t-51 -4.5zM251 92q40 0 71 15t49.5 42t18.5 62v17h-96q-24 0 -47.5 -1.5t-42.5 -8t-30.5 -19.5t-11.5 -37t12.5 -39t33 -23t43.5 -8zM463 -213q-60 0 -95 29.5t-35 79.5q0 41 25.5 71.5t61.5 46.5l76 -11q-29 -12 -51 -34t-22 -50
q0 -25 15.5 -38.5t40.5 -13.5q11 0 22 3t22 8l14 -74q-18 -10 -36.5 -13.5t-37.5 -3.5z" />
    <glyph glyph-name="aring" unicode="&#xe5;" horiz-adv-x="563" 
d="M227 -7q-37 0 -70 10t-59 29.5t-41.5 49t-15.5 69.5q0 51 20 83.5t54.5 49.5t78.5 23.5t92 6.5h103q0 35 -11 60.5t-34.5 40.5t-60.5 15q-24 0 -44.5 -5.5t-35 -17t-20.5 -29.5h-125q7 41 28.5 70.5t53 48.5t69.5 28.5t77 9.5q115 0 167.5 -66t52.5 -185v-284h-108l-3 68
q-23 -34 -55 -50t-62 -20.5t-51 -4.5zM251 92q40 0 71 15t49.5 42t18.5 62v17h-96q-24 0 -47.5 -1.5t-42.5 -8t-30.5 -19.5t-11.5 -37t12.5 -39t33 -23t43.5 -8zM288 575q-50 0 -81 29t-31 78t32 80t81 31t80.5 -31.5t31.5 -79.5q0 -49 -32 -78t-81 -29zM288 642
q19 0 30.5 11.5t11.5 29.5q0 19 -11.5 30.5t-30.5 11.5q-18 0 -29.5 -11.5t-11.5 -30.5q0 -18 11 -29.5t30 -11.5z" />
    <glyph glyph-name="atilde" unicode="&#xe3;" horiz-adv-x="563" 
d="M227 -7q-37 0 -70 10t-59 29.5t-41.5 49t-15.5 69.5q0 51 20 83.5t54.5 49.5t78.5 23.5t92 6.5h103q0 35 -11 60.5t-34.5 40.5t-60.5 15q-24 0 -44.5 -5.5t-35 -17t-20.5 -29.5h-125q7 41 28.5 70.5t53 48.5t69.5 28.5t77 9.5q115 0 167.5 -66t52.5 -185v-284h-108l-3 68
q-23 -34 -55 -50t-62 -20.5t-51 -4.5zM251 92q40 0 71 15t49.5 42t18.5 62v17h-96q-24 0 -47.5 -1.5t-42.5 -8t-30.5 -19.5t-11.5 -37t12.5 -39t33 -23t43.5 -8zM365 591q-28 0 -49 10.5t-37.5 24.5t-30 24.5t-26.5 10.5q-14 0 -20.5 -12t-7.5 -27.5t0 -25.5h-88
q-2 38 7.5 73t35 57.5t71.5 22.5q26 0 45 -10.5t34.5 -24t29 -24t25.5 -10.5q16 0 22 11.5t7 26t0 25.5h88q1 -37 -7.5 -72t-31.5 -57.5t-67 -22.5z" />
    <glyph glyph-name="ae" unicode="&#xe6;" horiz-adv-x="917" 
d="M240 -7q-51 0 -96.5 17t-74 53t-28.5 90q0 49 19 80.5t50.5 48.5t71 23.5t80.5 6.5h127q0 39 -13 65t-36.5 39.5t-58.5 13.5q-28 0 -57.5 -11t-40.5 -41h-125q9 55 43 89t83 51t100 17q50 0 96 -18t77 -60q31 35 76.5 56.5t106.5 21.5q72 0 125.5 -33t83.5 -91.5
t30 -135.5q0 -13 -1 -25.5t-3 -25.5h-371q2 -40 19 -68.5t47 -43.5t69 -15q22 0 45 5.5t41.5 18.5t25.5 35h121q-12 -56 -47 -92t-83.5 -53.5t-102.5 -17.5q-60 0 -113 21t-86 66q-24 -31 -54 -50t-66.5 -28t-79.5 -9zM255 92q42 0 71 15.5t45.5 44t18.5 67.5l1 5h-134
q-17 0 -33.5 -2t-31 -9t-22.5 -19.5t-8 -33.5q0 -25 14 -39.5t35.5 -21.5t43.5 -7zM507 312h254q-1 37 -16.5 64.5t-43 42t-64.5 14.5t-65.5 -14.5t-45.5 -42t-19 -64.5z" />
    <glyph glyph-name="b" unicode="b" horiz-adv-x="617" 
d="M342 -7q-29 0 -58 6t-55.5 21t-48.5 40l-3 -60h-118v707h122v-246q29 37 74.5 55.5t94.5 18.5q78 0 128.5 -35.5t75 -96.5t24.5 -138t-25.5 -138.5t-77.5 -97.5t-133 -36zM322 101q51 0 80.5 23.5t42.5 61.5t13 80q0 43 -13.5 79t-43.5 58t-80 22q-46 0 -77.5 -23.5
t-47.5 -61t-16 -77.5q0 -42 14.5 -79t46 -60t81.5 -23z" />
    <glyph glyph-name="c" unicode="c" horiz-adv-x="559" 
d="M291 -7q-82 0 -138 33.5t-85 94.5t-29 141t30 141.5t88 96.5t141 35q61 0 108.5 -21t77 -61.5t37.5 -100.5h-120q-12 38 -39.5 55.5t-65.5 17.5q-51 0 -80.5 -24.5t-42.5 -61.5t-13 -77q0 -42 14 -78.5t43.5 -58.5t76.5 -22q38 0 68.5 17t39.5 55h124
q-7 -61 -40.5 -101.5t-84.5 -60.5t-110 -20z" />
    <glyph glyph-name="cacute" unicode="&#x107;" horiz-adv-x="559" 
d="M291 -7q-82 0 -138 33.5t-85 94.5t-29 141t30 141.5t88 96.5t141 35q61 0 108.5 -21t77 -61.5t37.5 -100.5h-120q-12 38 -39.5 55.5t-65.5 17.5q-51 0 -80.5 -24.5t-42.5 -61.5t-13 -77q0 -42 14 -78.5t43.5 -58.5t76.5 -22q38 0 68.5 17t39.5 55h124
q-7 -61 -40.5 -101.5t-84.5 -60.5t-110 -20zM216 594l104 161h130l-129 -161h-105z" />
    <glyph glyph-name="ccaron" unicode="&#x10d;" horiz-adv-x="559" 
d="M291 -7q-82 0 -138 33.5t-85 94.5t-29 141t30 141.5t88 96.5t141 35q61 0 108.5 -21t77 -61.5t37.5 -100.5h-120q-12 38 -39.5 55.5t-65.5 17.5q-51 0 -80.5 -24.5t-42.5 -61.5t-13 -77q0 -42 14 -78.5t43.5 -58.5t76.5 -22q38 0 68.5 17t39.5 55h124
q-7 -61 -40.5 -101.5t-84.5 -60.5t-110 -20zM239 594l-148 175h118l71 -91l70 91h118l-147 -175h-82z" />
    <glyph glyph-name="ccedilla" unicode="&#xe7;" horiz-adv-x="559" 
d="M291 -7q-82 0 -138 33.5t-85 94.5t-29 141t30 141.5t88 96.5t141 35q61 0 108.5 -21t77 -61.5t37.5 -100.5h-120q-12 38 -39.5 55.5t-65.5 17.5q-51 0 -80.5 -24.5t-42.5 -61.5t-13 -77q0 -42 14 -78.5t43.5 -58.5t76.5 -22q38 0 68.5 17t39.5 55h124
q-7 -61 -40.5 -101.5t-84.5 -60.5t-110 -20zM273 -262q-20 -1 -36.5 -0.5t-32.5 2.5v73q22 -2 42 -1.5t35.5 5t25 14.5t9.5 26q0 14 -9.5 21.5t-22 10t-22.5 2.5q-13 0 -29 -2.5t-27 -6.5l37 143h82l-17 -73q6 1 12 1t11 -1q36 -2 57.5 -24.5t21.5 -65.5q0 -41 -19 -67.5
t-50.5 -40t-67.5 -16.5z" />
    <glyph glyph-name="ccircumflex" unicode="&#x109;" horiz-adv-x="559" 
d="M291 -7q-82 0 -138 33.5t-85 94.5t-29 141t30 141.5t88 96.5t141 35q61 0 108.5 -21t77 -61.5t37.5 -100.5h-120q-12 38 -39.5 55.5t-65.5 17.5q-51 0 -80.5 -24.5t-42.5 -61.5t-13 -77q0 -42 14 -78.5t43.5 -58.5t76.5 -22q38 0 68.5 17t39.5 55h124
q-7 -61 -40.5 -101.5t-84.5 -60.5t-110 -20zM91 594l146 175h83l148 -175h-118l-71 92l-70 -92h-118z" />
    <glyph glyph-name="cdotaccent" unicode="&#x10b;" horiz-adv-x="559" 
d="M291 -7q-82 0 -138 33.5t-85 94.5t-29 141t30 141.5t88 96.5t141 35q61 0 108.5 -21t77 -61.5t37.5 -100.5h-120q-12 38 -39.5 55.5t-65.5 17.5q-51 0 -80.5 -24.5t-42.5 -61.5t-13 -77q0 -42 14 -78.5t43.5 -58.5t76.5 -22q38 0 68.5 17t39.5 55h124
q-7 -61 -40.5 -101.5t-84.5 -60.5t-110 -20zM279 588q-35 0 -56 21t-21 55q0 33 22 54.5t55 21.5q32 0 55 -21t23 -55t-22 -55t-56 -21z" />
    <glyph glyph-name="d" unicode="d" 
d="M274 -7q-80 0 -132 36.5t-77.5 97.5t-25.5 136q0 78 27 139.5t81 97t135 35.5q30 0 58.5 -6.5t54 -20t42.5 -35.5v234h122v-707h-118l-2 66q-19 -25 -44.5 -41t-56.5 -24t-64 -8zM297 103q48 0 79 22.5t46.5 60t15.5 79.5q0 44 -15.5 80t-46.5 58t-79 22q-51 0 -80.5 -23
t-43 -60.5t-13.5 -80.5q0 -32 7.5 -60.5t23.5 -50.5t42 -34.5t64 -12.5z" />
    <glyph glyph-name="dcaron" unicode="&#x10f;" 
d="M274 -7q-80 0 -132 36.5t-77.5 97.5t-25.5 136q0 78 27 139.5t81 97t135 35.5q30 0 58.5 -6.5t54 -20t42.5 -35.5v234h122v-707h-118l-2 66q-19 -25 -44.5 -41t-56.5 -24t-64 -8zM297 103q48 0 79 22.5t46.5 60t15.5 79.5q0 44 -15.5 80t-46.5 58t-79 22q-51 0 -80.5 -23
t-43 -60.5t-13.5 -80.5q0 -32 7.5 -60.5t23.5 -50.5t42 -34.5t64 -12.5zM615 448l-34 48q15 9 30 23t28 30t18 30q-28 2 -47.5 20t-19.5 49q0 34 21.5 52t53.5 18q40 0 59 -29t19 -66q0 -40 -18.5 -76t-47.5 -62t-62 -37z" />
    <glyph glyph-name="dcroat" unicode="&#x111;" 
d="M274 -7q-80 0 -132 36.5t-77.5 97.5t-25.5 136q0 78 27 139.5t81 97t135 35.5q30 0 58.5 -7t54 -20t42.5 -35v87h-100v87h100v60h122v-60h82v-87h-82v-560h-118l-2 66q-19 -25 -44.5 -41t-56.5 -24t-64 -8zM297 103q49 0 80 24t46 61t15 77q0 44 -15.5 80t-46.5 58
t-79 22q-51 0 -80.5 -23t-43 -60.5t-13.5 -80.5q0 -32 7.5 -60.5t23.5 -50.5t42 -34.5t64 -12.5z" />
    <glyph glyph-name="eth" unicode="&#xf0;" horiz-adv-x="592" 
d="M289 -7q-78 0 -134 32.5t-86 90.5t-30 134q0 70 28 125.5t80 87.5t122 32q50 0 94 -17.5t72 -56.5q-1 30 -15.5 64.5t-35 64t-39.5 42.5l-111 -67l-46 75l77 49q-24 16 -64 25.5t-76 12.5l15 93q62 -6 117.5 -23.5t102.5 -46.5l112 69l47 -76l-83 -51q41 -43 66.5 -92.5
t38 -111t12.5 -138.5q0 -65 -14.5 -122t-45.5 -101t-81.5 -69t-122.5 -25zM294 101q40 0 69 19t45 51t16 69q0 42 -16 74.5t-46 51t-74 18.5q-40 0 -68.5 -18.5t-44 -49.5t-15.5 -70t16 -72.5t46 -53t72 -19.5z" />
    <glyph glyph-name="e" unicode="e" horiz-adv-x="574" 
d="M295 -7q-82 0 -139.5 34t-87 94.5t-29.5 140.5t30.5 141.5t88 96.5t138.5 35q60 0 105 -21.5t75.5 -58.5t45.5 -84t14 -99q-1 -12 -2 -23.5t-3 -24.5h-370q3 -35 18.5 -64t44 -46t71.5 -17q25 0 48 6.5t40.5 19.5t23.5 33h122q-13 -57 -48 -93t-83.5 -53t-102.5 -17z
M163 315h254q0 33 -15 60t-42.5 42.5t-66.5 15.5q-42 0 -70 -17t-43 -44t-17 -57z" />
    <glyph glyph-name="eacute" unicode="&#xe9;" horiz-adv-x="574" 
d="M295 -7q-82 0 -139.5 34t-87 94.5t-29.5 140.5t30.5 141.5t88 96.5t138.5 35q60 0 105 -21.5t75.5 -58.5t45.5 -84t14 -99q-1 -12 -2 -23.5t-3 -24.5h-370q3 -35 18.5 -64t44 -46t71.5 -17q25 0 48 6.5t40.5 19.5t23.5 33h122q-13 -57 -48 -93t-83.5 -53t-102.5 -17z
M163 315h254q0 33 -15 60t-42.5 42.5t-66.5 15.5q-42 0 -70 -17t-43 -44t-17 -57zM232 594l104 161h130l-129 -161h-105z" />
    <glyph glyph-name="ebreve" unicode="&#x115;" horiz-adv-x="574" 
d="M295 -7q-82 0 -139.5 34t-87 94.5t-29.5 140.5t30.5 141.5t88 96.5t138.5 35q60 0 105 -21.5t75.5 -58.5t45.5 -84t14 -99q-1 -12 -2 -23.5t-3 -24.5h-370q3 -35 18.5 -64t44 -46t71.5 -17q25 0 48 6.5t40.5 19.5t23.5 33h122q-13 -57 -48 -93t-83.5 -53t-102.5 -17z
M163 315h254q0 33 -15 60t-42.5 42.5t-66.5 15.5q-42 0 -70 -17t-43 -44t-17 -57zM295 591q-85 0 -133.5 39.5t-49.5 117.5h104q1 -37 22.5 -53t57.5 -16t57.5 16t22.5 53h104q-1 -51 -23.5 -86.5t-63.5 -53t-98 -17.5z" />
    <glyph glyph-name="ecaron" unicode="&#x11b;" horiz-adv-x="574" 
d="M295 -7q-82 0 -139.5 34t-87 94.5t-29.5 140.5t30.5 141.5t88 96.5t138.5 35q60 0 105 -21.5t75.5 -58.5t45.5 -84t14 -99q-1 -12 -2 -23.5t-3 -24.5h-370q3 -35 18.5 -64t44 -46t71.5 -17q25 0 48 6.5t40.5 19.5t23.5 33h122q-13 -57 -48 -93t-83.5 -53t-102.5 -17z
M163 315h254q0 33 -15 60t-42.5 42.5t-66.5 15.5q-42 0 -70 -17t-43 -44t-17 -57zM256 594l-148 175h118l71 -91l70 91h118l-147 -175h-82z" />
    <glyph glyph-name="ecircumflex" unicode="&#xea;" horiz-adv-x="574" 
d="M295 -7q-82 0 -139.5 34t-87 94.5t-29.5 140.5t30.5 141.5t88 96.5t138.5 35q60 0 105 -21.5t75.5 -58.5t45.5 -84t14 -99q-1 -12 -2 -23.5t-3 -24.5h-370q3 -35 18.5 -64t44 -46t71.5 -17q25 0 48 6.5t40.5 19.5t23.5 33h122q-13 -57 -48 -93t-83.5 -53t-102.5 -17z
M163 315h254q0 33 -15 60t-42.5 42.5t-66.5 15.5q-42 0 -70 -17t-43 -44t-17 -57zM107 594l146 175h83l148 -175h-118l-71 92l-70 -92h-118z" />
    <glyph glyph-name="edieresis" unicode="&#xeb;" horiz-adv-x="574" 
d="M295 -7q-82 0 -139.5 34t-87 94.5t-29.5 140.5t30.5 141.5t88 96.5t138.5 35q60 0 105 -21.5t75.5 -58.5t45.5 -84t14 -99q-1 -12 -2 -23.5t-3 -24.5h-370q3 -35 18.5 -64t44 -46t71.5 -17q25 0 48 6.5t40.5 19.5t23.5 33h122q-13 -57 -48 -93t-83.5 -53t-102.5 -17z
M163 315h254q0 33 -15 60t-42.5 42.5t-66.5 15.5q-42 0 -70 -17t-43 -44t-17 -57zM415 592q-29 0 -50.5 18.5t-21.5 51.5t21.5 52.5t51.5 19.5q29 0 50.5 -19.5t21.5 -52.5t-21.5 -51.5t-51.5 -18.5zM177 592q-30 0 -51 18.5t-21 51.5t21.5 52.5t50.5 19.5q30 0 51.5 -19.5
t21.5 -52.5t-21.5 -51.5t-51.5 -18.5z" />
    <glyph glyph-name="edotaccent" unicode="&#x117;" horiz-adv-x="574" 
d="M295 -7q-82 0 -139.5 34t-87 94.5t-29.5 140.5t30.5 141.5t88 96.5t138.5 35q60 0 105 -21.5t75.5 -58.5t45.5 -84t14 -99q-1 -12 -2 -23.5t-3 -24.5h-370q3 -35 18.5 -64t44 -46t71.5 -17q25 0 48 6.5t40.5 19.5t23.5 33h122q-13 -57 -48 -93t-83.5 -53t-102.5 -17z
M163 315h254q0 33 -15 60t-42.5 42.5t-66.5 15.5q-42 0 -70 -17t-43 -44t-17 -57zM296 588q-35 0 -56 21t-21 55q0 33 22 54.5t55 21.5q32 0 55 -21t23 -55t-22 -55t-56 -21z" />
    <glyph glyph-name="egrave" unicode="&#xe8;" horiz-adv-x="574" 
d="M295 -7q-82 0 -139.5 34t-87 94.5t-29.5 140.5t30.5 141.5t88 96.5t138.5 35q60 0 105 -21.5t75.5 -58.5t45.5 -84t14 -99q-1 -12 -2 -23.5t-3 -24.5h-370q3 -35 18.5 -64t44 -46t71.5 -17q25 0 48 6.5t40.5 19.5t23.5 33h122q-13 -57 -48 -93t-83.5 -53t-102.5 -17z
M163 315h254q0 33 -15 60t-42.5 42.5t-66.5 15.5q-42 0 -70 -17t-43 -44t-17 -57zM259 594l-129 162h130l104 -162h-105z" />
    <glyph glyph-name="emacron" unicode="&#x113;" horiz-adv-x="574" 
d="M295 -7q-82 0 -139.5 34t-87 94.5t-29.5 140.5t30.5 141.5t88 96.5t138.5 35q60 0 105 -21.5t75.5 -58.5t45.5 -84t14 -99q-1 -12 -2 -23.5t-3 -24.5h-370q3 -35 18.5 -64t44 -46t71.5 -17q25 0 48 6.5t40.5 19.5t23.5 33h122q-13 -57 -48 -93t-83.5 -53t-102.5 -17z
M163 315h254q0 33 -15 60t-42.5 42.5t-66.5 15.5q-42 0 -70 -17t-43 -44t-17 -57zM121 626v106h350v-106h-350z" />
    <glyph glyph-name="eogonek" unicode="&#x119;" horiz-adv-x="574" 
d="M295 -7q-82 0 -139.5 34t-87 94.5t-29.5 140.5t30.5 141.5t88 96.5t138.5 35q60 0 105 -21.5t75.5 -58.5t45.5 -84t14 -99q-1 -12 -2 -23.5t-3 -24.5h-370q3 -35 18.5 -64t44 -46t71.5 -17q25 0 48 6.5t40.5 19.5t23.5 33h122q-13 -57 -48 -93t-83.5 -53t-102.5 -17z
M163 315h254q0 33 -15 60t-42.5 42.5t-66.5 15.5q-42 0 -70 -17t-43 -44t-17 -57zM341 -213q-60 0 -95 29.5t-35 79.5q0 41 25.5 71.5t61.5 46.5l76 -11q-29 -12 -51 -34t-22 -50q0 -25 15.5 -38.5t40.5 -13.5q11 0 22 3t22 8l14 -74q-18 -10 -36.5 -13.5t-37.5 -3.5z" />
    <glyph glyph-name="f" unicode="f" horiz-adv-x="378" 
d="M106 0v419h-82v108h82v50q0 60 18 98.5t57.5 56.5t101.5 18h78v-108h-64q-27 0 -42 -9t-21.5 -26.5t-6.5 -42.5v-37h134v-108h-134v-419h-121z" />
    <glyph glyph-name="g" unicode="g" 
d="M304 -241q-58 0 -108.5 18.5t-85 58t-46.5 101.5h125q6 -24 24 -39t42.5 -21.5t50.5 -6.5q49 0 77.5 20t40.5 54.5t12 75.5v50q-18 -29 -45.5 -46t-58 -23.5t-60.5 -6.5q-82 0 -133.5 36t-75.5 96.5t-24 133.5q0 76 26.5 138.5t80 99.5t134.5 37q47 0 88.5 -16.5
t69.5 -49.5l8 58h113v-481q0 -89 -25.5 -153.5t-81.5 -99t-148 -34.5zM297 102q47 0 78 22.5t47 60t16 81.5q0 45 -15.5 81t-46 57t-78.5 21q-51 0 -81 -23t-43.5 -60.5t-13.5 -79.5q0 -44 14 -80.5t44 -58t79 -21.5z" />
    <glyph glyph-name="gbreve" unicode="&#x11f;" 
d="M304 -241q-58 0 -108.5 18.5t-85 58t-46.5 101.5h125q6 -24 24 -39t42.5 -21.5t50.5 -6.5q49 0 77.5 20t40.5 54.5t12 75.5v50q-18 -29 -45.5 -46t-58 -23.5t-60.5 -6.5q-82 0 -133.5 36t-75.5 96.5t-24 133.5q0 76 26.5 138.5t80 99.5t134.5 37q47 0 88.5 -16.5
t69.5 -49.5l8 58h113v-481q0 -89 -25.5 -153.5t-81.5 -99t-148 -34.5zM297 102q47 0 78 22.5t47 60t16 81.5q0 45 -15.5 81t-46 57t-78.5 21q-51 0 -81 -23t-43.5 -60.5t-13.5 -79.5q0 -44 14 -80.5t44 -58t79 -21.5zM310 591q-85 0 -133.5 39.5t-49.5 117.5h104
q1 -37 22.5 -53t57.5 -16t57.5 16t22.5 53h104q-1 -51 -23.5 -86.5t-63.5 -53t-98 -17.5z" />
    <glyph glyph-name="gcircumflex" unicode="&#x11d;" 
d="M304 -241q-58 0 -108.5 18.5t-85 58t-46.5 101.5h125q6 -24 24 -39t42.5 -21.5t50.5 -6.5q49 0 77.5 20t40.5 54.5t12 75.5v50q-18 -29 -45.5 -46t-58 -23.5t-60.5 -6.5q-82 0 -133.5 36t-75.5 96.5t-24 133.5q0 76 26.5 138.5t80 99.5t134.5 37q47 0 88.5 -16.5
t69.5 -49.5l8 58h113v-481q0 -89 -25.5 -153.5t-81.5 -99t-148 -34.5zM297 102q47 0 78 22.5t47 60t16 81.5q0 45 -15.5 81t-46 57t-78.5 21q-51 0 -81 -23t-43.5 -60.5t-13.5 -79.5q0 -44 14 -80.5t44 -58t79 -21.5zM122 594l146 175h83l148 -175h-118l-71 92l-70 -92h-118
z" />
    <glyph glyph-name="uni0123" unicode="&#x123;" 
d="M304 -241q-58 0 -108.5 18.5t-85 58t-46.5 101.5h125q6 -24 24 -39t42.5 -21.5t50.5 -6.5q49 0 77.5 20t40.5 54.5t12 75.5v50q-18 -29 -45.5 -46t-58 -23.5t-60.5 -6.5q-82 0 -133.5 36t-75.5 96.5t-24 133.5q0 76 26.5 138.5t80 99.5t134.5 37q47 0 88.5 -16.5
t69.5 -49.5l8 58h113v-481q0 -89 -25.5 -153.5t-81.5 -99t-148 -34.5zM297 102q47 0 78 22.5t47 60t16 81.5q0 45 -15.5 81t-46 57t-78.5 21q-51 0 -81 -23t-43.5 -60.5t-13.5 -79.5q0 -44 14 -80.5t44 -58t79 -21.5zM309 585q-38 0 -58 26t-21 66q0 38 17.5 73t47.5 61.5
t64 37.5l33 -47q-13 -7 -29 -21.5t-29 -30t-18 -29.5q29 -2 48 -19.5t19 -48.5q0 -34 -22.5 -51t-51.5 -17z" />
    <glyph glyph-name="gdotaccent" unicode="&#x121;" 
d="M304 -241q-58 0 -108.5 18.5t-85 58t-46.5 101.5h125q6 -24 24 -39t42.5 -21.5t50.5 -6.5q49 0 77.5 20t40.5 54.5t12 75.5v50q-18 -29 -45.5 -46t-58 -23.5t-60.5 -6.5q-82 0 -133.5 36t-75.5 96.5t-24 133.5q0 76 26.5 138.5t80 99.5t134.5 37q47 0 88.5 -16.5
t69.5 -49.5l8 58h113v-481q0 -89 -25.5 -153.5t-81.5 -99t-148 -34.5zM297 102q47 0 78 22.5t47 60t16 81.5q0 45 -15.5 81t-46 57t-78.5 21q-51 0 -81 -23t-43.5 -60.5t-13.5 -79.5q0 -44 14 -80.5t44 -58t79 -21.5zM311 588q-35 0 -56 21t-21 55q0 33 22 54.5t55 21.5
q32 0 55 -21t23 -55t-22 -55t-56 -21z" />
    <glyph glyph-name="h" unicode="h" horiz-adv-x="600" 
d="M59 0v707h122v-248q21 27 49 44t59 24.5t59 7.5q75 0 118 -33t60.5 -88t17.5 -124v-290h-122v269q0 27 -4 55t-15.5 50.5t-34 36.5t-59.5 14q-35 0 -60 -14.5t-39.5 -39.5t-21.5 -55t-7 -60v-256h-122z" />
    <glyph glyph-name="hbar" unicode="&#x127;" horiz-adv-x="600" 
d="M59 0v560h-73v87h73v60h122v-60h100v-87h-100v-101q28 38 73 57t92 19q76 0 119 -33t61 -88t18 -124v-290h-122v269q0 29 -4.5 57t-16.5 50t-34 35.5t-58 13.5q-35 0 -60 -14.5t-39.5 -39.5t-21.5 -55t-7 -60v-256h-122z" />
    <glyph glyph-name="hcircumflex" unicode="&#x125;" horiz-adv-x="600" 
d="M59 0v707h122v-248q21 27 49 44t59 24.5t59 7.5q75 0 118 -33t60.5 -88t17.5 -124v-290h-122v269q0 27 -4 55t-15.5 50.5t-34 36.5t-59.5 14q-35 0 -60 -14.5t-39.5 -39.5t-21.5 -55t-7 -60v-256h-122zM117 760l146 175h83l148 -175h-118l-71 92l-70 -92h-118z" />
    <glyph glyph-name="i" unicode="i" horiz-adv-x="240" 
d="M59 0v527h122v-527h-122zM120 588q-35 0 -56 21t-21 55q0 33 22 54.5t55 21.5q32 0 55 -21t23 -55t-22 -55t-56 -21z" />
    <glyph glyph-name="dotlessi" unicode="&#x131;" horiz-adv-x="240" 
d="M59 0v527h122v-527h-122z" />
    <glyph glyph-name="iacute" unicode="&#xed;" horiz-adv-x="240" 
d="M59 0v527h122v-527h-122zM56 594l104 161h130l-129 -161h-105z" />
    <glyph glyph-name="ibreve" unicode="&#x12d;" horiz-adv-x="240" 
d="M59 0v527h122v-527h-122zM119 591q-85 0 -133.5 39.5t-49.5 117.5h104q1 -37 22.5 -53t57.5 -16t57.5 16t22.5 53h104q-1 -51 -23.5 -86.5t-63.5 -53t-98 -17.5z" />
    <glyph glyph-name="icircumflex" unicode="&#xee;" horiz-adv-x="240" 
d="M59 0v527h122v-527h-122zM-69 594l146 175h83l148 -175h-118l-71 92l-70 -92h-118z" />
    <glyph glyph-name="idieresis" unicode="&#xef;" horiz-adv-x="240" 
d="M59 0v527h122v-527h-122zM30 595q-29 0 -49.5 18.5t-20.5 50.5t20.5 51t49.5 19t49.5 -18.5t20.5 -51.5q0 -32 -20.5 -50.5t-49.5 -18.5zM211 595q-29 0 -49.5 18.5t-20.5 50.5t21 51t49 19q29 0 49 -18.5t20 -51.5q0 -32 -20 -50.5t-49 -18.5z" />
    <glyph glyph-name="i.loclTRK" horiz-adv-x="240" 
d="M59 0v527h122v-527h-122zM120 588q-35 0 -56 21t-21 55q0 33 22 54.5t55 21.5q32 0 55 -21t23 -55t-22 -55t-56 -21z" />
    <glyph glyph-name="igrave" unicode="&#xec;" horiz-adv-x="240" 
d="M59 0v527h122v-527h-122zM83 594l-129 162h130l104 -162h-105z" />
    <glyph glyph-name="imacron" unicode="&#x12b;" horiz-adv-x="240" 
d="M59 0v527h122v-527h-122zM-55 626v106h350v-106h-350z" />
    <glyph glyph-name="iogonek" unicode="&#x12f;" horiz-adv-x="240" 
d="M59 0v527h122v-527h-122zM120 588q-35 0 -56 21t-21 55q0 33 22 54.5t55 21.5q32 0 55 -21t23 -55t-22 -55t-56 -21zM136 -213q-60 0 -95 29.5t-35 79.5q0 41 25.5 71.5t61.5 46.5l76 -11q-29 -12 -51 -34t-22 -50q0 -25 15.5 -38.5t40.5 -13.5q11 0 22 3t22 8l14 -74
q-18 -10 -36.5 -13.5t-37.5 -3.5z" />
    <glyph glyph-name="itilde" unicode="&#x129;" horiz-adv-x="240" 
d="M59 0v527h122v-527h-122zM196 588q-28 0 -49 10.5t-37.5 24.5t-30 24.5t-26.5 10.5q-14 0 -20.5 -12t-7.5 -27.5t0 -25.5h-88q-2 38 7.5 73t35 57.5t71.5 22.5q26 0 45 -10.5t34.5 -24t29 -24t25.5 -10.5q16 0 22 11.5t7 26t0 25.5h88q1 -37 -7.5 -72t-31.5 -57.5
t-67 -22.5z" />
    <glyph glyph-name="ij" unicode="&#x133;" horiz-adv-x="504" 
d="M201 -196v108h38q32 0 48.5 11t21.5 30.5t5 43.5v530h122v-547q0 -60 -17 -99t-54 -58t-100 -19h-64zM68 0v527h121v-527h-121zM128 591q-31 0 -54 20t-23 55q0 24 11 41t29 26.5t38 9.5q31 0 54 -21t23 -56t-23 -55t-55 -20zM375 591q-32 0 -54.5 20t-22.5 55
q0 24 11 41t29 26.5t38 9.5q31 0 53.5 -21t22.5 -56q0 -36 -22.5 -55.5t-54.5 -19.5z" />
    <glyph glyph-name="j" unicode="j" horiz-adv-x="263" 
d="M-39 -196v108h38q32 0 48 11t21 30.5t5 43.5v530h122v-547q0 -60 -16.5 -99t-54 -58t-99.5 -19h-64zM134 588q-35 0 -56 21t-21 55q0 33 22 54.5t55 21.5q32 0 55 -21t23 -55t-22 -55t-56 -21z" />
    <glyph glyph-name="uni0237" unicode="&#x237;" horiz-adv-x="263" 
d="M-39 -196v108h38q32 0 48 11t21 30.5t5 43.5v530h122v-547q0 -60 -16.5 -99t-54 -58t-99.5 -19h-64z" />
    <glyph glyph-name="jcircumflex" unicode="&#x135;" horiz-adv-x="263" 
d="M-39 -196v108h38q32 0 48 11t21 30.5t5 43.5v530h122v-547q0 -60 -16.5 -99t-54 -58t-99.5 -19h-64zM-55 594l146 175h83l148 -175h-118l-71 92l-70 -92h-118z" />
    <glyph glyph-name="k" unicode="k" horiz-adv-x="546" 
d="M59 0v707h122v-391h76l139 211h137l-171 -251l185 -276h-142l-141 209h-83v-209h-122z" />
    <glyph glyph-name="uni0137" unicode="&#x137;" horiz-adv-x="546" 
d="M59 0v707h122v-391h76l139 211h137l-171 -251l185 -276h-142l-141 209h-83v-209h-122zM230 -300l-30 42q13 8 27 21t26 28t16 29q-26 1 -44.5 17t-18.5 44q0 32 21 48.5t48 16.5q36 0 54 -26t18 -62q-1 -36 -17.5 -68t-43 -55.5t-56.5 -34.5z" />
    <glyph glyph-name="kgreenlandic" unicode="&#x138;" horiz-adv-x="545" 
d="M59 0v527h122v-211h76l138 211h137l-171 -251l185 -276h-141l-141 209h-83v-209h-122z" />
    <glyph glyph-name="l" unicode="l" horiz-adv-x="240" 
d="M59 0v707h122v-707h-122z" />
    <glyph glyph-name="lacute" unicode="&#x13a;" horiz-adv-x="240" 
d="M59 0v707h122v-707h-122zM56 775l104 161h130l-129 -161h-105z" />
    <glyph glyph-name="lcaron" unicode="&#x13e;" horiz-adv-x="259" 
d="M59 0v707h122v-707h-122zM244 448l-34 48q15 9 30 23t28 30t18 30q-28 2 -47.5 20t-19.5 49q0 34 21.5 52t53.5 18q40 0 59 -29t19 -66q0 -40 -18.5 -76t-47.5 -62t-62 -37z" />
    <glyph glyph-name="uni013C" unicode="&#x13c;" horiz-adv-x="240" 
d="M59 0v707h122v-707h-122zM77 -300l-30 42q13 8 27 21t26 28t16 29q-26 1 -44.5 17t-18.5 44q0 32 21 48.5t48 16.5q36 0 54 -26t18 -62q-1 -36 -17.5 -68t-43 -55.5t-56.5 -34.5z" />
    <glyph glyph-name="ldot" unicode="&#x140;" horiz-adv-x="353" 
d="M59 0v707h122v-707h-122zM298 289q-32 0 -51.5 19t-19.5 50q0 30 20 49t51 19q30 0 50.5 -19t20.5 -50q0 -30 -20 -49t-51 -19z" />
    <glyph glyph-name="lslash" unicode="&#x142;" horiz-adv-x="345" 
d="M102 0v250l-61 -38l-55 91l116 71v333h122v-258l78 49l56 -91l-134 -83v-324h-122z" />
    <glyph glyph-name="m" unicode="m" horiz-adv-x="841" 
d="M59 0v527h112l8 -60q20 27 43.5 41.5t49 20.5t48.5 6q50 0 85.5 -20t55.5 -60q20 28 45 45.5t53 26t59 8.5q61 0 98 -25.5t54 -70t17 -101.5v-338h-122v299q0 20 -2 42t-10.5 41t-24.5 31t-45 12t-47.5 -12.5t-30 -33t-16 -45t-4.5 -48.5v-286h-122v300q0 19 -2.5 40.5
t-10 41t-24 31.5t-45.5 12q-42 0 -63.5 -23t-29 -56t-7.5 -63v-283h-122z" />
    <glyph glyph-name="n" unicode="n" horiz-adv-x="600" 
d="M59 0v527h114l7 -67q21 28 49 44t59 23.5t58 7.5q75 0 118.5 -33t61.5 -88t18 -123v-291h-122v271q0 29 -4 56.5t-15.5 49.5t-32.5 35t-56 13q-43 0 -73 -23t-45 -61.5t-15 -87.5v-253h-122z" />
    <glyph glyph-name="nacute" unicode="&#x144;" horiz-adv-x="600" 
d="M59 0v527h114l7 -67q21 28 49 44t59 23.5t58 7.5q75 0 118.5 -33t61.5 -88t18 -123v-291h-122v271q0 29 -4 56.5t-15.5 49.5t-32.5 35t-56 13q-43 0 -73 -23t-45 -61.5t-15 -87.5v-253h-122zM236 594l104 161h130l-129 -161h-105z" />
    <glyph glyph-name="napostrophe" unicode="&#x149;" horiz-adv-x="724" 
d="M33 448l-34 49q14 8 29.5 22t28.5 30t17 30q-28 2 -47 20t-19 49q0 34 22 52t52 18q41 0 60 -28t19 -66q0 -40 -18 -76.5t-47.5 -62.5t-62.5 -37zM184 0v527h114l6 -67q21 28 49.5 44t59 23.5t57.5 7.5q76 0 119 -33t61.5 -88t18.5 -123v-291h-122v271q0 29 -4 56.5
t-15.5 49.5t-32.5 35t-56 13q-44 0 -74 -23t-45 -61.5t-15 -87.5v-253h-121z" />
    <glyph glyph-name="ncaron" unicode="&#x148;" horiz-adv-x="600" 
d="M59 0v527h114l7 -67q21 28 49 44t59 23.5t58 7.5q75 0 118.5 -33t61.5 -88t18 -123v-291h-122v271q0 29 -4 56.5t-15.5 49.5t-32.5 35t-56 13q-43 0 -73 -23t-45 -61.5t-15 -87.5v-253h-122zM260 594l-148 175h118l71 -91l70 91h118l-147 -175h-82z" />
    <glyph glyph-name="uni0146" unicode="&#x146;" horiz-adv-x="600" 
d="M59 0v527h114l7 -67q21 28 49 44t59 23.5t58 7.5q75 0 118.5 -33t61.5 -88t18 -123v-291h-122v271q0 29 -4 56.5t-15.5 49.5t-32.5 35t-56 13q-43 0 -73 -23t-45 -61.5t-15 -87.5v-253h-122zM257 -300l-30 42q13 8 27 21t26 28t16 29q-26 1 -44.5 17t-18.5 44
q0 32 21 48.5t48 16.5q36 0 54 -26t18 -62q-1 -36 -17.5 -68t-43 -55.5t-56.5 -34.5z" />
    <glyph glyph-name="ntilde" unicode="&#xf1;" horiz-adv-x="600" 
d="M59 0v527h114l7 -67q21 28 49 44t59 23.5t58 7.5q75 0 118.5 -33t61.5 -88t18 -123v-291h-122v271q0 29 -4 56.5t-15.5 49.5t-32.5 35t-56 13q-43 0 -73 -23t-45 -61.5t-15 -87.5v-253h-122zM376 588q-28 0 -49 10.5t-37.5 24.5t-30 24.5t-26.5 10.5q-14 0 -20.5 -12
t-7.5 -27.5t0 -25.5h-88q-2 38 7.5 73t35 57.5t71.5 22.5q26 0 45 -10.5t34.5 -24t29 -24t25.5 -10.5q16 0 22 11.5t7 26t0 25.5h88q1 -37 -7.5 -72t-31.5 -57.5t-67 -22.5z" />
    <glyph glyph-name="eng" unicode="&#x14b;" horiz-adv-x="600" 
d="M302 -196v108h46q29 0 45.5 9.5t22.5 28.5t6 47v274q0 30 -4.5 58t-16 49.5t-32.5 34t-55 12.5q-44 0 -73.5 -23.5t-44.5 -62.5t-15 -86v-253h-122v527h114l7 -67q27 39 72.5 57t91.5 18q77 0 120.5 -33t61.5 -88t18 -123v-309q0 -60 -17 -100t-54 -59t-99 -19h-72z" />
    <glyph glyph-name="o" unicode="o" horiz-adv-x="597" 
d="M300 -7q-81 0 -139.5 33t-90 94t-31.5 143q0 83 32 143.5t90 94.5t139 34q80 0 138 -34t89 -95.5t31 -144.5q0 -81 -30.5 -141.5t-88.5 -93.5t-139 -33zM299 104q50 0 80.5 22t44.5 58t14 78t-14 79t-44.5 59.5t-80.5 22.5t-81 -22.5t-45 -59t-14 -79.5q0 -42 14.5 -78.5
t45 -58t80.5 -21.5z" />
    <glyph glyph-name="oacute" unicode="&#xf3;" horiz-adv-x="597" 
d="M300 -7q-81 0 -139.5 33t-90 94t-31.5 143q0 83 32 143.5t90 94.5t139 34q80 0 138 -34t89 -95.5t31 -144.5q0 -81 -30.5 -141.5t-88.5 -93.5t-139 -33zM299 104q50 0 80.5 22t44.5 58t14 78t-14 79t-44.5 59.5t-80.5 22.5t-81 -22.5t-45 -59t-14 -79.5q0 -42 14.5 -78.5
t45 -58t80.5 -21.5zM235 594l104 161h130l-129 -161h-105z" />
    <glyph glyph-name="obreve" unicode="&#x14f;" horiz-adv-x="597" 
d="M300 -7q-81 0 -139.5 33t-90 94t-31.5 143q0 83 32 143.5t90 94.5t139 34q80 0 138 -34t89 -95.5t31 -144.5q0 -81 -30.5 -141.5t-88.5 -93.5t-139 -33zM299 104q50 0 80.5 22t44.5 58t14 78t-14 79t-44.5 59.5t-80.5 22.5t-81 -22.5t-45 -59t-14 -79.5q0 -42 14.5 -78.5
t45 -58t80.5 -21.5zM298 591q-85 0 -133.5 39.5t-49.5 117.5h104q1 -37 22.5 -53t57.5 -16t57.5 16t22.5 53h104q-1 -51 -23.5 -86.5t-63.5 -53t-98 -17.5z" />
    <glyph glyph-name="ocircumflex" unicode="&#xf4;" horiz-adv-x="597" 
d="M300 -7q-81 0 -139.5 33t-90 94t-31.5 143q0 83 32 143.5t90 94.5t139 34q80 0 138 -34t89 -95.5t31 -144.5q0 -81 -30.5 -141.5t-88.5 -93.5t-139 -33zM299 104q50 0 80.5 22t44.5 58t14 78t-14 79t-44.5 59.5t-80.5 22.5t-81 -22.5t-45 -59t-14 -79.5q0 -42 14.5 -78.5
t45 -58t80.5 -21.5zM110 594l146 175h83l148 -175h-118l-71 92l-70 -92h-118z" />
    <glyph glyph-name="odieresis" unicode="&#xf6;" horiz-adv-x="597" 
d="M300 -7q-81 0 -139.5 33t-90 94t-31.5 143q0 83 32 143.5t90 94.5t139 34q80 0 138 -34t89 -95.5t31 -144.5q0 -81 -30.5 -141.5t-88.5 -93.5t-139 -33zM299 104q50 0 80.5 22t44.5 58t14 78t-14 79t-44.5 59.5t-80.5 22.5t-81 -22.5t-45 -59t-14 -79.5q0 -42 14.5 -78.5
t45 -58t80.5 -21.5zM418 592q-29 0 -50.5 18.5t-21.5 51.5t21.5 52.5t51.5 19.5q29 0 50.5 -19.5t21.5 -52.5t-21.5 -51.5t-51.5 -18.5zM180 592q-30 0 -51 18.5t-21 51.5t21.5 52.5t50.5 19.5q30 0 51.5 -19.5t21.5 -52.5t-21.5 -51.5t-51.5 -18.5z" />
    <glyph glyph-name="ograve" unicode="&#xf2;" horiz-adv-x="597" 
d="M300 -7q-81 0 -139.5 33t-90 94t-31.5 143q0 83 32 143.5t90 94.5t139 34q80 0 138 -34t89 -95.5t31 -144.5q0 -81 -30.5 -141.5t-88.5 -93.5t-139 -33zM299 104q50 0 80.5 22t44.5 58t14 78t-14 79t-44.5 59.5t-80.5 22.5t-81 -22.5t-45 -59t-14 -79.5q0 -42 14.5 -78.5
t45 -58t80.5 -21.5zM262 594l-129 162h130l104 -162h-105z" />
    <glyph glyph-name="ohungarumlaut" unicode="&#x151;" horiz-adv-x="597" 
d="M300 -7q-81 0 -139.5 33t-90 94t-31.5 143q0 83 32 143.5t90 94.5t139 34q80 0 138 -34t89 -95.5t31 -144.5q0 -81 -30.5 -141.5t-88.5 -93.5t-139 -33zM299 104q50 0 80.5 22t44.5 58t14 78t-14 79t-44.5 59.5t-80.5 22.5t-81 -22.5t-45 -59t-14 -79.5q0 -42 14.5 -78.5
t45 -58t80.5 -21.5zM318 594l99 162h124l-122 -162h-101zM145 594l80 162h124l-107 -162h-97z" />
    <glyph glyph-name="omacron" unicode="&#x14d;" horiz-adv-x="597" 
d="M300 -7q-81 0 -139.5 33t-90 94t-31.5 143q0 83 32 143.5t90 94.5t139 34q80 0 138 -34t89 -95.5t31 -144.5q0 -81 -30.5 -141.5t-88.5 -93.5t-139 -33zM299 104q50 0 80.5 22t44.5 58t14 78t-14 79t-44.5 59.5t-80.5 22.5t-81 -22.5t-45 -59t-14 -79.5q0 -42 14.5 -78.5
t45 -58t80.5 -21.5zM124 626v106h350v-106h-350z" />
    <glyph glyph-name="oslash" unicode="&#xf8;" horiz-adv-x="597" 
d="M64 -99l69 142q-47 35 -70.5 92t-23.5 128q0 80 30 141.5t88 96t141 34.5q20 0 36 -2t30 -6l47 100h122l-70 -144q33 -24 53.5 -58.5t31 -75.5t10.5 -87q0 -78 -29 -138.5t-87 -95.5t-143 -35q-19 0 -35 2t-31 6l-47 -100h-122zM192 152l130 266q-23 3 -45 0
q-40 -4 -66 -24.5t-39 -54.5t-13 -76q0 -32 7.5 -61.5t25.5 -49.5zM317 107q43 4 69.5 25.5t39 56t12.5 74.5q0 33 -8.5 60t-24.5 49l-129 -263q9 -2 19 -2h22z" />
    <glyph glyph-name="otilde" unicode="&#xf5;" horiz-adv-x="597" 
d="M300 -7q-81 0 -139.5 33t-90 94t-31.5 143q0 83 32 143.5t90 94.5t139 34q80 0 138 -34t89 -95.5t31 -144.5q0 -81 -30.5 -141.5t-88.5 -93.5t-139 -33zM299 104q50 0 80.5 22t44.5 58t14 78t-14 79t-44.5 59.5t-80.5 22.5t-81 -22.5t-45 -59t-14 -79.5q0 -42 14.5 -78.5
t45 -58t80.5 -21.5zM375 588q-28 0 -49 10.5t-37.5 24.5t-30 24.5t-26.5 10.5q-14 0 -20.5 -12t-7.5 -27.5t0 -25.5h-88q-2 38 7.5 73t35 57.5t71.5 22.5q26 0 45 -10.5t34.5 -24t29 -24t25.5 -10.5q16 0 22 11.5t7 26t0 25.5h88q1 -37 -7.5 -72t-31.5 -57.5t-67 -22.5z" />
    <glyph glyph-name="oe" unicode="&#x153;" horiz-adv-x="967" 
d="M300 -7q-83 0 -141.5 34.5t-89 95.5t-30.5 140q0 81 31 142t89 95.5t141 34.5q60 0 109.5 -20.5t84.5 -64.5q36 44 84.5 64.5t109.5 20.5q78 0 132 -35.5t81.5 -95t26.5 -131.5q-1 -12 -1.5 -24.5t-2.5 -24.5h-371q5 -57 40 -92t94 -35q34 0 67.5 13t45.5 46h121
q-13 -56 -47.5 -92t-82.5 -53.5t-103 -17.5q-43 0 -77 9t-62.5 27t-55.5 46q-36 -43 -84.5 -62.5t-108.5 -19.5zM299 104q48 0 78.5 21t45.5 57t15 80q0 45 -15 82t-46 58t-78 21t-78 -21t-46.5 -57.5t-15.5 -82.5q0 -44 15 -80t46 -57t79 -21zM555 315h255q-1 36 -17.5 63
t-44 41t-62.5 14q-38 0 -66.5 -15.5t-45 -42t-19.5 -60.5z" />
    <glyph glyph-name="p" unicode="p" horiz-adv-x="617" 
d="M59 -194v721h114l6 -71q31 41 74 60t95 19q78 0 129 -36t76 -97t25 -138t-26 -138.5t-78.5 -97t-131.5 -35.5q-37 0 -67.5 8t-54 23t-39.5 34v-252h-122zM323 103q51 0 80 22.5t42 59t13 77.5q0 43 -13.5 80t-43.5 60t-80 23q-46 0 -77.5 -22.5t-47.5 -59.5t-16 -80
q0 -44 15 -80.5t47 -58t81 -21.5z" />
    <glyph glyph-name="thorn" unicode="&#xfe;" horiz-adv-x="617" 
d="M59 -194v901h122v-249q29 39 73 58t93 19q80 0 131 -37t75.5 -98.5t24.5 -134.5q0 -74 -25 -135.5t-76.5 -99t-132.5 -37.5q-46 0 -89 15t-74 50v-252h-122zM323 103q49 0 78.5 22t43 59t13.5 78q0 46 -14.5 83t-45 58.5t-78.5 21.5q-45 0 -76.5 -22.5t-47.5 -59.5
t-16 -80q0 -44 15.5 -80.5t47.5 -58t80 -21.5z" />
    <glyph glyph-name="q" unicode="q" 
d="M437 -194v258q-28 -39 -72.5 -55t-90.5 -16q-60 0 -104.5 20.5t-73 57t-43 85.5t-14.5 105q0 79 28 141t82 97.5t132 35.5q45 0 88 -15.5t70 -50.5l6 58h114v-721h-122zM298 103q45 0 76.5 21.5t47.5 58.5t16 81q0 46 -16 82t-47 57.5t-78 21.5q-49 0 -79 -22.5t-44 -59
t-14 -79.5q0 -44 14 -81t45 -58.5t79 -21.5z" />
    <glyph glyph-name="r" unicode="r" horiz-adv-x="386" 
d="M59 0v527h111l7 -69q20 30 45.5 46.5t55 23.5t59.5 7h20.5t15.5 -1v-116h-32q-52 0 -88 -20t-54 -57t-18 -91v-250h-122z" />
    <glyph glyph-name="racute" unicode="&#x155;" horiz-adv-x="386" 
d="M59 0v527h111l7 -69q20 30 45.5 46.5t55 23.5t59.5 7h20.5t15.5 -1v-116h-32q-52 0 -88 -20t-54 -57t-18 -91v-250h-122zM159 594l104 161h130l-129 -161h-105z" />
    <glyph glyph-name="rcaron" unicode="&#x159;" horiz-adv-x="386" 
d="M59 0v527h111l7 -69q20 30 45.5 46.5t55 23.5t59.5 7h20.5t15.5 -1v-116h-32q-52 0 -88 -20t-54 -57t-18 -91v-250h-122zM183 594l-148 175h118l71 -91l70 91h118l-147 -175h-82z" />
    <glyph glyph-name="uni0157" unicode="&#x157;" horiz-adv-x="386" 
d="M59 0v527h111l7 -69q20 30 45.5 46.5t55 23.5t59.5 7h20.5t15.5 -1v-116h-32q-52 0 -88 -20t-54 -57t-18 -91v-250h-122zM80 -300l-30 42q13 8 27 21t26 28t16 29q-26 1 -44.5 17t-18.5 44q0 32 21 48.5t48 16.5q36 0 54 -26t18 -62q-1 -36 -17.5 -68t-43 -55.5
t-56.5 -34.5z" />
    <glyph glyph-name="s" unicode="s" horiz-adv-x="511" 
d="M261 -7q-38 0 -75.5 8t-70.5 26.5t-55 50.5t-29 80h123q8 -22 25.5 -35.5t41 -20t46.5 -6.5q14 0 30.5 2t31 8t23.5 17.5t9 30.5q0 18 -10 28.5t-27 17t-41 10.5q-43 9 -92 19.5t-85 33.5q-15 9 -26 21t-18.5 26.5t-11 31.5t-3.5 37q0 42 17.5 71.5t47 48t67.5 27.5t78 9
q54 0 98 -17t73.5 -52t35.5 -89h-116q-5 25 -30.5 40t-64.5 15q-14 0 -29 -2.5t-28.5 -8t-22 -16.5t-8.5 -27q0 -15 7.5 -26t23 -18.5t36.5 -12.5q34 -7 71 -14t64 -14q32 -9 58 -25.5t40.5 -43t14.5 -67.5q0 -48 -19.5 -80t-51.5 -50t-71 -26t-77 -8z" />
    <glyph glyph-name="sacute" unicode="&#x15b;" horiz-adv-x="511" 
d="M261 -7q-38 0 -75.5 8t-70.5 26.5t-55 50.5t-29 80h123q8 -22 25.5 -35.5t41 -20t46.5 -6.5q14 0 30.5 2t31 8t23.5 17.5t9 30.5q0 18 -10 28.5t-27 17t-41 10.5q-43 9 -92 19.5t-85 33.5q-15 9 -26 21t-18.5 26.5t-11 31.5t-3.5 37q0 42 17.5 71.5t47 48t67.5 27.5t78 9
q54 0 98 -17t73.5 -52t35.5 -89h-116q-5 25 -30.5 40t-64.5 15q-14 0 -29 -2.5t-28.5 -8t-22 -16.5t-8.5 -27q0 -15 7.5 -26t23 -18.5t36.5 -12.5q34 -7 71 -14t64 -14q32 -9 58 -25.5t40.5 -43t14.5 -67.5q0 -48 -19.5 -80t-51.5 -50t-71 -26t-77 -8zM192 594l104 161h130
l-129 -161h-105z" />
    <glyph glyph-name="scaron" unicode="&#x161;" horiz-adv-x="511" 
d="M261 -7q-38 0 -75.5 8t-70.5 26.5t-55 50.5t-29 80h123q8 -22 25.5 -35.5t41 -20t46.5 -6.5q14 0 30.5 2t31 8t23.5 17.5t9 30.5q0 18 -10 28.5t-27 17t-41 10.5q-43 9 -92 19.5t-85 33.5q-15 9 -26 21t-18.5 26.5t-11 31.5t-3.5 37q0 42 17.5 71.5t47 48t67.5 27.5t78 9
q54 0 98 -17t73.5 -52t35.5 -89h-116q-5 25 -30.5 40t-64.5 15q-14 0 -29 -2.5t-28.5 -8t-22 -16.5t-8.5 -27q0 -15 7.5 -26t23 -18.5t36.5 -12.5q34 -7 71 -14t64 -14q32 -9 58 -25.5t40.5 -43t14.5 -67.5q0 -48 -19.5 -80t-51.5 -50t-71 -26t-77 -8zM216 594l-148 175h118
l71 -91l70 91h118l-147 -175h-82z" />
    <glyph glyph-name="scedilla" unicode="&#x15f;" horiz-adv-x="511" 
d="M261 -7q-38 0 -75.5 8t-70.5 26.5t-55 50.5t-29 80h123q8 -22 25.5 -35.5t41 -20t46.5 -6.5q14 0 30.5 2t31 8t23.5 17.5t9 30.5q0 18 -10 28.5t-27 17t-41 10.5q-43 9 -92 19.5t-85 33.5q-15 9 -26 21t-18.5 26.5t-11 31.5t-3.5 37q0 42 17.5 71.5t47 48t67.5 27.5t78 9
q54 0 98 -17t73.5 -52t35.5 -89h-116q-5 25 -30.5 40t-64.5 15q-14 0 -29 -2.5t-28.5 -8t-22 -16.5t-8.5 -27q0 -15 7.5 -26t23 -18.5t36.5 -12.5q34 -7 71 -14t64 -14q32 -9 58 -25.5t40.5 -43t14.5 -67.5q0 -48 -19.5 -80t-51.5 -50t-71 -26t-77 -8zM249 -262
q-20 -1 -36.5 -0.5t-32.5 2.5v73q22 -2 42 -1.5t35.5 5t25 14.5t9.5 26q0 14 -9.5 21.5t-22 10t-22.5 2.5q-13 0 -29 -2.5t-27 -6.5l37 143h82l-17 -73q6 1 12 1t11 -1q36 -2 57.5 -24.5t21.5 -65.5q0 -41 -19 -67.5t-50.5 -40t-67.5 -16.5z" />
    <glyph glyph-name="scircumflex" unicode="&#x15d;" horiz-adv-x="511" 
d="M261 -7q-38 0 -75.5 8t-70.5 26.5t-55 50.5t-29 80h123q8 -22 25.5 -35.5t41 -20t46.5 -6.5q14 0 30.5 2t31 8t23.5 17.5t9 30.5q0 18 -10 28.5t-27 17t-41 10.5q-43 9 -92 19.5t-85 33.5q-15 9 -26 21t-18.5 26.5t-11 31.5t-3.5 37q0 42 17.5 71.5t47 48t67.5 27.5t78 9
q54 0 98 -17t73.5 -52t35.5 -89h-116q-5 25 -30.5 40t-64.5 15q-14 0 -29 -2.5t-28.5 -8t-22 -16.5t-8.5 -27q0 -15 7.5 -26t23 -18.5t36.5 -12.5q34 -7 71 -14t64 -14q32 -9 58 -25.5t40.5 -43t14.5 -67.5q0 -48 -19.5 -80t-51.5 -50t-71 -26t-77 -8zM67 594l146 175h83
l148 -175h-118l-71 92l-70 -92h-118z" />
    <glyph glyph-name="uni0219" unicode="&#x219;" horiz-adv-x="511" 
d="M261 -7q-38 0 -75.5 8t-70.5 26.5t-55 50.5t-29 80h123q8 -22 25.5 -35.5t41 -20t46.5 -6.5q14 0 30.5 2t31 8t23.5 17.5t9 30.5q0 18 -10 28.5t-27 17t-41 10.5q-43 9 -92 19.5t-85 33.5q-15 9 -26 21t-18.5 26.5t-11 31.5t-3.5 37q0 42 17.5 71.5t47 48t67.5 27.5t78 9
q54 0 98 -17t73.5 -52t35.5 -89h-116q-5 25 -30.5 40t-64.5 15q-14 0 -29 -2.5t-28.5 -8t-22 -16.5t-8.5 -27q0 -15 7.5 -26t23 -18.5t36.5 -12.5q34 -7 71 -14t64 -14q32 -9 58 -25.5t40.5 -43t14.5 -67.5q0 -48 -19.5 -80t-51.5 -50t-71 -26t-77 -8zM213 -300l-30 42
q13 8 27 21t26 28t16 29q-26 1 -44.5 17t-18.5 44q0 32 21 48.5t48 16.5q36 0 54 -26t18 -62q-1 -36 -17.5 -68t-43 -55.5t-56.5 -34.5z" />
    <glyph glyph-name="germandbls" unicode="&#xdf;" horiz-adv-x="637" 
d="M418 -7q-52 0 -94.5 18t-69.5 54.5t-32 92.5h116q5 -34 25.5 -48t50.5 -14q31 -1 52 14t21 48q0 22 -9.5 35t-29.5 23t-42 18.5t-45 16.5q-44 16 -71 43.5t-27 75.5q0 34 18 62t37 53q16 20 30 41.5t14 50.5q0 18 -10 33.5t-30 25.5t-49 10q-31 0 -51.5 -13t-30.5 -34
t-10 -45v-554h-122v556q0 46 15 82t43 61.5t69 39t93 13.5q39 0 76 -9.5t67.5 -29t48 -49.5t17.5 -71q0 -30 -9 -53t-23 -41.5t-29 -35.5q-18 -19 -32.5 -39.5t-14.5 -36.5q0 -20 12.5 -33.5t43.5 -23.5q21 -7 42 -15t40 -18q42 -19 65.5 -51.5t23.5 -83.5
q0 -59 -25.5 -96.5t-68.5 -55t-95 -17.5z" />
    <glyph glyph-name="t" unicode="t" horiz-adv-x="368" 
d="M289 0q-64 0 -105.5 17t-62 55t-20.5 102v245h-81v108h81v147h122v-147h123v-108h-123v-229q0 -40 14 -61t63 -21h42v-108h-53z" />
    <glyph glyph-name="tbar" unicode="&#x167;" horiz-adv-x="368" 
d="M281 0q-62 0 -102 17t-59 55.5t-19 101.5v61h-81v91h81v95h-81v106h81v147h122v-147h123v-106h-123v-95h123v-91h-123v-47q0 -41 14.5 -60.5t62.5 -19.5h44v-108h-63z" />
    <glyph glyph-name="tcaron" unicode="&#x165;" horiz-adv-x="465" 
d="M289 0q-64 0 -105.5 17t-62 55t-20.5 102v245h-81v108h81v147h122v-147h123v-108h-123v-229q0 -40 14 -61t63 -21h42v-108h-53zM379 419l-34 48q15 9 30 23t28 30t18 30q-28 2 -47.5 20t-19.5 49q0 34 21.5 52t53.5 18q40 0 59 -29t19 -66q0 -40 -18.5 -76t-47.5 -62
t-62 -37z" />
    <glyph glyph-name="uni0163" unicode="&#x163;" horiz-adv-x="368" 
d="M289 0q-64 0 -105.5 17t-62 55t-20.5 102v245h-81v108h81v147h122v-147h123v-108h-123v-229q0 -40 14 -61t63 -21h42v-108h-53zM210 -256q-20 -1 -36.5 -0.5t-32.5 2.5v73q22 -2 42 -1.5t35.5 5t25 14.5t9.5 26q0 14 -9.5 21.5t-22 10t-22.5 2.5q-13 0 -29 -2.5t-27 -6.5
l37 143h82l-17 -73q6 1 12 1t11 -1q36 -2 57.5 -24.5t21.5 -65.5q0 -41 -19 -67.5t-50.5 -40t-67.5 -16.5z" />
    <glyph glyph-name="uni021B" unicode="&#x21b;" horiz-adv-x="368" 
d="M289 0q-64 0 -105.5 17t-62 55t-20.5 102v245h-81v108h81v147h122v-147h123v-108h-123v-229q0 -40 14 -61t63 -21h42v-108h-53zM173 -294l-30 42q13 8 27 21t26 28t16 29q-26 1 -44.5 17t-18.5 44q0 32 21 48.5t48 16.5q36 0 54 -26t18 -62q-1 -36 -17.5 -68t-43 -55.5
t-56.5 -34.5z" />
    <glyph glyph-name="u" unicode="u" horiz-adv-x="582" 
d="M292 -7q-114 0 -174.5 59t-60.5 180v295h122v-287q0 -42 11.5 -73t37 -47.5t64.5 -16.5q42 0 66.5 17.5t34.5 48.5t10 71v287h122v-295q0 -124 -61.5 -181.5t-171.5 -57.5z" />
    <glyph glyph-name="uacute" unicode="&#xfa;" horiz-adv-x="582" 
d="M292 -7q-114 0 -174.5 59t-60.5 180v295h122v-287q0 -42 11.5 -73t37 -47.5t64.5 -16.5q42 0 66.5 17.5t34.5 48.5t10 71v287h122v-295q0 -124 -61.5 -181.5t-171.5 -57.5zM227 594l104 161h130l-129 -161h-105z" />
    <glyph glyph-name="ubreve" unicode="&#x16d;" horiz-adv-x="582" 
d="M292 -7q-114 0 -174.5 59t-60.5 180v295h122v-287q0 -42 11.5 -73t37 -47.5t64.5 -16.5q42 0 66.5 17.5t34.5 48.5t10 71v287h122v-295q0 -124 -61.5 -181.5t-171.5 -57.5zM290 591q-85 0 -133.5 39.5t-49.5 117.5h104q1 -37 22.5 -53t57.5 -16t57.5 16t22.5 53h104
q-1 -51 -23.5 -86.5t-63.5 -53t-98 -17.5z" />
    <glyph glyph-name="ucircumflex" unicode="&#xfb;" horiz-adv-x="582" 
d="M292 -7q-114 0 -174.5 59t-60.5 180v295h122v-287q0 -42 11.5 -73t37 -47.5t64.5 -16.5q42 0 66.5 17.5t34.5 48.5t10 71v287h122v-295q0 -124 -61.5 -181.5t-171.5 -57.5zM102 594l146 175h83l148 -175h-118l-71 92l-70 -92h-118z" />
    <glyph glyph-name="udieresis" unicode="&#xfc;" horiz-adv-x="582" 
d="M292 -7q-114 0 -174.5 59t-60.5 180v295h122v-287q0 -42 11.5 -73t37 -47.5t64.5 -16.5q42 0 66.5 17.5t34.5 48.5t10 71v287h122v-295q0 -124 -61.5 -181.5t-171.5 -57.5zM410 592q-29 0 -50.5 18.5t-21.5 51.5t21.5 52.5t51.5 19.5q29 0 50.5 -19.5t21.5 -52.5
t-21.5 -51.5t-51.5 -18.5zM172 592q-30 0 -51 18.5t-21 51.5t21.5 52.5t50.5 19.5q30 0 51.5 -19.5t21.5 -52.5t-21.5 -51.5t-51.5 -18.5z" />
    <glyph glyph-name="ugrave" unicode="&#xf9;" horiz-adv-x="582" 
d="M292 -7q-114 0 -174.5 59t-60.5 180v295h122v-287q0 -42 11.5 -73t37 -47.5t64.5 -16.5q42 0 66.5 17.5t34.5 48.5t10 71v287h122v-295q0 -124 -61.5 -181.5t-171.5 -57.5zM254 594l-129 162h130l104 -162h-105z" />
    <glyph glyph-name="uhungarumlaut" unicode="&#x171;" horiz-adv-x="582" 
d="M292 -7q-114 0 -174.5 59t-60.5 180v295h122v-287q0 -42 11.5 -73t37 -47.5t64.5 -16.5q42 0 66.5 17.5t34.5 48.5t10 71v287h122v-295q0 -124 -61.5 -181.5t-171.5 -57.5zM310 594l99 162h124l-122 -162h-101zM137 594l80 162h124l-107 -162h-97z" />
    <glyph glyph-name="umacron" unicode="&#x16b;" horiz-adv-x="582" 
d="M292 -7q-114 0 -174.5 59t-60.5 180v295h122v-287q0 -42 11.5 -73t37 -47.5t64.5 -16.5q42 0 66.5 17.5t34.5 48.5t10 71v287h122v-295q0 -124 -61.5 -181.5t-171.5 -57.5zM116 626v106h350v-106h-350z" />
    <glyph glyph-name="uogonek" unicode="&#x173;" horiz-adv-x="582" 
d="M292 -7q-114 0 -174.5 59t-60.5 180v295h122v-287q0 -42 11.5 -73t37 -47.5t64.5 -16.5q42 0 66.5 17.5t34.5 48.5t10 71v287h122v-295q0 -124 -61.5 -181.5t-171.5 -57.5zM333 -213q-60 0 -95 29.5t-35 79.5q0 41 25.5 71.5t61.5 46.5l76 -11q-29 -12 -51 -34t-22 -50
q0 -25 15.5 -38.5t40.5 -13.5q11 0 22 3t22 8l14 -74q-18 -10 -36.5 -13.5t-37.5 -3.5z" />
    <glyph glyph-name="uring" unicode="&#x16f;" horiz-adv-x="582" 
d="M292 -7q-114 0 -174.5 59t-60.5 180v295h122v-287q0 -42 11.5 -73t37 -47.5t64.5 -16.5q42 0 66.5 17.5t34.5 48.5t10 71v287h122v-295q0 -124 -61.5 -181.5t-171.5 -57.5zM291 572q-50 0 -81 29t-31 78t32 80t81 31t80.5 -31.5t31.5 -79.5q0 -49 -32 -78t-81 -29z
M291 639q19 0 30.5 11.5t11.5 29.5q0 19 -11.5 30.5t-30.5 11.5q-18 0 -29.5 -11.5t-11.5 -30.5q0 -18 11 -29.5t30 -11.5z" />
    <glyph glyph-name="utilde" unicode="&#x169;" horiz-adv-x="582" 
d="M292 -7q-114 0 -174.5 59t-60.5 180v295h122v-287q0 -42 11.5 -73t37 -47.5t64.5 -16.5q42 0 66.5 17.5t34.5 48.5t10 71v287h122v-295q0 -124 -61.5 -181.5t-171.5 -57.5zM367 588q-28 0 -49 10.5t-37.5 24.5t-30 24.5t-26.5 10.5q-14 0 -20.5 -12t-7.5 -27.5t0 -25.5
h-88q-2 38 7.5 73t35 57.5t71.5 22.5q26 0 45 -10.5t34.5 -24t29 -24t25.5 -10.5q16 0 22 11.5t7 26t0 25.5h88q1 -37 -7.5 -72t-31.5 -57.5t-67 -22.5z" />
    <glyph glyph-name="v" unicode="v" horiz-adv-x="550" 
d="M193 0l-191 527h135l139 -423l138 423h134l-191 -527h-164z" />
    <glyph glyph-name="w" unicode="w" horiz-adv-x="859" 
d="M170 0l-165 527h135l106 -393l113 393h144l113 -393l105 393h133l-165 -527h-146l-114 380l-113 -380h-146z" />
    <glyph glyph-name="wacute" unicode="&#x1e83;" horiz-adv-x="859" 
d="M170 0l-165 527h135l106 -393l113 393h144l113 -393l105 393h133l-165 -527h-146l-114 380l-113 -380h-146zM366 594l104 161h130l-129 -161h-105z" />
    <glyph glyph-name="wcircumflex" unicode="&#x175;" horiz-adv-x="859" 
d="M170 0l-165 527h135l106 -393l113 393h144l113 -393l105 393h133l-165 -527h-146l-114 380l-113 -380h-146zM241 594l146 175h83l148 -175h-118l-71 92l-70 -92h-118z" />
    <glyph glyph-name="wdieresis" unicode="&#x1e85;" horiz-adv-x="859" 
d="M170 0l-165 527h135l106 -393l113 393h144l113 -393l105 393h133l-165 -527h-146l-114 380l-113 -380h-146zM549 592q-29 0 -50.5 18.5t-21.5 51.5t21.5 52.5t51.5 19.5q29 0 50.5 -19.5t21.5 -52.5t-21.5 -51.5t-51.5 -18.5zM311 592q-30 0 -51 18.5t-21 51.5t21.5 52.5
t50.5 19.5q30 0 51.5 -19.5t21.5 -52.5t-21.5 -51.5t-51.5 -18.5z" />
    <glyph glyph-name="wgrave" unicode="&#x1e81;" horiz-adv-x="859" 
d="M170 0l-165 527h135l106 -393l113 393h144l113 -393l105 393h133l-165 -527h-146l-114 380l-113 -380h-146zM392 594l-129 162h130l104 -162h-105z" />
    <glyph glyph-name="x" unicode="x" horiz-adv-x="545" 
d="M8 0l186 269l-176 258h142l114 -177l111 177h139l-176 -261l189 -266h-143l-125 182l-125 -182h-136z" />
    <glyph glyph-name="y" unicode="y" horiz-adv-x="610" 
d="M292 -241q-61 0 -118.5 16.5t-106.5 55.5l44 98q34 -27 76 -42.5t92 -15.5q79 0 115.5 40t36.5 109v39q-18 -23 -44 -38t-56 -22t-61 -7q-77 0 -122.5 31.5t-65.5 87t-20 126.5v290h121v-263q0 -28 4 -57t16 -53t35.5 -38.5t62.5 -14.5q51 0 79 25t38.5 65t10.5 85v251
h122v-477q0 -67 -14 -120.5t-45 -91.5t-80 -58.5t-120 -20.5z" />
    <glyph glyph-name="yacute" unicode="&#xfd;" horiz-adv-x="610" 
d="M292 -241q-61 0 -118.5 16.5t-106.5 55.5l44 98q34 -27 76 -42.5t92 -15.5q79 0 115.5 40t36.5 109v39q-18 -23 -44 -38t-56 -22t-61 -7q-77 0 -122.5 31.5t-65.5 87t-20 126.5v290h121v-263q0 -28 4 -57t16 -53t35.5 -38.5t62.5 -14.5q51 0 79 25t38.5 65t10.5 85v251
h122v-477q0 -67 -14 -120.5t-45 -91.5t-80 -58.5t-120 -20.5zM241 594l104 161h130l-129 -161h-105z" />
    <glyph glyph-name="ycircumflex" unicode="&#x177;" horiz-adv-x="610" 
d="M292 -241q-61 0 -118.5 16.5t-106.5 55.5l44 98q34 -27 76 -42.5t92 -15.5q79 0 115.5 40t36.5 109v39q-18 -23 -44 -38t-56 -22t-61 -7q-77 0 -122.5 31.5t-65.5 87t-20 126.5v290h121v-263q0 -28 4 -57t16 -53t35.5 -38.5t62.5 -14.5q51 0 79 25t38.5 65t10.5 85v251
h122v-477q0 -67 -14 -120.5t-45 -91.5t-80 -58.5t-120 -20.5zM116 594l146 175h83l148 -175h-118l-71 92l-70 -92h-118z" />
    <glyph glyph-name="ydieresis" unicode="&#xff;" horiz-adv-x="610" 
d="M292 -241q-61 0 -118.5 16.5t-106.5 55.5l44 98q34 -27 76 -42.5t92 -15.5q79 0 115.5 40t36.5 109v39q-18 -23 -44 -38t-56 -22t-61 -7q-77 0 -122.5 31.5t-65.5 87t-20 126.5v290h121v-263q0 -28 4 -57t16 -53t35.5 -38.5t62.5 -14.5q51 0 79 25t38.5 65t10.5 85v251
h122v-477q0 -67 -14 -120.5t-45 -91.5t-80 -58.5t-120 -20.5zM424 592q-29 0 -50.5 18.5t-21.5 51.5t21.5 52.5t51.5 19.5q29 0 50.5 -19.5t21.5 -52.5t-21.5 -51.5t-51.5 -18.5zM186 592q-30 0 -51 18.5t-21 51.5t21.5 52.5t50.5 19.5q30 0 51.5 -19.5t21.5 -52.5
t-21.5 -51.5t-51.5 -18.5z" />
    <glyph glyph-name="ygrave" unicode="&#x1ef3;" horiz-adv-x="610" 
d="M292 -241q-61 0 -118.5 16.5t-106.5 55.5l44 98q34 -27 76 -42.5t92 -15.5q79 0 115.5 40t36.5 109v39q-18 -23 -44 -38t-56 -22t-61 -7q-77 0 -122.5 31.5t-65.5 87t-20 126.5v290h121v-263q0 -28 4 -57t16 -53t35.5 -38.5t62.5 -14.5q51 0 79 25t38.5 65t10.5 85v251
h122v-477q0 -67 -14 -120.5t-45 -91.5t-80 -58.5t-120 -20.5zM268 594l-129 162h130l104 -162h-105z" />
    <glyph glyph-name="z" unicode="z" horiz-adv-x="513" 
d="M39 0v94l278 325h-278v108h435v-93l-280 -326h280v-108h-435z" />
    <glyph glyph-name="zacute" unicode="&#x17a;" horiz-adv-x="513" 
d="M39 0v94l278 325h-278v108h435v-93l-280 -326h280v-108h-435zM193 594l104 161h130l-129 -161h-105z" />
    <glyph glyph-name="zcaron" unicode="&#x17e;" horiz-adv-x="513" 
d="M39 0v94l278 325h-278v108h435v-93l-280 -326h280v-108h-435zM216 594l-148 175h118l71 -91l70 91h118l-147 -175h-82z" />
    <glyph glyph-name="zdotaccent" unicode="&#x17c;" horiz-adv-x="513" 
d="M39 0v94l278 325h-278v108h435v-93l-280 -326h280v-108h-435zM256 588q-35 0 -56 21t-21 55q0 33 22 54.5t55 21.5q32 0 55 -21t23 -55t-22 -55t-56 -21z" />
    <glyph glyph-name="a_alt" horiz-adv-x="563" 
d="M221 -6q-48 0 -89 16.5t-66 50.5t-25 87q0 37 13.5 64t37.5 45.5t54.5 30t64.5 17.5q36 7 81 11.5t97 9.5q0 33 -12.5 56.5t-35.5 36t-57 12.5q-35 0 -61.5 -12t-39.5 -41h-125q10 58 44 92t83 49.5t100 15.5q82 0 130 -30t69.5 -85.5t21.5 -133.5v-286h-111l-4 64
q-24 -28 -53.5 -43.5t-59.5 -21t-57 -5.5zM244 94q40 0 72 14t52 42t21 68v22q-23 -2 -46.5 -4.5t-46.5 -5.5t-46 -7q-40 -6 -64 -23t-24 -45q0 -25 13.5 -38t32.5 -18t36 -5z" />
    <glyph glyph-name="c_alt" horiz-adv-x="555" 
d="M290 -7q-83 0 -139.5 34t-86 94.5t-29.5 140.5q0 81 30 142t88.5 96t141.5 35q58 0 104 -18.5t76.5 -55.5t42.5 -95h-123q-14 31 -42.5 45t-60.5 14q-46 0 -76.5 -22.5t-45 -59.5t-14.5 -81q0 -42 14.5 -79.5t44.5 -59.5t78 -22q30 0 58.5 11t42.5 38h124
q-13 -54 -47 -89t-81 -51.5t-100 -16.5z" />
    <glyph glyph-name="f_alt" horiz-adv-x="373" 
d="M103 0v419h-82v108h82v44q0 61 20.5 101t59.5 60t94 20q35 0 65 -8t56 -28l-40 -93q-10 9 -27.5 16t-39.5 7q-26 0 -41 -12t-20.5 -32.5t-5.5 -46.5v-28h146v-108h-146v-419h-121z" />
    <glyph glyph-name="g_alt" horiz-adv-x="614" 
d="M292 -241q-58 0 -117 16.5t-108 55.5l44 98q35 -27 77 -42.5t96 -15.5q53 0 85.5 19.5t47.5 53.5t16 78v47q-17 -28 -45.5 -45t-60 -23.5t-60.5 -6.5q-79 0 -130.5 35t-76.5 95t-25 136q0 78 27 140t81 98.5t135 36.5q26 0 54 -6t54.5 -20t46.5 -39l9 57h113v-478
q0 -93 -27.5 -157.5t-86 -98.5t-149.5 -34zM295 103q46 0 77 22t46.5 59t15.5 80q0 45 -15.5 81t-46 58t-79.5 22q-50 0 -80 -23t-43.5 -60t-13.5 -79q0 -44 14.5 -80.5t45 -58t79.5 -21.5z" />
    <glyph glyph-name="i_alt" horiz-adv-x="273" 
d="M86 0v419h-82v108h204v-527h-122zM144 593q-31 0 -54 20t-23 55q0 24 11 41t29 26.5t38 9.5q32 0 54.5 -20.5t22.5 -56.5q0 -35 -23 -55t-55 -20z" />
    <glyph glyph-name="j_alt" horiz-adv-x="275" 
d="M-26 -196v108h31q36 0 53.5 12.5t23 33.5t5.5 46v415h-88v108h209v-547q0 -90 -39 -133t-131 -43h-64zM147 593q-32 0 -55 20t-23 55q0 24 11 41t29 26.5t39 9.5q30 0 53 -21t23 -56q0 -36 -23 -55.5t-54 -19.5z" />
    <glyph glyph-name="k_alt" horiz-adv-x="556" 
d="M59 0v707h122v-405l213 225h149l-211 -216l213 -311h-138l-160 232l-66 -67v-165h-122z" />
    <glyph glyph-name="l_alt" horiz-adv-x="303" 
d="M240 0q-52 0 -87.5 11t-56.5 33q-22 26 -29.5 66.5t-7.5 94.5v502h122v-490q0 -25 1 -48t11 -37q15 -23 63 -23h44v-109h-60z" />
    <glyph glyph-name="s_alt" horiz-adv-x="545" 
d="M284 -7q-42 0 -83.5 9t-76.5 28t-59 51.5t-30 79.5h124q7 -26 29.5 -39.5t49.5 -18.5t47 -5q17 0 35.5 2.5t34.5 8t26 17t10 28.5q0 18 -8.5 29t-24 17t-37.5 10q-21 5 -47.5 8.5t-52 9.5t-44.5 16q-20 7 -42 16t-40.5 24t-30 37.5t-11.5 56.5q0 47 21 77.5t55 48
t73 24.5t76 7q53 0 100 -16.5t78.5 -52t37.5 -92.5h-115q-2 21 -19 34t-42 18.5t-49 5.5q-22 0 -45 -4.5t-38 -16t-15 -34.5q0 -16 11.5 -27t31.5 -18t46 -12q17 -4 40.5 -7.5t46.5 -7t36 -6.5q37 -8 65.5 -24.5t44.5 -43.5t16 -68q0 -47 -19 -79.5t-50.5 -52.5t-72 -29
t-83.5 -9z" />
    <glyph glyph-name="t_alt" horiz-adv-x="378" 
d="M290 0q-64 0 -105.5 17t-62 55t-20.5 102v245h-81v108h82l21 147h100v-147h123v-108h-123v-228q0 -40 15.5 -61.5t62.5 -21.5h41v-108h-53z" />
    <glyph glyph-name="u_alt" horiz-adv-x="598" 
d="M259 -9q-75 0 -120 31t-65 86t-20 126v293h122v-270q0 -29 3.5 -56.5t14.5 -50.5t34 -36t62 -13q36 0 60.5 12.5t39 35.5t21 53t6.5 65v260h122v-527h-108l-4 68q-18 -28 -46.5 -45t-60.5 -24.5t-61 -7.5z" />
    <glyph glyph-name="w_alt" horiz-adv-x="815" 
d="M171 0l-165 527h134l109 -393l102 276h117l102 -276l107 393h132l-164 -527h-145l-92 258l-94 -258h-143z" />
    <glyph glyph-name="y_alt" horiz-adv-x="609" 
d="M299 -241q-59 0 -109 18.5t-84 58.5t-46 101h125q7 -23 24.5 -38.5t41.5 -22t50 -6.5q28 0 49 6.5t36.5 19.5t25 31t14.5 40t5 48v42q-17 -24 -44 -39t-56.5 -21t-55.5 -6q-65 0 -107 20.5t-65 54.5t-32.5 77.5t-9.5 91.5v292h121v-263q0 -29 4 -58t16 -52.5t35.5 -38
t62.5 -14.5q38 0 63 14t39.5 38.5t20 55t5.5 63.5v255h122v-494q0 -62 -14.5 -113t-45 -86.5t-78 -55t-113.5 -19.5z" />
    <glyph glyph-name="ordfeminine" unicode="&#xaa;" horiz-adv-x="371" 
d="M151 423q-47 0 -78 25.5t-31 71.5q0 38 18.5 58.5t48.5 28.5t64 8h67q-2 26 -15 40.5t-39 15.5q-17 0 -33 -6t-20 -23h-83q6 35 25.5 57t48.5 32.5t63 10.5q46 0 74.5 -17.5t42 -51t13.5 -79.5v-167h-70l-3 36q-19 -22 -43 -31t-50 -9zM167 491q31 0 52 15.5t21 50.5h-58
q-11 0 -25.5 -1.5t-24.5 -8.5t-10 -22q0 -18 13 -26t32 -8z" />
    <glyph glyph-name="ordmasculine" unicode="&#xba;" horiz-adv-x="385" 
d="M192 422q-52 0 -83 22.5t-44 59t-13 76.5q0 42 13.5 78.5t44.5 59.5t83 23t82.5 -23t44 -59t13.5 -78q0 -41 -14 -77.5t-44.5 -59t-82.5 -22.5zM192 493q26 0 39.5 14.5t17.5 35t4 38.5q0 19 -4 39.5t-17 34.5t-39 14t-39.5 -14t-18 -34.5t-4.5 -41.5q0 -18 4 -38t17 -34
t40 -14z" />
    <glyph glyph-name="uni0410" unicode="&#x410;" horiz-adv-x="698" 
d="M4 0l271 707h149l270 -707h-135l-47 131h-326l-48 -131h-134zM226 244h245l-122 337z" />
    <glyph glyph-name="uni0411" unicode="&#x411;" horiz-adv-x="669" 
d="M79 0v707h507v-114h-382v-166h155q52 0 99.5 -8t84.5 -29.5t58 -60.5t21 -102q0 -66 -22.5 -110t-62 -69.5t-90 -36.5t-105.5 -11h-263zM204 114h136q29 0 57 4t51 15t36.5 32t13.5 55q0 33 -12.5 53t-34 29.5t-48.5 12.5t-57 3h-142v-204z" />
    <glyph glyph-name="uni0412" unicode="&#x412;" horiz-adv-x="669" 
d="M78 0v707h290q49 0 90.5 -8.5t72 -29.5t47.5 -56t17 -87q0 -48 -22 -87.5t-65 -59.5q58 -15 89 -58.5t31 -112.5q0 -61 -22.5 -101.5t-62 -64t-90.5 -33t-108 -9.5h-267zM203 114h149q28 0 55 4t49 14t34.5 29.5t12.5 50.5q0 28 -10 46t-27.5 28.5t-41.5 15t-50 4.5h-171
v-192zM203 411h132q31 0 56 6t43 18t28 30.5t10 44.5q0 35 -15.5 52.5t-42.5 24t-60 6.5h-151v-182z" />
    <glyph glyph-name="uni0413" unicode="&#x413;" horiz-adv-x="579" 
d="M79 0v707h478v-114h-353v-593h-125z" />
    <glyph glyph-name="Geupturncy" unicode="&#x490;" horiz-adv-x="579" 
d="M79 0v707h353v151h125v-265h-353v-593h-125z" />
    <glyph glyph-name="uni0414" unicode="&#x414;" horiz-adv-x="727" 
d="M16 -184v298q40 0 59.5 18.5t28.5 46.5t14 61.5t8.5 68.5t5.5 69q5 85 7 166.5t3 162.5h484v-593h85v-298h-125v184h-445v-184h-125zM214 114h287v479h-242l-7 -240q-1 -22 -2.5 -51.5t-5.5 -61.5t-11 -64.5t-19 -61.5z" />
    <glyph glyph-name="uni0415" unicode="&#x415;" 
d="M79 0v707h499v-114h-374v-186h325v-112h-325v-181h374v-114h-499z" />
    <glyph glyph-name="uni0401" unicode="&#x401;" 
d="M79 0v707h499v-114h-374v-186h325v-112h-325v-181h374v-114h-499zM452 772q-29 0 -50.5 18.5t-21.5 51.5t21.5 52.5t51.5 19.5q29 0 50.5 -19.5t21.5 -52.5t-21.5 -51.5t-51.5 -18.5zM214 772q-30 0 -51 18.5t-21 51.5t21.5 52.5t50.5 19.5q30 0 51.5 -19.5t21.5 -52.5
t-21.5 -51.5t-51.5 -18.5z" />
    <glyph glyph-name="uni0416" unicode="&#x416;" horiz-adv-x="935" 
d="M9 0l196 362l-196 345h140l160 -302h96v302h124v-302h98l160 302h139l-197 -345l197 -362h-146l-151 292h-100v-292h-124v292l-99 1l-152 -293h-145z" />
    <glyph glyph-name="uni0417" unicode="&#x417;" horiz-adv-x="646" 
d="M326 -8q-56 0 -106.5 12t-91 38t-65 67t-27.5 99h121q4 -28 19.5 -47t39 -31t52.5 -17t58 -5q24 0 50.5 3.5t50 14.5t38 31.5t14.5 53.5q0 30 -11.5 49t-31.5 29t-46.5 14t-57.5 4h-96v105h68q30 0 57 5.5t47.5 16.5t32.5 29.5t12 44.5q0 39 -20.5 58.5t-51.5 27t-62 7.5
q-38 0 -70 -10t-52 -31t-22 -53h-121q1 50 19 85.5t47 59t65 38t74 20.5t71 6q46 0 89.5 -10t79 -32.5t56.5 -59.5t21 -89q0 -26 -7.5 -52t-26 -50t-55.5 -44q59 -17 88.5 -64t29.5 -108q-1 -57 -24.5 -98t-62.5 -66.5t-88.5 -38t-103.5 -12.5z" />
    <glyph glyph-name="uni0418" unicode="&#x418;" horiz-adv-x="747" 
d="M79 0v707h125v-501l352 501h112v-707h-125v495l-353 -495h-111z" />
    <glyph glyph-name="uni0419" unicode="&#x419;" horiz-adv-x="747" 
d="M79 0v707h125v-501l352 501h112v-707h-125v495l-353 -495h-111zM375 755q-58 0 -100 18t-65.5 54.5t-25.5 89.5h106q2 -34 25.5 -52.5t60.5 -18.5t60 18.5t24 52.5h107q-2 -53 -25.5 -89.5t-66 -54.5t-100.5 -18z" />
    <glyph glyph-name="uni041A" unicode="&#x41a;" horiz-adv-x="657" 
d="M79 0v707h125v-304h102l199 304h142l-236 -346l237 -361h-146l-190 289h-108v-289h-125z" />
    <glyph glyph-name="uni041B" unicode="&#x41b;" horiz-adv-x="698" 
d="M11 -5v120q32 0 51.5 12.5t31 35t16.5 50.5q6 30 8.5 61.5t4 62.5t1.5 56l4 314h491v-707h-124v593h-248l-4 -187q-1 -75 -3.5 -142.5t-14.5 -121.5t-45 -90q-27 -30 -66.5 -42.5t-102.5 -14.5z" />
    <glyph glyph-name="uni041C" unicode="&#x41c;" horiz-adv-x="887" 
d="M79 0v707h170l198 -357l197 357h164v-707h-124v552l-213 -386h-52l-215 386v-552h-125z" />
    <glyph glyph-name="uni041D" unicode="&#x41d;" horiz-adv-x="737" 
d="M79 0v707h125v-302h330v302h124v-707h-124v291h-330v-291h-125z" />
    <glyph glyph-name="uni041E" unicode="&#x41e;" horiz-adv-x="769" 
d="M383 -8q-109 0 -185.5 46t-117 128t-40.5 187q0 107 41 188.5t118 128t186 46.5t185.5 -46t117.5 -127.5t41 -187.5q0 -105 -40.5 -187t-118 -129t-187.5 -47zM385 108q76 0 124 35t70.5 91t22.5 119q0 48 -12.5 92t-39 79t-67.5 55.5t-98 20.5q-75 0 -123.5 -35
t-71.5 -91t-23 -121q0 -64 23 -120t71.5 -90.5t123.5 -34.5z" />
    <glyph glyph-name="uni041F" unicode="&#x41f;" horiz-adv-x="736" 
d="M79 0v707h578v-707h-125v594h-328v-594h-125z" />
    <glyph glyph-name="uni0420" unicode="&#x420;" horiz-adv-x="643" 
d="M79 0v707h266q80 0 138.5 -24.5t91 -77.5t32.5 -139q0 -82 -36 -137t-98 -82.5t-142 -27.5h-127v-219h-125zM204 331h125q69 0 111 33t42 104q0 62 -35 93.5t-108 31.5h-135v-262z" />
    <glyph glyph-name="uni0421" unicode="&#x421;" horiz-adv-x="717" 
d="M376 -8q-110 0 -185 45.5t-113 126.5t-38 188t39 189t114 128.5t183 46.5q80 0 141 -27t99.5 -76.5t49.5 -121.5h-121q-14 51 -57 80t-112 29q-75 0 -121 -35t-66.5 -90t-20.5 -118q0 -65 21.5 -122t68.5 -92t121 -35q46 0 80.5 13t58 37.5t32.5 57.5h127
q-12 -71 -53.5 -121t-105 -76.5t-142.5 -26.5z" />
    <glyph glyph-name="uni0422" unicode="&#x422;" horiz-adv-x="586" 
d="M231 0v593h-221v114h566v-114h-221v-593h-124z" />
    <glyph glyph-name="uni0423" unicode="&#x423;" horiz-adv-x="636" 
d="M115 -1v119q44 0 73.5 5.5t52 22.5t42.5 52l-272 509h146l193 -387l155 387h134l-154 -359q-15 -36 -34 -79.5t-41.5 -86.5t-48 -79.5t-54.5 -57.5q-36 -26 -82.5 -36t-109.5 -10z" />
    <glyph glyph-name="uni040E" unicode="&#x40e;" horiz-adv-x="636" 
d="M115 -1v119q44 0 73.5 5.5t52 22.5t42.5 52l-272 509h146l193 -387l155 387h134l-154 -359q-15 -36 -34 -79.5t-41.5 -86.5t-48 -79.5t-54.5 -57.5q-36 -26 -82.5 -36t-109.5 -10zM336 771q-85 0 -133.5 39.5t-49.5 117.5h104q1 -37 22.5 -53t57.5 -16t57.5 16t22.5 53
h104q-1 -51 -23.5 -86.5t-63.5 -53t-98 -17.5z" />
    <glyph glyph-name="uni0424" unicode="&#x424;" horiz-adv-x="859" 
d="M367 -13v113h-52q-85 1 -147 34t-95 94.5t-33 145.5q1 88 37 148t100 91t146 31h44v98h125v-98h40q82 0 147 -31t102 -90.5t38 -146.5q1 -86 -33 -147.5t-96.5 -94.5t-149.5 -34h-48v-113h-125zM327 207h40v330h-38q-53 0 -90 -21t-56.5 -57t-19.5 -82q0 -49 17.5 -88
t54 -60.5t92.5 -21.5zM492 207h39q57 0 93.5 21.5t54 60.5t17.5 88q0 47 -19.5 83t-57 56.5t-90.5 20.5h-37v-330z" />
    <glyph glyph-name="uni0425" unicode="&#x425;" horiz-adv-x="643" 
d="M8 0l237 354l-229 353h150l158 -259l156 259h147l-228 -352l236 -355h-150l-165 260l-168 -260h-144z" />
    <glyph glyph-name="uni0427" unicode="&#x427;" horiz-adv-x="678" 
d="M474 0v246q-34 -3 -57.5 -5t-46.5 -3t-54 -1q-83 0 -141 23t-88.5 75.5t-30.5 142.5v229h125v-211q0 -58 17 -89.5t53 -43t92 -11.5q28 0 64 2t67 7v346h125v-707h-125z" />
    <glyph glyph-name="uni0426" unicode="&#x426;" horiz-adv-x="736" 
d="M598 -184v184h-519v707h125v-593h309v593h125v-593h84v-298h-124z" />
    <glyph glyph-name="uni0428" unicode="&#x428;" horiz-adv-x="985" 
d="M79 0v707h125v-593h226v593h125v-593h226v593h125v-707h-827z" />
    <glyph glyph-name="uni0429" unicode="&#x429;" horiz-adv-x="1004" 
d="M865 -184v184h-786v707h125v-593h226v593h125v-593h226v593h125v-593h84v-298h-125z" />
    <glyph glyph-name="uni042C" unicode="&#x42c;" horiz-adv-x="652" 
d="M78 0v707h125v-272h141q54 0 102 -9t85 -32t58 -63t21 -103q1 -66 -22.5 -110.5t-63.5 -70.5t-91.5 -36.5t-107.5 -10.5h-247zM203 114h122q32 0 61 4t51.5 15.5t35 33t12.5 56.5q0 34 -12 54t-33 30t-48 13.5t-57 3.5h-132v-210z" />
    <glyph glyph-name="uni042B" unicode="&#x42b;" horiz-adv-x="880" 
d="M79 0v707h125v-272h111q50 0 97.5 -9t85.5 -31.5t60.5 -63t22.5 -104.5q0 -65 -22.5 -108.5t-62 -70t-90.5 -37.5t-107 -11h-220zM204 114h92q32 0 61 4.5t51.5 16t35.5 33t13 55.5t-12.5 54.5t-35 30.5t-50.5 13t-58 3h-97v-210zM677 0v707h124v-707h-124z" />
    <glyph glyph-name="uni042A" unicode="&#x42a;" horiz-adv-x="745" 
d="M170 0v593h-164v114h289v-272h143q49 0 96 -8.5t85 -30.5t61 -63t23 -106t-22.5 -108.5t-61 -69.5t-89 -37.5t-105.5 -11.5h-255zM295 114h121q32 0 61.5 4t52.5 15.5t36 33t13 57.5q0 32 -11.5 51.5t-32.5 30.5t-48 14.5t-58 3.5h-134v-210z" />
    <glyph glyph-name="uni0405" unicode="&#x405;" horiz-adv-x="657" 
d="M342 -8q-71 0 -133.5 21.5t-104.5 69t-55 124.5h127q12 -39 38.5 -61t62.5 -30.5t73 -8.5q33 0 62.5 8.5t49 28.5t19.5 53q0 25 -10.5 40.5t-29 26t-44.5 16.5q-25 8 -54 14t-57 13t-53 18q-32 11 -61.5 25.5t-51 36t-34.5 52.5t-13 74q0 57 22.5 96.5t61 62.5t86 33.5
t96.5 10.5q68 0 122.5 -22t88.5 -68t39 -118h-121q-4 34 -24 54.5t-50 30t-65 9.5q-24 0 -47.5 -4t-42 -14t-30 -26.5t-11.5 -41.5q0 -22 11 -38t30.5 -27t46.5 -21q35 -13 76.5 -20.5t78.5 -19.5q36 -11 66.5 -25t52.5 -34.5t34.5 -50t12.5 -70.5q0 -60 -21.5 -101.5
t-59 -67.5t-85 -37.5t-99.5 -11.5z" />
    <glyph glyph-name="uni0404" unicode="&#x404;" horiz-adv-x="714" 
d="M371 -8q-110 0 -183.5 45.5t-110.5 126.5t-37 187t37 188t111 129.5t184 47.5q74 0 136 -23.5t103.5 -72.5t54.5 -126h-122q-11 40 -38 63.5t-63 33.5t-73 10q-59 0 -102.5 -24t-68 -67t-28.5 -101h294v-111h-294q2 -57 27.5 -100t71 -66.5t105.5 -23.5q37 0 72.5 10
t62.5 33t39 63h125q-14 -74 -58 -123.5t-108 -74t-137 -24.5z" />
    <glyph glyph-name="uni042D" unicode="&#x42d;" horiz-adv-x="714" 
d="M343 -8q-80 0 -143.5 26t-104.5 75.5t-55 120.5h126q10 -33 35 -57t61.5 -36.5t81.5 -12.5q65 0 108 24.5t66.5 68t25.5 97.5h-294v111h293q-3 52 -25 95t-64.5 70t-108.5 27q-47 0 -83 -13t-59 -37t-33 -57h-122q14 77 58.5 126t109 72.5t136.5 23.5q82 0 142.5 -27.5
t100.5 -77t59.5 -116t19.5 -143.5q0 -107 -37.5 -188t-111.5 -126.5t-182 -45.5z" />
    <glyph glyph-name="uni0406" unicode="&#x406;" horiz-adv-x="283" 
d="M79 0v707h125v-707h-125z" />
    <glyph glyph-name="uni0407" unicode="&#x407;" horiz-adv-x="283" 
d="M79 0v707h125v-707h-125zM51 775q-29 0 -49.5 18.5t-20.5 50.5t20.5 51t49.5 19t49.5 -18.5t20.5 -51.5q0 -32 -20.5 -50.5t-49.5 -18.5zM232 775q-29 0 -49.5 18.5t-20.5 50.5t21 51t49 19q29 0 49 -18.5t20 -51.5q0 -32 -20 -50.5t-49 -18.5z" />
    <glyph glyph-name="uni0408" unicode="&#x408;" horiz-adv-x="576" 
d="M276 -8q-53 0 -97 12.5t-75.5 40t-49.5 72t-20 108.5h125q2 -32 13 -59t35.5 -43t66.5 -16q40 0 62 17t31.5 45t9.5 63v475h124v-459q0 -59 -12.5 -106.5t-40 -81t-70 -51t-102.5 -17.5z" />
    <glyph glyph-name="Yucy" unicode="&#x42e;" horiz-adv-x="1006" 
d="M629 -8q-99 0 -169 39t-109.5 107.5t-47.5 157.5h-99v-296h-125v707h125v-299h99q7 91 47 160.5t110 108.5t166 39q109 0 185 -45.5t115.5 -127.5t39.5 -189q0 -105 -39 -187t-114 -128.5t-184 -46.5zM627 107q75 0 122 35t68 91.5t21 121.5q0 64 -21 120t-67 91t-122 35
q-57 0 -96.5 -21t-64 -56t-35.5 -79.5t-11 -91.5q0 -48 11.5 -92t35.5 -78.5t63.5 -55t95.5 -20.5z" />
    <glyph glyph-name="Yacy" unicode="&#x42f;" horiz-adv-x="688" 
d="M50 0l169 270q-72 21 -114 73t-42 137q0 64 20.5 107.5t57.5 70t87.5 38t108.5 11.5h272v-707h-125v249h-142l-147 -249h-145zM347 360h137v233h-155q-45 0 -77 -12t-48.5 -37t-16.5 -65q0 -48 23 -73.5t59.5 -35.5t77.5 -10z" />
    <glyph glyph-name="uni04C1" unicode="&#x4c1;" horiz-adv-x="930" 
d="M7 0l195 362l-195 345h140l159 -302h96v302h125v-302h97l161 302h138l-196 -345l197 -362h-146l-152 292h-99v-292h-125v292l-98 1l-153 -293h-144zM465 773q-54 0 -94.5 16.5t-63.5 49.5t-25 84h103q2 -33 24 -48.5t57 -15.5q36 0 57 15.5t23 48.5h103q-1 -50 -24 -83.5
t-64 -50t-96 -16.5z" />
    <glyph glyph-name="uni0430" unicode="&#x430;" horiz-adv-x="563" 
d="M223 -7q-35 0 -67.5 10t-58.5 29.5t-41 49t-15 69.5q0 51 20 83.5t54.5 49.5t78.5 23.5t92 6.5h103q0 35 -11 60.5t-34.5 40.5t-60.5 15q-24 0 -44.5 -5.5t-35 -17t-20.5 -29.5h-125q7 41 28.5 70.5t53 48.5t69.5 28.5t77 9.5q77 0 125.5 -30t71.5 -86t23 -135v-284h-108
l-3 64q-22 -28 -50.5 -43.5t-59.5 -21.5t-62 -6zM251 92q41 0 72 15t49 42t18 63v16h-95q-26 0 -50 -1.5t-42.5 -8t-29.5 -19.5t-11 -37q0 -23 12 -38.5t32.5 -23.5t44.5 -8z" />
    <glyph glyph-name="uni0431" unicode="&#x431;" horiz-adv-x="596" 
d="M302 -7q-54 0 -96 16t-72.5 44.5t-50.5 67t-30 84.5t-10 97q0 76 6.5 139.5t26 112.5t59 83t103.5 51q40 12 82 18.5t89 12.5q34 4 55.5 7t37 6t28.5 5v-121q-10 -4 -21.5 -6t-24.5 -3.5t-26 -2.5t-25.5 -2.5t-24.5 -2.5q-41 -4 -83 -8t-78 -17t-59 -45
q-10 -13 -17.5 -33t-11.5 -41.5t-4 -43.5q22 32 52 50t63.5 26t62.5 8q72 0 122 -31.5t76 -86t26 -125.5q0 -76 -31 -134.5t-88 -91.5t-136 -33zM303 101q44 0 73.5 20.5t44.5 53.5t15 71t-15 69t-44 50t-72 19q-42 0 -72 -19.5t-46 -51t-16 -68.5t14.5 -70t43.5 -53.5
t74 -20.5z" />
    <glyph glyph-name="uni0432" unicode="&#x432;" horiz-adv-x="559" 
d="M59 0v527h239q34 0 68.5 -4.5t62.5 -19t45.5 -41t17.5 -71.5q0 -24 -7.5 -45t-21 -36t-33.5 -26q46 -13 66.5 -45.5t20.5 -78.5q0 -43 -17 -73.5t-45.5 -49.5t-63 -28t-69.5 -9h-263zM182 106h125q25 0 45 5t32.5 18t12.5 36q0 21 -9.5 33.5t-25 18t-34.5 7t-37 1.5h-109
v-119zM182 311h83q17 0 36 2t36 8.5t28 18.5t11 31q0 26 -14.5 37t-35 14t-40.5 3h-104v-114z" />
    <glyph glyph-name="uni0433" unicode="&#x433;" horiz-adv-x="450" 
d="M59 0v527h374v-108h-252v-419h-122z" />
    <glyph glyph-name="geupturncy" unicode="&#x491;" horiz-adv-x="459" 
d="M59 0v527h264v144h119v-252h-261v-419h-122z" />
    <glyph glyph-name="uni0434" unicode="&#x434;" horiz-adv-x="613" 
d="M16 -153v261q26 0 43 13.5t27.5 36.5t16.5 50.5t9 55.5q6 45 7.5 92.5t1.5 81.5q1 22 1 44.5v44.5h407v-419h68v-261h-120v153h-341v-153h-120zM190 108h217v311h-175q-1 -37 -2 -79.5t-4 -80.5q-1 -22 -4.5 -49t-10.5 -53t-21 -49z" />
    <glyph glyph-name="uni0435" unicode="&#x435;" horiz-adv-x="574" 
d="M295 -7q-82 0 -139.5 34t-87 94.5t-29.5 140.5t30.5 141.5t88 96.5t138.5 35q58 0 103 -20.5t76 -57t46 -84t14 -101.5q0 -12 -1 -23.5t-3 -24.5h-370q3 -35 18.5 -64t44 -46t71.5 -17q25 0 48 6.5t40.5 19.5t23.5 33h122q-13 -57 -48 -93t-83.5 -53t-102.5 -17zM163 315
h254q0 33 -15 60t-42.5 42.5t-66.5 15.5q-42 0 -70 -17t-43 -44t-17 -57z" />
    <glyph glyph-name="uni0451" unicode="&#x451;" horiz-adv-x="574" 
d="M295 -7q-82 0 -139.5 34t-87 94.5t-29.5 140.5t30.5 141.5t88 96.5t138.5 35q58 0 103 -20.5t76 -57t46 -84t14 -101.5q0 -12 -1 -23.5t-3 -24.5h-370q3 -35 18.5 -64t44 -46t71.5 -17q25 0 48 6.5t40.5 19.5t23.5 33h122q-13 -57 -48 -93t-83.5 -53t-102.5 -17zM163 315
h254q0 33 -15 60t-42.5 42.5t-66.5 15.5q-42 0 -70 -17t-43 -44t-17 -57zM406 592q-29 0 -50.5 18.5t-21.5 51.5t21.5 52.5t51.5 19.5q29 0 50.5 -19.5t21.5 -52.5t-21.5 -51.5t-51.5 -18.5zM168 592q-30 0 -51 18.5t-21 51.5t21.5 52.5t50.5 19.5q30 0 51.5 -19.5
t21.5 -52.5t-21.5 -51.5t-51.5 -18.5z" />
    <glyph glyph-name="uni0436" unicode="&#x436;" horiz-adv-x="800" 
d="M8 0l155 276l-144 251h128l117 -211h75v211h122v-211h75l116 211h129l-145 -251l155 -276h-137l-112 209h-81v-209h-122v209h-81l-113 -209h-137z" />
    <glyph glyph-name="uni0437" unicode="&#x437;" horiz-adv-x="526" 
d="M268 -7q-41 0 -81.5 8.5t-75 28t-56.5 51.5t-26 79h119q3 -22 22.5 -36t46 -20.5t49.5 -6.5q25 0 49 5.5t40.5 20t16.5 40.5q0 24 -11.5 36t-31 16.5t-44.5 4.5h-92v93h73q19 0 35 3t28.5 10t19.5 18.5t7 27.5q0 23 -13 35.5t-34 18t-43 5.5q-24 0 -47.5 -5t-40 -18
t-20.5 -36h-117q6 62 40 97.5t84 50.5t101 15q36 0 72.5 -7t66.5 -24t48 -45t18 -70q0 -33 -14 -60.5t-44 -43.5q42 -16 60 -49t18 -76q0 -45 -19.5 -77t-52 -52t-72 -29t-79.5 -9z" />
    <glyph glyph-name="uni0438" unicode="&#x438;" horiz-adv-x="606" 
d="M59 0v527h122v-343q6 11 15.5 24t16.5 21l226 298h108v-527h-121v339q-8 -13 -16.5 -24.5t-16.5 -21.5l-223 -293h-111z" />
    <glyph glyph-name="uni0439" unicode="&#x439;" horiz-adv-x="606" 
d="M59 0v527h122v-343q6 11 15.5 24t16.5 21l226 298h108v-527h-121v339q-8 -13 -16.5 -24.5t-16.5 -21.5l-223 -293h-111zM311 581q-85 0 -133.5 39.5t-49.5 117.5h104q1 -37 22.5 -53t57.5 -16t57.5 16t22.5 53h104q-1 -51 -23.5 -86.5t-63.5 -53t-98 -17.5z" />
    <glyph glyph-name="uni043A" unicode="&#x43a;" horiz-adv-x="553" 
d="M59 0v527h122v-211h84l137 211h138l-169 -249l175 -278h-141l-131 208h-93v-208h-122z" />
    <glyph glyph-name="uni043B" unicode="&#x43b;" horiz-adv-x="570" 
d="M14 -1v110q22 0 38 10.5t27 28.5q13 22 19 56t8 69q3 45 4.5 90.5t3 88t1.5 75.5h396v-527h-122v419h-161q-1 -33 -2.5 -70t-3.5 -74.5t-7 -72.5q-4 -39 -13.5 -79t-32.5 -72q-24 -30 -59.5 -41t-95.5 -11z" />
    <glyph glyph-name="uni043C" unicode="&#x43c;" horiz-adv-x="719" 
d="M59 0v527h149l154 -240l151 240h147v-527h-122v372l-160 -256h-36l-162 257v-373h-121z" />
    <glyph glyph-name="uni043D" unicode="&#x43d;" horiz-adv-x="582" 
d="M59 0v527h122v-212h220v212h122v-527h-122v206h-220v-206h-122z" />
    <glyph glyph-name="uni043E" unicode="&#x43e;" horiz-adv-x="597" 
d="M300 -7q-81 0 -139.5 33t-90 94t-31.5 143q0 83 31.5 143.5t90 94.5t139.5 34q80 0 138 -34t89 -95.5t31 -144.5q0 -81 -30.5 -141.5t-88.5 -93.5t-139 -33zM299 104q50 0 80.5 22t44.5 58t14 78t-14 79t-44.5 59.5t-80.5 22.5t-81 -22.5t-45 -59.5t-14 -79q0 -43 14 -79
t45 -57.5t81 -21.5z" />
    <glyph glyph-name="uni043F" unicode="&#x43f;" horiz-adv-x="583" 
d="M59 0v527h465v-527h-122v419h-221v-419h-122z" />
    <glyph glyph-name="uni0440" unicode="&#x440;" horiz-adv-x="613" 
d="M59 -194v721h114l6 -72q31 42 76 61t95 19q76 0 127 -36t76 -97.5t25 -138.5t-25.5 -138t-78 -96.5t-134.5 -35.5q-38 0 -68 8.5t-52.5 23t-38.5 31.5v-250h-122zM323 103q51 0 80 22.5t42 59t13 77.5q0 43 -13.5 80t-43.5 60t-80 23q-46 0 -77.5 -22.5t-47.5 -59.5
t-16 -80q0 -44 15 -80.5t47 -58t81 -21.5z" />
    <glyph glyph-name="uni0441" unicode="&#x441;" horiz-adv-x="559" 
d="M291 -7q-82 0 -138 33.5t-85 94.5t-29 141t30 141.5t88 96.5t141 35q61 0 108.5 -21t77 -61.5t37.5 -100.5h-120q-12 38 -39.5 55.5t-66.5 17.5q-50 0 -79.5 -24.5t-42.5 -61.5t-13 -77q0 -42 14 -78.5t43.5 -58.5t76.5 -22q38 0 68.5 17t39.5 55h124
q-7 -61 -40.5 -101.5t-84.5 -60.5t-110 -20z" />
    <glyph glyph-name="uni0442" unicode="&#x442;" horiz-adv-x="489" 
d="M183 0v419h-174v108h471v-108h-175v-419h-122z" />
    <glyph glyph-name="uni0443" unicode="&#x443;" horiz-adv-x="563" 
d="M81 -236v122q45 0 72.5 9.5t46.5 30t35 53.5l-224 548h142l152 -409l120 409h134l-142 -441q-12 -37 -26.5 -77t-33 -78t-41.5 -70t-52 -53q-24 -17 -47.5 -26.5t-55 -13.5t-80.5 -4z" />
    <glyph glyph-name="uni045E" unicode="&#x45e;" horiz-adv-x="570" 
d="M85 -236v122h10q40 0 66 10t44 30.5t34 52.5l-227 548h142l155 -409l121 409h133l-142 -441q-11 -35 -25 -73.5t-31 -76.5t-39 -69.5t-49 -52.5q-36 -29 -75 -39.5t-89 -10.5h-28zM296 581q-85 0 -133.5 39t-49.5 118h103q2 -38 23.5 -53.5t57.5 -15.5t57.5 15.5
t22.5 53.5h103q0 -52 -23 -87t-63.5 -52.5t-97.5 -17.5z" />
    <glyph glyph-name="uni0444" unicode="&#x444;" horiz-adv-x="756" 
d="M317 -188v183q-62 2 -113.5 19t-89 50t-58.5 82t-21 116q0 91 35 150.5t98.5 90t148.5 31.5v162h122v-162q86 -1 149.5 -32t98 -91.5t34.5 -150.5q0 -89 -36.5 -146.5t-100 -86t-145.5 -33.5v-182h-122zM317 101v324q-80 0 -120 -43t-40 -118q0 -51 18 -87.5t53.5 -56
t88.5 -19.5zM439 101q53 0 88.5 19.5t53.5 56t18 87.5q0 75 -40.5 118t-119.5 43v-324z" />
    <glyph glyph-name="uni0445" unicode="&#x445;" horiz-adv-x="545" 
d="M8 0l186 269l-176 258h142l114 -177l111 177h139l-176 -261l189 -266h-143l-125 182l-125 -182h-136z" />
    <glyph glyph-name="uni0447" unicode="&#x447;" horiz-adv-x="541" 
d="M359 0v186q-38 -6 -65.5 -7.5t-50.5 -1.5q-75 0 -120.5 24t-66 72.5t-20.5 121.5v132h122v-126q0 -35 6.5 -60.5t28.5 -39.5t68 -14q22 0 48 2t50 6v232h122v-527h-122z" />
    <glyph glyph-name="uni0446" unicode="&#x446;" horiz-adv-x="602" 
d="M466 -153v153h-407v527h122v-419h215v419h122v-419h68v-261h-120z" />
    <glyph glyph-name="uni0448" unicode="&#x448;" horiz-adv-x="819" 
d="M59 0v527h122v-419h166v419h122v-419h168v419h122v-527h-700z" />
    <glyph glyph-name="uni0449" unicode="&#x449;" horiz-adv-x="842" 
d="M708 -153v153h-649v527h122v-419h166v419h122v-419h168v419h122v-419h69v-261h-120z" />
    <glyph glyph-name="uni044C" unicode="&#x44c;" horiz-adv-x="538" 
d="M59 0v527h123v-180h110q46 0 84.5 -8t66.5 -27t43 -51.5t15 -81.5q0 -47 -17 -81.5t-47 -56t-70 -31.5t-85 -10h-223zM182 106h63q27 0 51 2.5t43.5 9t30 21t10.5 37.5t-9 36.5t-23.5 20.5t-33 9t-37.5 2h-95v-138z" />
    <glyph glyph-name="uni044B" unicode="&#x44b;" horiz-adv-x="723" 
d="M59 0v527h123v-180h84q45 0 83.5 -8t66.5 -27t43.5 -51.5t15.5 -81.5t-17.5 -83t-47.5 -55.5t-69.5 -31t-83.5 -9.5h-198zM182 106h36q28 0 52.5 2t43 8.5t29.5 20.5t11 38q0 23 -9 36.5t-23.5 21t-32.5 9.5t-38 2h-69v-138zM542 0v527h122v-527h-122z" />
    <glyph glyph-name="uni044A" unicode="&#x44a;" horiz-adv-x="592" 
d="M124 0v419h-118v108h241v-180h103q47 0 85 -8t66 -26.5t43.5 -51t15.5 -81.5t-17 -83.5t-48 -56t-70.5 -31t-84.5 -9.5h-216zM247 106h55q29 0 53.5 2t43.5 9t29.5 22t10.5 40q0 21 -8.5 33.5t-22.5 19.5t-32.5 9.5t-38.5 2.5h-90v-138z" />
    <glyph glyph-name="uni0455" unicode="&#x455;" horiz-adv-x="511" 
d="M261 -7q-38 0 -75.5 8t-70.5 26.5t-55 50.5t-29 80h123q8 -22 25.5 -35.5t41 -20t46.5 -6.5q14 0 30.5 2t31 8t23.5 17.5t9 30.5q0 18 -10 28.5t-27 17t-41 10.5q-43 10 -92 20t-85 33q-15 9 -26 21t-18.5 26.5t-11 31.5t-3.5 37q0 42 17.5 72t47.5 48.5t68 27t77 8.5
q54 0 98 -17t73.5 -52t35.5 -89h-116q-5 25 -30.5 40t-64.5 15q-14 0 -29 -2.5t-28.5 -8t-22 -16.5t-8.5 -27q0 -15 7.5 -26t23 -18.5t36.5 -12.5q34 -7 71 -14t64 -14q32 -9 58 -25.5t40.5 -43t14.5 -67.5q0 -48 -19.5 -80t-51.5 -50t-71 -26t-77 -8z" />
    <glyph glyph-name="uni0454" unicode="&#x454;" horiz-adv-x="552" 
d="M284 -8q-83 0 -138.5 33t-83 93.5t-27.5 142.5q0 81 29 142.5t85.5 96t137.5 34.5q87 0 150 -43t81 -129h-121q-7 26 -25.5 40t-42 20.5t-47.5 6.5q-37 0 -65 -15.5t-43 -41.5t-18 -61h203v-100h-203q2 -36 19 -61.5t46.5 -39.5t65.5 -14q22 0 45 5.5t41.5 19.5t26.5 39
h121q-12 -56 -47 -93.5t-84 -56t-106 -18.5z" />
    <glyph glyph-name="uni044D" unicode="&#x44d;" horiz-adv-x="553" 
d="M270 -8q-55 0 -105.5 17.5t-85.5 55t-48 95.5h122q9 -23 27.5 -37.5t42.5 -20.5t49 -6q42 0 69 16t41 42.5t15 56.5h-202v100h202q-3 34 -18 60t-41.5 42t-65.5 16q-25 0 -49.5 -7t-42 -21.5t-24.5 -38.5h-122q13 58 48 96t85 57t107 19q83 0 136.5 -34t80.5 -95t27 -142
q0 -83 -27.5 -143.5t-82.5 -94t-138 -33.5z" />
    <glyph glyph-name="uni0456" unicode="&#x456;" horiz-adv-x="257" 
d="M68 0v527h121v-527h-121zM128 591q-31 0 -54 20t-23 55q0 24 11 41t29 26.5t38 9.5q31 0 54 -21t23 -56t-23 -55t-55 -20z" />
    <glyph glyph-name="uni0457" unicode="&#x457;" horiz-adv-x="240" 
d="M59 0v527h122v-527h-122zM30 595q-29 0 -49.5 18.5t-20.5 50.5t20.5 51t49.5 19t49.5 -18.5t20.5 -51.5q0 -32 -20.5 -50.5t-49.5 -18.5zM211 595q-29 0 -49.5 18.5t-20.5 50.5t21 51t49 19q29 0 49 -18.5t20 -51.5q0 -32 -20 -50.5t-49 -18.5z" />
    <glyph glyph-name="uni0458" unicode="&#x458;" horiz-adv-x="263" 
d="M-39 -196v108h38q32 0 48 11t21 30.5t5 43.5v530h122v-547q0 -60 -16.5 -99t-54 -58t-99.5 -19h-64zM135 591q-32 0 -54.5 20t-22.5 55q0 24 10.5 41t28.5 26.5t39 9.5q31 0 53.5 -21t22.5 -56q0 -36 -23 -55.5t-54 -19.5z" />
    <glyph glyph-name="yucy" unicode="&#x44e;" horiz-adv-x="807" 
d="M517 -7q-111 0 -174 59.5t-75 156.5h-87v-209h-122v527h122v-210h87q8 65 38.5 114t83.5 76.5t126 27.5q81 0 138 -34t87.5 -94.5t30.5 -143.5q0 -81 -29.5 -141.5t-86 -94.5t-139.5 -34zM515 103q50 0 79.5 22.5t43 59t13.5 79.5q0 42 -13.5 78.5t-43 59.5t-79.5 23
q-49 0 -79 -22.5t-43.5 -59t-13.5 -80.5q0 -42 13.5 -79t43.5 -59t79 -22z" />
    <glyph glyph-name="yacy" unicode="&#x44f;" horiz-adv-x="559" 
d="M26 0l141 201q-53 15 -85 54t-32 98q0 51 16 84.5t45 53t68 28t85 8.5h236v-527h-122v178h-92l-117 -178h-143zM307 280h71v142h-105q-23 0 -42 -3t-32 -11t-20 -21t-7 -35q0 -24 12 -38.5t32 -22t44 -9.5t47 -2z" />
    <glyph glyph-name="uni04C2" unicode="&#x4c2;" horiz-adv-x="799" 
d="M6 0l161 276l-150 251h129l124 -211h68v211h122v-211h70l122 211h130l-152 -251l163 -276h-138l-118 209h-77v-209h-122v209h-76l-119 -209h-137zM399 587q-55 0 -96 16t-63.5 49.5t-25.5 84.5h105q1 -21 11 -35.5t28.5 -21t41.5 -6.5t41 6.5t28 21t11 35.5h104
q-2 -51 -25 -84.5t-64 -49.5t-96 -16z" />
    <glyph glyph-name="zero" unicode="0" horiz-adv-x="662" 
d="M331 -8q-77 0 -131 27.5t-87 77.5t-48.5 115t-15.5 140q0 76 15.5 142t49 115.5t87.5 78t131 28.5q79 0 133.5 -30t87 -81t47 -116t14.5 -136q0 -70 -14.5 -135t-47.5 -116t-87.5 -80.5t-133.5 -29.5zM331 106q51 0 82.5 24t47.5 61.5t21.5 80.5t5.5 81t-5 80.5t-21 80.5
t-47 62t-83 24t-83.5 -24t-47.5 -61.5t-21.5 -80.5t-5.5 -81t5 -80.5t20.5 -80.5t47 -62t84.5 -24z" />
    <glyph glyph-name="one" unicode="1" horiz-adv-x="381" 
d="M157 0v535h-140v91q41 2 73 9t57.5 24t45.5 48h89v-707h-125z" />
    <glyph glyph-name="two" unicode="2" horiz-adv-x="562" 
d="M24 0v103l197 166q24 20 53 44t55.5 52.5t44.5 59.5t18 65q0 51 -30.5 80t-86.5 29q-49 0 -80 -21t-39 -57h-123q7 67 43.5 109.5t90.5 64t113 21.5q67 0 120 -24.5t84.5 -72t31.5 -115.5q0 -61 -23.5 -110t-63 -89.5t-86.5 -79.5l-135 -111h310v-114h-494z" />
    <glyph glyph-name="three" unicode="3" horiz-adv-x="608" 
d="M298 -8q-47 0 -93 11t-84 34.5t-63.5 61.5t-32.5 92h124q9 -31 32.5 -49t54.5 -26.5t63 -8.5q23 0 46 4t43 15t32 31t12 52q0 29 -10.5 48t-29 29.5t-42 15t-49.5 4.5h-78v107h51q29 0 53 6t42 17.5t27.5 29.5t9.5 43q0 36 -15.5 56t-41.5 28.5t-57 8.5q-28 0 -54 -8.5
t-45 -25.5t-24 -43h-122q6 50 29 86t57.5 59.5t77.5 34.5t89 11q45 0 86.5 -10t73.5 -32.5t51 -58.5t19 -88q0 -33 -11 -62t-31.5 -51t-49.5 -36q40 -11 67 -35.5t40.5 -58.5t13.5 -75q0 -64 -23.5 -106.5t-62 -66.5t-84.5 -34t-91 -10z" />
    <glyph glyph-name="four" unicode="4" horiz-adv-x="635" 
d="M402 0v134h-368v94l334 479h157v-460h81v-113h-81v-134h-123zM178 247h224v329z" />
    <glyph glyph-name="five" unicode="5" horiz-adv-x="615" 
d="M306 -8q-47 0 -89 11.5t-76 35.5t-56.5 61.5t-30.5 88.5h123q8 -22 26.5 -41t45 -30t57.5 -11q42 0 72 14.5t47 42t17 66.5q0 58 -35.5 91t-96.5 33q-36 0 -67 -12.5t-58 -34.5h-111l19 400h451v-114h-336l-12 -169q30 21 69 31.5t85 9.5q68 -1 117.5 -29.5t75.5 -78.5
t26 -118q0 -79 -34.5 -134t-94 -84t-134.5 -29z" />
    <glyph glyph-name="six" unicode="6" horiz-adv-x="623" 
d="M327 -8q-74 0 -127 28t-86 76t-48.5 110t-15.5 130q0 77 16.5 145.5t51.5 121t90.5 83t131.5 30.5q57 0 105.5 -20t81.5 -60t45 -100h-120q-14 32 -45.5 49.5t-69.5 17.5q-39 0 -67.5 -14.5t-48.5 -38t-32 -54.5t-18 -64t-6 -65q24 35 55 54.5t65 28t64 8.5
q71 0 121.5 -28t78.5 -78.5t28 -118.5q0 -73 -32 -127t-88.5 -84t-129.5 -30zM326 105q39 1 67 17t43.5 43.5t15.5 60.5q0 35 -15 62.5t-42.5 44t-65.5 16.5q-36 0 -66 -15.5t-48 -43t-18 -63.5q0 -33 16.5 -60.5t45.5 -44.5t67 -17z" />
    <glyph glyph-name="seven" unicode="7" horiz-adv-x="509" 
d="M78 0l276 592h-350v115h490v-94l-277 -613h-139z" />
    <glyph glyph-name="eight" unicode="8" horiz-adv-x="624" 
d="M311 -8q-49 0 -96 11t-84 36.5t-59.5 66t-22.5 99.5q0 39 12.5 71.5t36.5 56.5t56 39q-31 18 -49.5 43t-25.5 54t-7 57q0 51 20 87t55 59t77.5 33.5t87.5 10.5t88 -10.5t77.5 -34t54.5 -60t20 -89.5q0 -26 -8 -54t-26.5 -52.5t-49.5 -41.5q34 -15 58 -39.5t36.5 -57
t12.5 -73.5q0 -58 -22.5 -99t-60.5 -65.5t-85 -36t-96 -11.5zM311 104q24 0 47.5 5t44 17t33.5 32.5t13 50.5q0 36 -19 59t-50 34t-68 11t-68.5 -11t-50.5 -34t-19 -59q0 -30 12.5 -50.5t33.5 -32.5t44.5 -17t46.5 -5zM312 411q34 0 59.5 11.5t41 32.5t15.5 51
q1 34 -15 56.5t-42.5 33t-59.5 10.5q-34 0 -60.5 -10.5t-40.5 -32t-14 -53.5t15.5 -54.5t42 -33.5t58.5 -11z" />
    <glyph glyph-name="nine" unicode="9" horiz-adv-x="621" 
d="M290 -8q-57 0 -107.5 19.5t-85.5 59.5t-46 100h125q14 -32 48.5 -48.5t72.5 -16.5q46 0 76.5 18.5t49 50t26.5 70t8 78.5v10v9q-21 -35 -52 -54.5t-66 -28t-68 -8.5q-63 0 -114 26t-81 76.5t-30 121.5q0 76 34 130t92.5 82.5t130.5 28.5q78 0 130 -32t83 -85.5t44 -118.5
t13 -132q0 -74 -15.5 -138.5t-49 -113.5t-87.5 -76.5t-131 -27.5zM297 358q39 0 68.5 16.5t45.5 44t15 59.5q0 38 -16.5 65.5t-45.5 43.5t-65 16q-39 0 -67.5 -17t-44.5 -45t-16 -60q0 -55 33 -89t93 -34z" />
    <glyph glyph-name="zero.tf" horiz-adv-x="673" 
d="M336 -8q-77 0 -131 27.5t-87 77.5t-48.5 115t-15.5 140q0 76 15.5 142t49 115.5t87.5 78t131 28.5q79 0 133.5 -30t87 -81t47 -116t14.5 -136q0 -70 -14.5 -135t-47.5 -116t-87.5 -80.5t-133.5 -29.5zM336 106q51 0 82.5 24t47.5 61.5t21.5 80.5t5.5 81t-5 80.5t-21 80.5
t-47 62t-83 24t-83.5 -24t-47.5 -61.5t-21.5 -80.5t-5.5 -81t5 -80.5t20.5 -80.5t47 -62t84.5 -24z" />
    <glyph glyph-name="one.tf" horiz-adv-x="673" 
d="M291 0v535h-141v91q41 2 73.5 9t58 24t44.5 48h89v-707h-124z" />
    <glyph glyph-name="two.tf" horiz-adv-x="673" 
d="M87 0v102l197 168q23 20 52.5 44t56 52t44 59t17.5 65q0 51 -30 80t-86 29q-49 0 -80 -21t-39 -57h-123q7 67 43 109.5t90 64t113 21.5q67 0 120.5 -24.5t84.5 -72t31 -115.5q0 -63 -24 -112t-63 -89t-84 -77l-136 -112h309v-114h-493z" />
    <glyph glyph-name="three.tf" horiz-adv-x="673" 
d="M337 -8q-48 0 -93.5 11t-83 34.5t-63 61.5t-31.5 92h124q9 -31 32 -49t54.5 -26.5t63.5 -8.5q23 0 46 4t43 15t32 31t12 52q0 29 -10.5 48t-29 29.5t-42.5 15t-49 4.5h-78v107h51q29 0 53 6t42 17.5t27.5 29.5t9.5 43q0 36 -15.5 56t-41.5 28.5t-57 8.5q-28 0 -54.5 -8.5
t-45 -25.5t-23.5 -43h-122q6 50 28.5 86t57.5 59.5t78 34.5t88 11q46 0 87 -10t73.5 -32.5t51.5 -58.5t19 -88q0 -33 -11 -62t-31.5 -51t-49.5 -36q40 -10 67 -35.5t40.5 -59.5t13.5 -74q0 -59 -21 -100.5t-57.5 -67t-84 -37.5t-100.5 -12z" />
    <glyph glyph-name="four.tf" horiz-adv-x="673" 
d="M415 0v134h-367v94l334 479h157v-460h81v-113h-81v-134h-124zM192 247h223v329z" />
    <glyph glyph-name="five.tf" horiz-adv-x="673" 
d="M332 -8q-47 0 -89.5 11.5t-76 35.5t-56 61.5t-30.5 88.5h123q8 -22 26.5 -41t45 -30t57.5 -11q42 0 72 14.5t47 42t17 67.5q0 57 -35.5 90t-97.5 33q-36 0 -66.5 -12.5t-57.5 -34.5h-112l20 400h451v-114h-336l-12 -169q30 21 68.5 31.5t84.5 9.5q69 -1 118 -29.5
t75.5 -78.5t26.5 -118q0 -79 -34.5 -134t-94 -84t-134.5 -29z" />
    <glyph glyph-name="six.tf" horiz-adv-x="673" 
d="M342 -8q-75 0 -127.5 27t-85.5 74.5t-48.5 108t-15.5 127.5q0 78 16 147.5t50.5 123t90 85t134.5 31.5q57 0 105 -20t81.5 -60t45.5 -100h-121q-14 32 -45.5 49.5t-69.5 17.5q-39 0 -67.5 -14.5t-48.5 -38.5t-32.5 -54.5t-18 -63.5t-5.5 -65q24 35 55.5 54.5t65 28
t63.5 8.5q71 0 122 -28t79 -78.5t28 -118.5q0 -73 -32 -127t-89 -84t-130 -30zM342 105q39 0 67 16.5t43 44t15 60.5q0 35 -15 62.5t-42 44t-65 16.5q-36 0 -66.5 -15.5t-48 -43t-17.5 -63.5q0 -33 16 -60.5t45 -44.5t68 -17z" />
    <glyph glyph-name="seven.tf" horiz-adv-x="673" 
d="M172 0l276 592h-350v115h490v-94l-277 -613h-139z" />
    <glyph glyph-name="eight.tf" horiz-adv-x="673" 
d="M335 -8q-49 0 -95.5 11t-84 36.5t-60 66t-22.5 99.5q0 39 12.5 71.5t36.5 56.5t57 39q-32 18 -50 43t-25.5 54t-7.5 57q0 51 20 87t55 59t78 33.5t87 10.5q46 0 88.5 -10.5t77 -34t55 -60t20.5 -89.5q0 -26 -8.5 -54t-27 -52.5t-49.5 -41.5q34 -15 58 -39.5t36.5 -57
t12.5 -73.5q0 -58 -22.5 -99t-60.5 -65.5t-85 -36t-96 -11.5zM336 104q23 0 46.5 5t44 17t33.5 32.5t13 50.5q0 36 -19 59t-49.5 34t-68.5 11q-37 0 -68.5 -11t-50.5 -34t-19 -59q0 -30 13 -50.5t33.5 -32.5t44 -17t47.5 -5zM336 411q34 0 60 11.5t41 32.5t15 51
q0 34 -15 56.5t-41.5 33t-60.5 10.5t-60 -10.5t-40.5 -32t-14.5 -53.5t15.5 -54.5t42 -33.5t58.5 -11z" />
    <glyph glyph-name="nine.tf" horiz-adv-x="673" 
d="M331 -8q-58 0 -108 19.5t-85 59.5t-46 100h125q13 -32 47 -48.5t72 -16.5q45 0 76.5 18t50 49t26.5 69.5t9 80.5v9v10q-21 -35 -52.5 -54.5t-66.5 -28t-68 -8.5q-63 0 -114 26t-81 76.5t-30 121.5q0 76 34.5 130t92.5 82.5t130 28.5q78 0 130.5 -32.5t83 -86.5
t43.5 -119.5t13 -132.5q0 -72 -15.5 -136t-48.5 -112.5t-87 -76.5t-131 -28zM337 358q40 0 69 16.5t45 44t16 60.5q0 39 -18 66.5t-47.5 42.5t-63.5 15q-38 0 -66.5 -17t-44.5 -45t-16 -60q0 -55 33 -89t93 -34z" />
    <glyph glyph-name="uni00B2" unicode="&#xb2;" horiz-adv-x="379" 
d="M58 368v71l106 89q13 11 29 25t28.5 31t12.5 34q0 22 -12.5 33.5t-34.5 11.5q-20 0 -32.5 -10t-13.5 -30h-85q1 61 40 92t97 31q56 0 93 -30t37 -86q0 -41 -19 -70.5t-46 -54.5q-16 -15 -32.5 -28t-33.5 -27h127v-82h-261z" />
    <glyph glyph-name="uni00B3" unicode="&#xb3;" horiz-adv-x="407" 
d="M206 364q-40 0 -72.5 13t-53 40.5t-24.5 68.5h90q4 -22 20.5 -30.5t38.5 -8.5q20 0 37.5 8.5t17.5 31.5q0 20 -14.5 27.5t-30.5 7.5h-47v72h33q11 0 21.5 4t17.5 12t7 19q0 20 -14 27.5t-31 7.5q-19 0 -31.5 -9t-15.5 -27h-89q5 61 43 89.5t96 28.5q34 0 64 -9.5
t48.5 -31.5t18.5 -59q0 -23 -10 -43.5t-30 -32.5q30 -11 42 -35.5t12 -55.5q0 -39 -21 -65t-53.5 -38t-69.5 -12z" />
    <glyph glyph-name="space" unicode=" " horiz-adv-x="278" 
 />
    <glyph glyph-name="uni00A0" unicode="&#xa0;" horiz-adv-x="278" 
 />
    <glyph glyph-name="uni2009" unicode="&#x2009;" horiz-adv-x="122" 
 />
    <glyph glyph-name="uni202F" unicode="&#x202f;" horiz-adv-x="122" 
 />
    <glyph glyph-name="CR" unicode="&#xd;" horiz-adv-x="353" 
 />
    <glyph glyph-name="period" unicode="." horiz-adv-x="272" 
d="M136 -12q-32 0 -54.5 21t-22.5 57t23 57.5t55 21.5t54 -21.5t22 -57.5t-22 -57t-55 -21z" />
    <glyph glyph-name="comma" unicode="," horiz-adv-x="288" 
d="M94 -143l-35 53q15 8 31 22.5t29.5 32t18.5 31.5q-29 3 -49.5 21.5t-20.5 52.5q0 35 24 55t54 20q38 0 60 -28.5t22 -74.5q0 -41 -19.5 -79t-50 -66t-64.5 -40z" />
    <glyph glyph-name="colon" unicode=":" horiz-adv-x="274" 
d="M137 336q-33 0 -55.5 21t-22.5 57q0 24 11 42t29 27.5t39 9.5q32 0 54.5 -21.5t22.5 -57.5q0 -37 -23 -57.5t-55 -20.5zM137 -8q-33 0 -55.5 20.5t-22.5 56.5q0 25 11 42.5t29 27t39 9.5q32 0 54.5 -21t22.5 -58q0 -36 -23 -56.5t-55 -20.5z" />
    <glyph glyph-name="semicolon" unicode=";" horiz-adv-x="287" 
d="M94 -143l-35 52q15 8 31 23t29.5 32t18.5 32q-29 2 -49.5 21t-20.5 52q0 37 24 57t56 19q40 -1 60 -31.5t20 -73.5q-1 -41 -20 -78.5t-49.5 -65t-64.5 -39.5zM148 336q-32 0 -55 21t-23 57q0 24 11 42t29 27.5t39 9.5q32 0 54.5 -21.5t22.5 -57.5q0 -37 -22.5 -57.5
t-55.5 -20.5z" />
    <glyph glyph-name="ellipsis" unicode="&#x2026;" horiz-adv-x="740" 
d="M613 -8q-33 0 -55.5 20.5t-22.5 56.5q0 25 11 42.5t29 27t39 9.5q31 0 54 -21t23 -58q0 -36 -23 -56.5t-55 -20.5zM127 -8q-33 0 -55.5 20.5t-22.5 56.5q0 25 11 42.5t29 27t39 9.5q31 0 54 -21t23 -58q0 -36 -23 -56.5t-55 -20.5zM372 -8q-33 0 -55.5 20.5t-22.5 56.5
q0 25 11 42.5t28.5 27t38.5 9.5q32 0 55 -21t23 -58q0 -36 -23.5 -56.5t-54.5 -20.5z" />
    <glyph glyph-name="exclam" unicode="!" horiz-adv-x="294" 
d="M91 234l-12 473h135l-12 -473h-111zM147 -8q-20 0 -38 8.5t-29 26t-11 42.5t11 42t29 26t38 9q31 0 54.5 -20t23.5 -57q0 -25 -11.5 -42.5t-29 -26t-37.5 -8.5z" />
    <glyph glyph-name="exclamdown" unicode="&#xa1;" horiz-adv-x="294" 
d="M79 -181l12 474h112l11 -474h-135zM147 381q-34 0 -56 21t-22 55t22.5 56t55.5 22q34 0 56 -21t22 -56t-22 -56t-56 -21z" />
    <glyph glyph-name="question" unicode="?" horiz-adv-x="524" 
d="M185 225q-1 7 -1.5 13.5t-0.5 12.5q0 33 11 58t29 45.5t38.5 38.5t39.5 37q15 14 27 29t18.5 31.5t6.5 31.5q0 26 -11.5 43.5t-33 27t-50.5 9.5q-28 0 -51 -8t-38 -24.5t-19 -41.5h-121q3 51 23 87t52 58t71.5 32.5t82.5 10.5q56 0 106 -19t81.5 -60t31.5 -107
q0 -34 -10.5 -61.5t-29.5 -52t-45 -49.5q-19 -20 -39 -38t-34 -39t-15 -51q-1 -3 -1 -6.5v-7.5h-118zM244 -8q-32 0 -55 20.5t-23 57.5q0 38 23 58t55 20t55 -20t23 -58q0 -37 -23 -57.5t-55 -20.5z" />
    <glyph glyph-name="questiondown" unicode="&#xbf;" horiz-adv-x="524" 
d="M339 302q1 -6 1.5 -12.5t0.5 -13.5q0 -33 -11 -58t-29 -45.5t-38.5 -38.5t-39.5 -36q-15 -14 -27 -29.5t-18.5 -31t-6.5 -32.5q0 -26 11.5 -43.5t33 -27t50.5 -9.5q28 0 51 8t38 25t19 42h121q-3 -52 -23 -88t-52 -58t-71.5 -32.5t-82.5 -10.5q-56 0 -106 19.5
t-81.5 60.5t-31.5 106q0 34 11 61.5t30 52.5t44 49q20 21 39.5 39t33.5 39t15 51q1 3 1 6v7h118zM280 536q32 0 55 -20.5t23 -58.5q0 -37 -23 -57t-55 -20q-31 0 -54.5 20t-23.5 57q0 38 23.5 58.5t54.5 20.5z" />
    <glyph glyph-name="periodcentered" unicode="&#xb7;" horiz-adv-x="273" 
d="M136 284q-34 0 -55.5 21t-21.5 54q0 34 22 55.5t55 21.5q32 0 55 -21t23 -55t-22 -55t-56 -21z" />
    <glyph glyph-name="bullet" unicode="&#x2022;" horiz-adv-x="355" 
d="M178 240q-33 0 -62 14.5t-47 42t-18 67.5q0 58 36.5 92t90.5 34q36 0 64.5 -16t45 -44t16.5 -66q0 -57 -36.5 -90.5t-89.5 -33.5z" />
    <glyph glyph-name="asterisk" unicode="*" horiz-adv-x="446" 
d="M172 420l-79 58l64 74l-96 23l30 93l91 -38l-8 99h98l-8 -99l91 38l30 -93l-96 -23l65 -74l-79 -58l-52 84z" />
    <glyph glyph-name="numbersign" unicode="#" horiz-adv-x="672" 
d="M124 0l21 171h-94v110h106l16 145h-93v110h106l19 171h108l-19 -171h125l21 171h107l-19 -171h93v-110h-106l-16 -145h93v-110h-106l-20 -171h-107l19 171h-125l-20 -171h-109zM264 281h126l17 145h-126z" />
    <glyph glyph-name="slash" unicode="/" horiz-adv-x="501" 
d="M31 -165l315 957h124l-316 -957h-123z" />
    <glyph glyph-name="backslash" unicode="\" horiz-adv-x="501" 
d="M346 -165l-315 957h123l316 -957h-124z" />
    <glyph glyph-name="colon.case" horiz-adv-x="274" 
d="M137 435q-33 0 -55.5 20.5t-22.5 56.5q0 25 11 42.5t29 27t39 9.5q31 0 54 -21t23 -58q0 -36 -23 -56.5t-55 -20.5zM137 90q-33 0 -55.5 20.5t-22.5 56.5q0 25 11 42.5t29 27.5t39 10q31 0 54 -21.5t23 -58.5q0 -36 -23 -56.5t-55 -20.5z" />
    <glyph glyph-name="periodcentered.loclCAT" horiz-adv-x="272" 
d="M136 282q-32 0 -54.5 21t-22.5 57t23 57.5t55 21.5t54 -21.5t22 -57.5t-22 -57t-55 -21z" />
    <glyph glyph-name="period.tf" horiz-adv-x="304" 
d="M152 -12q-32 0 -54.5 21t-22.5 57t23 57.5t55 21.5t54 -21.5t22 -57.5t-22 -57t-55 -21z" />
    <glyph glyph-name="comma.tf" horiz-adv-x="313" 
d="M103 -143l-35 52q15 8 31 23t29.5 32t18.5 32q-29 2 -49.5 21t-20.5 52q0 36 24 55.5t54 19.5q38 0 60 -28t22 -73q0 -42 -19.5 -80.5t-50 -66t-64.5 -39.5z" />
    <glyph glyph-name="colon.tf" horiz-adv-x="306" 
d="M153 336q-32 0 -55 21t-23 57q0 24 11 42t29 27.5t39 9.5q32 0 54.5 -21.5t22.5 -57.5t-22.5 -57t-55.5 -21zM153 -8q-32 0 -55 20.5t-23 56.5q0 25 11 42.5t29 27t39 9.5q32 0 54.5 -21t22.5 -58q0 -36 -22.5 -56.5t-55.5 -20.5z" />
    <glyph glyph-name="semicolon.tf" horiz-adv-x="313" 
d="M104 -143l-35 53q15 8 31 22.5t29.5 32t18.5 31.5q-29 3 -49.5 21.5t-20.5 52.5q0 37 24 56t54 19q38 0 60 -28.5t22 -73.5q0 -42 -19.5 -80t-50 -66t-64.5 -40zM158 336q-32 0 -55 21t-23 57q0 24 11 42t29 27.5t39 9.5q32 0 54.5 -21.5t22.5 -57.5t-22.5 -57t-55.5 -21
z" />
    <glyph glyph-name="periodcentered.loclCAT.case" horiz-adv-x="272" 
d="M136 308q-32 0 -54.5 21t-22.5 57t23 57.5t55 21.5t54 -21.5t22 -57.5t-22 -57t-55 -21z" />
    <glyph glyph-name="colon.case.tf" horiz-adv-x="306" 
d="M153 435q-32 0 -55 20.5t-23 56.5q0 25 11 42.5t29 27t39 9.5q32 0 54.5 -21t22.5 -58q0 -36 -22.5 -56.5t-55.5 -20.5zM153 90q-32 0 -55 20.5t-23 56.5q0 25 11 42.5t29 27.5t39 10q32 0 54.5 -21.5t22.5 -58.5q0 -36 -22.5 -56.5t-55.5 -20.5z" />
    <glyph glyph-name="hyphen" unicode="-" horiz-adv-x="462" 
d="M66 232v110h330v-110h-330z" />
    <glyph glyph-name="endash" unicode="&#x2013;" horiz-adv-x="601" 
d="M66 232v110h469v-110h-469z" />
    <glyph glyph-name="emdash" unicode="&#x2014;" horiz-adv-x="797" 
d="M66 232v110h665v-110h-665z" />
    <glyph glyph-name="underscore" unicode="_" horiz-adv-x="451" 
d="M-11 -169v108h473v-108h-473z" />
    <glyph glyph-name="hyphen.case" horiz-adv-x="461" 
d="M66 291v110h329v-110h-329z" />
    <glyph glyph-name="endash.case" horiz-adv-x="599" 
d="M66 292v109h467v-109h-467z" />
    <glyph glyph-name="emdash.case" horiz-adv-x="794" 
d="M66 292v109h662v-109h-662z" />
    <glyph glyph-name="parenleft" unicode="(" horiz-adv-x="338" 
d="M232 -200q-59 72 -97.5 156.5t-58 174.5t-19.5 174q0 86 19.5 175.5t58.5 174.5t98 157h143q-69 -83 -112.5 -167t-63.5 -169t-20 -171t20.5 -170.5t63.5 -168t111 -166.5h-143z" />
    <glyph glyph-name="parenright" unicode=")" horiz-adv-x="338" 
d="M107 -200h-143q67 83 110.5 166.5t64 168t20.5 170.5t-20 171t-63 169t-114 167h144q59 -72 98 -157t58.5 -174.5t19.5 -175.5q0 -84 -19 -174t-58 -174.5t-98 -156.5z" />
    <glyph glyph-name="braceleft" unicode="{" horiz-adv-x="399" 
d="M253 -175q-58 0 -95 26t-37 94v208q0 33 -7 55.5t-27 34.5t-58 12v101q38 0 58 12t27 35t7 55v208q0 68 37 94t95 26h95v-105h-69q-21 0 -29.5 -9t-9.5 -23t-1 -32v-185q0 -44 -12.5 -75.5t-44.5 -51.5q22 -12 34 -31t17.5 -42.5t5.5 -52.5v-186q0 -16 1 -30.5t9.5 -23.5
t29.5 -9h69v-105h-95z" />
    <glyph glyph-name="braceright" unicode="}" horiz-adv-x="399" 
d="M146 -175h-95v105h69q21 0 29.5 9t9.5 23.5t1 30.5v186q0 29 5.5 52.5t18 42.5t33.5 31q-32 20 -44.5 51.5t-12.5 75.5v185q0 18 -1 32t-9.5 23t-29.5 9h-69v105h95q58 0 95 -26t37 -94v-208q0 -32 7 -55t27 -35t58 -12v-101q-38 0 -58 -12t-27 -34.5t-7 -55.5v-208
q0 -68 -37 -94t-95 -26z" />
    <glyph glyph-name="bracketleft" unicode="[" horiz-adv-x="342" 
d="M79 -176v962h236v-105h-118v-751h118v-106h-236z" />
    <glyph glyph-name="bracketright" unicode="]" horiz-adv-x="343" 
d="M27 -176v106h118v751h-118v105h237v-962h-237z" />
    <glyph glyph-name="quotesinglbase" unicode="&#x201a;" horiz-adv-x="283" 
d="M93 -143l-34 50q14 9 30 23.5t29 31t18 31.5q-29 2 -48.5 20.5t-19.5 50.5q0 37 22.5 55.5t54.5 18.5q40 0 59 -29.5t19 -67.5q0 -41 -18 -79t-47.5 -66t-64.5 -39z" />
    <glyph glyph-name="quotedblbase" unicode="&#x201e;" horiz-adv-x="500" 
d="M309 -143l-34 50q15 9 30.5 23.5t28.5 31t18 31.5q-29 2 -48.5 20.5t-19.5 50.5q0 37 23 55.5t54 18.5q40 -1 59.5 -30.5t19.5 -68.5q0 -42 -19 -79.5t-48.5 -64.5t-63.5 -38zM93 -143l-34 50q14 9 30 23.5t29 31t18 31.5q-29 2 -48.5 20.5t-19.5 50.5q0 37 22.5 55.5
t54.5 18.5q40 -1 59 -30.5t19 -68.5q0 -42 -18.5 -79.5t-48.5 -64.5t-63 -38z" />
    <glyph glyph-name="quotedblleft" unicode="&#x201c;" horiz-adv-x="500" 
d="M356 477q-41 1 -60.5 29.5t-19.5 67.5q0 44 19 81.5t48.5 64t63.5 38.5l34 -51q-14 -8 -30 -22.5t-29 -31t-18 -31.5q20 -1 35 -10t24 -24.5t9 -37.5q0 -36 -22.5 -55t-53.5 -18zM141 477q-42 0 -61.5 29t-19.5 68q0 44 19 81.5t48.5 64t62.5 38.5l34 -51
q-13 -8 -29 -22.5t-29 -31t-18 -31.5q19 -1 34.5 -10t24.5 -24.5t9 -37.5q0 -36 -23 -54.5t-52 -18.5z" />
    <glyph glyph-name="quotedblright" unicode="&#x201d;" horiz-adv-x="500" 
d="M309 457l-34 51q15 8 30.5 22.5t28.5 31.5t18 31q-29 2 -48.5 21t-19.5 51q0 36 23 55t55 18q41 0 59.5 -30t18.5 -68q0 -42 -19 -79.5t-48.5 -64.5t-63.5 -39zM93 457l-34 51q14 8 30 22.5t29 31.5t18 31q-29 2 -48.5 21t-19.5 51q0 36 23 55t55 18q40 0 58.5 -30
t18.5 -68q0 -42 -18.5 -79.5t-48.5 -64.5t-63 -39z" />
    <glyph glyph-name="quoteleft" unicode="&#x2018;" horiz-adv-x="283" 
d="M141 477q-42 0 -61.5 29.5t-19.5 68.5q0 43 19 80t48.5 64t62.5 39l34 -51q-13 -8 -29 -22.5t-29 -31t-18 -31.5q19 -1 34.5 -10t24.5 -24.5t9 -37.5q0 -36 -23.5 -55t-51.5 -18z" />
    <glyph glyph-name="quoteright" unicode="&#x2019;" horiz-adv-x="283" 
d="M93 457l-34 51q14 8 30 22.5t29 31.5t18 31q-29 2 -48.5 21t-19.5 51q0 36 22.5 54.5t54.5 18.5q41 0 59.5 -30t18.5 -68q0 -42 -18.5 -79.5t-48.5 -64.5t-63 -39z" />
    <glyph glyph-name="guillemotleft" unicode="&#xab;" horiz-adv-x="534" 
d="M156 84l-125 185l125 185h119l-129 -185l129 -185h-119zM365 84l-124 185l124 185h118l-126 -185l126 -185h-118z" />
    <glyph glyph-name="guillemotright" unicode="&#xbb;" horiz-adv-x="534" 
d="M260 84l129 185l-129 185h118l125 -185l-125 -185h-118zM51 84l127 185l-127 185h117l125 -185l-125 -185h-117z" />
    <glyph glyph-name="guilsinglleft" unicode="&#x2039;" horiz-adv-x="334" 
d="M156 84l-125 185l125 185h127l-127 -185l127 -185h-127z" />
    <glyph glyph-name="guilsinglright" unicode="&#x203a;" horiz-adv-x="335" 
d="M51 84l128 185l-128 185h128l125 -185l-125 -185h-128z" />
    <glyph glyph-name="quotedbl" unicode="&#x22;" horiz-adv-x="394" 
d="M243 447l-18 260h118l-21 -260h-79zM69 447l-18 260h118l-21 -260h-79z" />
    <glyph glyph-name="quotesingle" unicode="'" horiz-adv-x="238" 
d="M80 447l-21 260h120l-21 -260h-78z" />
    <glyph glyph-name="quotesinglbase.tf" horiz-adv-x="308" 
d="M102 -143l-34 50q14 9 30 23.5t29 31t18 31.5q-29 2 -48.5 20.5t-19.5 50.5q0 37 23 55t52 18q39 0 59.5 -27.5t20.5 -71.5q0 -40 -18.5 -77.5t-48.5 -65t-63 -38.5z" />
    <glyph glyph-name="quotedblbase.tf" horiz-adv-x="411" 
d="M258 -143l-34 51q14 8 30 22.5t29 31.5t17 31q-28 3 -48 21.5t-20 50.5q0 36 23.5 54.5t52.5 18.5q38 0 59 -27.5t21 -71.5q0 -41 -19 -78t-48.5 -64.5t-62.5 -39.5zM56 -143l-34 51q14 8 30 22.5t29 31.5t18 31q-29 3 -48.5 21.5t-19.5 50.5q0 36 23 54.5t52 18.5
q39 0 59.5 -27.5t20.5 -71.5q0 -41 -18.5 -78t-48.5 -64.5t-63 -39.5z" />
    <glyph glyph-name="quotedblleft.tf" horiz-adv-x="411" 
d="M304 478q-38 0 -59 27.5t-21 71.5q0 41 19 78t48.5 64.5t62.5 38.5l34 -50q-13 -8 -29 -22.5t-29.5 -31t-17.5 -31.5q19 -2 34.5 -11t24.5 -24t9 -37q0 -37 -23.5 -55t-52.5 -18zM102 478q-38 0 -59 27.5t-21 71.5q0 41 19 78t49 64.5t62 38.5l34 -50q-13 -8 -29 -22.5
t-29 -31t-18 -31.5q19 -2 34.5 -11t24.5 -24t9 -37q0 -37 -23.5 -55t-52.5 -18z" />
    <glyph glyph-name="quotedblright.tf" horiz-adv-x="411" 
d="M258 458l-34 50q14 9 30 23.5t29 31t17 31.5q-28 2 -48 20.5t-20 50.5q0 37 23.5 55t52.5 18q38 0 59 -27.5t21 -71.5q0 -40 -19 -77.5t-48.5 -65t-62.5 -38.5zM56 458l-34 50q14 9 30 23.5t29 31t18 31.5q-29 2 -48.5 20.5t-19.5 50.5q0 37 23 55t52 18q39 0 59.5 -27.5
t20.5 -71.5q0 -40 -18.5 -77.5t-48.5 -65t-63 -38.5z" />
    <glyph glyph-name="quoteleft.tf" horiz-adv-x="308" 
d="M149 477q-38 0 -59.5 27.5t-20.5 70.5q0 40 18.5 77.5t48 65.5t63.5 39l34 -50q-13 -8 -29 -23t-29 -31t-18 -32q19 -1 34.5 -10t24.5 -24.5t9 -36.5q0 -37 -23.5 -55t-52.5 -18z" />
    <glyph glyph-name="quoteright.tf" horiz-adv-x="308" 
d="M102 458l-34 50q14 9 30 23.5t29 31t18 31.5q-29 2 -48.5 20.5t-19.5 50.5q0 37 23 55t52 18q39 0 59.5 -27.5t20.5 -71.5q0 -40 -19 -77.5t-48.5 -65t-62.5 -38.5z" />
    <glyph glyph-name="quotedbl.tf" horiz-adv-x="389" 
d="M239 447l-18 260h118l-21 -260h-79zM68 447l-18 260h118l-21 -260h-79z" />
    <glyph glyph-name="quotesingle.tf" horiz-adv-x="302" 
d="M112 447l-21 260h120l-21 -260h-78z" />
    <glyph glyph-name="uni2713" unicode="&#x2713;" horiz-adv-x="1063" 
d="M387 -8l-336 380l86 83l249 -278l537 650l89 -81z" />
    <glyph glyph-name="at" unicode="@" horiz-adv-x="990" 
d="M475 -174q-93 0 -169.5 30t-131 85t-83.5 132t-29 171q0 107 32 194.5t92 150t146 96.5t196 34q93 0 167.5 -29.5t126.5 -84t80 -130.5t27 -169q0 -44 -9 -91.5t-30 -88t-57.5 -65t-90.5 -24.5q-49 0 -83 24t-44 66q-18 -31 -42.5 -49.5t-53 -27t-60.5 -8.5
q-61 1 -100.5 31t-58 78.5t-18.5 102.5q1 48 14.5 92t41 79t67 55.5t91.5 20.5q27 0 52 -7t44.5 -23.5t30.5 -44.5l23 52l73 -8q-12 -64 -20.5 -122t-11.5 -106q-1 -25 1 -49t13.5 -40t38.5 -16q29 0 46 19t25 47t10.5 55t2.5 43q0 67 -18 123.5t-55.5 98.5t-94 65.5
t-134.5 23.5q-85 0 -149.5 -27.5t-108.5 -77.5t-66 -115.5t-22 -139.5q0 -90 36 -161.5t105 -112.5t167 -41q26 0 44 1t35 4t37 7l13 -107q-37 -8 -68 -12t-70 -4zM481 141q38 0 61.5 19.5t35.5 49.5t15 63q3 30 -6.5 59t-31 48.5t-58.5 19.5q-39 0 -63.5 -22t-36 -55
t-11.5 -67q0 -17 4.5 -37.5t15 -38t29 -28.5t46.5 -11z" />
    <glyph glyph-name="ampersand" unicode="&#x26;" horiz-adv-x="704" 
d="M285 -8q-43 0 -84 11.5t-73 35t-50.5 60.5t-18.5 88q0 45 16.5 81t45.5 64t69 50q-33 32 -50.5 72t-17.5 79q0 54 24 95t68.5 64.5t105.5 23.5q50 0 91.5 -18.5t66 -55.5t24.5 -92q0 -43 -19.5 -78.5t-50.5 -63t-69 -49.5l119 -137q14 20 23 50t12 58h108
q-5 -58 -22.5 -103.5t-43.5 -83.5l129 -143h-155l-53 56q-41 -35 -92 -49.5t-103 -14.5zM294 99q28 0 60 8.5t56 32.5l-150 168q-27 -16 -45 -33.5t-27.5 -38t-9.5 -43.5q0 -32 17.5 -53t44 -31t54.5 -10zM291 430q25 13 47.5 30t37 37.5t14.5 43.5q0 19 -8.5 35t-25 26
t-41.5 10q-41 0 -60.5 -22t-19.5 -54q0 -21 8.5 -40t21.5 -35t26 -31z" />
    <glyph glyph-name="paragraph" unicode="&#xb6;" horiz-adv-x="699" 
d="M243 0v314h-10q-54 0 -103 20.5t-79.5 64.5t-30.5 116q0 62 28.5 105t74.5 65t98 22h458v-114h-95v-593h-124v593h-93v-593h-124z" />
    <glyph glyph-name="section" unicode="&#xa7;" horiz-adv-x="562" 
d="M291 -8q-43 0 -84 8.5t-74.5 27.5t-55 50t-26.5 77h126q7 -24 26.5 -38t42.5 -20.5t42 -6.5q21 0 43 4t37 15.5t15 35.5q0 18 -8.5 28t-22.5 14.5t-30 7.5q-29 6 -65 12t-70 16t-60 26q-29 18 -46 46.5t-17 64.5q0 33 14 61t42 45q-24 18 -36 43.5t-12 54.5q0 43 18.5 72
t49 46t68.5 25t76 8q53 0 99 -15.5t77 -49.5t36 -89h-121q-4 20 -18.5 33t-33.5 18.5t-40 5.5q-22 0 -42.5 -4.5t-33.5 -16.5t-13 -34q0 -19 13.5 -30.5t32 -16.5t33.5 -9q25 -5 52.5 -10t53.5 -10.5t45 -13.5q47 -14 66 -44t19 -72q0 -32 -14 -60t-34 -44q26 -17 37 -43.5
t11 -58.5q0 -45 -19.5 -75.5t-51.5 -49t-70.5 -26.5t-76.5 -8zM365 289q8 4 14 12.5t9.5 18.5t3.5 20q0 27 -19 39t-46 18q-29 7 -60 13t-60 13q-11 -8 -17.5 -23t-6.5 -30q0 -16 7.5 -27.5t22.5 -18.5t35 -12q24 -5 59 -12t58 -11z" />
    <glyph glyph-name="copyright" unicode="&#xa9;" horiz-adv-x="922" 
d="M460 -107q-122 0 -214 49.5t-143.5 142t-51.5 220.5t52 221t144 144t212 51q121 0 214 -51.5t145.5 -145.5t52.5 -221q0 -128 -52 -220t-144.5 -141t-214.5 -49zM463 -10q95 0 163.5 39.5t105.5 110t37 165.5t-37 166.5t-105.5 111.5t-162.5 40q-93 0 -163 -40
t-108.5 -112t-38.5 -167q0 -93 37.5 -163.5t106.5 -110.5t165 -40zM469 95q-64 0 -109.5 25.5t-69 73t-23.5 112.5q0 66 25 113.5t70.5 73.5t107.5 26q74 0 122.5 -35t60.5 -115h-105q-6 30 -28 42.5t-52 12.5q-37 0 -57.5 -17t-29.5 -43.5t-9 -57.5q0 -29 8.5 -55.5
t29.5 -43.5t57 -17q32 0 54 12.5t28 41.5h106q-8 -52 -34 -85t-65 -48.5t-87 -15.5z" />
    <glyph glyph-name="registered" unicode="&#xae;" horiz-adv-x="488" 
d="M244 351q-59 0 -104.5 22.5t-70.5 65.5t-25 104t25 105t70.5 68.5t105.5 24.5t105 -24.5t69.5 -68.5t24.5 -104q0 -61 -25 -104.5t-69.5 -66t-105.5 -22.5zM244 407q64 0 102 35.5t38 101.5t-37 103.5t-102 37.5q-64 0 -103 -37.5t-39 -103.5t39 -101.5t102 -35.5z
M170 450v199h85q33 0 54.5 -15t21.5 -50q0 -22 -9 -37.5t-27 -22.5l48 -74h-60l-42 66h-19v-66h-52zM222 560h33q11 0 18.5 6t7.5 17t-7.5 15.5t-17.5 4.5h-34v-43z" />
    <glyph glyph-name="uni2117" unicode="&#x2117;" horiz-adv-x="922" 
d="M461 -106q-89 0 -164 28t-130.5 81t-85.5 129t-30 172t30.5 173t86.5 131t130.5 82.5t160.5 28.5q88 0 162.5 -29t131 -83t87.5 -131t31 -173t-30 -171.5t-85 -128.5t-130 -81t-165 -28zM464 -7q96 0 163.5 38.5t104 108.5t36.5 164t-37.5 165.5t-105.5 111t-162 39.5
q-92 0 -161.5 -39t-107.5 -110t-38 -166t37.5 -165t106.5 -108.5t164 -38.5zM325 82v438h166q50 0 87 -15t58 -47.5t21 -86.5q0 -53 -22 -89t-60.5 -54t-88.5 -18l-65 1v-129h-96zM421 297h62q24 0 42 7.5t27.5 24t9.5 39.5q0 30 -18 47t-57 17h-66v-135z" />
    <glyph glyph-name="trademark" unicode="&#x2122;" horiz-adv-x="723" 
d="M344 415v292h104l61 -114l59 114h104v-292h-80v180l-70 -127h-27l-70 127v-180h-81zM136 415v205h-85v87h262v-87h-86v-205h-91z" />
    <glyph glyph-name="degree" unicode="&#xb0;" horiz-adv-x="395" 
d="M196 505q-40 0 -73 16t-52.5 47t-19.5 77t20.5 78.5t54.5 50.5t73 18t72 -17.5t53 -50t20 -78.5q0 -45 -20.5 -77t-53.5 -48t-74 -16zM198 584q27 0 44.5 16.5t17.5 46.5t-18 46.5t-44 16.5q-25 0 -43 -16.5t-18 -46.5t17.5 -46.5t43.5 -16.5z" />
    <glyph glyph-name="bar" unicode="|" horiz-adv-x="276" 
d="M79 -166v964h118v-964h-118z" />
    <glyph glyph-name="uni2116" unicode="&#x2116;" horiz-adv-x="1080" 
d="M51 0v707h133l311 -500v500h124v-707h-130l-315 499v-499h-123zM714 237v102h305v-102h-305zM867 381q-49 0 -86 21.5t-57 59t-20 86.5q0 50 20.5 87t57.5 58t86 21q50 0 85.5 -21t55.5 -58.5t20 -86.5t-20.5 -86.5t-57 -59t-84.5 -21.5zM867 476q24 0 37.5 11t19 27.5
t5.5 32.5q0 17 -5.5 33.5t-19 27.5t-37.5 11t-38.5 -11t-20.5 -27.5t-6 -33.5q0 -16 6 -32.5t20.5 -27.5t38.5 -11z" />
    <glyph glyph-name="cent" unicode="&#xa2;" horiz-adv-x="594" 
d="M245 -152v151q-64 12 -107.5 47.5t-65 90.5t-21.5 124q0 72 22.5 129t66.5 93.5t105 46.5v146h117v-144q70 -8 117.5 -52.5t57.5 -125.5h-121q-9 38 -38 56t-68 18q-50 0 -81 -24t-44 -61.5t-13 -79.5q0 -43 15.5 -80t45.5 -59t75 -22q39 0 70 17.5t40 55.5h125
q-11 -78 -60.5 -122.5t-120.5 -54.5v-150h-117z" />
    <glyph glyph-name="dollar" unicode="$" horiz-adv-x="661" 
d="M276 -140v139q-56 8 -104 32t-79.5 67.5t-41.5 108.5h127q12 -39 38.5 -61t62 -31t73.5 -9q35 0 64.5 9t48 29t18.5 51q0 26 -11.5 42t-31 26t-45.5 17q-40 12 -77.5 19.5t-71 16.5t-63.5 23q-49 24 -78.5 64t-29.5 110q0 63 29 105.5t76 66t101 27.5v137h117v-139
q54 -6 97 -31t69 -67.5t27 -102.5h-122q-3 33 -22.5 54t-49.5 30.5t-66 9.5q-31 0 -61.5 -7.5t-50 -26t-19.5 -52.5q0 -21 10 -37.5t27 -27.5t39 -18q37 -14 82 -23t84 -21q51 -14 88.5 -34.5t58 -55t20.5 -89.5q0 -70 -29 -115t-78 -70t-109 -30v-136h-117z" />
    <glyph glyph-name="Euro" unicode="&#x20ac;" horiz-adv-x="709" 
d="M449 -8q-73 0 -134 25t-103 75.5t-60 123.5h-111l19 101h81q-1 15 -1.5 26.5t0 23t1.5 26.5h-97l19 100h93q32 107 107.5 164.5t185.5 58.5q65 0 116 -16.5t94 -59.5l-60 -85q-26 24 -60 38t-83 14q-46 0 -81.5 -16t-58 -41.5t-32.5 -56.5h254l-18 -100h-259
q-2 -11 -2.5 -24.5t-0.5 -27.5t2 -24h248l-18 -101h-205q19 -51 63.5 -82t109.5 -31q44 0 80.5 12t67.5 42l62 -82q-42 -44 -96.5 -63.5t-122.5 -19.5z" />
    <glyph glyph-name="uni20B4" unicode="&#x20b4;" horiz-adv-x="601" 
d="M297 -8q-38 0 -76 9t-69.5 27.5t-50.5 50t-19 76.5q0 16 4 33t11 31h-58v91h131l89 63h-220v91h336q15 9 27 28t12 39q0 24 -12 40t-34 24t-52 8q-24 0 -46 -5.5t-38 -19t-22 -38.5h-125q4 49 26 82.5t55.5 54.5t73.5 30t80 9q38 0 76 -8.5t69 -27t49.5 -50t18.5 -77.5
q0 -20 -4 -36.5t-10 -29t-14 -23.5h57v-91h-134l-91 -63h225v-91h-341q-8 -7 -12.5 -18.5t-4.5 -25.5q0 -25 14.5 -40.5t38 -23t51.5 -7.5q27 0 48 6t35.5 18.5t21.5 34.5h122q-4 -48 -25 -80.5t-54 -52.5t-74 -29t-85 -9z" />
    <glyph glyph-name="uni20BD" unicode="&#x20bd;" horiz-adv-x="697" 
d="M141 0v84h-90v102h90v67h-90v105h90v349h250q59 0 107 -11.5t83.5 -38.5t55 -70t19.5 -106q0 -81 -35 -131.5t-94 -73.5t-132 -23h-129v-67h226v-102h-226v-84h-125zM266 358h120q41 0 74 12t52 38.5t19 70.5q0 62 -35 88t-105 26h-125v-235z" />
    <glyph glyph-name="sterling" unicode="&#xa3;" horiz-adv-x="604" 
d="M51 0v114h82v168h-82v111h82v119q0 68 27.5 113t77 68t112.5 23q81 0 136 -43t61 -135h-115q-2 19 -12 35.5t-27 25.5t-42 9q-28 0 -50 -9.5t-34 -30.5t-12 -56v-119h207v-111h-207v-168h298v-114h-502z" />
    <glyph glyph-name="yen" unicode="&#xa5;" horiz-adv-x="707" 
d="M292 0v84h-149v99h149v62h-149v99h102l-214 363h144l181 -325l177 325h143l-214 -363h102v-99h-148v-62h148v-99h-148v-84h-124z" />
    <glyph glyph-name="plus" unicode="+" horiz-adv-x="578" 
d="M234 141v161h-153v109h153v160h110v-160h154v-109h-154v-161h-110z" />
    <glyph glyph-name="minus" unicode="&#x2212;" horiz-adv-x="578" 
d="M87 302v109h404v-109h-404z" />
    <glyph glyph-name="multiply" unicode="&#xd7;" horiz-adv-x="578" 
d="M143 137l-74 74l147 145l-147 145l75 73l146 -146l144 146l75 -72l-146 -146l147 -144l-75 -75l-145 148z" />
    <glyph glyph-name="divide" unicode="&#xf7;" horiz-adv-x="578" 
d="M84 307v108h410v-108h-410zM288 88q-33 0 -55.5 21t-22.5 57q0 25 11 42.5t28.5 27.5t38.5 10q32 0 55 -21.5t23 -57.5q0 -37 -23 -58t-55 -21zM288 470q-33 0 -55.5 21t-22.5 57q0 24 11 42t28.5 27.5t38.5 9.5q32 0 55 -21.5t23 -57.5t-23 -57t-55 -21z" />
    <glyph glyph-name="equal" unicode="=" horiz-adv-x="578" 
d="M72 425v109h434v-109h-434zM72 165v110h434v-110h-434z" />
    <glyph glyph-name="notequal" unicode="&#x2260;" horiz-adv-x="578" 
d="M72 0l75 166h-75v110h125l68 148h-193v109h243l74 163h117l-74 -163h74v-109h-124l-67 -148h191v-110h-241l-75 -166h-118z" />
    <glyph glyph-name="greater" unicode="&#x3e;" horiz-adv-x="578" 
d="M101 85v127l228 142l-228 142v128l376 -237v-63z" />
    <glyph glyph-name="less" unicode="&#x3c;" horiz-adv-x="578" 
d="M477 84l-376 238v63l376 239v-127l-228 -141l228 -143v-129z" />
    <glyph glyph-name="greaterequal" unicode="&#x2265;" horiz-adv-x="578" 
d="M92 212v119l224 89l-224 87v121l394 -164v-86zM92 82v110h394v-110h-394z" />
    <glyph glyph-name="lessequal" unicode="&#x2264;" horiz-adv-x="578" 
d="M486 212l-394 164v86l394 166v-119l-224 -89l224 -87v-121zM92 82v110h394v-110h-394z" />
    <glyph glyph-name="plusminus" unicode="&#xb1;" horiz-adv-x="578" 
d="M234 237v120h-153v109h153v157h110v-157h154v-109h-154v-120h-110zM81 82v110h417v-110h-417z" />
    <glyph glyph-name="approxequal" unicode="&#x2248;" horiz-adv-x="578" 
d="M391 360q-35 0 -62.5 15t-50.5 35.5t-43.5 35.5t-42.5 15q-21 0 -32 -12.5t-13.5 -30.5t-2.5 -34h-104q-1 35 5.5 68.5t23.5 60t46 42t72 15.5q35 0 63 -15t51 -35.5t44 -35.5t42 -15q22 0 32.5 12.5t13.5 31t2 34.5h104q1 -35 -6 -68.5t-23.5 -60.5t-45.5 -42.5
t-73 -15.5zM391 130q-35 0 -62.5 15.5t-50.5 35.5t-43.5 35t-42.5 15q-21 0 -32 -12.5t-14 -30.5t-2 -35h-104q-1 36 5.5 69.5t23.5 60t46 42.5t72 16q36 0 63.5 -15.5t50.5 -36t43.5 -35.5t42.5 -15q21 0 32 12.5t14 30.5t2 34h104q1 -35 -6 -68t-23.5 -59.5t-45.5 -42.5
t-73 -16z" />
    <glyph glyph-name="asciitilde" unicode="~" horiz-adv-x="578" 
d="M397 248q-46 0 -78 22.5t-57 44.5q-16 15 -32 27t-34 12q-23 0 -34.5 -18t-14 -41t-1.5 -40h-107q-3 39 3.5 76t23.5 67.5t47.5 48.5t76.5 18q45 0 74 -20.5t53 -42.5q16 -15 33 -27.5t35 -12.5q22 0 33 15t14.5 37t1.5 43h107q1 -53 -8.5 -92t-28.5 -65t-46 -39t-61 -13
z" />
    <glyph glyph-name="asciicircum" unicode="^" horiz-adv-x="578" 
d="M85 479l161 234h83l165 -234h-119l-86 134l-87 -134h-117z" />
    <glyph glyph-name="percent" unicode="%" horiz-adv-x="859" 
d="M139 0l453 707h125l-450 -707h-128zM647 -7q-50 0 -86.5 21.5t-57 59.5t-20.5 87q0 51 20.5 89t57.5 59t87 21q49 0 84.5 -20.5t55.5 -58t20 -88.5t-20.5 -89t-56.5 -59.5t-84 -21.5zM646 87q24 0 38.5 10.5t20.5 27.5t6 36t-6.5 36t-20.5 27.5t-38 10.5q-36 0 -52 -23
t-15 -52q0 -29 16 -51t51 -22zM213 379q-50 0 -86.5 21.5t-56 59.5t-19.5 87q0 51 20 89t57 59t87 21q49 0 85 -20.5t55.5 -58t19.5 -88.5q0 -50 -20 -88.5t-56 -60t-86 -21.5zM213 473q24 0 38 10.5t21 28t7 35.5q0 19 -7 36t-21 27.5t-38 10.5q-36 0 -52 -23t-16 -51
q1 -29 16.5 -51.5t51.5 -22.5z" />
    <glyph glyph-name="arrowup" unicode="&#x2191;" horiz-adv-x="730" 
d="M312 0v467l-178 -217l-83 73l313 353l315 -353l-84 -73l-177 217v-467h-106z" />
    <glyph glyph-name="uni2197" unicode="&#x2197;" horiz-adv-x="730" 
d="M163 61l-75 75l330 330l-278 -27l-8 110l471 28l-27 -472l-110 8l27 279z" />
    <glyph glyph-name="arrowright" unicode="&#x2192;" horiz-adv-x="730" 
d="M349 24l-72 83l216 178h-467v106h467l-216 177l72 84l354 -314z" />
    <glyph glyph-name="uni2198" unicode="&#x2198;" horiz-adv-x="730" 
d="M604 99l-473 28l8 110l279 -27l-330 330l75 75l330 -330l-27 278l109 8z" />
    <glyph glyph-name="arrowdown" unicode="&#x2193;" horiz-adv-x="730" 
d="M365 -2l-314 354l84 72l177 -216v468h106v-468l178 216l83 -72z" />
    <glyph glyph-name="uni2199" unicode="&#x2199;" horiz-adv-x="730" 
d="M126 99l27 472l111 -7l-28 -279l330 330l75 -75l-330 -331l279 28l8 -110z" />
    <glyph glyph-name="arrowleft" unicode="&#x2190;" horiz-adv-x="730" 
d="M380 24l-354 314l354 314l72 -83l-216 -178h467v-106h-467l216 -178z" />
    <glyph glyph-name="uni2196" unicode="&#x2196;" horiz-adv-x="730" 
d="M566 62l-330 330l28 -278l-111 -8l-27 471l472 -27l-8 -110l-279 27l330 -330z" />
    <glyph glyph-name="uni21A9" unicode="&#x21a9;" horiz-adv-x="1159" 
d="M397 -267l-346 322l345 323l66 -84l-203 -186h510q70 0 120.5 30t77.5 82.5t27 119.5t-27.5 118.5t-78 81t-119.5 29.5h-586v109h596q75 0 135.5 -25.5t104 -71t66.5 -107t23 -134.5q0 -74 -23 -136.5t-66.5 -108t-104 -70.5t-135.5 -25h-521l205 -187z" />
    <glyph glyph-name="uni21B6" unicode="&#x21b6;" horiz-adv-x="1022" 
d="M407 -29l-356 132l37 100l185 -75q-24 32 -40.5 70t-24.5 79.5t-7 81.5q1 111 49 196t133 133t199 48q111 0 196 -46.5t136 -131.5t57 -200h-117q-6 77 -40 136.5t-92.5 93t-137.5 33.5q-85 0 -145.5 -37t-91.5 -98.5t-31 -134.5q0 -30 6.5 -63.5t19 -64.5t29.5 -55
l62 198l102 -35z" />
    <glyph glyph-name="uni21B7" unicode="&#x21b7;" horiz-adv-x="1022" 
d="M615 -29l-128 360l102 36l63 -203q17 24 29 56t18.5 66.5t6.5 64.5q0 73 -31 134.5t-90.5 98.5t-145.5 37q-78 0 -137 -33.5t-93.5 -93t-40.5 -136.5h-117q7 115 57.5 200t136 131.5t195.5 46.5q115 0 200 -48t132.5 -133.5t48.5 -196.5q1 -40 -6.5 -81t-24 -79
t-41.5 -70l185 75l37 -100z" />
    <glyph glyph-name="uni21BA" unicode="&#x21ba;" horiz-adv-x="943" 
d="M447 -50q-122 1 -210.5 50.5t-136 137.5t-48.5 204q-1 101 37 186.5t112 147.5l78 -87q-56 -49 -83.5 -114.5t-26.5 -132.5q1 -56 19.5 -106.5t53.5 -89t86 -61t116 -22.5q71 0 122 23t84 62.5t49 89t17 100.5q0 38 -11.5 82.5t-36 88t-64.5 78.5l-5 -205h-98l15 379
l376 -36l-10 -98l-205 28q51 -36 86.5 -88t54.5 -112.5t18 -123.5q0 -79 -26.5 -147.5t-77 -121.5t-122 -82.5t-163.5 -29.5z" />
    <glyph glyph-name="uni21BB" unicode="&#x21bb;" horiz-adv-x="943" 
d="M496 -50q-92 0 -164 29.5t-122 82.5t-76.5 121.5t-26.5 147.5q0 63 18.5 123.5t54 112.5t86.5 88l-205 -28l-10 98l376 36l15 -379h-98l-5 205q-40 -35 -65 -78t-36 -87t-11 -81q1 -52 17 -102t49 -89.5t84 -62.5t122 -23q65 0 116 22t86 60.5t53.5 89t19.5 106.5
q1 67 -26.5 132.5t-83.5 114.5l78 87q74 -62 112 -147.5t37 -180.5q-1 -117 -48 -207t-135 -140.5t-212 -50.5z" />
    <glyph glyph-name="uni27F5" unicode="&#x27f5;" horiz-adv-x="1375" 
d="M397 -52l-346 324l345 323l70 -85l-205 -184h1063v-109h-1063l205 -184z" />
    <glyph glyph-name="rightLongArrow" unicode="&#x27f6;" horiz-adv-x="1375" 
d="M979 -52l-70 85l205 184h-1063v109h1063l-205 184l70 85l345 -323z" />
    <glyph glyph-name="uni0308" unicode="&#x308;" horiz-adv-x="0" 
d="M119 592q-29 0 -50.5 18.5t-21.5 51.5t21.5 52.5t51.5 19.5q29 0 50.5 -19.5t21.5 -52.5t-21.5 -51.5t-51.5 -18.5zM-119 592q-30 0 -51 18.5t-21 51.5t21.5 52.5t50.5 19.5q30 0 51.5 -19.5t21.5 -52.5t-21.5 -51.5t-51.5 -18.5z" />
    <glyph glyph-name="uni0307" unicode="&#x307;" horiz-adv-x="0" 
d="M0 588q-35 0 -56 21t-21 55q0 33 22 54.5t55 21.5q32 0 55 -21t23 -55t-22 -55t-56 -21z" />
    <glyph glyph-name="gravecomb" unicode="&#x300;" horiz-adv-x="0" 
d="M-23 594l-129 162h130l104 -162h-105z" />
    <glyph glyph-name="acutecomb" unicode="&#x301;" horiz-adv-x="0" 
d="M-64 598l104 161h130l-129 -161h-105z" />
    <glyph glyph-name="uni030B" unicode="&#x30b;" horiz-adv-x="0" 
d="M10 594l99 162h124l-122 -162h-101zM-163 594l80 162h124l-107 -162h-97z" />
    <glyph glyph-name="uni030C.alt" horiz-adv-x="0" 
d="M112 446l-34 48q15 9 30 23t28 30t18 30q-28 2 -47.5 20t-19.5 49q0 34 21.5 52t53.5 18q40 0 59 -29t19 -66q0 -40 -18.5 -76t-47.5 -62t-62 -37z" />
    <glyph glyph-name="uni0302" unicode="&#x302;" horiz-adv-x="0" 
d="M-188 594l146 175h83l148 -175h-118l-71 92l-70 -92h-118z" />
    <glyph glyph-name="uni030C" unicode="&#x30c;" horiz-adv-x="0" 
d="M-40 594l-148 175h118l71 -91l70 91h118l-147 -175h-82z" />
    <glyph glyph-name="uni0306" unicode="&#x306;" horiz-adv-x="0" 
d="M-1 591q-85 0 -133.5 39.5t-49.5 117.5h104q1 -37 22.5 -53t57.5 -16t57.5 16t22.5 53h104q-1 -51 -23.5 -86.5t-63.5 -53t-98 -17.5z" />
    <glyph glyph-name="uni030A" unicode="&#x30a;" horiz-adv-x="0" 
d="M0 572q-50 0 -81 29t-31 78t32 80t81 31t80.5 -31.5t31.5 -79.5q0 -49 -32 -78t-81 -29zM0 639q19 0 30.5 11.5t11.5 29.5q0 19 -11.5 30.5t-30.5 11.5q-18 0 -29.5 -11.5t-11.5 -30.5q0 -18 11 -29.5t30 -11.5z" />
    <glyph glyph-name="tildecomb" unicode="&#x303;" horiz-adv-x="0" 
d="M77 588q-28 0 -49 10.5t-37.5 24.5t-30 24.5t-26.5 10.5q-14 0 -20.5 -12t-7.5 -27.5t0 -25.5h-88q-2 38 7.5 73t35 57.5t71.5 22.5q26 0 45 -10.5t34.5 -24t29 -24t25.5 -10.5q16 0 22 11.5t7 26t0 25.5h88q1 -37 -7.5 -72t-31.5 -57.5t-67 -22.5z" />
    <glyph glyph-name="uni0304" unicode="&#x304;" horiz-adv-x="0" 
d="M-175 626v106h350v-106h-350z" />
    <glyph glyph-name="uni0312" unicode="&#x312;" horiz-adv-x="0" 
d="M-2 585q-38 0 -58 26t-21 66q0 38 17.5 73t47.5 61.5t64 37.5l33 -47q-13 -7 -29 -21.5t-29 -30t-18 -29.5q29 -2 48 -19.5t19 -48.5q0 -34 -22.5 -51t-51.5 -17z" />
    <glyph glyph-name="uni0326" unicode="&#x326;" horiz-adv-x="0" 
d="M-43 -300l-30 42q13 8 27 21t26 28t16 29q-26 1 -44.5 17t-18.5 44q0 32 21 48.5t48 16.5q36 0 54 -26t18 -62q-1 -36 -17.5 -68t-43 -55.5t-56.5 -34.5z" />
    <glyph glyph-name="uni0327" unicode="&#x327;" horiz-adv-x="0" 
d="M-34 -261q-20 -1 -36.5 -0.5t-32.5 2.5v73q22 -2 42 -1.5t35.5 5t25 14.5t9.5 26q0 14 -9.5 21.5t-22 10t-22.5 2.5q-13 0 -29 -2.5t-27 -6.5l37 143h82l-17 -73q6 1 12 1t11 -1q36 -2 57.5 -24.5t21.5 -65.5q0 -41 -19 -67.5t-50.5 -40t-67.5 -16.5z" />
    <glyph glyph-name="uni0328" unicode="&#x328;" horiz-adv-x="0" 
d="M28 -213q-60 0 -95 29.5t-35 79.5q0 41 25.5 71.5t61.5 46.5l76 -11q-29 -12 -51 -34t-22 -50q0 -25 15.5 -38.5t40.5 -13.5q11 0 22 3t22 8l14 -74q-18 -10 -36.5 -13.5t-37.5 -3.5z" />
    <glyph glyph-name="uni0308.narrow" horiz-adv-x="0" 
d="M120 595q-29 0 -49.5 18.5t-20.5 50.5t20.5 51t49.5 19t49.5 -18.5t20.5 -51.5q0 -32 -20.5 -50.5t-49.5 -18.5zM301 595q-29 0 -49.5 18.5t-20.5 50.5t21 51t49 19q29 0 49 -18.5t20 -51.5q0 -32 -20 -50.5t-49 -18.5z" />
    <glyph glyph-name="dieresis" unicode="&#xa8;" horiz-adv-x="599" 
d="M418 582q-29 0 -50 19t-21 51q0 33 21 52.5t50 19.5q30 0 51 -19t21 -53q0 -32 -21 -51t-51 -19zM181 582q-29 0 -50.5 19t-21.5 51q0 33 21.5 52.5t50.5 19.5q30 0 51 -19t21 -53q0 -32 -21 -51t-51 -19z" />
    <glyph glyph-name="dotaccent" unicode="&#x2d9;" horiz-adv-x="592" 
d="M296 592q-35 0 -56 21t-21 55q0 33 22 54.5t55 21.5q31 0 54 -21t23 -55t-22 -55t-55 -21z" />
    <glyph glyph-name="grave" unicode="`" horiz-adv-x="0" 
d="M-23 594l-129 162h130l104 -162h-105z" />
    <glyph glyph-name="acute" unicode="&#xb4;" horiz-adv-x="0" 
d="M-64 598l104 161h130l-129 -161h-105z" />
    <glyph glyph-name="hungarumlaut" unicode="&#x2dd;" horiz-adv-x="596" 
d="M301 608l99 161h124l-122 -161h-101zM128 608l80 161h125l-107 -161h-98z" />
    <glyph glyph-name="circumflex" unicode="&#x2c6;" horiz-adv-x="593" 
d="M108 594l146 175h83l148 -175h-118l-72 92l-70 -92h-117z" />
    <glyph glyph-name="caron" unicode="&#x2c7;" horiz-adv-x="593" 
d="M256 594l-148 175h118l71 -91l70 91h118l-147 -175h-82z" />
    <glyph glyph-name="breve" unicode="&#x2d8;" horiz-adv-x="578" 
d="M288 591q-85 0 -133.5 39.5t-49.5 117.5h104q1 -37 22.5 -53t57.5 -16t57.5 16t22.5 53h104q-1 -51 -23.5 -86.5t-63.5 -53t-98 -17.5z" />
    <glyph glyph-name="ring" unicode="&#x2da;" horiz-adv-x="595" 
d="M297 591q-50 0 -81 29.5t-31 77.5q0 49 32 80t81 31t80 -31t31 -80q0 -48 -31.5 -77.5t-80.5 -29.5zM297 658q19 0 30.5 11.5t11.5 30.5q0 18 -11.5 29.5t-30.5 11.5t-30.5 -11.5t-11.5 -29.5q0 -19 11.5 -30.5t30.5 -11.5z" />
    <glyph glyph-name="tilde" unicode="&#x2dc;" horiz-adv-x="0" 
d="M77 588q-28 0 -49 10.5t-37.5 24.5t-30 24.5t-26.5 10.5q-14 0 -20.5 -12t-7.5 -27.5t0 -25.5h-88q-2 38 7.5 73t35 57.5t71.5 22.5q26 0 45 -10.5t34.5 -24t29 -24t25.5 -10.5q16 0 22 11.5t7 26t0 25.5h88q1 -37 -7.5 -72t-31.5 -57.5t-67 -22.5z" />
    <glyph glyph-name="macron" unicode="&#xaf;" horiz-adv-x="576" 
d="M113 626v106h350v-106h-350z" />
    <glyph glyph-name="cedilla" unicode="&#xb8;" horiz-adv-x="608" 
d="M277 -261q-20 -1 -36.5 -0.5t-32.5 2.5v73q22 -2 42 -1.5t35.5 5t25 14.5t9.5 26q0 14 -9.5 21.5t-22 10t-22.5 2.5q-13 0 -29 -2.5t-27 -6.5l37 143h82l-17 -73q6 1 12 1t11 -1q36 -2 57.5 -24.5t21.5 -65.5q0 -41 -19 -67.5t-50.5 -40t-67.5 -16.5z" />
    <glyph glyph-name="ogonek" unicode="&#x2db;" horiz-adv-x="508" 
d="M282 -213q-60 0 -95 29.5t-35 79.5q0 41 25.5 71.5t61.5 46.5l76 -11q-29 -12 -51 -34t-22 -50q0 -25 15.5 -38.5t40.5 -13.5q11 0 22 3t22 8l14 -74q-18 -10 -36.5 -13.5t-37.5 -3.5z" />
    <glyph glyph-name="a2_alt" 
d="M272 -7q-59 0 -103 20.5t-72.5 57t-43 85.5t-14.5 105q0 79 27.5 141t83 97.5t137.5 35.5q45 0 85 -15.5t67 -46.5l4 54h116v-527h-118l-3 59q-30 -34 -74 -50t-92 -16zM298 103q46 0 77 22t47 59t16 80q0 46 -16 82t-47 57.5t-78 21.5q-49 0 -79 -22.5t-44 -59
t-14 -79.5q0 -44 14 -81t45 -58.5t79 -21.5z" />
    <glyph glyph-name="alt_1" horiz-adv-x="502" 
d="M39 0v113h176v420h-148v89q40 2 75 9t63.5 24t45.5 50h89v-592h151v-113h-452z" />
    <glyph glyph-name="be_alt" horiz-adv-x="581" 
d="M293 -7q-71 0 -120.5 25.5t-79.5 70t-43.5 104t-13.5 128.5q0 71 9 128t30.5 102t61 79t100.5 59q29 12 59 22.5t60 20.5t59 20q20 7 37 18t31 24l63 -93q-11 -20 -29 -32.5t-39 -21.5q-45 -18 -92.5 -32.5t-92.5 -31.5q-40 -14 -70 -37.5t-47.5 -54t-18.5 -66.5
q22 26 49 41t57 22t61 7q67 0 117 -29.5t77 -84t27 -127.5q0 -77 -30.5 -136t-86.5 -92t-135 -33zM295 103q44 0 72 20t42.5 53t14.5 70q0 38 -15 69t-43 49.5t-68 18.5q-43 0 -72.5 -18.5t-45 -50.5t-15.5 -72q0 -34 14.5 -66t43.5 -52.5t72 -20.5z" />
    <glyph glyph-name="l2_alt" horiz-adv-x="356" 
d="M229 -6q-57 0 -94.5 20t-55.5 60.5t-18 100.5v532h122v-509q0 -27 5 -48.5t20 -33t43 -11.5q20 0 38 7t33 19l42 -93q-31 -26 -64.5 -35t-70.5 -9z" />
    <glyph glyph-name="logo" horiz-adv-x="2928" 
d="M426 335q-6 0 -10 3.5t-6 3.5l-93 94h-110l-20 -19q-4 -6 -14 -6h-37q-8 0 -14.5 5.5t-6.5 13.5q0 7 7 14l25 26q8 5 14 5h37h1h106v36l-26 26h-118l-25 -20v-26q0 -8 -6 -14l-12 -13q-8 -5 -14 -5q-17 0 -19 15q-19 0 -19 19q-7 2 -12 6.5t-5 12.5q0 7 7 14l12 13
q6 6 14 6h27l0.5 0.5l1.5 1.5l31 25q4 4 12 4h39q4 13 18 13q8 0 14 -6l7 -7h55q6 0 14 -5l4 -5v20l-26 27h-135l-20 -20q-8 -5 -14 -5h-12q-6 0 -14 5l-13 13q-5 8 -5 14q0 8 4 12q-4 4 -4 13q0 6 5 14l13 12q6 6 14 6h12q8 0 14 -6l20 -19h35v28q-12 0 -18.5 15t-6.5 26
v37q0 8 5.5 14t13.5 6h51q8 0 13.5 -6t5.5 -14v-37q0 -11 -6.5 -26t-18.5 -15v-28h25q-1 1 -1 5q0 8 5.5 14t14.5 6q8 0 14 -6l36 -36q4 4 13 4q19 0 19 -19v-156l62 -62v71l-32 32q-6 6 -6 14t6 13.5t14 5.5q6 0 14 -5l4 -5v84l-95 95q-6 5 -6 14v18h-6q-19 0 -19 19
q0 8 5.5 14t13.5 6h6v6q0 8 6 13.5t14 5.5q19 0 19 -19v-6h6q8 0 13.5 -6t5.5 -14q0 -19 -19 -19h-6v-10l62 -62v120q-2 2 -2 3l-55 55q-6 6 -6 14t6 14l12 13q3 3 7 4v20q0 8 6 14l13 12q5 6 13 6q7 0 11 -3q6 6 15 6q8 0 14 -6q5 3 11 3q8 0 14 -6l12 -12q6 -6 6 -14v-20
l4 -2t3 -2l12 -13q6 -6 6 -14t-6 -14l-55 -55q0 -1 -2 -3v-120l62 62v10h-6q-19 0 -19 19q0 8 5.5 14t13.5 6h6v6q0 19 19 19q8 0 14 -5.5t6 -13.5v-6h6q8 0 13.5 -6t5.5 -14q0 -19 -19 -19h-6v-18q0 -9 -6 -14l-95 -95v-84l5 5q5 5 13 5q11 0 15.5 -6t4.5 -13q0 -8 -6 -14
l-32 -32v-71l62 62v156q0 19 19 19q9 0 13 -4l37 36q5 6 14 6q8 0 13.5 -6t5.5 -14q0 -1 -0.5 -2t-0.5 -3h25v28q-12 0 -18.5 15t-6.5 26v37q0 8 5.5 14t13.5 6h51q8 0 13.5 -6t5.5 -14v-37q0 -11 -6.5 -26t-18.5 -15v-28h36l19 19q6 6 14 6h12q8 0 14 -6l13 -12q6 -6 6 -14
q0 -5 -5 -13q5 -5 5 -12q0 -8 -6 -14l-13 -13q-8 -5 -14 -5h-12q-6 0 -14 5l-19 20h-136l-26 -27v-20l4 5q8 5 14 5h55l7 7q6 6 14 6q14 0 18 -13h39q8 0 12 -4l31 -25q1 -1 1.5 -1t1.5 -1h26q8 0 14 -6l12 -13q6 -6 6 -14q0 -6 -1 -7q-5 -9 -14 -12q0 -8 -6 -13.5t-14 -5.5
q-3 -15 -19 -15q-6 0 -14 5l-12 13q-6 6 -6 14v26l-25 20h-118l-26 -26v-36h144q9 0 14 -5l25 -26q6 -6 6 -14q0 -19 -19 -19h-38q-8 0 -14 6l-20 19h-109l-94 -94q-2 0 -6 -3.5t-9 -3.5zM204 0q-12 0 -12 13v349q0 13 12 13h61q12 0 21 -9l132 -132q2 -2 6 -2q5 0 7 2
l132 132q9 9 21 9h61q12 0 12 -13v-349q0 -13 -12 -13h-61q-13 0 -13 13v219q0 3 -4 3q-1 0 -2 -1l-118 -118q-10 -9 -22 -9h-1q-11 0 -22 9l-118 118q-1 1 -3 1q-4 0 -4 -3v-219q0 -13 -12 -13h-61zM904 -6q-57 0 -102 23.5t-71 67t-26 103.5q0 54 25 98t70 69.5t104 25.5
q58 0 102.5 -23.5t70.5 -66.5t26 -103q0 -57 -26 -100.5t-70.5 -68.5t-102.5 -25zM904 74q53 0 80.5 33.5t27.5 80.5q0 51 -31.5 82t-76.5 31q-47 0 -77.5 -31t-30.5 -82q0 -49 31.5 -81.5t76.5 -32.5zM1156 0q-9 0 -9 9v357q0 9 9 9h67q9 0 9 -9v-281q0 -4 5 -4h139
q9 0 9 -9v-63q0 -9 -9 -9h-220zM1547 -1q-15 0 -46.5 0.5t-58.5 0.5q-9 0 -9 9v357q0 9 9 9q11 0 32.5 0.5t43.5 0.5h33q75 0 121.5 -25.5t67.5 -67.5t21 -92q0 -52 -24 -96t-71.5 -70t-118.5 -26zM1549 80q56 0 88.5 28.5t32.5 82.5q0 52 -34 78.5t-86 26.5h-13t-14 -1
q-5 0 -5 -5v-205q0 -6 11.5 -5.5t19.5 0.5zM2003 -6q-57 0 -102 23.5t-71 67t-26 103.5q0 54 25 98t70 69.5t104 25.5q58 0 102.5 -23.5t70.5 -66.5t26 -103q0 -57 -26 -100.5t-70.5 -68.5t-102.5 -25zM2003 74q53 0 80.5 33.5t27.5 80.5q0 51 -31.5 82t-76.5 31
q-47 0 -77.5 -31t-30.5 -82q0 -49 31.5 -81.5t76.5 -32.5zM2358 0q-7 0 -12 9l-146 357q-1 1 -1 3q0 6 6 6h76q8 0 12 -9l91 -234q0 -2 2 -2q1 1 1 2l87 234q5 9 13 9h70q6 0 6 -6q0 -1 -0.5 -1.5t-0.5 -1.5l-142 -357q-4 -9 -13 -9h-49zM2497 0q-6 0 -6 6q0 2 1 3l141 358
q5 8 12 8h56q7 0 12 -8l141 -358q0 -1 0.5 -1.5t0.5 -1.5q0 -6 -6 -6h-70q-9 0 -11 9l-25 66q-1 4 -6 4h-133q-5 0 -6 -4l-24 -66q-4 -9 -12 -9h-65zM2635 159h71q3 0 3 3v1l-37 98l-1 1q-1 -1 -1.5 -1h-0.5l-37 -98v-1q0 -3 3 -3z" />
    <glyph glyph-name="logom" horiz-adv-x="848" 
d="M409 344l-95 95h-110l-20 -20q-6 -6 -14 -6h-38q-13 0 -18 12t4 22l25 25q6 6 14 6h146v36l-27 26h-118l-25 -20v-27t-7 -14l-5 -5l-7 -7q-8 -8 -19.5 -5t-13.5 15q-19 0 -19 19q-12 3 -15 14t5 19l12 12q7 7 14 7h27l34 27q5 5 12 5h39q4 10 14 12t18 -5l7 -7h55
q7 0 10.5 -3t8.5 -8v21l-27 26h-136l-18 -18t-10 -6t-18 -1q-8 0 -14 5.5t-13 12.5q-11 14 -1 27q-10 13 -1.5 22.5t15.5 16.5q5 6 12 6h15t14 -6l19 -19h36v28q-26 11 -26 41v38q0 8 6 14t14 6h51q8 0 14 -6t6 -14v-38q0 -30 -26 -41v-28h25q-4 14 9.5 23t23.5 -4l37 -36
q1 1 1.5 1t1.5 1q6 2 9 2q8 0 14 -6t6 -14v-156l62 -63v72l-32 32q-9 9 -5 19t14 14.5t19 -5.5l4 -5v84l-95 96q-6 6 -6 14v18h-6q-13 0 -17.5 10t0 20t17.5 10h6v5q0 13 9.5 17.5t19.5 0t10 -17.5v-5h6q13 0 17.5 -10t0 -20t-17.5 -10h-6v-10l62 -62v121q0 1 -7.5 9t-18 19
t-19.5 19.5t-12 11.5q-6 5 -6 13.5t6 14.5q4 4 9 9.5t10 7.5v21.5t4 9.5l15 15q11 12 24 3q8 7 17 6t13 -6q11 8 20.5 0t16.5 -16q6 -6 6 -14.5v-18.5q5 -2 10 -7.5t9 -9.5q6 -6 6 -14.5t-6 -13.5q-3 -3 -12 -11.5t-19.5 -19.5t-18 -19t-7.5 -9v-121l62 62v10h-6
q-13 0 -17.5 10t0 20t17.5 10h6v5q0 13 10 17.5t19.5 0t9.5 -17.5v-5h6q13 0 17.5 -10t0 -20t-17.5 -10h-6v-18t-5 -14l-96 -96v-84q4 5 7.5 8t10.5 3q14 0 18.5 -12.5t-4.5 -21.5l-32 -32v-72l62 63v156q0 13 11 18.5t21 -2.5l37 36q11 13 24 4t9 -23h25v28q-26 11 -26 41
v38q0 8 6 14t14 6h51q8 0 14 -6t6 -14v-38q0 -30 -26 -41v-28h36l18 18t10 6t18 1q8 0 14 -5.5t13 -12.5q11 -14 1 -27q10 -12 1.5 -22t-15.5 -17q-5 -5 -12 -5.5t-15 -0.5t-14 6l-19 19h-136l-27 -26v-21q5 5 8.5 8t10.5 3h55q5 5 9 8.5t12 3.5q14 0 18 -12h39q7 0 12 -5
l34 -27h27t11 -4l15 -15q10 -8 5 -21q-4 -9 -15 -12q0 -19 -19 -19q-2 -11 -13 -14q-12 -4 -20 4l-12 12q-7 7 -7 14v27l-25 20h-118l-27 -26v-36h146q8 0 14 -6l25 -25q9 -9 4 -21.5t-18 -12.5h-36t-14.5 5t-21.5 21h-110l-95 -95q-7 -8 -15.5 -8t-14.5 8zM201 0
q-13 0 -13 13v351q0 13 13 13h61q12 0 22 -9l132 -133q7 -6 13 0l133 133q11 9 22 9h61q12 0 12 -13v-351q0 -13 -12 -13h-61q-13 0 -13 13v220q0 2 -2.5 3.5t-4.5 -0.5l-119 -120q-9 -8 -22 -8t-22 8l-120 120q-2 2 -4 0.5t-2 -3.5v-220q0 -13 -13 -13h-61z" />
    <glyph glyph-name="map" horiz-adv-x="671" 
d="M295 0q-5 0 -5 5v23q0 2 -2 4l-9 9q-3 4 0 7l12 12q6 4 0 8l-12 12q-1 1 -1 4v85q0 3 1 4l14 13q1 1 1 4v119q0 3 -1 4l-13 12q-1 1 -1 4v23q0 3 -2 3l-46 47q-2 2 -2 4v21q0 3 -1 4l-46 46q-2 2 -2 3v26q0 3 -1 4l-31 30q-1 1 -1 4v29q0 2 -2 4l-21 21q-2 2 -2 4v26
q0 3 -1 4l-23 23q-2 2 -4 2h-42q-5 0 -5 5v2q0 3 1 4l16 16q2 2 4 2h39q3 0 4 1l19 19q2 2 4 2h96q2 0 4 -2l46 -46q1 -1 3 -1h33q5 0 5 -5v-25q0 -5 6 -5h6q3 0 4 1l16 17q1 1 4 1h32q5 0 5 -5v-26q0 -2 2 -4l20 -20q4 -3 7 0l10 10q1 1 4 1h6q6 0 6 -5v-79q0 -2 -2 -4
l-6 -6q-4 -4 0 -8l59 -59q1 -1 3 -1h12q5 0 5 -5v-34v-37q0 -2 2 -4l22 -22q2 -2 4 -2h12q3 0 4 -1l16 -17q2 -2 2 -4v-37q0 -2 -2 -4l-6 -5q-4 -4 0 -8l21 -20q1 -1 1 -4q0 -5 -5 -5h-19h-14q-2 0 -3 1l-9 9q-3 4 -7 0l-11 -11q-5 -3 -8 0l-15 15q-3 3 -8 0l-27 -27
q-2 -2 -3 -2h-9q-5 0 -5 6v34q0 4 -3.5 5t-5.5 -1l-22 -22q-1 -1 -1 -3v-27q0 -3 1 -4l10 -10q4 -3 0 -7l-20 -20q-1 -1 -1 -4v-25q0 -2 -2 -4l-22 -22q-1 -1 -1 -3v-12q0 -2 -2 -4l-12 -12q-2 -2 -3 -2h-9q-2 0 -3 -1l-10 -10q-2 -2 -2 -4v-38q0 -6 -5 -6h-20q-3 0 -4 -1
l-14 -15q-1 0 -1.5 -0.5t-2.5 -0.5h-3z" />
    <glyph glyph-name="tab_1" horiz-adv-x="673" 
d="M99 0v113h190v421h-167v89h17q37 0 73.5 7t66.5 25.5t46 51.5h89v-594h168v-113h-483z" />
    <glyph glyph-name="y2_alt" horiz-adv-x="563" 
d="M81 -236v122q45 0 72.5 9.5t46.5 30t35 53.5l-224 548h142l152 -409l120 409h134l-142 -441q-11 -35 -25 -73.5t-31.5 -76.5t-39 -69.5t-47.5 -52.5q-37 -29 -76 -39.5t-89 -10.5h-28z" />
    <glyph glyph-name="a00E2.alt" horiz-adv-x="563" 
d="M221 -6q-48 0 -89 16.5t-66 50.5t-25 87q0 37 13.5 64t37.5 45.5t54.5 30t64.5 17.5q36 7 81 11.5t97 9.5q0 33 -12.5 56.5t-35.5 36t-57 12.5q-35 0 -61.5 -12t-39.5 -41h-125q10 58 44 92t83 49.5t100 15.5q82 0 130 -30t69.5 -85.5t21.5 -133.5v-286h-111l-4 64
q-24 -28 -53.5 -43.5t-59.5 -21t-57 -5.5zM244 94q40 0 72 14t52 42t21 68v22q-23 -2 -46.5 -4.5t-46.5 -5.5t-46 -7q-40 -6 -64 -23t-24 -45q0 -25 13.5 -38t32.5 -18t36 -5zM100 613l146 175h83l148 -175h-118l-71 92l-70 -92h-118z" />
    <glyph glyph-name="a00E4.alt" horiz-adv-x="563" 
d="M221 -6q-48 0 -89 16.5t-66 50.5t-25 87q0 37 13.5 64t37.5 45.5t54.5 30t64.5 17.5q36 7 81 11.5t97 9.5q0 33 -12.5 56.5t-35.5 36t-57 12.5q-35 0 -61.5 -12t-39.5 -41h-125q10 58 44 92t83 49.5t100 15.5q82 0 130 -30t69.5 -85.5t21.5 -133.5v-286h-111l-4 64
q-24 -28 -53.5 -43.5t-59.5 -21t-57 -5.5zM244 94q40 0 72 14t52 42t21 68v22q-23 -2 -46.5 -4.5t-46.5 -5.5t-46 -7q-40 -6 -64 -23t-24 -45q0 -25 13.5 -38t32.5 -18t36 -5zM411 592q-29 0 -50.5 18.5t-21.5 51.5t21.5 52.5t51.5 19.5q29 0 50.5 -19.5t21.5 -52.5
t-21.5 -51.5t-51.5 -18.5zM173 592q-30 0 -51 18.5t-21 51.5t21.5 52.5t50.5 19.5q30 0 51.5 -19.5t21.5 -52.5t-21.5 -51.5t-51.5 -18.5z" />
    <glyph glyph-name="a0103.alt" horiz-adv-x="563" 
d="M221 -6q-48 0 -89 16.5t-66 50.5t-25 87q0 37 13.5 64t37.5 45.5t54.5 30t64.5 17.5q36 7 81 11.5t97 9.5q0 33 -12.5 56.5t-35.5 36t-57 12.5q-35 0 -61.5 -12t-39.5 -41h-125q10 58 44 92t83 49.5t100 15.5q82 0 130 -30t69.5 -85.5t21.5 -133.5v-286h-111l-4 64
q-24 -28 -53.5 -43.5t-59.5 -21t-57 -5.5zM244 94q40 0 72 14t52 42t21 68v22q-23 -2 -46.5 -4.5t-46.5 -5.5t-46 -7q-40 -6 -64 -23t-24 -45q0 -25 13.5 -38t32.5 -18t36 -5zM287 585q-85 0 -133.5 39.5t-49.5 117.5h104q1 -37 22.5 -53t57.5 -16t57.5 16t22.5 53h104
q-1 -51 -23.5 -86.5t-63.5 -53t-98 -17.5z" />
    <glyph glyph-name="t0163.alt" horiz-adv-x="413" 
d="M269 -6q-87 0 -127 48t-40 133v244h-81v108h81v148h122v-148h160v-108h-160v-221q0 -26 6 -47t22 -33t44 -13q24 0 41 8t28 18l41 -93q-19 -16 -42.5 -26t-47.5 -14t-47 -4zM217 -262q-20 -1 -36.5 -0.5t-32.5 2.5v73q22 -2 42 -1.5t35.5 5t25 14.5t9.5 26
q0 14 -9.5 21.5t-22 10t-22.5 2.5q-13 0 -29 -2.5t-27 -6.5l37 143h82l-17 -73q6 1 12 1t11 -1q36 -2 57.5 -24.5t21.5 -65.5q0 -41 -19 -67.5t-50.5 -40t-67.5 -16.5z" />
    <glyph glyph-name="t021b.alt" horiz-adv-x="413" 
d="M269 -6q-87 0 -127 48t-40 133v244h-81v108h81v148h122v-148h160v-108h-160v-221q0 -26 6 -47t22 -33t44 -13q24 0 41 8t28 18l41 -93q-19 -16 -42.5 -26t-47.5 -14t-47 -4zM189 -302l-30 42q13 8 27 21t26 28t16 29q-26 1 -44.5 17t-18.5 44q0 32 21 48.5t48 16.5
q36 0 54 -26t18 -62q-1 -36 -17.5 -68t-43 -55.5t-56.5 -34.5z" />
    <glyph glyph-name="t2.alt" horiz-adv-x="413" 
d="M269 -6q-87 0 -127 48t-40 133v244h-81v108h81v148h122v-148h160v-108h-160v-221q0 -26 6 -47t22 -33t44 -13q24 0 41 8t28 18l41 -93q-19 -16 -42.5 -26t-47.5 -14t-47 -4z" />
    </font>
</defs>
</svg>
